<?xml version="1.0" encoding="utf-8" standalone="no"?>
<!DOCTYPE svg PUBLIC "-//W3C//DTD SVG 1.1//EN"
  "http://www.w3.org/Graphics/SVG/1.1/DTD/svg11.dtd">
<svg xmlns:xlink="http://www.w3.org/1999/xlink" width="460.8pt" height="345.6pt" viewBox="0 0 460.8 345.6" xmlns="http://www.w3.org/2000/svg" version="1.1">
 <metadata>
  <rdf:RDF xmlns:dc="http://purl.org/dc/elements/1.1/" xmlns:cc="http://creativecommons.org/ns#" xmlns:rdf="http://www.w3.org/1999/02/22-rdf-syntax-ns#">
   <cc:Work>
    <dc:type rdf:resource="http://purl.org/dc/dcmitype/StillImage"/>
    <dc:date>2023-04-07T23:25:22.209389</dc:date>
    <dc:format>image/svg+xml</dc:format>
    <dc:creator>
     <cc:Agent>
      <dc:title>Matplotlib v3.6.2, https://matplotlib.org/</dc:title>
     </cc:Agent>
    </dc:creator>
   </cc:Work>
  </rdf:RDF>
 </metadata>
 <defs>
  <style type="text/css">*{stroke-linejoin: round; stroke-linecap: butt}</style>
 </defs>
 <g id="figure_1">
  <g id="patch_1">
   <path d="M 0 345.6 
L 460.8 345.6 
L 460.8 0 
L 0 0 
z
" style="fill: #ffffff"/>
  </g>
  <g id="axes_1">
   <g id="patch_2">
    <path d="M 57.6 307.584 
L 414.72 307.584 
L 414.72 41.472 
L 57.6 41.472 
z
" style="fill: #ffffff"/>
   </g>
   <g id="matplotlib.axis_1">
    <g id="xtick_1">
     <g id="line2d_1">
      <defs>
       <path id="mdb29345860" d="M 0 0 
L 0 3.5 
" style="stroke: #000000; stroke-width: 0.8"/>
      </defs>
      <g>
       <use xlink:href="#mdb29345860" x="73.832727" y="307.584" style="stroke: #000000; stroke-width: 0.8"/>
      </g>
     </g>
     <g id="text_1">
      <!-- 0 -->
      <g transform="translate(70.651477 322.182437) scale(0.1 -0.1)">
       <defs>
        <path id="DejaVuSans-30" d="M 2034 4250 
Q 1547 4250 1301 3770 
Q 1056 3291 1056 2328 
Q 1056 1369 1301 889 
Q 1547 409 2034 409 
Q 2525 409 2770 889 
Q 3016 1369 3016 2328 
Q 3016 3291 2770 3770 
Q 2525 4250 2034 4250 
z
M 2034 4750 
Q 2819 4750 3233 4129 
Q 3647 3509 3647 2328 
Q 3647 1150 3233 529 
Q 2819 -91 2034 -91 
Q 1250 -91 836 529 
Q 422 1150 422 2328 
Q 422 3509 836 4129 
Q 1250 4750 2034 4750 
z
" transform="scale(0.015625)"/>
       </defs>
       <use xlink:href="#DejaVuSans-30"/>
      </g>
     </g>
    </g>
    <g id="xtick_2">
     <g id="line2d_2">
      <g>
       <use xlink:href="#mdb29345860" x="138.893758" y="307.584" style="stroke: #000000; stroke-width: 0.8"/>
      </g>
     </g>
     <g id="text_2">
      <!-- 100 -->
      <g transform="translate(129.350008 322.182437) scale(0.1 -0.1)">
       <defs>
        <path id="DejaVuSans-31" d="M 794 531 
L 1825 531 
L 1825 4091 
L 703 3866 
L 703 4441 
L 1819 4666 
L 2450 4666 
L 2450 531 
L 3481 531 
L 3481 0 
L 794 0 
L 794 531 
z
" transform="scale(0.015625)"/>
       </defs>
       <use xlink:href="#DejaVuSans-31"/>
       <use xlink:href="#DejaVuSans-30" x="63.623047"/>
       <use xlink:href="#DejaVuSans-30" x="127.246094"/>
      </g>
     </g>
    </g>
    <g id="xtick_3">
     <g id="line2d_3">
      <g>
       <use xlink:href="#mdb29345860" x="203.95479" y="307.584" style="stroke: #000000; stroke-width: 0.8"/>
      </g>
     </g>
     <g id="text_3">
      <!-- 200 -->
      <g transform="translate(194.41104 322.182437) scale(0.1 -0.1)">
       <defs>
        <path id="DejaVuSans-32" d="M 1228 531 
L 3431 531 
L 3431 0 
L 469 0 
L 469 531 
Q 828 903 1448 1529 
Q 2069 2156 2228 2338 
Q 2531 2678 2651 2914 
Q 2772 3150 2772 3378 
Q 2772 3750 2511 3984 
Q 2250 4219 1831 4219 
Q 1534 4219 1204 4116 
Q 875 4013 500 3803 
L 500 4441 
Q 881 4594 1212 4672 
Q 1544 4750 1819 4750 
Q 2544 4750 2975 4387 
Q 3406 4025 3406 3419 
Q 3406 3131 3298 2873 
Q 3191 2616 2906 2266 
Q 2828 2175 2409 1742 
Q 1991 1309 1228 531 
z
" transform="scale(0.015625)"/>
       </defs>
       <use xlink:href="#DejaVuSans-32"/>
       <use xlink:href="#DejaVuSans-30" x="63.623047"/>
       <use xlink:href="#DejaVuSans-30" x="127.246094"/>
      </g>
     </g>
    </g>
    <g id="xtick_4">
     <g id="line2d_4">
      <g>
       <use xlink:href="#mdb29345860" x="269.015821" y="307.584" style="stroke: #000000; stroke-width: 0.8"/>
      </g>
     </g>
     <g id="text_4">
      <!-- 300 -->
      <g transform="translate(259.472071 322.182437) scale(0.1 -0.1)">
       <defs>
        <path id="DejaVuSans-33" d="M 2597 2516 
Q 3050 2419 3304 2112 
Q 3559 1806 3559 1356 
Q 3559 666 3084 287 
Q 2609 -91 1734 -91 
Q 1441 -91 1130 -33 
Q 819 25 488 141 
L 488 750 
Q 750 597 1062 519 
Q 1375 441 1716 441 
Q 2309 441 2620 675 
Q 2931 909 2931 1356 
Q 2931 1769 2642 2001 
Q 2353 2234 1838 2234 
L 1294 2234 
L 1294 2753 
L 1863 2753 
Q 2328 2753 2575 2939 
Q 2822 3125 2822 3475 
Q 2822 3834 2567 4026 
Q 2313 4219 1838 4219 
Q 1578 4219 1281 4162 
Q 984 4106 628 3988 
L 628 4550 
Q 988 4650 1302 4700 
Q 1616 4750 1894 4750 
Q 2613 4750 3031 4423 
Q 3450 4097 3450 3541 
Q 3450 3153 3228 2886 
Q 3006 2619 2597 2516 
z
" transform="scale(0.015625)"/>
       </defs>
       <use xlink:href="#DejaVuSans-33"/>
       <use xlink:href="#DejaVuSans-30" x="63.623047"/>
       <use xlink:href="#DejaVuSans-30" x="127.246094"/>
      </g>
     </g>
    </g>
    <g id="xtick_5">
     <g id="line2d_5">
      <g>
       <use xlink:href="#mdb29345860" x="334.076852" y="307.584" style="stroke: #000000; stroke-width: 0.8"/>
      </g>
     </g>
     <g id="text_5">
      <!-- 400 -->
      <g transform="translate(324.533102 322.182437) scale(0.1 -0.1)">
       <defs>
        <path id="DejaVuSans-34" d="M 2419 4116 
L 825 1625 
L 2419 1625 
L 2419 4116 
z
M 2253 4666 
L 3047 4666 
L 3047 1625 
L 3713 1625 
L 3713 1100 
L 3047 1100 
L 3047 0 
L 2419 0 
L 2419 1100 
L 313 1100 
L 313 1709 
L 2253 4666 
z
" transform="scale(0.015625)"/>
       </defs>
       <use xlink:href="#DejaVuSans-34"/>
       <use xlink:href="#DejaVuSans-30" x="63.623047"/>
       <use xlink:href="#DejaVuSans-30" x="127.246094"/>
      </g>
     </g>
    </g>
    <g id="xtick_6">
     <g id="line2d_6">
      <g>
       <use xlink:href="#mdb29345860" x="399.137883" y="307.584" style="stroke: #000000; stroke-width: 0.8"/>
      </g>
     </g>
     <g id="text_6">
      <!-- 500 -->
      <g transform="translate(389.594133 322.182437) scale(0.1 -0.1)">
       <defs>
        <path id="DejaVuSans-35" d="M 691 4666 
L 3169 4666 
L 3169 4134 
L 1269 4134 
L 1269 2991 
Q 1406 3038 1543 3061 
Q 1681 3084 1819 3084 
Q 2600 3084 3056 2656 
Q 3513 2228 3513 1497 
Q 3513 744 3044 326 
Q 2575 -91 1722 -91 
Q 1428 -91 1123 -41 
Q 819 9 494 109 
L 494 744 
Q 775 591 1075 516 
Q 1375 441 1709 441 
Q 2250 441 2565 725 
Q 2881 1009 2881 1497 
Q 2881 1984 2565 2268 
Q 2250 2553 1709 2553 
Q 1456 2553 1204 2497 
Q 953 2441 691 2322 
L 691 4666 
z
" transform="scale(0.015625)"/>
       </defs>
       <use xlink:href="#DejaVuSans-35"/>
       <use xlink:href="#DejaVuSans-30" x="63.623047"/>
       <use xlink:href="#DejaVuSans-30" x="127.246094"/>
      </g>
     </g>
    </g>
   </g>
   <g id="matplotlib.axis_2">
    <g id="ytick_1">
     <g id="line2d_7">
      <defs>
       <path id="m6217fcf2e9" d="M 0 0 
L -3.5 0 
" style="stroke: #000000; stroke-width: 0.8"/>
      </defs>
      <g>
       <use xlink:href="#m6217fcf2e9" x="57.6" y="295.699824" style="stroke: #000000; stroke-width: 0.8"/>
      </g>
     </g>
     <g id="text_7">
      <!-- 0.0 -->
      <g transform="translate(34.696875 299.499042) scale(0.1 -0.1)">
       <defs>
        <path id="DejaVuSans-2e" d="M 684 794 
L 1344 794 
L 1344 0 
L 684 0 
L 684 794 
z
" transform="scale(0.015625)"/>
       </defs>
       <use xlink:href="#DejaVuSans-30"/>
       <use xlink:href="#DejaVuSans-2e" x="63.623047"/>
       <use xlink:href="#DejaVuSans-30" x="95.410156"/>
      </g>
     </g>
    </g>
    <g id="ytick_2">
     <g id="line2d_8">
      <g>
       <use xlink:href="#m6217fcf2e9" x="57.6" y="242.049315" style="stroke: #000000; stroke-width: 0.8"/>
      </g>
     </g>
     <g id="text_8">
      <!-- 0.1 -->
      <g transform="translate(34.696875 245.848534) scale(0.1 -0.1)">
       <use xlink:href="#DejaVuSans-30"/>
       <use xlink:href="#DejaVuSans-2e" x="63.623047"/>
       <use xlink:href="#DejaVuSans-31" x="95.410156"/>
      </g>
     </g>
    </g>
    <g id="ytick_3">
     <g id="line2d_9">
      <g>
       <use xlink:href="#m6217fcf2e9" x="57.6" y="188.398807" style="stroke: #000000; stroke-width: 0.8"/>
      </g>
     </g>
     <g id="text_9">
      <!-- 0.2 -->
      <g transform="translate(34.696875 192.198026) scale(0.1 -0.1)">
       <use xlink:href="#DejaVuSans-30"/>
       <use xlink:href="#DejaVuSans-2e" x="63.623047"/>
       <use xlink:href="#DejaVuSans-32" x="95.410156"/>
      </g>
     </g>
    </g>
    <g id="ytick_4">
     <g id="line2d_10">
      <g>
       <use xlink:href="#m6217fcf2e9" x="57.6" y="134.748299" style="stroke: #000000; stroke-width: 0.8"/>
      </g>
     </g>
     <g id="text_10">
      <!-- 0.3 -->
      <g transform="translate(34.696875 138.547518) scale(0.1 -0.1)">
       <use xlink:href="#DejaVuSans-30"/>
       <use xlink:href="#DejaVuSans-2e" x="63.623047"/>
       <use xlink:href="#DejaVuSans-33" x="95.410156"/>
      </g>
     </g>
    </g>
    <g id="ytick_5">
     <g id="line2d_11">
      <g>
       <use xlink:href="#m6217fcf2e9" x="57.6" y="81.097791" style="stroke: #000000; stroke-width: 0.8"/>
      </g>
     </g>
     <g id="text_11">
      <!-- 0.4 -->
      <g transform="translate(34.696875 84.89701) scale(0.1 -0.1)">
       <use xlink:href="#DejaVuSans-30"/>
       <use xlink:href="#DejaVuSans-2e" x="63.623047"/>
       <use xlink:href="#DejaVuSans-34" x="95.410156"/>
      </g>
     </g>
    </g>
   </g>
   <g id="line2d_12">
    <path d="M 73.832727 295.26698 
L 74.483338 295.445378 
L 77.736389 295.47361 
L 82.290661 295.410471 
L 83.591882 287.123564 
L 84.242492 255.938963 
L 84.893103 260.194228 
L 85.543713 244.705489 
L 86.194323 241.413293 
L 86.844934 232.458855 
L 87.495544 261.157804 
L 88.146154 205.032683 
L 88.796764 234.181232 
L 89.447375 234.106892 
L 90.097985 225.73797 
L 90.748595 197.534143 
L 91.399206 203.372964 
L 92.049816 268.300728 
L 92.700426 219.55267 
L 93.351037 218.112528 
L 94.001647 243.764672 
L 94.652257 196.644985 
L 95.302868 204.544221 
L 95.953478 217.83974 
L 96.604088 165.485396 
L 97.254698 188.718746 
L 97.905309 206.641264 
L 98.555919 207.352294 
L 99.206529 183.541289 
L 99.85714 185.767365 
L 100.50775 153.440251 
L 101.15836 205.900315 
L 101.808971 196.899143 
L 102.459581 243.944394 
L 103.110191 242.137256 
L 103.760802 201.352025 
L 104.411412 240.83377 
L 105.062022 228.208939 
L 105.712633 189.338146 
L 106.363243 191.322534 
L 107.664463 156.437458 
L 108.315074 200.200321 
L 108.965684 254.807442 
L 109.616294 158.741258 
L 110.266905 182.572684 
L 110.917515 158.341197 
L 111.568125 167.980773 
L 112.218736 158.25831 
L 112.869346 171.824063 
L 113.519956 144.580364 
L 114.170567 151.066894 
L 114.821177 146.088483 
L 115.471787 161.269984 
L 116.122398 122.042781 
L 116.773008 194.077771 
L 117.423618 169.728742 
L 118.074228 156.243515 
L 118.724839 169.765819 
L 119.375449 151.194322 
L 120.026059 215.392809 
L 120.67667 130.78582 
L 121.32728 208.186665 
L 121.97789 164.633122 
L 122.628501 140.121141 
L 123.279111 153.700398 
L 123.929721 162.559441 
L 124.580332 121.991972 
L 125.230942 127.720075 
L 125.881552 145.935892 
L 126.532163 158.841971 
L 127.182773 151.818326 
L 127.833383 162.962129 
L 128.483993 156.175524 
L 129.134604 151.007309 
L 129.785214 136.556591 
L 130.435824 162.545462 
L 131.086435 121.105591 
L 131.737045 135.861618 
L 132.387655 139.656092 
L 133.038266 160.925602 
L 133.688876 124.57708 
L 134.339486 134.597063 
L 134.990097 132.899478 
L 135.640707 154.41279 
L 136.291317 144.911402 
L 136.941927 143.374219 
L 137.592538 124.145105 
L 138.243148 127.355738 
L 138.893758 143.88857 
L 139.544369 131.262213 
L 140.194979 134.226395 
L 140.845589 134.604734 
L 141.4962 165.869618 
L 142.14681 135.583234 
L 142.79742 129.121245 
L 143.448031 144.94179 
L 144.098641 120.655169 
L 144.749251 123.302077 
L 145.399862 143.134141 
L 146.050472 148.163808 
L 147.351692 117.643527 
L 148.002303 140.162955 
L 148.652913 106.93529 
L 149.303523 160.623961 
L 149.954134 124.567144 
L 150.604744 125.462501 
L 151.255354 159.635401 
L 151.905965 102.536292 
L 152.556575 162.381432 
L 153.207185 133.400677 
L 153.857796 134.810545 
L 154.508406 178.996759 
L 155.159016 101.381249 
L 155.809627 152.854064 
L 156.460237 138.513058 
L 157.110847 142.352351 
L 157.761457 108.38308 
L 158.412068 120.035893 
L 159.062678 137.470912 
L 159.713288 108.837687 
L 160.363899 112.204406 
L 161.014509 125.342862 
L 161.665119 167.667414 
L 162.31573 110.74175 
L 162.96634 145.809847 
L 163.61695 133.41096 
L 164.918171 141.070195 
L 165.568781 153.686753 
L 166.219392 127.393861 
L 166.870002 112.751758 
L 167.520612 134.273161 
L 168.171222 116.191854 
L 168.821833 110.554811 
L 169.472443 123.691672 
L 170.123053 122.508991 
L 170.773664 126.186661 
L 171.424274 110.488236 
L 172.074884 135.536798 
L 172.725495 137.961508 
L 173.376105 120.426091 
L 174.026715 139.38932 
L 174.677326 115.87817 
L 175.327936 113.071737 
L 175.978546 101.397402 
L 176.629156 114.010557 
L 177.279767 136.701622 
L 177.930377 124.7438 
L 178.580987 106.359011 
L 179.231598 114.292527 
L 179.882208 134.954443 
L 180.532818 117.233073 
L 181.183429 103.148921 
L 181.834039 123.929247 
L 182.484649 111.377427 
L 183.13526 126.460047 
L 183.78587 108.097528 
L 184.43648 176.338909 
L 185.087091 137.278887 
L 185.737701 133.307552 
L 186.388311 168.055922 
L 187.038921 124.416965 
L 187.689532 130.722837 
L 188.340142 131.425507 
L 188.990752 128.318931 
L 189.641363 102.101105 
L 190.291973 128.790787 
L 190.942583 101.951191 
L 191.593194 82.946523 
L 192.243804 109.899376 
L 192.894414 155.534526 
L 193.545025 141.173987 
L 194.195635 149.721745 
L 194.846245 184.892149 
L 195.496856 124.943445 
L 196.147466 131.394735 
L 196.798076 135.438309 
L 197.448686 97.507054 
L 198.099297 91.788836 
L 198.749907 138.11144 
L 199.400517 138.346475 
L 200.051128 100.136456 
L 200.701738 104.592261 
L 201.352348 134.085102 
L 202.002959 124.135753 
L 202.653569 120.807563 
L 203.304179 95.940949 
L 203.95479 98.535016 
L 204.6054 80.989722 
L 205.906621 110.494093 
L 206.557231 134.251777 
L 207.207841 111.57946 
L 207.858451 154.83974 
L 208.509062 106.391798 
L 209.159672 102.564159 
L 209.810282 113.959278 
L 210.460893 91.658649 
L 211.111503 110.681188 
L 211.762113 112.802115 
L 212.412724 118.925327 
L 213.063334 86.706862 
L 213.713944 174.823047 
L 214.364555 131.980973 
L 215.015165 118.868323 
L 215.665775 117.733838 
L 216.316385 119.328992 
L 216.966996 104.660402 
L 217.617606 109.607964 
L 218.268216 105.597551 
L 218.918827 114.435552 
L 219.569437 78.710138 
L 220.220047 110.927142 
L 220.870658 100.433808 
L 221.521268 118.223529 
L 222.171878 97.500919 
L 222.822489 125.974066 
L 223.473099 91.712536 
L 224.123709 104.760037 
L 224.77432 86.906575 
L 225.42493 113.126721 
L 226.07554 116.80599 
L 226.72615 99.037845 
L 227.376761 117.33729 
L 228.027371 112.276987 
L 228.677981 109.802935 
L 229.328592 149.810196 
L 229.979202 98.236641 
L 230.629812 147.62445 
L 231.280423 113.296753 
L 231.931033 86.293767 
L 232.581643 93.292328 
L 233.232254 120.909099 
L 233.882864 109.245313 
L 234.533474 83.967367 
L 235.184085 151.709838 
L 235.834695 113.983992 
L 236.485305 96.721752 
L 237.135915 88.832489 
L 237.786526 127.006742 
L 238.437136 89.747851 
L 239.087746 96.803634 
L 239.738357 161.615902 
L 240.388967 115.082589 
L 241.039577 108.591436 
L 241.690188 91.450653 
L 242.340798 138.697052 
L 242.991408 93.051696 
L 243.642019 95.177223 
L 244.292629 78.146038 
L 244.943239 91.79398 
L 245.59385 108.16116 
L 246.24446 93.647354 
L 246.89507 101.440975 
L 247.54568 159.014777 
L 248.196291 99.617459 
L 248.846901 114.303418 
L 249.497511 132.789798 
L 250.148122 109.298323 
L 250.798732 101.070229 
L 251.449342 97.292156 
L 252.099953 96.967979 
L 252.750563 128.32227 
L 253.401173 98.936141 
L 254.051784 141.756401 
L 255.353004 108.532893 
L 256.003615 109.141639 
L 256.654225 88.294702 
L 257.304835 93.016411 
L 257.955445 88.38415 
L 258.606056 119.653827 
L 259.256666 96.925544 
L 259.907276 118.368833 
L 260.557887 103.954561 
L 261.208497 93.992097 
L 261.859107 92.114804 
L 262.509718 110.550567 
L 263.160328 116.038459 
L 263.810938 131.011074 
L 264.461549 122.39084 
L 265.112159 94.421135 
L 265.762769 87.675445 
L 266.413379 123.731499 
L 267.06399 125.024491 
L 267.7146 123.940335 
L 268.36521 106.896505 
L 269.015821 107.772566 
L 269.666431 97.555167 
L 270.317041 102.589079 
L 270.967652 118.042742 
L 271.618262 99.673755 
L 272.268872 96.885859 
L 272.919483 106.065081 
L 273.570093 95.635457 
L 274.220703 105.753166 
L 274.871314 94.598582 
L 275.521924 90.228278 
L 276.172534 68.191633 
L 276.823144 106.592836 
L 277.473755 73.139414 
L 278.124365 94.897587 
L 278.774975 105.12399 
L 279.425586 109.039058 
L 280.076196 101.738313 
L 280.726806 87.964116 
L 281.377417 92.118563 
L 282.028027 86.31147 
L 282.678637 109.366533 
L 283.329248 96.359503 
L 283.979858 115.22296 
L 284.630468 116.346496 
L 285.281079 109.107669 
L 285.931689 78.495432 
L 286.582299 102.031493 
L 287.232909 109.009738 
L 287.88352 103.826301 
L 288.53413 116.177399 
L 289.18474 89.276278 
L 289.835351 106.12806 
L 290.485961 107.689413 
L 291.136571 79.818137 
L 291.787182 114.284633 
L 292.437792 89.641099 
L 293.088402 119.641492 
L 293.739013 116.577588 
L 294.389623 84.986924 
L 295.040233 104.093886 
L 295.690844 90.839819 
L 296.341454 83.230677 
L 296.992064 82.108868 
L 297.642674 83.718029 
L 298.293285 97.801203 
L 298.943895 115.90744 
L 300.245116 75.051965 
L 300.895726 101.517923 
L 301.546336 108.831172 
L 302.196947 73.441329 
L 302.847557 84.840084 
L 303.498167 88.739441 
L 304.148778 109.644122 
L 304.799388 116.617177 
L 305.449998 93.813769 
L 306.100608 92.645185 
L 306.751219 101.021878 
L 307.401829 104.661211 
L 308.052439 101.476694 
L 308.70305 95.630053 
L 309.35366 113.029439 
L 310.00427 102.870185 
L 310.654881 100.335977 
L 311.305491 141.100866 
L 311.956101 108.387557 
L 312.606712 127.63372 
L 313.257322 84.234787 
L 313.907932 100.527906 
L 314.558543 110.422211 
L 315.209153 102.813086 
L 315.859763 100.898899 
L 316.510373 81.259308 
L 317.160984 81.701127 
L 317.811594 90.946956 
L 318.462204 90.586881 
L 319.112815 113.831054 
L 319.763425 88.054811 
L 320.414035 75.181244 
L 321.064646 86.852742 
L 321.715256 116.976411 
L 322.365866 111.20257 
L 323.016477 96.295144 
L 323.667087 110.800499 
L 324.317697 87.30759 
L 324.968308 94.331934 
L 325.618918 93.76227 
L 326.269528 95.610939 
L 326.920138 153.441805 
L 328.221359 97.178756 
L 328.871969 112.372424 
L 329.52258 94.319143 
L 330.17319 66.697456 
L 330.8238 72.982113 
L 331.474411 89.879692 
L 332.125021 79.280666 
L 333.426242 89.675032 
L 334.076852 96.997714 
L 334.727462 87.363835 
L 335.378073 92.068463 
L 336.028683 92.855364 
L 336.679293 108.115167 
L 337.329903 141.168829 
L 337.980514 83.058456 
L 338.631124 93.133364 
L 339.281734 88.867541 
L 339.932345 85.853482 
L 340.582955 75.546938 
L 341.233565 95.872488 
L 341.884176 111.451726 
L 342.534786 111.298957 
L 343.185396 87.203647 
L 343.836007 107.778322 
L 344.486617 82.826641 
L 345.137227 95.799194 
L 345.787837 116.342631 
L 347.089058 60.575226 
L 347.739668 77.477795 
L 348.390279 107.259293 
L 349.040889 103.582367 
L 349.691499 96.685598 
L 350.34211 94.026246 
L 350.99272 81.829867 
L 351.64333 94.179362 
L 352.293941 101.129854 
L 352.944551 121.382833 
L 353.595161 70.744978 
L 354.245772 89.396114 
L 354.896382 77.660002 
L 355.546992 105.083643 
L 356.197602 111.659356 
L 356.848213 103.835849 
L 357.498823 100.795623 
L 358.149433 110.956301 
L 358.800044 103.097824 
L 359.450654 106.005122 
L 360.101264 85.168039 
L 360.751875 87.93762 
L 361.402485 108.971415 
L 362.053095 67.300661 
L 362.703706 104.404828 
L 363.354316 95.037807 
L 364.004926 97.015028 
L 364.655537 69.121678 
L 365.306147 90.72356 
L 365.956757 82.684937 
L 366.607367 120.060836 
L 367.257978 126.156848 
L 367.908588 85.969892 
L 368.559198 115.046555 
L 369.209809 75.493054 
L 369.860419 63.98423 
L 370.511029 96.834278 
L 371.16164 76.716371 
L 371.81225 69.36621 
L 372.46286 110.47714 
L 373.113471 68.88477 
L 373.764081 83.827878 
L 374.414691 83.507242 
L 375.065302 156.278718 
L 375.715912 88.054866 
L 376.366522 89.192266 
L 377.017132 100.315548 
L 377.667743 67.872134 
L 378.968963 102.858956 
L 379.619574 68.007854 
L 380.270184 90.143257 
L 380.920794 84.151859 
L 381.571405 74.340962 
L 382.222015 98.449145 
L 382.872625 114.579888 
L 383.523236 103.546501 
L 384.173846 89.250101 
L 384.824456 100.194241 
L 385.475066 89.453916 
L 386.125677 67.062497 
L 386.776287 109.966649 
L 387.426897 77.166802 
L 388.077508 77.736727 
L 388.728118 73.773066 
L 389.378728 82.353556 
L 390.029339 139.530367 
L 390.679949 106.393753 
L 391.330559 89.447914 
L 391.98117 99.377545 
L 392.63178 99.278568 
L 393.28239 97.126751 
L 393.933001 65.150717 
L 394.583611 118.300254 
L 395.234221 90.477616 
L 395.884831 77.510837 
L 396.535442 105.619415 
L 397.186052 53.568 
L 397.836662 113.697445 
L 398.487273 83.774635 
L 398.487273 83.774635 
" clip-path="url(#p2753be47c4)" style="fill: none; stroke: #1f77b4; stroke-width: 1.5; stroke-linecap: square"/>
   </g>
   <g id="line2d_13">
    <path d="M 73.832727 295.466335 
L 81.640051 295.473626 
L 82.290661 295.286026 
L 83.591882 274.115661 
L 84.242492 246.252996 
L 84.893103 254.175146 
L 85.543713 250.916376 
L 86.194323 191.068066 
L 86.844934 280.560195 
L 87.495544 231.991089 
L 88.146154 227.129764 
L 88.796764 229.001544 
L 89.447375 209.969529 
L 90.097985 177.059234 
L 90.748595 205.955962 
L 91.399206 264.155877 
L 92.049816 272.128424 
L 92.700426 228.942048 
L 93.351037 234.250221 
L 94.001647 177.085376 
L 95.302868 247.804642 
L 95.953478 209.048605 
L 96.604088 206.409621 
L 97.254698 155.492004 
L 97.905309 232.627423 
L 98.555919 205.127887 
L 99.206529 195.558987 
L 99.85714 179.216723 
L 100.50775 266.465518 
L 101.15836 180.322641 
L 101.808971 243.36084 
L 102.459581 206.925477 
L 103.110191 190.370333 
L 103.760802 218.116454 
L 104.411412 263.827205 
L 105.062022 204.194987 
L 105.712633 205.16666 
L 106.363243 195.614182 
L 107.013853 189.315645 
L 107.664463 238.14395 
L 108.315074 250.668545 
L 108.965684 157.236958 
L 109.616294 188.065377 
L 110.266905 208.236311 
L 110.917515 178.80083 
L 111.568125 132.753285 
L 112.218736 145.619136 
L 112.869346 171.023014 
L 113.519956 153.255145 
L 114.170567 148.237207 
L 114.821177 179.829105 
L 115.471787 150.606504 
L 116.122398 184.114663 
L 116.773008 125.860114 
L 117.423618 123.299156 
L 118.074228 123.914768 
L 119.375449 240.159695 
L 120.026059 136.114481 
L 120.67667 248.508242 
L 121.32728 160.785435 
L 121.97789 215.086856 
L 122.628501 159.482707 
L 123.279111 139.399122 
L 123.929721 165.58792 
L 124.580332 164.759301 
L 125.230942 188.496427 
L 125.881552 156.482817 
L 126.532163 159.535023 
L 127.182773 104.373661 
L 127.833383 192.739854 
L 128.483993 191.758059 
L 129.134604 140.019307 
L 129.785214 188.326703 
L 131.086435 126.818836 
L 131.737045 156.930863 
L 132.387655 163.560982 
L 133.038266 149.421615 
L 133.688876 147.053838 
L 134.339486 123.798607 
L 134.990097 134.167121 
L 135.640707 153.011328 
L 136.291317 108.508201 
L 136.941927 153.860285 
L 137.592538 160.902395 
L 138.243148 140.13171 
L 138.893758 123.71596 
L 139.544369 132.922802 
L 140.194979 169.695407 
L 140.845589 129.58754 
L 141.4962 96.453317 
L 142.14681 95.897744 
L 142.79742 132.284773 
L 143.448031 156.945733 
L 144.098641 133.650226 
L 144.749251 98.501984 
L 145.399862 156.93187 
L 146.050472 139.709662 
L 146.701082 170.410823 
L 148.002303 121.204696 
L 148.652913 164.208125 
L 149.303523 83.66997 
L 149.954134 104.515596 
L 150.604744 106.53924 
L 151.255354 129.474097 
L 151.905965 188.61294 
L 152.556575 104.286296 
L 153.857796 159.704908 
L 154.508406 113.467252 
L 155.159016 195.064828 
L 156.460237 134.579208 
L 157.110847 141.520011 
L 157.761457 119.473061 
L 158.412068 127.884301 
L 159.062678 155.416808 
L 159.713288 136.49539 
L 160.363899 196.511586 
L 161.014509 163.818087 
L 161.665119 154.130868 
L 162.96634 117.338564 
L 163.61695 159.149574 
L 164.267561 157.872573 
L 164.918171 163.619055 
L 166.219392 101.921253 
L 166.870002 81.287083 
L 167.520612 126.536964 
L 168.171222 146.132115 
L 168.821833 119.198144 
L 169.472443 125.055302 
L 170.123053 98.457263 
L 170.773664 139.5243 
L 171.424274 146.871386 
L 172.074884 89.530134 
L 172.725495 165.962433 
L 173.376105 128.824572 
L 174.026715 154.679742 
L 174.677326 139.239678 
L 175.327936 137.328102 
L 175.978546 75.934621 
L 176.629156 185.579984 
L 177.279767 124.213029 
L 177.930377 139.789096 
L 178.580987 122.884095 
L 179.231598 122.591271 
L 179.882208 90.248956 
L 180.532818 146.539357 
L 181.183429 137.158937 
L 181.834039 101.852308 
L 182.484649 142.714541 
L 183.13526 106.911594 
L 183.78587 181.852989 
L 184.43648 95.527485 
L 185.087091 150.76422 
L 185.737701 170.289082 
L 186.388311 114.085007 
L 187.038921 124.326247 
L 187.689532 112.096171 
L 188.340142 130.099591 
L 188.990752 138.103237 
L 189.641363 86.949014 
L 190.291973 124.990531 
L 190.942583 93.621472 
L 191.593194 92.939665 
L 192.243804 116.719147 
L 192.894414 192.158442 
L 193.545025 141.339798 
L 194.195635 111.290896 
L 195.496856 159.624227 
L 196.147466 122.845529 
L 196.798076 97.426558 
L 197.448686 156.045723 
L 198.099297 139.144175 
L 198.749907 99.0361 
L 199.400517 132.153582 
L 200.051128 120.162719 
L 200.701738 128.515711 
L 201.352348 85.522563 
L 202.002959 125.363029 
L 202.653569 80.066571 
L 203.304179 107.599637 
L 203.95479 126.594109 
L 204.6054 97.417892 
L 205.25601 122.507296 
L 205.906621 130.065406 
L 206.557231 104.222947 
L 207.207841 100.683601 
L 207.858451 107.163374 
L 208.509062 89.970314 
L 209.159672 107.385351 
L 209.810282 130.932799 
L 210.460893 159.601042 
L 211.111503 94.219257 
L 211.762113 122.19618 
L 212.412724 133.120603 
L 213.063334 148.622352 
L 213.713944 146.581216 
L 214.364555 82.955066 
L 215.015165 147.693066 
L 215.665775 132.223455 
L 216.316385 104.77422 
L 216.966996 134.718026 
L 217.617606 92.491443 
L 218.268216 133.137327 
L 218.918827 121.738652 
L 219.569437 96.527171 
L 220.220047 169.886925 
L 220.870658 91.192792 
L 221.521268 108.048275 
L 222.171878 119.818409 
L 222.822489 88.759875 
L 223.473099 121.939843 
L 224.123709 95.605544 
L 224.77432 80.385202 
L 225.42493 131.180965 
L 226.07554 118.213504 
L 226.72615 118.116754 
L 227.376761 105.170381 
L 228.027371 63.731438 
L 228.677981 141.142205 
L 229.328592 104.274225 
L 229.979202 103.863225 
L 230.629812 141.570441 
L 231.280423 112.016705 
L 231.931033 133.064065 
L 232.581643 107.943786 
L 233.232254 100.548301 
L 233.882864 103.021703 
L 234.533474 136.031242 
L 235.184085 94.939022 
L 235.834695 94.195449 
L 236.485305 89.490066 
L 237.135915 137.835772 
L 237.786526 115.451403 
L 238.437136 98.472964 
L 239.087746 141.929604 
L 239.738357 98.210151 
L 240.388967 106.44476 
L 241.039577 119.177822 
L 241.690188 134.788346 
L 242.340798 98.891415 
L 242.991408 99.089248 
L 243.642019 90.412796 
L 244.292629 105.128522 
L 244.943239 147.454941 
L 245.59385 138.388339 
L 246.24446 102.927223 
L 246.89507 155.52136 
L 247.54568 124.653225 
L 248.196291 77.635653 
L 248.846901 135.690562 
L 249.497511 135.119032 
L 250.148122 149.9903 
L 250.798732 96.773515 
L 251.449342 67.500963 
L 252.099953 71.26558 
L 252.750563 151.933199 
L 253.401173 145.757954 
L 254.051784 142.914245 
L 254.702394 103.331331 
L 255.353004 115.349664 
L 256.003615 140.13163 
L 256.654225 87.125774 
L 257.304835 75.930448 
L 257.955445 105.038791 
L 258.606056 92.775857 
L 259.256666 127.487036 
L 259.907276 100.029007 
L 260.557887 103.390363 
L 261.208497 85.013758 
L 261.859107 111.528638 
L 262.509718 115.701329 
L 263.160328 232.364131 
L 263.810938 116.693756 
L 264.461549 102.765461 
L 265.112159 126.49616 
L 265.762769 130.973187 
L 266.413379 99.286953 
L 267.06399 87.881163 
L 267.7146 99.721345 
L 268.36521 155.035659 
L 269.666431 66.914595 
L 270.317041 113.103884 
L 270.967652 123.285453 
L 271.618262 104.965369 
L 272.268872 105.888036 
L 272.919483 99.542523 
L 273.570093 73.955027 
L 274.220703 92.731375 
L 274.871314 118.926154 
L 275.521924 138.028424 
L 276.172534 86.50279 
L 276.823144 72.010576 
L 277.473755 122.910589 
L 278.124365 90.883531 
L 278.774975 92.582117 
L 279.425586 108.283027 
L 280.076196 85.338704 
L 280.726806 66.469859 
L 281.377417 133.316757 
L 282.028027 106.205564 
L 282.678637 89.408313 
L 283.329248 136.362376 
L 283.979858 62.719168 
L 285.281079 134.992255 
L 285.931689 110.302546 
L 286.582299 78.600371 
L 287.232909 129.80181 
L 287.88352 98.547553 
L 288.53413 111.377509 
L 289.18474 145.718397 
L 290.485961 83.671809 
L 291.136571 98.279624 
L 291.787182 130.638983 
L 292.437792 104.260586 
L 293.088402 117.302589 
L 293.739013 98.338016 
L 294.389623 98.982745 
L 295.040233 113.759789 
L 295.690844 105.044995 
L 296.341454 84.383148 
L 296.992064 67.430979 
L 297.642674 132.588853 
L 298.293285 109.567799 
L 298.943895 109.808019 
L 299.594505 60.787269 
L 300.245116 102.756348 
L 300.895726 121.499535 
L 301.546336 121.432764 
L 302.196947 101.581437 
L 302.847557 108.312479 
L 303.498167 106.738176 
L 304.148778 109.401512 
L 304.799388 108.608725 
L 305.449998 78.118236 
L 306.100608 114.792189 
L 306.751219 101.998001 
L 307.401829 120.94006 
L 308.052439 134.000819 
L 308.70305 85.271838 
L 309.35366 140.881103 
L 310.00427 128.685211 
L 310.654881 105.621866 
L 311.305491 95.27943 
L 311.956101 93.67494 
L 312.606712 99.794591 
L 313.257322 107.152646 
L 313.907932 123.870878 
L 314.558543 90.759616 
L 315.209153 74.619246 
L 315.859763 96.541034 
L 316.510373 96.323038 
L 317.160984 137.384016 
L 317.811594 119.460893 
L 318.462204 75.033571 
L 319.112815 92.958868 
L 319.763425 125.803448 
L 320.414035 112.724111 
L 321.064646 133.158673 
L 321.715256 75.647552 
L 322.365866 90.076706 
L 323.016477 125.629663 
L 323.667087 121.374021 
L 324.317697 116.041673 
L 324.968308 87.982086 
L 325.618918 111.414188 
L 326.269528 126.054973 
L 326.920138 97.183156 
L 327.570749 111.265521 
L 328.221359 136.321172 
L 328.871969 85.482318 
L 329.52258 90.9822 
L 330.17319 108.732864 
L 330.8238 60.575318 
L 332.125021 141.841376 
L 332.775631 101.423081 
L 333.426242 92.954024 
L 334.076852 100.198508 
L 334.727462 76.053612 
L 335.378073 100.885431 
L 336.028683 148.435888 
L 336.679293 130.372764 
L 337.329903 73.762342 
L 337.980514 122.944326 
L 338.631124 89.070895 
L 339.281734 87.807549 
L 339.932345 80.093129 
L 340.582955 140.273885 
L 341.233565 113.534342 
L 341.884176 75.000426 
L 342.534786 131.310765 
L 343.185396 134.841877 
L 343.836007 95.32284 
L 344.486617 98.211734 
L 345.137227 97.612911 
L 345.787837 98.340383 
L 346.438448 105.363754 
L 347.089058 88.673918 
L 347.739668 104.409252 
L 348.390279 99.988539 
L 349.040889 68.113554 
L 350.34211 139.817396 
L 350.99272 83.966904 
L 351.64333 128.007625 
L 352.293941 103.894563 
L 352.944551 74.181448 
L 353.595161 86.377724 
L 354.245772 117.523894 
L 354.896382 134.714844 
L 355.546992 68.042962 
L 356.197602 141.288074 
L 356.848213 111.722314 
L 357.498823 113.929353 
L 358.149433 80.289763 
L 358.800044 113.768646 
L 359.450654 90.392154 
L 360.101264 79.063495 
L 360.751875 114.46777 
L 361.402485 91.321585 
L 362.053095 87.81978 
L 362.703706 143.256491 
L 363.354316 82.312943 
L 364.004926 101.631898 
L 364.655537 101.270369 
L 365.306147 82.863656 
L 365.956757 125.733576 
L 366.607367 104.620372 
L 367.257978 128.642568 
L 367.908588 92.489748 
L 368.559198 90.133595 
L 369.209809 110.545708 
L 369.860419 94.283837 
L 370.511029 95.818518 
L 371.16164 89.235711 
L 371.81225 101.953199 
L 372.46286 95.305268 
L 373.113471 98.853681 
L 374.414691 147.324997 
L 375.065302 111.243376 
L 376.366522 92.59801 
L 377.017132 108.351956 
L 377.667743 62.818556 
L 378.318353 128.796639 
L 378.968963 94.521771 
L 379.619574 83.582254 
L 380.270184 94.946729 
L 380.920794 95.118372 
L 381.571405 121.815655 
L 382.222015 132.536217 
L 382.872625 158.691279 
L 383.523236 100.995228 
L 384.173846 115.854536 
L 384.824456 58.203063 
L 385.475066 95.725814 
L 386.125677 124.332723 
L 386.776287 74.456956 
L 387.426897 91.538813 
L 388.077508 102.121564 
L 388.728118 86.560479 
L 389.378728 149.732571 
L 390.029339 107.697554 
L 390.679949 77.236533 
L 391.330559 107.824748 
L 391.98117 114.045626 
L 392.63178 93.704504 
L 393.28239 89.848829 
L 393.933001 131.131287 
L 394.583611 97.068194 
L 395.234221 94.927878 
L 395.884831 127.902881 
L 396.535442 72.874387 
L 397.186052 108.477774 
L 397.836662 102.789381 
L 398.487273 99.406792 
L 398.487273 99.406792 
" clip-path="url(#p2753be47c4)" style="fill: none; stroke: #ff7f0e; stroke-width: 1.5; stroke-linecap: square"/>
   </g>
   <g id="patch_3">
    <path d="M 57.6 307.584 
L 57.6 41.472 
" style="fill: none; stroke: #000000; stroke-width: 0.8; stroke-linejoin: miter; stroke-linecap: square"/>
   </g>
   <g id="patch_4">
    <path d="M 414.72 307.584 
L 414.72 41.472 
" style="fill: none; stroke: #000000; stroke-width: 0.8; stroke-linejoin: miter; stroke-linecap: square"/>
   </g>
   <g id="patch_5">
    <path d="M 57.6 307.584 
L 414.72 307.584 
" style="fill: none; stroke: #000000; stroke-width: 0.8; stroke-linejoin: miter; stroke-linecap: square"/>
   </g>
   <g id="patch_6">
    <path d="M 57.6 41.472 
L 414.72 41.472 
" style="fill: none; stroke: #000000; stroke-width: 0.8; stroke-linejoin: miter; stroke-linecap: square"/>
   </g>
   <g id="text_12">
    <!-- Dice score during training -->
    <g transform="translate(158.442187 35.472) scale(0.12 -0.12)">
     <defs>
      <path id="DejaVuSans-44" d="M 1259 4147 
L 1259 519 
L 2022 519 
Q 2988 519 3436 956 
Q 3884 1394 3884 2338 
Q 3884 3275 3436 3711 
Q 2988 4147 2022 4147 
L 1259 4147 
z
M 628 4666 
L 1925 4666 
Q 3281 4666 3915 4102 
Q 4550 3538 4550 2338 
Q 4550 1131 3912 565 
Q 3275 0 1925 0 
L 628 0 
L 628 4666 
z
" transform="scale(0.015625)"/>
      <path id="DejaVuSans-69" d="M 603 3500 
L 1178 3500 
L 1178 0 
L 603 0 
L 603 3500 
z
M 603 4863 
L 1178 4863 
L 1178 4134 
L 603 4134 
L 603 4863 
z
" transform="scale(0.015625)"/>
      <path id="DejaVuSans-63" d="M 3122 3366 
L 3122 2828 
Q 2878 2963 2633 3030 
Q 2388 3097 2138 3097 
Q 1578 3097 1268 2742 
Q 959 2388 959 1747 
Q 959 1106 1268 751 
Q 1578 397 2138 397 
Q 2388 397 2633 464 
Q 2878 531 3122 666 
L 3122 134 
Q 2881 22 2623 -34 
Q 2366 -91 2075 -91 
Q 1284 -91 818 406 
Q 353 903 353 1747 
Q 353 2603 823 3093 
Q 1294 3584 2113 3584 
Q 2378 3584 2631 3529 
Q 2884 3475 3122 3366 
z
" transform="scale(0.015625)"/>
      <path id="DejaVuSans-65" d="M 3597 1894 
L 3597 1613 
L 953 1613 
Q 991 1019 1311 708 
Q 1631 397 2203 397 
Q 2534 397 2845 478 
Q 3156 559 3463 722 
L 3463 178 
Q 3153 47 2828 -22 
Q 2503 -91 2169 -91 
Q 1331 -91 842 396 
Q 353 884 353 1716 
Q 353 2575 817 3079 
Q 1281 3584 2069 3584 
Q 2775 3584 3186 3129 
Q 3597 2675 3597 1894 
z
M 3022 2063 
Q 3016 2534 2758 2815 
Q 2500 3097 2075 3097 
Q 1594 3097 1305 2825 
Q 1016 2553 972 2059 
L 3022 2063 
z
" transform="scale(0.015625)"/>
      <path id="DejaVuSans-20" transform="scale(0.015625)"/>
      <path id="DejaVuSans-73" d="M 2834 3397 
L 2834 2853 
Q 2591 2978 2328 3040 
Q 2066 3103 1784 3103 
Q 1356 3103 1142 2972 
Q 928 2841 928 2578 
Q 928 2378 1081 2264 
Q 1234 2150 1697 2047 
L 1894 2003 
Q 2506 1872 2764 1633 
Q 3022 1394 3022 966 
Q 3022 478 2636 193 
Q 2250 -91 1575 -91 
Q 1294 -91 989 -36 
Q 684 19 347 128 
L 347 722 
Q 666 556 975 473 
Q 1284 391 1588 391 
Q 1994 391 2212 530 
Q 2431 669 2431 922 
Q 2431 1156 2273 1281 
Q 2116 1406 1581 1522 
L 1381 1569 
Q 847 1681 609 1914 
Q 372 2147 372 2553 
Q 372 3047 722 3315 
Q 1072 3584 1716 3584 
Q 2034 3584 2315 3537 
Q 2597 3491 2834 3397 
z
" transform="scale(0.015625)"/>
      <path id="DejaVuSans-6f" d="M 1959 3097 
Q 1497 3097 1228 2736 
Q 959 2375 959 1747 
Q 959 1119 1226 758 
Q 1494 397 1959 397 
Q 2419 397 2687 759 
Q 2956 1122 2956 1747 
Q 2956 2369 2687 2733 
Q 2419 3097 1959 3097 
z
M 1959 3584 
Q 2709 3584 3137 3096 
Q 3566 2609 3566 1747 
Q 3566 888 3137 398 
Q 2709 -91 1959 -91 
Q 1206 -91 779 398 
Q 353 888 353 1747 
Q 353 2609 779 3096 
Q 1206 3584 1959 3584 
z
" transform="scale(0.015625)"/>
      <path id="DejaVuSans-72" d="M 2631 2963 
Q 2534 3019 2420 3045 
Q 2306 3072 2169 3072 
Q 1681 3072 1420 2755 
Q 1159 2438 1159 1844 
L 1159 0 
L 581 0 
L 581 3500 
L 1159 3500 
L 1159 2956 
Q 1341 3275 1631 3429 
Q 1922 3584 2338 3584 
Q 2397 3584 2469 3576 
Q 2541 3569 2628 3553 
L 2631 2963 
z
" transform="scale(0.015625)"/>
      <path id="DejaVuSans-64" d="M 2906 2969 
L 2906 4863 
L 3481 4863 
L 3481 0 
L 2906 0 
L 2906 525 
Q 2725 213 2448 61 
Q 2172 -91 1784 -91 
Q 1150 -91 751 415 
Q 353 922 353 1747 
Q 353 2572 751 3078 
Q 1150 3584 1784 3584 
Q 2172 3584 2448 3432 
Q 2725 3281 2906 2969 
z
M 947 1747 
Q 947 1113 1208 752 
Q 1469 391 1925 391 
Q 2381 391 2643 752 
Q 2906 1113 2906 1747 
Q 2906 2381 2643 2742 
Q 2381 3103 1925 3103 
Q 1469 3103 1208 2742 
Q 947 2381 947 1747 
z
" transform="scale(0.015625)"/>
      <path id="DejaVuSans-75" d="M 544 1381 
L 544 3500 
L 1119 3500 
L 1119 1403 
Q 1119 906 1312 657 
Q 1506 409 1894 409 
Q 2359 409 2629 706 
Q 2900 1003 2900 1516 
L 2900 3500 
L 3475 3500 
L 3475 0 
L 2900 0 
L 2900 538 
Q 2691 219 2414 64 
Q 2138 -91 1772 -91 
Q 1169 -91 856 284 
Q 544 659 544 1381 
z
M 1991 3584 
L 1991 3584 
z
" transform="scale(0.015625)"/>
      <path id="DejaVuSans-6e" d="M 3513 2113 
L 3513 0 
L 2938 0 
L 2938 2094 
Q 2938 2591 2744 2837 
Q 2550 3084 2163 3084 
Q 1697 3084 1428 2787 
Q 1159 2491 1159 1978 
L 1159 0 
L 581 0 
L 581 3500 
L 1159 3500 
L 1159 2956 
Q 1366 3272 1645 3428 
Q 1925 3584 2291 3584 
Q 2894 3584 3203 3211 
Q 3513 2838 3513 2113 
z
" transform="scale(0.015625)"/>
      <path id="DejaVuSans-67" d="M 2906 1791 
Q 2906 2416 2648 2759 
Q 2391 3103 1925 3103 
Q 1463 3103 1205 2759 
Q 947 2416 947 1791 
Q 947 1169 1205 825 
Q 1463 481 1925 481 
Q 2391 481 2648 825 
Q 2906 1169 2906 1791 
z
M 3481 434 
Q 3481 -459 3084 -895 
Q 2688 -1331 1869 -1331 
Q 1566 -1331 1297 -1286 
Q 1028 -1241 775 -1147 
L 775 -588 
Q 1028 -725 1275 -790 
Q 1522 -856 1778 -856 
Q 2344 -856 2625 -561 
Q 2906 -266 2906 331 
L 2906 616 
Q 2728 306 2450 153 
Q 2172 0 1784 0 
Q 1141 0 747 490 
Q 353 981 353 1791 
Q 353 2603 747 3093 
Q 1141 3584 1784 3584 
Q 2172 3584 2450 3431 
Q 2728 3278 2906 2969 
L 2906 3500 
L 3481 3500 
L 3481 434 
z
" transform="scale(0.015625)"/>
      <path id="DejaVuSans-74" d="M 1172 4494 
L 1172 3500 
L 2356 3500 
L 2356 3053 
L 1172 3053 
L 1172 1153 
Q 1172 725 1289 603 
Q 1406 481 1766 481 
L 2356 481 
L 2356 0 
L 1766 0 
Q 1100 0 847 248 
Q 594 497 594 1153 
L 594 3053 
L 172 3053 
L 172 3500 
L 594 3500 
L 594 4494 
L 1172 4494 
z
" transform="scale(0.015625)"/>
      <path id="DejaVuSans-61" d="M 2194 1759 
Q 1497 1759 1228 1600 
Q 959 1441 959 1056 
Q 959 750 1161 570 
Q 1363 391 1709 391 
Q 2188 391 2477 730 
Q 2766 1069 2766 1631 
L 2766 1759 
L 2194 1759 
z
M 3341 1997 
L 3341 0 
L 2766 0 
L 2766 531 
Q 2569 213 2275 61 
Q 1981 -91 1556 -91 
Q 1019 -91 701 211 
Q 384 513 384 1019 
Q 384 1609 779 1909 
Q 1175 2209 1959 2209 
L 2766 2209 
L 2766 2266 
Q 2766 2663 2505 2880 
Q 2244 3097 1772 3097 
Q 1472 3097 1187 3025 
Q 903 2953 641 2809 
L 641 3341 
Q 956 3463 1253 3523 
Q 1550 3584 1831 3584 
Q 2591 3584 2966 3190 
Q 3341 2797 3341 1997 
z
" transform="scale(0.015625)"/>
     </defs>
     <use xlink:href="#DejaVuSans-44"/>
     <use xlink:href="#DejaVuSans-69" x="77.001953"/>
     <use xlink:href="#DejaVuSans-63" x="104.785156"/>
     <use xlink:href="#DejaVuSans-65" x="159.765625"/>
     <use xlink:href="#DejaVuSans-20" x="221.289062"/>
     <use xlink:href="#DejaVuSans-73" x="253.076172"/>
     <use xlink:href="#DejaVuSans-63" x="305.175781"/>
     <use xlink:href="#DejaVuSans-6f" x="360.15625"/>
     <use xlink:href="#DejaVuSans-72" x="421.337891"/>
     <use xlink:href="#DejaVuSans-65" x="460.201172"/>
     <use xlink:href="#DejaVuSans-20" x="521.724609"/>
     <use xlink:href="#DejaVuSans-64" x="553.511719"/>
     <use xlink:href="#DejaVuSans-75" x="616.988281"/>
     <use xlink:href="#DejaVuSans-72" x="680.367188"/>
     <use xlink:href="#DejaVuSans-69" x="721.480469"/>
     <use xlink:href="#DejaVuSans-6e" x="749.263672"/>
     <use xlink:href="#DejaVuSans-67" x="812.642578"/>
     <use xlink:href="#DejaVuSans-20" x="876.119141"/>
     <use xlink:href="#DejaVuSans-74" x="907.90625"/>
     <use xlink:href="#DejaVuSans-72" x="947.115234"/>
     <use xlink:href="#DejaVuSans-61" x="988.228516"/>
     <use xlink:href="#DejaVuSans-69" x="1049.507812"/>
     <use xlink:href="#DejaVuSans-6e" x="1077.291016"/>
     <use xlink:href="#DejaVuSans-69" x="1140.669922"/>
     <use xlink:href="#DejaVuSans-6e" x="1168.453125"/>
     <use xlink:href="#DejaVuSans-67" x="1231.832031"/>
    </g>
   </g>
   <g id="legend_1">
    <g id="patch_7">
     <path d="M 296.380938 302.584 
L 407.72 302.584 
Q 409.72 302.584 409.72 300.584 
L 409.72 272.22775 
Q 409.72 270.22775 407.72 270.22775 
L 296.380938 270.22775 
Q 294.380938 270.22775 294.380938 272.22775 
L 294.380938 300.584 
Q 294.380938 302.584 296.380938 302.584 
z
" style="fill: #ffffff; opacity: 0.8; stroke: #cccccc; stroke-linejoin: miter"/>
    </g>
    <g id="line2d_14">
     <path d="M 298.380938 278.326187 
L 308.380938 278.326187 
L 318.380938 278.326187 
" style="fill: none; stroke: #1f77b4; stroke-width: 1.5; stroke-linecap: square"/>
    </g>
    <g id="text_13">
     <!-- Train Dice score -->
     <g transform="translate(326.380938 281.826187) scale(0.1 -0.1)">
      <defs>
       <path id="DejaVuSans-54" d="M -19 4666 
L 3928 4666 
L 3928 4134 
L 2272 4134 
L 2272 0 
L 1638 0 
L 1638 4134 
L -19 4134 
L -19 4666 
z
" transform="scale(0.015625)"/>
      </defs>
      <use xlink:href="#DejaVuSans-54"/>
      <use xlink:href="#DejaVuSans-72" x="46.333984"/>
      <use xlink:href="#DejaVuSans-61" x="87.447266"/>
      <use xlink:href="#DejaVuSans-69" x="148.726562"/>
      <use xlink:href="#DejaVuSans-6e" x="176.509766"/>
      <use xlink:href="#DejaVuSans-20" x="239.888672"/>
      <use xlink:href="#DejaVuSans-44" x="271.675781"/>
      <use xlink:href="#DejaVuSans-69" x="348.677734"/>
      <use xlink:href="#DejaVuSans-63" x="376.460938"/>
      <use xlink:href="#DejaVuSans-65" x="431.441406"/>
      <use xlink:href="#DejaVuSans-20" x="492.964844"/>
      <use xlink:href="#DejaVuSans-73" x="524.751953"/>
      <use xlink:href="#DejaVuSans-63" x="576.851562"/>
      <use xlink:href="#DejaVuSans-6f" x="631.832031"/>
      <use xlink:href="#DejaVuSans-72" x="693.013672"/>
      <use xlink:href="#DejaVuSans-65" x="731.876953"/>
     </g>
    </g>
    <g id="line2d_15">
     <path d="M 298.380938 293.004312 
L 308.380938 293.004312 
L 318.380938 293.004312 
" style="fill: none; stroke: #ff7f0e; stroke-width: 1.5; stroke-linecap: square"/>
    </g>
    <g id="text_14">
     <!-- Test Dice score -->
     <g transform="translate(326.380938 296.504312) scale(0.1 -0.1)">
      <use xlink:href="#DejaVuSans-54"/>
      <use xlink:href="#DejaVuSans-65" x="44.083984"/>
      <use xlink:href="#DejaVuSans-73" x="105.607422"/>
      <use xlink:href="#DejaVuSans-74" x="157.707031"/>
      <use xlink:href="#DejaVuSans-20" x="196.916016"/>
      <use xlink:href="#DejaVuSans-44" x="228.703125"/>
      <use xlink:href="#DejaVuSans-69" x="305.705078"/>
      <use xlink:href="#DejaVuSans-63" x="333.488281"/>
      <use xlink:href="#DejaVuSans-65" x="388.46875"/>
      <use xlink:href="#DejaVuSans-20" x="449.992188"/>
      <use xlink:href="#DejaVuSans-73" x="481.779297"/>
      <use xlink:href="#DejaVuSans-63" x="533.878906"/>
      <use xlink:href="#DejaVuSans-6f" x="588.859375"/>
      <use xlink:href="#DejaVuSans-72" x="650.041016"/>
      <use xlink:href="#DejaVuSans-65" x="688.904297"/>
     </g>
    </g>
   </g>
  </g>
 </g>
 <defs>
  <clipPath id="p2753be47c4">
   <rect x="57.6" y="41.472" width="357.12" height="266.112"/>
  </clipPath>
 </defs>
</svg>
