<?xml version="1.0" encoding="utf-8" standalone="no"?>
<!DOCTYPE svg PUBLIC "-//W3C//DTD SVG 1.1//EN"
  "http://www.w3.org/Graphics/SVG/1.1/DTD/svg11.dtd">
<svg xmlns:xlink="http://www.w3.org/1999/xlink" width="460.8pt" height="345.6pt" viewBox="0 0 460.8 345.6" xmlns="http://www.w3.org/2000/svg" version="1.1">
 <metadata>
  <rdf:RDF xmlns:dc="http://purl.org/dc/elements/1.1/" xmlns:cc="http://creativecommons.org/ns#" xmlns:rdf="http://www.w3.org/1999/02/22-rdf-syntax-ns#">
   <cc:Work>
    <dc:type rdf:resource="http://purl.org/dc/dcmitype/StillImage"/>
    <dc:date>2023-04-08T11:15:38.000622</dc:date>
    <dc:format>image/svg+xml</dc:format>
    <dc:creator>
     <cc:Agent>
      <dc:title>Matplotlib v3.6.2, https://matplotlib.org/</dc:title>
     </cc:Agent>
    </dc:creator>
   </cc:Work>
  </rdf:RDF>
 </metadata>
 <defs>
  <style type="text/css">*{stroke-linejoin: round; stroke-linecap: butt}</style>
 </defs>
 <g id="figure_1">
  <g id="patch_1">
   <path d="M 0 345.6 
L 460.8 345.6 
L 460.8 0 
L 0 0 
z
" style="fill: #ffffff"/>
  </g>
  <g id="axes_1">
   <g id="patch_2">
    <path d="M 57.6 307.584 
L 414.72 307.584 
L 414.72 41.472 
L 57.6 41.472 
z
" style="fill: #ffffff"/>
   </g>
   <g id="matplotlib.axis_1">
    <g id="xtick_1">
     <g id="line2d_1">
      <defs>
       <path id="me68793c2e8" d="M 0 0 
L 0 3.5 
" style="stroke: #000000; stroke-width: 0.8"/>
      </defs>
      <g>
       <use xlink:href="#me68793c2e8" x="73.832727" y="307.584" style="stroke: #000000; stroke-width: 0.8"/>
      </g>
     </g>
     <g id="text_1">
      <!-- 0 -->
      <g transform="translate(70.651477 322.182437) scale(0.1 -0.1)">
       <defs>
        <path id="DejaVuSans-30" d="M 2034 4250 
Q 1547 4250 1301 3770 
Q 1056 3291 1056 2328 
Q 1056 1369 1301 889 
Q 1547 409 2034 409 
Q 2525 409 2770 889 
Q 3016 1369 3016 2328 
Q 3016 3291 2770 3770 
Q 2525 4250 2034 4250 
z
M 2034 4750 
Q 2819 4750 3233 4129 
Q 3647 3509 3647 2328 
Q 3647 1150 3233 529 
Q 2819 -91 2034 -91 
Q 1250 -91 836 529 
Q 422 1150 422 2328 
Q 422 3509 836 4129 
Q 1250 4750 2034 4750 
z
" transform="scale(0.015625)"/>
       </defs>
       <use xlink:href="#DejaVuSans-30"/>
      </g>
     </g>
    </g>
    <g id="xtick_2">
     <g id="line2d_2">
      <g>
       <use xlink:href="#me68793c2e8" x="138.893758" y="307.584" style="stroke: #000000; stroke-width: 0.8"/>
      </g>
     </g>
     <g id="text_2">
      <!-- 100 -->
      <g transform="translate(129.350008 322.182437) scale(0.1 -0.1)">
       <defs>
        <path id="DejaVuSans-31" d="M 794 531 
L 1825 531 
L 1825 4091 
L 703 3866 
L 703 4441 
L 1819 4666 
L 2450 4666 
L 2450 531 
L 3481 531 
L 3481 0 
L 794 0 
L 794 531 
z
" transform="scale(0.015625)"/>
       </defs>
       <use xlink:href="#DejaVuSans-31"/>
       <use xlink:href="#DejaVuSans-30" x="63.623047"/>
       <use xlink:href="#DejaVuSans-30" x="127.246094"/>
      </g>
     </g>
    </g>
    <g id="xtick_3">
     <g id="line2d_3">
      <g>
       <use xlink:href="#me68793c2e8" x="203.95479" y="307.584" style="stroke: #000000; stroke-width: 0.8"/>
      </g>
     </g>
     <g id="text_3">
      <!-- 200 -->
      <g transform="translate(194.41104 322.182437) scale(0.1 -0.1)">
       <defs>
        <path id="DejaVuSans-32" d="M 1228 531 
L 3431 531 
L 3431 0 
L 469 0 
L 469 531 
Q 828 903 1448 1529 
Q 2069 2156 2228 2338 
Q 2531 2678 2651 2914 
Q 2772 3150 2772 3378 
Q 2772 3750 2511 3984 
Q 2250 4219 1831 4219 
Q 1534 4219 1204 4116 
Q 875 4013 500 3803 
L 500 4441 
Q 881 4594 1212 4672 
Q 1544 4750 1819 4750 
Q 2544 4750 2975 4387 
Q 3406 4025 3406 3419 
Q 3406 3131 3298 2873 
Q 3191 2616 2906 2266 
Q 2828 2175 2409 1742 
Q 1991 1309 1228 531 
z
" transform="scale(0.015625)"/>
       </defs>
       <use xlink:href="#DejaVuSans-32"/>
       <use xlink:href="#DejaVuSans-30" x="63.623047"/>
       <use xlink:href="#DejaVuSans-30" x="127.246094"/>
      </g>
     </g>
    </g>
    <g id="xtick_4">
     <g id="line2d_4">
      <g>
       <use xlink:href="#me68793c2e8" x="269.015821" y="307.584" style="stroke: #000000; stroke-width: 0.8"/>
      </g>
     </g>
     <g id="text_4">
      <!-- 300 -->
      <g transform="translate(259.472071 322.182437) scale(0.1 -0.1)">
       <defs>
        <path id="DejaVuSans-33" d="M 2597 2516 
Q 3050 2419 3304 2112 
Q 3559 1806 3559 1356 
Q 3559 666 3084 287 
Q 2609 -91 1734 -91 
Q 1441 -91 1130 -33 
Q 819 25 488 141 
L 488 750 
Q 750 597 1062 519 
Q 1375 441 1716 441 
Q 2309 441 2620 675 
Q 2931 909 2931 1356 
Q 2931 1769 2642 2001 
Q 2353 2234 1838 2234 
L 1294 2234 
L 1294 2753 
L 1863 2753 
Q 2328 2753 2575 2939 
Q 2822 3125 2822 3475 
Q 2822 3834 2567 4026 
Q 2313 4219 1838 4219 
Q 1578 4219 1281 4162 
Q 984 4106 628 3988 
L 628 4550 
Q 988 4650 1302 4700 
Q 1616 4750 1894 4750 
Q 2613 4750 3031 4423 
Q 3450 4097 3450 3541 
Q 3450 3153 3228 2886 
Q 3006 2619 2597 2516 
z
" transform="scale(0.015625)"/>
       </defs>
       <use xlink:href="#DejaVuSans-33"/>
       <use xlink:href="#DejaVuSans-30" x="63.623047"/>
       <use xlink:href="#DejaVuSans-30" x="127.246094"/>
      </g>
     </g>
    </g>
    <g id="xtick_5">
     <g id="line2d_5">
      <g>
       <use xlink:href="#me68793c2e8" x="334.076852" y="307.584" style="stroke: #000000; stroke-width: 0.8"/>
      </g>
     </g>
     <g id="text_5">
      <!-- 400 -->
      <g transform="translate(324.533102 322.182437) scale(0.1 -0.1)">
       <defs>
        <path id="DejaVuSans-34" d="M 2419 4116 
L 825 1625 
L 2419 1625 
L 2419 4116 
z
M 2253 4666 
L 3047 4666 
L 3047 1625 
L 3713 1625 
L 3713 1100 
L 3047 1100 
L 3047 0 
L 2419 0 
L 2419 1100 
L 313 1100 
L 313 1709 
L 2253 4666 
z
" transform="scale(0.015625)"/>
       </defs>
       <use xlink:href="#DejaVuSans-34"/>
       <use xlink:href="#DejaVuSans-30" x="63.623047"/>
       <use xlink:href="#DejaVuSans-30" x="127.246094"/>
      </g>
     </g>
    </g>
    <g id="xtick_6">
     <g id="line2d_6">
      <g>
       <use xlink:href="#me68793c2e8" x="399.137883" y="307.584" style="stroke: #000000; stroke-width: 0.8"/>
      </g>
     </g>
     <g id="text_6">
      <!-- 500 -->
      <g transform="translate(389.594133 322.182437) scale(0.1 -0.1)">
       <defs>
        <path id="DejaVuSans-35" d="M 691 4666 
L 3169 4666 
L 3169 4134 
L 1269 4134 
L 1269 2991 
Q 1406 3038 1543 3061 
Q 1681 3084 1819 3084 
Q 2600 3084 3056 2656 
Q 3513 2228 3513 1497 
Q 3513 744 3044 326 
Q 2575 -91 1722 -91 
Q 1428 -91 1123 -41 
Q 819 9 494 109 
L 494 744 
Q 775 591 1075 516 
Q 1375 441 1709 441 
Q 2250 441 2565 725 
Q 2881 1009 2881 1497 
Q 2881 1984 2565 2268 
Q 2250 2553 1709 2553 
Q 1456 2553 1204 2497 
Q 953 2441 691 2322 
L 691 4666 
z
" transform="scale(0.015625)"/>
       </defs>
       <use xlink:href="#DejaVuSans-35"/>
       <use xlink:href="#DejaVuSans-30" x="63.623047"/>
       <use xlink:href="#DejaVuSans-30" x="127.246094"/>
      </g>
     </g>
    </g>
   </g>
   <g id="matplotlib.axis_2">
    <g id="ytick_1">
     <g id="line2d_7">
      <defs>
       <path id="m46ca825e0f" d="M 0 0 
L -3.5 0 
" style="stroke: #000000; stroke-width: 0.8"/>
      </defs>
      <g>
       <use xlink:href="#m46ca825e0f" x="57.6" y="222.404829" style="stroke: #000000; stroke-width: 0.8"/>
      </g>
     </g>
     <g id="text_7">
      <!-- $\mathdefault{10^{-2}}$ -->
      <g transform="translate(27.1 226.204047) scale(0.1 -0.1)">
       <defs>
        <path id="DejaVuSans-2212" d="M 678 2272 
L 4684 2272 
L 4684 1741 
L 678 1741 
L 678 2272 
z
" transform="scale(0.015625)"/>
       </defs>
       <use xlink:href="#DejaVuSans-31" transform="translate(0 0.765625)"/>
       <use xlink:href="#DejaVuSans-30" transform="translate(63.623047 0.765625)"/>
       <use xlink:href="#DejaVuSans-2212" transform="translate(128.203125 39.046875) scale(0.7)"/>
       <use xlink:href="#DejaVuSans-32" transform="translate(186.855469 39.046875) scale(0.7)"/>
      </g>
     </g>
    </g>
    <g id="ytick_2">
     <g id="line2d_8">
      <defs>
       <path id="m6432cfb0ac" d="M 0 0 
L -2 0 
" style="stroke: #000000; stroke-width: 0.6"/>
      </defs>
      <g>
       <use xlink:href="#m6432cfb0ac" x="57.6" y="286.38669" style="stroke: #000000; stroke-width: 0.6"/>
      </g>
     </g>
    </g>
    <g id="ytick_3">
     <g id="line2d_9">
      <g>
       <use xlink:href="#m6432cfb0ac" x="57.6" y="262.433263" style="stroke: #000000; stroke-width: 0.6"/>
      </g>
     </g>
    </g>
    <g id="ytick_4">
     <g id="line2d_10">
      <g>
       <use xlink:href="#m6432cfb0ac" x="57.6" y="241.304844" style="stroke: #000000; stroke-width: 0.6"/>
      </g>
     </g>
    </g>
    <g id="ytick_5">
     <g id="line2d_11">
      <g>
       <use xlink:href="#m6432cfb0ac" x="57.6" y="98.065153" style="stroke: #000000; stroke-width: 0.6"/>
      </g>
     </g>
     <g id="text_8">
      <!-- $\mathdefault{2\times10^{-2}}$ -->
      <g transform="translate(10.1 101.864372) scale(0.1 -0.1)">
       <defs>
        <path id="DejaVuSans-d7" d="M 4488 3438 
L 3059 2003 
L 4488 575 
L 4116 197 
L 2681 1631 
L 1247 197 
L 878 575 
L 2303 2003 
L 878 3438 
L 1247 3816 
L 2681 2381 
L 4116 3816 
L 4488 3438 
z
" transform="scale(0.015625)"/>
       </defs>
       <use xlink:href="#DejaVuSans-32" transform="translate(0 0.765625)"/>
       <use xlink:href="#DejaVuSans-d7" transform="translate(83.105469 0.765625)"/>
       <use xlink:href="#DejaVuSans-31" transform="translate(186.376953 0.765625)"/>
       <use xlink:href="#DejaVuSans-30" transform="translate(250 0.765625)"/>
       <use xlink:href="#DejaVuSans-2212" transform="translate(314.580078 39.046875) scale(0.7)"/>
       <use xlink:href="#DejaVuSans-32" transform="translate(373.232422 39.046875) scale(0.7)"/>
      </g>
     </g>
    </g>
   </g>
   <g id="line2d_12">
    <path d="M 73.832727 53.568 
L 74.483338 114.302949 
L 75.784558 176.158255 
L 76.435169 171.722325 
L 77.085779 171.677787 
L 77.736389 171.20989 
L 78.386999 170.489252 
L 79.03761 175.454666 
L 79.68822 177.26997 
L 80.33883 192.033592 
L 80.989441 195.404426 
L 81.640051 202.679047 
L 82.290661 195.702236 
L 82.941272 190.372701 
L 83.591882 209.618784 
L 84.242492 206.866495 
L 84.893103 211.410667 
L 85.543713 219.4371 
L 86.194323 189.275274 
L 86.844934 218.566202 
L 87.495544 216.93462 
L 88.146154 225.21571 
L 88.796764 211.771423 
L 89.447375 210.765995 
L 90.097985 217.189673 
L 90.748595 235.310292 
L 91.399206 222.885979 
L 92.049816 238.56714 
L 92.700426 223.78451 
L 93.351037 223.543649 
L 94.001647 217.105749 
L 94.652257 237.432067 
L 95.302868 232.696425 
L 95.953478 234.187059 
L 96.604088 242.306269 
L 97.254698 220.487411 
L 97.905309 243.227967 
L 98.555919 246.240412 
L 99.206529 252.855106 
L 99.85714 245.9313 
L 100.50775 250.501634 
L 101.15836 248.159482 
L 101.808971 242.386818 
L 102.459581 213.298395 
L 103.110191 216.81499 
L 103.760802 228.875606 
L 104.411412 222.963882 
L 105.062022 249.295288 
L 105.712633 244.206523 
L 106.363243 259.67817 
L 107.013853 245.190926 
L 107.664463 245.522478 
L 108.315074 234.827353 
L 109.616294 253.938125 
L 110.266905 257.832197 
L 110.917515 231.310793 
L 111.568125 250.128294 
L 112.218736 254.877551 
L 112.869346 261.518789 
L 113.519956 264.372416 
L 114.170567 263.069381 
L 114.821177 260.056517 
L 115.471787 263.739495 
L 116.122398 254.541695 
L 116.773008 251.905722 
L 117.423618 252.927524 
L 118.074228 246.25845 
L 118.724839 257.640506 
L 119.375449 239.696346 
L 120.026059 244.588243 
L 120.67667 252.465531 
L 121.32728 244.101952 
L 121.97789 258.950422 
L 122.628501 253.028337 
L 123.279111 253.701509 
L 123.929721 265.149153 
L 124.580332 261.096263 
L 125.230942 242.735832 
L 125.881552 245.697488 
L 126.532163 246.481272 
L 127.182773 229.978505 
L 127.833383 249.113277 
L 128.483993 259.281764 
L 129.134604 251.730406 
L 129.785214 256.728143 
L 130.435824 247.410324 
L 131.086435 262.735411 
L 131.737045 272.847023 
L 132.387655 243.301981 
L 133.038266 272.112887 
L 133.688876 273.938449 
L 134.339486 255.103742 
L 134.990097 270.375113 
L 135.640707 265.848003 
L 136.291317 273.546667 
L 136.941927 256.846926 
L 137.592538 275.760516 
L 138.243148 272.58363 
L 138.893758 251.439239 
L 139.544369 261.846488 
L 140.194979 262.921927 
L 140.845589 251.180838 
L 141.4962 261.075345 
L 142.14681 265.076501 
L 142.79742 251.310126 
L 143.448031 270.883439 
L 144.098641 264.46271 
L 144.749251 259.557842 
L 145.399862 260.885571 
L 146.050472 271.085296 
L 147.351692 260.477318 
L 148.002303 263.379597 
L 148.652913 267.383977 
L 149.303523 259.379746 
L 149.954134 261.045675 
L 150.604744 261.199895 
L 151.255354 258.523994 
L 151.905965 257.975352 
L 152.556575 258.652688 
L 153.207185 259.817631 
L 153.857796 275.697301 
L 154.508406 259.570598 
L 155.159016 263.610804 
L 155.809627 266.893744 
L 156.460237 274.852648 
L 157.110847 262.396935 
L 157.761457 254.730927 
L 158.412068 252.014656 
L 159.062678 268.59889 
L 159.713288 260.026 
L 160.363899 268.06125 
L 161.014509 263.810178 
L 161.665119 255.186779 
L 162.31573 257.835803 
L 162.96634 275.955936 
L 163.61695 273.564325 
L 164.267561 263.982912 
L 164.918171 248.831747 
L 165.568781 277.794929 
L 166.219392 269.976019 
L 167.520612 260.54279 
L 168.171222 280.452299 
L 168.821833 271.754181 
L 169.472443 271.596717 
L 170.123053 248.743343 
L 171.424274 271.045238 
L 172.074884 257.380623 
L 172.725495 257.570772 
L 173.376105 263.302232 
L 174.026715 259.674643 
L 174.677326 273.113598 
L 175.978546 256.329886 
L 176.629156 263.572877 
L 177.279767 259.651567 
L 177.930377 261.606649 
L 178.580987 275.320551 
L 179.231598 254.291863 
L 179.882208 258.201938 
L 180.532818 266.005314 
L 181.183429 253.637726 
L 181.834039 276.928199 
L 182.484649 271.743731 
L 183.13526 282.614002 
L 184.43648 251.087665 
L 185.087091 260.851768 
L 185.737701 280.737876 
L 187.038921 249.160907 
L 187.689532 261.882128 
L 188.340142 270.985019 
L 188.990752 283.372902 
L 189.641363 250.946362 
L 190.291973 264.80314 
L 190.942583 269.658633 
L 191.593194 263.495006 
L 192.243804 255.60704 
L 192.894414 269.550819 
L 193.545025 258.921124 
L 194.195635 264.092372 
L 194.846245 252.97897 
L 195.496856 282.729017 
L 196.147466 258.876186 
L 196.798076 274.718099 
L 197.448686 269.43595 
L 198.099297 275.884504 
L 198.749907 273.774385 
L 199.400517 278.312231 
L 200.051128 267.806578 
L 200.701738 280.012495 
L 201.352348 266.02748 
L 202.002959 275.023346 
L 202.653569 250.021357 
L 203.304179 271.038283 
L 203.95479 266.248949 
L 204.6054 268.171174 
L 205.25601 281.128966 
L 205.906621 273.200715 
L 206.557231 273.895771 
L 207.207841 264.606824 
L 207.858451 279.886546 
L 208.509062 279.195215 
L 209.159672 263.206854 
L 209.810282 240.906604 
L 210.460893 280.847968 
L 211.111503 258.25568 
L 211.762113 267.678811 
L 212.412724 273.399438 
L 213.063334 267.620048 
L 213.713944 255.574033 
L 214.364555 259.576334 
L 215.015165 260.426787 
L 215.665775 273.211085 
L 216.316385 265.962491 
L 216.966996 275.24228 
L 217.617606 265.892343 
L 218.268216 273.415367 
L 218.918827 249.726006 
L 219.569437 264.368824 
L 220.220047 271.11153 
L 220.870658 272.123538 
L 221.521268 269.823163 
L 222.171878 266.339485 
L 222.822489 280.625603 
L 223.473099 270.990922 
L 224.123709 266.031957 
L 224.77432 265.24686 
L 225.42493 252.691811 
L 226.07554 269.025187 
L 226.72615 270.112128 
L 227.376761 280.710481 
L 228.027371 252.428224 
L 228.677981 276.226054 
L 229.328592 273.8298 
L 229.979202 263.914211 
L 230.629812 261.359011 
L 231.280423 274.276089 
L 231.931033 267.582974 
L 232.581643 279.453929 
L 233.232254 271.979729 
L 233.882864 280.2393 
L 234.533474 276.886458 
L 235.184085 265.444857 
L 235.834695 279.154335 
L 236.485305 273.083464 
L 237.135915 292.244687 
L 237.786526 275.767271 
L 238.437136 274.484439 
L 239.087746 271.537112 
L 239.738357 277.215484 
L 240.388967 288.130081 
L 241.039577 288.721534 
L 241.690188 277.705188 
L 242.340798 290.672642 
L 242.991408 263.65064 
L 243.642019 282.876519 
L 244.292629 287.087994 
L 244.943239 279.930496 
L 246.24446 262.917747 
L 246.89507 262.787023 
L 248.196291 280.124779 
L 248.846901 257.266392 
L 249.497511 263.517059 
L 250.148122 274.173306 
L 250.798732 278.477238 
L 251.449342 259.110186 
L 252.099953 260.180158 
L 252.750563 264.084712 
L 253.401173 265.71934 
L 254.051784 252.678893 
L 254.702394 278.469696 
L 255.353004 254.520855 
L 256.003615 269.711424 
L 256.654225 277.629014 
L 257.304835 260.882353 
L 257.955445 278.503932 
L 258.606056 265.784704 
L 259.256666 271.040471 
L 259.907276 272.432262 
L 260.557887 293.759357 
L 261.208497 261.815944 
L 261.859107 277.836115 
L 262.509718 267.133436 
L 263.160328 264.727777 
L 263.810938 255.64148 
L 264.461549 258.667195 
L 265.112159 269.862568 
L 265.762769 278.143491 
L 266.413379 270.890017 
L 267.06399 277.493106 
L 267.7146 278.802782 
L 268.36521 275.429413 
L 269.015821 267.739081 
L 269.666431 274.839518 
L 270.317041 277.619421 
L 270.967652 278.27753 
L 271.618262 277.79244 
L 272.268872 265.730739 
L 272.919483 272.607955 
L 273.570093 287.632641 
L 274.220703 267.115561 
L 274.871314 253.890055 
L 276.172534 284.493505 
L 276.823144 287.438013 
L 277.473755 287.430142 
L 278.124365 270.135938 
L 278.774975 265.276692 
L 279.425586 266.241974 
L 280.076196 258.530558 
L 280.726806 254.561567 
L 281.377417 274.957672 
L 282.028027 274.913766 
L 282.678637 263.42113 
L 283.329248 277.868832 
L 283.979858 253.582565 
L 284.630468 255.140712 
L 285.281079 276.887186 
L 285.931689 269.412097 
L 286.582299 269.117183 
L 287.232909 277.445807 
L 287.88352 274.316896 
L 288.53413 285.083899 
L 289.18474 285.699201 
L 289.835351 279.959622 
L 290.485961 277.477405 
L 291.136571 282.420336 
L 291.787182 281.511279 
L 292.437792 282.505029 
L 293.088402 262.68674 
L 293.739013 261.273082 
L 294.389623 278.848453 
L 295.040233 290.4079 
L 295.690844 284.760591 
L 296.341454 271.284523 
L 296.992064 286.283376 
L 297.642674 280.380723 
L 298.293285 273.040345 
L 298.943895 281.487736 
L 299.594505 286.581311 
L 300.245116 273.342477 
L 300.895726 277.846903 
L 301.546336 274.776636 
L 302.196947 287.311869 
L 302.847557 286.076533 
L 303.498167 273.056066 
L 304.148778 271.191308 
L 304.799388 278.490514 
L 305.449998 275.743406 
L 306.100608 276.060801 
L 306.751219 277.267779 
L 307.401829 280.054407 
L 308.052439 289.883075 
L 308.70305 260.007133 
L 309.35366 263.308653 
L 310.00427 278.820232 
L 310.654881 262.050601 
L 311.305491 278.39368 
L 311.956101 256.015548 
L 312.606712 243.008093 
L 313.257322 275.78757 
L 313.907932 276.125717 
L 314.558543 255.465904 
L 315.209153 277.091238 
L 315.859763 250.258864 
L 316.510373 268.6735 
L 317.160984 273.742009 
L 317.811594 276.459217 
L 318.462204 263.140516 
L 319.112815 277.683314 
L 319.763425 283.70808 
L 320.414035 263.10915 
L 321.064646 274.235053 
L 321.715256 268.820723 
L 322.365866 260.427551 
L 323.667087 285.327256 
L 324.317697 262.81898 
L 324.968308 273.321219 
L 325.618918 258.179211 
L 326.269528 288.606113 
L 326.920138 253.468935 
L 327.570749 259.575778 
L 328.221359 280.058485 
L 328.871969 278.787451 
L 329.52258 280.087525 
L 330.17319 285.09536 
L 330.8238 293.678215 
L 331.474411 274.78053 
L 332.125021 273.159249 
L 332.775631 275.361523 
L 333.426242 292.655044 
L 334.076852 287.756323 
L 334.727462 280.534738 
L 335.378073 279.993785 
L 336.028683 277.029648 
L 336.679293 258.751065 
L 337.329903 271.874502 
L 337.980514 272.474065 
L 338.631124 274.357091 
L 339.281734 274.720959 
L 339.932345 280.452645 
L 340.582955 282.287098 
L 341.233565 275.2401 
L 341.884176 273.5289 
L 342.534786 263.904437 
L 343.185396 287.27731 
L 343.836007 256.702074 
L 345.787837 288.01869 
L 346.438448 283.128867 
L 347.089058 283.533176 
L 347.739668 284.548756 
L 348.390279 295.488 
L 349.040889 276.021211 
L 349.691499 237.678762 
L 350.34211 286.040174 
L 350.99272 269.142893 
L 351.64333 271.625175 
L 352.293941 249.407843 
L 352.944551 280.264998 
L 353.595161 275.412156 
L 354.245772 274.450934 
L 354.896382 282.111473 
L 355.546992 267.019772 
L 356.197602 263.47088 
L 356.848213 262.464336 
L 357.498823 274.448805 
L 358.149433 274.804113 
L 358.800044 268.131089 
L 359.450654 275.748057 
L 360.101264 292.238737 
L 360.751875 261.79552 
L 361.402485 278.003599 
L 362.053095 286.948284 
L 362.703706 283.540125 
L 363.354316 255.365086 
L 364.004926 279.739478 
L 364.655537 287.67206 
L 365.306147 279.273084 
L 365.956757 280.44208 
L 366.607367 266.37677 
L 367.257978 280.449835 
L 367.908588 283.843388 
L 368.559198 247.346823 
L 369.209809 278.033178 
L 369.860419 287.742025 
L 370.511029 273.905942 
L 371.16164 290.251553 
L 371.81225 271.111358 
L 372.46286 276.397059 
L 373.113471 294.802489 
L 373.764081 285.930303 
L 374.414691 272.708142 
L 375.065302 274.626145 
L 375.715912 285.574806 
L 376.366522 279.638041 
L 377.017132 288.867601 
L 377.667743 278.058956 
L 378.318353 288.554242 
L 378.968963 292.423822 
L 379.619574 277.278289 
L 380.270184 292.716189 
L 380.920794 271.594676 
L 381.571405 286.535585 
L 382.222015 273.649552 
L 382.872625 271.645584 
L 383.523236 284.671334 
L 384.173846 282.744715 
L 384.824456 273.255562 
L 385.475066 276.626346 
L 386.125677 276.387912 
L 386.776287 262.171809 
L 387.426897 270.155276 
L 388.077508 274.214969 
L 388.728118 290.072175 
L 389.378728 279.808771 
L 390.029339 287.740197 
L 390.679949 276.010371 
L 391.98117 291.36839 
L 392.63178 255.266613 
L 393.28239 261.62739 
L 393.933001 280.274541 
L 394.583611 270.19015 
L 395.234221 291.48973 
L 395.884831 288.511909 
L 396.535442 274.456638 
L 397.186052 279.246963 
L 397.836662 267.547461 
L 398.487273 277.723576 
L 398.487273 277.723576 
" clip-path="url(#pa547807522)" style="fill: none; stroke: #1f77b4; stroke-width: 1.5; stroke-linecap: square"/>
   </g>
   <g id="line2d_13">
    <path d="M 73.832727 90.201068 
L 75.133948 154.960166 
L 75.784558 173.269223 
L 76.435169 173.22034 
L 77.085779 174.97205 
L 77.736389 177.38981 
L 78.386999 180.529516 
L 79.03761 180.08359 
L 79.68822 180.112926 
L 80.33883 177.378476 
L 80.989441 192.353927 
L 81.640051 186.738464 
L 82.290661 193.136434 
L 82.941272 196.565387 
L 83.591882 189.880704 
L 84.242492 194.402541 
L 84.893103 205.258766 
L 85.543713 211.145794 
L 86.194323 193.429093 
L 87.495544 218.967224 
L 88.796764 229.005248 
L 89.447375 225.664225 
L 90.097985 209.999894 
L 90.748595 222.145877 
L 91.399206 237.70791 
L 92.049816 206.937837 
L 92.700426 216.379457 
L 93.351037 240.717811 
L 94.001647 225.122091 
L 94.652257 225.875794 
L 95.302868 216.140157 
L 95.953478 239.61872 
L 96.604088 243.799556 
L 97.254698 238.830917 
L 97.905309 239.915171 
L 98.555919 227.861732 
L 99.206529 244.388354 
L 99.85714 243.221906 
L 100.50775 229.723335 
L 101.15836 241.266403 
L 101.808971 234.03158 
L 103.110191 236.44371 
L 103.760802 241.138505 
L 104.411412 223.203447 
L 105.062022 242.670135 
L 105.712633 241.514826 
L 106.363243 229.830094 
L 107.013853 242.112941 
L 107.664463 240.309399 
L 108.315074 223.223745 
L 108.965684 246.129045 
L 109.616294 248.312866 
L 110.266905 230.269732 
L 110.917515 245.220134 
L 111.568125 251.777308 
L 112.218736 232.269415 
L 112.869346 252.558864 
L 113.519956 257.680869 
L 114.170567 253.833694 
L 115.471787 249.556105 
L 116.122398 264.121847 
L 116.773008 247.752086 
L 117.423618 237.182711 
L 118.074228 237.628109 
L 118.724839 248.669202 
L 119.375449 236.897725 
L 120.026059 251.745466 
L 120.67667 237.932166 
L 121.97789 254.178018 
L 122.628501 255.682252 
L 123.279111 260.389262 
L 123.929721 246.622019 
L 124.580332 250.29107 
L 125.230942 241.068768 
L 125.881552 251.673081 
L 126.532163 249.215566 
L 127.182773 254.696333 
L 127.833383 256.873015 
L 128.483993 235.698699 
L 129.134604 248.292697 
L 129.785214 257.882441 
L 130.435824 253.825145 
L 131.086435 259.402853 
L 131.737045 245.585401 
L 132.387655 247.293438 
L 133.038266 269.394937 
L 133.688876 253.342352 
L 134.339486 260.959141 
L 134.990097 250.948989 
L 135.640707 271.570138 
L 136.291317 247.502681 
L 136.941927 235.784008 
L 137.592538 268.620347 
L 138.243148 267.85873 
L 138.893758 261.263449 
L 139.544369 258.445232 
L 140.194979 252.468662 
L 140.845589 259.653739 
L 141.4962 260.41071 
L 142.14681 244.528637 
L 142.79742 255.754513 
L 143.448031 257.215053 
L 144.098641 257.496948 
L 144.749251 281.002972 
L 145.399862 263.082959 
L 146.701082 253.350432 
L 147.351692 246.382461 
L 148.002303 265.18312 
L 148.652913 247.335864 
L 149.303523 246.006628 
L 149.954134 252.569429 
L 150.604744 242.32281 
L 151.255354 260.073592 
L 151.905965 249.779779 
L 152.556575 259.989326 
L 153.207185 266.323003 
L 153.857796 266.447591 
L 154.508406 250.460845 
L 155.159016 244.302861 
L 155.809627 250.690829 
L 156.460237 270.693061 
L 157.110847 253.215935 
L 157.761457 273.185768 
L 158.412068 262.380977 
L 159.062678 254.647586 
L 159.713288 276.096933 
L 160.363899 244.283453 
L 161.014509 259.445172 
L 161.665119 247.804798 
L 162.31573 258.650161 
L 162.96634 261.734284 
L 163.61695 264.195123 
L 164.267561 250.173884 
L 164.918171 252.566049 
L 165.568781 261.451414 
L 166.219392 250.944749 
L 166.870002 265.387511 
L 167.520612 262.433986 
L 168.171222 239.935779 
L 168.821833 266.992726 
L 169.472443 255.515437 
L 170.123053 262.198881 
L 170.773664 264.173254 
L 171.424274 258.175115 
L 172.074884 230.494181 
L 172.725495 257.325926 
L 173.376105 261.917715 
L 174.026715 257.851024 
L 174.677326 248.060194 
L 175.327936 264.122301 
L 175.978546 248.944815 
L 176.629156 247.920389 
L 177.279767 254.12508 
L 177.930377 255.78135 
L 178.580987 268.80032 
L 179.231598 268.033906 
L 179.882208 262.610311 
L 180.532818 262.422119 
L 181.183429 267.44982 
L 181.834039 266.133058 
L 182.484649 251.503516 
L 183.13526 263.736508 
L 183.78587 260.839475 
L 184.43648 265.192806 
L 185.087091 259.277254 
L 185.737701 262.612871 
L 186.388311 274.30401 
L 187.038921 264.401177 
L 187.689532 257.143352 
L 188.340142 261.155035 
L 188.990752 267.229002 
L 189.641363 245.217042 
L 190.291973 270.451592 
L 190.942583 258.385508 
L 191.593194 272.369959 
L 192.243804 280.479673 
L 192.894414 262.193422 
L 193.545025 258.649869 
L 194.195635 246.885243 
L 194.846245 267.743876 
L 195.496856 265.422926 
L 196.147466 269.611962 
L 196.798076 272.23298 
L 197.448686 247.66723 
L 198.099297 267.671346 
L 198.749907 276.89577 
L 199.400517 267.003726 
L 200.051128 253.823045 
L 200.701738 248.153992 
L 201.352348 258.744964 
L 202.002959 266.496774 
L 202.653569 270.307838 
L 203.304179 254.696688 
L 203.95479 267.46218 
L 204.6054 262.175743 
L 205.25601 273.72464 
L 205.906621 270.514523 
L 206.557231 260.352897 
L 207.207841 265.243741 
L 207.858451 267.509532 
L 208.509062 260.359497 
L 209.159672 275.003989 
L 209.810282 256.356255 
L 210.460893 252.447762 
L 211.111503 264.130148 
L 211.762113 263.052252 
L 212.412724 273.655293 
L 213.063334 266.719152 
L 213.713944 268.466616 
L 214.364555 256.936953 
L 215.665775 278.028399 
L 216.966996 255.066833 
L 217.617606 269.162894 
L 218.268216 257.85623 
L 218.918827 270.541952 
L 220.220047 248.100513 
L 220.870658 267.238107 
L 221.521268 275.666974 
L 222.171878 264.05672 
L 222.822489 258.754968 
L 223.473099 266.563691 
L 224.123709 241.45871 
L 224.77432 266.4956 
L 225.42493 267.214653 
L 226.07554 266.744215 
L 226.72615 268.602926 
L 227.376761 262.474906 
L 228.027371 272.763214 
L 228.677981 263.574183 
L 229.328592 277.00384 
L 229.979202 263.790966 
L 230.629812 263.897285 
L 231.280423 274.676356 
L 231.931033 268.604271 
L 232.581643 270.121023 
L 233.232254 273.589945 
L 233.882864 265.314447 
L 234.533474 265.075062 
L 235.184085 270.009574 
L 235.834695 272.659934 
L 236.485305 280.311096 
L 237.135915 270.296475 
L 237.786526 276.95661 
L 238.437136 264.51316 
L 239.087746 257.841177 
L 239.738357 268.176517 
L 241.039577 263.205102 
L 241.690188 265.442584 
L 242.340798 279.370556 
L 242.991408 266.74744 
L 243.642019 271.918858 
L 244.292629 269.301866 
L 244.943239 260.256766 
L 245.59385 266.912246 
L 246.24446 261.194192 
L 246.89507 261.334139 
L 247.54568 262.725945 
L 248.196291 256.741851 
L 248.846901 255.261325 
L 249.497511 266.768309 
L 250.148122 252.417322 
L 250.798732 263.082367 
L 251.449342 261.046646 
L 252.099953 254.646226 
L 252.750563 253.742719 
L 253.401173 271.085491 
L 254.051784 259.87502 
L 254.702394 266.996389 
L 255.353004 265.1568 
L 256.003615 266.872008 
L 256.654225 279.638938 
L 257.304835 258.179699 
L 258.606056 282.454382 
L 259.256666 270.847532 
L 259.907276 267.131372 
L 260.557887 279.936989 
L 261.208497 269.814648 
L 261.859107 265.704396 
L 262.509718 274.719809 
L 263.160328 228.105329 
L 263.810938 261.178846 
L 264.461549 254.186599 
L 265.112159 268.778062 
L 265.762769 268.436064 
L 266.413379 280.492582 
L 267.06399 267.218122 
L 267.7146 263.667425 
L 268.36521 263.801466 
L 269.015821 273.092942 
L 269.666431 274.305042 
L 270.317041 269.776213 
L 270.967652 268.249003 
L 271.618262 257.769703 
L 272.268872 269.526773 
L 272.919483 266.35222 
L 273.570093 253.348695 
L 274.220703 277.479715 
L 274.871314 265.301312 
L 275.521924 258.309949 
L 276.823144 277.752599 
L 277.473755 260.884572 
L 278.124365 271.335529 
L 278.774975 277.21063 
L 279.425586 273.210193 
L 280.076196 259.625181 
L 280.726806 272.61049 
L 281.377417 268.325926 
L 282.028027 263.182253 
L 282.678637 261.438922 
L 283.329248 262.618406 
L 283.979858 282.413012 
L 284.630468 272.811705 
L 285.281079 272.730418 
L 285.931689 257.577617 
L 286.582299 263.175501 
L 287.232909 260.892274 
L 287.88352 277.382451 
L 288.53413 278.373487 
L 289.18474 250.661697 
L 289.835351 258.945622 
L 290.485961 275.775808 
L 291.136571 257.309908 
L 291.787182 264.989807 
L 292.437792 263.047647 
L 293.088402 258.962494 
L 293.739013 277.953731 
L 294.389623 269.515433 
L 295.040233 265.910106 
L 295.690844 258.174819 
L 296.341454 283.597395 
L 296.992064 274.78996 
L 297.642674 276.100663 
L 298.293285 273.321846 
L 298.943895 261.750291 
L 299.594505 266.783724 
L 300.245116 267.853834 
L 300.895726 260.889195 
L 302.196947 278.678185 
L 302.847557 276.304496 
L 303.498167 270.410553 
L 304.148778 260.410802 
L 304.799388 267.663471 
L 305.449998 267.690564 
L 306.100608 258.411842 
L 306.751219 280.25236 
L 307.401829 260.21855 
L 308.052439 267.654247 
L 308.70305 265.95894 
L 309.35366 256.676209 
L 310.00427 265.095758 
L 310.654881 265.886037 
L 311.305491 258.862688 
L 311.956101 279.180571 
L 312.606712 267.163595 
L 313.257322 279.588883 
L 313.907932 254.993622 
L 314.558543 264.402217 
L 315.209153 254.108388 
L 315.859763 266.953135 
L 316.510373 275.1747 
L 317.160984 259.663121 
L 317.811594 266.418058 
L 318.462204 274.987997 
L 319.112815 258.141322 
L 319.763425 270.710463 
L 320.414035 266.566004 
L 321.064646 270.468643 
L 321.715256 268.999274 
L 322.365866 253.983686 
L 323.016477 272.120025 
L 323.667087 248.997578 
L 324.317697 274.153263 
L 324.968308 266.861482 
L 325.618918 263.714291 
L 326.269528 265.016224 
L 326.920138 271.855014 
L 327.570749 261.714247 
L 328.871969 268.925505 
L 329.52258 279.134191 
L 330.17319 258.129751 
L 330.8238 284.626575 
L 331.474411 266.940532 
L 332.125021 264.41867 
L 332.775631 270.542853 
L 333.426242 274.336315 
L 334.076852 269.343515 
L 334.727462 259.493705 
L 335.378073 287.015506 
L 336.028683 245.964529 
L 336.679293 278.642843 
L 337.329903 251.945236 
L 337.980514 268.575862 
L 338.631124 270.563502 
L 339.281734 261.772912 
L 339.932345 280.023123 
L 340.582955 272.000323 
L 341.233565 273.712376 
L 341.884176 254.81963 
L 342.534786 253.881663 
L 343.836007 281.177921 
L 344.486617 279.834483 
L 345.137227 253.838631 
L 345.787837 258.29845 
L 346.438448 280.725328 
L 347.089058 277.160699 
L 347.739668 268.164426 
L 348.390279 268.57959 
L 349.040889 263.384779 
L 349.691499 269.369159 
L 350.34211 266.151573 
L 350.99272 256.700681 
L 351.64333 270.455381 
L 352.293941 269.29533 
L 352.944551 272.959463 
L 353.595161 260.912027 
L 354.245772 268.753751 
L 354.896382 272.277003 
L 355.546992 272.817624 
L 356.197602 265.605998 
L 356.848213 268.388262 
L 357.498823 262.534117 
L 358.149433 268.907117 
L 358.800044 266.774443 
L 359.450654 277.159287 
L 360.751875 268.848459 
L 361.402485 261.949259 
L 362.053095 270.355112 
L 362.703706 270.292924 
L 363.354316 275.142378 
L 364.004926 276.047001 
L 364.655537 278.345193 
L 365.306147 267.848883 
L 365.956757 270.137824 
L 366.607367 262.546033 
L 367.257978 257.558024 
L 367.908588 274.055379 
L 368.559198 269.474276 
L 369.209809 269.523954 
L 369.860419 266.330312 
L 370.511029 272.957458 
L 371.16164 276.07548 
L 371.81225 277.11741 
L 372.46286 271.426056 
L 373.113471 270.955599 
L 373.764081 260.155149 
L 374.414691 261.979601 
L 375.065302 267.488109 
L 375.715912 266.678445 
L 376.366522 280.526518 
L 377.017132 270.868439 
L 377.667743 273.405549 
L 378.318353 269.370429 
L 378.968963 277.616279 
L 379.619574 277.681979 
L 380.270184 270.156671 
L 380.920794 270.479055 
L 381.571405 260.292688 
L 382.222015 269.121753 
L 382.872625 265.091233 
L 383.523236 277.26805 
L 384.173846 274.858953 
L 384.824456 250.25172 
L 385.475066 260.389582 
L 386.125677 266.854135 
L 386.776287 267.676265 
L 387.426897 260.431133 
L 388.077508 272.694454 
L 388.728118 267.889254 
L 389.378728 256.067917 
L 390.029339 268.170248 
L 390.679949 261.782015 
L 391.330559 265.786161 
L 391.98117 267.719721 
L 392.63178 281.91788 
L 393.28239 259.441069 
L 393.933001 267.821825 
L 394.583611 269.093446 
L 395.234221 284.26963 
L 395.884831 260.24087 
L 396.535442 274.459792 
L 397.186052 268.378569 
L 397.836662 271.049089 
L 398.487273 257.646492 
L 398.487273 257.646492 
" clip-path="url(#pa547807522)" style="fill: none; stroke: #ff7f0e; stroke-width: 1.5; stroke-linecap: square"/>
   </g>
   <g id="patch_3">
    <path d="M 57.6 307.584 
L 57.6 41.472 
" style="fill: none; stroke: #000000; stroke-width: 0.8; stroke-linejoin: miter; stroke-linecap: square"/>
   </g>
   <g id="patch_4">
    <path d="M 414.72 307.584 
L 414.72 41.472 
" style="fill: none; stroke: #000000; stroke-width: 0.8; stroke-linejoin: miter; stroke-linecap: square"/>
   </g>
   <g id="patch_5">
    <path d="M 57.6 307.584 
L 414.72 307.584 
" style="fill: none; stroke: #000000; stroke-width: 0.8; stroke-linejoin: miter; stroke-linecap: square"/>
   </g>
   <g id="patch_6">
    <path d="M 57.6 41.472 
L 414.72 41.472 
" style="fill: none; stroke: #000000; stroke-width: 0.8; stroke-linejoin: miter; stroke-linecap: square"/>
   </g>
   <g id="text_9">
    <!-- MSE loss during training -->
    <g transform="translate(163.472813 35.472) scale(0.12 -0.12)">
     <defs>
      <path id="DejaVuSans-4d" d="M 628 4666 
L 1569 4666 
L 2759 1491 
L 3956 4666 
L 4897 4666 
L 4897 0 
L 4281 0 
L 4281 4097 
L 3078 897 
L 2444 897 
L 1241 4097 
L 1241 0 
L 628 0 
L 628 4666 
z
" transform="scale(0.015625)"/>
      <path id="DejaVuSans-53" d="M 3425 4513 
L 3425 3897 
Q 3066 4069 2747 4153 
Q 2428 4238 2131 4238 
Q 1616 4238 1336 4038 
Q 1056 3838 1056 3469 
Q 1056 3159 1242 3001 
Q 1428 2844 1947 2747 
L 2328 2669 
Q 3034 2534 3370 2195 
Q 3706 1856 3706 1288 
Q 3706 609 3251 259 
Q 2797 -91 1919 -91 
Q 1588 -91 1214 -16 
Q 841 59 441 206 
L 441 856 
Q 825 641 1194 531 
Q 1563 422 1919 422 
Q 2459 422 2753 634 
Q 3047 847 3047 1241 
Q 3047 1584 2836 1778 
Q 2625 1972 2144 2069 
L 1759 2144 
Q 1053 2284 737 2584 
Q 422 2884 422 3419 
Q 422 4038 858 4394 
Q 1294 4750 2059 4750 
Q 2388 4750 2728 4690 
Q 3069 4631 3425 4513 
z
" transform="scale(0.015625)"/>
      <path id="DejaVuSans-45" d="M 628 4666 
L 3578 4666 
L 3578 4134 
L 1259 4134 
L 1259 2753 
L 3481 2753 
L 3481 2222 
L 1259 2222 
L 1259 531 
L 3634 531 
L 3634 0 
L 628 0 
L 628 4666 
z
" transform="scale(0.015625)"/>
      <path id="DejaVuSans-20" transform="scale(0.015625)"/>
      <path id="DejaVuSans-6c" d="M 603 4863 
L 1178 4863 
L 1178 0 
L 603 0 
L 603 4863 
z
" transform="scale(0.015625)"/>
      <path id="DejaVuSans-6f" d="M 1959 3097 
Q 1497 3097 1228 2736 
Q 959 2375 959 1747 
Q 959 1119 1226 758 
Q 1494 397 1959 397 
Q 2419 397 2687 759 
Q 2956 1122 2956 1747 
Q 2956 2369 2687 2733 
Q 2419 3097 1959 3097 
z
M 1959 3584 
Q 2709 3584 3137 3096 
Q 3566 2609 3566 1747 
Q 3566 888 3137 398 
Q 2709 -91 1959 -91 
Q 1206 -91 779 398 
Q 353 888 353 1747 
Q 353 2609 779 3096 
Q 1206 3584 1959 3584 
z
" transform="scale(0.015625)"/>
      <path id="DejaVuSans-73" d="M 2834 3397 
L 2834 2853 
Q 2591 2978 2328 3040 
Q 2066 3103 1784 3103 
Q 1356 3103 1142 2972 
Q 928 2841 928 2578 
Q 928 2378 1081 2264 
Q 1234 2150 1697 2047 
L 1894 2003 
Q 2506 1872 2764 1633 
Q 3022 1394 3022 966 
Q 3022 478 2636 193 
Q 2250 -91 1575 -91 
Q 1294 -91 989 -36 
Q 684 19 347 128 
L 347 722 
Q 666 556 975 473 
Q 1284 391 1588 391 
Q 1994 391 2212 530 
Q 2431 669 2431 922 
Q 2431 1156 2273 1281 
Q 2116 1406 1581 1522 
L 1381 1569 
Q 847 1681 609 1914 
Q 372 2147 372 2553 
Q 372 3047 722 3315 
Q 1072 3584 1716 3584 
Q 2034 3584 2315 3537 
Q 2597 3491 2834 3397 
z
" transform="scale(0.015625)"/>
      <path id="DejaVuSans-64" d="M 2906 2969 
L 2906 4863 
L 3481 4863 
L 3481 0 
L 2906 0 
L 2906 525 
Q 2725 213 2448 61 
Q 2172 -91 1784 -91 
Q 1150 -91 751 415 
Q 353 922 353 1747 
Q 353 2572 751 3078 
Q 1150 3584 1784 3584 
Q 2172 3584 2448 3432 
Q 2725 3281 2906 2969 
z
M 947 1747 
Q 947 1113 1208 752 
Q 1469 391 1925 391 
Q 2381 391 2643 752 
Q 2906 1113 2906 1747 
Q 2906 2381 2643 2742 
Q 2381 3103 1925 3103 
Q 1469 3103 1208 2742 
Q 947 2381 947 1747 
z
" transform="scale(0.015625)"/>
      <path id="DejaVuSans-75" d="M 544 1381 
L 544 3500 
L 1119 3500 
L 1119 1403 
Q 1119 906 1312 657 
Q 1506 409 1894 409 
Q 2359 409 2629 706 
Q 2900 1003 2900 1516 
L 2900 3500 
L 3475 3500 
L 3475 0 
L 2900 0 
L 2900 538 
Q 2691 219 2414 64 
Q 2138 -91 1772 -91 
Q 1169 -91 856 284 
Q 544 659 544 1381 
z
M 1991 3584 
L 1991 3584 
z
" transform="scale(0.015625)"/>
      <path id="DejaVuSans-72" d="M 2631 2963 
Q 2534 3019 2420 3045 
Q 2306 3072 2169 3072 
Q 1681 3072 1420 2755 
Q 1159 2438 1159 1844 
L 1159 0 
L 581 0 
L 581 3500 
L 1159 3500 
L 1159 2956 
Q 1341 3275 1631 3429 
Q 1922 3584 2338 3584 
Q 2397 3584 2469 3576 
Q 2541 3569 2628 3553 
L 2631 2963 
z
" transform="scale(0.015625)"/>
      <path id="DejaVuSans-69" d="M 603 3500 
L 1178 3500 
L 1178 0 
L 603 0 
L 603 3500 
z
M 603 4863 
L 1178 4863 
L 1178 4134 
L 603 4134 
L 603 4863 
z
" transform="scale(0.015625)"/>
      <path id="DejaVuSans-6e" d="M 3513 2113 
L 3513 0 
L 2938 0 
L 2938 2094 
Q 2938 2591 2744 2837 
Q 2550 3084 2163 3084 
Q 1697 3084 1428 2787 
Q 1159 2491 1159 1978 
L 1159 0 
L 581 0 
L 581 3500 
L 1159 3500 
L 1159 2956 
Q 1366 3272 1645 3428 
Q 1925 3584 2291 3584 
Q 2894 3584 3203 3211 
Q 3513 2838 3513 2113 
z
" transform="scale(0.015625)"/>
      <path id="DejaVuSans-67" d="M 2906 1791 
Q 2906 2416 2648 2759 
Q 2391 3103 1925 3103 
Q 1463 3103 1205 2759 
Q 947 2416 947 1791 
Q 947 1169 1205 825 
Q 1463 481 1925 481 
Q 2391 481 2648 825 
Q 2906 1169 2906 1791 
z
M 3481 434 
Q 3481 -459 3084 -895 
Q 2688 -1331 1869 -1331 
Q 1566 -1331 1297 -1286 
Q 1028 -1241 775 -1147 
L 775 -588 
Q 1028 -725 1275 -790 
Q 1522 -856 1778 -856 
Q 2344 -856 2625 -561 
Q 2906 -266 2906 331 
L 2906 616 
Q 2728 306 2450 153 
Q 2172 0 1784 0 
Q 1141 0 747 490 
Q 353 981 353 1791 
Q 353 2603 747 3093 
Q 1141 3584 1784 3584 
Q 2172 3584 2450 3431 
Q 2728 3278 2906 2969 
L 2906 3500 
L 3481 3500 
L 3481 434 
z
" transform="scale(0.015625)"/>
      <path id="DejaVuSans-74" d="M 1172 4494 
L 1172 3500 
L 2356 3500 
L 2356 3053 
L 1172 3053 
L 1172 1153 
Q 1172 725 1289 603 
Q 1406 481 1766 481 
L 2356 481 
L 2356 0 
L 1766 0 
Q 1100 0 847 248 
Q 594 497 594 1153 
L 594 3053 
L 172 3053 
L 172 3500 
L 594 3500 
L 594 4494 
L 1172 4494 
z
" transform="scale(0.015625)"/>
      <path id="DejaVuSans-61" d="M 2194 1759 
Q 1497 1759 1228 1600 
Q 959 1441 959 1056 
Q 959 750 1161 570 
Q 1363 391 1709 391 
Q 2188 391 2477 730 
Q 2766 1069 2766 1631 
L 2766 1759 
L 2194 1759 
z
M 3341 1997 
L 3341 0 
L 2766 0 
L 2766 531 
Q 2569 213 2275 61 
Q 1981 -91 1556 -91 
Q 1019 -91 701 211 
Q 384 513 384 1019 
Q 384 1609 779 1909 
Q 1175 2209 1959 2209 
L 2766 2209 
L 2766 2266 
Q 2766 2663 2505 2880 
Q 2244 3097 1772 3097 
Q 1472 3097 1187 3025 
Q 903 2953 641 2809 
L 641 3341 
Q 956 3463 1253 3523 
Q 1550 3584 1831 3584 
Q 2591 3584 2966 3190 
Q 3341 2797 3341 1997 
z
" transform="scale(0.015625)"/>
     </defs>
     <use xlink:href="#DejaVuSans-4d"/>
     <use xlink:href="#DejaVuSans-53" x="86.279297"/>
     <use xlink:href="#DejaVuSans-45" x="149.755859"/>
     <use xlink:href="#DejaVuSans-20" x="212.939453"/>
     <use xlink:href="#DejaVuSans-6c" x="244.726562"/>
     <use xlink:href="#DejaVuSans-6f" x="272.509766"/>
     <use xlink:href="#DejaVuSans-73" x="333.691406"/>
     <use xlink:href="#DejaVuSans-73" x="385.791016"/>
     <use xlink:href="#DejaVuSans-20" x="437.890625"/>
     <use xlink:href="#DejaVuSans-64" x="469.677734"/>
     <use xlink:href="#DejaVuSans-75" x="533.154297"/>
     <use xlink:href="#DejaVuSans-72" x="596.533203"/>
     <use xlink:href="#DejaVuSans-69" x="637.646484"/>
     <use xlink:href="#DejaVuSans-6e" x="665.429688"/>
     <use xlink:href="#DejaVuSans-67" x="728.808594"/>
     <use xlink:href="#DejaVuSans-20" x="792.285156"/>
     <use xlink:href="#DejaVuSans-74" x="824.072266"/>
     <use xlink:href="#DejaVuSans-72" x="863.28125"/>
     <use xlink:href="#DejaVuSans-61" x="904.394531"/>
     <use xlink:href="#DejaVuSans-69" x="965.673828"/>
     <use xlink:href="#DejaVuSans-6e" x="993.457031"/>
     <use xlink:href="#DejaVuSans-69" x="1056.835938"/>
     <use xlink:href="#DejaVuSans-6e" x="1084.619141"/>
     <use xlink:href="#DejaVuSans-67" x="1147.998047"/>
    </g>
   </g>
   <g id="legend_1">
    <g id="patch_7">
     <path d="M 304.765312 78.82825 
L 407.72 78.82825 
Q 409.72 78.82825 409.72 76.82825 
L 409.72 48.472 
Q 409.72 46.472 407.72 46.472 
L 304.765312 46.472 
Q 302.765312 46.472 302.765312 48.472 
L 302.765312 76.82825 
Q 302.765312 78.82825 304.765312 78.82825 
z
" style="fill: #ffffff; opacity: 0.8; stroke: #cccccc; stroke-linejoin: miter"/>
    </g>
    <g id="line2d_14">
     <path d="M 306.765312 54.570437 
L 316.765312 54.570437 
L 326.765312 54.570437 
" style="fill: none; stroke: #1f77b4; stroke-width: 1.5; stroke-linecap: square"/>
    </g>
    <g id="text_10">
     <!-- Train MSE loss -->
     <g transform="translate(334.765312 58.070437) scale(0.1 -0.1)">
      <defs>
       <path id="DejaVuSans-54" d="M -19 4666 
L 3928 4666 
L 3928 4134 
L 2272 4134 
L 2272 0 
L 1638 0 
L 1638 4134 
L -19 4134 
L -19 4666 
z
" transform="scale(0.015625)"/>
      </defs>
      <use xlink:href="#DejaVuSans-54"/>
      <use xlink:href="#DejaVuSans-72" x="46.333984"/>
      <use xlink:href="#DejaVuSans-61" x="87.447266"/>
      <use xlink:href="#DejaVuSans-69" x="148.726562"/>
      <use xlink:href="#DejaVuSans-6e" x="176.509766"/>
      <use xlink:href="#DejaVuSans-20" x="239.888672"/>
      <use xlink:href="#DejaVuSans-4d" x="271.675781"/>
      <use xlink:href="#DejaVuSans-53" x="357.955078"/>
      <use xlink:href="#DejaVuSans-45" x="421.431641"/>
      <use xlink:href="#DejaVuSans-20" x="484.615234"/>
      <use xlink:href="#DejaVuSans-6c" x="516.402344"/>
      <use xlink:href="#DejaVuSans-6f" x="544.185547"/>
      <use xlink:href="#DejaVuSans-73" x="605.367188"/>
      <use xlink:href="#DejaVuSans-73" x="657.466797"/>
     </g>
    </g>
    <g id="line2d_15">
     <path d="M 306.765312 69.248562 
L 316.765312 69.248562 
L 326.765312 69.248562 
" style="fill: none; stroke: #ff7f0e; stroke-width: 1.5; stroke-linecap: square"/>
    </g>
    <g id="text_11">
     <!-- Test MSE loss -->
     <g transform="translate(334.765312 72.748562) scale(0.1 -0.1)">
      <defs>
       <path id="DejaVuSans-65" d="M 3597 1894 
L 3597 1613 
L 953 1613 
Q 991 1019 1311 708 
Q 1631 397 2203 397 
Q 2534 397 2845 478 
Q 3156 559 3463 722 
L 3463 178 
Q 3153 47 2828 -22 
Q 2503 -91 2169 -91 
Q 1331 -91 842 396 
Q 353 884 353 1716 
Q 353 2575 817 3079 
Q 1281 3584 2069 3584 
Q 2775 3584 3186 3129 
Q 3597 2675 3597 1894 
z
M 3022 2063 
Q 3016 2534 2758 2815 
Q 2500 3097 2075 3097 
Q 1594 3097 1305 2825 
Q 1016 2553 972 2059 
L 3022 2063 
z
" transform="scale(0.015625)"/>
      </defs>
      <use xlink:href="#DejaVuSans-54"/>
      <use xlink:href="#DejaVuSans-65" x="44.083984"/>
      <use xlink:href="#DejaVuSans-73" x="105.607422"/>
      <use xlink:href="#DejaVuSans-74" x="157.707031"/>
      <use xlink:href="#DejaVuSans-20" x="196.916016"/>
      <use xlink:href="#DejaVuSans-4d" x="228.703125"/>
      <use xlink:href="#DejaVuSans-53" x="314.982422"/>
      <use xlink:href="#DejaVuSans-45" x="378.458984"/>
      <use xlink:href="#DejaVuSans-20" x="441.642578"/>
      <use xlink:href="#DejaVuSans-6c" x="473.429688"/>
      <use xlink:href="#DejaVuSans-6f" x="501.212891"/>
      <use xlink:href="#DejaVuSans-73" x="562.394531"/>
      <use xlink:href="#DejaVuSans-73" x="614.494141"/>
     </g>
    </g>
   </g>
  </g>
 </g>
 <defs>
  <clipPath id="pa547807522">
   <rect x="57.6" y="41.472" width="357.12" height="266.112"/>
  </clipPath>
 </defs>
</svg>
