<?xml version="1.0" encoding="utf-8" standalone="no"?>
<!DOCTYPE svg PUBLIC "-//W3C//DTD SVG 1.1//EN"
  "http://www.w3.org/Graphics/SVG/1.1/DTD/svg11.dtd">
<svg xmlns:xlink="http://www.w3.org/1999/xlink" width="460.8pt" height="345.6pt" viewBox="0 0 460.8 345.6" xmlns="http://www.w3.org/2000/svg" version="1.1">
 <metadata>
  <rdf:RDF xmlns:dc="http://purl.org/dc/elements/1.1/" xmlns:cc="http://creativecommons.org/ns#" xmlns:rdf="http://www.w3.org/1999/02/22-rdf-syntax-ns#">
   <cc:Work>
    <dc:type rdf:resource="http://purl.org/dc/dcmitype/StillImage"/>
    <dc:date>2023-03-23T15:22:13.676727</dc:date>
    <dc:format>image/svg+xml</dc:format>
    <dc:creator>
     <cc:Agent>
      <dc:title>Matplotlib v3.6.2, https://matplotlib.org/</dc:title>
     </cc:Agent>
    </dc:creator>
   </cc:Work>
  </rdf:RDF>
 </metadata>
 <defs>
  <style type="text/css">*{stroke-linejoin: round; stroke-linecap: butt}</style>
 </defs>
 <g id="figure_1">
  <g id="patch_1">
   <path d="M 0 345.6 
L 460.8 345.6 
L 460.8 0 
L 0 0 
z
" style="fill: #ffffff"/>
  </g>
  <g id="axes_1">
   <g id="patch_2">
    <path d="M 57.6 307.584 
L 414.72 307.584 
L 414.72 41.472 
L 57.6 41.472 
z
" style="fill: #ffffff"/>
   </g>
   <g id="matplotlib.axis_1">
    <g id="xtick_1">
     <g id="line2d_1">
      <defs>
       <path id="me84f50ca23" d="M 0 0 
L 0 3.5 
" style="stroke: #000000; stroke-width: 0.8"/>
      </defs>
      <g>
       <use xlink:href="#me84f50ca23" x="73.832727" y="307.584" style="stroke: #000000; stroke-width: 0.8"/>
      </g>
     </g>
     <g id="text_1">
      <!-- 0 -->
      <g transform="translate(70.651477 322.182437) scale(0.1 -0.1)">
       <defs>
        <path id="DejaVuSans-30" d="M 2034 4250 
Q 1547 4250 1301 3770 
Q 1056 3291 1056 2328 
Q 1056 1369 1301 889 
Q 1547 409 2034 409 
Q 2525 409 2770 889 
Q 3016 1369 3016 2328 
Q 3016 3291 2770 3770 
Q 2525 4250 2034 4250 
z
M 2034 4750 
Q 2819 4750 3233 4129 
Q 3647 3509 3647 2328 
Q 3647 1150 3233 529 
Q 2819 -91 2034 -91 
Q 1250 -91 836 529 
Q 422 1150 422 2328 
Q 422 3509 836 4129 
Q 1250 4750 2034 4750 
z
" transform="scale(0.015625)"/>
       </defs>
       <use xlink:href="#DejaVuSans-30"/>
      </g>
     </g>
    </g>
    <g id="xtick_2">
     <g id="line2d_2">
      <g>
       <use xlink:href="#me84f50ca23" x="138.893758" y="307.584" style="stroke: #000000; stroke-width: 0.8"/>
      </g>
     </g>
     <g id="text_2">
      <!-- 100 -->
      <g transform="translate(129.350008 322.182437) scale(0.1 -0.1)">
       <defs>
        <path id="DejaVuSans-31" d="M 794 531 
L 1825 531 
L 1825 4091 
L 703 3866 
L 703 4441 
L 1819 4666 
L 2450 4666 
L 2450 531 
L 3481 531 
L 3481 0 
L 794 0 
L 794 531 
z
" transform="scale(0.015625)"/>
       </defs>
       <use xlink:href="#DejaVuSans-31"/>
       <use xlink:href="#DejaVuSans-30" x="63.623047"/>
       <use xlink:href="#DejaVuSans-30" x="127.246094"/>
      </g>
     </g>
    </g>
    <g id="xtick_3">
     <g id="line2d_3">
      <g>
       <use xlink:href="#me84f50ca23" x="203.95479" y="307.584" style="stroke: #000000; stroke-width: 0.8"/>
      </g>
     </g>
     <g id="text_3">
      <!-- 200 -->
      <g transform="translate(194.41104 322.182437) scale(0.1 -0.1)">
       <defs>
        <path id="DejaVuSans-32" d="M 1228 531 
L 3431 531 
L 3431 0 
L 469 0 
L 469 531 
Q 828 903 1448 1529 
Q 2069 2156 2228 2338 
Q 2531 2678 2651 2914 
Q 2772 3150 2772 3378 
Q 2772 3750 2511 3984 
Q 2250 4219 1831 4219 
Q 1534 4219 1204 4116 
Q 875 4013 500 3803 
L 500 4441 
Q 881 4594 1212 4672 
Q 1544 4750 1819 4750 
Q 2544 4750 2975 4387 
Q 3406 4025 3406 3419 
Q 3406 3131 3298 2873 
Q 3191 2616 2906 2266 
Q 2828 2175 2409 1742 
Q 1991 1309 1228 531 
z
" transform="scale(0.015625)"/>
       </defs>
       <use xlink:href="#DejaVuSans-32"/>
       <use xlink:href="#DejaVuSans-30" x="63.623047"/>
       <use xlink:href="#DejaVuSans-30" x="127.246094"/>
      </g>
     </g>
    </g>
    <g id="xtick_4">
     <g id="line2d_4">
      <g>
       <use xlink:href="#me84f50ca23" x="269.015821" y="307.584" style="stroke: #000000; stroke-width: 0.8"/>
      </g>
     </g>
     <g id="text_4">
      <!-- 300 -->
      <g transform="translate(259.472071 322.182437) scale(0.1 -0.1)">
       <defs>
        <path id="DejaVuSans-33" d="M 2597 2516 
Q 3050 2419 3304 2112 
Q 3559 1806 3559 1356 
Q 3559 666 3084 287 
Q 2609 -91 1734 -91 
Q 1441 -91 1130 -33 
Q 819 25 488 141 
L 488 750 
Q 750 597 1062 519 
Q 1375 441 1716 441 
Q 2309 441 2620 675 
Q 2931 909 2931 1356 
Q 2931 1769 2642 2001 
Q 2353 2234 1838 2234 
L 1294 2234 
L 1294 2753 
L 1863 2753 
Q 2328 2753 2575 2939 
Q 2822 3125 2822 3475 
Q 2822 3834 2567 4026 
Q 2313 4219 1838 4219 
Q 1578 4219 1281 4162 
Q 984 4106 628 3988 
L 628 4550 
Q 988 4650 1302 4700 
Q 1616 4750 1894 4750 
Q 2613 4750 3031 4423 
Q 3450 4097 3450 3541 
Q 3450 3153 3228 2886 
Q 3006 2619 2597 2516 
z
" transform="scale(0.015625)"/>
       </defs>
       <use xlink:href="#DejaVuSans-33"/>
       <use xlink:href="#DejaVuSans-30" x="63.623047"/>
       <use xlink:href="#DejaVuSans-30" x="127.246094"/>
      </g>
     </g>
    </g>
    <g id="xtick_5">
     <g id="line2d_5">
      <g>
       <use xlink:href="#me84f50ca23" x="334.076852" y="307.584" style="stroke: #000000; stroke-width: 0.8"/>
      </g>
     </g>
     <g id="text_5">
      <!-- 400 -->
      <g transform="translate(324.533102 322.182437) scale(0.1 -0.1)">
       <defs>
        <path id="DejaVuSans-34" d="M 2419 4116 
L 825 1625 
L 2419 1625 
L 2419 4116 
z
M 2253 4666 
L 3047 4666 
L 3047 1625 
L 3713 1625 
L 3713 1100 
L 3047 1100 
L 3047 0 
L 2419 0 
L 2419 1100 
L 313 1100 
L 313 1709 
L 2253 4666 
z
" transform="scale(0.015625)"/>
       </defs>
       <use xlink:href="#DejaVuSans-34"/>
       <use xlink:href="#DejaVuSans-30" x="63.623047"/>
       <use xlink:href="#DejaVuSans-30" x="127.246094"/>
      </g>
     </g>
    </g>
    <g id="xtick_6">
     <g id="line2d_6">
      <g>
       <use xlink:href="#me84f50ca23" x="399.137883" y="307.584" style="stroke: #000000; stroke-width: 0.8"/>
      </g>
     </g>
     <g id="text_6">
      <!-- 500 -->
      <g transform="translate(389.594133 322.182437) scale(0.1 -0.1)">
       <defs>
        <path id="DejaVuSans-35" d="M 691 4666 
L 3169 4666 
L 3169 4134 
L 1269 4134 
L 1269 2991 
Q 1406 3038 1543 3061 
Q 1681 3084 1819 3084 
Q 2600 3084 3056 2656 
Q 3513 2228 3513 1497 
Q 3513 744 3044 326 
Q 2575 -91 1722 -91 
Q 1428 -91 1123 -41 
Q 819 9 494 109 
L 494 744 
Q 775 591 1075 516 
Q 1375 441 1709 441 
Q 2250 441 2565 725 
Q 2881 1009 2881 1497 
Q 2881 1984 2565 2268 
Q 2250 2553 1709 2553 
Q 1456 2553 1204 2497 
Q 953 2441 691 2322 
L 691 4666 
z
" transform="scale(0.015625)"/>
       </defs>
       <use xlink:href="#DejaVuSans-35"/>
       <use xlink:href="#DejaVuSans-30" x="63.623047"/>
       <use xlink:href="#DejaVuSans-30" x="127.246094"/>
      </g>
     </g>
    </g>
   </g>
   <g id="matplotlib.axis_2">
    <g id="ytick_1">
     <g id="line2d_7">
      <defs>
       <path id="m785b48f43c" d="M 0 0 
L -3.5 0 
" style="stroke: #000000; stroke-width: 0.8"/>
      </defs>
      <g>
       <use xlink:href="#m785b48f43c" x="57.6" y="295.519605" style="stroke: #000000; stroke-width: 0.8"/>
      </g>
     </g>
     <g id="text_7">
      <!-- 0.0 -->
      <g transform="translate(34.696875 299.318824) scale(0.1 -0.1)">
       <defs>
        <path id="DejaVuSans-2e" d="M 684 794 
L 1344 794 
L 1344 0 
L 684 0 
L 684 794 
z
" transform="scale(0.015625)"/>
       </defs>
       <use xlink:href="#DejaVuSans-30"/>
       <use xlink:href="#DejaVuSans-2e" x="63.623047"/>
       <use xlink:href="#DejaVuSans-30" x="95.410156"/>
      </g>
     </g>
    </g>
    <g id="ytick_2">
     <g id="line2d_8">
      <g>
       <use xlink:href="#m785b48f43c" x="57.6" y="242.726058" style="stroke: #000000; stroke-width: 0.8"/>
      </g>
     </g>
     <g id="text_8">
      <!-- 0.2 -->
      <g transform="translate(34.696875 246.525277) scale(0.1 -0.1)">
       <use xlink:href="#DejaVuSans-30"/>
       <use xlink:href="#DejaVuSans-2e" x="63.623047"/>
       <use xlink:href="#DejaVuSans-32" x="95.410156"/>
      </g>
     </g>
    </g>
    <g id="ytick_3">
     <g id="line2d_9">
      <g>
       <use xlink:href="#m785b48f43c" x="57.6" y="189.932511" style="stroke: #000000; stroke-width: 0.8"/>
      </g>
     </g>
     <g id="text_9">
      <!-- 0.4 -->
      <g transform="translate(34.696875 193.73173) scale(0.1 -0.1)">
       <use xlink:href="#DejaVuSans-30"/>
       <use xlink:href="#DejaVuSans-2e" x="63.623047"/>
       <use xlink:href="#DejaVuSans-34" x="95.410156"/>
      </g>
     </g>
    </g>
    <g id="ytick_4">
     <g id="line2d_10">
      <g>
       <use xlink:href="#m785b48f43c" x="57.6" y="137.138964" style="stroke: #000000; stroke-width: 0.8"/>
      </g>
     </g>
     <g id="text_10">
      <!-- 0.6 -->
      <g transform="translate(34.696875 140.938183) scale(0.1 -0.1)">
       <defs>
        <path id="DejaVuSans-36" d="M 2113 2584 
Q 1688 2584 1439 2293 
Q 1191 2003 1191 1497 
Q 1191 994 1439 701 
Q 1688 409 2113 409 
Q 2538 409 2786 701 
Q 3034 994 3034 1497 
Q 3034 2003 2786 2293 
Q 2538 2584 2113 2584 
z
M 3366 4563 
L 3366 3988 
Q 3128 4100 2886 4159 
Q 2644 4219 2406 4219 
Q 1781 4219 1451 3797 
Q 1122 3375 1075 2522 
Q 1259 2794 1537 2939 
Q 1816 3084 2150 3084 
Q 2853 3084 3261 2657 
Q 3669 2231 3669 1497 
Q 3669 778 3244 343 
Q 2819 -91 2113 -91 
Q 1303 -91 875 529 
Q 447 1150 447 2328 
Q 447 3434 972 4092 
Q 1497 4750 2381 4750 
Q 2619 4750 2861 4703 
Q 3103 4656 3366 4563 
z
" transform="scale(0.015625)"/>
       </defs>
       <use xlink:href="#DejaVuSans-30"/>
       <use xlink:href="#DejaVuSans-2e" x="63.623047"/>
       <use xlink:href="#DejaVuSans-36" x="95.410156"/>
      </g>
     </g>
    </g>
    <g id="ytick_5">
     <g id="line2d_11">
      <g>
       <use xlink:href="#m785b48f43c" x="57.6" y="84.345417" style="stroke: #000000; stroke-width: 0.8"/>
      </g>
     </g>
     <g id="text_11">
      <!-- 0.8 -->
      <g transform="translate(34.696875 88.144636) scale(0.1 -0.1)">
       <defs>
        <path id="DejaVuSans-38" d="M 2034 2216 
Q 1584 2216 1326 1975 
Q 1069 1734 1069 1313 
Q 1069 891 1326 650 
Q 1584 409 2034 409 
Q 2484 409 2743 651 
Q 3003 894 3003 1313 
Q 3003 1734 2745 1975 
Q 2488 2216 2034 2216 
z
M 1403 2484 
Q 997 2584 770 2862 
Q 544 3141 544 3541 
Q 544 4100 942 4425 
Q 1341 4750 2034 4750 
Q 2731 4750 3128 4425 
Q 3525 4100 3525 3541 
Q 3525 3141 3298 2862 
Q 3072 2584 2669 2484 
Q 3125 2378 3379 2068 
Q 3634 1759 3634 1313 
Q 3634 634 3220 271 
Q 2806 -91 2034 -91 
Q 1263 -91 848 271 
Q 434 634 434 1313 
Q 434 1759 690 2068 
Q 947 2378 1403 2484 
z
M 1172 3481 
Q 1172 3119 1398 2916 
Q 1625 2713 2034 2713 
Q 2441 2713 2670 2916 
Q 2900 3119 2900 3481 
Q 2900 3844 2670 4047 
Q 2441 4250 2034 4250 
Q 1625 4250 1398 4047 
Q 1172 3844 1172 3481 
z
" transform="scale(0.015625)"/>
       </defs>
       <use xlink:href="#DejaVuSans-30"/>
       <use xlink:href="#DejaVuSans-2e" x="63.623047"/>
       <use xlink:href="#DejaVuSans-38" x="95.410156"/>
      </g>
     </g>
    </g>
   </g>
   <g id="line2d_12">
    <path d="M 73.832727 268.756504 
L 74.483338 283.174355 
L 75.133948 289.764024 
L 75.784558 285.728137 
L 76.435169 283.474952 
L 77.085779 278.773744 
L 77.736389 258.900789 
L 78.386999 233.086681 
L 79.03761 211.85575 
L 80.33883 208.292569 
L 80.989441 198.657394 
L 81.640051 185.294728 
L 82.290661 184.204569 
L 82.941272 185.978369 
L 83.591882 185.107976 
L 84.242492 191.283917 
L 84.893103 169.014084 
L 85.543713 166.232677 
L 86.194323 186.500046 
L 86.844934 156.404091 
L 87.495544 157.455745 
L 88.146154 171.439516 
L 88.796764 157.640192 
L 89.447375 180.249387 
L 90.097985 160.794225 
L 90.748595 147.329307 
L 91.399206 286.566496 
L 92.049816 286.252303 
L 92.700426 271.20985 
L 93.351037 241.564991 
L 94.001647 249.26792 
L 94.652257 236.518566 
L 95.302868 205.017326 
L 95.953478 195.138445 
L 96.604088 190.029132 
L 97.254698 259.667879 
L 97.905309 270.912497 
L 98.555919 262.794654 
L 99.206529 245.340002 
L 99.85714 239.912581 
L 100.50775 222.901474 
L 101.15836 223.10458 
L 101.808971 218.222333 
L 102.459581 201.727969 
L 103.110191 197.714915 
L 104.411412 185.752322 
L 105.062022 190.82801 
L 105.712633 266.076974 
L 106.363243 232.548135 
L 107.013853 177.314637 
L 107.664463 173.081654 
L 108.315074 175.8241 
L 108.965684 217.253156 
L 109.616294 177.769231 
L 110.266905 157.855961 
L 110.917515 152.821796 
L 111.568125 153.920524 
L 112.218736 155.24609 
L 112.869346 153.909764 
L 113.519956 132.553908 
L 114.170567 136.740094 
L 114.821177 135.880555 
L 115.471787 126.898484 
L 116.122398 133.660654 
L 116.773008 128.947621 
L 118.074228 139.001392 
L 118.724839 129.783528 
L 119.375449 125.135985 
L 120.026059 132.514835 
L 120.67667 136.826632 
L 121.32728 125.104367 
L 121.97789 124.619287 
L 122.628501 120.30957 
L 123.929721 116.979214 
L 124.580332 121.444497 
L 125.230942 132.476478 
L 125.881552 121.97927 
L 126.532163 120.192133 
L 127.182773 124.000965 
L 127.833383 123.870586 
L 128.483993 123.417235 
L 129.134604 115.796881 
L 130.435824 117.707123 
L 131.086435 110.290058 
L 131.737045 118.995401 
L 132.387655 111.248868 
L 133.038266 112.416851 
L 133.688876 103.470443 
L 134.339486 112.56335 
L 134.990097 106.250518 
L 135.640707 107.615821 
L 136.291317 111.794416 
L 136.941927 114.68654 
L 137.592538 109.962111 
L 138.243148 115.406441 
L 138.893758 104.304766 
L 139.544369 108.022659 
L 140.194979 104.519959 
L 140.845589 118.474692 
L 141.4962 111.545118 
L 142.14681 108.565935 
L 142.79742 103.438355 
L 143.448031 107.126404 
L 144.098641 100.611568 
L 144.749251 100.119569 
L 145.399862 110.201204 
L 146.050472 107.754329 
L 147.351692 99.007795 
L 148.002303 100.158438 
L 148.652913 107.164823 
L 149.303523 99.235203 
L 149.954134 108.282202 
L 150.604744 101.394087 
L 151.255354 100.097744 
L 151.905965 100.585001 
L 152.556575 97.057691 
L 153.207185 128.487147 
L 153.857796 106.853817 
L 154.508406 109.022814 
L 155.159016 96.674797 
L 155.809627 100.177781 
L 156.460237 100.613114 
L 157.110847 97.047722 
L 157.761457 97.55257 
L 158.412068 90.426442 
L 159.062678 89.959457 
L 159.713288 98.872117 
L 160.363899 92.580971 
L 161.014509 90.169006 
L 161.665119 89.531281 
L 162.31573 96.931417 
L 162.96634 91.045854 
L 163.61695 88.120409 
L 164.267561 89.650083 
L 164.918171 86.992494 
L 165.568781 90.530039 
L 166.219392 103.037806 
L 166.870002 99.849225 
L 167.520612 93.548736 
L 168.171222 91.096412 
L 168.821833 89.980576 
L 169.472443 105.100949 
L 170.123053 92.498485 
L 170.773664 86.660044 
L 171.424274 83.979969 
L 172.074884 82.849125 
L 172.725495 83.777625 
L 173.376105 88.612332 
L 174.026715 83.589574 
L 174.677326 83.68558 
L 175.327936 85.223443 
L 175.978546 81.68878 
L 177.279767 84.903051 
L 177.930377 82.888134 
L 178.580987 85.385884 
L 179.231598 81.934559 
L 179.882208 80.805154 
L 180.532818 79.083143 
L 181.183429 84.343235 
L 181.834039 79.685186 
L 182.484649 83.008583 
L 183.13526 81.27315 
L 183.78587 78.00558 
L 184.43648 84.75633 
L 185.087091 81.040585 
L 185.737701 76.504548 
L 186.388311 77.862337 
L 187.038921 73.506073 
L 187.689532 76.461653 
L 188.340142 99.055775 
L 188.990752 88.16921 
L 189.641363 86.709934 
L 190.291973 79.111073 
L 190.942583 75.783461 
L 191.593194 76.872613 
L 192.243804 75.625922 
L 192.894414 75.5976 
L 193.545025 75.141281 
L 194.195635 72.818233 
L 194.846245 74.451786 
L 195.496856 72.741506 
L 196.147466 73.047201 
L 196.798076 73.506975 
L 197.448686 82.979177 
L 198.099297 80.648729 
L 198.749907 73.544013 
L 199.400517 71.831974 
L 200.051128 72.221645 
L 200.701738 69.854537 
L 201.352348 69.563932 
L 202.002959 69.988158 
L 202.653569 69.103652 
L 203.304179 72.54157 
L 203.95479 70.230361 
L 204.6054 71.76609 
L 205.906621 67.080635 
L 206.557231 79.884316 
L 207.207841 71.027989 
L 207.858451 70.859618 
L 208.509062 67.329399 
L 209.159672 67.705162 
L 209.810282 71.065739 
L 210.460893 68.096507 
L 211.111503 71.702416 
L 211.762113 69.05157 
L 212.412724 68.152654 
L 213.063334 70.457864 
L 213.713944 67.765567 
L 214.364555 72.811556 
L 215.015165 68.36667 
L 216.316385 64.406957 
L 216.966996 64.615774 
L 217.617606 69.712468 
L 218.268216 66.159614 
L 218.918827 65.147906 
L 219.569437 66.012073 
L 220.220047 65.773794 
L 220.870658 64.713992 
L 221.521268 65.387431 
L 222.171878 65.816891 
L 222.822489 64.066741 
L 223.473099 64.640028 
L 224.123709 63.881471 
L 224.77432 64.428069 
L 225.42493 68.137221 
L 226.07554 67.212152 
L 226.72615 65.540187 
L 227.376761 72.719407 
L 228.027371 68.152868 
L 229.328592 62.32443 
L 229.979202 61.132324 
L 230.629812 63.093462 
L 231.280423 61.610287 
L 231.931033 63.805589 
L 232.581643 61.431924 
L 233.232254 64.19683 
L 233.882864 64.651317 
L 234.533474 62.023766 
L 235.184085 61.053888 
L 235.834695 63.289494 
L 236.485305 68.069829 
L 237.135915 69.650893 
L 237.786526 70.812867 
L 238.437136 76.569055 
L 239.738357 66.280066 
L 240.388967 67.985707 
L 241.039577 66.138643 
L 241.690188 65.304288 
L 242.340798 61.530203 
L 242.991408 59.761731 
L 243.642019 61.21507 
L 244.292629 59.680155 
L 244.943239 59.305726 
L 245.59385 60.307296 
L 246.24446 64.465837 
L 246.89507 60.136142 
L 247.54568 61.988857 
L 248.196291 62.911617 
L 248.846901 84.65184 
L 249.497511 212.187843 
L 250.148122 269.18302 
L 250.798732 190.932062 
L 251.449342 163.671489 
L 252.099953 145.480448 
L 252.750563 117.493173 
L 253.401173 111.005278 
L 254.051784 141.316139 
L 254.702394 111.442439 
L 255.353004 103.728596 
L 256.003615 88.58894 
L 256.654225 87.501383 
L 257.304835 80.477293 
L 258.606056 76.39469 
L 259.256666 74.895272 
L 259.907276 71.859519 
L 260.557887 71.021144 
L 261.208497 73.949377 
L 261.859107 68.94981 
L 262.509718 70.973739 
L 263.810938 67.152144 
L 264.461549 69.346135 
L 265.112159 65.705085 
L 265.762769 64.83745 
L 266.413379 66.265808 
L 267.06399 66.944613 
L 267.7146 64.393632 
L 268.36521 66.355653 
L 269.015821 63.79532 
L 269.666431 69.075455 
L 270.317041 67.194842 
L 270.967652 71.142108 
L 271.618262 65.547861 
L 272.268872 63.572988 
L 272.919483 63.434955 
L 273.570093 64.525758 
L 274.220703 61.57608 
L 274.871314 64.055535 
L 275.521924 62.686078 
L 276.172534 61.763048 
L 276.823144 61.98785 
L 277.473755 61.412356 
L 278.124365 61.506083 
L 278.774975 68.732112 
L 279.425586 64.348767 
L 280.076196 62.781816 
L 281.377417 65.00234 
L 282.028027 62.259898 
L 282.678637 60.939454 
L 283.329248 62.017276 
L 284.630468 61.204718 
L 285.281079 59.252324 
L 285.931689 58.677859 
L 286.582299 58.859664 
L 287.232909 58.684357 
L 287.88352 60.320882 
L 288.53413 58.792479 
L 289.18474 61.330458 
L 289.835351 64.537874 
L 290.485961 60.946568 
L 291.136571 58.335322 
L 291.787182 59.310464 
L 292.437792 59.525397 
L 293.088402 60.225459 
L 293.739013 60.339702 
L 294.389623 65.627753 
L 295.040233 60.916806 
L 295.690844 57.950428 
L 296.341454 60.142937 
L 296.992064 57.926726 
L 297.642674 58.487643 
L 298.293285 59.622535 
L 298.943895 62.600159 
L 299.594505 59.711836 
L 300.245116 62.56908 
L 300.895726 60.704583 
L 301.546336 58.251169 
L 302.196947 59.430485 
L 302.847557 59.306825 
L 303.498167 58.147695 
L 304.148778 57.826955 
L 304.799388 59.665779 
L 305.449998 59.329074 
L 306.100608 63.407566 
L 306.751219 63.439882 
L 307.401829 65.995397 
L 308.052439 63.784309 
L 308.70305 60.11805 
L 309.35366 57.427601 
L 310.00427 57.687558 
L 310.654881 57.541165 
L 311.305491 57.147984 
L 311.956101 58.61197 
L 312.606712 62.767113 
L 313.257322 59.616222 
L 313.907932 58.246516 
L 315.209153 59.321056 
L 315.859763 60.197996 
L 316.510373 59.932507 
L 317.160984 61.143839 
L 317.811594 60.75262 
L 318.462204 59.182578 
L 319.112815 59.4758 
L 319.763425 57.447736 
L 320.414035 57.09318 
L 321.064646 58.796974 
L 321.715256 57.090982 
L 322.365866 57.331694 
L 323.016477 55.97312 
L 323.667087 57.334345 
L 324.317697 56.155539 
L 324.968308 57.383053 
L 325.618918 59.328212 
L 326.269528 58.863367 
L 326.920138 57.000653 
L 327.570749 58.117804 
L 328.221359 57.617731 
L 328.871969 56.544457 
L 330.17319 57.676328 
L 330.8238 58.620337 
L 331.474411 56.452139 
L 332.125021 55.965504 
L 333.426242 56.392589 
L 334.076852 57.265945 
L 334.727462 56.066424 
L 335.378073 56.917311 
L 336.028683 68.759602 
L 336.679293 83.189672 
L 337.329903 81.403557 
L 337.980514 94.578438 
L 339.281734 66.616347 
L 339.932345 63.043434 
L 340.582955 60.554256 
L 341.233565 59.671722 
L 341.884176 58.138683 
L 343.185396 57.634488 
L 343.836007 56.570754 
L 344.486617 56.284155 
L 345.137227 56.882656 
L 345.787837 55.675917 
L 346.438448 56.497436 
L 347.089058 58.525443 
L 347.739668 56.187165 
L 348.390279 55.654197 
L 349.040889 55.585417 
L 349.691499 55.635282 
L 350.99272 53.568 
L 351.64333 56.852656 
L 352.293941 57.149555 
L 352.944551 60.096941 
L 353.595161 59.86143 
L 354.245772 56.632474 
L 354.896382 56.268752 
L 356.197602 55.899454 
L 356.848213 55.359045 
L 357.498823 55.632205 
L 358.149433 55.663212 
L 358.800044 56.271172 
L 359.450654 59.732318 
L 360.751875 57.221353 
L 361.402485 55.764034 
L 362.053095 55.137304 
L 362.703706 55.717578 
L 363.354316 56.473626 
L 364.004926 57.606198 
L 364.655537 56.747026 
L 365.306147 59.875456 
L 365.956757 55.631445 
L 366.607367 56.417999 
L 367.257978 67.31863 
L 367.908588 60.677643 
L 368.559198 57.273288 
L 369.209809 56.365206 
L 369.860419 54.527407 
L 371.16164 54.56069 
L 371.81225 55.719325 
L 372.46286 59.074387 
L 373.113471 56.642759 
L 373.764081 63.096752 
L 375.065302 56.397697 
L 375.715912 57.469577 
L 376.366522 55.603779 
L 377.017132 54.957633 
L 377.667743 54.673644 
L 378.318353 58.293393 
L 378.968963 57.421359 
L 379.619574 55.252413 
L 380.270184 56.630726 
L 380.920794 56.013836 
L 381.571405 54.286493 
L 382.222015 56.261259 
L 382.872625 55.989805 
L 383.523236 56.207798 
L 384.173846 54.178354 
L 384.824456 55.273049 
L 385.475066 54.28137 
L 386.125677 57.291129 
L 386.776287 55.122698 
L 387.426897 54.374939 
L 388.077508 53.907871 
L 388.728118 54.882251 
L 389.378728 55.026454 
L 390.679949 274.587684 
L 391.330559 272.207107 
L 391.98117 284.632025 
L 392.63178 287.436265 
L 394.583611 255.599083 
L 395.234221 260.936307 
L 395.884831 274.054942 
L 396.535442 273.322105 
L 397.186052 281.186078 
L 397.836662 281.666736 
L 398.487273 279.99813 
L 398.487273 279.99813 
" clip-path="url(#p128e24a849)" style="fill: none; stroke: #1f77b4; stroke-width: 1.5; stroke-linecap: square"/>
   </g>
   <g id="line2d_13">
    <path d="M 73.832727 293.630168 
L 74.483338 292.589459 
L 75.133948 280.550265 
L 75.784558 292.604634 
L 76.435169 289.303896 
L 77.736389 258.742019 
L 78.386999 231.455821 
L 79.03761 183.502956 
L 79.68822 200.031537 
L 80.33883 184.276074 
L 80.989441 221.717473 
L 81.640051 176.564825 
L 82.290661 175.546091 
L 82.941272 139.169066 
L 83.591882 185.344338 
L 84.242492 154.037498 
L 84.893103 166.829286 
L 85.543713 203.979788 
L 86.194323 165.162154 
L 86.844934 173.386169 
L 87.495544 154.027656 
L 88.146154 150.402635 
L 88.796764 221.130102 
L 89.447375 153.209075 
L 90.097985 135.564412 
L 90.748595 268.212222 
L 91.399206 291.679803 
L 92.049816 288.996837 
L 92.700426 272.907745 
L 93.351037 279.200239 
L 94.652257 188.240511 
L 95.302868 187.52132 
L 95.953478 161.726484 
L 96.604088 147.501442 
L 97.254698 293.898931 
L 97.905309 251.264726 
L 98.555919 258.38425 
L 99.206529 243.949955 
L 99.85714 238.92743 
L 100.50775 188.59839 
L 101.15836 185.643833 
L 101.808971 187.347836 
L 102.459581 201.45292 
L 103.110191 199.117358 
L 103.760802 181.302125 
L 104.411412 184.538772 
L 105.062022 242.976518 
L 105.712633 256.669359 
L 106.363243 196.634005 
L 107.013853 167.651147 
L 107.664463 183.587666 
L 108.315074 231.688668 
L 108.965684 191.638566 
L 109.616294 139.755721 
L 110.266905 130.163468 
L 110.917515 117.094519 
L 111.568125 127.373371 
L 112.218736 118.751624 
L 112.869346 127.843297 
L 113.519956 133.836666 
L 114.170567 121.024727 
L 114.821177 131.947111 
L 115.471787 134.364076 
L 116.773008 111.247069 
L 117.423618 104.858446 
L 118.724839 131.432486 
L 119.375449 132.965794 
L 120.026059 116.770075 
L 120.67667 126.571432 
L 121.32728 123.510594 
L 121.97789 129.680498 
L 122.628501 115.472972 
L 123.279111 120.233881 
L 123.929721 108.464705 
L 125.230942 133.125208 
L 125.881552 103.960543 
L 126.532163 106.863997 
L 127.182773 105.722026 
L 127.833383 128.114157 
L 128.483993 108.14758 
L 129.134604 115.611008 
L 129.785214 117.22256 
L 130.435824 113.383926 
L 131.086435 123.618362 
L 131.737045 101.10324 
L 132.387655 101.023529 
L 133.038266 110.704028 
L 133.688876 112.018087 
L 134.339486 99.590126 
L 134.990097 116.496949 
L 135.640707 104.927415 
L 136.291317 141.495203 
L 136.941927 99.272848 
L 137.592538 102.948433 
L 138.243148 100.50222 
L 138.893758 118.893204 
L 139.544369 113.529121 
L 140.194979 102.778517 
L 140.845589 111.540947 
L 141.4962 97.53185 
L 142.79742 116.063175 
L 143.448031 95.800659 
L 144.098641 95.314472 
L 144.749251 101.56406 
L 145.399862 124.813332 
L 146.050472 98.877837 
L 146.701082 98.79389 
L 147.351692 118.705245 
L 148.002303 115.946474 
L 148.652913 100.949765 
L 149.303523 97.658637 
L 149.954134 97.153258 
L 150.604744 97.2756 
L 151.255354 93.673836 
L 151.905965 107.417784 
L 152.556575 130.607139 
L 153.207185 126.282573 
L 153.857796 95.649226 
L 154.508406 93.927845 
L 155.159016 100.849927 
L 155.809627 95.33194 
L 156.460237 94.785462 
L 157.110847 102.547948 
L 157.761457 100.077811 
L 158.412068 92.331291 
L 159.062678 91.455801 
L 159.713288 97.57096 
L 160.363899 97.192238 
L 161.014509 103.678859 
L 161.665119 105.315577 
L 162.31573 92.9717 
L 162.96634 89.896394 
L 163.61695 91.06192 
L 164.267561 89.840426 
L 164.918171 86.911105 
L 165.568781 91.901081 
L 166.219392 101.045879 
L 166.870002 99.261303 
L 167.520612 91.327131 
L 168.171222 90.395766 
L 168.821833 115.095112 
L 169.472443 113.623539 
L 170.123053 96.250037 
L 170.773664 91.129818 
L 171.424274 100.079043 
L 172.074884 95.071233 
L 172.725495 108.330654 
L 173.376105 90.006424 
L 174.026715 86.660896 
L 174.677326 90.043245 
L 175.327936 87.842906 
L 175.978546 86.411383 
L 176.629156 90.006294 
L 177.279767 90.451122 
L 177.930377 107.225353 
L 178.580987 85.97353 
L 179.231598 93.881918 
L 179.882208 86.815456 
L 180.532818 95.838334 
L 181.183429 91.788478 
L 181.834039 88.676989 
L 182.484649 86.569794 
L 183.13526 97.96743 
L 183.78587 85.633533 
L 184.43648 87.933375 
L 185.087091 88.413406 
L 185.737701 86.610061 
L 186.388311 87.221563 
L 187.038921 84.913338 
L 187.689532 93.70307 
L 188.340142 99.77139 
L 188.990752 97.035311 
L 189.641363 90.401745 
L 190.291973 85.106784 
L 190.942583 89.542662 
L 191.593194 85.741379 
L 192.243804 84.572164 
L 192.894414 93.480591 
L 193.545025 91.142457 
L 194.195635 97.827243 
L 194.846245 86.942124 
L 195.496856 86.727705 
L 196.147466 88.679892 
L 196.798076 86.130906 
L 197.448686 93.343413 
L 198.099297 86.037877 
L 198.749907 83.240987 
L 199.400517 87.907847 
L 200.051128 87.575359 
L 200.701738 84.575209 
L 201.352348 83.282485 
L 202.002959 88.971308 
L 202.653569 86.025589 
L 203.304179 91.853915 
L 203.95479 84.172135 
L 204.6054 83.26087 
L 205.25601 86.43603 
L 205.906621 113.187286 
L 206.557231 89.978611 
L 207.207841 83.759664 
L 208.509062 90.119742 
L 209.159672 100.81951 
L 209.810282 86.727068 
L 210.460893 84.648068 
L 211.111503 85.369124 
L 211.762113 94.781882 
L 212.412724 83.251548 
L 213.063334 90.53427 
L 213.713944 84.781962 
L 214.364555 90.207639 
L 215.015165 86.103718 
L 215.665775 87.490255 
L 216.316385 84.546562 
L 216.966996 82.560736 
L 217.617606 87.835921 
L 218.268216 88.295447 
L 218.918827 84.917736 
L 219.569437 86.432781 
L 220.220047 88.783129 
L 220.870658 81.274722 
L 221.521268 82.273006 
L 222.171878 85.242271 
L 222.822489 82.746264 
L 223.473099 82.509409 
L 224.123709 92.999572 
L 224.77432 85.552964 
L 225.42493 95.358861 
L 226.07554 86.26943 
L 226.72615 85.944246 
L 227.376761 89.738932 
L 228.027371 88.920075 
L 228.677981 88.667427 
L 229.328592 86.866453 
L 229.979202 85.600924 
L 230.629812 85.949855 
L 231.280423 94.881398 
L 231.931033 82.311286 
L 232.581643 83.48943 
L 233.232254 85.484035 
L 233.882864 84.569997 
L 234.533474 86.42519 
L 235.184085 84.577239 
L 235.834695 86.649355 
L 236.485305 95.49773 
L 237.135915 111.009635 
L 237.786526 87.415229 
L 238.437136 107.54708 
L 239.087746 96.60132 
L 239.738357 83.260099 
L 240.388967 93.521908 
L 241.039577 91.889465 
L 241.690188 84.619735 
L 242.340798 84.094753 
L 242.991408 85.038991 
L 243.642019 85.463687 
L 244.292629 82.621952 
L 244.943239 89.143136 
L 245.59385 82.543449 
L 246.24446 84.318195 
L 246.89507 85.481313 
L 247.54568 88.000601 
L 248.196291 94.815847 
L 248.846901 122.855072 
L 249.497511 282.282207 
L 250.148122 176.626132 
L 250.798732 179.574651 
L 251.449342 180.968252 
L 252.099953 107.129158 
L 252.750563 110.520372 
L 253.401173 109.432426 
L 254.051784 114.095255 
L 254.702394 98.713703 
L 255.353004 96.425496 
L 256.003615 103.212618 
L 256.654225 89.063645 
L 257.304835 101.922659 
L 257.955445 93.966456 
L 258.606056 98.653105 
L 259.256666 98.553987 
L 259.907276 95.173105 
L 260.557887 86.926103 
L 261.208497 85.062781 
L 261.859107 99.186847 
L 262.509718 85.847908 
L 263.160328 85.981912 
L 263.810938 102.111078 
L 264.461549 92.475168 
L 265.112159 87.114754 
L 265.762769 95.648935 
L 266.413379 84.496599 
L 267.06399 89.873522 
L 267.7146 85.955873 
L 268.36521 87.833128 
L 269.015821 103.784589 
L 269.666431 85.434422 
L 270.317041 98.54066 
L 271.618262 85.284787 
L 272.268872 86.533315 
L 272.919483 86.439228 
L 273.570093 91.631244 
L 274.220703 95.055901 
L 274.871314 87.317652 
L 275.521924 82.567207 
L 276.172534 94.811269 
L 276.823144 87.514705 
L 277.473755 87.220265 
L 278.124365 112.599609 
L 278.774975 88.138039 
L 280.076196 94.716434 
L 280.726806 84.543242 
L 281.377417 89.449408 
L 282.028027 93.260827 
L 282.678637 81.64697 
L 283.329248 96.575768 
L 283.979858 86.231276 
L 285.281079 88.483701 
L 285.931689 86.042979 
L 286.582299 86.100092 
L 287.232909 82.67809 
L 287.88352 86.811822 
L 288.53413 89.919181 
L 289.18474 95.747165 
L 289.835351 87.06705 
L 290.485961 87.286405 
L 291.136571 82.685634 
L 291.787182 83.41464 
L 292.437792 96.839229 
L 293.088402 95.934447 
L 293.739013 99.920289 
L 294.389623 86.038534 
L 295.040233 90.889828 
L 295.690844 96.634923 
L 296.341454 88.978986 
L 296.992064 89.952839 
L 297.642674 92.493895 
L 298.293285 92.403411 
L 298.943895 86.945924 
L 299.594505 87.27905 
L 300.245116 84.768293 
L 300.895726 90.559373 
L 301.546336 90.208783 
L 302.196947 86.0604 
L 302.847557 84.211367 
L 303.498167 93.493056 
L 304.148778 83.570616 
L 304.799388 83.622647 
L 305.449998 100.509674 
L 306.100608 83.124204 
L 306.751219 91.627169 
L 307.401829 89.972982 
L 308.052439 92.348339 
L 308.70305 87.584197 
L 309.35366 89.569802 
L 310.00427 87.413585 
L 310.654881 88.530988 
L 311.305491 86.030816 
L 311.956101 103.396573 
L 312.606712 93.196594 
L 313.257322 88.464325 
L 313.907932 85.449727 
L 314.558543 87.072057 
L 315.209153 101.493821 
L 315.859763 88.23228 
L 316.510373 99.604258 
L 317.160984 90.241828 
L 317.811594 88.658227 
L 318.462204 93.731795 
L 319.112815 86.422173 
L 319.763425 86.595464 
L 320.414035 86.344649 
L 321.064646 86.27343 
L 321.715256 88.645376 
L 322.365866 88.927981 
L 323.016477 87.059305 
L 323.667087 88.730299 
L 324.317697 92.885845 
L 324.968308 92.798913 
L 325.618918 86.049512 
L 326.269528 90.222291 
L 326.920138 92.17375 
L 327.570749 89.072877 
L 328.221359 88.206375 
L 328.871969 85.684691 
L 329.52258 88.811548 
L 330.17319 85.309635 
L 330.8238 87.214947 
L 331.474411 86.498544 
L 332.125021 86.301322 
L 332.775631 85.422744 
L 333.426242 83.378142 
L 334.076852 89.811027 
L 334.727462 87.452447 
L 335.378073 89.368375 
L 336.028683 106.233953 
L 336.679293 98.990927 
L 337.329903 116.827951 
L 337.980514 102.718356 
L 338.631124 91.512631 
L 339.281734 94.023136 
L 339.932345 90.843497 
L 340.582955 90.564007 
L 341.233565 88.062926 
L 341.884176 91.032871 
L 342.534786 85.477604 
L 343.185396 86.591923 
L 343.836007 92.809364 
L 344.486617 88.982561 
L 345.137227 91.570925 
L 345.787837 88.433848 
L 346.438448 98.789032 
L 347.089058 86.731002 
L 347.739668 87.779791 
L 348.390279 85.948281 
L 349.040889 87.06255 
L 349.691499 89.867555 
L 350.34211 89.710229 
L 350.99272 97.393677 
L 351.64333 94.701094 
L 352.293941 87.83891 
L 352.944551 87.086937 
L 353.595161 88.379957 
L 354.245772 86.443425 
L 354.896382 95.223579 
L 355.546992 85.664689 
L 356.197602 89.075512 
L 356.848213 91.082157 
L 357.498823 89.095356 
L 358.149433 86.034022 
L 358.800044 87.090222 
L 359.450654 87.286452 
L 360.101264 91.736781 
L 360.751875 88.679278 
L 361.402485 87.499892 
L 362.053095 90.275577 
L 362.703706 88.088175 
L 363.354316 84.554948 
L 364.004926 86.106661 
L 364.655537 86.342245 
L 365.306147 89.383165 
L 365.956757 89.462136 
L 366.607367 94.767049 
L 367.257978 95.119225 
L 367.908588 88.745915 
L 368.559198 92.829617 
L 369.209809 88.941489 
L 369.860419 87.437472 
L 370.511029 90.380831 
L 371.16164 87.69523 
L 371.81225 87.25362 
L 373.113471 92.37404 
L 373.764081 87.275053 
L 375.065302 94.027793 
L 375.715912 89.440046 
L 376.366522 87.259536 
L 377.017132 89.694641 
L 377.667743 93.715633 
L 378.318353 86.986155 
L 378.968963 87.242673 
L 379.619574 87.83417 
L 380.270184 89.627773 
L 380.920794 90.765811 
L 381.571405 97.048425 
L 382.222015 94.427323 
L 382.872625 93.585759 
L 383.523236 88.206662 
L 384.173846 86.400649 
L 385.475066 95.719654 
L 386.125677 92.014175 
L 386.776287 89.072983 
L 387.426897 85.492031 
L 388.077508 94.597597 
L 388.728118 89.600231 
L 389.378728 94.323017 
L 390.029339 241.341551 
L 390.679949 295.488 
L 391.330559 287.035721 
L 391.98117 294.954262 
L 392.63178 262.07046 
L 393.28239 292.468167 
L 393.933001 220.167105 
L 394.583611 225.502597 
L 395.234221 269.55422 
L 395.884831 279.774149 
L 396.535442 278.338425 
L 397.186052 281.661879 
L 397.836662 287.669054 
L 398.487273 279.626756 
L 398.487273 279.626756 
" clip-path="url(#p128e24a849)" style="fill: none; stroke: #ff7f0e; stroke-width: 1.5; stroke-linecap: square"/>
   </g>
   <g id="patch_3">
    <path d="M 57.6 307.584 
L 57.6 41.472 
" style="fill: none; stroke: #000000; stroke-width: 0.8; stroke-linejoin: miter; stroke-linecap: square"/>
   </g>
   <g id="patch_4">
    <path d="M 414.72 307.584 
L 414.72 41.472 
" style="fill: none; stroke: #000000; stroke-width: 0.8; stroke-linejoin: miter; stroke-linecap: square"/>
   </g>
   <g id="patch_5">
    <path d="M 57.6 307.584 
L 414.72 307.584 
" style="fill: none; stroke: #000000; stroke-width: 0.8; stroke-linejoin: miter; stroke-linecap: square"/>
   </g>
   <g id="patch_6">
    <path d="M 57.6 41.472 
L 414.72 41.472 
" style="fill: none; stroke: #000000; stroke-width: 0.8; stroke-linejoin: miter; stroke-linecap: square"/>
   </g>
   <g id="text_12">
    <!-- Dice score during training -->
    <g transform="translate(158.442187 35.472) scale(0.12 -0.12)">
     <defs>
      <path id="DejaVuSans-44" d="M 1259 4147 
L 1259 519 
L 2022 519 
Q 2988 519 3436 956 
Q 3884 1394 3884 2338 
Q 3884 3275 3436 3711 
Q 2988 4147 2022 4147 
L 1259 4147 
z
M 628 4666 
L 1925 4666 
Q 3281 4666 3915 4102 
Q 4550 3538 4550 2338 
Q 4550 1131 3912 565 
Q 3275 0 1925 0 
L 628 0 
L 628 4666 
z
" transform="scale(0.015625)"/>
      <path id="DejaVuSans-69" d="M 603 3500 
L 1178 3500 
L 1178 0 
L 603 0 
L 603 3500 
z
M 603 4863 
L 1178 4863 
L 1178 4134 
L 603 4134 
L 603 4863 
z
" transform="scale(0.015625)"/>
      <path id="DejaVuSans-63" d="M 3122 3366 
L 3122 2828 
Q 2878 2963 2633 3030 
Q 2388 3097 2138 3097 
Q 1578 3097 1268 2742 
Q 959 2388 959 1747 
Q 959 1106 1268 751 
Q 1578 397 2138 397 
Q 2388 397 2633 464 
Q 2878 531 3122 666 
L 3122 134 
Q 2881 22 2623 -34 
Q 2366 -91 2075 -91 
Q 1284 -91 818 406 
Q 353 903 353 1747 
Q 353 2603 823 3093 
Q 1294 3584 2113 3584 
Q 2378 3584 2631 3529 
Q 2884 3475 3122 3366 
z
" transform="scale(0.015625)"/>
      <path id="DejaVuSans-65" d="M 3597 1894 
L 3597 1613 
L 953 1613 
Q 991 1019 1311 708 
Q 1631 397 2203 397 
Q 2534 397 2845 478 
Q 3156 559 3463 722 
L 3463 178 
Q 3153 47 2828 -22 
Q 2503 -91 2169 -91 
Q 1331 -91 842 396 
Q 353 884 353 1716 
Q 353 2575 817 3079 
Q 1281 3584 2069 3584 
Q 2775 3584 3186 3129 
Q 3597 2675 3597 1894 
z
M 3022 2063 
Q 3016 2534 2758 2815 
Q 2500 3097 2075 3097 
Q 1594 3097 1305 2825 
Q 1016 2553 972 2059 
L 3022 2063 
z
" transform="scale(0.015625)"/>
      <path id="DejaVuSans-20" transform="scale(0.015625)"/>
      <path id="DejaVuSans-73" d="M 2834 3397 
L 2834 2853 
Q 2591 2978 2328 3040 
Q 2066 3103 1784 3103 
Q 1356 3103 1142 2972 
Q 928 2841 928 2578 
Q 928 2378 1081 2264 
Q 1234 2150 1697 2047 
L 1894 2003 
Q 2506 1872 2764 1633 
Q 3022 1394 3022 966 
Q 3022 478 2636 193 
Q 2250 -91 1575 -91 
Q 1294 -91 989 -36 
Q 684 19 347 128 
L 347 722 
Q 666 556 975 473 
Q 1284 391 1588 391 
Q 1994 391 2212 530 
Q 2431 669 2431 922 
Q 2431 1156 2273 1281 
Q 2116 1406 1581 1522 
L 1381 1569 
Q 847 1681 609 1914 
Q 372 2147 372 2553 
Q 372 3047 722 3315 
Q 1072 3584 1716 3584 
Q 2034 3584 2315 3537 
Q 2597 3491 2834 3397 
z
" transform="scale(0.015625)"/>
      <path id="DejaVuSans-6f" d="M 1959 3097 
Q 1497 3097 1228 2736 
Q 959 2375 959 1747 
Q 959 1119 1226 758 
Q 1494 397 1959 397 
Q 2419 397 2687 759 
Q 2956 1122 2956 1747 
Q 2956 2369 2687 2733 
Q 2419 3097 1959 3097 
z
M 1959 3584 
Q 2709 3584 3137 3096 
Q 3566 2609 3566 1747 
Q 3566 888 3137 398 
Q 2709 -91 1959 -91 
Q 1206 -91 779 398 
Q 353 888 353 1747 
Q 353 2609 779 3096 
Q 1206 3584 1959 3584 
z
" transform="scale(0.015625)"/>
      <path id="DejaVuSans-72" d="M 2631 2963 
Q 2534 3019 2420 3045 
Q 2306 3072 2169 3072 
Q 1681 3072 1420 2755 
Q 1159 2438 1159 1844 
L 1159 0 
L 581 0 
L 581 3500 
L 1159 3500 
L 1159 2956 
Q 1341 3275 1631 3429 
Q 1922 3584 2338 3584 
Q 2397 3584 2469 3576 
Q 2541 3569 2628 3553 
L 2631 2963 
z
" transform="scale(0.015625)"/>
      <path id="DejaVuSans-64" d="M 2906 2969 
L 2906 4863 
L 3481 4863 
L 3481 0 
L 2906 0 
L 2906 525 
Q 2725 213 2448 61 
Q 2172 -91 1784 -91 
Q 1150 -91 751 415 
Q 353 922 353 1747 
Q 353 2572 751 3078 
Q 1150 3584 1784 3584 
Q 2172 3584 2448 3432 
Q 2725 3281 2906 2969 
z
M 947 1747 
Q 947 1113 1208 752 
Q 1469 391 1925 391 
Q 2381 391 2643 752 
Q 2906 1113 2906 1747 
Q 2906 2381 2643 2742 
Q 2381 3103 1925 3103 
Q 1469 3103 1208 2742 
Q 947 2381 947 1747 
z
" transform="scale(0.015625)"/>
      <path id="DejaVuSans-75" d="M 544 1381 
L 544 3500 
L 1119 3500 
L 1119 1403 
Q 1119 906 1312 657 
Q 1506 409 1894 409 
Q 2359 409 2629 706 
Q 2900 1003 2900 1516 
L 2900 3500 
L 3475 3500 
L 3475 0 
L 2900 0 
L 2900 538 
Q 2691 219 2414 64 
Q 2138 -91 1772 -91 
Q 1169 -91 856 284 
Q 544 659 544 1381 
z
M 1991 3584 
L 1991 3584 
z
" transform="scale(0.015625)"/>
      <path id="DejaVuSans-6e" d="M 3513 2113 
L 3513 0 
L 2938 0 
L 2938 2094 
Q 2938 2591 2744 2837 
Q 2550 3084 2163 3084 
Q 1697 3084 1428 2787 
Q 1159 2491 1159 1978 
L 1159 0 
L 581 0 
L 581 3500 
L 1159 3500 
L 1159 2956 
Q 1366 3272 1645 3428 
Q 1925 3584 2291 3584 
Q 2894 3584 3203 3211 
Q 3513 2838 3513 2113 
z
" transform="scale(0.015625)"/>
      <path id="DejaVuSans-67" d="M 2906 1791 
Q 2906 2416 2648 2759 
Q 2391 3103 1925 3103 
Q 1463 3103 1205 2759 
Q 947 2416 947 1791 
Q 947 1169 1205 825 
Q 1463 481 1925 481 
Q 2391 481 2648 825 
Q 2906 1169 2906 1791 
z
M 3481 434 
Q 3481 -459 3084 -895 
Q 2688 -1331 1869 -1331 
Q 1566 -1331 1297 -1286 
Q 1028 -1241 775 -1147 
L 775 -588 
Q 1028 -725 1275 -790 
Q 1522 -856 1778 -856 
Q 2344 -856 2625 -561 
Q 2906 -266 2906 331 
L 2906 616 
Q 2728 306 2450 153 
Q 2172 0 1784 0 
Q 1141 0 747 490 
Q 353 981 353 1791 
Q 353 2603 747 3093 
Q 1141 3584 1784 3584 
Q 2172 3584 2450 3431 
Q 2728 3278 2906 2969 
L 2906 3500 
L 3481 3500 
L 3481 434 
z
" transform="scale(0.015625)"/>
      <path id="DejaVuSans-74" d="M 1172 4494 
L 1172 3500 
L 2356 3500 
L 2356 3053 
L 1172 3053 
L 1172 1153 
Q 1172 725 1289 603 
Q 1406 481 1766 481 
L 2356 481 
L 2356 0 
L 1766 0 
Q 1100 0 847 248 
Q 594 497 594 1153 
L 594 3053 
L 172 3053 
L 172 3500 
L 594 3500 
L 594 4494 
L 1172 4494 
z
" transform="scale(0.015625)"/>
      <path id="DejaVuSans-61" d="M 2194 1759 
Q 1497 1759 1228 1600 
Q 959 1441 959 1056 
Q 959 750 1161 570 
Q 1363 391 1709 391 
Q 2188 391 2477 730 
Q 2766 1069 2766 1631 
L 2766 1759 
L 2194 1759 
z
M 3341 1997 
L 3341 0 
L 2766 0 
L 2766 531 
Q 2569 213 2275 61 
Q 1981 -91 1556 -91 
Q 1019 -91 701 211 
Q 384 513 384 1019 
Q 384 1609 779 1909 
Q 1175 2209 1959 2209 
L 2766 2209 
L 2766 2266 
Q 2766 2663 2505 2880 
Q 2244 3097 1772 3097 
Q 1472 3097 1187 3025 
Q 903 2953 641 2809 
L 641 3341 
Q 956 3463 1253 3523 
Q 1550 3584 1831 3584 
Q 2591 3584 2966 3190 
Q 3341 2797 3341 1997 
z
" transform="scale(0.015625)"/>
     </defs>
     <use xlink:href="#DejaVuSans-44"/>
     <use xlink:href="#DejaVuSans-69" x="77.001953"/>
     <use xlink:href="#DejaVuSans-63" x="104.785156"/>
     <use xlink:href="#DejaVuSans-65" x="159.765625"/>
     <use xlink:href="#DejaVuSans-20" x="221.289062"/>
     <use xlink:href="#DejaVuSans-73" x="253.076172"/>
     <use xlink:href="#DejaVuSans-63" x="305.175781"/>
     <use xlink:href="#DejaVuSans-6f" x="360.15625"/>
     <use xlink:href="#DejaVuSans-72" x="421.337891"/>
     <use xlink:href="#DejaVuSans-65" x="460.201172"/>
     <use xlink:href="#DejaVuSans-20" x="521.724609"/>
     <use xlink:href="#DejaVuSans-64" x="553.511719"/>
     <use xlink:href="#DejaVuSans-75" x="616.988281"/>
     <use xlink:href="#DejaVuSans-72" x="680.367188"/>
     <use xlink:href="#DejaVuSans-69" x="721.480469"/>
     <use xlink:href="#DejaVuSans-6e" x="749.263672"/>
     <use xlink:href="#DejaVuSans-67" x="812.642578"/>
     <use xlink:href="#DejaVuSans-20" x="876.119141"/>
     <use xlink:href="#DejaVuSans-74" x="907.90625"/>
     <use xlink:href="#DejaVuSans-72" x="947.115234"/>
     <use xlink:href="#DejaVuSans-61" x="988.228516"/>
     <use xlink:href="#DejaVuSans-69" x="1049.507812"/>
     <use xlink:href="#DejaVuSans-6e" x="1077.291016"/>
     <use xlink:href="#DejaVuSans-69" x="1140.669922"/>
     <use xlink:href="#DejaVuSans-6e" x="1168.453125"/>
     <use xlink:href="#DejaVuSans-67" x="1231.832031"/>
    </g>
   </g>
   <g id="legend_1">
    <g id="patch_7">
     <path d="M 64.6 78.82825 
L 175.939063 78.82825 
Q 177.939063 78.82825 177.939063 76.82825 
L 177.939063 48.472 
Q 177.939063 46.472 175.939063 46.472 
L 64.6 46.472 
Q 62.6 46.472 62.6 48.472 
L 62.6 76.82825 
Q 62.6 78.82825 64.6 78.82825 
z
" style="fill: #ffffff; opacity: 0.8; stroke: #cccccc; stroke-linejoin: miter"/>
    </g>
    <g id="line2d_14">
     <path d="M 66.6 54.570437 
L 76.6 54.570437 
L 86.6 54.570437 
" style="fill: none; stroke: #1f77b4; stroke-width: 1.5; stroke-linecap: square"/>
    </g>
    <g id="text_13">
     <!-- Train Dice score -->
     <g transform="translate(94.6 58.070437) scale(0.1 -0.1)">
      <defs>
       <path id="DejaVuSans-54" d="M -19 4666 
L 3928 4666 
L 3928 4134 
L 2272 4134 
L 2272 0 
L 1638 0 
L 1638 4134 
L -19 4134 
L -19 4666 
z
" transform="scale(0.015625)"/>
      </defs>
      <use xlink:href="#DejaVuSans-54"/>
      <use xlink:href="#DejaVuSans-72" x="46.333984"/>
      <use xlink:href="#DejaVuSans-61" x="87.447266"/>
      <use xlink:href="#DejaVuSans-69" x="148.726562"/>
      <use xlink:href="#DejaVuSans-6e" x="176.509766"/>
      <use xlink:href="#DejaVuSans-20" x="239.888672"/>
      <use xlink:href="#DejaVuSans-44" x="271.675781"/>
      <use xlink:href="#DejaVuSans-69" x="348.677734"/>
      <use xlink:href="#DejaVuSans-63" x="376.460938"/>
      <use xlink:href="#DejaVuSans-65" x="431.441406"/>
      <use xlink:href="#DejaVuSans-20" x="492.964844"/>
      <use xlink:href="#DejaVuSans-73" x="524.751953"/>
      <use xlink:href="#DejaVuSans-63" x="576.851562"/>
      <use xlink:href="#DejaVuSans-6f" x="631.832031"/>
      <use xlink:href="#DejaVuSans-72" x="693.013672"/>
      <use xlink:href="#DejaVuSans-65" x="731.876953"/>
     </g>
    </g>
    <g id="line2d_15">
     <path d="M 66.6 69.248562 
L 76.6 69.248562 
L 86.6 69.248562 
" style="fill: none; stroke: #ff7f0e; stroke-width: 1.5; stroke-linecap: square"/>
    </g>
    <g id="text_14">
     <!-- Test Dice score -->
     <g transform="translate(94.6 72.748562) scale(0.1 -0.1)">
      <use xlink:href="#DejaVuSans-54"/>
      <use xlink:href="#DejaVuSans-65" x="44.083984"/>
      <use xlink:href="#DejaVuSans-73" x="105.607422"/>
      <use xlink:href="#DejaVuSans-74" x="157.707031"/>
      <use xlink:href="#DejaVuSans-20" x="196.916016"/>
      <use xlink:href="#DejaVuSans-44" x="228.703125"/>
      <use xlink:href="#DejaVuSans-69" x="305.705078"/>
      <use xlink:href="#DejaVuSans-63" x="333.488281"/>
      <use xlink:href="#DejaVuSans-65" x="388.46875"/>
      <use xlink:href="#DejaVuSans-20" x="449.992188"/>
      <use xlink:href="#DejaVuSans-73" x="481.779297"/>
      <use xlink:href="#DejaVuSans-63" x="533.878906"/>
      <use xlink:href="#DejaVuSans-6f" x="588.859375"/>
      <use xlink:href="#DejaVuSans-72" x="650.041016"/>
      <use xlink:href="#DejaVuSans-65" x="688.904297"/>
     </g>
    </g>
   </g>
  </g>
 </g>
 <defs>
  <clipPath id="p128e24a849">
   <rect x="57.6" y="41.472" width="357.12" height="266.112"/>
  </clipPath>
 </defs>
</svg>
