<?xml version="1.0" encoding="utf-8" standalone="no"?>
<!DOCTYPE svg PUBLIC "-//W3C//DTD SVG 1.1//EN"
  "http://www.w3.org/Graphics/SVG/1.1/DTD/svg11.dtd">
<svg xmlns:xlink="http://www.w3.org/1999/xlink" width="460.8pt" height="345.6pt" viewBox="0 0 460.8 345.6" xmlns="http://www.w3.org/2000/svg" version="1.1">
 <metadata>
  <rdf:RDF xmlns:dc="http://purl.org/dc/elements/1.1/" xmlns:cc="http://creativecommons.org/ns#" xmlns:rdf="http://www.w3.org/1999/02/22-rdf-syntax-ns#">
   <cc:Work>
    <dc:type rdf:resource="http://purl.org/dc/dcmitype/StillImage"/>
    <dc:date>2023-03-23T15:22:13.727599</dc:date>
    <dc:format>image/svg+xml</dc:format>
    <dc:creator>
     <cc:Agent>
      <dc:title>Matplotlib v3.6.2, https://matplotlib.org/</dc:title>
     </cc:Agent>
    </dc:creator>
   </cc:Work>
  </rdf:RDF>
 </metadata>
 <defs>
  <style type="text/css">*{stroke-linejoin: round; stroke-linecap: butt}</style>
 </defs>
 <g id="figure_1">
  <g id="patch_1">
   <path d="M 0 345.6 
L 460.8 345.6 
L 460.8 0 
L 0 0 
z
" style="fill: #ffffff"/>
  </g>
  <g id="axes_1">
   <g id="patch_2">
    <path d="M 57.6 307.584 
L 414.72 307.584 
L 414.72 41.472 
L 57.6 41.472 
z
" style="fill: #ffffff"/>
   </g>
   <g id="matplotlib.axis_1">
    <g id="xtick_1">
     <g id="line2d_1">
      <defs>
       <path id="m340cde2eaf" d="M 0 0 
L 0 3.5 
" style="stroke: #000000; stroke-width: 0.8"/>
      </defs>
      <g>
       <use xlink:href="#m340cde2eaf" x="73.832727" y="307.584" style="stroke: #000000; stroke-width: 0.8"/>
      </g>
     </g>
     <g id="text_1">
      <!-- 0 -->
      <g transform="translate(70.651477 322.182437) scale(0.1 -0.1)">
       <defs>
        <path id="DejaVuSans-30" d="M 2034 4250 
Q 1547 4250 1301 3770 
Q 1056 3291 1056 2328 
Q 1056 1369 1301 889 
Q 1547 409 2034 409 
Q 2525 409 2770 889 
Q 3016 1369 3016 2328 
Q 3016 3291 2770 3770 
Q 2525 4250 2034 4250 
z
M 2034 4750 
Q 2819 4750 3233 4129 
Q 3647 3509 3647 2328 
Q 3647 1150 3233 529 
Q 2819 -91 2034 -91 
Q 1250 -91 836 529 
Q 422 1150 422 2328 
Q 422 3509 836 4129 
Q 1250 4750 2034 4750 
z
" transform="scale(0.015625)"/>
       </defs>
       <use xlink:href="#DejaVuSans-30"/>
      </g>
     </g>
    </g>
    <g id="xtick_2">
     <g id="line2d_2">
      <g>
       <use xlink:href="#m340cde2eaf" x="138.893758" y="307.584" style="stroke: #000000; stroke-width: 0.8"/>
      </g>
     </g>
     <g id="text_2">
      <!-- 100 -->
      <g transform="translate(129.350008 322.182437) scale(0.1 -0.1)">
       <defs>
        <path id="DejaVuSans-31" d="M 794 531 
L 1825 531 
L 1825 4091 
L 703 3866 
L 703 4441 
L 1819 4666 
L 2450 4666 
L 2450 531 
L 3481 531 
L 3481 0 
L 794 0 
L 794 531 
z
" transform="scale(0.015625)"/>
       </defs>
       <use xlink:href="#DejaVuSans-31"/>
       <use xlink:href="#DejaVuSans-30" x="63.623047"/>
       <use xlink:href="#DejaVuSans-30" x="127.246094"/>
      </g>
     </g>
    </g>
    <g id="xtick_3">
     <g id="line2d_3">
      <g>
       <use xlink:href="#m340cde2eaf" x="203.95479" y="307.584" style="stroke: #000000; stroke-width: 0.8"/>
      </g>
     </g>
     <g id="text_3">
      <!-- 200 -->
      <g transform="translate(194.41104 322.182437) scale(0.1 -0.1)">
       <defs>
        <path id="DejaVuSans-32" d="M 1228 531 
L 3431 531 
L 3431 0 
L 469 0 
L 469 531 
Q 828 903 1448 1529 
Q 2069 2156 2228 2338 
Q 2531 2678 2651 2914 
Q 2772 3150 2772 3378 
Q 2772 3750 2511 3984 
Q 2250 4219 1831 4219 
Q 1534 4219 1204 4116 
Q 875 4013 500 3803 
L 500 4441 
Q 881 4594 1212 4672 
Q 1544 4750 1819 4750 
Q 2544 4750 2975 4387 
Q 3406 4025 3406 3419 
Q 3406 3131 3298 2873 
Q 3191 2616 2906 2266 
Q 2828 2175 2409 1742 
Q 1991 1309 1228 531 
z
" transform="scale(0.015625)"/>
       </defs>
       <use xlink:href="#DejaVuSans-32"/>
       <use xlink:href="#DejaVuSans-30" x="63.623047"/>
       <use xlink:href="#DejaVuSans-30" x="127.246094"/>
      </g>
     </g>
    </g>
    <g id="xtick_4">
     <g id="line2d_4">
      <g>
       <use xlink:href="#m340cde2eaf" x="269.015821" y="307.584" style="stroke: #000000; stroke-width: 0.8"/>
      </g>
     </g>
     <g id="text_4">
      <!-- 300 -->
      <g transform="translate(259.472071 322.182437) scale(0.1 -0.1)">
       <defs>
        <path id="DejaVuSans-33" d="M 2597 2516 
Q 3050 2419 3304 2112 
Q 3559 1806 3559 1356 
Q 3559 666 3084 287 
Q 2609 -91 1734 -91 
Q 1441 -91 1130 -33 
Q 819 25 488 141 
L 488 750 
Q 750 597 1062 519 
Q 1375 441 1716 441 
Q 2309 441 2620 675 
Q 2931 909 2931 1356 
Q 2931 1769 2642 2001 
Q 2353 2234 1838 2234 
L 1294 2234 
L 1294 2753 
L 1863 2753 
Q 2328 2753 2575 2939 
Q 2822 3125 2822 3475 
Q 2822 3834 2567 4026 
Q 2313 4219 1838 4219 
Q 1578 4219 1281 4162 
Q 984 4106 628 3988 
L 628 4550 
Q 988 4650 1302 4700 
Q 1616 4750 1894 4750 
Q 2613 4750 3031 4423 
Q 3450 4097 3450 3541 
Q 3450 3153 3228 2886 
Q 3006 2619 2597 2516 
z
" transform="scale(0.015625)"/>
       </defs>
       <use xlink:href="#DejaVuSans-33"/>
       <use xlink:href="#DejaVuSans-30" x="63.623047"/>
       <use xlink:href="#DejaVuSans-30" x="127.246094"/>
      </g>
     </g>
    </g>
    <g id="xtick_5">
     <g id="line2d_5">
      <g>
       <use xlink:href="#m340cde2eaf" x="334.076852" y="307.584" style="stroke: #000000; stroke-width: 0.8"/>
      </g>
     </g>
     <g id="text_5">
      <!-- 400 -->
      <g transform="translate(324.533102 322.182437) scale(0.1 -0.1)">
       <defs>
        <path id="DejaVuSans-34" d="M 2419 4116 
L 825 1625 
L 2419 1625 
L 2419 4116 
z
M 2253 4666 
L 3047 4666 
L 3047 1625 
L 3713 1625 
L 3713 1100 
L 3047 1100 
L 3047 0 
L 2419 0 
L 2419 1100 
L 313 1100 
L 313 1709 
L 2253 4666 
z
" transform="scale(0.015625)"/>
       </defs>
       <use xlink:href="#DejaVuSans-34"/>
       <use xlink:href="#DejaVuSans-30" x="63.623047"/>
       <use xlink:href="#DejaVuSans-30" x="127.246094"/>
      </g>
     </g>
    </g>
    <g id="xtick_6">
     <g id="line2d_6">
      <g>
       <use xlink:href="#m340cde2eaf" x="399.137883" y="307.584" style="stroke: #000000; stroke-width: 0.8"/>
      </g>
     </g>
     <g id="text_6">
      <!-- 500 -->
      <g transform="translate(389.594133 322.182437) scale(0.1 -0.1)">
       <defs>
        <path id="DejaVuSans-35" d="M 691 4666 
L 3169 4666 
L 3169 4134 
L 1269 4134 
L 1269 2991 
Q 1406 3038 1543 3061 
Q 1681 3084 1819 3084 
Q 2600 3084 3056 2656 
Q 3513 2228 3513 1497 
Q 3513 744 3044 326 
Q 2575 -91 1722 -91 
Q 1428 -91 1123 -41 
Q 819 9 494 109 
L 494 744 
Q 775 591 1075 516 
Q 1375 441 1709 441 
Q 2250 441 2565 725 
Q 2881 1009 2881 1497 
Q 2881 1984 2565 2268 
Q 2250 2553 1709 2553 
Q 1456 2553 1204 2497 
Q 953 2441 691 2322 
L 691 4666 
z
" transform="scale(0.015625)"/>
       </defs>
       <use xlink:href="#DejaVuSans-35"/>
       <use xlink:href="#DejaVuSans-30" x="63.623047"/>
       <use xlink:href="#DejaVuSans-30" x="127.246094"/>
      </g>
     </g>
    </g>
   </g>
   <g id="matplotlib.axis_2">
    <g id="ytick_1">
     <g id="line2d_7">
      <defs>
       <path id="mea20b03c40" d="M 0 0 
L -3.5 0 
" style="stroke: #000000; stroke-width: 0.8"/>
      </defs>
      <g>
       <use xlink:href="#mea20b03c40" x="57.6" y="298.690736" style="stroke: #000000; stroke-width: 0.8"/>
      </g>
     </g>
     <g id="text_7">
      <!-- $\mathdefault{10^{-4}}$ -->
      <g transform="translate(27.1 302.489954) scale(0.1 -0.1)">
       <defs>
        <path id="DejaVuSans-2212" d="M 678 2272 
L 4684 2272 
L 4684 1741 
L 678 1741 
L 678 2272 
z
" transform="scale(0.015625)"/>
       </defs>
       <use xlink:href="#DejaVuSans-31" transform="translate(0 0.684375)"/>
       <use xlink:href="#DejaVuSans-30" transform="translate(63.623047 0.684375)"/>
       <use xlink:href="#DejaVuSans-2212" transform="translate(128.203125 38.965625) scale(0.7)"/>
       <use xlink:href="#DejaVuSans-34" transform="translate(186.855469 38.965625) scale(0.7)"/>
      </g>
     </g>
    </g>
    <g id="ytick_2">
     <g id="line2d_8">
      <g>
       <use xlink:href="#mea20b03c40" x="57.6" y="257.738176" style="stroke: #000000; stroke-width: 0.8"/>
      </g>
     </g>
     <g id="text_8">
      <!-- $\mathdefault{10^{-3}}$ -->
      <g transform="translate(27.1 261.537395) scale(0.1 -0.1)">
       <use xlink:href="#DejaVuSans-31" transform="translate(0 0.765625)"/>
       <use xlink:href="#DejaVuSans-30" transform="translate(63.623047 0.765625)"/>
       <use xlink:href="#DejaVuSans-2212" transform="translate(128.203125 39.046875) scale(0.7)"/>
       <use xlink:href="#DejaVuSans-33" transform="translate(186.855469 39.046875) scale(0.7)"/>
      </g>
     </g>
    </g>
    <g id="ytick_3">
     <g id="line2d_9">
      <g>
       <use xlink:href="#mea20b03c40" x="57.6" y="216.785617" style="stroke: #000000; stroke-width: 0.8"/>
      </g>
     </g>
     <g id="text_9">
      <!-- $\mathdefault{10^{-2}}$ -->
      <g transform="translate(27.1 220.584836) scale(0.1 -0.1)">
       <use xlink:href="#DejaVuSans-31" transform="translate(0 0.765625)"/>
       <use xlink:href="#DejaVuSans-30" transform="translate(63.623047 0.765625)"/>
       <use xlink:href="#DejaVuSans-2212" transform="translate(128.203125 39.046875) scale(0.7)"/>
       <use xlink:href="#DejaVuSans-32" transform="translate(186.855469 39.046875) scale(0.7)"/>
      </g>
     </g>
    </g>
    <g id="ytick_4">
     <g id="line2d_10">
      <g>
       <use xlink:href="#mea20b03c40" x="57.6" y="175.833057" style="stroke: #000000; stroke-width: 0.8"/>
      </g>
     </g>
     <g id="text_10">
      <!-- $\mathdefault{10^{-1}}$ -->
      <g transform="translate(27.1 179.632276) scale(0.1 -0.1)">
       <use xlink:href="#DejaVuSans-31" transform="translate(0 0.684375)"/>
       <use xlink:href="#DejaVuSans-30" transform="translate(63.623047 0.684375)"/>
       <use xlink:href="#DejaVuSans-2212" transform="translate(128.203125 38.965625) scale(0.7)"/>
       <use xlink:href="#DejaVuSans-31" transform="translate(186.855469 38.965625) scale(0.7)"/>
      </g>
     </g>
    </g>
    <g id="ytick_5">
     <g id="line2d_11">
      <g>
       <use xlink:href="#mea20b03c40" x="57.6" y="134.880498" style="stroke: #000000; stroke-width: 0.8"/>
      </g>
     </g>
     <g id="text_11">
      <!-- $\mathdefault{10^{0}}$ -->
      <g transform="translate(33 138.679717) scale(0.1 -0.1)">
       <use xlink:href="#DejaVuSans-31" transform="translate(0 0.765625)"/>
       <use xlink:href="#DejaVuSans-30" transform="translate(63.623047 0.765625)"/>
       <use xlink:href="#DejaVuSans-30" transform="translate(128.203125 39.046875) scale(0.7)"/>
      </g>
     </g>
    </g>
    <g id="ytick_6">
     <g id="line2d_12">
      <g>
       <use xlink:href="#mea20b03c40" x="57.6" y="93.927939" style="stroke: #000000; stroke-width: 0.8"/>
      </g>
     </g>
     <g id="text_12">
      <!-- $\mathdefault{10^{1}}$ -->
      <g transform="translate(33 97.727157) scale(0.1 -0.1)">
       <use xlink:href="#DejaVuSans-31" transform="translate(0 0.684375)"/>
       <use xlink:href="#DejaVuSans-30" transform="translate(63.623047 0.684375)"/>
       <use xlink:href="#DejaVuSans-31" transform="translate(128.203125 38.965625) scale(0.7)"/>
      </g>
     </g>
    </g>
    <g id="ytick_7">
     <g id="line2d_13">
      <g>
       <use xlink:href="#mea20b03c40" x="57.6" y="52.975379" style="stroke: #000000; stroke-width: 0.8"/>
      </g>
     </g>
     <g id="text_13">
      <!-- $\mathdefault{10^{2}}$ -->
      <g transform="translate(33 56.774598) scale(0.1 -0.1)">
       <use xlink:href="#DejaVuSans-31" transform="translate(0 0.765625)"/>
       <use xlink:href="#DejaVuSans-30" transform="translate(63.623047 0.765625)"/>
       <use xlink:href="#DejaVuSans-32" transform="translate(128.203125 39.046875) scale(0.7)"/>
      </g>
     </g>
    </g>
    <g id="ytick_8">
     <g id="line2d_14">
      <defs>
       <path id="maa5344e11c" d="M 0 0 
L -2 0 
" style="stroke: #000000; stroke-width: 0.6"/>
      </defs>
      <g>
       <use xlink:href="#maa5344e11c" x="57.6" y="305.034367" style="stroke: #000000; stroke-width: 0.6"/>
      </g>
     </g>
    </g>
    <g id="ytick_9">
     <g id="line2d_15">
      <g>
       <use xlink:href="#maa5344e11c" x="57.6" y="302.659449" style="stroke: #000000; stroke-width: 0.6"/>
      </g>
     </g>
    </g>
    <g id="ytick_10">
     <g id="line2d_16">
      <g>
       <use xlink:href="#maa5344e11c" x="57.6" y="300.564622" style="stroke: #000000; stroke-width: 0.6"/>
      </g>
     </g>
    </g>
    <g id="ytick_11">
     <g id="line2d_17">
      <g>
       <use xlink:href="#maa5344e11c" x="57.6" y="286.362787" style="stroke: #000000; stroke-width: 0.6"/>
      </g>
     </g>
    </g>
    <g id="ytick_12">
     <g id="line2d_18">
      <g>
       <use xlink:href="#maa5344e11c" x="57.6" y="279.151399" style="stroke: #000000; stroke-width: 0.6"/>
      </g>
     </g>
    </g>
    <g id="ytick_13">
     <g id="line2d_19">
      <g>
       <use xlink:href="#maa5344e11c" x="57.6" y="274.034838" style="stroke: #000000; stroke-width: 0.6"/>
      </g>
     </g>
    </g>
    <g id="ytick_14">
     <g id="line2d_20">
      <g>
       <use xlink:href="#maa5344e11c" x="57.6" y="270.066125" style="stroke: #000000; stroke-width: 0.6"/>
      </g>
     </g>
    </g>
    <g id="ytick_15">
     <g id="line2d_21">
      <g>
       <use xlink:href="#maa5344e11c" x="57.6" y="266.82345" style="stroke: #000000; stroke-width: 0.6"/>
      </g>
     </g>
    </g>
    <g id="ytick_16">
     <g id="line2d_22">
      <g>
       <use xlink:href="#maa5344e11c" x="57.6" y="264.081808" style="stroke: #000000; stroke-width: 0.6"/>
      </g>
     </g>
    </g>
    <g id="ytick_17">
     <g id="line2d_23">
      <g>
       <use xlink:href="#maa5344e11c" x="57.6" y="261.706889" style="stroke: #000000; stroke-width: 0.6"/>
      </g>
     </g>
    </g>
    <g id="ytick_18">
     <g id="line2d_24">
      <g>
       <use xlink:href="#maa5344e11c" x="57.6" y="259.612063" style="stroke: #000000; stroke-width: 0.6"/>
      </g>
     </g>
    </g>
    <g id="ytick_19">
     <g id="line2d_25">
      <g>
       <use xlink:href="#maa5344e11c" x="57.6" y="245.410227" style="stroke: #000000; stroke-width: 0.6"/>
      </g>
     </g>
    </g>
    <g id="ytick_20">
     <g id="line2d_26">
      <g>
       <use xlink:href="#maa5344e11c" x="57.6" y="238.19884" style="stroke: #000000; stroke-width: 0.6"/>
      </g>
     </g>
    </g>
    <g id="ytick_21">
     <g id="line2d_27">
      <g>
       <use xlink:href="#maa5344e11c" x="57.6" y="233.082279" style="stroke: #000000; stroke-width: 0.6"/>
      </g>
     </g>
    </g>
    <g id="ytick_22">
     <g id="line2d_28">
      <g>
       <use xlink:href="#maa5344e11c" x="57.6" y="229.113566" style="stroke: #000000; stroke-width: 0.6"/>
      </g>
     </g>
    </g>
    <g id="ytick_23">
     <g id="line2d_29">
      <g>
       <use xlink:href="#maa5344e11c" x="57.6" y="225.870891" style="stroke: #000000; stroke-width: 0.6"/>
      </g>
     </g>
    </g>
    <g id="ytick_24">
     <g id="line2d_30">
      <g>
       <use xlink:href="#maa5344e11c" x="57.6" y="223.129249" style="stroke: #000000; stroke-width: 0.6"/>
      </g>
     </g>
    </g>
    <g id="ytick_25">
     <g id="line2d_31">
      <g>
       <use xlink:href="#maa5344e11c" x="57.6" y="220.75433" style="stroke: #000000; stroke-width: 0.6"/>
      </g>
     </g>
    </g>
    <g id="ytick_26">
     <g id="line2d_32">
      <g>
       <use xlink:href="#maa5344e11c" x="57.6" y="218.659503" style="stroke: #000000; stroke-width: 0.6"/>
      </g>
     </g>
    </g>
    <g id="ytick_27">
     <g id="line2d_33">
      <g>
       <use xlink:href="#maa5344e11c" x="57.6" y="204.457668" style="stroke: #000000; stroke-width: 0.6"/>
      </g>
     </g>
    </g>
    <g id="ytick_28">
     <g id="line2d_34">
      <g>
       <use xlink:href="#maa5344e11c" x="57.6" y="197.24628" style="stroke: #000000; stroke-width: 0.6"/>
      </g>
     </g>
    </g>
    <g id="ytick_29">
     <g id="line2d_35">
      <g>
       <use xlink:href="#maa5344e11c" x="57.6" y="192.129719" style="stroke: #000000; stroke-width: 0.6"/>
      </g>
     </g>
    </g>
    <g id="ytick_30">
     <g id="line2d_36">
      <g>
       <use xlink:href="#maa5344e11c" x="57.6" y="188.161006" style="stroke: #000000; stroke-width: 0.6"/>
      </g>
     </g>
    </g>
    <g id="ytick_31">
     <g id="line2d_37">
      <g>
       <use xlink:href="#maa5344e11c" x="57.6" y="184.918331" style="stroke: #000000; stroke-width: 0.6"/>
      </g>
     </g>
    </g>
    <g id="ytick_32">
     <g id="line2d_38">
      <g>
       <use xlink:href="#maa5344e11c" x="57.6" y="182.176689" style="stroke: #000000; stroke-width: 0.6"/>
      </g>
     </g>
    </g>
    <g id="ytick_33">
     <g id="line2d_39">
      <g>
       <use xlink:href="#maa5344e11c" x="57.6" y="179.80177" style="stroke: #000000; stroke-width: 0.6"/>
      </g>
     </g>
    </g>
    <g id="ytick_34">
     <g id="line2d_40">
      <g>
       <use xlink:href="#maa5344e11c" x="57.6" y="177.706944" style="stroke: #000000; stroke-width: 0.6"/>
      </g>
     </g>
    </g>
    <g id="ytick_35">
     <g id="line2d_41">
      <g>
       <use xlink:href="#maa5344e11c" x="57.6" y="163.505109" style="stroke: #000000; stroke-width: 0.6"/>
      </g>
     </g>
    </g>
    <g id="ytick_36">
     <g id="line2d_42">
      <g>
       <use xlink:href="#maa5344e11c" x="57.6" y="156.293721" style="stroke: #000000; stroke-width: 0.6"/>
      </g>
     </g>
    </g>
    <g id="ytick_37">
     <g id="line2d_43">
      <g>
       <use xlink:href="#maa5344e11c" x="57.6" y="151.17716" style="stroke: #000000; stroke-width: 0.6"/>
      </g>
     </g>
    </g>
    <g id="ytick_38">
     <g id="line2d_44">
      <g>
       <use xlink:href="#maa5344e11c" x="57.6" y="147.208447" style="stroke: #000000; stroke-width: 0.6"/>
      </g>
     </g>
    </g>
    <g id="ytick_39">
     <g id="line2d_45">
      <g>
       <use xlink:href="#maa5344e11c" x="57.6" y="143.965772" style="stroke: #000000; stroke-width: 0.6"/>
      </g>
     </g>
    </g>
    <g id="ytick_40">
     <g id="line2d_46">
      <g>
       <use xlink:href="#maa5344e11c" x="57.6" y="141.22413" style="stroke: #000000; stroke-width: 0.6"/>
      </g>
     </g>
    </g>
    <g id="ytick_41">
     <g id="line2d_47">
      <g>
       <use xlink:href="#maa5344e11c" x="57.6" y="138.849211" style="stroke: #000000; stroke-width: 0.6"/>
      </g>
     </g>
    </g>
    <g id="ytick_42">
     <g id="line2d_48">
      <g>
       <use xlink:href="#maa5344e11c" x="57.6" y="136.754384" style="stroke: #000000; stroke-width: 0.6"/>
      </g>
     </g>
    </g>
    <g id="ytick_43">
     <g id="line2d_49">
      <g>
       <use xlink:href="#maa5344e11c" x="57.6" y="122.552549" style="stroke: #000000; stroke-width: 0.6"/>
      </g>
     </g>
    </g>
    <g id="ytick_44">
     <g id="line2d_50">
      <g>
       <use xlink:href="#maa5344e11c" x="57.6" y="115.341161" style="stroke: #000000; stroke-width: 0.6"/>
      </g>
     </g>
    </g>
    <g id="ytick_45">
     <g id="line2d_51">
      <g>
       <use xlink:href="#maa5344e11c" x="57.6" y="110.2246" style="stroke: #000000; stroke-width: 0.6"/>
      </g>
     </g>
    </g>
    <g id="ytick_46">
     <g id="line2d_52">
      <g>
       <use xlink:href="#maa5344e11c" x="57.6" y="106.255887" style="stroke: #000000; stroke-width: 0.6"/>
      </g>
     </g>
    </g>
    <g id="ytick_47">
     <g id="line2d_53">
      <g>
       <use xlink:href="#maa5344e11c" x="57.6" y="103.013213" style="stroke: #000000; stroke-width: 0.6"/>
      </g>
     </g>
    </g>
    <g id="ytick_48">
     <g id="line2d_54">
      <g>
       <use xlink:href="#maa5344e11c" x="57.6" y="100.27157" style="stroke: #000000; stroke-width: 0.6"/>
      </g>
     </g>
    </g>
    <g id="ytick_49">
     <g id="line2d_55">
      <g>
       <use xlink:href="#maa5344e11c" x="57.6" y="97.896652" style="stroke: #000000; stroke-width: 0.6"/>
      </g>
     </g>
    </g>
    <g id="ytick_50">
     <g id="line2d_56">
      <g>
       <use xlink:href="#maa5344e11c" x="57.6" y="95.801825" style="stroke: #000000; stroke-width: 0.6"/>
      </g>
     </g>
    </g>
    <g id="ytick_51">
     <g id="line2d_57">
      <g>
       <use xlink:href="#maa5344e11c" x="57.6" y="81.59999" style="stroke: #000000; stroke-width: 0.6"/>
      </g>
     </g>
    </g>
    <g id="ytick_52">
     <g id="line2d_58">
      <g>
       <use xlink:href="#maa5344e11c" x="57.6" y="74.388602" style="stroke: #000000; stroke-width: 0.6"/>
      </g>
     </g>
    </g>
    <g id="ytick_53">
     <g id="line2d_59">
      <g>
       <use xlink:href="#maa5344e11c" x="57.6" y="69.272041" style="stroke: #000000; stroke-width: 0.6"/>
      </g>
     </g>
    </g>
    <g id="ytick_54">
     <g id="line2d_60">
      <g>
       <use xlink:href="#maa5344e11c" x="57.6" y="65.303328" style="stroke: #000000; stroke-width: 0.6"/>
      </g>
     </g>
    </g>
    <g id="ytick_55">
     <g id="line2d_61">
      <g>
       <use xlink:href="#maa5344e11c" x="57.6" y="62.060653" style="stroke: #000000; stroke-width: 0.6"/>
      </g>
     </g>
    </g>
    <g id="ytick_56">
     <g id="line2d_62">
      <g>
       <use xlink:href="#maa5344e11c" x="57.6" y="59.319011" style="stroke: #000000; stroke-width: 0.6"/>
      </g>
     </g>
    </g>
    <g id="ytick_57">
     <g id="line2d_63">
      <g>
       <use xlink:href="#maa5344e11c" x="57.6" y="56.944092" style="stroke: #000000; stroke-width: 0.6"/>
      </g>
     </g>
    </g>
    <g id="ytick_58">
     <g id="line2d_64">
      <g>
       <use xlink:href="#maa5344e11c" x="57.6" y="54.849265" style="stroke: #000000; stroke-width: 0.6"/>
      </g>
     </g>
    </g>
   </g>
   <g id="line2d_65">
    <path d="M 73.832727 175.587932 
L 75.133948 202.921606 
L 75.784558 193.471449 
L 76.435169 189.78791 
L 77.085779 183.927059 
L 77.736389 170.011509 
L 78.386999 160.522418 
L 79.03761 155.316356 
L 80.33883 154.574573 
L 80.989441 152.711098 
L 81.640051 150.412625 
L 82.290661 150.237585 
L 82.941272 150.523278 
L 83.591882 150.382517 
L 84.242492 151.406265 
L 84.893103 147.962439 
L 85.543713 147.575637 
L 86.194323 150.608182 
L 86.844934 146.272488 
L 87.495544 146.407449 
L 88.146154 148.306743 
L 88.796764 146.431225 
L 89.447375 149.61661 
L 90.097985 146.842799 
L 90.748595 145.148577 
L 91.399206 195.063437 
L 92.049816 194.449989 
L 92.700426 177.297941 
L 93.351037 163.118199 
L 94.001647 165.857967 
L 94.652257 161.527967 
L 95.302868 153.918988 
L 95.953478 152.076422 
L 96.604088 151.193442 
L 97.254698 170.388037 
L 97.905309 177.081712 
L 98.555919 172.01103 
L 99.206529 164.408261 
L 99.85714 162.581677 
L 100.50775 157.834644 
L 101.15836 157.884458 
L 101.808971 156.724048 
L 102.459581 153.284035 
L 103.110191 152.53888 
L 104.411412 150.486615 
L 105.062022 151.328644 
L 105.712633 173.890851 
L 106.363243 160.369658 
L 107.013853 149.169465 
L 107.664463 148.543697 
L 108.315074 148.946597 
L 108.965684 156.502434 
L 109.616294 149.237996 
L 110.266905 146.45908 
L 110.917515 145.8203 
L 112.218736 146.125054 
L 112.869346 145.956421 
L 113.519956 143.458202 
L 114.170567 143.921037 
L 114.821177 143.825016 
L 115.471787 142.851458 
L 116.122398 143.5794 
L 116.773008 143.068917 
L 118.074228 144.176154 
L 118.724839 143.158394 
L 119.375449 142.666522 
L 120.026059 143.453938 
L 120.67667 143.930733 
L 121.32728 142.663221 
L 121.97789 142.612668 
L 122.628501 142.16972 
L 123.929721 141.834831 
L 124.580332 142.285301 
L 125.230942 143.449753 
L 125.881552 142.340024 
L 126.532163 142.157804 
L 127.182773 142.548436 
L 128.483993 142.488009 
L 129.134604 141.71744 
L 130.435824 141.90749 
L 131.086435 141.180663 
L 131.737045 142.036818 
L 132.387655 141.272966 
L 133.038266 141.386056 
L 133.688876 140.53762 
L 134.339486 141.400292 
L 134.990097 140.796962 
L 135.640707 140.925723 
L 136.941927 141.607898 
L 137.592538 141.149202 
L 138.243148 141.678844 
L 138.893758 140.615054 
L 139.544369 140.964273 
L 140.194979 140.635081 
L 140.845589 141.984432 
L 141.4962 141.301583 
L 142.14681 141.015881 
L 142.79742 140.534649 
L 143.448031 140.879459 
L 144.098641 140.274814 
L 144.749251 140.229975 
L 145.399862 141.172134 
L 146.050472 140.938838 
L 147.351692 140.129068 
L 148.002303 140.233514 
L 148.652913 140.883086 
L 149.303523 140.149661 
L 149.954134 140.988909 
L 150.604744 140.346363 
L 151.255354 140.227989 
L 151.905965 140.27239 
L 152.556575 139.953442 
L 153.207185 143.019818 
L 153.857796 140.853744 
L 154.508406 141.059399 
L 155.159016 139.919161 
L 155.809627 140.235275 
L 156.460237 140.274955 
L 157.110847 139.952548 
L 157.761457 139.997847 
L 158.412068 139.368885 
L 159.062678 139.328434 
L 159.713288 140.116792 
L 160.363899 139.556711 
L 161.014509 139.346574 
L 161.665119 139.291426 
L 162.31573 139.942129 
L 162.96634 139.422681 
L 163.61695 139.170024 
L 164.267561 139.301687 
L 164.918171 139.073562 
L 165.568781 139.377871 
L 166.219392 140.497599 
L 166.870002 140.205385 
L 167.520612 139.641729 
L 168.171222 139.427079 
L 168.821833 139.330262 
L 169.472443 140.689264 
L 170.123053 139.549484 
L 170.773664 139.045229 
L 171.424274 138.818459 
L 172.074884 138.723635 
L 172.725495 138.801455 
L 173.376105 139.212259 
L 174.026715 138.785666 
L 174.677326 138.793725 
L 175.327936 138.923314 
L 175.978546 138.62686 
L 177.279767 138.896238 
L 177.930377 138.726898 
L 178.580987 138.937058 
L 179.231598 138.647315 
L 180.532818 138.411445 
L 181.183429 138.849027 
L 181.834039 138.460986 
L 182.484649 138.736975 
L 183.13526 138.592323 
L 183.78587 138.323117 
L 184.43648 138.883853 
L 185.737701 138.200803 
L 186.388311 138.311408 
L 187.038921 137.958959 
L 187.689532 138.19732 
L 188.340142 140.133411 
L 188.990752 139.174209 
L 189.641363 139.049478 
L 190.291973 138.41374 
L 190.942583 138.142343 
L 191.593194 138.230718 
L 192.894414 138.127305 
L 193.545025 138.09044 
L 194.195635 137.903942 
L 194.846245 138.034882 
L 195.496856 137.897815 
L 196.798076 137.959031 
L 197.448686 138.734514 
L 198.099297 138.540563 
L 198.749907 137.961999 
L 199.400517 137.82535 
L 200.051128 137.85636 
L 200.701738 137.668815 
L 202.653569 137.609733 
L 203.304179 137.88186 
L 203.95479 137.698459 
L 204.6054 137.820113 
L 205.906621 137.451526 
L 206.557231 138.477403 
L 207.207841 137.76154 
L 207.858451 137.748206 
L 208.509062 137.470905 
L 209.159672 137.500216 
L 209.810282 137.764531 
L 210.460893 137.530795 
L 211.111503 137.815052 
L 211.762113 137.605642 
L 212.412724 137.535186 
L 213.063334 137.716429 
L 213.713944 137.504933 
L 214.364555 137.903408 
L 215.015165 137.551935 
L 216.316385 137.244572 
L 216.966996 137.260649 
L 217.617606 137.657621 
L 218.268216 137.379963 
L 218.918827 137.301684 
L 220.220047 137.35007 
L 220.870658 137.268216 
L 222.171878 137.353407 
L 222.822489 137.218409 
L 224.77432 137.246196 
L 225.42493 137.533979 
L 226.72615 137.331995 
L 227.376761 137.896051 
L 228.027371 137.535203 
L 229.328592 137.085027 
L 229.979202 136.994338 
L 230.629812 137.143777 
L 231.280423 137.030643 
L 231.931033 137.198353 
L 232.581643 137.017087 
L 233.232254 137.228409 
L 233.882864 137.263387 
L 234.533474 137.06211 
L 235.184085 136.988387 
L 235.834695 137.158784 
L 236.485305 137.528709 
L 237.786526 137.744505 
L 238.437136 138.206043 
L 239.738357 137.389306 
L 240.388967 137.522132 
L 242.991408 136.89064 
L 243.642019 137.000618 
L 244.943239 136.856272 
L 245.59385 136.931844 
L 246.24446 137.249103 
L 246.89507 136.918907 
L 248.196291 137.129867 
L 248.846901 138.875037 
L 249.497511 155.387094 
L 250.148122 175.873657 
L 250.798732 151.34633 
L 251.449342 147.226749 
L 252.099953 144.928054 
L 252.750563 141.886103 
L 253.401173 141.249471 
L 254.051784 144.441148 
L 254.702394 141.291659 
L 255.353004 140.561543 
L 256.003615 139.210248 
L 256.654225 139.117018 
L 257.304835 138.526378 
L 260.557887 137.760998 
L 261.208497 137.994508 
L 261.859107 137.597653 
L 262.509718 137.757243 
L 263.810938 137.457095 
L 264.461549 137.628791 
L 265.112159 137.344752 
L 265.762769 137.277732 
L 267.06399 137.440939 
L 267.7146 137.243546 
L 268.36521 137.395171 
L 269.015821 137.197565 
L 269.666431 137.607518 
L 270.317041 137.46042 
L 270.967652 137.770583 
L 271.618262 137.332588 
L 272.268872 137.180508 
L 273.570093 137.253717 
L 274.220703 137.028043 
L 274.871314 137.217548 
L 276.172534 137.042262 
L 278.124365 137.022722 
L 278.774975 137.580572 
L 279.425586 137.240094 
L 280.076196 137.119945 
L 281.377417 137.290449 
L 282.678637 136.979709 
L 283.979858 137.034437 
L 284.630468 136.999832 
L 285.931689 136.80906 
L 288.53413 136.817669 
L 289.835351 137.254649 
L 291.136571 136.783356 
L 293.088402 136.925657 
L 293.739013 136.934295 
L 294.389623 137.338768 
L 295.040233 136.977992 
L 295.690844 136.754518 
L 296.341454 136.919421 
L 296.992064 136.752744 
L 298.293285 136.880142 
L 298.943895 137.106069 
L 299.594505 136.886876 
L 300.245116 137.103696 
L 301.546336 136.777047 
L 302.847557 136.856355 
L 304.148778 136.745277 
L 304.799388 136.883402 
L 305.449998 136.85803 
L 306.100608 137.167829 
L 306.751219 137.170305 
L 307.401829 137.367234 
L 308.70305 136.91754 
L 309.35366 136.71542 
L 311.956101 136.804113 
L 312.606712 137.118822 
L 313.257322 136.879666 
L 313.907932 136.776698 
L 317.811594 136.965549 
L 318.462204 136.847002 
L 319.112815 136.869082 
L 319.763425 136.716924 
L 320.414035 136.690456 
L 321.064646 136.818007 
L 321.715256 136.690292 
L 322.365866 136.708257 
L 323.016477 136.607101 
L 323.667087 136.708455 
L 324.317697 136.62065 
L 326.269528 136.822996 
L 326.920138 136.683555 
L 327.570749 136.767053 
L 329.52258 136.690622 
L 330.8238 136.804741 
L 331.474411 136.642702 
L 333.426242 136.638272 
L 334.076852 136.703348 
L 334.727462 136.614029 
L 335.378073 136.677342 
L 336.028683 137.582728 
L 336.679293 138.752137 
L 337.329903 138.603152 
L 337.980514 139.732636 
L 339.281734 137.415415 
L 340.582955 136.950528 
L 344.486617 136.630209 
L 345.137227 136.674759 
L 345.787837 136.585048 
L 347.089058 136.797618 
L 347.739668 136.623 
L 350.99272 136.429419 
L 351.64333 136.672523 
L 352.293941 136.694662 
L 352.944551 136.915946 
L 353.595161 136.898162 
L 354.245772 136.656123 
L 358.149433 136.584106 
L 358.800044 136.629244 
L 359.450654 136.888421 
L 362.053095 136.545152 
L 364.655537 136.664653 
L 365.306147 136.899221 
L 365.956757 136.58175 
L 366.607367 136.640162 
L 367.257978 137.470065 
L 367.908588 136.95987 
L 368.559198 136.703896 
L 371.16164 136.502541 
L 371.81225 136.588267 
L 372.46286 136.838862 
L 373.113471 136.656888 
L 373.764081 137.144029 
L 375.065302 136.638652 
L 375.715912 136.718556 
L 377.017132 136.531864 
L 377.667743 136.51088 
L 378.318353 136.780212 
L 381.571405 136.482313 
L 382.222015 136.628507 
L 385.475066 136.481936 
L 386.125677 136.705228 
L 387.426897 136.488835 
L 388.728118 136.526291 
L 389.378728 136.536952 
L 390.029339 148.406162 
L 390.679949 179.95869 
L 391.330559 178.042941 
L 391.98117 191.58421 
L 392.63178 196.881035 
L 393.28239 181.920809 
L 393.933001 172.888058 
L 394.583611 168.47612 
L 395.234221 171.028685 
L 395.884831 179.511693 
L 396.535442 178.914605 
L 397.186052 186.693585 
L 397.836662 187.300229 
L 398.487273 185.277449 
L 398.487273 185.277449 
" clip-path="url(#pcb3aab2d7a)" style="fill: none; stroke: #1f77b4; stroke-width: 1.5; stroke-linecap: square"/>
   </g>
   <g id="line2d_66">
    <path d="M 73.832727 222.732685 
L 74.483338 214.928889 
L 75.133948 185.921646 
L 75.784558 215.021239 
L 76.435169 201.553727 
L 77.085779 180.085693 
L 79.03761 150.125836 
L 79.68822 152.965219 
L 80.33883 150.249014 
L 80.989441 157.547 
L 81.640051 149.057002 
L 82.290661 148.905335 
L 82.941272 144.195217 
L 83.591882 150.420632 
L 84.242492 145.972471 
L 84.893103 147.6579 
L 85.543713 153.716251 
L 86.194323 147.428976 
L 86.844934 148.587986 
L 87.495544 145.971234 
L 88.146154 145.52131 
L 88.796764 157.406011 
L 89.447375 145.868635 
L 90.097985 143.78983 
L 91.399206 210.120259 
L 92.049816 200.696129 
L 92.700426 178.585665 
L 93.351037 184.385899 
L 94.001647 160.781021 
L 94.652257 150.894413 
L 95.302868 150.775578 
L 95.953478 146.966297 
L 96.604088 145.169248 
L 97.254698 225.461632 
L 97.905309 166.642881 
L 98.555919 169.762384 
L 99.206529 163.922278 
L 99.85714 162.269343 
L 100.50775 150.953843 
L 101.15836 150.469045 
L 101.808971 150.747031 
L 102.459581 153.231954 
L 103.110191 152.795756 
L 103.760802 149.779787 
L 104.411412 150.291063 
L 105.062022 163.589686 
L 105.712633 168.95946 
L 106.363243 152.343398 
L 107.013853 147.771848 
L 107.664463 150.139291 
L 108.315074 160.128555 
L 109.616294 144.262077 
L 110.266905 143.199213 
L 110.917515 141.846321 
L 111.568125 142.901618 
L 112.218736 142.012273 
L 112.869346 142.951393 
L 113.519956 143.598751 
L 114.170567 142.242464 
L 114.821177 143.392101 
L 115.471787 143.656862 
L 116.773008 141.272792 
L 117.423618 140.666628 
L 118.074228 141.874107 
L 118.724839 143.336233 
L 119.375449 143.50321 
L 120.026059 141.814009 
L 120.67667 142.816995 
L 121.32728 142.497659 
L 121.97789 143.147341 
L 122.628501 141.685414 
L 123.279111 142.162039 
L 123.929721 141.006254 
L 125.230942 143.520661 
L 125.881552 140.583066 
L 126.532163 140.854703 
L 127.182773 140.747369 
L 127.833383 142.980147 
L 128.483993 140.976127 
L 129.134604 141.699055 
L 129.785214 141.859088 
L 130.435824 141.480241 
L 131.086435 142.508806 
L 131.737045 140.319736 
L 132.387655 140.312445 
L 133.038266 141.220457 
L 133.688876 141.347365 
L 134.339486 140.18185 
L 134.990097 141.786854 
L 135.640707 140.673063 
L 136.291317 144.461813 
L 136.941927 140.153073 
L 137.592538 140.489343 
L 138.243148 140.264839 
L 138.893758 142.026524 
L 139.544369 141.494425 
L 140.194979 140.473657 
L 140.845589 141.301179 
L 141.4962 139.995985 
L 142.79742 141.743812 
L 143.448031 139.841146 
L 144.098641 139.797903 
L 144.749251 140.361943 
L 145.399862 142.632873 
L 146.050472 140.11731 
L 146.701082 140.109719 
L 147.351692 142.007608 
L 148.002303 141.73225 
L 148.652913 140.305702 
L 149.303523 140.007378 
L 150.604744 139.972981 
L 151.255354 139.652749 
L 151.905965 140.906988 
L 152.556575 143.246998 
L 153.207185 142.786613 
L 153.857796 139.827666 
L 154.508406 139.675145 
L 155.159016 140.296578 
L 155.809627 139.799455 
L 156.460237 139.750969 
L 157.110847 140.452393 
L 157.761457 140.226175 
L 158.412068 139.534843 
L 159.062678 139.458374 
L 159.713288 139.999499 
L 160.363899 139.965504 
L 161.014509 140.556932 
L 161.665119 140.709322 
L 162.31573 139.590988 
L 162.96634 139.322979 
L 163.61695 139.424078 
L 164.267561 139.318138 
L 164.918171 139.066621 
L 165.568781 139.497226 
L 166.219392 140.314489 
L 166.870002 140.152026 
L 167.520612 139.447163 
L 168.171222 139.366225 
L 168.821833 141.648128 
L 169.472443 141.503655 
L 170.123053 139.88121 
L 170.773664 139.429986 
L 171.424274 140.226287 
L 172.074884 139.776307 
L 172.725495 140.993512 
L 173.376105 139.332498 
L 174.026715 139.045302 
L 174.677326 139.335685 
L 175.978546 139.024067 
L 176.629156 139.332487 
L 177.279767 139.371025 
L 177.930377 140.888803 
L 178.580987 138.986865 
L 179.231598 139.671093 
L 179.882208 139.058468 
L 180.532818 139.844502 
L 181.834039 139.217817 
L 182.484649 139.037546 
L 183.13526 140.035157 
L 183.78587 138.958031 
L 184.43648 139.153992 
L 185.087091 139.195167 
L 185.737701 139.040973 
L 186.388311 139.09311 
L 187.038921 138.897107 
L 187.689532 139.655325 
L 188.340142 140.198312 
L 188.990752 139.951436 
L 190.291973 138.913451 
L 190.942583 139.292409 
L 191.593194 138.967172 
L 192.243804 138.868318 
L 192.894414 139.635729 
L 193.545025 139.431085 
L 194.195635 140.02254 
L 194.846245 139.069266 
L 195.496856 139.050992 
L 196.147466 139.218067 
L 196.798076 139.000227 
L 197.448686 139.623657 
L 198.099297 138.992327 
L 198.749907 138.756436 
L 199.400517 139.151805 
L 200.051128 139.123344 
L 200.701738 138.868575 
L 201.352348 138.759913 
L 202.002959 139.243142 
L 202.653569 138.991284 
L 203.304179 139.493106 
L 203.95479 138.834623 
L 204.6054 138.758102 
L 205.25601 139.026164 
L 205.906621 141.46105 
L 206.557231 139.330092 
L 207.207841 138.799946 
L 208.509062 139.342308 
L 209.159672 140.293799 
L 209.810282 139.050938 
L 210.460893 138.874719 
L 211.111503 138.935639 
L 211.762113 139.750652 
L 212.412724 138.757321 
L 213.063334 139.378238 
L 213.713944 138.886016 
L 214.364555 139.34992 
L 215.015165 138.997918 
L 215.665775 139.116067 
L 216.966996 138.699534 
L 217.617606 139.145644 
L 218.268216 139.18504 
L 218.918827 138.897478 
L 220.220047 139.226946 
L 220.870658 138.592454 
L 221.521268 138.67552 
L 222.171878 138.924906 
L 222.822489 138.715035 
L 223.473099 138.695247 
L 224.123709 139.593435 
L 224.77432 138.951205 
L 225.42493 139.801846 
L 226.07554 139.011998 
L 226.72615 138.98438 
L 227.376761 139.309364 
L 230.629812 138.984856 
L 231.280423 139.759472 
L 231.931033 138.678713 
L 234.533474 139.025241 
L 235.184085 138.868746 
L 235.834695 139.044319 
L 236.485305 139.81419 
L 237.135915 141.249891 
L 237.786526 139.109654 
L 238.437136 140.919218 
L 239.738357 138.758038 
L 240.388967 139.639367 
L 241.039577 139.496211 
L 241.690188 138.87233 
L 242.340798 138.828112 
L 243.642019 138.943644 
L 244.292629 138.704647 
L 244.943239 139.257944 
L 245.59385 138.69809 
L 247.54568 139.159753 
L 248.196291 139.753662 
L 248.846901 142.430008 
L 249.497511 188.108515 
L 250.148122 149.066171 
L 250.798732 149.512806 
L 251.449342 149.727874 
L 252.099953 140.879719 
L 252.750563 141.202792 
L 253.401173 141.098505 
L 254.051784 141.549838 
L 254.702394 140.102471 
L 255.353004 139.896877 
L 256.003615 140.513759 
L 256.654225 139.251095 
L 257.304835 140.394856 
L 257.955445 139.678551 
L 258.606056 140.096995 
L 259.256666 140.088043 
L 259.907276 139.785349 
L 260.557887 139.0679 
L 261.208497 138.909732 
L 261.859107 140.14528 
L 262.509718 138.976206 
L 263.160328 138.987576 
L 263.810938 140.412174 
L 264.461549 139.547441 
L 265.112159 139.083992 
L 265.762769 139.82764 
L 266.413379 138.861948 
L 267.06399 139.321 
L 267.7146 138.985366 
L 268.36521 139.145405 
L 269.015821 140.566737 
L 269.666431 138.941166 
L 270.317041 140.086839 
L 271.618262 138.928503 
L 272.268872 139.034441 
L 272.919483 139.026436 
L 273.570093 139.473672 
L 274.220703 139.774947 
L 274.871314 139.101316 
L 275.521924 138.700074 
L 276.172534 139.753256 
L 276.823144 139.118157 
L 277.473755 139.092999 
L 278.124365 141.403817 
L 278.774975 139.171536 
L 280.076196 139.744854 
L 280.726806 138.86588 
L 282.028027 139.616394 
L 282.678637 138.623383 
L 283.329248 139.910306 
L 283.979858 139.008755 
L 285.281079 139.201205 
L 285.931689 138.99276 
L 286.582299 138.99761 
L 287.232909 138.709337 
L 289.18474 139.836383 
L 289.835351 139.079922 
L 290.485961 139.098647 
L 291.136571 138.709968 
L 291.787182 138.770992 
L 292.437792 139.933875 
L 293.088402 139.853064 
L 293.739013 140.211846 
L 294.389623 138.992383 
L 295.690844 139.915595 
L 296.341454 139.243804 
L 296.992064 139.327862 
L 297.642674 139.549082 
L 298.293285 139.541157 
L 298.943895 139.06959 
L 299.594505 139.098019 
L 300.245116 138.884862 
L 300.895726 139.380416 
L 301.546336 139.350019 
L 302.196947 138.99424 
L 302.847557 138.837925 
L 303.498167 139.636826 
L 304.148778 138.784075 
L 304.799388 138.788442 
L 305.449998 140.265519 
L 306.100608 138.746654 
L 306.751219 139.473316 
L 307.401829 139.329604 
L 308.052439 139.536335 
L 308.70305 139.1241 
L 309.35366 139.294752 
L 310.00427 139.109513 
L 310.654881 139.205268 
L 311.305491 138.991728 
L 311.956101 140.53078 
L 312.606712 139.610746 
L 313.257322 139.199541 
L 313.907932 138.942462 
L 314.558543 139.080349 
L 315.209153 140.355503 
L 315.859763 139.17962 
L 316.510373 140.183133 
L 317.160984 139.352882 
L 317.811594 139.216204 
L 318.462204 139.657856 
L 319.112815 139.024985 
L 321.064646 139.012338 
L 321.715256 139.215099 
L 322.365866 139.239412 
L 323.016477 139.079261 
L 323.667087 139.222402 
L 324.317697 139.583451 
L 324.968308 139.575822 
L 325.618918 138.993315 
L 326.269528 139.35119 
L 326.920138 139.521059 
L 327.570749 139.25189 
L 328.221359 139.177397 
L 328.871969 138.962366 
L 329.52258 139.229391 
L 330.17319 138.930605 
L 330.8238 139.092545 
L 333.426242 138.767931 
L 334.076852 139.315596 
L 334.727462 139.112835 
L 335.378073 139.277366 
L 336.028683 140.795405 
L 336.679293 140.127541 
L 337.329903 141.819769 
L 337.980514 140.468106 
L 338.631124 139.463328 
L 339.281734 139.683554 
L 339.932345 139.405088 
L 340.582955 139.380818 
L 341.233565 139.165095 
L 341.884176 139.421551 
L 342.534786 138.944822 
L 343.185396 139.039429 
L 343.836007 139.576739 
L 344.486617 139.244111 
L 345.137227 139.468411 
L 345.787837 139.196923 
L 346.438448 140.109279 
L 347.089058 139.051273 
L 347.739668 139.140838 
L 348.390279 138.984722 
L 349.040889 139.079538 
L 349.691499 139.320484 
L 350.34211 139.306884 
L 350.99272 139.983577 
L 351.64333 139.743496 
L 352.293941 139.1459 
L 352.944551 139.081619 
L 353.595161 139.192295 
L 354.245772 139.026793 
L 354.896382 139.78983 
L 355.546992 138.960671 
L 356.848213 139.425839 
L 358.149433 138.992 
L 359.450654 139.098651 
L 360.101264 139.48288 
L 360.751875 139.218014 
L 361.402485 139.116891 
L 362.053095 139.355807 
L 363.354316 138.866867 
L 365.956757 139.285457 
L 366.607367 139.749338 
L 367.257978 139.780566 
L 367.908588 139.223745 
L 368.559198 139.578516 
L 369.209809 139.240575 
L 369.860419 139.111555 
L 370.511029 139.36493 
L 371.16164 139.1336 
L 371.81225 139.095847 
L 373.113471 139.538585 
L 373.764081 139.097678 
L 375.065302 139.683965 
L 375.715912 139.28355 
L 376.366522 139.096353 
L 377.017132 139.305537 
L 377.667743 139.656432 
L 378.318353 139.073021 
L 379.619574 139.145494 
L 380.920794 139.398339 
L 381.571405 139.952611 
L 382.222015 139.719266 
L 382.872625 139.64499 
L 383.523236 139.177422 
L 384.173846 139.023154 
L 385.475066 139.833934 
L 387.426897 138.946044 
L 388.077508 139.734332 
L 388.728118 139.29738 
L 389.378728 139.710043 
L 390.029339 163.044697 
L 390.679949 295.488 
L 391.330559 196.020872 
L 391.98117 244.192646 
L 392.63178 171.621735 
L 393.28239 214.207504 
L 393.933001 157.177249 
L 394.583611 158.483395 
L 395.234221 176.126117 
L 395.884831 185.022631 
L 396.535442 183.470622 
L 397.186052 187.293994 
L 397.836662 197.400751 
L 398.487273 184.856916 
L 398.487273 184.856916 
" clip-path="url(#pcb3aab2d7a)" style="fill: none; stroke: #ff7f0e; stroke-width: 1.5; stroke-linecap: square"/>
   </g>
   <g id="line2d_67">
    <path d="M 73.832727 171.578786 
L 74.483338 203.062548 
L 75.133948 207.272584 
L 75.784558 210.241595 
L 76.435169 210.952313 
L 77.736389 213.729538 
L 78.386999 214.682857 
L 79.03761 216.098409 
L 79.68822 216.852996 
L 80.33883 216.965319 
L 80.989441 218.444288 
L 82.290661 220.370986 
L 82.941272 219.859144 
L 83.591882 218.630927 
L 84.893103 221.177257 
L 85.543713 221.434884 
L 86.194323 220.594501 
L 86.844934 222.082496 
L 87.495544 222.666906 
L 88.146154 221.91018 
L 88.796764 221.557272 
L 89.447375 220.252057 
L 90.097985 223.181641 
L 90.748595 221.624688 
L 91.399206 213.308335 
L 92.700426 215.61288 
L 93.351037 216.294938 
L 94.001647 216.24164 
L 94.652257 216.418639 
L 95.953478 219.966644 
L 96.604088 220.294612 
L 97.254698 213.728133 
L 97.905309 213.745669 
L 98.555919 215.175125 
L 99.85714 216.673795 
L 100.50775 216.898395 
L 101.15836 216.60838 
L 101.808971 216.938785 
L 102.459581 219.480856 
L 103.110191 219.84084 
L 104.411412 221.322413 
L 105.062022 220.091746 
L 105.712633 215.158143 
L 107.013853 221.38144 
L 107.664463 222.375103 
L 108.315074 222.134144 
L 108.965684 217.9467 
L 109.616294 222.507453 
L 110.266905 222.572526 
L 110.917515 223.331751 
L 111.568125 222.489134 
L 112.218736 224.288654 
L 112.869346 223.157306 
L 113.519956 225.477177 
L 114.170567 225.413171 
L 114.821177 226.750541 
L 115.471787 227.429959 
L 116.122398 225.97274 
L 116.773008 226.857167 
L 118.074228 225.880028 
L 118.724839 226.811103 
L 119.375449 227.019264 
L 120.026059 226.594144 
L 120.67667 226.440685 
L 121.32728 227.453821 
L 123.279111 228.147148 
L 123.929721 229.153797 
L 124.580332 228.486738 
L 125.230942 226.606001 
L 125.881552 228.182127 
L 126.532163 228.180939 
L 127.182773 227.275229 
L 127.833383 227.361943 
L 128.483993 227.237082 
L 129.134604 227.919528 
L 129.785214 229.138304 
L 130.435824 228.032052 
L 131.086435 229.061476 
L 131.737045 228.83491 
L 132.387655 229.803029 
L 133.038266 230.570179 
L 133.688876 230.470245 
L 134.339486 229.816896 
L 134.990097 230.578509 
L 135.640707 229.897888 
L 136.291317 230.480047 
L 136.941927 229.247573 
L 137.592538 229.301907 
L 138.243148 229.647246 
L 138.893758 231.2902 
L 139.544369 230.588722 
L 140.194979 231.087618 
L 140.845589 230.182494 
L 141.4962 229.841579 
L 142.14681 229.640175 
L 142.79742 231.503763 
L 143.448031 231.049778 
L 144.098641 231.601682 
L 144.749251 231.66721 
L 145.399862 229.805133 
L 146.050472 230.239477 
L 146.701082 231.084931 
L 147.351692 232.792426 
L 148.002303 231.916305 
L 148.652913 230.495247 
L 149.303523 231.92653 
L 149.954134 230.348247 
L 150.604744 231.527164 
L 151.255354 232.961956 
L 151.905965 233.081567 
L 152.556575 232.210805 
L 153.207185 227.230505 
L 153.857796 230.515683 
L 154.508406 229.44802 
L 155.159016 232.077912 
L 155.809627 232.934104 
L 156.460237 233.598351 
L 157.110847 233.617871 
L 157.761457 234.299253 
L 158.412068 234.55373 
L 159.062678 234.333748 
L 159.713288 232.382623 
L 160.363899 233.50686 
L 161.665119 234.933243 
L 162.31573 232.349232 
L 162.96634 233.9194 
L 163.61695 234.929365 
L 164.918171 235.914035 
L 165.568781 234.193901 
L 166.219392 231.624504 
L 166.870002 231.104851 
L 167.520612 233.427066 
L 168.171222 234.631882 
L 168.821833 234.132444 
L 169.472443 231.595294 
L 170.773664 234.779745 
L 171.424274 235.836359 
L 172.725495 236.57066 
L 173.376105 235.667273 
L 174.677326 235.623185 
L 175.327936 235.814992 
L 175.978546 236.806069 
L 176.629156 236.53688 
L 177.279767 237.022127 
L 177.930377 237.042862 
L 178.580987 235.997848 
L 179.882208 237.07114 
L 180.532818 237.682751 
L 181.183429 235.849257 
L 181.834039 237.080507 
L 182.484649 236.089781 
L 183.13526 237.460789 
L 183.78587 237.80306 
L 184.43648 236.82997 
L 185.087091 237.539985 
L 185.737701 238.54905 
L 186.388311 238.584575 
L 187.038921 239.575432 
L 187.689532 238.599505 
L 188.340142 231.636667 
L 188.990752 234.801074 
L 190.291973 238.353242 
L 190.942583 238.77525 
L 191.593194 238.03194 
L 192.894414 239.700802 
L 193.545025 239.29446 
L 194.195635 240.142398 
L 194.846245 239.384898 
L 195.496856 240.489813 
L 196.147466 240.163942 
L 196.798076 238.753345 
L 197.448686 236.162067 
L 198.099297 237.916296 
L 198.749907 240.159105 
L 199.400517 240.219573 
L 200.051128 241.087377 
L 202.653569 241.669851 
L 203.304179 241.302795 
L 203.95479 241.21706 
L 204.6054 241.673799 
L 205.25601 241.433603 
L 205.906621 241.465969 
L 206.557231 237.874007 
L 207.207841 240.364247 
L 207.858451 240.550161 
L 208.509062 242.140846 
L 209.159672 242.36741 
L 209.810282 241.510936 
L 210.460893 241.725568 
L 211.111503 239.964312 
L 211.762113 242.156256 
L 212.412724 242.200243 
L 213.063334 240.833877 
L 213.713944 241.257416 
L 214.364555 239.894707 
L 215.015165 242.352718 
L 215.665775 242.969444 
L 216.316385 243.387528 
L 216.966996 243.362608 
L 217.617606 240.000952 
L 218.268216 242.047945 
L 218.918827 243.007012 
L 219.569437 243.221943 
L 220.220047 243.296575 
L 221.521268 243.074367 
L 222.171878 243.777087 
L 222.822489 244.190846 
L 223.473099 243.505534 
L 224.123709 243.804816 
L 224.77432 243.558276 
L 225.42493 241.94096 
L 226.72615 243.225858 
L 227.376761 240.22333 
L 229.328592 244.889745 
L 230.629812 245.007723 
L 231.280423 245.046755 
L 231.931033 243.959454 
L 232.581643 245.283847 
L 233.232254 244.221199 
L 233.882864 244.460038 
L 234.533474 244.876895 
L 235.184085 244.940837 
L 235.834695 244.7013 
L 236.485305 242.171909 
L 237.786526 240.791939 
L 238.437136 239.47033 
L 239.087746 240.756508 
L 239.738357 242.590175 
L 240.388967 242.47787 
L 241.039577 244.585917 
L 241.690188 244.070205 
L 242.340798 245.047913 
L 243.642019 246.58311 
L 244.292629 246.081019 
L 244.943239 246.389531 
L 245.59385 246.095603 
L 246.24446 244.405511 
L 246.89507 245.561962 
L 247.54568 245.639333 
L 248.196291 244.259307 
L 248.846901 236.978216 
L 249.497511 216.427461 
L 250.148122 215.392329 
L 250.798732 220.70679 
L 251.449342 224.868865 
L 252.099953 226.279569 
L 252.750563 229.531926 
L 253.401173 230.895907 
L 254.051784 225.947782 
L 254.702394 230.658169 
L 255.353004 231.553706 
L 256.003615 235.494553 
L 256.654225 236.337152 
L 257.304835 237.515406 
L 257.955445 238.371096 
L 258.606056 238.348494 
L 259.907276 239.789632 
L 260.557887 240.977394 
L 261.208497 240.972096 
L 261.859107 241.489965 
L 262.509718 241.254196 
L 263.160328 241.560591 
L 263.810938 242.03286 
L 264.461549 242.226515 
L 265.112159 243.388706 
L 265.762769 243.847787 
L 266.413379 243.012968 
L 267.06399 242.642434 
L 267.7146 243.526606 
L 268.36521 242.435063 
L 269.015821 244.406366 
L 269.666431 242.0549 
L 270.317041 242.822578 
L 270.967652 241.619473 
L 271.618262 243.319785 
L 272.268872 243.241316 
L 272.919483 244.181132 
L 273.570093 244.080513 
L 274.871314 245.037441 
L 275.521924 245.13227 
L 276.172534 244.55487 
L 276.823144 245.024569 
L 277.473755 245.681995 
L 278.124365 244.793633 
L 278.774975 241.769261 
L 279.425586 243.858401 
L 280.076196 245.120763 
L 280.726806 243.666056 
L 281.377417 243.263413 
L 282.028027 245.593921 
L 282.678637 245.221788 
L 283.329248 244.481159 
L 283.979858 245.388913 
L 284.630468 245.646881 
L 285.281079 246.417802 
L 286.582299 246.93251 
L 287.232909 246.670476 
L 288.53413 246.466899 
L 289.18474 245.19362 
L 289.835351 244.539488 
L 290.485961 246.333266 
L 291.136571 246.744324 
L 291.787182 246.051642 
L 292.437792 246.439265 
L 293.088402 246.247186 
L 293.739013 245.492781 
L 294.389623 244.010374 
L 295.040233 246.271087 
L 295.690844 246.946957 
L 296.341454 245.929995 
L 296.992064 247.294761 
L 297.642674 247.620575 
L 298.293285 246.805923 
L 298.943895 245.158809 
L 299.594505 246.983892 
L 300.245116 245.62859 
L 300.895726 245.261243 
L 301.546336 246.918555 
L 302.196947 246.410451 
L 303.498167 247.566741 
L 304.148778 247.522466 
L 304.799388 246.292842 
L 305.449998 247.196723 
L 306.100608 244.756888 
L 306.751219 244.452283 
L 307.401829 242.66096 
L 308.052439 244.07304 
L 308.70305 246.253488 
L 309.35366 247.297685 
L 310.00427 248.038038 
L 310.654881 247.842871 
L 311.305491 247.970377 
L 311.956101 246.907889 
L 312.606712 244.748223 
L 313.257322 246.075992 
L 313.907932 247.151025 
L 314.558543 247.102239 
L 315.209153 246.608636 
L 315.859763 246.485167 
L 316.510373 247.183025 
L 317.160984 245.854721 
L 317.811594 246.476169 
L 318.462204 246.43399 
L 319.112815 246.867839 
L 319.763425 248.062357 
L 320.414035 248.842721 
L 321.064646 247.397203 
L 321.715256 248.269191 
L 322.365866 248.174707 
L 323.016477 249.011242 
L 323.667087 248.622252 
L 324.317697 248.634127 
L 325.618918 247.134629 
L 326.269528 247.560178 
L 326.920138 248.220377 
L 327.570749 247.684936 
L 328.221359 248.442937 
L 328.871969 248.675882 
L 329.52258 247.619677 
L 330.17319 247.333546 
L 330.8238 247.631929 
L 331.474411 248.215182 
L 332.125021 249.285417 
L 332.775631 248.605499 
L 333.426242 248.626642 
L 334.076852 248.36013 
L 334.727462 249.064339 
L 335.378073 248.377329 
L 336.679293 236.871112 
L 337.329903 236.672173 
L 337.980514 233.968466 
L 338.631124 236.972567 
L 339.281734 242.633375 
L 339.932345 245.060648 
L 340.582955 246.521558 
L 341.233565 246.831074 
L 341.884176 247.814174 
L 342.534786 248.532267 
L 343.185396 248.813259 
L 345.137227 249.31125 
L 345.787837 249.492108 
L 346.438448 249.408342 
L 347.089058 248.531506 
L 347.739668 248.845691 
L 349.040889 250.294118 
L 350.34211 249.927648 
L 350.99272 250.62037 
L 351.64333 249.337452 
L 352.293941 249.383037 
L 352.944551 247.559151 
L 353.595161 246.709442 
L 354.245772 248.442876 
L 354.896382 248.623033 
L 355.546992 248.503993 
L 356.197602 249.459265 
L 356.848213 248.900869 
L 357.498823 249.715972 
L 358.149433 250.048707 
L 358.800044 248.198644 
L 359.450654 247.072603 
L 360.101264 247.442766 
L 361.402485 249.518851 
L 362.053095 249.887101 
L 362.703706 249.868199 
L 363.354316 248.08733 
L 364.004926 248.223327 
L 364.655537 248.610825 
L 365.306147 246.620073 
L 365.956757 249.024336 
L 366.607367 248.800695 
L 367.257978 242.170725 
L 367.908588 246.398615 
L 368.559198 248.734455 
L 369.209809 249.255163 
L 369.860419 250.412497 
L 370.511029 250.542719 
L 371.16164 249.847031 
L 371.81225 249.443023 
L 372.46286 247.107583 
L 373.113471 248.050721 
L 373.764081 244.396904 
L 374.414691 246.051503 
L 375.065302 248.963924 
L 375.715912 249.063034 
L 376.366522 249.747777 
L 377.017132 249.902239 
L 377.667743 249.589254 
L 378.318353 247.821331 
L 378.968963 248.447795 
L 379.619574 249.80034 
L 380.270184 249.089113 
L 380.920794 250.070489 
L 381.571405 250.190021 
L 382.222015 249.4755 
L 382.872625 249.096204 
L 383.523236 249.437594 
L 384.173846 250.255228 
L 384.824456 249.704474 
L 385.475066 250.384845 
L 386.125677 249.411211 
L 386.776287 250.101828 
L 388.077508 251.046015 
L 388.728118 251.106511 
L 389.378728 250.617477 
L 390.029339 190.976694 
L 390.679949 92.123387 
L 391.330559 85.247894 
L 391.98117 123.794444 
L 392.63178 149.888516 
L 393.28239 181.243841 
L 393.933001 195.135953 
L 394.583611 200.166429 
L 395.234221 202.977008 
L 395.884831 204.17479 
L 396.535442 206.317617 
L 397.186052 207.07521 
L 397.836662 207.507205 
L 398.487273 207.792397 
L 398.487273 207.792397 
" clip-path="url(#pcb3aab2d7a)" style="fill: none; stroke: #2ca02c; stroke-width: 1.5; stroke-linecap: square"/>
   </g>
   <g id="line2d_68">
    <path d="M 73.832727 193.119354 
L 74.483338 203.928956 
L 75.133948 207.181977 
L 75.784558 208.064942 
L 76.435169 209.19948 
L 77.085779 210.562735 
L 77.736389 211.340576 
L 80.33883 216.305332 
L 80.989441 215.18879 
L 81.640051 217.017617 
L 82.290661 217.744606 
L 82.941272 218.930705 
L 83.591882 217.109533 
L 84.242492 217.654769 
L 84.893103 219.256122 
L 85.543713 216.335321 
L 86.194323 217.828296 
L 86.844934 218.58713 
L 87.495544 220.195327 
L 88.146154 219.611371 
L 88.796764 215.957062 
L 89.447375 219.560682 
L 90.097985 221.264477 
L 90.748595 212.742125 
L 91.399206 210.931387 
L 92.049816 211.616986 
L 92.700426 212.7348 
L 93.351037 212.317881 
L 94.001647 213.450591 
L 94.652257 214.938095 
L 95.302868 217.372983 
L 95.953478 218.843899 
L 96.604088 205.757417 
L 97.254698 207.455143 
L 97.905309 212.571982 
L 99.206529 213.843216 
L 99.85714 214.070087 
L 101.15836 215.174528 
L 101.808971 216.235619 
L 103.760802 218.372824 
L 104.411412 218.381085 
L 105.062022 213.680773 
L 105.712633 213.960959 
L 106.363243 217.851006 
L 107.013853 219.881771 
L 107.664463 219.292509 
L 108.315074 215.935211 
L 108.965684 218.525668 
L 109.616294 220.290985 
L 110.266905 221.557313 
L 110.917515 221.237972 
L 111.568125 221.851349 
L 112.218736 220.597094 
L 112.869346 222.798648 
L 113.519956 223.051081 
L 114.170567 223.739683 
L 115.471787 223.233327 
L 116.122398 224.13153 
L 116.773008 224.278093 
L 117.423618 222.967538 
L 118.074228 222.335696 
L 118.724839 222.778876 
L 119.375449 223.614303 
L 120.026059 224.893565 
L 120.67667 223.856234 
L 121.32728 224.49404 
L 121.97789 223.228056 
L 122.628501 224.714475 
L 123.279111 224.517197 
L 123.929721 225.707682 
L 124.580332 225.020088 
L 125.230942 223.713215 
L 125.881552 225.974224 
L 126.532163 223.2283 
L 127.182773 223.088005 
L 127.833383 223.956024 
L 128.483993 226.105235 
L 129.134604 225.78111 
L 129.785214 225.044291 
L 130.435824 225.688166 
L 131.086435 225.21677 
L 131.737045 225.925432 
L 132.387655 226.962988 
L 133.038266 226.598933 
L 133.688876 226.802671 
L 134.339486 227.709567 
L 134.990097 225.953551 
L 135.640707 227.473665 
L 136.291317 222.348393 
L 136.941927 227.422515 
L 137.592538 224.099169 
L 138.243148 227.446122 
L 138.893758 225.783194 
L 139.544369 226.523332 
L 140.194979 227.973283 
L 140.845589 225.925955 
L 141.4962 226.434129 
L 142.14681 227.331259 
L 142.79742 226.208443 
L 143.448031 228.080739 
L 144.098641 228.667999 
L 144.749251 224.2233 
L 145.399862 224.769713 
L 146.050472 228.29238 
L 146.701082 228.577793 
L 147.351692 225.849708 
L 148.002303 226.554026 
L 148.652913 228.417139 
L 149.303523 228.507192 
L 149.954134 225.75745 
L 150.604744 228.286583 
L 151.255354 229.230377 
L 151.905965 227.65175 
L 152.556575 223.906747 
L 153.207185 223.371434 
L 153.857796 226.399601 
L 154.508406 227.926345 
L 155.159016 228.118596 
L 155.809627 229.010704 
L 156.460237 229.28735 
L 157.110847 228.457225 
L 157.761457 229.174331 
L 158.412068 229.542318 
L 159.062678 229.747397 
L 159.713288 229.358044 
L 160.363899 229.619741 
L 161.014509 228.732695 
L 161.665119 228.147104 
L 162.31573 229.592193 
L 162.96634 230.365196 
L 163.61695 230.515933 
L 164.918171 229.937527 
L 165.568781 230.130954 
L 166.219392 223.930631 
L 166.870002 228.222846 
L 167.520612 230.343868 
L 168.171222 229.929587 
L 168.821833 226.617813 
L 169.472443 225.904601 
L 170.123053 229.293097 
L 170.773664 230.3448 
L 171.424274 229.519533 
L 172.074884 230.212087 
L 172.725495 228.11982 
L 173.376105 230.419344 
L 174.026715 230.174721 
L 174.677326 230.77182 
L 175.327936 230.700612 
L 175.978546 230.421112 
L 176.629156 230.547629 
L 177.279767 230.907951 
L 177.930377 227.969107 
L 178.580987 230.376022 
L 179.231598 229.982864 
L 179.882208 232.017751 
L 180.532818 230.657541 
L 181.183429 231.093073 
L 181.834039 230.65364 
L 182.484649 231.57318 
L 183.13526 229.92724 
L 183.78587 231.277436 
L 184.43648 230.580384 
L 185.737701 231.761796 
L 186.388311 232.119865 
L 187.038921 231.158442 
L 187.689532 224.816907 
L 188.340142 229.168673 
L 188.990752 229.500135 
L 190.291973 231.891898 
L 190.942583 231.368225 
L 191.593194 231.878478 
L 192.243804 231.219113 
L 192.894414 230.824917 
L 193.545025 231.248304 
L 194.195635 229.696326 
L 194.846245 231.83737 
L 195.496856 232.167545 
L 196.147466 231.546808 
L 196.798076 230.719681 
L 197.448686 230.248257 
L 198.099297 231.840687 
L 198.749907 232.051443 
L 199.400517 231.894023 
L 200.051128 231.995172 
L 200.701738 232.505341 
L 201.352348 232.61845 
L 202.002959 231.982785 
L 202.653569 231.900994 
L 203.304179 231.234863 
L 203.95479 232.396657 
L 204.6054 232.115171 
L 205.25601 232.411039 
L 205.906621 226.714526 
L 206.557231 230.156288 
L 207.858451 232.1406 
L 208.509062 231.496138 
L 209.159672 229.346942 
L 209.810282 232.318524 
L 210.460893 230.794351 
L 211.111503 232.362731 
L 211.762113 231.155557 
L 212.412724 231.630405 
L 213.063334 231.345098 
L 213.713944 230.746998 
L 215.015165 232.532186 
L 215.665775 232.195404 
L 216.316385 232.939274 
L 217.617606 232.254789 
L 218.918827 232.162067 
L 219.569437 232.416982 
L 220.220047 232.008762 
L 220.870658 232.719138 
L 221.521268 232.857929 
L 222.171878 232.831825 
L 222.822489 233.311669 
L 223.473099 232.777486 
L 224.123709 230.963636 
L 224.77432 229.771954 
L 225.42493 230.311986 
L 226.07554 232.199723 
L 226.72615 230.386576 
L 227.376761 232.207209 
L 228.027371 231.849888 
L 228.677981 231.756005 
L 229.979202 232.985045 
L 230.629812 232.698199 
L 231.280423 230.78888 
L 231.931033 233.017561 
L 233.232254 232.06448 
L 233.882864 232.767522 
L 234.533474 232.465149 
L 235.184085 232.87656 
L 235.834695 229.834067 
L 236.485305 230.336643 
L 237.135915 225.494809 
L 237.786526 228.985371 
L 238.437136 227.487347 
L 239.087746 229.972216 
L 239.738357 231.571303 
L 240.388967 230.365154 
L 241.039577 230.915045 
L 241.690188 232.097551 
L 242.340798 232.752962 
L 242.991408 232.365492 
L 243.642019 232.631158 
L 244.292629 233.211129 
L 244.943239 231.696349 
L 245.59385 231.591564 
L 246.24446 232.456744 
L 246.89507 232.535386 
L 247.54568 231.789963 
L 248.196291 230.220618 
L 248.846901 215.02806 
L 249.497511 210.478572 
L 250.798732 220.573618 
L 251.449342 220.35082 
L 252.099953 224.276533 
L 252.750563 226.538287 
L 253.401173 227.313945 
L 254.051784 224.930761 
L 254.702394 226.87272 
L 255.353004 228.343731 
L 256.003615 228.530347 
L 256.654225 230.770327 
L 257.304835 228.232709 
L 257.955445 230.719518 
L 258.606056 229.455927 
L 259.256666 229.474148 
L 259.907276 229.882513 
L 260.557887 232.09292 
L 261.208497 231.54536 
L 261.859107 229.40847 
L 262.509718 230.897509 
L 263.160328 231.914678 
L 263.810938 228.827514 
L 264.461549 230.829182 
L 265.112159 231.600109 
L 265.762769 229.95748 
L 266.413379 230.239998 
L 267.06399 231.530411 
L 267.7146 229.479409 
L 268.36521 232.232921 
L 269.015821 228.228291 
L 269.666431 230.640333 
L 270.317041 228.323206 
L 271.618262 231.544595 
L 272.268872 230.528086 
L 272.919483 231.199153 
L 273.570093 230.208005 
L 274.220703 229.929901 
L 274.871314 231.276399 
L 275.521924 231.583345 
L 276.172534 229.786781 
L 276.823144 231.373937 
L 277.473755 230.907407 
L 278.124365 225.789211 
L 278.774975 229.087849 
L 279.425586 230.605887 
L 280.076196 229.483922 
L 280.726806 230.268308 
L 281.377417 230.803077 
L 282.028027 230.463 
L 282.678637 231.574826 
L 283.329248 229.334755 
L 283.979858 231.092917 
L 284.630468 231.789266 
L 285.281079 231.326805 
L 285.931689 231.885308 
L 286.582299 231.928272 
L 287.232909 232.205998 
L 287.88352 231.239604 
L 288.53413 230.731015 
L 289.18474 229.736963 
L 289.835351 230.000456 
L 290.485961 231.825378 
L 291.136571 232.179814 
L 291.787182 232.82737 
L 292.437792 229.492536 
L 293.088402 229.583923 
L 293.739013 228.593583 
L 294.389623 230.774733 
L 295.040233 230.986642 
L 295.690844 229.043929 
L 296.341454 231.990309 
L 296.992064 230.770279 
L 297.642674 229.80993 
L 298.293285 229.469532 
L 298.943895 231.175747 
L 299.594505 230.518033 
L 300.245116 230.944056 
L 300.895726 230.306877 
L 301.546336 230.440222 
L 302.847557 231.66496 
L 303.498167 229.843041 
L 304.148778 231.764722 
L 304.799388 231.514901 
L 305.449998 228.469839 
L 306.100608 232.206972 
L 306.751219 227.744971 
L 307.401829 230.238698 
L 308.052439 230.483892 
L 308.70305 231.423781 
L 309.35366 231.028858 
L 310.00427 231.84226 
L 310.654881 231.213792 
L 311.305491 231.390713 
L 311.956101 228.112167 
L 312.606712 230.177145 
L 313.257322 231.153731 
L 313.907932 231.550134 
L 314.558543 231.448046 
L 315.209153 227.743424 
L 315.859763 230.905803 
L 316.510373 228.117893 
L 317.160984 230.130244 
L 317.811594 230.835501 
L 318.462204 229.54666 
L 319.112815 231.24184 
L 319.763425 231.235494 
L 320.414035 230.564378 
L 321.064646 231.190326 
L 321.715256 230.825775 
L 322.365866 230.620163 
L 323.016477 231.359383 
L 323.667087 230.038521 
L 324.317697 229.923815 
L 324.968308 229.652446 
L 325.618918 231.034626 
L 326.269528 230.428423 
L 326.920138 230.304356 
L 328.221359 231.079166 
L 328.871969 230.840352 
L 329.52258 230.231543 
L 330.17319 230.98289 
L 330.8238 230.376786 
L 331.474411 231.446537 
L 332.125021 230.901934 
L 332.775631 231.510187 
L 333.426242 231.792346 
L 334.076852 230.624863 
L 334.727462 231.038561 
L 335.378073 227.38318 
L 336.028683 227.432892 
L 336.679293 225.957591 
L 337.329903 224.183018 
L 337.980514 223.179443 
L 338.631124 229.962095 
L 339.281734 229.377477 
L 339.932345 230.250551 
L 340.582955 230.310646 
L 341.233565 231.185942 
L 341.884176 230.584808 
L 342.534786 231.478114 
L 343.185396 231.068087 
L 343.836007 229.772247 
L 344.486617 230.66156 
L 345.137227 230.055973 
L 345.787837 231.360792 
L 346.438448 228.422175 
L 347.089058 230.613038 
L 347.739668 231.128309 
L 349.040889 231.236351 
L 349.691499 230.328285 
L 350.34211 230.259254 
L 350.99272 228.80109 
L 351.64333 229.196288 
L 352.293941 230.398379 
L 352.944551 229.237137 
L 353.595161 230.008592 
L 354.245772 230.51949 
L 354.896382 229.171264 
L 355.546992 230.770198 
L 356.848213 230.309195 
L 358.149433 230.579138 
L 358.800044 228.583401 
L 359.450654 229.443897 
L 360.101264 229.521706 
L 360.751875 230.537409 
L 361.402485 230.871845 
L 362.703706 229.514222 
L 363.354316 231.632943 
L 364.004926 230.937646 
L 364.655537 230.039892 
L 365.306147 229.926894 
L 365.956757 229.616923 
L 366.607367 225.244681 
L 367.257978 228.849797 
L 367.908588 230.381677 
L 368.559198 229.802176 
L 369.209809 230.311741 
L 370.511029 230.237853 
L 371.16164 230.827982 
L 371.81225 229.054831 
L 372.46286 230.161729 
L 373.113471 226.585902 
L 373.764081 229.283791 
L 374.414691 229.710536 
L 375.065302 229.283149 
L 375.715912 230.13962 
L 376.366522 230.737572 
L 377.017132 230.594863 
L 377.667743 228.843148 
L 378.318353 230.717034 
L 380.920794 229.843237 
L 381.571405 228.962275 
L 382.872625 229.294076 
L 383.523236 230.674909 
L 384.173846 230.892065 
L 384.824456 229.479241 
L 385.475066 228.982674 
L 386.125677 229.766188 
L 386.776287 230.22716 
L 387.426897 231.561432 
L 388.077508 229.162683 
L 388.728118 230.147594 
L 389.378728 225.625316 
L 390.029339 148.946735 
L 390.679949 53.568 
L 391.330559 141.182087 
L 391.98117 141.772036 
L 393.28239 190.949066 
L 393.933001 197.84784 
L 394.583611 200.957677 
L 395.234221 203.182496 
L 396.535442 205.330745 
L 397.186052 205.922537 
L 398.487273 206.528216 
L 398.487273 206.528216 
" clip-path="url(#pcb3aab2d7a)" style="fill: none; stroke: #d62728; stroke-width: 1.5; stroke-linecap: square"/>
   </g>
   <g id="patch_3">
    <path d="M 57.6 307.584 
L 57.6 41.472 
" style="fill: none; stroke: #000000; stroke-width: 0.8; stroke-linejoin: miter; stroke-linecap: square"/>
   </g>
   <g id="patch_4">
    <path d="M 414.72 307.584 
L 414.72 41.472 
" style="fill: none; stroke: #000000; stroke-width: 0.8; stroke-linejoin: miter; stroke-linecap: square"/>
   </g>
   <g id="patch_5">
    <path d="M 57.6 307.584 
L 414.72 307.584 
" style="fill: none; stroke: #000000; stroke-width: 0.8; stroke-linejoin: miter; stroke-linecap: square"/>
   </g>
   <g id="patch_6">
    <path d="M 57.6 41.472 
L 414.72 41.472 
" style="fill: none; stroke: #000000; stroke-width: 0.8; stroke-linejoin: miter; stroke-linecap: square"/>
   </g>
   <g id="text_14">
    <!-- MSE loss during training -->
    <g transform="translate(163.472813 35.472) scale(0.12 -0.12)">
     <defs>
      <path id="DejaVuSans-4d" d="M 628 4666 
L 1569 4666 
L 2759 1491 
L 3956 4666 
L 4897 4666 
L 4897 0 
L 4281 0 
L 4281 4097 
L 3078 897 
L 2444 897 
L 1241 4097 
L 1241 0 
L 628 0 
L 628 4666 
z
" transform="scale(0.015625)"/>
      <path id="DejaVuSans-53" d="M 3425 4513 
L 3425 3897 
Q 3066 4069 2747 4153 
Q 2428 4238 2131 4238 
Q 1616 4238 1336 4038 
Q 1056 3838 1056 3469 
Q 1056 3159 1242 3001 
Q 1428 2844 1947 2747 
L 2328 2669 
Q 3034 2534 3370 2195 
Q 3706 1856 3706 1288 
Q 3706 609 3251 259 
Q 2797 -91 1919 -91 
Q 1588 -91 1214 -16 
Q 841 59 441 206 
L 441 856 
Q 825 641 1194 531 
Q 1563 422 1919 422 
Q 2459 422 2753 634 
Q 3047 847 3047 1241 
Q 3047 1584 2836 1778 
Q 2625 1972 2144 2069 
L 1759 2144 
Q 1053 2284 737 2584 
Q 422 2884 422 3419 
Q 422 4038 858 4394 
Q 1294 4750 2059 4750 
Q 2388 4750 2728 4690 
Q 3069 4631 3425 4513 
z
" transform="scale(0.015625)"/>
      <path id="DejaVuSans-45" d="M 628 4666 
L 3578 4666 
L 3578 4134 
L 1259 4134 
L 1259 2753 
L 3481 2753 
L 3481 2222 
L 1259 2222 
L 1259 531 
L 3634 531 
L 3634 0 
L 628 0 
L 628 4666 
z
" transform="scale(0.015625)"/>
      <path id="DejaVuSans-20" transform="scale(0.015625)"/>
      <path id="DejaVuSans-6c" d="M 603 4863 
L 1178 4863 
L 1178 0 
L 603 0 
L 603 4863 
z
" transform="scale(0.015625)"/>
      <path id="DejaVuSans-6f" d="M 1959 3097 
Q 1497 3097 1228 2736 
Q 959 2375 959 1747 
Q 959 1119 1226 758 
Q 1494 397 1959 397 
Q 2419 397 2687 759 
Q 2956 1122 2956 1747 
Q 2956 2369 2687 2733 
Q 2419 3097 1959 3097 
z
M 1959 3584 
Q 2709 3584 3137 3096 
Q 3566 2609 3566 1747 
Q 3566 888 3137 398 
Q 2709 -91 1959 -91 
Q 1206 -91 779 398 
Q 353 888 353 1747 
Q 353 2609 779 3096 
Q 1206 3584 1959 3584 
z
" transform="scale(0.015625)"/>
      <path id="DejaVuSans-73" d="M 2834 3397 
L 2834 2853 
Q 2591 2978 2328 3040 
Q 2066 3103 1784 3103 
Q 1356 3103 1142 2972 
Q 928 2841 928 2578 
Q 928 2378 1081 2264 
Q 1234 2150 1697 2047 
L 1894 2003 
Q 2506 1872 2764 1633 
Q 3022 1394 3022 966 
Q 3022 478 2636 193 
Q 2250 -91 1575 -91 
Q 1294 -91 989 -36 
Q 684 19 347 128 
L 347 722 
Q 666 556 975 473 
Q 1284 391 1588 391 
Q 1994 391 2212 530 
Q 2431 669 2431 922 
Q 2431 1156 2273 1281 
Q 2116 1406 1581 1522 
L 1381 1569 
Q 847 1681 609 1914 
Q 372 2147 372 2553 
Q 372 3047 722 3315 
Q 1072 3584 1716 3584 
Q 2034 3584 2315 3537 
Q 2597 3491 2834 3397 
z
" transform="scale(0.015625)"/>
      <path id="DejaVuSans-64" d="M 2906 2969 
L 2906 4863 
L 3481 4863 
L 3481 0 
L 2906 0 
L 2906 525 
Q 2725 213 2448 61 
Q 2172 -91 1784 -91 
Q 1150 -91 751 415 
Q 353 922 353 1747 
Q 353 2572 751 3078 
Q 1150 3584 1784 3584 
Q 2172 3584 2448 3432 
Q 2725 3281 2906 2969 
z
M 947 1747 
Q 947 1113 1208 752 
Q 1469 391 1925 391 
Q 2381 391 2643 752 
Q 2906 1113 2906 1747 
Q 2906 2381 2643 2742 
Q 2381 3103 1925 3103 
Q 1469 3103 1208 2742 
Q 947 2381 947 1747 
z
" transform="scale(0.015625)"/>
      <path id="DejaVuSans-75" d="M 544 1381 
L 544 3500 
L 1119 3500 
L 1119 1403 
Q 1119 906 1312 657 
Q 1506 409 1894 409 
Q 2359 409 2629 706 
Q 2900 1003 2900 1516 
L 2900 3500 
L 3475 3500 
L 3475 0 
L 2900 0 
L 2900 538 
Q 2691 219 2414 64 
Q 2138 -91 1772 -91 
Q 1169 -91 856 284 
Q 544 659 544 1381 
z
M 1991 3584 
L 1991 3584 
z
" transform="scale(0.015625)"/>
      <path id="DejaVuSans-72" d="M 2631 2963 
Q 2534 3019 2420 3045 
Q 2306 3072 2169 3072 
Q 1681 3072 1420 2755 
Q 1159 2438 1159 1844 
L 1159 0 
L 581 0 
L 581 3500 
L 1159 3500 
L 1159 2956 
Q 1341 3275 1631 3429 
Q 1922 3584 2338 3584 
Q 2397 3584 2469 3576 
Q 2541 3569 2628 3553 
L 2631 2963 
z
" transform="scale(0.015625)"/>
      <path id="DejaVuSans-69" d="M 603 3500 
L 1178 3500 
L 1178 0 
L 603 0 
L 603 3500 
z
M 603 4863 
L 1178 4863 
L 1178 4134 
L 603 4134 
L 603 4863 
z
" transform="scale(0.015625)"/>
      <path id="DejaVuSans-6e" d="M 3513 2113 
L 3513 0 
L 2938 0 
L 2938 2094 
Q 2938 2591 2744 2837 
Q 2550 3084 2163 3084 
Q 1697 3084 1428 2787 
Q 1159 2491 1159 1978 
L 1159 0 
L 581 0 
L 581 3500 
L 1159 3500 
L 1159 2956 
Q 1366 3272 1645 3428 
Q 1925 3584 2291 3584 
Q 2894 3584 3203 3211 
Q 3513 2838 3513 2113 
z
" transform="scale(0.015625)"/>
      <path id="DejaVuSans-67" d="M 2906 1791 
Q 2906 2416 2648 2759 
Q 2391 3103 1925 3103 
Q 1463 3103 1205 2759 
Q 947 2416 947 1791 
Q 947 1169 1205 825 
Q 1463 481 1925 481 
Q 2391 481 2648 825 
Q 2906 1169 2906 1791 
z
M 3481 434 
Q 3481 -459 3084 -895 
Q 2688 -1331 1869 -1331 
Q 1566 -1331 1297 -1286 
Q 1028 -1241 775 -1147 
L 775 -588 
Q 1028 -725 1275 -790 
Q 1522 -856 1778 -856 
Q 2344 -856 2625 -561 
Q 2906 -266 2906 331 
L 2906 616 
Q 2728 306 2450 153 
Q 2172 0 1784 0 
Q 1141 0 747 490 
Q 353 981 353 1791 
Q 353 2603 747 3093 
Q 1141 3584 1784 3584 
Q 2172 3584 2450 3431 
Q 2728 3278 2906 2969 
L 2906 3500 
L 3481 3500 
L 3481 434 
z
" transform="scale(0.015625)"/>
      <path id="DejaVuSans-74" d="M 1172 4494 
L 1172 3500 
L 2356 3500 
L 2356 3053 
L 1172 3053 
L 1172 1153 
Q 1172 725 1289 603 
Q 1406 481 1766 481 
L 2356 481 
L 2356 0 
L 1766 0 
Q 1100 0 847 248 
Q 594 497 594 1153 
L 594 3053 
L 172 3053 
L 172 3500 
L 594 3500 
L 594 4494 
L 1172 4494 
z
" transform="scale(0.015625)"/>
      <path id="DejaVuSans-61" d="M 2194 1759 
Q 1497 1759 1228 1600 
Q 959 1441 959 1056 
Q 959 750 1161 570 
Q 1363 391 1709 391 
Q 2188 391 2477 730 
Q 2766 1069 2766 1631 
L 2766 1759 
L 2194 1759 
z
M 3341 1997 
L 3341 0 
L 2766 0 
L 2766 531 
Q 2569 213 2275 61 
Q 1981 -91 1556 -91 
Q 1019 -91 701 211 
Q 384 513 384 1019 
Q 384 1609 779 1909 
Q 1175 2209 1959 2209 
L 2766 2209 
L 2766 2266 
Q 2766 2663 2505 2880 
Q 2244 3097 1772 3097 
Q 1472 3097 1187 3025 
Q 903 2953 641 2809 
L 641 3341 
Q 956 3463 1253 3523 
Q 1550 3584 1831 3584 
Q 2591 3584 2966 3190 
Q 3341 2797 3341 1997 
z
" transform="scale(0.015625)"/>
     </defs>
     <use xlink:href="#DejaVuSans-4d"/>
     <use xlink:href="#DejaVuSans-53" x="86.279297"/>
     <use xlink:href="#DejaVuSans-45" x="149.755859"/>
     <use xlink:href="#DejaVuSans-20" x="212.939453"/>
     <use xlink:href="#DejaVuSans-6c" x="244.726562"/>
     <use xlink:href="#DejaVuSans-6f" x="272.509766"/>
     <use xlink:href="#DejaVuSans-73" x="333.691406"/>
     <use xlink:href="#DejaVuSans-73" x="385.791016"/>
     <use xlink:href="#DejaVuSans-20" x="437.890625"/>
     <use xlink:href="#DejaVuSans-64" x="469.677734"/>
     <use xlink:href="#DejaVuSans-75" x="533.154297"/>
     <use xlink:href="#DejaVuSans-72" x="596.533203"/>
     <use xlink:href="#DejaVuSans-69" x="637.646484"/>
     <use xlink:href="#DejaVuSans-6e" x="665.429688"/>
     <use xlink:href="#DejaVuSans-67" x="728.808594"/>
     <use xlink:href="#DejaVuSans-20" x="792.285156"/>
     <use xlink:href="#DejaVuSans-74" x="824.072266"/>
     <use xlink:href="#DejaVuSans-72" x="863.28125"/>
     <use xlink:href="#DejaVuSans-61" x="904.394531"/>
     <use xlink:href="#DejaVuSans-69" x="965.673828"/>
     <use xlink:href="#DejaVuSans-6e" x="993.457031"/>
     <use xlink:href="#DejaVuSans-69" x="1056.835938"/>
     <use xlink:href="#DejaVuSans-6e" x="1084.619141"/>
     <use xlink:href="#DejaVuSans-67" x="1147.998047"/>
    </g>
   </g>
   <g id="legend_1">
    <g id="patch_7">
     <path d="M 64.6 108.1845 
L 175.939063 108.1845 
Q 177.939063 108.1845 177.939063 106.1845 
L 177.939063 48.472 
Q 177.939063 46.472 175.939063 46.472 
L 64.6 46.472 
Q 62.6 46.472 62.6 48.472 
L 62.6 106.1845 
Q 62.6 108.1845 64.6 108.1845 
z
" style="fill: #ffffff; opacity: 0.8; stroke: #cccccc; stroke-linejoin: miter"/>
    </g>
    <g id="line2d_69">
     <path d="M 66.6 54.570438 
L 76.6 54.570438 
L 86.6 54.570438 
" style="fill: none; stroke: #1f77b4; stroke-width: 1.5; stroke-linecap: square"/>
    </g>
    <g id="text_15">
     <!-- Train Dice score -->
     <g transform="translate(94.6 58.070438) scale(0.1 -0.1)">
      <defs>
       <path id="DejaVuSans-54" d="M -19 4666 
L 3928 4666 
L 3928 4134 
L 2272 4134 
L 2272 0 
L 1638 0 
L 1638 4134 
L -19 4134 
L -19 4666 
z
" transform="scale(0.015625)"/>
       <path id="DejaVuSans-44" d="M 1259 4147 
L 1259 519 
L 2022 519 
Q 2988 519 3436 956 
Q 3884 1394 3884 2338 
Q 3884 3275 3436 3711 
Q 2988 4147 2022 4147 
L 1259 4147 
z
M 628 4666 
L 1925 4666 
Q 3281 4666 3915 4102 
Q 4550 3538 4550 2338 
Q 4550 1131 3912 565 
Q 3275 0 1925 0 
L 628 0 
L 628 4666 
z
" transform="scale(0.015625)"/>
       <path id="DejaVuSans-63" d="M 3122 3366 
L 3122 2828 
Q 2878 2963 2633 3030 
Q 2388 3097 2138 3097 
Q 1578 3097 1268 2742 
Q 959 2388 959 1747 
Q 959 1106 1268 751 
Q 1578 397 2138 397 
Q 2388 397 2633 464 
Q 2878 531 3122 666 
L 3122 134 
Q 2881 22 2623 -34 
Q 2366 -91 2075 -91 
Q 1284 -91 818 406 
Q 353 903 353 1747 
Q 353 2603 823 3093 
Q 1294 3584 2113 3584 
Q 2378 3584 2631 3529 
Q 2884 3475 3122 3366 
z
" transform="scale(0.015625)"/>
       <path id="DejaVuSans-65" d="M 3597 1894 
L 3597 1613 
L 953 1613 
Q 991 1019 1311 708 
Q 1631 397 2203 397 
Q 2534 397 2845 478 
Q 3156 559 3463 722 
L 3463 178 
Q 3153 47 2828 -22 
Q 2503 -91 2169 -91 
Q 1331 -91 842 396 
Q 353 884 353 1716 
Q 353 2575 817 3079 
Q 1281 3584 2069 3584 
Q 2775 3584 3186 3129 
Q 3597 2675 3597 1894 
z
M 3022 2063 
Q 3016 2534 2758 2815 
Q 2500 3097 2075 3097 
Q 1594 3097 1305 2825 
Q 1016 2553 972 2059 
L 3022 2063 
z
" transform="scale(0.015625)"/>
      </defs>
      <use xlink:href="#DejaVuSans-54"/>
      <use xlink:href="#DejaVuSans-72" x="46.333984"/>
      <use xlink:href="#DejaVuSans-61" x="87.447266"/>
      <use xlink:href="#DejaVuSans-69" x="148.726562"/>
      <use xlink:href="#DejaVuSans-6e" x="176.509766"/>
      <use xlink:href="#DejaVuSans-20" x="239.888672"/>
      <use xlink:href="#DejaVuSans-44" x="271.675781"/>
      <use xlink:href="#DejaVuSans-69" x="348.677734"/>
      <use xlink:href="#DejaVuSans-63" x="376.460938"/>
      <use xlink:href="#DejaVuSans-65" x="431.441406"/>
      <use xlink:href="#DejaVuSans-20" x="492.964844"/>
      <use xlink:href="#DejaVuSans-73" x="524.751953"/>
      <use xlink:href="#DejaVuSans-63" x="576.851562"/>
      <use xlink:href="#DejaVuSans-6f" x="631.832031"/>
      <use xlink:href="#DejaVuSans-72" x="693.013672"/>
      <use xlink:href="#DejaVuSans-65" x="731.876953"/>
     </g>
    </g>
    <g id="line2d_70">
     <path d="M 66.6 69.248563 
L 76.6 69.248563 
L 86.6 69.248563 
" style="fill: none; stroke: #ff7f0e; stroke-width: 1.5; stroke-linecap: square"/>
    </g>
    <g id="text_16">
     <!-- Test Dice score -->
     <g transform="translate(94.6 72.748563) scale(0.1 -0.1)">
      <use xlink:href="#DejaVuSans-54"/>
      <use xlink:href="#DejaVuSans-65" x="44.083984"/>
      <use xlink:href="#DejaVuSans-73" x="105.607422"/>
      <use xlink:href="#DejaVuSans-74" x="157.707031"/>
      <use xlink:href="#DejaVuSans-20" x="196.916016"/>
      <use xlink:href="#DejaVuSans-44" x="228.703125"/>
      <use xlink:href="#DejaVuSans-69" x="305.705078"/>
      <use xlink:href="#DejaVuSans-63" x="333.488281"/>
      <use xlink:href="#DejaVuSans-65" x="388.46875"/>
      <use xlink:href="#DejaVuSans-20" x="449.992188"/>
      <use xlink:href="#DejaVuSans-73" x="481.779297"/>
      <use xlink:href="#DejaVuSans-63" x="533.878906"/>
      <use xlink:href="#DejaVuSans-6f" x="588.859375"/>
      <use xlink:href="#DejaVuSans-72" x="650.041016"/>
      <use xlink:href="#DejaVuSans-65" x="688.904297"/>
     </g>
    </g>
    <g id="line2d_71">
     <path d="M 66.6 83.926688 
L 76.6 83.926688 
L 86.6 83.926688 
" style="fill: none; stroke: #2ca02c; stroke-width: 1.5; stroke-linecap: square"/>
    </g>
    <g id="text_17">
     <!-- Train MSE loss -->
     <g transform="translate(94.6 87.426688) scale(0.1 -0.1)">
      <use xlink:href="#DejaVuSans-54"/>
      <use xlink:href="#DejaVuSans-72" x="46.333984"/>
      <use xlink:href="#DejaVuSans-61" x="87.447266"/>
      <use xlink:href="#DejaVuSans-69" x="148.726562"/>
      <use xlink:href="#DejaVuSans-6e" x="176.509766"/>
      <use xlink:href="#DejaVuSans-20" x="239.888672"/>
      <use xlink:href="#DejaVuSans-4d" x="271.675781"/>
      <use xlink:href="#DejaVuSans-53" x="357.955078"/>
      <use xlink:href="#DejaVuSans-45" x="421.431641"/>
      <use xlink:href="#DejaVuSans-20" x="484.615234"/>
      <use xlink:href="#DejaVuSans-6c" x="516.402344"/>
      <use xlink:href="#DejaVuSans-6f" x="544.185547"/>
      <use xlink:href="#DejaVuSans-73" x="605.367188"/>
      <use xlink:href="#DejaVuSans-73" x="657.466797"/>
     </g>
    </g>
    <g id="line2d_72">
     <path d="M 66.6 98.604813 
L 76.6 98.604813 
L 86.6 98.604813 
" style="fill: none; stroke: #d62728; stroke-width: 1.5; stroke-linecap: square"/>
    </g>
    <g id="text_18">
     <!-- Test MSE loss -->
     <g transform="translate(94.6 102.104813) scale(0.1 -0.1)">
      <use xlink:href="#DejaVuSans-54"/>
      <use xlink:href="#DejaVuSans-65" x="44.083984"/>
      <use xlink:href="#DejaVuSans-73" x="105.607422"/>
      <use xlink:href="#DejaVuSans-74" x="157.707031"/>
      <use xlink:href="#DejaVuSans-20" x="196.916016"/>
      <use xlink:href="#DejaVuSans-4d" x="228.703125"/>
      <use xlink:href="#DejaVuSans-53" x="314.982422"/>
      <use xlink:href="#DejaVuSans-45" x="378.458984"/>
      <use xlink:href="#DejaVuSans-20" x="441.642578"/>
      <use xlink:href="#DejaVuSans-6c" x="473.429688"/>
      <use xlink:href="#DejaVuSans-6f" x="501.212891"/>
      <use xlink:href="#DejaVuSans-73" x="562.394531"/>
      <use xlink:href="#DejaVuSans-73" x="614.494141"/>
     </g>
    </g>
   </g>
  </g>
 </g>
 <defs>
  <clipPath id="pcb3aab2d7a">
   <rect x="57.6" y="41.472" width="357.12" height="266.112"/>
  </clipPath>
 </defs>
</svg>
