<?xml version="1.0" encoding="utf-8" standalone="no"?>
<!DOCTYPE svg PUBLIC "-//W3C//DTD SVG 1.1//EN"
  "http://www.w3.org/Graphics/SVG/1.1/DTD/svg11.dtd">
<svg xmlns:xlink="http://www.w3.org/1999/xlink" width="460.8pt" height="345.6pt" viewBox="0 0 460.8 345.6" xmlns="http://www.w3.org/2000/svg" version="1.1">
 <metadata>
  <rdf:RDF xmlns:dc="http://purl.org/dc/elements/1.1/" xmlns:cc="http://creativecommons.org/ns#" xmlns:rdf="http://www.w3.org/1999/02/22-rdf-syntax-ns#">
   <cc:Work>
    <dc:type rdf:resource="http://purl.org/dc/dcmitype/StillImage"/>
    <dc:date>2023-03-21T22:00:25.189226</dc:date>
    <dc:format>image/svg+xml</dc:format>
    <dc:creator>
     <cc:Agent>
      <dc:title>Matplotlib v3.6.2, https://matplotlib.org/</dc:title>
     </cc:Agent>
    </dc:creator>
   </cc:Work>
  </rdf:RDF>
 </metadata>
 <defs>
  <style type="text/css">*{stroke-linejoin: round; stroke-linecap: butt}</style>
 </defs>
 <g id="figure_1">
  <g id="patch_1">
   <path d="M 0 345.6 
L 460.8 345.6 
L 460.8 0 
L 0 0 
z
" style="fill: #ffffff"/>
  </g>
  <g id="axes_1">
   <g id="patch_2">
    <path d="M 57.6 307.584 
L 414.72 307.584 
L 414.72 41.472 
L 57.6 41.472 
z
" style="fill: #ffffff"/>
   </g>
   <g id="matplotlib.axis_1">
    <g id="xtick_1">
     <g id="line2d_1">
      <defs>
       <path id="me6f53d1c9c" d="M 0 0 
L 0 3.5 
" style="stroke: #000000; stroke-width: 0.8"/>
      </defs>
      <g>
       <use xlink:href="#me6f53d1c9c" x="73.832727" y="307.584" style="stroke: #000000; stroke-width: 0.8"/>
      </g>
     </g>
     <g id="text_1">
      <!-- 0 -->
      <g transform="translate(70.651477 322.182437) scale(0.1 -0.1)">
       <defs>
        <path id="DejaVuSans-30" d="M 2034 4250 
Q 1547 4250 1301 3770 
Q 1056 3291 1056 2328 
Q 1056 1369 1301 889 
Q 1547 409 2034 409 
Q 2525 409 2770 889 
Q 3016 1369 3016 2328 
Q 3016 3291 2770 3770 
Q 2525 4250 2034 4250 
z
M 2034 4750 
Q 2819 4750 3233 4129 
Q 3647 3509 3647 2328 
Q 3647 1150 3233 529 
Q 2819 -91 2034 -91 
Q 1250 -91 836 529 
Q 422 1150 422 2328 
Q 422 3509 836 4129 
Q 1250 4750 2034 4750 
z
" transform="scale(0.015625)"/>
       </defs>
       <use xlink:href="#DejaVuSans-30"/>
      </g>
     </g>
    </g>
    <g id="xtick_2">
     <g id="line2d_2">
      <g>
       <use xlink:href="#me6f53d1c9c" x="138.893758" y="307.584" style="stroke: #000000; stroke-width: 0.8"/>
      </g>
     </g>
     <g id="text_2">
      <!-- 100 -->
      <g transform="translate(129.350008 322.182437) scale(0.1 -0.1)">
       <defs>
        <path id="DejaVuSans-31" d="M 794 531 
L 1825 531 
L 1825 4091 
L 703 3866 
L 703 4441 
L 1819 4666 
L 2450 4666 
L 2450 531 
L 3481 531 
L 3481 0 
L 794 0 
L 794 531 
z
" transform="scale(0.015625)"/>
       </defs>
       <use xlink:href="#DejaVuSans-31"/>
       <use xlink:href="#DejaVuSans-30" x="63.623047"/>
       <use xlink:href="#DejaVuSans-30" x="127.246094"/>
      </g>
     </g>
    </g>
    <g id="xtick_3">
     <g id="line2d_3">
      <g>
       <use xlink:href="#me6f53d1c9c" x="203.95479" y="307.584" style="stroke: #000000; stroke-width: 0.8"/>
      </g>
     </g>
     <g id="text_3">
      <!-- 200 -->
      <g transform="translate(194.41104 322.182437) scale(0.1 -0.1)">
       <defs>
        <path id="DejaVuSans-32" d="M 1228 531 
L 3431 531 
L 3431 0 
L 469 0 
L 469 531 
Q 828 903 1448 1529 
Q 2069 2156 2228 2338 
Q 2531 2678 2651 2914 
Q 2772 3150 2772 3378 
Q 2772 3750 2511 3984 
Q 2250 4219 1831 4219 
Q 1534 4219 1204 4116 
Q 875 4013 500 3803 
L 500 4441 
Q 881 4594 1212 4672 
Q 1544 4750 1819 4750 
Q 2544 4750 2975 4387 
Q 3406 4025 3406 3419 
Q 3406 3131 3298 2873 
Q 3191 2616 2906 2266 
Q 2828 2175 2409 1742 
Q 1991 1309 1228 531 
z
" transform="scale(0.015625)"/>
       </defs>
       <use xlink:href="#DejaVuSans-32"/>
       <use xlink:href="#DejaVuSans-30" x="63.623047"/>
       <use xlink:href="#DejaVuSans-30" x="127.246094"/>
      </g>
     </g>
    </g>
    <g id="xtick_4">
     <g id="line2d_4">
      <g>
       <use xlink:href="#me6f53d1c9c" x="269.015821" y="307.584" style="stroke: #000000; stroke-width: 0.8"/>
      </g>
     </g>
     <g id="text_4">
      <!-- 300 -->
      <g transform="translate(259.472071 322.182437) scale(0.1 -0.1)">
       <defs>
        <path id="DejaVuSans-33" d="M 2597 2516 
Q 3050 2419 3304 2112 
Q 3559 1806 3559 1356 
Q 3559 666 3084 287 
Q 2609 -91 1734 -91 
Q 1441 -91 1130 -33 
Q 819 25 488 141 
L 488 750 
Q 750 597 1062 519 
Q 1375 441 1716 441 
Q 2309 441 2620 675 
Q 2931 909 2931 1356 
Q 2931 1769 2642 2001 
Q 2353 2234 1838 2234 
L 1294 2234 
L 1294 2753 
L 1863 2753 
Q 2328 2753 2575 2939 
Q 2822 3125 2822 3475 
Q 2822 3834 2567 4026 
Q 2313 4219 1838 4219 
Q 1578 4219 1281 4162 
Q 984 4106 628 3988 
L 628 4550 
Q 988 4650 1302 4700 
Q 1616 4750 1894 4750 
Q 2613 4750 3031 4423 
Q 3450 4097 3450 3541 
Q 3450 3153 3228 2886 
Q 3006 2619 2597 2516 
z
" transform="scale(0.015625)"/>
       </defs>
       <use xlink:href="#DejaVuSans-33"/>
       <use xlink:href="#DejaVuSans-30" x="63.623047"/>
       <use xlink:href="#DejaVuSans-30" x="127.246094"/>
      </g>
     </g>
    </g>
    <g id="xtick_5">
     <g id="line2d_5">
      <g>
       <use xlink:href="#me6f53d1c9c" x="334.076852" y="307.584" style="stroke: #000000; stroke-width: 0.8"/>
      </g>
     </g>
     <g id="text_5">
      <!-- 400 -->
      <g transform="translate(324.533102 322.182437) scale(0.1 -0.1)">
       <defs>
        <path id="DejaVuSans-34" d="M 2419 4116 
L 825 1625 
L 2419 1625 
L 2419 4116 
z
M 2253 4666 
L 3047 4666 
L 3047 1625 
L 3713 1625 
L 3713 1100 
L 3047 1100 
L 3047 0 
L 2419 0 
L 2419 1100 
L 313 1100 
L 313 1709 
L 2253 4666 
z
" transform="scale(0.015625)"/>
       </defs>
       <use xlink:href="#DejaVuSans-34"/>
       <use xlink:href="#DejaVuSans-30" x="63.623047"/>
       <use xlink:href="#DejaVuSans-30" x="127.246094"/>
      </g>
     </g>
    </g>
    <g id="xtick_6">
     <g id="line2d_6">
      <g>
       <use xlink:href="#me6f53d1c9c" x="399.137883" y="307.584" style="stroke: #000000; stroke-width: 0.8"/>
      </g>
     </g>
     <g id="text_6">
      <!-- 500 -->
      <g transform="translate(389.594133 322.182437) scale(0.1 -0.1)">
       <defs>
        <path id="DejaVuSans-35" d="M 691 4666 
L 3169 4666 
L 3169 4134 
L 1269 4134 
L 1269 2991 
Q 1406 3038 1543 3061 
Q 1681 3084 1819 3084 
Q 2600 3084 3056 2656 
Q 3513 2228 3513 1497 
Q 3513 744 3044 326 
Q 2575 -91 1722 -91 
Q 1428 -91 1123 -41 
Q 819 9 494 109 
L 494 744 
Q 775 591 1075 516 
Q 1375 441 1709 441 
Q 2250 441 2565 725 
Q 2881 1009 2881 1497 
Q 2881 1984 2565 2268 
Q 2250 2553 1709 2553 
Q 1456 2553 1204 2497 
Q 953 2441 691 2322 
L 691 4666 
z
" transform="scale(0.015625)"/>
       </defs>
       <use xlink:href="#DejaVuSans-35"/>
       <use xlink:href="#DejaVuSans-30" x="63.623047"/>
       <use xlink:href="#DejaVuSans-30" x="127.246094"/>
      </g>
     </g>
    </g>
   </g>
   <g id="matplotlib.axis_2">
    <g id="ytick_1">
     <g id="line2d_7">
      <defs>
       <path id="mc75f4d50e5" d="M 0 0 
L -3.5 0 
" style="stroke: #000000; stroke-width: 0.8"/>
      </defs>
      <g>
       <use xlink:href="#mc75f4d50e5" x="57.6" y="295.579053" style="stroke: #000000; stroke-width: 0.8"/>
      </g>
     </g>
     <g id="text_7">
      <!-- 0.0 -->
      <g transform="translate(34.696875 299.378272) scale(0.1 -0.1)">
       <defs>
        <path id="DejaVuSans-2e" d="M 684 794 
L 1344 794 
L 1344 0 
L 684 0 
L 684 794 
z
" transform="scale(0.015625)"/>
       </defs>
       <use xlink:href="#DejaVuSans-30"/>
       <use xlink:href="#DejaVuSans-2e" x="63.623047"/>
       <use xlink:href="#DejaVuSans-30" x="95.410156"/>
      </g>
     </g>
    </g>
    <g id="ytick_2">
     <g id="line2d_8">
      <g>
       <use xlink:href="#mc75f4d50e5" x="57.6" y="241.772144" style="stroke: #000000; stroke-width: 0.8"/>
      </g>
     </g>
     <g id="text_8">
      <!-- 0.2 -->
      <g transform="translate(34.696875 245.571363) scale(0.1 -0.1)">
       <use xlink:href="#DejaVuSans-30"/>
       <use xlink:href="#DejaVuSans-2e" x="63.623047"/>
       <use xlink:href="#DejaVuSans-32" x="95.410156"/>
      </g>
     </g>
    </g>
    <g id="ytick_3">
     <g id="line2d_9">
      <g>
       <use xlink:href="#mc75f4d50e5" x="57.6" y="187.965235" style="stroke: #000000; stroke-width: 0.8"/>
      </g>
     </g>
     <g id="text_9">
      <!-- 0.4 -->
      <g transform="translate(34.696875 191.764453) scale(0.1 -0.1)">
       <use xlink:href="#DejaVuSans-30"/>
       <use xlink:href="#DejaVuSans-2e" x="63.623047"/>
       <use xlink:href="#DejaVuSans-34" x="95.410156"/>
      </g>
     </g>
    </g>
    <g id="ytick_4">
     <g id="line2d_10">
      <g>
       <use xlink:href="#mc75f4d50e5" x="57.6" y="134.158325" style="stroke: #000000; stroke-width: 0.8"/>
      </g>
     </g>
     <g id="text_10">
      <!-- 0.6 -->
      <g transform="translate(34.696875 137.957544) scale(0.1 -0.1)">
       <defs>
        <path id="DejaVuSans-36" d="M 2113 2584 
Q 1688 2584 1439 2293 
Q 1191 2003 1191 1497 
Q 1191 994 1439 701 
Q 1688 409 2113 409 
Q 2538 409 2786 701 
Q 3034 994 3034 1497 
Q 3034 2003 2786 2293 
Q 2538 2584 2113 2584 
z
M 3366 4563 
L 3366 3988 
Q 3128 4100 2886 4159 
Q 2644 4219 2406 4219 
Q 1781 4219 1451 3797 
Q 1122 3375 1075 2522 
Q 1259 2794 1537 2939 
Q 1816 3084 2150 3084 
Q 2853 3084 3261 2657 
Q 3669 2231 3669 1497 
Q 3669 778 3244 343 
Q 2819 -91 2113 -91 
Q 1303 -91 875 529 
Q 447 1150 447 2328 
Q 447 3434 972 4092 
Q 1497 4750 2381 4750 
Q 2619 4750 2861 4703 
Q 3103 4656 3366 4563 
z
" transform="scale(0.015625)"/>
       </defs>
       <use xlink:href="#DejaVuSans-30"/>
       <use xlink:href="#DejaVuSans-2e" x="63.623047"/>
       <use xlink:href="#DejaVuSans-36" x="95.410156"/>
      </g>
     </g>
    </g>
    <g id="ytick_5">
     <g id="line2d_11">
      <g>
       <use xlink:href="#mc75f4d50e5" x="57.6" y="80.351416" style="stroke: #000000; stroke-width: 0.8"/>
      </g>
     </g>
     <g id="text_11">
      <!-- 0.8 -->
      <g transform="translate(34.696875 84.150635) scale(0.1 -0.1)">
       <defs>
        <path id="DejaVuSans-38" d="M 2034 2216 
Q 1584 2216 1326 1975 
Q 1069 1734 1069 1313 
Q 1069 891 1326 650 
Q 1584 409 2034 409 
Q 2484 409 2743 651 
Q 3003 894 3003 1313 
Q 3003 1734 2745 1975 
Q 2488 2216 2034 2216 
z
M 1403 2484 
Q 997 2584 770 2862 
Q 544 3141 544 3541 
Q 544 4100 942 4425 
Q 1341 4750 2034 4750 
Q 2731 4750 3128 4425 
Q 3525 4100 3525 3541 
Q 3525 3141 3298 2862 
Q 3072 2584 2669 2484 
Q 3125 2378 3379 2068 
Q 3634 1759 3634 1313 
Q 3634 634 3220 271 
Q 2806 -91 2034 -91 
Q 1263 -91 848 271 
Q 434 634 434 1313 
Q 434 1759 690 2068 
Q 947 2378 1403 2484 
z
M 1172 3481 
Q 1172 3119 1398 2916 
Q 1625 2713 2034 2713 
Q 2441 2713 2670 2916 
Q 2900 3119 2900 3481 
Q 2900 3844 2670 4047 
Q 2441 4250 2034 4250 
Q 1625 4250 1398 4047 
Q 1172 3844 1172 3481 
z
" transform="scale(0.015625)"/>
       </defs>
       <use xlink:href="#DejaVuSans-30"/>
       <use xlink:href="#DejaVuSans-2e" x="63.623047"/>
       <use xlink:href="#DejaVuSans-38" x="95.410156"/>
      </g>
     </g>
    </g>
   </g>
   <g id="line2d_12">
    <path d="M 73.832727 295.48455 
L 77.736389 295.483957 
L 79.03761 285.31326 
L 79.68822 278.800658 
L 80.33883 263.461744 
L 80.989441 232.03378 
L 81.640051 249.071675 
L 82.290661 229.503023 
L 82.941272 205.833957 
L 83.591882 206.549855 
L 84.242492 181.547409 
L 84.893103 192.058154 
L 85.543713 170.086468 
L 86.194323 181.326804 
L 86.844934 173.488247 
L 87.495544 164.201038 
L 88.146154 151.861826 
L 88.796764 159.257083 
L 89.447375 153.743161 
L 90.097985 181.272871 
L 90.748595 168.286646 
L 91.399206 158.82908 
L 92.049816 143.753274 
L 92.700426 139.004945 
L 93.351037 135.153614 
L 94.001647 145.832851 
L 94.652257 161.88367 
L 95.302868 148.293333 
L 95.953478 148.166406 
L 96.604088 148.638486 
L 97.254698 148.128186 
L 97.905309 145.013493 
L 99.206529 126.324995 
L 99.85714 140.923441 
L 100.50775 123.487196 
L 101.15836 155.903917 
L 101.808971 152.239543 
L 102.459581 127.463102 
L 103.760802 148.801814 
L 104.411412 142.650601 
L 105.062022 125.06517 
L 105.712633 128.622914 
L 107.013853 112.485117 
L 107.664463 118.290827 
L 108.315074 117.950673 
L 108.965684 134.186982 
L 109.616294 118.221015 
L 110.266905 133.111989 
L 110.917515 115.153879 
L 111.568125 115.830208 
L 112.218736 114.692742 
L 112.869346 120.378056 
L 113.519956 115.708396 
L 114.170567 113.021826 
L 114.821177 107.364258 
L 115.471787 114.04878 
L 116.122398 105.18537 
L 116.773008 109.22514 
L 117.423618 107.612974 
L 118.074228 117.427859 
L 118.724839 105.100644 
L 119.375449 98.330423 
L 120.026059 110.547509 
L 120.67667 105.006047 
L 121.32728 111.06981 
L 121.97789 119.952764 
L 122.628501 100.055941 
L 123.279111 98.447147 
L 123.929721 101.675788 
L 124.580332 97.243275 
L 125.230942 95.752105 
L 125.881552 97.127028 
L 126.532163 110.132503 
L 127.182773 110.364225 
L 127.833383 107.710052 
L 129.785214 97.584797 
L 130.435824 100.876845 
L 131.086435 107.196591 
L 131.737045 117.294607 
L 132.387655 97.770795 
L 133.038266 99.281466 
L 133.688876 96.371647 
L 134.339486 91.906344 
L 134.990097 98.928873 
L 135.640707 93.851927 
L 136.291317 91.098265 
L 136.941927 91.137461 
L 137.592538 91.676758 
L 138.243148 104.006578 
L 138.893758 112.182918 
L 139.544369 102.067192 
L 140.194979 100.138341 
L 140.845589 93.061414 
L 141.4962 91.053333 
L 142.14681 91.856086 
L 142.79742 95.00513 
L 143.448031 88.458934 
L 144.098641 91.58343 
L 144.749251 87.540533 
L 145.399862 88.020841 
L 146.050472 84.289971 
L 146.701082 92.294261 
L 147.351692 84.214001 
L 148.002303 85.486915 
L 148.652913 82.992119 
L 149.303523 85.765013 
L 149.954134 82.445867 
L 151.255354 105.123128 
L 151.905965 102.01413 
L 152.556575 135.733656 
L 153.207185 105.328392 
L 153.857796 98.000474 
L 154.508406 94.934341 
L 155.159016 87.59209 
L 155.809627 89.632148 
L 156.460237 88.215155 
L 157.110847 85.782978 
L 157.761457 83.90483 
L 158.412068 86.324987 
L 159.062678 86.662468 
L 159.713288 80.564988 
L 160.363899 84.73975 
L 161.014509 82.790557 
L 161.665119 86.795143 
L 162.31573 80.494094 
L 162.96634 82.820406 
L 163.61695 80.574875 
L 164.267561 82.89866 
L 164.918171 83.320603 
L 165.568781 106.023755 
L 166.219392 86.943991 
L 166.870002 86.220118 
L 167.520612 81.882026 
L 168.171222 81.562487 
L 168.821833 79.899996 
L 169.472443 80.216388 
L 170.123053 83.77944 
L 170.773664 79.056126 
L 171.424274 82.027186 
L 172.074884 79.27399 
L 172.725495 78.904768 
L 173.376105 82.489312 
L 174.026715 122.157179 
L 174.677326 90.409413 
L 175.327936 86.163757 
L 175.978546 83.391412 
L 176.629156 83.841127 
L 177.279767 83.220272 
L 177.930377 82.949814 
L 178.580987 86.341701 
L 179.231598 84.23271 
L 179.882208 92.204993 
L 180.532818 86.571598 
L 181.183429 82.784323 
L 181.834039 77.265039 
L 182.484649 77.240245 
L 183.13526 76.212384 
L 183.78587 74.132797 
L 184.43648 74.587955 
L 185.087091 85.882081 
L 185.737701 82.018181 
L 186.388311 85.839687 
L 187.038921 76.809338 
L 187.689532 75.686477 
L 188.340142 73.636609 
L 188.990752 76.549154 
L 189.641363 71.445142 
L 190.291973 80.022331 
L 190.942583 80.851675 
L 191.593194 77.044412 
L 192.243804 78.367906 
L 192.894414 74.327798 
L 193.545025 81.824467 
L 194.195635 81.373942 
L 194.846245 78.338739 
L 195.496856 78.833008 
L 196.147466 74.86874 
L 196.798076 72.404072 
L 197.448686 68.830758 
L 198.749907 72.787605 
L 199.400517 74.062501 
L 200.051128 71.626205 
L 200.701738 74.863322 
L 201.352348 71.319383 
L 202.653569 76.496525 
L 203.304179 72.524794 
L 203.95479 72.472595 
L 204.6054 71.433834 
L 205.25601 71.58717 
L 205.906621 73.991988 
L 206.557231 71.954688 
L 207.207841 69.164204 
L 207.858451 78.15949 
L 208.509062 70.558814 
L 209.159672 74.5136 
L 209.810282 69.968299 
L 210.460893 68.090018 
L 211.111503 68.81348 
L 211.762113 69.083739 
L 212.412724 71.631635 
L 213.063334 65.398321 
L 213.713944 76.208201 
L 214.364555 68.506481 
L 215.015165 73.37727 
L 215.665775 79.320803 
L 216.316385 70.388579 
L 216.966996 71.692689 
L 217.617606 66.71737 
L 218.268216 71.424513 
L 218.918827 66.993157 
L 219.569437 65.792481 
L 220.220047 65.498189 
L 220.870658 65.925637 
L 221.521268 68.941319 
L 222.171878 66.029225 
L 222.822489 72.817663 
L 223.473099 69.660335 
L 224.123709 82.83161 
L 224.77432 73.258831 
L 225.42493 74.728208 
L 226.07554 75.920314 
L 226.72615 70.971309 
L 227.376761 70.960994 
L 228.027371 72.300326 
L 228.677981 68.647234 
L 229.328592 92.875274 
L 229.979202 88.896072 
L 230.629812 90.495845 
L 231.280423 137.594311 
L 231.931033 96.95416 
L 232.581643 99.928454 
L 233.232254 89.59407 
L 234.533474 78.002221 
L 235.184085 74.479473 
L 235.834695 74.392411 
L 236.485305 72.849423 
L 237.135915 76.043099 
L 237.786526 75.269764 
L 238.437136 68.615666 
L 239.087746 67.13751 
L 239.738357 70.478621 
L 240.388967 67.097866 
L 241.039577 68.839364 
L 241.690188 64.336945 
L 242.340798 69.799624 
L 242.991408 64.602368 
L 243.642019 72.32514 
L 244.292629 65.07119 
L 244.943239 63.578806 
L 245.59385 64.242735 
L 246.24446 62.23887 
L 246.89507 63.214239 
L 247.54568 64.814628 
L 248.196291 63.541253 
L 248.846901 63.441122 
L 249.497511 70.426652 
L 250.148122 70.664138 
L 251.449342 66.385521 
L 252.099953 64.920173 
L 252.750563 64.84963 
L 253.401173 62.244315 
L 254.051784 62.118286 
L 254.702394 61.837826 
L 255.353004 63.443206 
L 256.003615 69.240209 
L 256.654225 71.458937 
L 257.304835 68.908842 
L 257.955445 71.304898 
L 258.606056 65.663604 
L 259.256666 67.574216 
L 259.907276 65.436289 
L 260.557887 65.423877 
L 261.208497 63.009871 
L 261.859107 62.79127 
L 262.509718 65.228235 
L 263.160328 63.960626 
L 263.810938 63.407369 
L 264.461549 66.381454 
L 265.112159 63.685318 
L 265.762769 64.786767 
L 266.413379 67.558659 
L 267.06399 63.466563 
L 267.7146 65.798492 
L 269.015821 64.096838 
L 269.666431 62.777795 
L 270.317041 63.792666 
L 270.967652 65.810496 
L 271.618262 62.294468 
L 272.268872 60.998927 
L 272.919483 64.31874 
L 273.570093 62.528816 
L 274.220703 65.271589 
L 274.871314 70.290195 
L 275.521924 69.993757 
L 276.172534 66.31787 
L 276.823144 65.698984 
L 277.473755 63.081287 
L 278.124365 64.317835 
L 278.774975 63.7297 
L 279.425586 60.950254 
L 280.076196 62.878846 
L 280.726806 60.970922 
L 281.377417 62.051703 
L 282.028027 62.231237 
L 282.678637 65.420065 
L 283.329248 64.550181 
L 283.979858 64.786463 
L 284.630468 65.43762 
L 285.281079 64.65855 
L 285.931689 61.714351 
L 286.582299 60.035556 
L 287.232909 67.19673 
L 287.88352 61.284946 
L 288.53413 65.506044 
L 289.18474 64.913548 
L 290.485961 60.420876 
L 291.136571 60.113281 
L 291.787182 63.33592 
L 292.437792 60.844026 
L 293.088402 60.032477 
L 293.739013 58.866269 
L 294.389623 58.891088 
L 295.040233 61.93555 
L 295.690844 60.650714 
L 296.341454 58.733977 
L 297.642674 61.753572 
L 298.293285 59.639156 
L 298.943895 64.713674 
L 299.594505 62.196508 
L 300.245116 65.813018 
L 300.895726 63.037308 
L 301.546336 66.67004 
L 302.196947 61.628594 
L 302.847557 62.483119 
L 303.498167 60.350461 
L 304.148778 61.925967 
L 304.799388 59.228106 
L 305.449998 58.997755 
L 306.100608 58.582098 
L 306.751219 59.514648 
L 308.052439 63.170299 
L 308.70305 61.780805 
L 309.35366 61.551256 
L 310.00427 59.533946 
L 310.654881 59.33106 
L 311.305491 63.670957 
L 311.956101 59.265286 
L 312.606712 60.183176 
L 313.257322 60.4276 
L 313.907932 63.813562 
L 314.558543 70.739385 
L 315.209153 63.073437 
L 315.859763 60.217108 
L 316.510373 59.374159 
L 317.160984 59.843831 
L 317.811594 59.606296 
L 318.462204 57.633267 
L 319.112815 59.446453 
L 319.763425 56.750685 
L 320.414035 57.16562 
L 321.064646 56.819781 
L 321.715256 56.287225 
L 323.016477 60.785219 
L 323.667087 61.935068 
L 324.317697 58.768167 
L 324.968308 59.478561 
L 325.618918 59.101898 
L 326.269528 60.179007 
L 326.920138 62.070866 
L 327.570749 56.909395 
L 328.221359 58.073223 
L 328.871969 57.391946 
L 329.52258 59.612596 
L 330.17319 56.408982 
L 330.8238 57.241084 
L 331.474411 59.539166 
L 332.125021 57.665985 
L 332.775631 58.287543 
L 333.426242 61.287141 
L 334.076852 58.983804 
L 334.727462 61.657708 
L 335.378073 63.06078 
L 336.028683 59.289339 
L 336.679293 57.98406 
L 337.329903 59.640661 
L 337.980514 60.858715 
L 338.631124 63.399481 
L 339.932345 57.709733 
L 340.582955 59.937477 
L 341.233565 57.06455 
L 341.884176 58.494848 
L 342.534786 60.898255 
L 343.185396 66.377963 
L 343.836007 59.15742 
L 344.486617 64.888736 
L 345.137227 75.291831 
L 345.787837 68.419815 
L 346.438448 68.266475 
L 347.089058 64.591768 
L 348.390279 59.933927 
L 349.040889 59.457091 
L 349.691499 56.921371 
L 350.34211 62.246775 
L 350.99272 60.209832 
L 351.64333 59.925753 
L 352.293941 56.393121 
L 352.944551 58.590306 
L 353.595161 57.238111 
L 354.245772 57.249196 
L 354.896382 59.816937 
L 355.546992 72.451676 
L 356.197602 71.340215 
L 356.848213 66.828353 
L 357.498823 63.591422 
L 358.149433 63.653943 
L 358.800044 62.516241 
L 359.450654 64.909367 
L 360.101264 60.741366 
L 360.751875 59.191535 
L 361.402485 56.703989 
L 362.053095 57.299354 
L 362.703706 58.836074 
L 363.354316 57.479755 
L 364.004926 60.847126 
L 364.655537 57.227956 
L 365.306147 61.130216 
L 365.956757 57.508686 
L 366.607367 55.595397 
L 367.257978 56.529988 
L 367.908588 56.635546 
L 368.559198 54.791772 
L 369.209809 54.290532 
L 369.860419 55.578358 
L 370.511029 58.093506 
L 371.16164 55.284071 
L 371.81225 53.568 
L 373.113471 58.598093 
L 373.764081 66.602406 
L 374.414691 60.461293 
L 375.065302 59.046162 
L 375.715912 60.753816 
L 376.366522 58.024766 
L 377.017132 57.898775 
L 377.667743 58.061102 
L 378.318353 57.346753 
L 378.968963 58.770731 
L 379.619574 55.783109 
L 380.270184 56.700601 
L 380.920794 58.358936 
L 381.571405 66.827071 
L 382.222015 60.139656 
L 382.872625 62.133625 
L 383.523236 60.366176 
L 384.173846 56.996952 
L 384.824456 55.599337 
L 385.475066 55.739446 
L 386.125677 55.011173 
L 386.776287 55.870913 
L 387.426897 56.047398 
L 388.077508 55.365463 
L 388.728118 55.680684 
L 389.378728 55.767061 
L 390.029339 57.403673 
L 391.330559 55.724134 
L 391.98117 55.631381 
L 392.63178 55.908043 
L 393.28239 60.354992 
L 393.933001 57.470109 
L 394.583611 60.767605 
L 395.234221 57.920469 
L 395.884831 55.982004 
L 396.535442 55.460805 
L 397.186052 55.496848 
L 397.836662 56.858821 
L 398.487273 61.8769 
L 398.487273 61.8769 
" clip-path="url(#pf66a4cfb09)" style="fill: none; stroke: #1f77b4; stroke-width: 1.5; stroke-linecap: square"/>
   </g>
   <g id="line2d_13">
    <path d="M 73.832727 295.486912 
L 77.736389 295.402115 
L 78.386999 258.608222 
L 79.03761 292.253271 
L 79.68822 263.612301 
L 80.33883 245.970015 
L 80.989441 264.559594 
L 81.640051 249.391273 
L 82.290661 201.401136 
L 82.941272 168.21462 
L 83.591882 201.409403 
L 84.242492 226.497557 
L 84.893103 181.762284 
L 85.543713 178.257448 
L 86.194323 150.030263 
L 86.844934 160.215295 
L 87.495544 159.020426 
L 88.146154 156.901179 
L 88.796764 134.247782 
L 89.447375 182.459316 
L 90.097985 179.916502 
L 90.748595 171.760428 
L 91.399206 158.036956 
L 92.700426 138.345074 
L 93.351037 140.758216 
L 94.001647 122.537458 
L 94.652257 125.99466 
L 95.302868 152.405288 
L 95.953478 171.514865 
L 96.604088 159.72631 
L 97.254698 119.605457 
L 97.905309 126.469157 
L 98.555919 130.746273 
L 99.206529 128.28031 
L 99.85714 120.70545 
L 100.50775 150.632043 
L 101.15836 143.965125 
L 101.808971 131.293925 
L 102.459581 131.009595 
L 103.110191 119.008976 
L 103.760802 133.824391 
L 104.411412 132.652582 
L 105.062022 127.194091 
L 105.712633 124.410436 
L 106.363243 125.272067 
L 107.013853 126.408478 
L 107.664463 131.014727 
L 108.315074 130.516265 
L 108.965684 128.559283 
L 109.616294 118.597612 
L 110.266905 118.785783 
L 110.917515 109.214293 
L 111.568125 108.789259 
L 112.218736 109.89557 
L 112.869346 107.636372 
L 113.519956 107.070391 
L 114.170567 109.217164 
L 114.821177 114.519764 
L 115.471787 109.046584 
L 116.773008 113.605408 
L 117.423618 111.383011 
L 118.074228 105.189956 
L 118.724839 107.227469 
L 119.375449 128.613869 
L 120.026059 127.74875 
L 120.67667 129.936061 
L 121.32728 112.595799 
L 121.97789 116.847884 
L 122.628501 112.618979 
L 123.279111 102.604823 
L 123.929721 103.681685 
L 124.580332 101.77439 
L 125.230942 104.798933 
L 125.881552 122.551192 
L 126.532163 116.747268 
L 127.182773 105.949151 
L 127.833383 119.312516 
L 128.483993 116.677665 
L 129.134604 102.44352 
L 129.785214 108.622496 
L 130.435824 100.423454 
L 131.086435 106.114936 
L 131.737045 104.86379 
L 132.387655 106.243622 
L 133.038266 106.769457 
L 133.688876 103.889364 
L 134.339486 99.334806 
L 134.990097 98.109974 
L 136.291317 103.06852 
L 136.941927 97.936957 
L 137.592538 98.624255 
L 138.243148 122.996688 
L 138.893758 119.120505 
L 139.544369 120.343596 
L 140.845589 100.245321 
L 142.14681 98.00591 
L 142.79742 97.225316 
L 143.448031 98.517706 
L 144.098641 95.805386 
L 144.749251 96.628443 
L 145.399862 94.533121 
L 146.050472 95.840921 
L 146.701082 96.581779 
L 147.351692 100.567655 
L 148.002303 99.389736 
L 148.652913 93.38458 
L 149.303523 91.604824 
L 149.954134 101.044116 
L 150.604744 99.598553 
L 151.255354 99.454801 
L 151.905965 131.517968 
L 152.556575 101.114545 
L 153.207185 107.756744 
L 153.857796 111.598883 
L 154.508406 100.090689 
L 155.159016 98.456442 
L 155.809627 95.95718 
L 156.460237 93.978342 
L 157.110847 90.965874 
L 157.761457 103.546143 
L 158.412068 94.090111 
L 159.062678 96.303672 
L 159.713288 92.050417 
L 160.363899 98.18102 
L 161.014509 97.076248 
L 161.665119 91.465642 
L 162.31573 94.380822 
L 162.96634 94.095539 
L 163.61695 102.362869 
L 164.267561 102.35793 
L 164.918171 94.855439 
L 165.568781 93.522374 
L 166.219392 96.769718 
L 166.870002 92.78114 
L 167.520612 90.502714 
L 168.171222 95.639793 
L 168.821833 98.370081 
L 169.472443 110.338308 
L 170.123053 96.40509 
L 170.773664 92.683322 
L 171.424274 97.36255 
L 172.074884 91.298975 
L 172.725495 89.970513 
L 173.376105 116.162205 
L 174.026715 104.843079 
L 174.677326 101.972423 
L 175.327936 96.081722 
L 175.978546 94.911219 
L 176.629156 103.795026 
L 177.930377 93.008767 
L 179.231598 98.23834 
L 179.882208 91.473163 
L 180.532818 94.233999 
L 181.183429 94.731836 
L 181.834039 91.89471 
L 182.484649 90.926506 
L 183.13526 89.723916 
L 183.78587 95.075585 
L 184.43648 93.974156 
L 185.087091 92.444486 
L 185.737701 100.055154 
L 186.388311 95.437976 
L 187.038921 89.749822 
L 187.689532 90.936905 
L 188.340142 93.30044 
L 188.990752 89.340486 
L 189.641363 90.105397 
L 190.291973 94.379403 
L 190.942583 94.125886 
L 191.593194 95.679923 
L 192.243804 88.876044 
L 192.894414 97.002099 
L 193.545025 107.324549 
L 194.195635 93.459081 
L 194.846245 93.022213 
L 195.496856 94.266391 
L 196.147466 92.957436 
L 196.798076 89.116684 
L 197.448686 87.074689 
L 198.099297 89.544661 
L 198.749907 88.593807 
L 199.400517 85.512835 
L 200.051128 88.17906 
L 200.701738 86.388545 
L 201.352348 85.228169 
L 202.002959 87.192294 
L 202.653569 84.757513 
L 203.304179 86.015907 
L 203.95479 86.788491 
L 204.6054 88.396095 
L 205.25601 91.006725 
L 205.906621 88.598025 
L 206.557231 95.391721 
L 207.207841 94.124122 
L 208.509062 86.925548 
L 209.159672 85.163681 
L 209.810282 86.559381 
L 211.111503 84.199991 
L 211.762113 87.082915 
L 212.412724 85.180992 
L 213.063334 99.94207 
L 213.713944 92.977144 
L 214.364555 91.224153 
L 215.015165 97.200461 
L 215.665775 87.085016 
L 216.316385 86.44657 
L 216.966996 86.639415 
L 217.617606 84.716742 
L 218.268216 84.683813 
L 218.918827 84.460146 
L 219.569437 86.832974 
L 220.220047 84.908337 
L 220.870658 85.648457 
L 221.521268 86.563847 
L 222.171878 85.957409 
L 222.822489 82.83605 
L 223.473099 112.373512 
L 224.123709 98.201947 
L 224.77432 86.517656 
L 225.42493 88.286868 
L 226.07554 88.291991 
L 226.72615 90.091895 
L 227.376761 89.312961 
L 228.027371 85.999863 
L 228.677981 108.32715 
L 229.328592 92.114367 
L 229.979202 95.589706 
L 230.629812 127.306606 
L 231.280423 118.166324 
L 231.931033 122.246129 
L 232.581643 107.37426 
L 233.232254 95.36887 
L 233.882864 90.470146 
L 234.533474 91.551049 
L 235.184085 93.407791 
L 235.834695 94.925619 
L 236.485305 103.479299 
L 237.135915 93.211899 
L 237.786526 87.421429 
L 238.437136 88.38309 
L 239.087746 89.955664 
L 239.738357 86.653078 
L 241.039577 90.143386 
L 241.690188 90.556137 
L 242.340798 89.651739 
L 242.991408 84.984362 
L 243.642019 87.169331 
L 244.292629 87.342741 
L 244.943239 86.326895 
L 245.59385 89.149894 
L 246.89507 93.324927 
L 247.54568 86.214718 
L 248.196291 87.433311 
L 248.846901 98.035095 
L 249.497511 96.48587 
L 250.148122 97.429804 
L 250.798732 91.76373 
L 251.449342 84.380128 
L 252.099953 82.750788 
L 252.750563 86.995809 
L 253.401173 86.666676 
L 254.702394 91.570692 
L 255.353004 95.326624 
L 256.003615 92.226705 
L 256.654225 93.846256 
L 257.304835 93.518325 
L 258.606056 84.199462 
L 259.256666 84.892517 
L 259.907276 83.232829 
L 260.557887 84.430529 
L 261.208497 81.781381 
L 261.859107 85.491339 
L 262.509718 90.467107 
L 263.160328 91.551554 
L 264.461549 81.683123 
L 265.112159 83.862111 
L 265.762769 91.575319 
L 266.413379 91.707413 
L 267.06399 86.987647 
L 267.7146 84.118987 
L 268.36521 86.56962 
L 269.015821 86.756059 
L 269.666431 81.902299 
L 270.317041 84.732473 
L 270.967652 91.734281 
L 271.618262 87.573744 
L 272.268872 85.991108 
L 272.919483 84.766036 
L 273.570093 81.730356 
L 274.220703 89.434632 
L 274.871314 91.12401 
L 275.521924 95.876561 
L 276.172534 89.495816 
L 276.823144 87.672195 
L 277.473755 89.652365 
L 278.124365 84.624272 
L 278.774975 83.466341 
L 279.425586 83.574591 
L 280.076196 80.641499 
L 281.377417 89.907982 
L 282.028027 89.152516 
L 282.678637 82.941549 
L 283.329248 84.07266 
L 283.979858 84.067384 
L 284.630468 83.25645 
L 285.281079 80.989386 
L 285.931689 84.292501 
L 286.582299 81.355385 
L 287.232909 81.694436 
L 287.88352 90.400118 
L 288.53413 84.435997 
L 289.18474 81.491135 
L 289.835351 81.795124 
L 290.485961 81.739592 
L 291.136571 84.483238 
L 291.787182 81.133282 
L 292.437792 82.956887 
L 293.088402 85.156818 
L 293.739013 82.51746 
L 294.389623 81.37284 
L 295.040233 81.403668 
L 295.690844 83.934015 
L 296.341454 86.96215 
L 296.992064 82.343289 
L 297.642674 82.16425 
L 298.293285 88.058816 
L 298.943895 85.015311 
L 299.594505 92.697906 
L 300.245116 95.912866 
L 300.895726 86.153854 
L 301.546336 83.808327 
L 302.196947 83.163844 
L 302.847557 89.956474 
L 303.498167 90.631401 
L 304.148778 83.3382 
L 304.799388 80.362718 
L 305.449998 79.975945 
L 306.100608 83.7315 
L 306.751219 82.416748 
L 308.052439 94.705297 
L 308.70305 80.834328 
L 310.00427 85.936602 
L 310.654881 83.322726 
L 311.305491 81.204256 
L 311.956101 85.075541 
L 312.606712 90.296559 
L 313.257322 80.542358 
L 313.907932 83.640409 
L 314.558543 85.585428 
L 315.209153 81.161882 
L 315.859763 82.506179 
L 317.160984 83.152426 
L 317.811594 84.276522 
L 318.462204 84.117199 
L 319.112815 82.56046 
L 319.763425 84.463193 
L 320.414035 83.552189 
L 321.064646 83.50259 
L 321.715256 80.208615 
L 322.365866 83.491301 
L 323.016477 90.348162 
L 323.667087 83.646847 
L 324.317697 86.951141 
L 324.968308 91.100966 
L 325.618918 83.98569 
L 326.269528 84.225055 
L 326.920138 84.85056 
L 327.570749 84.548239 
L 328.221359 81.142599 
L 328.871969 86.446546 
L 329.52258 84.975783 
L 330.17319 81.240593 
L 330.8238 90.53226 
L 331.474411 81.374884 
L 332.125021 88.99842 
L 332.775631 90.237211 
L 333.426242 79.129115 
L 334.076852 82.956101 
L 334.727462 97.725566 
L 335.378073 83.877353 
L 336.028683 84.477 
L 336.679293 81.115683 
L 337.329903 82.633743 
L 337.980514 97.025319 
L 338.631124 89.368613 
L 339.932345 80.707278 
L 340.582955 81.546154 
L 341.233565 81.467025 
L 341.884176 85.213207 
L 342.534786 95.172345 
L 343.836007 82.791318 
L 344.486617 101.429767 
L 345.137227 85.961963 
L 345.787837 84.871871 
L 346.438448 91.779357 
L 347.089058 90.535419 
L 347.739668 88.497248 
L 349.040889 81.811112 
L 349.691499 87.488442 
L 350.34211 86.103991 
L 350.99272 81.142479 
L 351.64333 79.763696 
L 352.293941 83.994317 
L 352.944551 84.018178 
L 353.595161 84.98522 
L 354.245772 82.029045 
L 354.896382 113.200971 
L 355.546992 89.723114 
L 356.197602 87.709903 
L 357.498823 89.538263 
L 358.149433 80.982915 
L 358.800044 81.027904 
L 359.450654 80.815182 
L 360.101264 82.692659 
L 360.751875 81.562109 
L 361.402485 81.022187 
L 362.053095 80.816882 
L 362.703706 83.250068 
L 363.354316 78.86884 
L 364.004926 80.187496 
L 364.655537 88.224898 
L 365.306147 83.779735 
L 366.607367 81.907775 
L 367.257978 85.506813 
L 367.908588 78.402706 
L 369.209809 84.324148 
L 369.860419 80.82963 
L 370.511029 78.540942 
L 371.16164 79.95841 
L 371.81225 79.59662 
L 372.46286 78.111666 
L 373.113471 103.84189 
L 373.764081 81.275479 
L 374.414691 85.905549 
L 375.065302 85.822292 
L 375.715912 79.87937 
L 376.366522 83.34285 
L 377.017132 89.974362 
L 377.667743 87.348001 
L 378.318353 80.052596 
L 378.968963 78.315712 
L 379.619574 86.156436 
L 380.270184 87.269073 
L 380.920794 89.524239 
L 381.571405 89.372421 
L 382.222015 83.527895 
L 383.523236 80.609917 
L 384.173846 83.454716 
L 384.824456 80.816465 
L 385.475066 80.708681 
L 386.125677 83.044514 
L 386.776287 79.886065 
L 387.426897 81.844458 
L 388.077508 85.735082 
L 388.728118 79.997256 
L 389.378728 78.496948 
L 390.029339 81.686338 
L 390.679949 80.507874 
L 391.330559 78.913066 
L 391.98117 82.893658 
L 392.63178 79.983674 
L 393.28239 85.152256 
L 393.933001 92.296653 
L 394.583611 84.688615 
L 395.234221 79.183444 
L 395.884831 82.730639 
L 396.535442 89.070172 
L 397.186052 82.598168 
L 397.836662 86.267764 
L 398.487273 80.380309 
L 398.487273 80.380309 
" clip-path="url(#pf66a4cfb09)" style="fill: none; stroke: #ff7f0e; stroke-width: 1.5; stroke-linecap: square"/>
   </g>
   <g id="patch_3">
    <path d="M 57.6 307.584 
L 57.6 41.472 
" style="fill: none; stroke: #000000; stroke-width: 0.8; stroke-linejoin: miter; stroke-linecap: square"/>
   </g>
   <g id="patch_4">
    <path d="M 414.72 307.584 
L 414.72 41.472 
" style="fill: none; stroke: #000000; stroke-width: 0.8; stroke-linejoin: miter; stroke-linecap: square"/>
   </g>
   <g id="patch_5">
    <path d="M 57.6 307.584 
L 414.72 307.584 
" style="fill: none; stroke: #000000; stroke-width: 0.8; stroke-linejoin: miter; stroke-linecap: square"/>
   </g>
   <g id="patch_6">
    <path d="M 57.6 41.472 
L 414.72 41.472 
" style="fill: none; stroke: #000000; stroke-width: 0.8; stroke-linejoin: miter; stroke-linecap: square"/>
   </g>
   <g id="text_12">
    <!-- Dice score during training -->
    <g transform="translate(158.442187 35.472) scale(0.12 -0.12)">
     <defs>
      <path id="DejaVuSans-44" d="M 1259 4147 
L 1259 519 
L 2022 519 
Q 2988 519 3436 956 
Q 3884 1394 3884 2338 
Q 3884 3275 3436 3711 
Q 2988 4147 2022 4147 
L 1259 4147 
z
M 628 4666 
L 1925 4666 
Q 3281 4666 3915 4102 
Q 4550 3538 4550 2338 
Q 4550 1131 3912 565 
Q 3275 0 1925 0 
L 628 0 
L 628 4666 
z
" transform="scale(0.015625)"/>
      <path id="DejaVuSans-69" d="M 603 3500 
L 1178 3500 
L 1178 0 
L 603 0 
L 603 3500 
z
M 603 4863 
L 1178 4863 
L 1178 4134 
L 603 4134 
L 603 4863 
z
" transform="scale(0.015625)"/>
      <path id="DejaVuSans-63" d="M 3122 3366 
L 3122 2828 
Q 2878 2963 2633 3030 
Q 2388 3097 2138 3097 
Q 1578 3097 1268 2742 
Q 959 2388 959 1747 
Q 959 1106 1268 751 
Q 1578 397 2138 397 
Q 2388 397 2633 464 
Q 2878 531 3122 666 
L 3122 134 
Q 2881 22 2623 -34 
Q 2366 -91 2075 -91 
Q 1284 -91 818 406 
Q 353 903 353 1747 
Q 353 2603 823 3093 
Q 1294 3584 2113 3584 
Q 2378 3584 2631 3529 
Q 2884 3475 3122 3366 
z
" transform="scale(0.015625)"/>
      <path id="DejaVuSans-65" d="M 3597 1894 
L 3597 1613 
L 953 1613 
Q 991 1019 1311 708 
Q 1631 397 2203 397 
Q 2534 397 2845 478 
Q 3156 559 3463 722 
L 3463 178 
Q 3153 47 2828 -22 
Q 2503 -91 2169 -91 
Q 1331 -91 842 396 
Q 353 884 353 1716 
Q 353 2575 817 3079 
Q 1281 3584 2069 3584 
Q 2775 3584 3186 3129 
Q 3597 2675 3597 1894 
z
M 3022 2063 
Q 3016 2534 2758 2815 
Q 2500 3097 2075 3097 
Q 1594 3097 1305 2825 
Q 1016 2553 972 2059 
L 3022 2063 
z
" transform="scale(0.015625)"/>
      <path id="DejaVuSans-20" transform="scale(0.015625)"/>
      <path id="DejaVuSans-73" d="M 2834 3397 
L 2834 2853 
Q 2591 2978 2328 3040 
Q 2066 3103 1784 3103 
Q 1356 3103 1142 2972 
Q 928 2841 928 2578 
Q 928 2378 1081 2264 
Q 1234 2150 1697 2047 
L 1894 2003 
Q 2506 1872 2764 1633 
Q 3022 1394 3022 966 
Q 3022 478 2636 193 
Q 2250 -91 1575 -91 
Q 1294 -91 989 -36 
Q 684 19 347 128 
L 347 722 
Q 666 556 975 473 
Q 1284 391 1588 391 
Q 1994 391 2212 530 
Q 2431 669 2431 922 
Q 2431 1156 2273 1281 
Q 2116 1406 1581 1522 
L 1381 1569 
Q 847 1681 609 1914 
Q 372 2147 372 2553 
Q 372 3047 722 3315 
Q 1072 3584 1716 3584 
Q 2034 3584 2315 3537 
Q 2597 3491 2834 3397 
z
" transform="scale(0.015625)"/>
      <path id="DejaVuSans-6f" d="M 1959 3097 
Q 1497 3097 1228 2736 
Q 959 2375 959 1747 
Q 959 1119 1226 758 
Q 1494 397 1959 397 
Q 2419 397 2687 759 
Q 2956 1122 2956 1747 
Q 2956 2369 2687 2733 
Q 2419 3097 1959 3097 
z
M 1959 3584 
Q 2709 3584 3137 3096 
Q 3566 2609 3566 1747 
Q 3566 888 3137 398 
Q 2709 -91 1959 -91 
Q 1206 -91 779 398 
Q 353 888 353 1747 
Q 353 2609 779 3096 
Q 1206 3584 1959 3584 
z
" transform="scale(0.015625)"/>
      <path id="DejaVuSans-72" d="M 2631 2963 
Q 2534 3019 2420 3045 
Q 2306 3072 2169 3072 
Q 1681 3072 1420 2755 
Q 1159 2438 1159 1844 
L 1159 0 
L 581 0 
L 581 3500 
L 1159 3500 
L 1159 2956 
Q 1341 3275 1631 3429 
Q 1922 3584 2338 3584 
Q 2397 3584 2469 3576 
Q 2541 3569 2628 3553 
L 2631 2963 
z
" transform="scale(0.015625)"/>
      <path id="DejaVuSans-64" d="M 2906 2969 
L 2906 4863 
L 3481 4863 
L 3481 0 
L 2906 0 
L 2906 525 
Q 2725 213 2448 61 
Q 2172 -91 1784 -91 
Q 1150 -91 751 415 
Q 353 922 353 1747 
Q 353 2572 751 3078 
Q 1150 3584 1784 3584 
Q 2172 3584 2448 3432 
Q 2725 3281 2906 2969 
z
M 947 1747 
Q 947 1113 1208 752 
Q 1469 391 1925 391 
Q 2381 391 2643 752 
Q 2906 1113 2906 1747 
Q 2906 2381 2643 2742 
Q 2381 3103 1925 3103 
Q 1469 3103 1208 2742 
Q 947 2381 947 1747 
z
" transform="scale(0.015625)"/>
      <path id="DejaVuSans-75" d="M 544 1381 
L 544 3500 
L 1119 3500 
L 1119 1403 
Q 1119 906 1312 657 
Q 1506 409 1894 409 
Q 2359 409 2629 706 
Q 2900 1003 2900 1516 
L 2900 3500 
L 3475 3500 
L 3475 0 
L 2900 0 
L 2900 538 
Q 2691 219 2414 64 
Q 2138 -91 1772 -91 
Q 1169 -91 856 284 
Q 544 659 544 1381 
z
M 1991 3584 
L 1991 3584 
z
" transform="scale(0.015625)"/>
      <path id="DejaVuSans-6e" d="M 3513 2113 
L 3513 0 
L 2938 0 
L 2938 2094 
Q 2938 2591 2744 2837 
Q 2550 3084 2163 3084 
Q 1697 3084 1428 2787 
Q 1159 2491 1159 1978 
L 1159 0 
L 581 0 
L 581 3500 
L 1159 3500 
L 1159 2956 
Q 1366 3272 1645 3428 
Q 1925 3584 2291 3584 
Q 2894 3584 3203 3211 
Q 3513 2838 3513 2113 
z
" transform="scale(0.015625)"/>
      <path id="DejaVuSans-67" d="M 2906 1791 
Q 2906 2416 2648 2759 
Q 2391 3103 1925 3103 
Q 1463 3103 1205 2759 
Q 947 2416 947 1791 
Q 947 1169 1205 825 
Q 1463 481 1925 481 
Q 2391 481 2648 825 
Q 2906 1169 2906 1791 
z
M 3481 434 
Q 3481 -459 3084 -895 
Q 2688 -1331 1869 -1331 
Q 1566 -1331 1297 -1286 
Q 1028 -1241 775 -1147 
L 775 -588 
Q 1028 -725 1275 -790 
Q 1522 -856 1778 -856 
Q 2344 -856 2625 -561 
Q 2906 -266 2906 331 
L 2906 616 
Q 2728 306 2450 153 
Q 2172 0 1784 0 
Q 1141 0 747 490 
Q 353 981 353 1791 
Q 353 2603 747 3093 
Q 1141 3584 1784 3584 
Q 2172 3584 2450 3431 
Q 2728 3278 2906 2969 
L 2906 3500 
L 3481 3500 
L 3481 434 
z
" transform="scale(0.015625)"/>
      <path id="DejaVuSans-74" d="M 1172 4494 
L 1172 3500 
L 2356 3500 
L 2356 3053 
L 1172 3053 
L 1172 1153 
Q 1172 725 1289 603 
Q 1406 481 1766 481 
L 2356 481 
L 2356 0 
L 1766 0 
Q 1100 0 847 248 
Q 594 497 594 1153 
L 594 3053 
L 172 3053 
L 172 3500 
L 594 3500 
L 594 4494 
L 1172 4494 
z
" transform="scale(0.015625)"/>
      <path id="DejaVuSans-61" d="M 2194 1759 
Q 1497 1759 1228 1600 
Q 959 1441 959 1056 
Q 959 750 1161 570 
Q 1363 391 1709 391 
Q 2188 391 2477 730 
Q 2766 1069 2766 1631 
L 2766 1759 
L 2194 1759 
z
M 3341 1997 
L 3341 0 
L 2766 0 
L 2766 531 
Q 2569 213 2275 61 
Q 1981 -91 1556 -91 
Q 1019 -91 701 211 
Q 384 513 384 1019 
Q 384 1609 779 1909 
Q 1175 2209 1959 2209 
L 2766 2209 
L 2766 2266 
Q 2766 2663 2505 2880 
Q 2244 3097 1772 3097 
Q 1472 3097 1187 3025 
Q 903 2953 641 2809 
L 641 3341 
Q 956 3463 1253 3523 
Q 1550 3584 1831 3584 
Q 2591 3584 2966 3190 
Q 3341 2797 3341 1997 
z
" transform="scale(0.015625)"/>
     </defs>
     <use xlink:href="#DejaVuSans-44"/>
     <use xlink:href="#DejaVuSans-69" x="77.001953"/>
     <use xlink:href="#DejaVuSans-63" x="104.785156"/>
     <use xlink:href="#DejaVuSans-65" x="159.765625"/>
     <use xlink:href="#DejaVuSans-20" x="221.289062"/>
     <use xlink:href="#DejaVuSans-73" x="253.076172"/>
     <use xlink:href="#DejaVuSans-63" x="305.175781"/>
     <use xlink:href="#DejaVuSans-6f" x="360.15625"/>
     <use xlink:href="#DejaVuSans-72" x="421.337891"/>
     <use xlink:href="#DejaVuSans-65" x="460.201172"/>
     <use xlink:href="#DejaVuSans-20" x="521.724609"/>
     <use xlink:href="#DejaVuSans-64" x="553.511719"/>
     <use xlink:href="#DejaVuSans-75" x="616.988281"/>
     <use xlink:href="#DejaVuSans-72" x="680.367188"/>
     <use xlink:href="#DejaVuSans-69" x="721.480469"/>
     <use xlink:href="#DejaVuSans-6e" x="749.263672"/>
     <use xlink:href="#DejaVuSans-67" x="812.642578"/>
     <use xlink:href="#DejaVuSans-20" x="876.119141"/>
     <use xlink:href="#DejaVuSans-74" x="907.90625"/>
     <use xlink:href="#DejaVuSans-72" x="947.115234"/>
     <use xlink:href="#DejaVuSans-61" x="988.228516"/>
     <use xlink:href="#DejaVuSans-69" x="1049.507812"/>
     <use xlink:href="#DejaVuSans-6e" x="1077.291016"/>
     <use xlink:href="#DejaVuSans-69" x="1140.669922"/>
     <use xlink:href="#DejaVuSans-6e" x="1168.453125"/>
     <use xlink:href="#DejaVuSans-67" x="1231.832031"/>
    </g>
   </g>
   <g id="legend_1">
    <g id="patch_7">
     <path d="M 64.6 78.82825 
L 175.939063 78.82825 
Q 177.939063 78.82825 177.939063 76.82825 
L 177.939063 48.472 
Q 177.939063 46.472 175.939063 46.472 
L 64.6 46.472 
Q 62.6 46.472 62.6 48.472 
L 62.6 76.82825 
Q 62.6 78.82825 64.6 78.82825 
z
" style="fill: #ffffff; opacity: 0.8; stroke: #cccccc; stroke-linejoin: miter"/>
    </g>
    <g id="line2d_14">
     <path d="M 66.6 54.570437 
L 76.6 54.570437 
L 86.6 54.570437 
" style="fill: none; stroke: #1f77b4; stroke-width: 1.5; stroke-linecap: square"/>
    </g>
    <g id="text_13">
     <!-- Train Dice score -->
     <g transform="translate(94.6 58.070437) scale(0.1 -0.1)">
      <defs>
       <path id="DejaVuSans-54" d="M -19 4666 
L 3928 4666 
L 3928 4134 
L 2272 4134 
L 2272 0 
L 1638 0 
L 1638 4134 
L -19 4134 
L -19 4666 
z
" transform="scale(0.015625)"/>
      </defs>
      <use xlink:href="#DejaVuSans-54"/>
      <use xlink:href="#DejaVuSans-72" x="46.333984"/>
      <use xlink:href="#DejaVuSans-61" x="87.447266"/>
      <use xlink:href="#DejaVuSans-69" x="148.726562"/>
      <use xlink:href="#DejaVuSans-6e" x="176.509766"/>
      <use xlink:href="#DejaVuSans-20" x="239.888672"/>
      <use xlink:href="#DejaVuSans-44" x="271.675781"/>
      <use xlink:href="#DejaVuSans-69" x="348.677734"/>
      <use xlink:href="#DejaVuSans-63" x="376.460938"/>
      <use xlink:href="#DejaVuSans-65" x="431.441406"/>
      <use xlink:href="#DejaVuSans-20" x="492.964844"/>
      <use xlink:href="#DejaVuSans-73" x="524.751953"/>
      <use xlink:href="#DejaVuSans-63" x="576.851562"/>
      <use xlink:href="#DejaVuSans-6f" x="631.832031"/>
      <use xlink:href="#DejaVuSans-72" x="693.013672"/>
      <use xlink:href="#DejaVuSans-65" x="731.876953"/>
     </g>
    </g>
    <g id="line2d_15">
     <path d="M 66.6 69.248562 
L 76.6 69.248562 
L 86.6 69.248562 
" style="fill: none; stroke: #ff7f0e; stroke-width: 1.5; stroke-linecap: square"/>
    </g>
    <g id="text_14">
     <!-- Test Dice score -->
     <g transform="translate(94.6 72.748562) scale(0.1 -0.1)">
      <use xlink:href="#DejaVuSans-54"/>
      <use xlink:href="#DejaVuSans-65" x="44.083984"/>
      <use xlink:href="#DejaVuSans-73" x="105.607422"/>
      <use xlink:href="#DejaVuSans-74" x="157.707031"/>
      <use xlink:href="#DejaVuSans-20" x="196.916016"/>
      <use xlink:href="#DejaVuSans-44" x="228.703125"/>
      <use xlink:href="#DejaVuSans-69" x="305.705078"/>
      <use xlink:href="#DejaVuSans-63" x="333.488281"/>
      <use xlink:href="#DejaVuSans-65" x="388.46875"/>
      <use xlink:href="#DejaVuSans-20" x="449.992188"/>
      <use xlink:href="#DejaVuSans-73" x="481.779297"/>
      <use xlink:href="#DejaVuSans-63" x="533.878906"/>
      <use xlink:href="#DejaVuSans-6f" x="588.859375"/>
      <use xlink:href="#DejaVuSans-72" x="650.041016"/>
      <use xlink:href="#DejaVuSans-65" x="688.904297"/>
     </g>
    </g>
   </g>
  </g>
 </g>
 <defs>
  <clipPath id="pf66a4cfb09">
   <rect x="57.6" y="41.472" width="357.12" height="266.112"/>
  </clipPath>
 </defs>
</svg>
