<?xml version="1.0" encoding="utf-8" standalone="no"?>
<!DOCTYPE svg PUBLIC "-//W3C//DTD SVG 1.1//EN"
  "http://www.w3.org/Graphics/SVG/1.1/DTD/svg11.dtd">
<svg xmlns:xlink="http://www.w3.org/1999/xlink" width="460.8pt" height="345.6pt" viewBox="0 0 460.8 345.6" xmlns="http://www.w3.org/2000/svg" version="1.1">
 <metadata>
  <rdf:RDF xmlns:dc="http://purl.org/dc/elements/1.1/" xmlns:cc="http://creativecommons.org/ns#" xmlns:rdf="http://www.w3.org/1999/02/22-rdf-syntax-ns#">
   <cc:Work>
    <dc:type rdf:resource="http://purl.org/dc/dcmitype/StillImage"/>
    <dc:date>2023-03-22T07:52:15.109341</dc:date>
    <dc:format>image/svg+xml</dc:format>
    <dc:creator>
     <cc:Agent>
      <dc:title>Matplotlib v3.6.2, https://matplotlib.org/</dc:title>
     </cc:Agent>
    </dc:creator>
   </cc:Work>
  </rdf:RDF>
 </metadata>
 <defs>
  <style type="text/css">*{stroke-linejoin: round; stroke-linecap: butt}</style>
 </defs>
 <g id="figure_1">
  <g id="patch_1">
   <path d="M 0 345.6 
L 460.8 345.6 
L 460.8 0 
L 0 0 
z
" style="fill: #ffffff"/>
  </g>
  <g id="axes_1">
   <g id="patch_2">
    <path d="M 57.6 307.584 
L 414.72 307.584 
L 414.72 41.472 
L 57.6 41.472 
z
" style="fill: #ffffff"/>
   </g>
   <g id="matplotlib.axis_1">
    <g id="xtick_1">
     <g id="line2d_1">
      <defs>
       <path id="m78c370f1f3" d="M 0 0 
L 0 3.5 
" style="stroke: #000000; stroke-width: 0.8"/>
      </defs>
      <g>
       <use xlink:href="#m78c370f1f3" x="73.832727" y="307.584" style="stroke: #000000; stroke-width: 0.8"/>
      </g>
     </g>
     <g id="text_1">
      <!-- 0 -->
      <g transform="translate(70.651477 322.182437) scale(0.1 -0.1)">
       <defs>
        <path id="DejaVuSans-30" d="M 2034 4250 
Q 1547 4250 1301 3770 
Q 1056 3291 1056 2328 
Q 1056 1369 1301 889 
Q 1547 409 2034 409 
Q 2525 409 2770 889 
Q 3016 1369 3016 2328 
Q 3016 3291 2770 3770 
Q 2525 4250 2034 4250 
z
M 2034 4750 
Q 2819 4750 3233 4129 
Q 3647 3509 3647 2328 
Q 3647 1150 3233 529 
Q 2819 -91 2034 -91 
Q 1250 -91 836 529 
Q 422 1150 422 2328 
Q 422 3509 836 4129 
Q 1250 4750 2034 4750 
z
" transform="scale(0.015625)"/>
       </defs>
       <use xlink:href="#DejaVuSans-30"/>
      </g>
     </g>
    </g>
    <g id="xtick_2">
     <g id="line2d_2">
      <g>
       <use xlink:href="#m78c370f1f3" x="138.893758" y="307.584" style="stroke: #000000; stroke-width: 0.8"/>
      </g>
     </g>
     <g id="text_2">
      <!-- 100 -->
      <g transform="translate(129.350008 322.182437) scale(0.1 -0.1)">
       <defs>
        <path id="DejaVuSans-31" d="M 794 531 
L 1825 531 
L 1825 4091 
L 703 3866 
L 703 4441 
L 1819 4666 
L 2450 4666 
L 2450 531 
L 3481 531 
L 3481 0 
L 794 0 
L 794 531 
z
" transform="scale(0.015625)"/>
       </defs>
       <use xlink:href="#DejaVuSans-31"/>
       <use xlink:href="#DejaVuSans-30" x="63.623047"/>
       <use xlink:href="#DejaVuSans-30" x="127.246094"/>
      </g>
     </g>
    </g>
    <g id="xtick_3">
     <g id="line2d_3">
      <g>
       <use xlink:href="#m78c370f1f3" x="203.95479" y="307.584" style="stroke: #000000; stroke-width: 0.8"/>
      </g>
     </g>
     <g id="text_3">
      <!-- 200 -->
      <g transform="translate(194.41104 322.182437) scale(0.1 -0.1)">
       <defs>
        <path id="DejaVuSans-32" d="M 1228 531 
L 3431 531 
L 3431 0 
L 469 0 
L 469 531 
Q 828 903 1448 1529 
Q 2069 2156 2228 2338 
Q 2531 2678 2651 2914 
Q 2772 3150 2772 3378 
Q 2772 3750 2511 3984 
Q 2250 4219 1831 4219 
Q 1534 4219 1204 4116 
Q 875 4013 500 3803 
L 500 4441 
Q 881 4594 1212 4672 
Q 1544 4750 1819 4750 
Q 2544 4750 2975 4387 
Q 3406 4025 3406 3419 
Q 3406 3131 3298 2873 
Q 3191 2616 2906 2266 
Q 2828 2175 2409 1742 
Q 1991 1309 1228 531 
z
" transform="scale(0.015625)"/>
       </defs>
       <use xlink:href="#DejaVuSans-32"/>
       <use xlink:href="#DejaVuSans-30" x="63.623047"/>
       <use xlink:href="#DejaVuSans-30" x="127.246094"/>
      </g>
     </g>
    </g>
    <g id="xtick_4">
     <g id="line2d_4">
      <g>
       <use xlink:href="#m78c370f1f3" x="269.015821" y="307.584" style="stroke: #000000; stroke-width: 0.8"/>
      </g>
     </g>
     <g id="text_4">
      <!-- 300 -->
      <g transform="translate(259.472071 322.182437) scale(0.1 -0.1)">
       <defs>
        <path id="DejaVuSans-33" d="M 2597 2516 
Q 3050 2419 3304 2112 
Q 3559 1806 3559 1356 
Q 3559 666 3084 287 
Q 2609 -91 1734 -91 
Q 1441 -91 1130 -33 
Q 819 25 488 141 
L 488 750 
Q 750 597 1062 519 
Q 1375 441 1716 441 
Q 2309 441 2620 675 
Q 2931 909 2931 1356 
Q 2931 1769 2642 2001 
Q 2353 2234 1838 2234 
L 1294 2234 
L 1294 2753 
L 1863 2753 
Q 2328 2753 2575 2939 
Q 2822 3125 2822 3475 
Q 2822 3834 2567 4026 
Q 2313 4219 1838 4219 
Q 1578 4219 1281 4162 
Q 984 4106 628 3988 
L 628 4550 
Q 988 4650 1302 4700 
Q 1616 4750 1894 4750 
Q 2613 4750 3031 4423 
Q 3450 4097 3450 3541 
Q 3450 3153 3228 2886 
Q 3006 2619 2597 2516 
z
" transform="scale(0.015625)"/>
       </defs>
       <use xlink:href="#DejaVuSans-33"/>
       <use xlink:href="#DejaVuSans-30" x="63.623047"/>
       <use xlink:href="#DejaVuSans-30" x="127.246094"/>
      </g>
     </g>
    </g>
    <g id="xtick_5">
     <g id="line2d_5">
      <g>
       <use xlink:href="#m78c370f1f3" x="334.076852" y="307.584" style="stroke: #000000; stroke-width: 0.8"/>
      </g>
     </g>
     <g id="text_5">
      <!-- 400 -->
      <g transform="translate(324.533102 322.182437) scale(0.1 -0.1)">
       <defs>
        <path id="DejaVuSans-34" d="M 2419 4116 
L 825 1625 
L 2419 1625 
L 2419 4116 
z
M 2253 4666 
L 3047 4666 
L 3047 1625 
L 3713 1625 
L 3713 1100 
L 3047 1100 
L 3047 0 
L 2419 0 
L 2419 1100 
L 313 1100 
L 313 1709 
L 2253 4666 
z
" transform="scale(0.015625)"/>
       </defs>
       <use xlink:href="#DejaVuSans-34"/>
       <use xlink:href="#DejaVuSans-30" x="63.623047"/>
       <use xlink:href="#DejaVuSans-30" x="127.246094"/>
      </g>
     </g>
    </g>
    <g id="xtick_6">
     <g id="line2d_6">
      <g>
       <use xlink:href="#m78c370f1f3" x="399.137883" y="307.584" style="stroke: #000000; stroke-width: 0.8"/>
      </g>
     </g>
     <g id="text_6">
      <!-- 500 -->
      <g transform="translate(389.594133 322.182437) scale(0.1 -0.1)">
       <defs>
        <path id="DejaVuSans-35" d="M 691 4666 
L 3169 4666 
L 3169 4134 
L 1269 4134 
L 1269 2991 
Q 1406 3038 1543 3061 
Q 1681 3084 1819 3084 
Q 2600 3084 3056 2656 
Q 3513 2228 3513 1497 
Q 3513 744 3044 326 
Q 2575 -91 1722 -91 
Q 1428 -91 1123 -41 
Q 819 9 494 109 
L 494 744 
Q 775 591 1075 516 
Q 1375 441 1709 441 
Q 2250 441 2565 725 
Q 2881 1009 2881 1497 
Q 2881 1984 2565 2268 
Q 2250 2553 1709 2553 
Q 1456 2553 1204 2497 
Q 953 2441 691 2322 
L 691 4666 
z
" transform="scale(0.015625)"/>
       </defs>
       <use xlink:href="#DejaVuSans-35"/>
       <use xlink:href="#DejaVuSans-30" x="63.623047"/>
       <use xlink:href="#DejaVuSans-30" x="127.246094"/>
      </g>
     </g>
    </g>
   </g>
   <g id="matplotlib.axis_2">
    <g id="ytick_1">
     <g id="line2d_7">
      <defs>
       <path id="m340f01b5ea" d="M 0 0 
L -3.5 0 
" style="stroke: #000000; stroke-width: 0.8"/>
      </defs>
      <g>
       <use xlink:href="#m340f01b5ea" x="57.6" y="229.299087" style="stroke: #000000; stroke-width: 0.8"/>
      </g>
     </g>
     <g id="text_7">
      <!-- $\mathdefault{10^{-2}}$ -->
      <g transform="translate(27.1 233.098305) scale(0.1 -0.1)">
       <defs>
        <path id="DejaVuSans-2212" d="M 678 2272 
L 4684 2272 
L 4684 1741 
L 678 1741 
L 678 2272 
z
" transform="scale(0.015625)"/>
       </defs>
       <use xlink:href="#DejaVuSans-31" transform="translate(0 0.765625)"/>
       <use xlink:href="#DejaVuSans-30" transform="translate(63.623047 0.765625)"/>
       <use xlink:href="#DejaVuSans-2212" transform="translate(128.203125 39.046875) scale(0.7)"/>
       <use xlink:href="#DejaVuSans-32" transform="translate(186.855469 39.046875) scale(0.7)"/>
      </g>
     </g>
    </g>
    <g id="ytick_2">
     <g id="line2d_8">
      <g>
       <use xlink:href="#m340f01b5ea" x="57.6" y="110.923581" style="stroke: #000000; stroke-width: 0.8"/>
      </g>
     </g>
     <g id="text_8">
      <!-- $\mathdefault{10^{-1}}$ -->
      <g transform="translate(27.1 114.722799) scale(0.1 -0.1)">
       <use xlink:href="#DejaVuSans-31" transform="translate(0 0.684375)"/>
       <use xlink:href="#DejaVuSans-30" transform="translate(63.623047 0.684375)"/>
       <use xlink:href="#DejaVuSans-2212" transform="translate(128.203125 38.965625) scale(0.7)"/>
       <use xlink:href="#DejaVuSans-31" transform="translate(186.855469 38.965625) scale(0.7)"/>
      </g>
     </g>
    </g>
    <g id="ytick_3">
     <g id="line2d_9">
      <defs>
       <path id="m98881bd692" d="M 0 0 
L -2 0 
" style="stroke: #000000; stroke-width: 0.6"/>
      </defs>
      <g>
       <use xlink:href="#m98881bd692" x="57.6" y="291.195123" style="stroke: #000000; stroke-width: 0.6"/>
      </g>
     </g>
    </g>
    <g id="ytick_4">
     <g id="line2d_10">
      <g>
       <use xlink:href="#m98881bd692" x="57.6" y="276.405436" style="stroke: #000000; stroke-width: 0.6"/>
      </g>
     </g>
    </g>
    <g id="ytick_5">
     <g id="line2d_11">
      <g>
       <use xlink:href="#m98881bd692" x="57.6" y="264.933665" style="stroke: #000000; stroke-width: 0.6"/>
      </g>
     </g>
    </g>
    <g id="ytick_6">
     <g id="line2d_12">
      <g>
       <use xlink:href="#m98881bd692" x="57.6" y="255.560545" style="stroke: #000000; stroke-width: 0.6"/>
      </g>
     </g>
    </g>
    <g id="ytick_7">
     <g id="line2d_13">
      <g>
       <use xlink:href="#m98881bd692" x="57.6" y="247.635684" style="stroke: #000000; stroke-width: 0.6"/>
      </g>
     </g>
    </g>
    <g id="ytick_8">
     <g id="line2d_14">
      <g>
       <use xlink:href="#m98881bd692" x="57.6" y="240.770858" style="stroke: #000000; stroke-width: 0.6"/>
      </g>
     </g>
    </g>
    <g id="ytick_9">
     <g id="line2d_15">
      <g>
       <use xlink:href="#m98881bd692" x="57.6" y="234.715653" style="stroke: #000000; stroke-width: 0.6"/>
      </g>
     </g>
    </g>
    <g id="ytick_10">
     <g id="line2d_16">
      <g>
       <use xlink:href="#m98881bd692" x="57.6" y="193.664509" style="stroke: #000000; stroke-width: 0.6"/>
      </g>
     </g>
    </g>
    <g id="ytick_11">
     <g id="line2d_17">
      <g>
       <use xlink:href="#m98881bd692" x="57.6" y="172.819617" style="stroke: #000000; stroke-width: 0.6"/>
      </g>
     </g>
    </g>
    <g id="ytick_12">
     <g id="line2d_18">
      <g>
       <use xlink:href="#m98881bd692" x="57.6" y="158.029931" style="stroke: #000000; stroke-width: 0.6"/>
      </g>
     </g>
    </g>
    <g id="ytick_13">
     <g id="line2d_19">
      <g>
       <use xlink:href="#m98881bd692" x="57.6" y="146.558159" style="stroke: #000000; stroke-width: 0.6"/>
      </g>
     </g>
    </g>
    <g id="ytick_14">
     <g id="line2d_20">
      <g>
       <use xlink:href="#m98881bd692" x="57.6" y="137.185039" style="stroke: #000000; stroke-width: 0.6"/>
      </g>
     </g>
    </g>
    <g id="ytick_15">
     <g id="line2d_21">
      <g>
       <use xlink:href="#m98881bd692" x="57.6" y="129.260179" style="stroke: #000000; stroke-width: 0.6"/>
      </g>
     </g>
    </g>
    <g id="ytick_16">
     <g id="line2d_22">
      <g>
       <use xlink:href="#m98881bd692" x="57.6" y="122.395352" style="stroke: #000000; stroke-width: 0.6"/>
      </g>
     </g>
    </g>
    <g id="ytick_17">
     <g id="line2d_23">
      <g>
       <use xlink:href="#m98881bd692" x="57.6" y="116.340147" style="stroke: #000000; stroke-width: 0.6"/>
      </g>
     </g>
    </g>
    <g id="ytick_18">
     <g id="line2d_24">
      <g>
       <use xlink:href="#m98881bd692" x="57.6" y="75.289003" style="stroke: #000000; stroke-width: 0.6"/>
      </g>
     </g>
    </g>
    <g id="ytick_19">
     <g id="line2d_25">
      <g>
       <use xlink:href="#m98881bd692" x="57.6" y="54.444111" style="stroke: #000000; stroke-width: 0.6"/>
      </g>
     </g>
    </g>
   </g>
   <g id="line2d_26">
    <path d="M 73.832727 53.568 
L 74.483338 126.851691 
L 75.133948 156.58385 
L 75.784558 169.255002 
L 76.435169 175.536242 
L 77.085779 179.237165 
L 77.736389 184.434506 
L 78.386999 186.485773 
L 79.68822 193.581356 
L 80.33883 195.649581 
L 80.989441 198.169862 
L 81.640051 201.668695 
L 82.290661 202.859721 
L 82.941272 203.126349 
L 83.591882 206.304971 
L 84.893103 210.804349 
L 85.543713 213.809591 
L 86.194323 207.572332 
L 86.844934 212.975938 
L 87.495544 214.164294 
L 88.146154 216.816833 
L 88.796764 214.217168 
L 89.447375 217.349493 
L 90.097985 218.122748 
L 90.748595 221.104661 
L 91.399206 221.187057 
L 92.049816 223.803413 
L 92.700426 223.894306 
L 94.001647 218.53565 
L 94.652257 223.956764 
L 95.302868 224.688573 
L 95.953478 226.798161 
L 96.604088 225.668191 
L 97.254698 226.094728 
L 97.905309 230.427481 
L 98.555919 232.212405 
L 99.206529 233.192431 
L 99.85714 231.610864 
L 100.50775 232.002623 
L 101.15836 234.678317 
L 101.808971 234.584642 
L 103.110191 231.644212 
L 103.760802 224.441609 
L 105.062022 230.718044 
L 106.363243 237.031469 
L 107.013853 238.458509 
L 107.664463 237.890855 
L 108.315074 234.743297 
L 108.965684 239.356782 
L 109.616294 239.330234 
L 110.266905 243.954706 
L 110.917515 237.620533 
L 111.568125 240.724421 
L 112.218736 241.391546 
L 112.869346 240.980773 
L 113.519956 244.191834 
L 114.170567 246.465999 
L 114.821177 245.595765 
L 115.471787 245.999273 
L 116.122398 245.753385 
L 116.773008 245.291534 
L 117.423618 246.129224 
L 118.074228 244.685405 
L 118.724839 245.467015 
L 119.375449 248.027206 
L 120.026059 248.639313 
L 120.67667 248.868418 
L 121.32728 245.758213 
L 122.628501 250.807662 
L 123.279111 249.291518 
L 123.929721 251.561647 
L 124.580332 250.561802 
L 125.230942 250.296071 
L 125.881552 252.356976 
L 126.532163 246.776073 
L 127.182773 248.185237 
L 127.833383 251.969871 
L 128.483993 254.819199 
L 129.134604 249.89636 
L 129.785214 253.107791 
L 130.435824 245.774587 
L 131.086435 251.277478 
L 131.737045 253.104357 
L 132.387655 251.745344 
L 133.038266 257.491235 
L 133.688876 257.466631 
L 134.339486 252.321849 
L 134.990097 254.934955 
L 136.291317 254.776076 
L 136.941927 255.074624 
L 137.592538 258.908985 
L 138.243148 254.273974 
L 138.893758 252.158315 
L 139.544369 255.90058 
L 140.194979 256.986328 
L 140.845589 256.586132 
L 141.4962 258.157126 
L 142.14681 254.1293 
L 143.448031 257.165823 
L 144.098641 256.882788 
L 144.749251 259.674521 
L 145.399862 259.850877 
L 146.050472 261.37036 
L 146.701082 262.344735 
L 147.351692 261.600689 
L 148.002303 258.958472 
L 148.652913 259.670275 
L 149.303523 258.667051 
L 149.954134 259.366213 
L 150.604744 255.014629 
L 151.255354 261.772629 
L 151.905965 255.343033 
L 152.556575 257.298395 
L 153.207185 249.16309 
L 153.857796 255.74267 
L 154.508406 247.978679 
L 155.159016 254.551092 
L 155.809627 258.208474 
L 156.460237 260.144417 
L 157.761457 260.189863 
L 158.412068 259.713791 
L 159.062678 259.810082 
L 159.713288 261.56663 
L 160.363899 261.443465 
L 161.014509 265.044867 
L 161.665119 262.09526 
L 162.31573 262.007256 
L 162.96634 266.361899 
L 163.61695 265.848086 
L 164.267561 265.543686 
L 164.918171 254.478639 
L 165.568781 263.26645 
L 166.219392 266.267917 
L 166.870002 265.898336 
L 167.520612 265.944429 
L 168.171222 266.489536 
L 168.821833 267.645199 
L 169.472443 264.672822 
L 170.123053 252.949424 
L 170.773664 247.378938 
L 171.424274 255.237415 
L 172.074884 257.635102 
L 172.725495 259.392289 
L 173.376105 262.944689 
L 174.026715 257.430148 
L 174.677326 265.104907 
L 175.327936 267.533561 
L 176.629156 266.569144 
L 177.279767 266.749785 
L 177.930377 264.919751 
L 178.580987 267.309276 
L 179.231598 259.160052 
L 179.882208 261.887888 
L 180.532818 267.301563 
L 181.183429 264.93067 
L 182.484649 268.158705 
L 183.13526 270.79753 
L 183.78587 266.58038 
L 185.087091 255.593559 
L 185.737701 268.424789 
L 186.388311 265.157656 
L 187.038921 264.416076 
L 187.689532 268.240443 
L 188.340142 271.073676 
L 188.990752 272.17712 
L 189.641363 265.687511 
L 190.291973 263.013037 
L 190.942583 268.057286 
L 191.593194 268.391245 
L 192.243804 265.968613 
L 192.894414 266.524346 
L 193.545025 263.840795 
L 194.195635 263.476351 
L 194.846245 261.106646 
L 195.496856 270.305818 
L 196.147466 266.918938 
L 196.798076 271.759202 
L 198.099297 268.405113 
L 198.749907 271.742474 
L 199.400517 270.628611 
L 200.051128 271.1283 
L 200.701738 272.120643 
L 201.352348 269.176 
L 202.002959 271.761792 
L 203.304179 266.352582 
L 203.95479 267.072634 
L 204.6054 269.414197 
L 205.25601 273.235679 
L 205.906621 272.205968 
L 206.557231 274.185965 
L 207.207841 272.15994 
L 207.858451 274.334693 
L 208.509062 268.896948 
L 209.159672 265.601705 
L 209.810282 269.715691 
L 210.460893 272.41528 
L 211.111503 269.566846 
L 211.762113 272.941848 
L 212.412724 275.216557 
L 213.063334 274.246766 
L 213.713944 267.11929 
L 214.364555 271.617773 
L 215.015165 272.118391 
L 216.316385 274.750063 
L 216.966996 275.159683 
L 217.617606 272.194426 
L 218.268216 274.373759 
L 218.918827 268.8041 
L 219.569437 267.877647 
L 220.220047 265.01593 
L 220.870658 269.445448 
L 221.521268 272.500807 
L 222.171878 274.127375 
L 222.822489 274.563918 
L 223.473099 268.100435 
L 224.123709 271.054645 
L 224.77432 268.06276 
L 225.42493 266.230804 
L 226.07554 273.309286 
L 226.72615 276.262985 
L 227.376761 275.962105 
L 228.027371 275.247238 
L 228.677981 270.501885 
L 229.328592 263.349624 
L 229.979202 267.176633 
L 230.629812 260.432612 
L 231.280423 264.693497 
L 231.931033 270.217052 
L 233.232254 272.864945 
L 233.882864 276.306464 
L 234.533474 277.370403 
L 235.184085 278.106827 
L 235.834695 280.057726 
L 236.485305 277.377372 
L 237.135915 274.032178 
L 237.786526 273.700098 
L 239.087746 280.664404 
L 239.738357 279.822576 
L 240.388967 281.100608 
L 241.039577 282.033259 
L 241.690188 279.403563 
L 242.340798 281.159749 
L 242.991408 278.675633 
L 243.642019 279.330749 
L 244.292629 279.673325 
L 244.943239 280.556459 
L 246.89507 277.829313 
L 247.54568 276.326471 
L 248.196291 274.327768 
L 248.846901 269.289628 
L 249.497511 252.828114 
L 250.148122 263.354384 
L 250.798732 266.521928 
L 251.449342 268.937582 
L 252.099953 271.943402 
L 252.750563 276.390594 
L 253.401173 277.602167 
L 254.051784 278.343497 
L 254.702394 279.393671 
L 255.353004 279.554785 
L 256.003615 275.35598 
L 256.654225 280.231501 
L 257.304835 280.21743 
L 257.955445 277.173224 
L 258.606056 276.474501 
L 259.256666 277.600904 
L 259.907276 280.255303 
L 260.557887 281.430601 
L 261.208497 277.936539 
L 261.859107 279.759491 
L 262.509718 280.820226 
L 263.160328 278.995433 
L 263.810938 270.663596 
L 264.461549 275.400287 
L 265.112159 277.239521 
L 265.762769 278.546824 
L 266.413379 278.901964 
L 267.06399 279.654602 
L 267.7146 279.056964 
L 268.36521 281.471154 
L 269.015821 282.833485 
L 269.666431 279.686986 
L 270.317041 281.598901 
L 270.967652 280.595924 
L 272.268872 281.706116 
L 273.570093 275.223244 
L 274.220703 276.348485 
L 274.871314 279.385359 
L 275.521924 279.119301 
L 276.172534 280.243784 
L 276.823144 280.96507 
L 277.473755 274.864849 
L 278.774975 274.807459 
L 279.425586 281.080018 
L 280.076196 277.824453 
L 280.726806 275.928883 
L 281.377417 283.166492 
L 282.028027 277.61909 
L 282.678637 281.469609 
L 283.329248 281.739273 
L 283.979858 280.876923 
L 284.630468 279.407424 
L 285.281079 280.059687 
L 285.931689 280.341936 
L 286.582299 280.073706 
L 287.232909 279.048622 
L 287.88352 281.724604 
L 288.53413 283.284507 
L 289.18474 281.513632 
L 289.835351 283.1089 
L 290.485961 283.421121 
L 291.136571 281.145456 
L 291.787182 280.291116 
L 292.437792 282.802434 
L 293.088402 284.756078 
L 293.739013 283.630867 
L 294.389623 284.706811 
L 295.040233 284.724733 
L 295.690844 285.13323 
L 296.341454 283.3842 
L 297.642674 285.894191 
L 298.293285 284.061698 
L 298.943895 287.076642 
L 299.594505 285.964252 
L 300.245116 282.329306 
L 300.895726 285.735465 
L 301.546336 281.750391 
L 302.196947 281.967944 
L 302.847557 285.825309 
L 303.498167 286.111323 
L 304.148778 285.560572 
L 304.799388 287.029275 
L 305.449998 285.792281 
L 306.100608 282.992883 
L 306.751219 285.379162 
L 307.401829 280.877653 
L 308.052439 289.403356 
L 308.70305 285.034942 
L 309.35366 283.020358 
L 310.00427 285.485552 
L 310.654881 284.482338 
L 311.305491 284.621764 
L 311.956101 283.268893 
L 312.606712 282.551626 
L 313.257322 285.193379 
L 313.907932 281.403107 
L 314.558543 279.017002 
L 315.209153 284.198575 
L 315.859763 281.868401 
L 317.160984 285.575722 
L 317.811594 284.873537 
L 318.462204 287.030125 
L 319.112815 286.137735 
L 319.763425 288.798407 
L 320.414035 287.000439 
L 321.064646 287.53517 
L 321.715256 284.64493 
L 322.365866 286.426782 
L 323.016477 277.704384 
L 323.667087 281.623226 
L 324.317697 283.987097 
L 324.968308 282.575945 
L 325.618918 279.01252 
L 326.269528 281.760111 
L 326.920138 279.159707 
L 327.570749 272.06087 
L 328.221359 281.590394 
L 328.871969 283.947757 
L 329.52258 287.079139 
L 330.17319 288.290101 
L 330.8238 288.35954 
L 331.474411 282.705808 
L 332.125021 285.771566 
L 332.775631 288.226233 
L 333.426242 287.10887 
L 334.076852 285.330386 
L 334.727462 282.59212 
L 336.028683 287.577752 
L 336.679293 281.676509 
L 337.329903 285.082623 
L 337.980514 283.294722 
L 338.631124 285.917764 
L 339.281734 285.698382 
L 339.932345 288.611917 
L 340.582955 289.841429 
L 341.233565 288.379895 
L 341.884176 285.85893 
L 342.534786 280.508275 
L 343.185396 287.320855 
L 343.836007 282.135353 
L 344.486617 280.859053 
L 345.137227 283.350194 
L 345.787837 288.763795 
L 346.438448 285.136525 
L 347.089058 289.460014 
L 347.739668 288.281282 
L 348.390279 292.732002 
L 349.040889 288.143331 
L 349.691499 284.950609 
L 350.34211 291.304268 
L 350.99272 287.794928 
L 351.64333 287.658215 
L 352.944551 289.107675 
L 353.595161 289.254553 
L 354.245772 290.635769 
L 354.896382 284.593109 
L 355.546992 269.029071 
L 356.197602 271.533973 
L 356.848213 278.031195 
L 357.498823 281.099329 
L 358.149433 278.052142 
L 358.800044 283.433231 
L 359.450654 283.20512 
L 360.101264 286.439194 
L 360.751875 285.564958 
L 361.402485 288.402081 
L 362.053095 289.981517 
L 362.703706 290.767498 
L 363.354316 287.020445 
L 364.004926 286.96504 
L 365.306147 293.074457 
L 365.956757 288.500086 
L 366.607367 291.928799 
L 367.257978 291.908279 
L 367.908588 293.724881 
L 368.559198 291.009556 
L 369.209809 292.344418 
L 369.860419 292.56273 
L 370.511029 287.272789 
L 371.16164 289.787758 
L 371.81225 284.57411 
L 372.46286 286.499437 
L 373.113471 285.572794 
L 373.764081 290.123508 
L 374.414691 288.337488 
L 375.065302 289.687865 
L 375.715912 290.67854 
L 376.366522 290.645165 
L 377.017132 295.488 
L 377.667743 291.989447 
L 378.318353 294.547036 
L 378.968963 293.392532 
L 379.619574 291.463141 
L 380.270184 291.860158 
L 380.920794 286.552777 
L 381.571405 292.514553 
L 382.872625 290.192778 
L 383.523236 291.331308 
L 384.173846 291.781155 
L 384.824456 275.782736 
L 385.475066 279.952941 
L 386.125677 286.060985 
L 386.776287 284.700263 
L 387.426897 289.507657 
L 388.077508 290.214783 
L 389.378728 292.32293 
L 390.029339 295.15837 
L 390.679949 292.49618 
L 391.330559 292.646625 
L 391.98117 292.54746 
L 392.63178 286.930835 
L 393.28239 290.24364 
L 393.933001 291.132928 
L 394.583611 289.280496 
L 395.234221 294.837959 
L 395.884831 295.198427 
L 396.535442 292.431545 
L 397.186052 291.636071 
L 398.487273 285.828842 
L 398.487273 285.828842 
" clip-path="url(#p3606e91877)" style="fill: none; stroke: #1f77b4; stroke-width: 1.5; stroke-linecap: square"/>
   </g>
   <g id="line2d_27">
    <path d="M 73.832727 79.5113 
L 74.483338 145.014257 
L 75.133948 166.023917 
L 75.784558 174.652242 
L 76.435169 179.17699 
L 77.085779 185.220446 
L 77.736389 189.460377 
L 78.386999 191.776666 
L 79.68822 195.019464 
L 80.989441 200.190101 
L 81.640051 200.861515 
L 82.290661 203.111014 
L 84.893103 210.375989 
L 85.543713 206.57829 
L 86.194323 212.609275 
L 86.844934 212.814331 
L 87.495544 214.068057 
L 88.146154 214.82134 
L 88.796764 216.810267 
L 89.447375 218.081238 
L 90.097985 218.25624 
L 90.748595 220.068402 
L 91.399206 219.471744 
L 92.049816 220.724722 
L 92.700426 222.94774 
L 93.351037 221.883541 
L 94.001647 223.812759 
L 94.652257 225.36553 
L 95.302868 225.226533 
L 95.953478 223.682088 
L 96.604088 224.247569 
L 97.254698 228.865698 
L 97.905309 230.384366 
L 98.555919 230.906669 
L 99.206529 229.6661 
L 99.85714 232.351158 
L 100.50775 231.372366 
L 101.15836 233.651815 
L 101.808971 233.848858 
L 102.459581 234.900006 
L 103.110191 217.537125 
L 104.411412 230.451934 
L 105.062022 233.069049 
L 105.712633 234.421607 
L 106.363243 237.656934 
L 107.013853 238.842455 
L 107.664463 235.075261 
L 108.315074 237.550836 
L 108.965684 239.54091 
L 109.616294 240.211604 
L 110.266905 242.227793 
L 110.917515 240.934388 
L 111.568125 241.758591 
L 112.218736 238.186426 
L 112.869346 242.223996 
L 113.519956 244.314949 
L 114.170567 244.634388 
L 114.821177 244.28722 
L 115.471787 246.150631 
L 116.122398 246.808435 
L 116.773008 246.034337 
L 117.423618 245.938223 
L 118.074228 247.853446 
L 118.724839 247.862502 
L 119.375449 247.003692 
L 120.026059 246.702258 
L 120.67667 244.460189 
L 121.32728 248.816632 
L 121.97789 246.426259 
L 122.628501 247.863486 
L 123.279111 249.995225 
L 123.929721 249.645716 
L 124.580332 249.883418 
L 125.230942 251.554896 
L 125.881552 249.038075 
L 126.532163 251.909342 
L 127.182773 251.384419 
L 127.833383 252.576355 
L 128.483993 251.558485 
L 129.134604 249.363619 
L 129.785214 248.637294 
L 130.435824 246.481073 
L 131.086435 249.843707 
L 131.737045 250.914331 
L 132.387655 253.851556 
L 133.038266 253.580702 
L 133.688876 253.511287 
L 134.339486 254.96508 
L 134.990097 255.246631 
L 135.640707 253.426535 
L 136.291317 255.660575 
L 137.592538 256.337817 
L 138.243148 253.840982 
L 138.893758 254.008652 
L 139.544369 253.20671 
L 140.194979 255.174612 
L 140.845589 255.263345 
L 141.4962 251.116737 
L 142.14681 250.421993 
L 142.79742 254.97499 
L 143.448031 255.383946 
L 144.098641 255.942959 
L 144.749251 256.342994 
L 145.399862 257.493637 
L 146.050472 257.115981 
L 146.701082 257.279144 
L 147.351692 258.630874 
L 148.002303 255.164816 
L 148.652913 254.329612 
L 149.303523 257.59764 
L 150.604744 252.247618 
L 151.255354 257.178408 
L 151.905965 255.42677 
L 152.556575 238.601092 
L 153.207185 252.23992 
L 153.857796 251.976856 
L 154.508406 253.754339 
L 155.159016 253.881269 
L 156.460237 257.139214 
L 157.110847 257.005248 
L 158.412068 259.298873 
L 159.062678 257.602082 
L 159.713288 260.247594 
L 160.363899 258.383945 
L 161.014509 259.194415 
L 161.665119 260.518967 
L 162.31573 261.311295 
L 162.96634 259.919049 
L 163.61695 260.532063 
L 164.267561 257.147065 
L 164.918171 261.43375 
L 165.568781 260.656122 
L 166.219392 261.781938 
L 166.870002 260.452717 
L 167.520612 261.081225 
L 168.171222 261.201386 
L 168.821833 261.038593 
L 169.472443 253.130397 
L 170.123053 256.639319 
L 170.773664 247.798744 
L 172.074884 258.949179 
L 172.725495 260.550994 
L 173.376105 260.612203 
L 174.026715 259.405702 
L 174.677326 261.485149 
L 175.327936 263.010742 
L 175.978546 262.553503 
L 176.629156 261.623223 
L 177.279767 263.495377 
L 177.930377 262.207473 
L 178.580987 263.649051 
L 179.231598 261.794107 
L 179.882208 261.6841 
L 180.532818 262.373902 
L 181.183429 263.586059 
L 181.834039 262.922585 
L 182.484649 262.731992 
L 183.13526 263.451519 
L 183.78587 265.059925 
L 184.43648 243.617545 
L 185.087091 261.999344 
L 185.737701 262.437363 
L 186.388311 262.591351 
L 187.038921 263.209447 
L 187.689532 262.834662 
L 188.340142 264.881463 
L 188.990752 265.572743 
L 189.641363 252.646307 
L 190.291973 262.354671 
L 190.942583 264.029539 
L 191.593194 263.457893 
L 192.243804 260.923727 
L 192.894414 261.551276 
L 194.195635 257.671886 
L 194.846245 262.908622 
L 195.496856 262.727547 
L 196.147466 263.687946 
L 196.798076 266.088988 
L 197.448686 265.743205 
L 198.099297 264.768299 
L 198.749907 266.413005 
L 199.400517 265.25053 
L 200.051128 265.134655 
L 200.701738 266.275686 
L 201.352348 265.617993 
L 202.002959 264.53832 
L 202.653569 260.930998 
L 203.304179 264.346843 
L 203.95479 267.029568 
L 204.6054 266.645147 
L 205.25601 261.809294 
L 205.906621 266.688866 
L 206.557231 266.492256 
L 207.207841 265.762375 
L 207.858451 266.499818 
L 208.509062 257.230415 
L 209.159672 264.606433 
L 209.810282 265.473723 
L 210.460893 263.953193 
L 211.111503 266.800499 
L 211.762113 267.055396 
L 212.412724 267.77616 
L 213.063334 265.340441 
L 213.713944 266.278192 
L 214.364555 266.402074 
L 215.015165 266.32362 
L 215.665775 268.364266 
L 216.316385 267.823066 
L 216.966996 265.704955 
L 217.617606 267.34465 
L 218.268216 263.949139 
L 218.918827 263.44061 
L 219.569437 264.384958 
L 220.220047 265.748441 
L 220.870658 265.607191 
L 221.521268 266.927185 
L 222.171878 267.031947 
L 222.822489 267.297845 
L 223.473099 266.774159 
L 224.123709 265.405676 
L 224.77432 261.906343 
L 225.42493 266.79085 
L 226.07554 267.202106 
L 226.72615 268.552578 
L 227.376761 268.653807 
L 228.027371 269.25774 
L 228.677981 264.797131 
L 229.328592 265.886681 
L 229.979202 261.330126 
L 230.629812 259.032277 
L 231.280423 263.880411 
L 231.931033 264.542648 
L 232.581643 268.305066 
L 233.232254 267.366806 
L 233.882864 268.167784 
L 234.533474 269.396169 
L 235.184085 269.930477 
L 235.834695 270.21082 
L 236.485305 266.926993 
L 237.135915 266.793164 
L 237.786526 269.957983 
L 238.437136 270.327873 
L 239.087746 269.824691 
L 239.738357 270.883917 
L 240.388967 271.435812 
L 241.039577 270.281357 
L 241.690188 269.991735 
L 242.340798 269.909187 
L 242.991408 271.980592 
L 243.642019 271.196084 
L 244.292629 271.583978 
L 244.943239 271.666765 
L 245.59385 270.923167 
L 246.24446 271.841118 
L 247.54568 265.230202 
L 248.196291 266.81811 
L 248.846901 262.40448 
L 249.497511 263.021886 
L 250.148122 262.810429 
L 250.798732 262.7693 
L 251.449342 266.385385 
L 252.099953 268.222396 
L 252.750563 268.746172 
L 253.401173 270.058653 
L 254.051784 270.948683 
L 254.702394 271.056456 
L 255.353004 269.223655 
L 256.654225 271.466178 
L 257.304835 270.48152 
L 257.955445 267.96901 
L 258.606056 270.6014 
L 259.256666 270.615721 
L 259.907276 270.451531 
L 260.557887 268.525677 
L 261.208497 272.343277 
L 261.859107 272.062332 
L 262.509718 271.245359 
L 263.160328 265.654758 
L 263.810938 268.974628 
L 264.461549 269.132517 
L 265.112159 271.405554 
L 266.413379 271.220618 
L 267.06399 269.866996 
L 267.7146 272.996281 
L 269.015821 272.77045 
L 269.666431 270.813529 
L 270.317041 272.79295 
L 270.967652 272.614274 
L 271.618262 272.913924 
L 272.268872 272.132975 
L 272.919483 268.432257 
L 273.570093 270.337626 
L 274.220703 271.763679 
L 274.871314 268.24503 
L 275.521924 270.684482 
L 276.172534 272.454886 
L 276.823144 268.720334 
L 277.473755 267.846333 
L 278.124365 267.606888 
L 278.774975 268.896287 
L 279.425586 272.628202 
L 281.377417 272.279361 
L 282.678637 272.215762 
L 283.329248 272.757702 
L 283.979858 273.750365 
L 284.630468 273.392257 
L 285.931689 273.742492 
L 286.582299 272.39067 
L 287.232909 272.875269 
L 287.88352 272.154298 
L 288.53413 272.423783 
L 289.18474 273.540813 
L 289.835351 273.721306 
L 290.485961 272.096821 
L 291.136571 271.68545 
L 291.787182 272.111179 
L 292.437792 273.592188 
L 293.088402 274.305384 
L 293.739013 273.638465 
L 294.389623 274.828481 
L 295.040233 273.611783 
L 295.690844 273.690212 
L 296.341454 274.090256 
L 296.992064 275.125414 
L 297.642674 275.414918 
L 299.594505 274.544886 
L 300.895726 270.246918 
L 301.546336 272.241296 
L 302.196947 273.819367 
L 302.847557 271.998543 
L 303.498167 274.381567 
L 304.148778 275.711106 
L 304.799388 274.788638 
L 305.449998 269.39513 
L 306.100608 274.869541 
L 306.751219 274.465888 
L 307.401829 275.7072 
L 308.052439 275.35329 
L 308.70305 271.967313 
L 309.35366 274.59396 
L 310.00427 275.631417 
L 310.654881 274.55807 
L 311.305491 272.33956 
L 311.956101 275.710323 
L 312.606712 275.644947 
L 313.257322 270.755865 
L 313.907932 268.558067 
L 314.558543 274.598953 
L 315.209153 271.565596 
L 315.859763 274.83612 
L 316.510373 274.845982 
L 317.160984 274.152928 
L 317.811594 275.417372 
L 318.462204 274.338004 
L 319.112815 274.602298 
L 319.763425 274.238176 
L 320.414035 275.076057 
L 321.064646 272.599364 
L 321.715256 274.895519 
L 322.365866 273.639388 
L 323.016477 273.964651 
L 323.667087 271.930461 
L 324.317697 273.669853 
L 324.968308 272.933711 
L 325.618918 269.341799 
L 326.269528 272.840204 
L 326.920138 269.927844 
L 327.570749 272.607253 
L 328.221359 272.008718 
L 328.871969 272.892156 
L 329.52258 274.733488 
L 330.17319 276.158037 
L 330.8238 275.266554 
L 331.474411 276.885519 
L 332.125021 276.237769 
L 332.775631 273.251352 
L 333.426242 276.226613 
L 334.727462 274.089914 
L 335.378073 275.735598 
L 336.028683 273.747448 
L 336.679293 275.087585 
L 337.329903 271.081844 
L 337.980514 274.80568 
L 338.631124 273.909687 
L 339.281734 276.560506 
L 339.932345 276.187407 
L 340.582955 275.468276 
L 341.233565 277.22025 
L 341.884176 263.459714 
L 342.534786 271.764838 
L 343.185396 268.773508 
L 343.836007 274.230279 
L 344.486617 272.594971 
L 345.137227 274.83239 
L 345.787837 275.563322 
L 346.438448 277.174338 
L 347.089058 277.924216 
L 347.739668 274.973958 
L 348.390279 270.149233 
L 349.040889 274.671617 
L 349.691499 276.140849 
L 350.34211 275.534253 
L 350.99272 276.58743 
L 351.64333 275.54265 
L 352.293941 275.522022 
L 352.944551 277.45178 
L 353.595161 278.674936 
L 354.245772 277.714378 
L 354.896382 265.938658 
L 355.546992 261.032883 
L 356.848213 272.340261 
L 357.498823 272.257256 
L 358.149433 274.742342 
L 358.800044 274.42715 
L 359.450654 274.834563 
L 360.101264 276.069525 
L 360.751875 275.645765 
L 361.402485 277.408709 
L 362.053095 277.354948 
L 362.703706 277.782487 
L 363.354316 277.325651 
L 364.004926 274.241932 
L 364.655537 277.613263 
L 365.306147 277.412894 
L 365.956757 277.778213 
L 366.607367 276.069119 
L 367.257978 278.241437 
L 367.908588 278.496826 
L 368.559198 277.261757 
L 369.209809 277.393343 
L 369.860419 277.888224 
L 370.511029 273.615955 
L 371.16164 271.838968 
L 371.81225 270.589712 
L 372.46286 271.248326 
L 373.113471 277.514271 
L 373.764081 275.364803 
L 374.414691 273.740425 
L 375.065302 276.053892 
L 375.715912 277.184828 
L 377.017132 278.7217 
L 377.667743 278.771041 
L 378.318353 278.997015 
L 379.619574 276.530692 
L 380.270184 276.391111 
L 380.920794 278.189017 
L 381.571405 277.402875 
L 382.222015 277.317706 
L 382.872625 278.552757 
L 383.523236 278.520953 
L 384.173846 267.275491 
L 384.824456 269.755072 
L 385.475066 274.576156 
L 386.125677 273.972137 
L 386.776287 275.358383 
L 387.426897 275.797063 
L 388.077508 276.506229 
L 388.728118 278.470348 
L 389.378728 278.646754 
L 390.029339 278.379272 
L 391.330559 274.128874 
L 391.98117 274.52515 
L 392.63178 277.886364 
L 393.28239 278.388527 
L 393.933001 273.871628 
L 394.583611 276.798556 
L 395.234221 278.101224 
L 395.884831 278.344465 
L 396.535442 277.435379 
L 397.186052 278.99306 
L 397.836662 279.575841 
L 398.487273 278.919739 
L 398.487273 278.919739 
" clip-path="url(#p3606e91877)" style="fill: none; stroke: #ff7f0e; stroke-width: 1.5; stroke-linecap: square"/>
   </g>
   <g id="patch_3">
    <path d="M 57.6 307.584 
L 57.6 41.472 
" style="fill: none; stroke: #000000; stroke-width: 0.8; stroke-linejoin: miter; stroke-linecap: square"/>
   </g>
   <g id="patch_4">
    <path d="M 414.72 307.584 
L 414.72 41.472 
" style="fill: none; stroke: #000000; stroke-width: 0.8; stroke-linejoin: miter; stroke-linecap: square"/>
   </g>
   <g id="patch_5">
    <path d="M 57.6 307.584 
L 414.72 307.584 
" style="fill: none; stroke: #000000; stroke-width: 0.8; stroke-linejoin: miter; stroke-linecap: square"/>
   </g>
   <g id="patch_6">
    <path d="M 57.6 41.472 
L 414.72 41.472 
" style="fill: none; stroke: #000000; stroke-width: 0.8; stroke-linejoin: miter; stroke-linecap: square"/>
   </g>
   <g id="text_9">
    <!-- MSE loss during training -->
    <g transform="translate(163.472813 35.472) scale(0.12 -0.12)">
     <defs>
      <path id="DejaVuSans-4d" d="M 628 4666 
L 1569 4666 
L 2759 1491 
L 3956 4666 
L 4897 4666 
L 4897 0 
L 4281 0 
L 4281 4097 
L 3078 897 
L 2444 897 
L 1241 4097 
L 1241 0 
L 628 0 
L 628 4666 
z
" transform="scale(0.015625)"/>
      <path id="DejaVuSans-53" d="M 3425 4513 
L 3425 3897 
Q 3066 4069 2747 4153 
Q 2428 4238 2131 4238 
Q 1616 4238 1336 4038 
Q 1056 3838 1056 3469 
Q 1056 3159 1242 3001 
Q 1428 2844 1947 2747 
L 2328 2669 
Q 3034 2534 3370 2195 
Q 3706 1856 3706 1288 
Q 3706 609 3251 259 
Q 2797 -91 1919 -91 
Q 1588 -91 1214 -16 
Q 841 59 441 206 
L 441 856 
Q 825 641 1194 531 
Q 1563 422 1919 422 
Q 2459 422 2753 634 
Q 3047 847 3047 1241 
Q 3047 1584 2836 1778 
Q 2625 1972 2144 2069 
L 1759 2144 
Q 1053 2284 737 2584 
Q 422 2884 422 3419 
Q 422 4038 858 4394 
Q 1294 4750 2059 4750 
Q 2388 4750 2728 4690 
Q 3069 4631 3425 4513 
z
" transform="scale(0.015625)"/>
      <path id="DejaVuSans-45" d="M 628 4666 
L 3578 4666 
L 3578 4134 
L 1259 4134 
L 1259 2753 
L 3481 2753 
L 3481 2222 
L 1259 2222 
L 1259 531 
L 3634 531 
L 3634 0 
L 628 0 
L 628 4666 
z
" transform="scale(0.015625)"/>
      <path id="DejaVuSans-20" transform="scale(0.015625)"/>
      <path id="DejaVuSans-6c" d="M 603 4863 
L 1178 4863 
L 1178 0 
L 603 0 
L 603 4863 
z
" transform="scale(0.015625)"/>
      <path id="DejaVuSans-6f" d="M 1959 3097 
Q 1497 3097 1228 2736 
Q 959 2375 959 1747 
Q 959 1119 1226 758 
Q 1494 397 1959 397 
Q 2419 397 2687 759 
Q 2956 1122 2956 1747 
Q 2956 2369 2687 2733 
Q 2419 3097 1959 3097 
z
M 1959 3584 
Q 2709 3584 3137 3096 
Q 3566 2609 3566 1747 
Q 3566 888 3137 398 
Q 2709 -91 1959 -91 
Q 1206 -91 779 398 
Q 353 888 353 1747 
Q 353 2609 779 3096 
Q 1206 3584 1959 3584 
z
" transform="scale(0.015625)"/>
      <path id="DejaVuSans-73" d="M 2834 3397 
L 2834 2853 
Q 2591 2978 2328 3040 
Q 2066 3103 1784 3103 
Q 1356 3103 1142 2972 
Q 928 2841 928 2578 
Q 928 2378 1081 2264 
Q 1234 2150 1697 2047 
L 1894 2003 
Q 2506 1872 2764 1633 
Q 3022 1394 3022 966 
Q 3022 478 2636 193 
Q 2250 -91 1575 -91 
Q 1294 -91 989 -36 
Q 684 19 347 128 
L 347 722 
Q 666 556 975 473 
Q 1284 391 1588 391 
Q 1994 391 2212 530 
Q 2431 669 2431 922 
Q 2431 1156 2273 1281 
Q 2116 1406 1581 1522 
L 1381 1569 
Q 847 1681 609 1914 
Q 372 2147 372 2553 
Q 372 3047 722 3315 
Q 1072 3584 1716 3584 
Q 2034 3584 2315 3537 
Q 2597 3491 2834 3397 
z
" transform="scale(0.015625)"/>
      <path id="DejaVuSans-64" d="M 2906 2969 
L 2906 4863 
L 3481 4863 
L 3481 0 
L 2906 0 
L 2906 525 
Q 2725 213 2448 61 
Q 2172 -91 1784 -91 
Q 1150 -91 751 415 
Q 353 922 353 1747 
Q 353 2572 751 3078 
Q 1150 3584 1784 3584 
Q 2172 3584 2448 3432 
Q 2725 3281 2906 2969 
z
M 947 1747 
Q 947 1113 1208 752 
Q 1469 391 1925 391 
Q 2381 391 2643 752 
Q 2906 1113 2906 1747 
Q 2906 2381 2643 2742 
Q 2381 3103 1925 3103 
Q 1469 3103 1208 2742 
Q 947 2381 947 1747 
z
" transform="scale(0.015625)"/>
      <path id="DejaVuSans-75" d="M 544 1381 
L 544 3500 
L 1119 3500 
L 1119 1403 
Q 1119 906 1312 657 
Q 1506 409 1894 409 
Q 2359 409 2629 706 
Q 2900 1003 2900 1516 
L 2900 3500 
L 3475 3500 
L 3475 0 
L 2900 0 
L 2900 538 
Q 2691 219 2414 64 
Q 2138 -91 1772 -91 
Q 1169 -91 856 284 
Q 544 659 544 1381 
z
M 1991 3584 
L 1991 3584 
z
" transform="scale(0.015625)"/>
      <path id="DejaVuSans-72" d="M 2631 2963 
Q 2534 3019 2420 3045 
Q 2306 3072 2169 3072 
Q 1681 3072 1420 2755 
Q 1159 2438 1159 1844 
L 1159 0 
L 581 0 
L 581 3500 
L 1159 3500 
L 1159 2956 
Q 1341 3275 1631 3429 
Q 1922 3584 2338 3584 
Q 2397 3584 2469 3576 
Q 2541 3569 2628 3553 
L 2631 2963 
z
" transform="scale(0.015625)"/>
      <path id="DejaVuSans-69" d="M 603 3500 
L 1178 3500 
L 1178 0 
L 603 0 
L 603 3500 
z
M 603 4863 
L 1178 4863 
L 1178 4134 
L 603 4134 
L 603 4863 
z
" transform="scale(0.015625)"/>
      <path id="DejaVuSans-6e" d="M 3513 2113 
L 3513 0 
L 2938 0 
L 2938 2094 
Q 2938 2591 2744 2837 
Q 2550 3084 2163 3084 
Q 1697 3084 1428 2787 
Q 1159 2491 1159 1978 
L 1159 0 
L 581 0 
L 581 3500 
L 1159 3500 
L 1159 2956 
Q 1366 3272 1645 3428 
Q 1925 3584 2291 3584 
Q 2894 3584 3203 3211 
Q 3513 2838 3513 2113 
z
" transform="scale(0.015625)"/>
      <path id="DejaVuSans-67" d="M 2906 1791 
Q 2906 2416 2648 2759 
Q 2391 3103 1925 3103 
Q 1463 3103 1205 2759 
Q 947 2416 947 1791 
Q 947 1169 1205 825 
Q 1463 481 1925 481 
Q 2391 481 2648 825 
Q 2906 1169 2906 1791 
z
M 3481 434 
Q 3481 -459 3084 -895 
Q 2688 -1331 1869 -1331 
Q 1566 -1331 1297 -1286 
Q 1028 -1241 775 -1147 
L 775 -588 
Q 1028 -725 1275 -790 
Q 1522 -856 1778 -856 
Q 2344 -856 2625 -561 
Q 2906 -266 2906 331 
L 2906 616 
Q 2728 306 2450 153 
Q 2172 0 1784 0 
Q 1141 0 747 490 
Q 353 981 353 1791 
Q 353 2603 747 3093 
Q 1141 3584 1784 3584 
Q 2172 3584 2450 3431 
Q 2728 3278 2906 2969 
L 2906 3500 
L 3481 3500 
L 3481 434 
z
" transform="scale(0.015625)"/>
      <path id="DejaVuSans-74" d="M 1172 4494 
L 1172 3500 
L 2356 3500 
L 2356 3053 
L 1172 3053 
L 1172 1153 
Q 1172 725 1289 603 
Q 1406 481 1766 481 
L 2356 481 
L 2356 0 
L 1766 0 
Q 1100 0 847 248 
Q 594 497 594 1153 
L 594 3053 
L 172 3053 
L 172 3500 
L 594 3500 
L 594 4494 
L 1172 4494 
z
" transform="scale(0.015625)"/>
      <path id="DejaVuSans-61" d="M 2194 1759 
Q 1497 1759 1228 1600 
Q 959 1441 959 1056 
Q 959 750 1161 570 
Q 1363 391 1709 391 
Q 2188 391 2477 730 
Q 2766 1069 2766 1631 
L 2766 1759 
L 2194 1759 
z
M 3341 1997 
L 3341 0 
L 2766 0 
L 2766 531 
Q 2569 213 2275 61 
Q 1981 -91 1556 -91 
Q 1019 -91 701 211 
Q 384 513 384 1019 
Q 384 1609 779 1909 
Q 1175 2209 1959 2209 
L 2766 2209 
L 2766 2266 
Q 2766 2663 2505 2880 
Q 2244 3097 1772 3097 
Q 1472 3097 1187 3025 
Q 903 2953 641 2809 
L 641 3341 
Q 956 3463 1253 3523 
Q 1550 3584 1831 3584 
Q 2591 3584 2966 3190 
Q 3341 2797 3341 1997 
z
" transform="scale(0.015625)"/>
     </defs>
     <use xlink:href="#DejaVuSans-4d"/>
     <use xlink:href="#DejaVuSans-53" x="86.279297"/>
     <use xlink:href="#DejaVuSans-45" x="149.755859"/>
     <use xlink:href="#DejaVuSans-20" x="212.939453"/>
     <use xlink:href="#DejaVuSans-6c" x="244.726562"/>
     <use xlink:href="#DejaVuSans-6f" x="272.509766"/>
     <use xlink:href="#DejaVuSans-73" x="333.691406"/>
     <use xlink:href="#DejaVuSans-73" x="385.791016"/>
     <use xlink:href="#DejaVuSans-20" x="437.890625"/>
     <use xlink:href="#DejaVuSans-64" x="469.677734"/>
     <use xlink:href="#DejaVuSans-75" x="533.154297"/>
     <use xlink:href="#DejaVuSans-72" x="596.533203"/>
     <use xlink:href="#DejaVuSans-69" x="637.646484"/>
     <use xlink:href="#DejaVuSans-6e" x="665.429688"/>
     <use xlink:href="#DejaVuSans-67" x="728.808594"/>
     <use xlink:href="#DejaVuSans-20" x="792.285156"/>
     <use xlink:href="#DejaVuSans-74" x="824.072266"/>
     <use xlink:href="#DejaVuSans-72" x="863.28125"/>
     <use xlink:href="#DejaVuSans-61" x="904.394531"/>
     <use xlink:href="#DejaVuSans-69" x="965.673828"/>
     <use xlink:href="#DejaVuSans-6e" x="993.457031"/>
     <use xlink:href="#DejaVuSans-69" x="1056.835938"/>
     <use xlink:href="#DejaVuSans-6e" x="1084.619141"/>
     <use xlink:href="#DejaVuSans-67" x="1147.998047"/>
    </g>
   </g>
   <g id="legend_1">
    <g id="patch_7">
     <path d="M 304.765312 78.82825 
L 407.72 78.82825 
Q 409.72 78.82825 409.72 76.82825 
L 409.72 48.472 
Q 409.72 46.472 407.72 46.472 
L 304.765312 46.472 
Q 302.765312 46.472 302.765312 48.472 
L 302.765312 76.82825 
Q 302.765312 78.82825 304.765312 78.82825 
z
" style="fill: #ffffff; opacity: 0.8; stroke: #cccccc; stroke-linejoin: miter"/>
    </g>
    <g id="line2d_28">
     <path d="M 306.765312 54.570437 
L 316.765312 54.570437 
L 326.765312 54.570437 
" style="fill: none; stroke: #1f77b4; stroke-width: 1.5; stroke-linecap: square"/>
    </g>
    <g id="text_10">
     <!-- Train MSE loss -->
     <g transform="translate(334.765312 58.070437) scale(0.1 -0.1)">
      <defs>
       <path id="DejaVuSans-54" d="M -19 4666 
L 3928 4666 
L 3928 4134 
L 2272 4134 
L 2272 0 
L 1638 0 
L 1638 4134 
L -19 4134 
L -19 4666 
z
" transform="scale(0.015625)"/>
      </defs>
      <use xlink:href="#DejaVuSans-54"/>
      <use xlink:href="#DejaVuSans-72" x="46.333984"/>
      <use xlink:href="#DejaVuSans-61" x="87.447266"/>
      <use xlink:href="#DejaVuSans-69" x="148.726562"/>
      <use xlink:href="#DejaVuSans-6e" x="176.509766"/>
      <use xlink:href="#DejaVuSans-20" x="239.888672"/>
      <use xlink:href="#DejaVuSans-4d" x="271.675781"/>
      <use xlink:href="#DejaVuSans-53" x="357.955078"/>
      <use xlink:href="#DejaVuSans-45" x="421.431641"/>
      <use xlink:href="#DejaVuSans-20" x="484.615234"/>
      <use xlink:href="#DejaVuSans-6c" x="516.402344"/>
      <use xlink:href="#DejaVuSans-6f" x="544.185547"/>
      <use xlink:href="#DejaVuSans-73" x="605.367188"/>
      <use xlink:href="#DejaVuSans-73" x="657.466797"/>
     </g>
    </g>
    <g id="line2d_29">
     <path d="M 306.765312 69.248562 
L 316.765312 69.248562 
L 326.765312 69.248562 
" style="fill: none; stroke: #ff7f0e; stroke-width: 1.5; stroke-linecap: square"/>
    </g>
    <g id="text_11">
     <!-- Test MSE loss -->
     <g transform="translate(334.765312 72.748562) scale(0.1 -0.1)">
      <defs>
       <path id="DejaVuSans-65" d="M 3597 1894 
L 3597 1613 
L 953 1613 
Q 991 1019 1311 708 
Q 1631 397 2203 397 
Q 2534 397 2845 478 
Q 3156 559 3463 722 
L 3463 178 
Q 3153 47 2828 -22 
Q 2503 -91 2169 -91 
Q 1331 -91 842 396 
Q 353 884 353 1716 
Q 353 2575 817 3079 
Q 1281 3584 2069 3584 
Q 2775 3584 3186 3129 
Q 3597 2675 3597 1894 
z
M 3022 2063 
Q 3016 2534 2758 2815 
Q 2500 3097 2075 3097 
Q 1594 3097 1305 2825 
Q 1016 2553 972 2059 
L 3022 2063 
z
" transform="scale(0.015625)"/>
      </defs>
      <use xlink:href="#DejaVuSans-54"/>
      <use xlink:href="#DejaVuSans-65" x="44.083984"/>
      <use xlink:href="#DejaVuSans-73" x="105.607422"/>
      <use xlink:href="#DejaVuSans-74" x="157.707031"/>
      <use xlink:href="#DejaVuSans-20" x="196.916016"/>
      <use xlink:href="#DejaVuSans-4d" x="228.703125"/>
      <use xlink:href="#DejaVuSans-53" x="314.982422"/>
      <use xlink:href="#DejaVuSans-45" x="378.458984"/>
      <use xlink:href="#DejaVuSans-20" x="441.642578"/>
      <use xlink:href="#DejaVuSans-6c" x="473.429688"/>
      <use xlink:href="#DejaVuSans-6f" x="501.212891"/>
      <use xlink:href="#DejaVuSans-73" x="562.394531"/>
      <use xlink:href="#DejaVuSans-73" x="614.494141"/>
     </g>
    </g>
   </g>
  </g>
 </g>
 <defs>
  <clipPath id="p3606e91877">
   <rect x="57.6" y="41.472" width="357.12" height="266.112"/>
  </clipPath>
 </defs>
</svg>
