<?xml version="1.0" encoding="utf-8" standalone="no"?>
<!DOCTYPE svg PUBLIC "-//W3C//DTD SVG 1.1//EN"
  "http://www.w3.org/Graphics/SVG/1.1/DTD/svg11.dtd">
<svg xmlns:xlink="http://www.w3.org/1999/xlink" width="460.8pt" height="345.6pt" viewBox="0 0 460.8 345.6" xmlns="http://www.w3.org/2000/svg" version="1.1">
 <metadata>
  <rdf:RDF xmlns:dc="http://purl.org/dc/elements/1.1/" xmlns:cc="http://creativecommons.org/ns#" xmlns:rdf="http://www.w3.org/1999/02/22-rdf-syntax-ns#">
   <cc:Work>
    <dc:type rdf:resource="http://purl.org/dc/dcmitype/StillImage"/>
    <dc:date>2023-03-22T06:36:27.460446</dc:date>
    <dc:format>image/svg+xml</dc:format>
    <dc:creator>
     <cc:Agent>
      <dc:title>Matplotlib v3.6.2, https://matplotlib.org/</dc:title>
     </cc:Agent>
    </dc:creator>
   </cc:Work>
  </rdf:RDF>
 </metadata>
 <defs>
  <style type="text/css">*{stroke-linejoin: round; stroke-linecap: butt}</style>
 </defs>
 <g id="figure_1">
  <g id="patch_1">
   <path d="M 0 345.6 
L 460.8 345.6 
L 460.8 0 
L 0 0 
z
" style="fill: #ffffff"/>
  </g>
  <g id="axes_1">
   <g id="patch_2">
    <path d="M 57.6 307.584 
L 414.72 307.584 
L 414.72 41.472 
L 57.6 41.472 
z
" style="fill: #ffffff"/>
   </g>
   <g id="matplotlib.axis_1">
    <g id="xtick_1">
     <g id="line2d_1">
      <defs>
       <path id="m8dbe4d3874" d="M 0 0 
L 0 3.5 
" style="stroke: #000000; stroke-width: 0.8"/>
      </defs>
      <g>
       <use xlink:href="#m8dbe4d3874" x="73.832727" y="307.584" style="stroke: #000000; stroke-width: 0.8"/>
      </g>
     </g>
     <g id="text_1">
      <!-- 0 -->
      <g transform="translate(70.651477 322.182437) scale(0.1 -0.1)">
       <defs>
        <path id="DejaVuSans-30" d="M 2034 4250 
Q 1547 4250 1301 3770 
Q 1056 3291 1056 2328 
Q 1056 1369 1301 889 
Q 1547 409 2034 409 
Q 2525 409 2770 889 
Q 3016 1369 3016 2328 
Q 3016 3291 2770 3770 
Q 2525 4250 2034 4250 
z
M 2034 4750 
Q 2819 4750 3233 4129 
Q 3647 3509 3647 2328 
Q 3647 1150 3233 529 
Q 2819 -91 2034 -91 
Q 1250 -91 836 529 
Q 422 1150 422 2328 
Q 422 3509 836 4129 
Q 1250 4750 2034 4750 
z
" transform="scale(0.015625)"/>
       </defs>
       <use xlink:href="#DejaVuSans-30"/>
      </g>
     </g>
    </g>
    <g id="xtick_2">
     <g id="line2d_2">
      <g>
       <use xlink:href="#m8dbe4d3874" x="138.893758" y="307.584" style="stroke: #000000; stroke-width: 0.8"/>
      </g>
     </g>
     <g id="text_2">
      <!-- 100 -->
      <g transform="translate(129.350008 322.182437) scale(0.1 -0.1)">
       <defs>
        <path id="DejaVuSans-31" d="M 794 531 
L 1825 531 
L 1825 4091 
L 703 3866 
L 703 4441 
L 1819 4666 
L 2450 4666 
L 2450 531 
L 3481 531 
L 3481 0 
L 794 0 
L 794 531 
z
" transform="scale(0.015625)"/>
       </defs>
       <use xlink:href="#DejaVuSans-31"/>
       <use xlink:href="#DejaVuSans-30" x="63.623047"/>
       <use xlink:href="#DejaVuSans-30" x="127.246094"/>
      </g>
     </g>
    </g>
    <g id="xtick_3">
     <g id="line2d_3">
      <g>
       <use xlink:href="#m8dbe4d3874" x="203.95479" y="307.584" style="stroke: #000000; stroke-width: 0.8"/>
      </g>
     </g>
     <g id="text_3">
      <!-- 200 -->
      <g transform="translate(194.41104 322.182437) scale(0.1 -0.1)">
       <defs>
        <path id="DejaVuSans-32" d="M 1228 531 
L 3431 531 
L 3431 0 
L 469 0 
L 469 531 
Q 828 903 1448 1529 
Q 2069 2156 2228 2338 
Q 2531 2678 2651 2914 
Q 2772 3150 2772 3378 
Q 2772 3750 2511 3984 
Q 2250 4219 1831 4219 
Q 1534 4219 1204 4116 
Q 875 4013 500 3803 
L 500 4441 
Q 881 4594 1212 4672 
Q 1544 4750 1819 4750 
Q 2544 4750 2975 4387 
Q 3406 4025 3406 3419 
Q 3406 3131 3298 2873 
Q 3191 2616 2906 2266 
Q 2828 2175 2409 1742 
Q 1991 1309 1228 531 
z
" transform="scale(0.015625)"/>
       </defs>
       <use xlink:href="#DejaVuSans-32"/>
       <use xlink:href="#DejaVuSans-30" x="63.623047"/>
       <use xlink:href="#DejaVuSans-30" x="127.246094"/>
      </g>
     </g>
    </g>
    <g id="xtick_4">
     <g id="line2d_4">
      <g>
       <use xlink:href="#m8dbe4d3874" x="269.015821" y="307.584" style="stroke: #000000; stroke-width: 0.8"/>
      </g>
     </g>
     <g id="text_4">
      <!-- 300 -->
      <g transform="translate(259.472071 322.182437) scale(0.1 -0.1)">
       <defs>
        <path id="DejaVuSans-33" d="M 2597 2516 
Q 3050 2419 3304 2112 
Q 3559 1806 3559 1356 
Q 3559 666 3084 287 
Q 2609 -91 1734 -91 
Q 1441 -91 1130 -33 
Q 819 25 488 141 
L 488 750 
Q 750 597 1062 519 
Q 1375 441 1716 441 
Q 2309 441 2620 675 
Q 2931 909 2931 1356 
Q 2931 1769 2642 2001 
Q 2353 2234 1838 2234 
L 1294 2234 
L 1294 2753 
L 1863 2753 
Q 2328 2753 2575 2939 
Q 2822 3125 2822 3475 
Q 2822 3834 2567 4026 
Q 2313 4219 1838 4219 
Q 1578 4219 1281 4162 
Q 984 4106 628 3988 
L 628 4550 
Q 988 4650 1302 4700 
Q 1616 4750 1894 4750 
Q 2613 4750 3031 4423 
Q 3450 4097 3450 3541 
Q 3450 3153 3228 2886 
Q 3006 2619 2597 2516 
z
" transform="scale(0.015625)"/>
       </defs>
       <use xlink:href="#DejaVuSans-33"/>
       <use xlink:href="#DejaVuSans-30" x="63.623047"/>
       <use xlink:href="#DejaVuSans-30" x="127.246094"/>
      </g>
     </g>
    </g>
    <g id="xtick_5">
     <g id="line2d_5">
      <g>
       <use xlink:href="#m8dbe4d3874" x="334.076852" y="307.584" style="stroke: #000000; stroke-width: 0.8"/>
      </g>
     </g>
     <g id="text_5">
      <!-- 400 -->
      <g transform="translate(324.533102 322.182437) scale(0.1 -0.1)">
       <defs>
        <path id="DejaVuSans-34" d="M 2419 4116 
L 825 1625 
L 2419 1625 
L 2419 4116 
z
M 2253 4666 
L 3047 4666 
L 3047 1625 
L 3713 1625 
L 3713 1100 
L 3047 1100 
L 3047 0 
L 2419 0 
L 2419 1100 
L 313 1100 
L 313 1709 
L 2253 4666 
z
" transform="scale(0.015625)"/>
       </defs>
       <use xlink:href="#DejaVuSans-34"/>
       <use xlink:href="#DejaVuSans-30" x="63.623047"/>
       <use xlink:href="#DejaVuSans-30" x="127.246094"/>
      </g>
     </g>
    </g>
    <g id="xtick_6">
     <g id="line2d_6">
      <g>
       <use xlink:href="#m8dbe4d3874" x="399.137883" y="307.584" style="stroke: #000000; stroke-width: 0.8"/>
      </g>
     </g>
     <g id="text_6">
      <!-- 500 -->
      <g transform="translate(389.594133 322.182437) scale(0.1 -0.1)">
       <defs>
        <path id="DejaVuSans-35" d="M 691 4666 
L 3169 4666 
L 3169 4134 
L 1269 4134 
L 1269 2991 
Q 1406 3038 1543 3061 
Q 1681 3084 1819 3084 
Q 2600 3084 3056 2656 
Q 3513 2228 3513 1497 
Q 3513 744 3044 326 
Q 2575 -91 1722 -91 
Q 1428 -91 1123 -41 
Q 819 9 494 109 
L 494 744 
Q 775 591 1075 516 
Q 1375 441 1709 441 
Q 2250 441 2565 725 
Q 2881 1009 2881 1497 
Q 2881 1984 2565 2268 
Q 2250 2553 1709 2553 
Q 1456 2553 1204 2497 
Q 953 2441 691 2322 
L 691 4666 
z
" transform="scale(0.015625)"/>
       </defs>
       <use xlink:href="#DejaVuSans-35"/>
       <use xlink:href="#DejaVuSans-30" x="63.623047"/>
       <use xlink:href="#DejaVuSans-30" x="127.246094"/>
      </g>
     </g>
    </g>
   </g>
   <g id="matplotlib.axis_2">
    <g id="ytick_1">
     <g id="line2d_7">
      <defs>
       <path id="m38e4fb3063" d="M 0 0 
L -3.5 0 
" style="stroke: #000000; stroke-width: 0.8"/>
      </defs>
      <g>
       <use xlink:href="#m38e4fb3063" x="57.6" y="281.817435" style="stroke: #000000; stroke-width: 0.8"/>
      </g>
     </g>
     <g id="text_7">
      <!-- 0.1 -->
      <g transform="translate(34.696875 285.616653) scale(0.1 -0.1)">
       <defs>
        <path id="DejaVuSans-2e" d="M 684 794 
L 1344 794 
L 1344 0 
L 684 0 
L 684 794 
z
" transform="scale(0.015625)"/>
       </defs>
       <use xlink:href="#DejaVuSans-30"/>
       <use xlink:href="#DejaVuSans-2e" x="63.623047"/>
       <use xlink:href="#DejaVuSans-31" x="95.410156"/>
      </g>
     </g>
    </g>
    <g id="ytick_2">
     <g id="line2d_8">
      <g>
       <use xlink:href="#m38e4fb3063" x="57.6" y="250.971918" style="stroke: #000000; stroke-width: 0.8"/>
      </g>
     </g>
     <g id="text_8">
      <!-- 0.2 -->
      <g transform="translate(34.696875 254.771137) scale(0.1 -0.1)">
       <use xlink:href="#DejaVuSans-30"/>
       <use xlink:href="#DejaVuSans-2e" x="63.623047"/>
       <use xlink:href="#DejaVuSans-32" x="95.410156"/>
      </g>
     </g>
    </g>
    <g id="ytick_3">
     <g id="line2d_9">
      <g>
       <use xlink:href="#m38e4fb3063" x="57.6" y="220.126402" style="stroke: #000000; stroke-width: 0.8"/>
      </g>
     </g>
     <g id="text_9">
      <!-- 0.3 -->
      <g transform="translate(34.696875 223.925621) scale(0.1 -0.1)">
       <use xlink:href="#DejaVuSans-30"/>
       <use xlink:href="#DejaVuSans-2e" x="63.623047"/>
       <use xlink:href="#DejaVuSans-33" x="95.410156"/>
      </g>
     </g>
    </g>
    <g id="ytick_4">
     <g id="line2d_10">
      <g>
       <use xlink:href="#m38e4fb3063" x="57.6" y="189.280886" style="stroke: #000000; stroke-width: 0.8"/>
      </g>
     </g>
     <g id="text_10">
      <!-- 0.4 -->
      <g transform="translate(34.696875 193.080105) scale(0.1 -0.1)">
       <use xlink:href="#DejaVuSans-30"/>
       <use xlink:href="#DejaVuSans-2e" x="63.623047"/>
       <use xlink:href="#DejaVuSans-34" x="95.410156"/>
      </g>
     </g>
    </g>
    <g id="ytick_5">
     <g id="line2d_11">
      <g>
       <use xlink:href="#m38e4fb3063" x="57.6" y="158.43537" style="stroke: #000000; stroke-width: 0.8"/>
      </g>
     </g>
     <g id="text_11">
      <!-- 0.5 -->
      <g transform="translate(34.696875 162.234588) scale(0.1 -0.1)">
       <use xlink:href="#DejaVuSans-30"/>
       <use xlink:href="#DejaVuSans-2e" x="63.623047"/>
       <use xlink:href="#DejaVuSans-35" x="95.410156"/>
      </g>
     </g>
    </g>
    <g id="ytick_6">
     <g id="line2d_12">
      <g>
       <use xlink:href="#m38e4fb3063" x="57.6" y="127.589853" style="stroke: #000000; stroke-width: 0.8"/>
      </g>
     </g>
     <g id="text_12">
      <!-- 0.6 -->
      <g transform="translate(34.696875 131.389072) scale(0.1 -0.1)">
       <defs>
        <path id="DejaVuSans-36" d="M 2113 2584 
Q 1688 2584 1439 2293 
Q 1191 2003 1191 1497 
Q 1191 994 1439 701 
Q 1688 409 2113 409 
Q 2538 409 2786 701 
Q 3034 994 3034 1497 
Q 3034 2003 2786 2293 
Q 2538 2584 2113 2584 
z
M 3366 4563 
L 3366 3988 
Q 3128 4100 2886 4159 
Q 2644 4219 2406 4219 
Q 1781 4219 1451 3797 
Q 1122 3375 1075 2522 
Q 1259 2794 1537 2939 
Q 1816 3084 2150 3084 
Q 2853 3084 3261 2657 
Q 3669 2231 3669 1497 
Q 3669 778 3244 343 
Q 2819 -91 2113 -91 
Q 1303 -91 875 529 
Q 447 1150 447 2328 
Q 447 3434 972 4092 
Q 1497 4750 2381 4750 
Q 2619 4750 2861 4703 
Q 3103 4656 3366 4563 
z
" transform="scale(0.015625)"/>
       </defs>
       <use xlink:href="#DejaVuSans-30"/>
       <use xlink:href="#DejaVuSans-2e" x="63.623047"/>
       <use xlink:href="#DejaVuSans-36" x="95.410156"/>
      </g>
     </g>
    </g>
    <g id="ytick_7">
     <g id="line2d_13">
      <g>
       <use xlink:href="#m38e4fb3063" x="57.6" y="96.744337" style="stroke: #000000; stroke-width: 0.8"/>
      </g>
     </g>
     <g id="text_13">
      <!-- 0.7 -->
      <g transform="translate(34.696875 100.543556) scale(0.1 -0.1)">
       <defs>
        <path id="DejaVuSans-37" d="M 525 4666 
L 3525 4666 
L 3525 4397 
L 1831 0 
L 1172 0 
L 2766 4134 
L 525 4134 
L 525 4666 
z
" transform="scale(0.015625)"/>
       </defs>
       <use xlink:href="#DejaVuSans-30"/>
       <use xlink:href="#DejaVuSans-2e" x="63.623047"/>
       <use xlink:href="#DejaVuSans-37" x="95.410156"/>
      </g>
     </g>
    </g>
    <g id="ytick_8">
     <g id="line2d_14">
      <g>
       <use xlink:href="#m38e4fb3063" x="57.6" y="65.898821" style="stroke: #000000; stroke-width: 0.8"/>
      </g>
     </g>
     <g id="text_14">
      <!-- 0.8 -->
      <g transform="translate(34.696875 69.698039) scale(0.1 -0.1)">
       <defs>
        <path id="DejaVuSans-38" d="M 2034 2216 
Q 1584 2216 1326 1975 
Q 1069 1734 1069 1313 
Q 1069 891 1326 650 
Q 1584 409 2034 409 
Q 2484 409 2743 651 
Q 3003 894 3003 1313 
Q 3003 1734 2745 1975 
Q 2488 2216 2034 2216 
z
M 1403 2484 
Q 997 2584 770 2862 
Q 544 3141 544 3541 
Q 544 4100 942 4425 
Q 1341 4750 2034 4750 
Q 2731 4750 3128 4425 
Q 3525 4100 3525 3541 
Q 3525 3141 3298 2862 
Q 3072 2584 2669 2484 
Q 3125 2378 3379 2068 
Q 3634 1759 3634 1313 
Q 3634 634 3220 271 
Q 2806 -91 2034 -91 
Q 1263 -91 848 271 
Q 434 634 434 1313 
Q 434 1759 690 2068 
Q 947 2378 1403 2484 
z
M 1172 3481 
Q 1172 3119 1398 2916 
Q 1625 2713 2034 2713 
Q 2441 2713 2670 2916 
Q 2900 3119 2900 3481 
Q 2900 3844 2670 4047 
Q 2441 4250 2034 4250 
Q 1625 4250 1398 4047 
Q 1172 3844 1172 3481 
z
" transform="scale(0.015625)"/>
       </defs>
       <use xlink:href="#DejaVuSans-30"/>
       <use xlink:href="#DejaVuSans-2e" x="63.623047"/>
       <use xlink:href="#DejaVuSans-38" x="95.410156"/>
      </g>
     </g>
    </g>
   </g>
   <g id="line2d_15">
    <path d="M 73.832727 282.693461 
L 74.483338 285.91808 
L 75.133948 287.973293 
L 75.784558 291.153261 
L 76.435169 289.95089 
L 77.085779 292.335432 
L 77.736389 293.126286 
L 78.386999 292.016575 
L 79.03761 290.007845 
L 79.68822 289.702378 
L 80.33883 289.68763 
L 80.989441 282.229409 
L 81.640051 277.026108 
L 82.941272 255.549714 
L 83.591882 254.276754 
L 84.242492 238.865498 
L 84.893103 232.802419 
L 85.543713 223.182408 
L 86.194323 247.108362 
L 86.844934 219.228515 
L 87.495544 223.345906 
L 88.146154 203.949729 
L 88.796764 221.637029 
L 89.447375 217.516497 
L 90.097985 214.20455 
L 91.399206 197.913345 
L 92.049816 212.139133 
L 92.700426 188.555845 
L 93.351037 192.51217 
L 94.001647 218.874505 
L 94.652257 209.7311 
L 95.302868 191.520642 
L 95.953478 195.252306 
L 96.604088 188.567567 
L 97.254698 189.352628 
L 97.905309 191.869292 
L 98.555919 190.306478 
L 99.206529 178.567736 
L 99.85714 190.796816 
L 100.50775 171.152206 
L 101.15836 170.521391 
L 101.808971 184.121832 
L 102.459581 166.587223 
L 103.110191 170.680238 
L 103.760802 227.176735 
L 104.411412 199.453224 
L 105.062022 191.60158 
L 105.712633 177.990344 
L 106.363243 170.29898 
L 107.013853 150.851098 
L 107.664463 147.599684 
L 108.315074 162.937332 
L 108.965684 164.188774 
L 109.616294 146.009498 
L 110.266905 153.68424 
L 110.917515 140.078661 
L 111.568125 151.59631 
L 112.218736 141.727702 
L 112.869346 148.150775 
L 113.519956 133.343303 
L 114.170567 129.462679 
L 114.821177 129.956714 
L 115.471787 139.403887 
L 116.122398 122.642763 
L 116.773008 131.851252 
L 117.423618 131.495156 
L 118.074228 138.437056 
L 118.724839 130.725101 
L 119.375449 111.686467 
L 120.026059 124.051841 
L 120.67667 117.532108 
L 121.32728 131.160333 
L 121.97789 137.206012 
L 122.628501 116.374676 
L 123.279111 117.754035 
L 123.929721 120.25348 
L 124.580332 111.417579 
L 125.230942 109.146267 
L 125.881552 112.907281 
L 126.532163 126.452089 
L 127.182773 120.038532 
L 127.833383 121.543508 
L 128.483993 107.903766 
L 129.134604 114.397047 
L 129.785214 107.557961 
L 130.435824 131.820475 
L 131.086435 116.325973 
L 131.737045 127.987133 
L 132.387655 111.462526 
L 133.038266 109.415767 
L 133.688876 108.011441 
L 134.339486 109.6744 
L 134.990097 118.051618 
L 135.640707 119.80535 
L 136.291317 116.137505 
L 136.941927 104.733646 
L 137.592538 103.111233 
L 138.243148 115.822824 
L 138.893758 118.612939 
L 139.544369 110.552947 
L 140.194979 105.222597 
L 140.845589 106.606968 
L 142.14681 117.253817 
L 142.79742 112.870132 
L 143.448031 103.296949 
L 144.098641 107.606328 
L 144.749251 102.331189 
L 145.399862 103.091046 
L 146.050472 97.351998 
L 146.701082 111.125099 
L 147.351692 101.26337 
L 148.002303 100.63214 
L 148.652913 98.740991 
L 149.303523 114.202997 
L 149.954134 100.575022 
L 150.604744 120.464381 
L 151.255354 105.684143 
L 151.905965 97.972362 
L 153.207185 138.870525 
L 153.857796 96.654872 
L 154.508406 174.607301 
L 155.159016 106.264514 
L 155.809627 117.724275 
L 156.460237 105.956383 
L 157.110847 108.016255 
L 157.761457 93.859502 
L 159.062678 105.734511 
L 159.713288 92.946879 
L 160.363899 98.345658 
L 161.014509 92.58112 
L 161.665119 95.067517 
L 162.31573 93.41057 
L 162.96634 96.746576 
L 163.61695 91.228444 
L 164.267561 94.556099 
L 164.918171 105.629983 
L 165.568781 110.751926 
L 166.219392 94.972044 
L 166.870002 88.17213 
L 167.520612 91.53877 
L 168.171222 92.055824 
L 168.821833 91.29945 
L 169.472443 91.883653 
L 170.123053 117.832927 
L 170.773664 152.65866 
L 171.424274 117.848389 
L 172.074884 112.222747 
L 172.725495 103.804175 
L 173.376105 89.528914 
L 174.026715 119.53799 
L 174.677326 89.968277 
L 175.327936 86.809903 
L 175.978546 85.473285 
L 176.629156 88.46328 
L 177.279767 88.214379 
L 177.930377 92.767141 
L 178.580987 92.098465 
L 179.231598 92.301174 
L 179.882208 101.409221 
L 180.532818 90.231203 
L 181.183429 92.339931 
L 181.834039 95.07984 
L 182.484649 90.928964 
L 183.13526 87.732047 
L 183.78587 86.185095 
L 184.43648 92.222159 
L 185.087091 126.929685 
L 185.737701 91.487656 
L 186.388311 97.263714 
L 187.038921 88.172319 
L 187.689532 88.707834 
L 188.340142 89.486031 
L 188.990752 89.764231 
L 189.641363 89.237214 
L 190.291973 97.446097 
L 190.942583 86.368578 
L 191.593194 80.457714 
L 192.243804 95.934182 
L 192.894414 85.574239 
L 193.545025 90.315114 
L 194.195635 108.476698 
L 194.846245 107.744181 
L 195.496856 91.011333 
L 196.147466 91.17501 
L 196.798076 87.23481 
L 197.448686 82.158859 
L 198.099297 84.779243 
L 198.749907 92.213542 
L 199.400517 89.250449 
L 200.051128 82.365683 
L 200.701738 86.299901 
L 201.352348 87.088171 
L 202.002959 85.277523 
L 202.653569 85.144625 
L 203.304179 93.34681 
L 203.95479 89.258174 
L 204.6054 77.380892 
L 205.25601 82.849205 
L 205.906621 86.115716 
L 206.557231 85.183137 
L 207.207841 80.23352 
L 207.858451 97.761471 
L 208.509062 91.489492 
L 209.159672 93.007009 
L 209.810282 81.147464 
L 210.460893 79.324587 
L 211.111503 84.110822 
L 211.762113 78.759957 
L 212.412724 81.404949 
L 213.063334 75.525815 
L 213.713944 89.388379 
L 214.364555 82.285644 
L 215.015165 82.759064 
L 215.665775 90.687441 
L 216.316385 77.657883 
L 216.966996 83.130425 
L 217.617606 79.285752 
L 218.268216 88.027828 
L 218.918827 86.78877 
L 219.569437 85.116603 
L 220.220047 96.00906 
L 220.870658 84.071861 
L 221.521268 82.190229 
L 222.171878 79.030161 
L 222.822489 91.877137 
L 223.473099 83.274787 
L 224.123709 85.413527 
L 225.42493 91.953523 
L 226.07554 79.103627 
L 226.72615 79.748609 
L 227.376761 79.036268 
L 228.027371 80.027562 
L 228.677981 78.82689 
L 229.328592 108.379671 
L 229.979202 85.809558 
L 230.629812 102.927371 
L 231.280423 102.054408 
L 231.931033 78.049247 
L 232.581643 90.709603 
L 233.232254 86.051546 
L 233.882864 79.765426 
L 234.533474 71.582165 
L 235.834695 75.959081 
L 236.485305 73.317935 
L 237.135915 84.6252 
L 237.786526 89.644093 
L 238.437136 74.607739 
L 239.087746 69.722917 
L 239.738357 76.986295 
L 240.388967 72.985698 
L 241.039577 73.520006 
L 241.690188 68.156852 
L 242.340798 80.142126 
L 242.991408 69.389191 
L 243.642019 84.55565 
L 244.292629 72.280344 
L 244.943239 70.224293 
L 245.59385 72.343264 
L 246.24446 68.576293 
L 246.89507 69.179033 
L 247.54568 77.18674 
L 248.196291 78.308817 
L 248.846901 86.113862 
L 249.497511 145.847446 
L 250.148122 108.518796 
L 250.798732 95.792822 
L 251.449342 92.375829 
L 252.099953 84.833577 
L 252.750563 81.068131 
L 253.401173 73.073313 
L 254.051784 69.085357 
L 254.702394 70.139206 
L 255.353004 70.79363 
L 256.003615 85.003631 
L 256.654225 72.232266 
L 257.304835 70.262971 
L 257.955445 81.971178 
L 258.606056 74.85966 
L 259.256666 81.045355 
L 259.907276 75.774064 
L 260.557887 72.762421 
L 261.208497 72.83689 
L 261.859107 71.309949 
L 262.509718 68.559707 
L 263.160328 69.883531 
L 263.810938 91.153318 
L 264.461549 77.647262 
L 265.112159 74.569321 
L 265.762769 72.451921 
L 266.413379 78.561739 
L 267.06399 72.83316 
L 267.7146 79.16215 
L 268.36521 73.392067 
L 269.015821 73.800834 
L 269.666431 68.116409 
L 270.317041 69.443625 
L 270.967652 71.412474 
L 271.618262 69.040838 
L 272.268872 67.093335 
L 272.919483 73.494676 
L 273.570093 82.985638 
L 274.220703 73.596077 
L 274.871314 66.68078 
L 275.521924 68.389434 
L 276.172534 65.568957 
L 276.823144 72.28929 
L 277.473755 82.046844 
L 278.124365 80.324039 
L 278.774975 79.55422 
L 279.425586 68.915597 
L 280.076196 70.23933 
L 281.377417 65.859049 
L 282.028027 67.594163 
L 282.678637 71.966774 
L 283.329248 65.927569 
L 283.979858 68.986822 
L 284.630468 67.748481 
L 285.281079 74.895454 
L 285.931689 74.661661 
L 286.582299 76.041923 
L 287.232909 79.879284 
L 287.88352 69.981909 
L 288.53413 70.523037 
L 289.18474 68.833575 
L 289.835351 65.725196 
L 290.485961 65.522994 
L 291.136571 67.961352 
L 291.787182 76.715936 
L 292.437792 67.340148 
L 293.739013 61.435511 
L 294.389623 63.180402 
L 295.040233 71.901627 
L 296.341454 63.086747 
L 296.992064 65.126188 
L 297.642674 64.794014 
L 298.293285 61.583925 
L 298.943895 68.927852 
L 299.594505 64.69924 
L 300.245116 66.77458 
L 300.895726 63.096415 
L 301.546336 83.760381 
L 302.196947 66.145703 
L 302.847557 65.34749 
L 303.498167 62.50137 
L 304.148778 66.820727 
L 304.799388 63.561809 
L 305.449998 62.61593 
L 306.100608 66.303642 
L 306.751219 65.135181 
L 307.401829 71.295577 
L 308.052439 63.386263 
L 308.70305 61.147039 
L 309.35366 63.868435 
L 310.00427 61.61123 
L 310.654881 62.191433 
L 311.305491 69.716653 
L 311.956101 64.747397 
L 312.606712 63.53909 
L 313.257322 62.811051 
L 313.907932 75.426591 
L 314.558543 74.447742 
L 315.209153 64.115986 
L 315.859763 65.757996 
L 316.510373 61.732862 
L 317.160984 62.014355 
L 317.811594 64.99545 
L 318.462204 61.072796 
L 319.112815 68.63967 
L 319.763425 59.094918 
L 320.414035 60.67945 
L 321.064646 59.392711 
L 321.715256 60.898508 
L 322.365866 66.997841 
L 323.016477 67.9721 
L 323.667087 80.080887 
L 324.317697 63.875603 
L 324.968308 65.513252 
L 325.618918 69.468387 
L 326.269528 82.76303 
L 326.920138 75.31054 
L 327.570749 85.789156 
L 328.221359 75.949208 
L 328.871969 68.965868 
L 329.52258 67.586312 
L 330.17319 61.027674 
L 330.8238 61.042563 
L 331.474411 63.135983 
L 332.125021 58.596133 
L 332.775631 57.554858 
L 333.426242 65.814134 
L 334.076852 70.930446 
L 334.727462 66.85743 
L 335.378073 66.77053 
L 336.028683 63.289882 
L 336.679293 65.291475 
L 337.329903 70.776075 
L 337.980514 63.172397 
L 338.631124 62.544739 
L 339.281734 62.456366 
L 339.932345 57.628669 
L 340.582955 64.472872 
L 341.233565 59.721118 
L 341.884176 61.994452 
L 342.534786 70.960648 
L 343.185396 70.720002 
L 343.836007 63.305914 
L 345.137227 68.276567 
L 345.787837 66.894768 
L 346.438448 64.449034 
L 347.089058 57.484402 
L 348.390279 61.180514 
L 349.040889 66.330271 
L 349.691499 58.54555 
L 350.34211 61.462887 
L 350.99272 61.352278 
L 351.64333 60.537113 
L 352.293941 55.262358 
L 352.944551 63.485933 
L 353.595161 56.632892 
L 354.245772 56.519399 
L 354.896382 60.768892 
L 355.546992 94.524813 
L 356.197602 83.451223 
L 356.848213 78.840343 
L 357.498823 68.312521 
L 358.149433 78.262728 
L 358.800044 68.926127 
L 359.450654 75.628804 
L 360.101264 65.319746 
L 360.751875 65.338628 
L 361.402485 60.240226 
L 362.053095 59.294903 
L 362.703706 60.698662 
L 363.354316 57.31859 
L 364.004926 64.705171 
L 364.655537 59.828347 
L 365.306147 59.47529 
L 365.956757 60.400717 
L 366.607367 55.135728 
L 367.257978 62.315752 
L 367.908588 55.809984 
L 368.559198 53.91791 
L 369.209809 53.90405 
L 369.860419 56.779066 
L 370.511029 63.971367 
L 371.16164 60.778636 
L 371.81225 61.831555 
L 372.46286 63.684337 
L 373.113471 67.267098 
L 373.764081 61.222135 
L 374.414691 59.165539 
L 375.065302 62.642869 
L 375.715912 61.652072 
L 376.366522 55.113158 
L 377.017132 57.378915 
L 377.667743 54.779477 
L 378.318353 55.589791 
L 378.968963 69.163012 
L 379.619574 56.408152 
L 380.270184 57.693525 
L 380.920794 60.516385 
L 382.222015 54.277307 
L 382.872625 59.798843 
L 383.523236 59.680132 
L 384.173846 56.067222 
L 384.824456 76.808165 
L 385.475066 69.142168 
L 386.125677 63.540795 
L 386.776287 63.836263 
L 387.426897 58.738549 
L 388.077508 56.575506 
L 388.728118 58.89052 
L 389.378728 54.662617 
L 390.679949 58.228274 
L 391.330559 61.751093 
L 391.98117 61.98221 
L 392.63178 58.498121 
L 393.933001 54.592093 
L 394.583611 66.159041 
L 395.234221 60.682851 
L 395.884831 53.568 
L 396.535442 54.612438 
L 397.186052 53.712913 
L 397.836662 56.217598 
L 398.487273 64.035085 
L 398.487273 64.035085 
" clip-path="url(#p4a0e32ad17)" style="fill: none; stroke: #1f77b4; stroke-width: 1.5; stroke-linecap: square"/>
   </g>
   <g id="line2d_16">
    <path d="M 73.832727 276.818145 
L 74.483338 288.442482 
L 75.133948 290.61246 
L 75.784558 293.276728 
L 76.435169 294.365491 
L 77.085779 294.709435 
L 77.736389 295.488 
L 78.386999 293.390157 
L 79.03761 293.741547 
L 79.68822 290.645057 
L 80.33883 290.213966 
L 80.989441 285.676744 
L 81.640051 278.372268 
L 82.941272 252.787614 
L 83.591882 262.89083 
L 84.242492 251.894334 
L 84.893103 237.194181 
L 85.543713 272.452044 
L 86.194323 241.173729 
L 86.844934 241.501752 
L 87.495544 235.566525 
L 88.146154 237.680842 
L 88.796764 222.8905 
L 89.447375 212.976286 
L 90.097985 205.069358 
L 90.748595 217.783331 
L 91.399206 226.597098 
L 92.049816 221.270915 
L 92.700426 211.424846 
L 93.351037 222.261435 
L 94.001647 200.208251 
L 94.652257 205.969974 
L 95.302868 209.987617 
L 95.953478 225.588671 
L 96.604088 224.954311 
L 97.254698 198.4727 
L 97.905309 192.787919 
L 98.555919 191.435529 
L 99.206529 201.816455 
L 99.85714 172.82811 
L 100.50775 195.13162 
L 101.15836 174.195705 
L 101.808971 178.597114 
L 103.110191 146.326045 
L 103.760802 225.662313 
L 104.411412 195.190444 
L 105.062022 170.790764 
L 105.712633 167.029128 
L 106.363243 161.988892 
L 107.013853 151.098397 
L 107.664463 179.779256 
L 108.315074 163.032068 
L 108.965684 130.319962 
L 109.616294 127.693475 
L 110.266905 127.231387 
L 110.917515 118.659185 
L 111.568125 122.458777 
L 112.218736 113.898801 
L 112.869346 146.824665 
L 113.519956 137.363752 
L 114.170567 132.154343 
L 114.821177 136.556533 
L 115.471787 114.862378 
L 116.122398 122.776099 
L 116.773008 128.477114 
L 117.423618 132.945354 
L 118.074228 120.169165 
L 118.724839 119.633361 
L 119.375449 131.409496 
L 120.026059 134.040855 
L 120.67667 144.767389 
L 121.32728 127.278628 
L 121.97789 143.515447 
L 122.628501 135.064037 
L 123.279111 106.154078 
L 123.929721 117.930361 
L 124.580332 106.88281 
L 125.230942 114.553991 
L 125.881552 129.479843 
L 126.532163 114.908498 
L 127.182773 113.576616 
L 127.833383 114.91713 
L 128.483993 120.750023 
L 129.134604 102.657551 
L 129.785214 134.669736 
L 130.435824 105.901638 
L 131.086435 110.697496 
L 131.737045 106.274925 
L 132.387655 108.30033 
L 133.038266 114.262712 
L 133.688876 118.571229 
L 134.339486 113.120907 
L 134.990097 105.656129 
L 135.640707 114.967956 
L 136.291317 108.338471 
L 136.941927 104.566521 
L 137.592538 105.838972 
L 138.243148 120.711974 
L 138.893758 117.348253 
L 139.544369 119.442245 
L 140.194979 111.61989 
L 140.845589 101.199288 
L 141.4962 98.217817 
L 142.14681 97.499014 
L 142.79742 102.874553 
L 143.448031 111.564348 
L 144.098641 106.280174 
L 144.749251 108.631919 
L 145.399862 104.755403 
L 146.050472 109.373907 
L 146.701082 110.521282 
L 147.351692 101.584507 
L 148.002303 120.055461 
L 148.652913 119.947281 
L 149.303523 105.095174 
L 149.954134 122.071517 
L 150.604744 132.492771 
L 151.255354 109.873042 
L 151.905965 113.916534 
L 152.556575 104.614571 
L 153.207185 121.875988 
L 153.857796 132.967123 
L 154.508406 106.446488 
L 155.159016 124.604532 
L 155.809627 105.529417 
L 156.460237 104.461191 
L 157.110847 94.751312 
L 157.761457 109.020273 
L 158.412068 98.670529 
L 159.062678 114.721096 
L 159.713288 99.63064 
L 160.363899 110.436617 
L 161.014509 107.36298 
L 161.665119 92.525673 
L 162.31573 96.943914 
L 162.96634 94.08283 
L 163.61695 101.613979 
L 164.267561 118.336163 
L 164.918171 97.136362 
L 165.568781 100.672354 
L 166.219392 95.095027 
L 166.870002 92.385264 
L 167.520612 90.604853 
L 168.171222 105.774154 
L 168.821833 101.903861 
L 169.472443 132.191509 
L 170.123053 121.250399 
L 170.773664 99.068333 
L 171.424274 124.167273 
L 172.074884 97.365554 
L 172.725495 100.109101 
L 173.376105 104.331161 
L 174.026715 94.468022 
L 174.677326 98.658928 
L 175.327936 95.109983 
L 175.978546 92.243163 
L 176.629156 103.989496 
L 177.279767 94.402156 
L 178.580987 90.268024 
L 179.231598 95.429677 
L 179.882208 94.747884 
L 180.532818 102.798447 
L 181.183429 95.536928 
L 181.834039 91.526152 
L 182.484649 96.497876 
L 183.13526 91.127153 
L 183.78587 96.309187 
L 184.43648 103.692674 
L 185.087091 96.801859 
L 185.737701 100.078544 
L 186.388311 95.346897 
L 187.038921 89.440453 
L 187.689532 94.679104 
L 188.340142 91.020619 
L 188.990752 92.768323 
L 189.641363 94.064362 
L 190.291973 92.430161 
L 190.942583 89.463251 
L 191.593194 95.069021 
L 192.243804 88.611374 
L 192.894414 109.691238 
L 193.545025 115.533122 
L 194.195635 102.049216 
L 194.846245 92.663342 
L 195.496856 99.573232 
L 196.147466 99.754989 
L 196.798076 91.57264 
L 197.448686 90.931781 
L 198.099297 98.576194 
L 198.749907 94.618864 
L 199.400517 100.082074 
L 200.051128 99.263126 
L 200.701738 94.622615 
L 201.352348 85.885928 
L 202.002959 89.239106 
L 202.653569 89.043329 
L 203.304179 86.02073 
L 203.95479 88.754182 
L 204.6054 92.950181 
L 205.25601 111.303891 
L 205.906621 91.238661 
L 206.557231 91.269245 
L 207.207841 86.034721 
L 207.858451 87.526969 
L 208.509062 88.736487 
L 209.159672 94.093006 
L 209.810282 97.975571 
L 210.460893 103.278029 
L 211.111503 86.567897 
L 211.762113 95.834238 
L 212.412724 91.033903 
L 213.063334 95.987516 
L 213.713944 94.199145 
L 214.364555 87.976675 
L 215.015165 97.988276 
L 215.665775 87.531381 
L 216.316385 85.521659 
L 216.966996 87.530683 
L 217.617606 86.142947 
L 218.268216 86.546717 
L 218.918827 85.100726 
L 219.569437 86.145907 
L 220.220047 100.139262 
L 220.870658 97.149885 
L 221.521268 93.000373 
L 222.171878 96.895477 
L 222.822489 86.135096 
L 223.473099 92.134156 
L 224.123709 86.099631 
L 224.77432 88.498212 
L 225.42493 94.462754 
L 226.07554 94.203373 
L 226.72615 88.343619 
L 227.376761 88.007176 
L 228.027371 84.96735 
L 228.677981 105.254621 
L 229.328592 90.67115 
L 229.979202 95.154421 
L 230.629812 92.607818 
L 231.280423 105.692413 
L 231.931033 105.301623 
L 232.581643 92.044417 
L 233.232254 86.575517 
L 233.882864 94.439396 
L 234.533474 90.738239 
L 235.184085 89.766076 
L 235.834695 90.278265 
L 236.485305 99.702049 
L 237.135915 90.900499 
L 237.786526 88.118941 
L 238.437136 87.255684 
L 239.087746 91.251898 
L 239.738357 87.494546 
L 240.388967 85.586946 
L 241.039577 91.56752 
L 241.690188 92.243742 
L 242.340798 92.437211 
L 242.991408 84.611731 
L 243.642019 86.270192 
L 244.292629 85.247975 
L 244.943239 83.117406 
L 245.59385 82.965589 
L 246.24446 83.470432 
L 246.89507 97.088184 
L 247.54568 106.231453 
L 248.196291 99.802322 
L 248.846901 112.586013 
L 249.497511 101.40127 
L 250.148122 99.203907 
L 250.798732 105.387887 
L 251.449342 91.295821 
L 252.099953 87.239403 
L 252.750563 88.346221 
L 253.401173 86.806061 
L 254.051784 89.018702 
L 254.702394 88.270831 
L 255.353004 93.531977 
L 256.003615 91.621407 
L 256.654225 87.360535 
L 257.304835 88.69693 
L 257.955445 82.247309 
L 258.606056 80.817949 
L 259.256666 91.751906 
L 259.907276 90.572623 
L 260.557887 97.84977 
L 261.208497 84.263365 
L 261.859107 85.872443 
L 262.509718 87.971637 
L 263.160328 105.513073 
L 263.810938 92.245673 
L 264.461549 91.715136 
L 265.112159 89.268513 
L 265.762769 90.41905 
L 266.413379 84.399454 
L 267.06399 81.38282 
L 267.7146 83.102955 
L 268.36521 82.676598 
L 269.015821 83.472694 
L 269.666431 80.695254 
L 270.317041 81.989749 
L 270.967652 87.806288 
L 271.618262 81.709648 
L 272.268872 89.229628 
L 272.919483 99.678754 
L 274.220703 80.748976 
L 274.871314 97.600878 
L 276.172534 88.382035 
L 276.823144 96.924839 
L 277.473755 97.577207 
L 278.124365 83.128189 
L 278.774975 82.377294 
L 279.425586 84.789058 
L 280.076196 79.762224 
L 280.726806 87.974974 
L 281.377417 86.104687 
L 282.028027 90.208014 
L 282.678637 80.54238 
L 283.329248 82.56237 
L 283.979858 80.079041 
L 284.630468 80.39423 
L 285.281079 79.485764 
L 285.931689 82.365205 
L 286.582299 79.740327 
L 287.232909 85.681961 
L 287.88352 89.607815 
L 288.53413 86.323279 
L 289.18474 84.1072 
L 289.835351 82.929608 
L 290.485961 79.541425 
L 291.136571 80.313261 
L 291.787182 78.772697 
L 292.437792 79.753537 
L 293.088402 81.674182 
L 293.739013 87.347546 
L 294.389623 82.990124 
L 295.040233 83.788857 
L 295.690844 83.415193 
L 296.341454 80.18609 
L 296.992064 78.960751 
L 297.642674 81.325559 
L 298.293285 82.6497 
L 298.943895 81.037856 
L 299.594505 82.951726 
L 300.245116 91.639085 
L 300.895726 97.2046 
L 302.196947 84.308483 
L 302.847557 92.11271 
L 303.498167 87.513805 
L 304.799388 76.402079 
L 306.100608 78.438828 
L 306.751219 76.800784 
L 307.401829 78.717467 
L 308.052439 79.116384 
L 309.35366 76.011629 
L 310.00427 78.883128 
L 310.654881 77.334263 
L 311.305491 78.247804 
L 311.956101 77.475968 
L 312.606712 78.813356 
L 313.257322 77.25789 
L 313.907932 80.509755 
L 314.558543 78.535425 
L 315.209153 75.773861 
L 315.859763 78.633474 
L 316.510373 82.983845 
L 317.160984 83.235173 
L 317.811594 82.490823 
L 318.462204 86.392123 
L 319.112815 87.509374 
L 319.763425 87.578733 
L 320.414035 85.921035 
L 321.064646 91.485944 
L 321.715256 85.683745 
L 322.365866 86.357798 
L 323.016477 88.370397 
L 323.667087 83.53843 
L 324.317697 81.24505 
L 325.618918 100.683983 
L 326.269528 89.969326 
L 326.920138 98.077537 
L 327.570749 85.553126 
L 328.221359 85.150339 
L 328.871969 81.872873 
L 329.52258 82.811326 
L 330.17319 79.68496 
L 330.8238 87.063189 
L 331.474411 79.334609 
L 332.125021 81.181979 
L 332.775631 91.886092 
L 333.426242 80.505324 
L 334.076852 75.265653 
L 334.727462 84.342192 
L 335.378073 79.72379 
L 336.028683 89.283681 
L 336.679293 84.287873 
L 337.329903 75.188471 
L 337.980514 86.554108 
L 338.631124 87.742923 
L 339.281734 79.8848 
L 339.932345 77.93619 
L 340.582955 78.777881 
L 341.233565 76.331672 
L 341.884176 80.902953 
L 342.534786 77.48209 
L 343.185396 78.641104 
L 343.836007 77.296196 
L 344.486617 89.402597 
L 345.787837 77.028524 
L 346.438448 77.821254 
L 347.089058 76.94362 
L 348.390279 97.579404 
L 349.040889 87.72554 
L 349.691499 84.608615 
L 350.34211 86.876605 
L 350.99272 82.32109 
L 351.64333 85.77033 
L 352.293941 85.556987 
L 352.944551 74.996978 
L 353.595161 76.986357 
L 354.245772 77.646217 
L 354.896382 111.07356 
L 355.546992 107.22384 
L 356.197602 99.347836 
L 356.848213 86.343053 
L 357.498823 91.408541 
L 358.149433 82.683658 
L 358.800044 87.847646 
L 359.450654 80.758086 
L 360.751875 76.078304 
L 361.402485 77.370905 
L 362.053095 76.056729 
L 362.703706 79.085386 
L 363.354316 74.606923 
L 364.004926 74.132636 
L 364.655537 76.913854 
L 365.306147 75.966034 
L 365.956757 74.661942 
L 366.607367 74.798664 
L 367.257978 78.10609 
L 367.908588 76.543067 
L 368.559198 82.035924 
L 369.209809 82.923753 
L 369.860419 81.076346 
L 370.511029 74.928869 
L 371.16164 76.788475 
L 371.81225 76.464718 
L 372.46286 77.041844 
L 373.113471 78.139781 
L 373.764081 83.664609 
L 374.414691 90.435073 
L 375.715912 81.860104 
L 376.366522 79.110344 
L 377.017132 79.015236 
L 377.667743 78.53582 
L 378.318353 74.667172 
L 378.968963 78.436474 
L 379.619574 84.347717 
L 380.270184 85.967982 
L 380.920794 74.91349 
L 381.571405 74.520825 
L 382.222015 73.049849 
L 382.872625 75.036626 
L 383.523236 72.654279 
L 384.173846 105.373252 
L 384.824456 95.598629 
L 385.475066 80.956574 
L 386.125677 89.424522 
L 386.776287 84.79882 
L 387.426897 84.276796 
L 388.077508 85.725571 
L 388.728118 78.538725 
L 389.378728 78.076333 
L 390.029339 74.292837 
L 390.679949 73.91545 
L 391.330559 73.675512 
L 391.98117 74.41157 
L 392.63178 73.082575 
L 393.28239 73.303355 
L 393.933001 90.942721 
L 394.583611 84.071928 
L 395.234221 81.188717 
L 395.884831 81.350646 
L 396.535442 83.57282 
L 397.186052 79.448754 
L 397.836662 77.531676 
L 398.487273 74.953065 
L 398.487273 74.953065 
" clip-path="url(#p4a0e32ad17)" style="fill: none; stroke: #ff7f0e; stroke-width: 1.5; stroke-linecap: square"/>
   </g>
   <g id="patch_3">
    <path d="M 57.6 307.584 
L 57.6 41.472 
" style="fill: none; stroke: #000000; stroke-width: 0.8; stroke-linejoin: miter; stroke-linecap: square"/>
   </g>
   <g id="patch_4">
    <path d="M 414.72 307.584 
L 414.72 41.472 
" style="fill: none; stroke: #000000; stroke-width: 0.8; stroke-linejoin: miter; stroke-linecap: square"/>
   </g>
   <g id="patch_5">
    <path d="M 57.6 307.584 
L 414.72 307.584 
" style="fill: none; stroke: #000000; stroke-width: 0.8; stroke-linejoin: miter; stroke-linecap: square"/>
   </g>
   <g id="patch_6">
    <path d="M 57.6 41.472 
L 414.72 41.472 
" style="fill: none; stroke: #000000; stroke-width: 0.8; stroke-linejoin: miter; stroke-linecap: square"/>
   </g>
   <g id="text_15">
    <!-- Dice score during training -->
    <g transform="translate(158.442187 35.472) scale(0.12 -0.12)">
     <defs>
      <path id="DejaVuSans-44" d="M 1259 4147 
L 1259 519 
L 2022 519 
Q 2988 519 3436 956 
Q 3884 1394 3884 2338 
Q 3884 3275 3436 3711 
Q 2988 4147 2022 4147 
L 1259 4147 
z
M 628 4666 
L 1925 4666 
Q 3281 4666 3915 4102 
Q 4550 3538 4550 2338 
Q 4550 1131 3912 565 
Q 3275 0 1925 0 
L 628 0 
L 628 4666 
z
" transform="scale(0.015625)"/>
      <path id="DejaVuSans-69" d="M 603 3500 
L 1178 3500 
L 1178 0 
L 603 0 
L 603 3500 
z
M 603 4863 
L 1178 4863 
L 1178 4134 
L 603 4134 
L 603 4863 
z
" transform="scale(0.015625)"/>
      <path id="DejaVuSans-63" d="M 3122 3366 
L 3122 2828 
Q 2878 2963 2633 3030 
Q 2388 3097 2138 3097 
Q 1578 3097 1268 2742 
Q 959 2388 959 1747 
Q 959 1106 1268 751 
Q 1578 397 2138 397 
Q 2388 397 2633 464 
Q 2878 531 3122 666 
L 3122 134 
Q 2881 22 2623 -34 
Q 2366 -91 2075 -91 
Q 1284 -91 818 406 
Q 353 903 353 1747 
Q 353 2603 823 3093 
Q 1294 3584 2113 3584 
Q 2378 3584 2631 3529 
Q 2884 3475 3122 3366 
z
" transform="scale(0.015625)"/>
      <path id="DejaVuSans-65" d="M 3597 1894 
L 3597 1613 
L 953 1613 
Q 991 1019 1311 708 
Q 1631 397 2203 397 
Q 2534 397 2845 478 
Q 3156 559 3463 722 
L 3463 178 
Q 3153 47 2828 -22 
Q 2503 -91 2169 -91 
Q 1331 -91 842 396 
Q 353 884 353 1716 
Q 353 2575 817 3079 
Q 1281 3584 2069 3584 
Q 2775 3584 3186 3129 
Q 3597 2675 3597 1894 
z
M 3022 2063 
Q 3016 2534 2758 2815 
Q 2500 3097 2075 3097 
Q 1594 3097 1305 2825 
Q 1016 2553 972 2059 
L 3022 2063 
z
" transform="scale(0.015625)"/>
      <path id="DejaVuSans-20" transform="scale(0.015625)"/>
      <path id="DejaVuSans-73" d="M 2834 3397 
L 2834 2853 
Q 2591 2978 2328 3040 
Q 2066 3103 1784 3103 
Q 1356 3103 1142 2972 
Q 928 2841 928 2578 
Q 928 2378 1081 2264 
Q 1234 2150 1697 2047 
L 1894 2003 
Q 2506 1872 2764 1633 
Q 3022 1394 3022 966 
Q 3022 478 2636 193 
Q 2250 -91 1575 -91 
Q 1294 -91 989 -36 
Q 684 19 347 128 
L 347 722 
Q 666 556 975 473 
Q 1284 391 1588 391 
Q 1994 391 2212 530 
Q 2431 669 2431 922 
Q 2431 1156 2273 1281 
Q 2116 1406 1581 1522 
L 1381 1569 
Q 847 1681 609 1914 
Q 372 2147 372 2553 
Q 372 3047 722 3315 
Q 1072 3584 1716 3584 
Q 2034 3584 2315 3537 
Q 2597 3491 2834 3397 
z
" transform="scale(0.015625)"/>
      <path id="DejaVuSans-6f" d="M 1959 3097 
Q 1497 3097 1228 2736 
Q 959 2375 959 1747 
Q 959 1119 1226 758 
Q 1494 397 1959 397 
Q 2419 397 2687 759 
Q 2956 1122 2956 1747 
Q 2956 2369 2687 2733 
Q 2419 3097 1959 3097 
z
M 1959 3584 
Q 2709 3584 3137 3096 
Q 3566 2609 3566 1747 
Q 3566 888 3137 398 
Q 2709 -91 1959 -91 
Q 1206 -91 779 398 
Q 353 888 353 1747 
Q 353 2609 779 3096 
Q 1206 3584 1959 3584 
z
" transform="scale(0.015625)"/>
      <path id="DejaVuSans-72" d="M 2631 2963 
Q 2534 3019 2420 3045 
Q 2306 3072 2169 3072 
Q 1681 3072 1420 2755 
Q 1159 2438 1159 1844 
L 1159 0 
L 581 0 
L 581 3500 
L 1159 3500 
L 1159 2956 
Q 1341 3275 1631 3429 
Q 1922 3584 2338 3584 
Q 2397 3584 2469 3576 
Q 2541 3569 2628 3553 
L 2631 2963 
z
" transform="scale(0.015625)"/>
      <path id="DejaVuSans-64" d="M 2906 2969 
L 2906 4863 
L 3481 4863 
L 3481 0 
L 2906 0 
L 2906 525 
Q 2725 213 2448 61 
Q 2172 -91 1784 -91 
Q 1150 -91 751 415 
Q 353 922 353 1747 
Q 353 2572 751 3078 
Q 1150 3584 1784 3584 
Q 2172 3584 2448 3432 
Q 2725 3281 2906 2969 
z
M 947 1747 
Q 947 1113 1208 752 
Q 1469 391 1925 391 
Q 2381 391 2643 752 
Q 2906 1113 2906 1747 
Q 2906 2381 2643 2742 
Q 2381 3103 1925 3103 
Q 1469 3103 1208 2742 
Q 947 2381 947 1747 
z
" transform="scale(0.015625)"/>
      <path id="DejaVuSans-75" d="M 544 1381 
L 544 3500 
L 1119 3500 
L 1119 1403 
Q 1119 906 1312 657 
Q 1506 409 1894 409 
Q 2359 409 2629 706 
Q 2900 1003 2900 1516 
L 2900 3500 
L 3475 3500 
L 3475 0 
L 2900 0 
L 2900 538 
Q 2691 219 2414 64 
Q 2138 -91 1772 -91 
Q 1169 -91 856 284 
Q 544 659 544 1381 
z
M 1991 3584 
L 1991 3584 
z
" transform="scale(0.015625)"/>
      <path id="DejaVuSans-6e" d="M 3513 2113 
L 3513 0 
L 2938 0 
L 2938 2094 
Q 2938 2591 2744 2837 
Q 2550 3084 2163 3084 
Q 1697 3084 1428 2787 
Q 1159 2491 1159 1978 
L 1159 0 
L 581 0 
L 581 3500 
L 1159 3500 
L 1159 2956 
Q 1366 3272 1645 3428 
Q 1925 3584 2291 3584 
Q 2894 3584 3203 3211 
Q 3513 2838 3513 2113 
z
" transform="scale(0.015625)"/>
      <path id="DejaVuSans-67" d="M 2906 1791 
Q 2906 2416 2648 2759 
Q 2391 3103 1925 3103 
Q 1463 3103 1205 2759 
Q 947 2416 947 1791 
Q 947 1169 1205 825 
Q 1463 481 1925 481 
Q 2391 481 2648 825 
Q 2906 1169 2906 1791 
z
M 3481 434 
Q 3481 -459 3084 -895 
Q 2688 -1331 1869 -1331 
Q 1566 -1331 1297 -1286 
Q 1028 -1241 775 -1147 
L 775 -588 
Q 1028 -725 1275 -790 
Q 1522 -856 1778 -856 
Q 2344 -856 2625 -561 
Q 2906 -266 2906 331 
L 2906 616 
Q 2728 306 2450 153 
Q 2172 0 1784 0 
Q 1141 0 747 490 
Q 353 981 353 1791 
Q 353 2603 747 3093 
Q 1141 3584 1784 3584 
Q 2172 3584 2450 3431 
Q 2728 3278 2906 2969 
L 2906 3500 
L 3481 3500 
L 3481 434 
z
" transform="scale(0.015625)"/>
      <path id="DejaVuSans-74" d="M 1172 4494 
L 1172 3500 
L 2356 3500 
L 2356 3053 
L 1172 3053 
L 1172 1153 
Q 1172 725 1289 603 
Q 1406 481 1766 481 
L 2356 481 
L 2356 0 
L 1766 0 
Q 1100 0 847 248 
Q 594 497 594 1153 
L 594 3053 
L 172 3053 
L 172 3500 
L 594 3500 
L 594 4494 
L 1172 4494 
z
" transform="scale(0.015625)"/>
      <path id="DejaVuSans-61" d="M 2194 1759 
Q 1497 1759 1228 1600 
Q 959 1441 959 1056 
Q 959 750 1161 570 
Q 1363 391 1709 391 
Q 2188 391 2477 730 
Q 2766 1069 2766 1631 
L 2766 1759 
L 2194 1759 
z
M 3341 1997 
L 3341 0 
L 2766 0 
L 2766 531 
Q 2569 213 2275 61 
Q 1981 -91 1556 -91 
Q 1019 -91 701 211 
Q 384 513 384 1019 
Q 384 1609 779 1909 
Q 1175 2209 1959 2209 
L 2766 2209 
L 2766 2266 
Q 2766 2663 2505 2880 
Q 2244 3097 1772 3097 
Q 1472 3097 1187 3025 
Q 903 2953 641 2809 
L 641 3341 
Q 956 3463 1253 3523 
Q 1550 3584 1831 3584 
Q 2591 3584 2966 3190 
Q 3341 2797 3341 1997 
z
" transform="scale(0.015625)"/>
     </defs>
     <use xlink:href="#DejaVuSans-44"/>
     <use xlink:href="#DejaVuSans-69" x="77.001953"/>
     <use xlink:href="#DejaVuSans-63" x="104.785156"/>
     <use xlink:href="#DejaVuSans-65" x="159.765625"/>
     <use xlink:href="#DejaVuSans-20" x="221.289062"/>
     <use xlink:href="#DejaVuSans-73" x="253.076172"/>
     <use xlink:href="#DejaVuSans-63" x="305.175781"/>
     <use xlink:href="#DejaVuSans-6f" x="360.15625"/>
     <use xlink:href="#DejaVuSans-72" x="421.337891"/>
     <use xlink:href="#DejaVuSans-65" x="460.201172"/>
     <use xlink:href="#DejaVuSans-20" x="521.724609"/>
     <use xlink:href="#DejaVuSans-64" x="553.511719"/>
     <use xlink:href="#DejaVuSans-75" x="616.988281"/>
     <use xlink:href="#DejaVuSans-72" x="680.367188"/>
     <use xlink:href="#DejaVuSans-69" x="721.480469"/>
     <use xlink:href="#DejaVuSans-6e" x="749.263672"/>
     <use xlink:href="#DejaVuSans-67" x="812.642578"/>
     <use xlink:href="#DejaVuSans-20" x="876.119141"/>
     <use xlink:href="#DejaVuSans-74" x="907.90625"/>
     <use xlink:href="#DejaVuSans-72" x="947.115234"/>
     <use xlink:href="#DejaVuSans-61" x="988.228516"/>
     <use xlink:href="#DejaVuSans-69" x="1049.507812"/>
     <use xlink:href="#DejaVuSans-6e" x="1077.291016"/>
     <use xlink:href="#DejaVuSans-69" x="1140.669922"/>
     <use xlink:href="#DejaVuSans-6e" x="1168.453125"/>
     <use xlink:href="#DejaVuSans-67" x="1231.832031"/>
    </g>
   </g>
   <g id="legend_1">
    <g id="patch_7">
     <path d="M 64.6 78.82825 
L 175.939063 78.82825 
Q 177.939063 78.82825 177.939063 76.82825 
L 177.939063 48.472 
Q 177.939063 46.472 175.939063 46.472 
L 64.6 46.472 
Q 62.6 46.472 62.6 48.472 
L 62.6 76.82825 
Q 62.6 78.82825 64.6 78.82825 
z
" style="fill: #ffffff; opacity: 0.8; stroke: #cccccc; stroke-linejoin: miter"/>
    </g>
    <g id="line2d_17">
     <path d="M 66.6 54.570437 
L 76.6 54.570437 
L 86.6 54.570437 
" style="fill: none; stroke: #1f77b4; stroke-width: 1.5; stroke-linecap: square"/>
    </g>
    <g id="text_16">
     <!-- Train Dice score -->
     <g transform="translate(94.6 58.070437) scale(0.1 -0.1)">
      <defs>
       <path id="DejaVuSans-54" d="M -19 4666 
L 3928 4666 
L 3928 4134 
L 2272 4134 
L 2272 0 
L 1638 0 
L 1638 4134 
L -19 4134 
L -19 4666 
z
" transform="scale(0.015625)"/>
      </defs>
      <use xlink:href="#DejaVuSans-54"/>
      <use xlink:href="#DejaVuSans-72" x="46.333984"/>
      <use xlink:href="#DejaVuSans-61" x="87.447266"/>
      <use xlink:href="#DejaVuSans-69" x="148.726562"/>
      <use xlink:href="#DejaVuSans-6e" x="176.509766"/>
      <use xlink:href="#DejaVuSans-20" x="239.888672"/>
      <use xlink:href="#DejaVuSans-44" x="271.675781"/>
      <use xlink:href="#DejaVuSans-69" x="348.677734"/>
      <use xlink:href="#DejaVuSans-63" x="376.460938"/>
      <use xlink:href="#DejaVuSans-65" x="431.441406"/>
      <use xlink:href="#DejaVuSans-20" x="492.964844"/>
      <use xlink:href="#DejaVuSans-73" x="524.751953"/>
      <use xlink:href="#DejaVuSans-63" x="576.851562"/>
      <use xlink:href="#DejaVuSans-6f" x="631.832031"/>
      <use xlink:href="#DejaVuSans-72" x="693.013672"/>
      <use xlink:href="#DejaVuSans-65" x="731.876953"/>
     </g>
    </g>
    <g id="line2d_18">
     <path d="M 66.6 69.248562 
L 76.6 69.248562 
L 86.6 69.248562 
" style="fill: none; stroke: #ff7f0e; stroke-width: 1.5; stroke-linecap: square"/>
    </g>
    <g id="text_17">
     <!-- Test Dice score -->
     <g transform="translate(94.6 72.748562) scale(0.1 -0.1)">
      <use xlink:href="#DejaVuSans-54"/>
      <use xlink:href="#DejaVuSans-65" x="44.083984"/>
      <use xlink:href="#DejaVuSans-73" x="105.607422"/>
      <use xlink:href="#DejaVuSans-74" x="157.707031"/>
      <use xlink:href="#DejaVuSans-20" x="196.916016"/>
      <use xlink:href="#DejaVuSans-44" x="228.703125"/>
      <use xlink:href="#DejaVuSans-69" x="305.705078"/>
      <use xlink:href="#DejaVuSans-63" x="333.488281"/>
      <use xlink:href="#DejaVuSans-65" x="388.46875"/>
      <use xlink:href="#DejaVuSans-20" x="449.992188"/>
      <use xlink:href="#DejaVuSans-73" x="481.779297"/>
      <use xlink:href="#DejaVuSans-63" x="533.878906"/>
      <use xlink:href="#DejaVuSans-6f" x="588.859375"/>
      <use xlink:href="#DejaVuSans-72" x="650.041016"/>
      <use xlink:href="#DejaVuSans-65" x="688.904297"/>
     </g>
    </g>
   </g>
  </g>
 </g>
 <defs>
  <clipPath id="p4a0e32ad17">
   <rect x="57.6" y="41.472" width="357.12" height="266.112"/>
  </clipPath>
 </defs>
</svg>
