<?xml version="1.0" encoding="utf-8" standalone="no"?>
<!DOCTYPE svg PUBLIC "-//W3C//DTD SVG 1.1//EN"
  "http://www.w3.org/Graphics/SVG/1.1/DTD/svg11.dtd">
<svg xmlns:xlink="http://www.w3.org/1999/xlink" width="460.8pt" height="345.6pt" viewBox="0 0 460.8 345.6" xmlns="http://www.w3.org/2000/svg" version="1.1">
 <metadata>
  <rdf:RDF xmlns:dc="http://purl.org/dc/elements/1.1/" xmlns:cc="http://creativecommons.org/ns#" xmlns:rdf="http://www.w3.org/1999/02/22-rdf-syntax-ns#">
   <cc:Work>
    <dc:type rdf:resource="http://purl.org/dc/dcmitype/StillImage"/>
    <dc:date>2023-03-28T16:46:47.487537</dc:date>
    <dc:format>image/svg+xml</dc:format>
    <dc:creator>
     <cc:Agent>
      <dc:title>Matplotlib v3.6.2, https://matplotlib.org/</dc:title>
     </cc:Agent>
    </dc:creator>
   </cc:Work>
  </rdf:RDF>
 </metadata>
 <defs>
  <style type="text/css">*{stroke-linejoin: round; stroke-linecap: butt}</style>
 </defs>
 <g id="figure_1">
  <g id="patch_1">
   <path d="M 0 345.6 
L 460.8 345.6 
L 460.8 0 
L 0 0 
z
" style="fill: #ffffff"/>
  </g>
  <g id="axes_1">
   <g id="patch_2">
    <path d="M 57.6 307.584 
L 414.72 307.584 
L 414.72 41.472 
L 57.6 41.472 
z
" style="fill: #ffffff"/>
   </g>
   <g id="matplotlib.axis_1">
    <g id="xtick_1">
     <g id="line2d_1">
      <defs>
       <path id="m0b7c75f9ed" d="M 0 0 
L 0 3.5 
" style="stroke: #000000; stroke-width: 0.8"/>
      </defs>
      <g>
       <use xlink:href="#m0b7c75f9ed" x="73.832727" y="307.584" style="stroke: #000000; stroke-width: 0.8"/>
      </g>
     </g>
     <g id="text_1">
      <!-- 0 -->
      <g transform="translate(70.651477 322.182437) scale(0.1 -0.1)">
       <defs>
        <path id="DejaVuSans-30" d="M 2034 4250 
Q 1547 4250 1301 3770 
Q 1056 3291 1056 2328 
Q 1056 1369 1301 889 
Q 1547 409 2034 409 
Q 2525 409 2770 889 
Q 3016 1369 3016 2328 
Q 3016 3291 2770 3770 
Q 2525 4250 2034 4250 
z
M 2034 4750 
Q 2819 4750 3233 4129 
Q 3647 3509 3647 2328 
Q 3647 1150 3233 529 
Q 2819 -91 2034 -91 
Q 1250 -91 836 529 
Q 422 1150 422 2328 
Q 422 3509 836 4129 
Q 1250 4750 2034 4750 
z
" transform="scale(0.015625)"/>
       </defs>
       <use xlink:href="#DejaVuSans-30"/>
      </g>
     </g>
    </g>
    <g id="xtick_2">
     <g id="line2d_2">
      <g>
       <use xlink:href="#m0b7c75f9ed" x="138.893758" y="307.584" style="stroke: #000000; stroke-width: 0.8"/>
      </g>
     </g>
     <g id="text_2">
      <!-- 100 -->
      <g transform="translate(129.350008 322.182437) scale(0.1 -0.1)">
       <defs>
        <path id="DejaVuSans-31" d="M 794 531 
L 1825 531 
L 1825 4091 
L 703 3866 
L 703 4441 
L 1819 4666 
L 2450 4666 
L 2450 531 
L 3481 531 
L 3481 0 
L 794 0 
L 794 531 
z
" transform="scale(0.015625)"/>
       </defs>
       <use xlink:href="#DejaVuSans-31"/>
       <use xlink:href="#DejaVuSans-30" x="63.623047"/>
       <use xlink:href="#DejaVuSans-30" x="127.246094"/>
      </g>
     </g>
    </g>
    <g id="xtick_3">
     <g id="line2d_3">
      <g>
       <use xlink:href="#m0b7c75f9ed" x="203.95479" y="307.584" style="stroke: #000000; stroke-width: 0.8"/>
      </g>
     </g>
     <g id="text_3">
      <!-- 200 -->
      <g transform="translate(194.41104 322.182437) scale(0.1 -0.1)">
       <defs>
        <path id="DejaVuSans-32" d="M 1228 531 
L 3431 531 
L 3431 0 
L 469 0 
L 469 531 
Q 828 903 1448 1529 
Q 2069 2156 2228 2338 
Q 2531 2678 2651 2914 
Q 2772 3150 2772 3378 
Q 2772 3750 2511 3984 
Q 2250 4219 1831 4219 
Q 1534 4219 1204 4116 
Q 875 4013 500 3803 
L 500 4441 
Q 881 4594 1212 4672 
Q 1544 4750 1819 4750 
Q 2544 4750 2975 4387 
Q 3406 4025 3406 3419 
Q 3406 3131 3298 2873 
Q 3191 2616 2906 2266 
Q 2828 2175 2409 1742 
Q 1991 1309 1228 531 
z
" transform="scale(0.015625)"/>
       </defs>
       <use xlink:href="#DejaVuSans-32"/>
       <use xlink:href="#DejaVuSans-30" x="63.623047"/>
       <use xlink:href="#DejaVuSans-30" x="127.246094"/>
      </g>
     </g>
    </g>
    <g id="xtick_4">
     <g id="line2d_4">
      <g>
       <use xlink:href="#m0b7c75f9ed" x="269.015821" y="307.584" style="stroke: #000000; stroke-width: 0.8"/>
      </g>
     </g>
     <g id="text_4">
      <!-- 300 -->
      <g transform="translate(259.472071 322.182437) scale(0.1 -0.1)">
       <defs>
        <path id="DejaVuSans-33" d="M 2597 2516 
Q 3050 2419 3304 2112 
Q 3559 1806 3559 1356 
Q 3559 666 3084 287 
Q 2609 -91 1734 -91 
Q 1441 -91 1130 -33 
Q 819 25 488 141 
L 488 750 
Q 750 597 1062 519 
Q 1375 441 1716 441 
Q 2309 441 2620 675 
Q 2931 909 2931 1356 
Q 2931 1769 2642 2001 
Q 2353 2234 1838 2234 
L 1294 2234 
L 1294 2753 
L 1863 2753 
Q 2328 2753 2575 2939 
Q 2822 3125 2822 3475 
Q 2822 3834 2567 4026 
Q 2313 4219 1838 4219 
Q 1578 4219 1281 4162 
Q 984 4106 628 3988 
L 628 4550 
Q 988 4650 1302 4700 
Q 1616 4750 1894 4750 
Q 2613 4750 3031 4423 
Q 3450 4097 3450 3541 
Q 3450 3153 3228 2886 
Q 3006 2619 2597 2516 
z
" transform="scale(0.015625)"/>
       </defs>
       <use xlink:href="#DejaVuSans-33"/>
       <use xlink:href="#DejaVuSans-30" x="63.623047"/>
       <use xlink:href="#DejaVuSans-30" x="127.246094"/>
      </g>
     </g>
    </g>
    <g id="xtick_5">
     <g id="line2d_5">
      <g>
       <use xlink:href="#m0b7c75f9ed" x="334.076852" y="307.584" style="stroke: #000000; stroke-width: 0.8"/>
      </g>
     </g>
     <g id="text_5">
      <!-- 400 -->
      <g transform="translate(324.533102 322.182437) scale(0.1 -0.1)">
       <defs>
        <path id="DejaVuSans-34" d="M 2419 4116 
L 825 1625 
L 2419 1625 
L 2419 4116 
z
M 2253 4666 
L 3047 4666 
L 3047 1625 
L 3713 1625 
L 3713 1100 
L 3047 1100 
L 3047 0 
L 2419 0 
L 2419 1100 
L 313 1100 
L 313 1709 
L 2253 4666 
z
" transform="scale(0.015625)"/>
       </defs>
       <use xlink:href="#DejaVuSans-34"/>
       <use xlink:href="#DejaVuSans-30" x="63.623047"/>
       <use xlink:href="#DejaVuSans-30" x="127.246094"/>
      </g>
     </g>
    </g>
    <g id="xtick_6">
     <g id="line2d_6">
      <g>
       <use xlink:href="#m0b7c75f9ed" x="399.137883" y="307.584" style="stroke: #000000; stroke-width: 0.8"/>
      </g>
     </g>
     <g id="text_6">
      <!-- 500 -->
      <g transform="translate(389.594133 322.182437) scale(0.1 -0.1)">
       <defs>
        <path id="DejaVuSans-35" d="M 691 4666 
L 3169 4666 
L 3169 4134 
L 1269 4134 
L 1269 2991 
Q 1406 3038 1543 3061 
Q 1681 3084 1819 3084 
Q 2600 3084 3056 2656 
Q 3513 2228 3513 1497 
Q 3513 744 3044 326 
Q 2575 -91 1722 -91 
Q 1428 -91 1123 -41 
Q 819 9 494 109 
L 494 744 
Q 775 591 1075 516 
Q 1375 441 1709 441 
Q 2250 441 2565 725 
Q 2881 1009 2881 1497 
Q 2881 1984 2565 2268 
Q 2250 2553 1709 2553 
Q 1456 2553 1204 2497 
Q 953 2441 691 2322 
L 691 4666 
z
" transform="scale(0.015625)"/>
       </defs>
       <use xlink:href="#DejaVuSans-35"/>
       <use xlink:href="#DejaVuSans-30" x="63.623047"/>
       <use xlink:href="#DejaVuSans-30" x="127.246094"/>
      </g>
     </g>
    </g>
   </g>
   <g id="matplotlib.axis_2">
    <g id="ytick_1">
     <g id="line2d_7">
      <defs>
       <path id="m498b84a072" d="M 0 0 
L -3.5 0 
" style="stroke: #000000; stroke-width: 0.8"/>
      </defs>
      <g>
       <use xlink:href="#m498b84a072" x="57.6" y="132.556722" style="stroke: #000000; stroke-width: 0.8"/>
      </g>
     </g>
     <g id="text_7">
      <!-- $\mathdefault{10^{-2}}$ -->
      <g transform="translate(27.1 136.355941) scale(0.1 -0.1)">
       <defs>
        <path id="DejaVuSans-2212" d="M 678 2272 
L 4684 2272 
L 4684 1741 
L 678 1741 
L 678 2272 
z
" transform="scale(0.015625)"/>
       </defs>
       <use xlink:href="#DejaVuSans-31" transform="translate(0 0.765625)"/>
       <use xlink:href="#DejaVuSans-30" transform="translate(63.623047 0.765625)"/>
       <use xlink:href="#DejaVuSans-2212" transform="translate(128.203125 39.046875) scale(0.7)"/>
       <use xlink:href="#DejaVuSans-32" transform="translate(186.855469 39.046875) scale(0.7)"/>
      </g>
     </g>
    </g>
    <g id="ytick_2">
     <g id="line2d_8">
      <defs>
       <path id="m159fe16551" d="M 0 0 
L -2 0 
" style="stroke: #000000; stroke-width: 0.6"/>
      </defs>
      <g>
       <use xlink:href="#m159fe16551" x="57.6" y="277.969595" style="stroke: #000000; stroke-width: 0.6"/>
      </g>
     </g>
    </g>
    <g id="ytick_3">
     <g id="line2d_9">
      <g>
       <use xlink:href="#m159fe16551" x="57.6" y="241.335783" style="stroke: #000000; stroke-width: 0.6"/>
      </g>
     </g>
    </g>
    <g id="ytick_4">
     <g id="line2d_10">
      <g>
       <use xlink:href="#m159fe16551" x="57.6" y="215.343679" style="stroke: #000000; stroke-width: 0.6"/>
      </g>
     </g>
    </g>
    <g id="ytick_5">
     <g id="line2d_11">
      <g>
       <use xlink:href="#m159fe16551" x="57.6" y="195.182638" style="stroke: #000000; stroke-width: 0.6"/>
      </g>
     </g>
    </g>
    <g id="ytick_6">
     <g id="line2d_12">
      <g>
       <use xlink:href="#m159fe16551" x="57.6" y="178.709867" style="stroke: #000000; stroke-width: 0.6"/>
      </g>
     </g>
    </g>
    <g id="ytick_7">
     <g id="line2d_13">
      <g>
       <use xlink:href="#m159fe16551" x="57.6" y="164.782338" style="stroke: #000000; stroke-width: 0.6"/>
      </g>
     </g>
    </g>
    <g id="ytick_8">
     <g id="line2d_14">
      <g>
       <use xlink:href="#m159fe16551" x="57.6" y="152.717764" style="stroke: #000000; stroke-width: 0.6"/>
      </g>
     </g>
    </g>
    <g id="ytick_9">
     <g id="line2d_15">
      <g>
       <use xlink:href="#m159fe16551" x="57.6" y="142.076055" style="stroke: #000000; stroke-width: 0.6"/>
      </g>
     </g>
    </g>
    <g id="ytick_10">
     <g id="line2d_16">
      <g>
       <use xlink:href="#m159fe16551" x="57.6" y="69.930807" style="stroke: #000000; stroke-width: 0.6"/>
      </g>
     </g>
    </g>
   </g>
   <g id="line2d_17">
    <path d="M 73.832727 53.568 
L 74.483338 93.791094 
L 75.784558 116.797412 
L 77.085779 132.014871 
L 77.736389 125.687682 
L 78.386999 139.207763 
L 79.03761 146.371694 
L 79.68822 157.245099 
L 80.33883 163.663723 
L 80.989441 167.316823 
L 81.640051 163.804526 
L 82.290661 155.085757 
L 82.941272 168.865172 
L 83.591882 170.342011 
L 84.242492 177.58776 
L 84.893103 180.88172 
L 85.543713 184.856878 
L 86.194323 169.733989 
L 86.844934 181.65994 
L 87.495544 183.228628 
L 88.146154 188.365766 
L 88.796764 186.26309 
L 89.447375 188.197129 
L 90.097985 188.360777 
L 90.748595 194.082587 
L 91.399206 190.631275 
L 92.049816 198.274362 
L 92.700426 187.98522 
L 93.351037 192.148163 
L 94.001647 193.059657 
L 95.302868 193.01327 
L 95.953478 202.437945 
L 96.604088 199.685075 
L 97.254698 203.349455 
L 97.905309 201.705953 
L 98.555919 198.617262 
L 99.206529 197.221284 
L 99.85714 186.772281 
L 101.15836 198.972636 
L 101.808971 201.520717 
L 102.459581 207.641954 
L 103.110191 201.240685 
L 103.760802 197.117322 
L 104.411412 199.054845 
L 105.062022 201.929158 
L 105.712633 203.275304 
L 106.363243 211.449919 
L 107.013853 213.104017 
L 107.664463 217.088369 
L 108.315074 213.240724 
L 108.965684 216.960963 
L 110.266905 216.121256 
L 110.917515 202.625815 
L 111.568125 211.913854 
L 112.218736 212.06664 
L 112.869346 214.446552 
L 113.519956 215.924759 
L 114.170567 220.858567 
L 114.821177 220.82438 
L 115.471787 213.974495 
L 116.122398 205.510512 
L 116.773008 213.855333 
L 117.423618 214.960662 
L 118.074228 214.490273 
L 118.724839 214.712981 
L 119.375449 221.650269 
L 120.026059 220.405797 
L 120.67667 200.921023 
L 121.32728 204.854358 
L 122.628501 218.112228 
L 123.279111 218.209709 
L 123.929721 225.078495 
L 124.580332 227.608743 
L 125.230942 222.555847 
L 125.881552 224.840352 
L 126.532163 198.745941 
L 127.182773 207.547522 
L 127.833383 214.514237 
L 128.483993 223.174601 
L 129.134604 222.386943 
L 129.785214 226.657084 
L 130.435824 224.262397 
L 131.086435 219.69497 
L 131.737045 228.806005 
L 132.387655 229.32816 
L 133.688876 234.600397 
L 134.339486 235.064879 
L 134.990097 234.00221 
L 135.640707 231.08556 
L 136.291317 229.183568 
L 136.941927 232.059815 
L 137.592538 236.248019 
L 138.243148 225.875128 
L 138.893758 206.63708 
L 139.544369 220.124629 
L 140.194979 223.38007 
L 140.845589 219.80628 
L 141.4962 228.605174 
L 142.14681 225.752629 
L 142.79742 230.939478 
L 143.448031 230.826722 
L 144.098641 227.459356 
L 144.749251 238.797848 
L 145.399862 240.056747 
L 146.050472 241.989887 
L 146.701082 242.263676 
L 147.351692 242.185232 
L 148.002303 239.522953 
L 148.652913 234.636775 
L 149.303523 239.076164 
L 149.954134 239.75314 
L 150.604744 238.468002 
L 151.255354 243.733655 
L 151.905965 237.702445 
L 152.556575 224.367772 
L 153.207185 234.711402 
L 153.857796 235.162295 
L 154.508406 230.578322 
L 155.159016 236.484031 
L 155.809627 239.546738 
L 157.110847 244.032618 
L 157.761457 238.865578 
L 158.412068 235.75806 
L 159.062678 241.384734 
L 159.713288 243.348948 
L 160.363899 242.749541 
L 161.014509 246.944023 
L 161.665119 240.208587 
L 162.31573 247.092359 
L 162.96634 248.916913 
L 163.61695 251.320471 
L 164.267561 251.68505 
L 164.918171 244.02148 
L 165.568781 242.473156 
L 166.219392 242.969574 
L 166.870002 243.199124 
L 167.520612 240.037704 
L 168.171222 249.972346 
L 168.821833 252.094522 
L 169.472443 248.55637 
L 170.123053 243.022938 
L 170.773664 248.934578 
L 171.424274 244.698217 
L 172.074884 247.213619 
L 172.725495 251.08937 
L 173.376105 252.648569 
L 174.026715 239.931155 
L 174.677326 235.665876 
L 175.327936 250.167042 
L 175.978546 252.50469 
L 176.629156 250.693643 
L 177.279767 245.465112 
L 177.930377 244.481064 
L 178.580987 249.170198 
L 179.231598 249.819344 
L 179.882208 239.522093 
L 180.532818 251.932438 
L 181.183429 250.107511 
L 181.834039 235.825956 
L 182.484649 248.418595 
L 183.13526 246.706036 
L 183.78587 254.134858 
L 184.43648 248.937265 
L 185.087091 232.959377 
L 185.737701 244.905984 
L 186.388311 243.510509 
L 187.038921 225.297291 
L 187.689532 242.635302 
L 188.340142 250.637583 
L 188.990752 253.45627 
L 189.641363 248.91177 
L 190.942583 255.863084 
L 191.593194 256.641766 
L 192.243804 249.908277 
L 192.894414 250.18898 
L 193.545025 249.950372 
L 194.195635 249.407946 
L 194.846245 255.400621 
L 195.496856 258.936263 
L 196.147466 258.367884 
L 196.798076 263.373679 
L 197.448686 262.348265 
L 198.099297 260.38476 
L 198.749907 253.043578 
L 199.400517 258.39054 
L 200.051128 260.715343 
L 200.701738 258.746198 
L 201.352348 254.655995 
L 202.002959 243.157353 
L 202.653569 248.5876 
L 203.304179 251.783357 
L 203.95479 257.246986 
L 204.6054 256.664166 
L 205.25601 261.853247 
L 205.906621 260.960777 
L 206.557231 265.487243 
L 207.207841 264.820335 
L 207.858451 268.668126 
L 208.509062 259.493639 
L 209.159672 240.82798 
L 209.810282 255.357978 
L 210.460893 264.351574 
L 211.111503 262.849293 
L 211.762113 256.121364 
L 212.412724 256.826288 
L 213.063334 262.855395 
L 213.713944 256.629726 
L 214.364555 263.665705 
L 215.015165 264.270668 
L 215.665775 261.61299 
L 216.316385 260.718403 
L 216.966996 265.236134 
L 217.617606 265.960816 
L 218.268216 266.393784 
L 218.918827 262.009498 
L 219.569437 266.247726 
L 220.220047 268.308393 
L 220.870658 266.808031 
L 221.521268 267.521266 
L 222.171878 265.001666 
L 222.822489 270.604298 
L 223.473099 262.253294 
L 224.123709 264.730122 
L 224.77432 265.904935 
L 225.42493 262.801941 
L 226.07554 264.784008 
L 226.72615 263.175083 
L 227.376761 262.195338 
L 228.027371 266.288752 
L 228.677981 267.628314 
L 229.328592 247.043716 
L 229.979202 238.932414 
L 230.629812 251.881798 
L 231.280423 197.019662 
L 231.931033 233.496877 
L 233.232254 253.819181 
L 233.882864 262.915016 
L 234.533474 264.433911 
L 235.834695 271.756524 
L 236.485305 271.632881 
L 237.786526 270.915911 
L 238.437136 270.973615 
L 239.087746 271.963935 
L 240.388967 277.421017 
L 241.039577 278.207044 
L 241.690188 274.827059 
L 242.340798 273.967933 
L 242.991408 267.170552 
L 243.642019 269.97622 
L 244.292629 259.340354 
L 244.943239 257.866194 
L 246.24446 267.064513 
L 246.89507 269.852318 
L 247.54568 270.239199 
L 248.196291 273.506164 
L 248.846901 275.221932 
L 249.497511 263.786225 
L 250.798732 270.110166 
L 251.449342 269.538536 
L 252.750563 275.331812 
L 253.401173 277.101573 
L 254.051784 275.936736 
L 254.702394 274.157877 
L 255.353004 270.50066 
L 256.003615 274.417538 
L 256.654225 274.767794 
L 257.304835 277.242929 
L 257.955445 274.591162 
L 258.606056 273.738536 
L 259.256666 272.222957 
L 259.907276 258.394492 
L 260.557887 271.391193 
L 261.208497 272.806665 
L 261.859107 273.767267 
L 262.509718 276.226496 
L 263.160328 277.538552 
L 263.810938 274.099566 
L 264.461549 273.038407 
L 265.112159 274.353573 
L 265.762769 274.220901 
L 266.413379 271.670461 
L 267.06399 268.341607 
L 267.7146 273.374264 
L 268.36521 274.630245 
L 269.015821 278.411356 
L 269.666431 274.969221 
L 270.317041 269.319088 
L 270.967652 265.961808 
L 271.618262 268.729901 
L 272.268872 276.076103 
L 272.919483 262.495611 
L 273.570093 263.77602 
L 274.220703 261.013743 
L 274.871314 273.115812 
L 275.521924 270.136162 
L 276.172534 274.550563 
L 276.823144 273.678139 
L 277.473755 271.257882 
L 278.124365 267.136319 
L 278.774975 269.339365 
L 279.425586 275.321969 
L 280.076196 267.085126 
L 280.726806 248.857336 
L 281.377417 263.601008 
L 282.028027 266.062767 
L 282.678637 276.037072 
L 283.329248 281.201565 
L 283.979858 281.504315 
L 284.630468 278.546696 
L 285.281079 278.139386 
L 285.931689 270.899941 
L 287.232909 277.695712 
L 287.88352 276.058388 
L 288.53413 273.016226 
L 289.18474 266.015332 
L 289.835351 275.821032 
L 290.485961 277.830783 
L 291.136571 279.304411 
L 291.787182 280.097213 
L 293.088402 282.976735 
L 293.739013 277.55145 
L 294.389623 244.229934 
L 295.690844 272.011686 
L 296.341454 270.506189 
L 296.992064 273.586622 
L 297.642674 269.07267 
L 298.293285 276.917684 
L 298.943895 277.985331 
L 300.245116 265.751309 
L 300.895726 273.112214 
L 301.546336 276.978683 
L 302.196947 277.635654 
L 303.498167 280.741722 
L 304.148778 280.569407 
L 304.799388 281.490064 
L 305.449998 279.071247 
L 306.100608 280.635042 
L 306.751219 280.737326 
L 307.401829 275.175537 
L 308.052439 284.556766 
L 308.70305 283.35995 
L 309.35366 279.994667 
L 310.00427 282.171406 
L 310.654881 282.089953 
L 311.305491 278.032759 
L 311.956101 278.43177 
L 312.606712 275.838952 
L 313.257322 269.958753 
L 313.907932 269.780629 
L 315.209153 280.305746 
L 315.859763 275.763204 
L 316.510373 274.080658 
L 317.160984 271.344649 
L 317.811594 279.37942 
L 318.462204 282.822833 
L 319.112815 284.20948 
L 319.763425 281.774968 
L 320.414035 272.187342 
L 321.064646 282.249573 
L 321.715256 282.67383 
L 322.365866 286.890644 
L 323.016477 277.542404 
L 323.667087 281.630839 
L 324.317697 282.11945 
L 324.968308 284.703272 
L 325.618918 283.099637 
L 326.269528 285.890965 
L 326.920138 280.917488 
L 327.570749 282.395376 
L 329.52258 285.08498 
L 330.17319 286.205768 
L 330.8238 286.754575 
L 331.474411 278.513074 
L 332.125021 267.630424 
L 332.775631 279.442072 
L 333.426242 282.95829 
L 334.076852 281.982828 
L 334.727462 270.662709 
L 335.378073 273.114485 
L 336.028683 283.071583 
L 336.679293 278.80174 
L 337.329903 283.913345 
L 337.980514 274.838641 
L 338.631124 274.206797 
L 339.281734 252.241864 
L 339.932345 258.702175 
L 340.582955 257.698909 
L 341.233565 274.411475 
L 341.884176 273.676127 
L 342.534786 277.131185 
L 343.185396 281.676302 
L 343.836007 280.277877 
L 344.486617 271.830569 
L 345.137227 242.026862 
L 345.787837 259.444015 
L 347.089058 279.556881 
L 347.739668 281.86439 
L 348.390279 282.385425 
L 349.040889 283.293263 
L 349.691499 278.460516 
L 350.34211 285.335559 
L 350.99272 283.513734 
L 351.64333 280.51722 
L 352.293941 285.598403 
L 352.944551 286.808416 
L 353.595161 282.895662 
L 354.245772 285.507234 
L 354.896382 284.815149 
L 355.546992 283.366823 
L 356.197602 267.515615 
L 356.848213 281.665066 
L 357.498823 284.335976 
L 358.149433 281.834668 
L 358.800044 276.04607 
L 359.450654 275.995952 
L 360.101264 284.425299 
L 360.751875 283.412179 
L 361.402485 286.848305 
L 362.053095 288.758222 
L 362.703706 287.022223 
L 363.354316 278.43046 
L 364.004926 263.991227 
L 364.655537 273.889868 
L 365.306147 274.181982 
L 365.956757 279.800379 
L 366.607367 279.577868 
L 367.257978 286.573556 
L 367.908588 283.421518 
L 368.559198 285.899652 
L 369.209809 290.577558 
L 369.860419 292.591908 
L 370.511029 287.524754 
L 371.16164 293.903823 
L 372.46286 280.740068 
L 373.113471 282.378592 
L 373.764081 260.548768 
L 374.414691 265.51474 
L 375.715912 281.642798 
L 376.366522 283.240595 
L 377.017132 287.758484 
L 377.667743 286.44722 
L 378.318353 286.992516 
L 378.968963 277.895651 
L 379.619574 279.752222 
L 380.270184 284.96184 
L 380.920794 284.099743 
L 381.571405 291.030696 
L 382.222015 290.810333 
L 382.872625 292.282794 
L 383.523236 291.069284 
L 384.173846 292.999309 
L 384.824456 287.749187 
L 385.475066 285.336967 
L 386.125677 284.340484 
L 386.776287 274.105273 
L 387.426897 279.633384 
L 388.077508 287.687943 
L 388.728118 291.72869 
L 389.378728 289.296996 
L 390.029339 295.488 
L 390.679949 291.690759 
L 391.330559 290.428583 
L 391.98117 291.010658 
L 392.63178 285.470498 
L 393.28239 284.71557 
L 393.933001 286.233833 
L 394.583611 284.951448 
L 395.234221 291.014651 
L 395.884831 294.327968 
L 396.535442 291.378707 
L 397.186052 284.562007 
L 397.836662 282.96544 
L 398.487273 275.900557 
L 398.487273 275.900557 
" clip-path="url(#p2243a7c6a9)" style="fill: none; stroke: #1f77b4; stroke-width: 1.5; stroke-linecap: square"/>
   </g>
   <g id="line2d_18">
    <path d="M 73.832727 70.365387 
L 74.483338 88.886693 
L 75.133948 95.991469 
L 75.784558 100.223583 
L 76.435169 119.600682 
L 77.085779 102.086346 
L 77.736389 128.38777 
L 78.386999 133.174015 
L 79.03761 141.587561 
L 79.68822 151.797526 
L 80.33883 155.539198 
L 80.989441 143.438292 
L 81.640051 124.735224 
L 82.290661 157.670153 
L 82.941272 156.273175 
L 83.591882 153.721011 
L 84.242492 165.805946 
L 84.893103 167.969025 
L 85.543713 166.338928 
L 86.194323 161.373409 
L 86.844934 167.921655 
L 87.495544 167.878502 
L 88.146154 176.148197 
L 88.796764 177.372446 
L 89.447375 172.695813 
L 90.097985 179.439794 
L 90.748595 172.358548 
L 91.399206 180.186691 
L 92.049816 171.813965 
L 92.700426 179.395693 
L 94.001647 181.630992 
L 94.652257 184.860459 
L 95.302868 185.442455 
L 95.953478 189.110771 
L 96.604088 188.933266 
L 97.254698 183.225753 
L 97.905309 190.465288 
L 98.555919 175.852939 
L 99.206529 166.582198 
L 99.85714 179.104438 
L 100.50775 186.554012 
L 101.15836 184.646278 
L 101.808971 190.607719 
L 102.459581 186.250025 
L 103.110191 177.401633 
L 103.760802 174.788988 
L 104.411412 189.133793 
L 105.062022 185.755053 
L 105.712633 185.65131 
L 106.363243 196.064168 
L 107.013853 198.499102 
L 107.664463 197.369037 
L 108.315074 198.136531 
L 108.965684 194.294822 
L 109.616294 202.054158 
L 110.266905 191.081177 
L 110.917515 195.125108 
L 111.568125 196.093464 
L 112.218736 201.582061 
L 113.519956 195.985034 
L 114.170567 196.962764 
L 114.821177 200.52343 
L 115.471787 190.730205 
L 116.122398 192.687182 
L 116.773008 200.324151 
L 117.423618 201.7837 
L 118.074228 191.876595 
L 118.724839 201.313234 
L 119.375449 200.089853 
L 120.026059 183.91381 
L 120.67667 182.556984 
L 122.628501 199.848445 
L 123.279111 198.496216 
L 123.929721 203.956807 
L 124.580332 201.705585 
L 125.230942 207.783735 
L 125.881552 180.16326 
L 126.532163 187.8248 
L 127.182773 193.22874 
L 127.833383 195.303297 
L 128.483993 202.542986 
L 129.134604 207.155193 
L 129.785214 203.86406 
L 130.435824 196.811799 
L 131.086435 203.064969 
L 131.737045 205.808795 
L 133.038266 207.009338 
L 133.688876 203.559837 
L 134.339486 208.836111 
L 134.990097 209.252486 
L 135.640707 210.208776 
L 136.291317 201.032351 
L 136.941927 209.622819 
L 137.592538 209.132268 
L 138.243148 194.77917 
L 138.893758 189.043851 
L 139.544369 200.917847 
L 140.194979 198.503437 
L 140.845589 204.385032 
L 141.4962 209.2328 
L 142.14681 202.785587 
L 142.79742 206.542217 
L 143.448031 206.711992 
L 144.098641 210.500336 
L 144.749251 211.819336 
L 145.399862 210.489716 
L 146.050472 209.907591 
L 146.701082 213.373707 
L 147.351692 208.239674 
L 148.002303 200.478856 
L 148.652913 209.139859 
L 149.303523 207.75301 
L 149.954134 211.792863 
L 150.604744 211.082751 
L 151.255354 212.903511 
L 151.905965 191.886917 
L 152.556575 208.925036 
L 153.207185 210.570963 
L 153.857796 202.84939 
L 154.508406 202.981305 
L 155.159016 210.500674 
L 155.809627 210.257071 
L 156.460237 211.638744 
L 157.110847 214.51815 
L 157.761457 200.963065 
L 158.412068 212.69132 
L 159.062678 211.663227 
L 159.713288 214.594957 
L 160.363899 207.04235 
L 161.014509 208.289036 
L 161.665119 214.381575 
L 162.96634 211.526943 
L 163.61695 212.497605 
L 164.267561 212.772964 
L 164.918171 206.962966 
L 165.568781 206.51711 
L 166.219392 212.662327 
L 166.870002 205.635372 
L 167.520612 205.685684 
L 168.171222 213.686748 
L 168.821833 210.408359 
L 169.472443 200.245573 
L 170.123053 213.430671 
L 170.773664 213.217681 
L 171.424274 214.02121 
L 172.074884 215.119567 
L 172.725495 214.201541 
L 173.376105 207.419949 
L 174.026715 197.109532 
L 174.677326 208.712905 
L 175.327936 213.539401 
L 175.978546 214.187099 
L 176.629156 200.892752 
L 177.279767 215.945786 
L 177.930377 213.460283 
L 178.580987 209.622952 
L 179.231598 194.621813 
L 179.882208 212.987002 
L 180.532818 213.562865 
L 181.183429 206.595991 
L 182.484649 210.860348 
L 183.13526 212.438593 
L 183.78587 208.558398 
L 184.43648 181.053735 
L 185.087091 206.053418 
L 185.737701 209.192765 
L 186.388311 167.939308 
L 187.038921 209.577816 
L 187.689532 209.862165 
L 188.340142 214.855703 
L 188.990752 212.2593 
L 189.641363 208.517 
L 190.291973 213.897509 
L 190.942583 218.229256 
L 191.593194 216.479073 
L 192.243804 201.365348 
L 192.894414 216.180897 
L 193.545025 203.185118 
L 194.195635 215.420072 
L 194.846245 217.343399 
L 195.496856 215.748853 
L 196.147466 215.371066 
L 196.798076 219.499875 
L 197.448686 219.736745 
L 198.099297 209.903726 
L 198.749907 208.842749 
L 200.051128 217.849799 
L 200.701738 212.143909 
L 201.352348 194.504113 
L 202.653569 216.051537 
L 203.304179 216.206604 
L 203.95479 210.309782 
L 204.6054 215.201142 
L 205.25601 213.608988 
L 205.906621 211.343283 
L 206.557231 217.84609 
L 207.207841 218.62448 
L 207.858451 219.059874 
L 208.509062 189.621379 
L 209.159672 211.208912 
L 209.810282 216.570086 
L 210.460893 216.894662 
L 211.111503 215.654824 
L 211.762113 212.736074 
L 212.412724 218.337301 
L 213.063334 184.520651 
L 213.713944 216.538399 
L 214.364555 219.286604 
L 215.665775 212.057831 
L 216.316385 218.064993 
L 216.966996 219.391933 
L 217.617606 218.600785 
L 218.918827 215.05712 
L 220.220047 219.095273 
L 220.870658 213.345749 
L 221.521268 210.268151 
L 222.171878 215.741759 
L 222.822489 216.336083 
L 223.473099 210.72233 
L 224.123709 211.877089 
L 224.77432 217.072103 
L 225.42493 214.511626 
L 226.07554 217.883047 
L 226.72615 209.81029 
L 228.027371 219.068585 
L 228.677981 199.725767 
L 229.328592 213.037592 
L 229.979202 212.219489 
L 230.629812 154.91087 
L 231.280423 193.442468 
L 231.931033 202.845723 
L 232.581643 214.776349 
L 233.882864 213.331888 
L 234.533474 215.363028 
L 235.184085 216.087038 
L 235.834695 218.662631 
L 236.485305 215.807398 
L 237.135915 213.846374 
L 237.786526 218.827891 
L 238.437136 220.374664 
L 239.087746 217.594485 
L 239.738357 219.664756 
L 240.388967 218.102905 
L 241.039577 220.088067 
L 241.690188 217.56549 
L 242.991408 215.838023 
L 243.642019 216.639088 
L 244.292629 215.222875 
L 244.943239 211.848077 
L 245.59385 202.521879 
L 246.24446 218.981146 
L 246.89507 208.434326 
L 247.54568 216.836156 
L 248.196291 218.183258 
L 248.846901 204.730177 
L 249.497511 216.760273 
L 250.148122 212.130087 
L 251.449342 218.197067 
L 252.099953 217.222915 
L 252.750563 218.524052 
L 253.401173 216.017932 
L 254.051784 219.491868 
L 254.702394 215.043937 
L 255.353004 218.15221 
L 256.003615 215.643083 
L 256.654225 218.758128 
L 257.304835 219.473942 
L 257.955445 214.94485 
L 258.606056 217.771007 
L 259.256666 213.306363 
L 259.907276 214.185473 
L 260.557887 211.962516 
L 261.208497 218.748029 
L 262.509718 216.030474 
L 263.160328 210.357623 
L 263.810938 217.311729 
L 264.461549 219.156603 
L 265.112159 214.094889 
L 265.762769 215.095882 
L 267.06399 212.181067 
L 267.7146 218.822247 
L 268.36521 214.464321 
L 269.015821 218.384588 
L 269.666431 213.844315 
L 270.317041 219.387522 
L 270.967652 203.111 
L 271.618262 217.747309 
L 272.268872 206.08502 
L 273.570093 204.274224 
L 274.220703 218.231475 
L 274.871314 207.896233 
L 275.521924 215.740714 
L 276.172534 213.024701 
L 276.823144 214.833469 
L 277.473755 214.342345 
L 278.124365 215.348031 
L 278.774975 213.392095 
L 280.076196 211.085212 
L 280.726806 207.690465 
L 281.377417 213.095778 
L 282.028027 214.470994 
L 282.678637 219.448929 
L 283.329248 220.040333 
L 283.979858 219.860599 
L 284.630468 220.515887 
L 285.281079 206.84916 
L 285.931689 218.371429 
L 286.582299 218.200964 
L 287.232909 217.309213 
L 288.53413 199.605434 
L 289.18474 213.775246 
L 289.835351 209.916983 
L 290.485961 218.271976 
L 291.136571 218.24869 
L 291.787182 218.455328 
L 292.437792 216.273799 
L 293.088402 218.744366 
L 293.739013 173.603838 
L 294.389623 210.617141 
L 295.040233 210.634168 
L 295.690844 210.401769 
L 296.341454 216.989962 
L 296.992064 209.467354 
L 297.642674 216.42448 
L 298.293285 218.95549 
L 298.943895 212.889147 
L 299.594505 211.972348 
L 300.245116 211.928498 
L 300.895726 218.307964 
L 301.546336 214.118582 
L 302.196947 215.698192 
L 302.847557 216.310669 
L 303.498167 214.129037 
L 304.799388 214.785777 
L 305.449998 219.396236 
L 306.100608 214.778869 
L 306.751219 215.44983 
L 307.401829 215.748572 
L 308.052439 216.391333 
L 308.70305 214.871606 
L 309.35366 219.525112 
L 310.00427 215.413631 
L 310.654881 218.963878 
L 311.305491 217.488506 
L 311.956101 217.352719 
L 312.606712 209.362859 
L 313.257322 203.886653 
L 313.907932 212.931462 
L 314.558543 217.714751 
L 315.209153 212.164789 
L 315.859763 213.486657 
L 316.510373 211.819847 
L 317.160984 217.908206 
L 317.811594 216.878741 
L 318.462204 214.680442 
L 319.112815 215.41377 
L 319.763425 208.727051 
L 320.414035 214.148646 
L 321.064646 216.462947 
L 321.715256 221.04372 
L 322.365866 217.426308 
L 323.016477 213.033398 
L 323.667087 214.812282 
L 324.317697 210.991255 
L 324.968308 216.592487 
L 325.618918 214.145268 
L 326.269528 213.201754 
L 326.920138 212.965582 
L 327.570749 214.806818 
L 328.221359 213.842652 
L 328.871969 217.644885 
L 329.52258 212.870042 
L 330.17319 218.307775 
L 330.8238 216.869954 
L 331.474411 204.486104 
L 332.125021 213.661989 
L 332.775631 213.827976 
L 333.426242 212.923224 
L 334.076852 210.46659 
L 334.727462 209.266644 
L 335.378073 216.222184 
L 336.028683 213.471321 
L 336.679293 219.246112 
L 337.329903 213.2058 
L 337.980514 209.550622 
L 338.631124 208.70365 
L 339.281734 208.39685 
L 339.932345 204.429154 
L 340.582955 209.324432 
L 341.233565 216.546504 
L 341.884176 212.465512 
L 342.534786 215.754941 
L 343.185396 219.780513 
L 343.836007 213.493021 
L 344.486617 169.094257 
L 345.787837 213.096079 
L 346.438448 217.053373 
L 347.089058 219.281147 
L 347.739668 216.589859 
L 348.390279 212.705155 
L 349.040889 216.968854 
L 349.691499 216.785331 
L 350.34211 217.187921 
L 350.99272 217.380957 
L 351.64333 217.015366 
L 352.293941 216.493761 
L 352.944551 218.805829 
L 353.595161 219.2216 
L 354.245772 217.731054 
L 354.896382 215.724778 
L 355.546992 197.373185 
L 356.197602 212.365997 
L 356.848213 215.953994 
L 357.498823 217.788534 
L 358.149433 209.219968 
L 358.800044 215.016541 
L 359.450654 213.106411 
L 360.101264 217.834725 
L 360.751875 217.385759 
L 361.402485 218.275344 
L 362.053095 215.841327 
L 362.703706 218.713396 
L 363.354316 195.36046 
L 364.004926 212.336664 
L 364.655537 208.929777 
L 365.306147 208.390445 
L 365.956757 217.361202 
L 366.607367 219.302046 
L 367.257978 214.008015 
L 367.908588 219.259008 
L 368.559198 217.842905 
L 369.209809 217.327229 
L 369.860419 218.824119 
L 370.511029 219.244603 
L 371.16164 219.85844 
L 371.81225 218.414952 
L 372.46286 219.980349 
L 373.113471 206.927748 
L 373.764081 204.77098 
L 374.414691 207.084557 
L 375.065302 210.329509 
L 375.715912 211.360537 
L 376.366522 219.306766 
L 377.017132 217.874933 
L 377.667743 215.86831 
L 378.318353 213.140759 
L 378.968963 216.950486 
L 379.619574 214.966171 
L 380.270184 216.050323 
L 380.920794 217.990927 
L 381.571405 219.512721 
L 382.222015 217.73223 
L 383.523236 220.284853 
L 384.173846 217.20116 
L 384.824456 218.025381 
L 385.475066 219.326844 
L 386.125677 210.683166 
L 386.776287 212.953396 
L 387.426897 215.649288 
L 388.077508 217.605493 
L 388.728118 216.634141 
L 389.378728 218.708494 
L 390.029339 218.541641 
L 390.679949 216.476104 
L 391.330559 211.486537 
L 391.98117 216.947722 
L 392.63178 216.613988 
L 393.28239 217.336619 
L 393.933001 205.718905 
L 394.583611 217.258077 
L 395.234221 217.675279 
L 395.884831 215.508483 
L 396.535442 216.230708 
L 397.186052 215.481291 
L 397.836662 218.403302 
L 398.487273 214.343307 
L 398.487273 214.343307 
" clip-path="url(#p2243a7c6a9)" style="fill: none; stroke: #ff7f0e; stroke-width: 1.5; stroke-linecap: square"/>
   </g>
   <g id="patch_3">
    <path d="M 57.6 307.584 
L 57.6 41.472 
" style="fill: none; stroke: #000000; stroke-width: 0.8; stroke-linejoin: miter; stroke-linecap: square"/>
   </g>
   <g id="patch_4">
    <path d="M 414.72 307.584 
L 414.72 41.472 
" style="fill: none; stroke: #000000; stroke-width: 0.8; stroke-linejoin: miter; stroke-linecap: square"/>
   </g>
   <g id="patch_5">
    <path d="M 57.6 307.584 
L 414.72 307.584 
" style="fill: none; stroke: #000000; stroke-width: 0.8; stroke-linejoin: miter; stroke-linecap: square"/>
   </g>
   <g id="patch_6">
    <path d="M 57.6 41.472 
L 414.72 41.472 
" style="fill: none; stroke: #000000; stroke-width: 0.8; stroke-linejoin: miter; stroke-linecap: square"/>
   </g>
   <g id="text_8">
    <!-- MSE loss during training -->
    <g transform="translate(163.472813 35.472) scale(0.12 -0.12)">
     <defs>
      <path id="DejaVuSans-4d" d="M 628 4666 
L 1569 4666 
L 2759 1491 
L 3956 4666 
L 4897 4666 
L 4897 0 
L 4281 0 
L 4281 4097 
L 3078 897 
L 2444 897 
L 1241 4097 
L 1241 0 
L 628 0 
L 628 4666 
z
" transform="scale(0.015625)"/>
      <path id="DejaVuSans-53" d="M 3425 4513 
L 3425 3897 
Q 3066 4069 2747 4153 
Q 2428 4238 2131 4238 
Q 1616 4238 1336 4038 
Q 1056 3838 1056 3469 
Q 1056 3159 1242 3001 
Q 1428 2844 1947 2747 
L 2328 2669 
Q 3034 2534 3370 2195 
Q 3706 1856 3706 1288 
Q 3706 609 3251 259 
Q 2797 -91 1919 -91 
Q 1588 -91 1214 -16 
Q 841 59 441 206 
L 441 856 
Q 825 641 1194 531 
Q 1563 422 1919 422 
Q 2459 422 2753 634 
Q 3047 847 3047 1241 
Q 3047 1584 2836 1778 
Q 2625 1972 2144 2069 
L 1759 2144 
Q 1053 2284 737 2584 
Q 422 2884 422 3419 
Q 422 4038 858 4394 
Q 1294 4750 2059 4750 
Q 2388 4750 2728 4690 
Q 3069 4631 3425 4513 
z
" transform="scale(0.015625)"/>
      <path id="DejaVuSans-45" d="M 628 4666 
L 3578 4666 
L 3578 4134 
L 1259 4134 
L 1259 2753 
L 3481 2753 
L 3481 2222 
L 1259 2222 
L 1259 531 
L 3634 531 
L 3634 0 
L 628 0 
L 628 4666 
z
" transform="scale(0.015625)"/>
      <path id="DejaVuSans-20" transform="scale(0.015625)"/>
      <path id="DejaVuSans-6c" d="M 603 4863 
L 1178 4863 
L 1178 0 
L 603 0 
L 603 4863 
z
" transform="scale(0.015625)"/>
      <path id="DejaVuSans-6f" d="M 1959 3097 
Q 1497 3097 1228 2736 
Q 959 2375 959 1747 
Q 959 1119 1226 758 
Q 1494 397 1959 397 
Q 2419 397 2687 759 
Q 2956 1122 2956 1747 
Q 2956 2369 2687 2733 
Q 2419 3097 1959 3097 
z
M 1959 3584 
Q 2709 3584 3137 3096 
Q 3566 2609 3566 1747 
Q 3566 888 3137 398 
Q 2709 -91 1959 -91 
Q 1206 -91 779 398 
Q 353 888 353 1747 
Q 353 2609 779 3096 
Q 1206 3584 1959 3584 
z
" transform="scale(0.015625)"/>
      <path id="DejaVuSans-73" d="M 2834 3397 
L 2834 2853 
Q 2591 2978 2328 3040 
Q 2066 3103 1784 3103 
Q 1356 3103 1142 2972 
Q 928 2841 928 2578 
Q 928 2378 1081 2264 
Q 1234 2150 1697 2047 
L 1894 2003 
Q 2506 1872 2764 1633 
Q 3022 1394 3022 966 
Q 3022 478 2636 193 
Q 2250 -91 1575 -91 
Q 1294 -91 989 -36 
Q 684 19 347 128 
L 347 722 
Q 666 556 975 473 
Q 1284 391 1588 391 
Q 1994 391 2212 530 
Q 2431 669 2431 922 
Q 2431 1156 2273 1281 
Q 2116 1406 1581 1522 
L 1381 1569 
Q 847 1681 609 1914 
Q 372 2147 372 2553 
Q 372 3047 722 3315 
Q 1072 3584 1716 3584 
Q 2034 3584 2315 3537 
Q 2597 3491 2834 3397 
z
" transform="scale(0.015625)"/>
      <path id="DejaVuSans-64" d="M 2906 2969 
L 2906 4863 
L 3481 4863 
L 3481 0 
L 2906 0 
L 2906 525 
Q 2725 213 2448 61 
Q 2172 -91 1784 -91 
Q 1150 -91 751 415 
Q 353 922 353 1747 
Q 353 2572 751 3078 
Q 1150 3584 1784 3584 
Q 2172 3584 2448 3432 
Q 2725 3281 2906 2969 
z
M 947 1747 
Q 947 1113 1208 752 
Q 1469 391 1925 391 
Q 2381 391 2643 752 
Q 2906 1113 2906 1747 
Q 2906 2381 2643 2742 
Q 2381 3103 1925 3103 
Q 1469 3103 1208 2742 
Q 947 2381 947 1747 
z
" transform="scale(0.015625)"/>
      <path id="DejaVuSans-75" d="M 544 1381 
L 544 3500 
L 1119 3500 
L 1119 1403 
Q 1119 906 1312 657 
Q 1506 409 1894 409 
Q 2359 409 2629 706 
Q 2900 1003 2900 1516 
L 2900 3500 
L 3475 3500 
L 3475 0 
L 2900 0 
L 2900 538 
Q 2691 219 2414 64 
Q 2138 -91 1772 -91 
Q 1169 -91 856 284 
Q 544 659 544 1381 
z
M 1991 3584 
L 1991 3584 
z
" transform="scale(0.015625)"/>
      <path id="DejaVuSans-72" d="M 2631 2963 
Q 2534 3019 2420 3045 
Q 2306 3072 2169 3072 
Q 1681 3072 1420 2755 
Q 1159 2438 1159 1844 
L 1159 0 
L 581 0 
L 581 3500 
L 1159 3500 
L 1159 2956 
Q 1341 3275 1631 3429 
Q 1922 3584 2338 3584 
Q 2397 3584 2469 3576 
Q 2541 3569 2628 3553 
L 2631 2963 
z
" transform="scale(0.015625)"/>
      <path id="DejaVuSans-69" d="M 603 3500 
L 1178 3500 
L 1178 0 
L 603 0 
L 603 3500 
z
M 603 4863 
L 1178 4863 
L 1178 4134 
L 603 4134 
L 603 4863 
z
" transform="scale(0.015625)"/>
      <path id="DejaVuSans-6e" d="M 3513 2113 
L 3513 0 
L 2938 0 
L 2938 2094 
Q 2938 2591 2744 2837 
Q 2550 3084 2163 3084 
Q 1697 3084 1428 2787 
Q 1159 2491 1159 1978 
L 1159 0 
L 581 0 
L 581 3500 
L 1159 3500 
L 1159 2956 
Q 1366 3272 1645 3428 
Q 1925 3584 2291 3584 
Q 2894 3584 3203 3211 
Q 3513 2838 3513 2113 
z
" transform="scale(0.015625)"/>
      <path id="DejaVuSans-67" d="M 2906 1791 
Q 2906 2416 2648 2759 
Q 2391 3103 1925 3103 
Q 1463 3103 1205 2759 
Q 947 2416 947 1791 
Q 947 1169 1205 825 
Q 1463 481 1925 481 
Q 2391 481 2648 825 
Q 2906 1169 2906 1791 
z
M 3481 434 
Q 3481 -459 3084 -895 
Q 2688 -1331 1869 -1331 
Q 1566 -1331 1297 -1286 
Q 1028 -1241 775 -1147 
L 775 -588 
Q 1028 -725 1275 -790 
Q 1522 -856 1778 -856 
Q 2344 -856 2625 -561 
Q 2906 -266 2906 331 
L 2906 616 
Q 2728 306 2450 153 
Q 2172 0 1784 0 
Q 1141 0 747 490 
Q 353 981 353 1791 
Q 353 2603 747 3093 
Q 1141 3584 1784 3584 
Q 2172 3584 2450 3431 
Q 2728 3278 2906 2969 
L 2906 3500 
L 3481 3500 
L 3481 434 
z
" transform="scale(0.015625)"/>
      <path id="DejaVuSans-74" d="M 1172 4494 
L 1172 3500 
L 2356 3500 
L 2356 3053 
L 1172 3053 
L 1172 1153 
Q 1172 725 1289 603 
Q 1406 481 1766 481 
L 2356 481 
L 2356 0 
L 1766 0 
Q 1100 0 847 248 
Q 594 497 594 1153 
L 594 3053 
L 172 3053 
L 172 3500 
L 594 3500 
L 594 4494 
L 1172 4494 
z
" transform="scale(0.015625)"/>
      <path id="DejaVuSans-61" d="M 2194 1759 
Q 1497 1759 1228 1600 
Q 959 1441 959 1056 
Q 959 750 1161 570 
Q 1363 391 1709 391 
Q 2188 391 2477 730 
Q 2766 1069 2766 1631 
L 2766 1759 
L 2194 1759 
z
M 3341 1997 
L 3341 0 
L 2766 0 
L 2766 531 
Q 2569 213 2275 61 
Q 1981 -91 1556 -91 
Q 1019 -91 701 211 
Q 384 513 384 1019 
Q 384 1609 779 1909 
Q 1175 2209 1959 2209 
L 2766 2209 
L 2766 2266 
Q 2766 2663 2505 2880 
Q 2244 3097 1772 3097 
Q 1472 3097 1187 3025 
Q 903 2953 641 2809 
L 641 3341 
Q 956 3463 1253 3523 
Q 1550 3584 1831 3584 
Q 2591 3584 2966 3190 
Q 3341 2797 3341 1997 
z
" transform="scale(0.015625)"/>
     </defs>
     <use xlink:href="#DejaVuSans-4d"/>
     <use xlink:href="#DejaVuSans-53" x="86.279297"/>
     <use xlink:href="#DejaVuSans-45" x="149.755859"/>
     <use xlink:href="#DejaVuSans-20" x="212.939453"/>
     <use xlink:href="#DejaVuSans-6c" x="244.726562"/>
     <use xlink:href="#DejaVuSans-6f" x="272.509766"/>
     <use xlink:href="#DejaVuSans-73" x="333.691406"/>
     <use xlink:href="#DejaVuSans-73" x="385.791016"/>
     <use xlink:href="#DejaVuSans-20" x="437.890625"/>
     <use xlink:href="#DejaVuSans-64" x="469.677734"/>
     <use xlink:href="#DejaVuSans-75" x="533.154297"/>
     <use xlink:href="#DejaVuSans-72" x="596.533203"/>
     <use xlink:href="#DejaVuSans-69" x="637.646484"/>
     <use xlink:href="#DejaVuSans-6e" x="665.429688"/>
     <use xlink:href="#DejaVuSans-67" x="728.808594"/>
     <use xlink:href="#DejaVuSans-20" x="792.285156"/>
     <use xlink:href="#DejaVuSans-74" x="824.072266"/>
     <use xlink:href="#DejaVuSans-72" x="863.28125"/>
     <use xlink:href="#DejaVuSans-61" x="904.394531"/>
     <use xlink:href="#DejaVuSans-69" x="965.673828"/>
     <use xlink:href="#DejaVuSans-6e" x="993.457031"/>
     <use xlink:href="#DejaVuSans-69" x="1056.835938"/>
     <use xlink:href="#DejaVuSans-6e" x="1084.619141"/>
     <use xlink:href="#DejaVuSans-67" x="1147.998047"/>
    </g>
   </g>
   <g id="legend_1">
    <g id="patch_7">
     <path d="M 304.765312 78.82825 
L 407.72 78.82825 
Q 409.72 78.82825 409.72 76.82825 
L 409.72 48.472 
Q 409.72 46.472 407.72 46.472 
L 304.765312 46.472 
Q 302.765312 46.472 302.765312 48.472 
L 302.765312 76.82825 
Q 302.765312 78.82825 304.765312 78.82825 
z
" style="fill: #ffffff; opacity: 0.8; stroke: #cccccc; stroke-linejoin: miter"/>
    </g>
    <g id="line2d_19">
     <path d="M 306.765312 54.570437 
L 316.765312 54.570437 
L 326.765312 54.570437 
" style="fill: none; stroke: #1f77b4; stroke-width: 1.5; stroke-linecap: square"/>
    </g>
    <g id="text_9">
     <!-- Train MSE loss -->
     <g transform="translate(334.765312 58.070437) scale(0.1 -0.1)">
      <defs>
       <path id="DejaVuSans-54" d="M -19 4666 
L 3928 4666 
L 3928 4134 
L 2272 4134 
L 2272 0 
L 1638 0 
L 1638 4134 
L -19 4134 
L -19 4666 
z
" transform="scale(0.015625)"/>
      </defs>
      <use xlink:href="#DejaVuSans-54"/>
      <use xlink:href="#DejaVuSans-72" x="46.333984"/>
      <use xlink:href="#DejaVuSans-61" x="87.447266"/>
      <use xlink:href="#DejaVuSans-69" x="148.726562"/>
      <use xlink:href="#DejaVuSans-6e" x="176.509766"/>
      <use xlink:href="#DejaVuSans-20" x="239.888672"/>
      <use xlink:href="#DejaVuSans-4d" x="271.675781"/>
      <use xlink:href="#DejaVuSans-53" x="357.955078"/>
      <use xlink:href="#DejaVuSans-45" x="421.431641"/>
      <use xlink:href="#DejaVuSans-20" x="484.615234"/>
      <use xlink:href="#DejaVuSans-6c" x="516.402344"/>
      <use xlink:href="#DejaVuSans-6f" x="544.185547"/>
      <use xlink:href="#DejaVuSans-73" x="605.367188"/>
      <use xlink:href="#DejaVuSans-73" x="657.466797"/>
     </g>
    </g>
    <g id="line2d_20">
     <path d="M 306.765312 69.248562 
L 316.765312 69.248562 
L 326.765312 69.248562 
" style="fill: none; stroke: #ff7f0e; stroke-width: 1.5; stroke-linecap: square"/>
    </g>
    <g id="text_10">
     <!-- Test MSE loss -->
     <g transform="translate(334.765312 72.748562) scale(0.1 -0.1)">
      <defs>
       <path id="DejaVuSans-65" d="M 3597 1894 
L 3597 1613 
L 953 1613 
Q 991 1019 1311 708 
Q 1631 397 2203 397 
Q 2534 397 2845 478 
Q 3156 559 3463 722 
L 3463 178 
Q 3153 47 2828 -22 
Q 2503 -91 2169 -91 
Q 1331 -91 842 396 
Q 353 884 353 1716 
Q 353 2575 817 3079 
Q 1281 3584 2069 3584 
Q 2775 3584 3186 3129 
Q 3597 2675 3597 1894 
z
M 3022 2063 
Q 3016 2534 2758 2815 
Q 2500 3097 2075 3097 
Q 1594 3097 1305 2825 
Q 1016 2553 972 2059 
L 3022 2063 
z
" transform="scale(0.015625)"/>
      </defs>
      <use xlink:href="#DejaVuSans-54"/>
      <use xlink:href="#DejaVuSans-65" x="44.083984"/>
      <use xlink:href="#DejaVuSans-73" x="105.607422"/>
      <use xlink:href="#DejaVuSans-74" x="157.707031"/>
      <use xlink:href="#DejaVuSans-20" x="196.916016"/>
      <use xlink:href="#DejaVuSans-4d" x="228.703125"/>
      <use xlink:href="#DejaVuSans-53" x="314.982422"/>
      <use xlink:href="#DejaVuSans-45" x="378.458984"/>
      <use xlink:href="#DejaVuSans-20" x="441.642578"/>
      <use xlink:href="#DejaVuSans-6c" x="473.429688"/>
      <use xlink:href="#DejaVuSans-6f" x="501.212891"/>
      <use xlink:href="#DejaVuSans-73" x="562.394531"/>
      <use xlink:href="#DejaVuSans-73" x="614.494141"/>
     </g>
    </g>
   </g>
  </g>
 </g>
 <defs>
  <clipPath id="p2243a7c6a9">
   <rect x="57.6" y="41.472" width="357.12" height="266.112"/>
  </clipPath>
 </defs>
</svg>
