<?xml version="1.0" encoding="utf-8" standalone="no"?>
<!DOCTYPE svg PUBLIC "-//W3C//DTD SVG 1.1//EN"
  "http://www.w3.org/Graphics/SVG/1.1/DTD/svg11.dtd">
<svg xmlns:xlink="http://www.w3.org/1999/xlink" width="460.8pt" height="345.6pt" viewBox="0 0 460.8 345.6" xmlns="http://www.w3.org/2000/svg" version="1.1">
 <metadata>
  <rdf:RDF xmlns:dc="http://purl.org/dc/elements/1.1/" xmlns:cc="http://creativecommons.org/ns#" xmlns:rdf="http://www.w3.org/1999/02/22-rdf-syntax-ns#">
   <cc:Work>
    <dc:type rdf:resource="http://purl.org/dc/dcmitype/StillImage"/>
    <dc:date>2023-03-27T21:17:56.759171</dc:date>
    <dc:format>image/svg+xml</dc:format>
    <dc:creator>
     <cc:Agent>
      <dc:title>Matplotlib v3.6.2, https://matplotlib.org/</dc:title>
     </cc:Agent>
    </dc:creator>
   </cc:Work>
  </rdf:RDF>
 </metadata>
 <defs>
  <style type="text/css">*{stroke-linejoin: round; stroke-linecap: butt}</style>
 </defs>
 <g id="figure_1">
  <g id="patch_1">
   <path d="M 0 345.6 
L 460.8 345.6 
L 460.8 0 
L 0 0 
z
" style="fill: #ffffff"/>
  </g>
  <g id="axes_1">
   <g id="patch_2">
    <path d="M 57.6 307.584 
L 414.72 307.584 
L 414.72 41.472 
L 57.6 41.472 
z
" style="fill: #ffffff"/>
   </g>
   <g id="matplotlib.axis_1">
    <g id="xtick_1">
     <g id="line2d_1">
      <defs>
       <path id="m139190cff6" d="M 0 0 
L 0 3.5 
" style="stroke: #000000; stroke-width: 0.8"/>
      </defs>
      <g>
       <use xlink:href="#m139190cff6" x="73.832727" y="307.584" style="stroke: #000000; stroke-width: 0.8"/>
      </g>
     </g>
     <g id="text_1">
      <!-- 0 -->
      <g transform="translate(70.651477 322.182437) scale(0.1 -0.1)">
       <defs>
        <path id="DejaVuSans-30" d="M 2034 4250 
Q 1547 4250 1301 3770 
Q 1056 3291 1056 2328 
Q 1056 1369 1301 889 
Q 1547 409 2034 409 
Q 2525 409 2770 889 
Q 3016 1369 3016 2328 
Q 3016 3291 2770 3770 
Q 2525 4250 2034 4250 
z
M 2034 4750 
Q 2819 4750 3233 4129 
Q 3647 3509 3647 2328 
Q 3647 1150 3233 529 
Q 2819 -91 2034 -91 
Q 1250 -91 836 529 
Q 422 1150 422 2328 
Q 422 3509 836 4129 
Q 1250 4750 2034 4750 
z
" transform="scale(0.015625)"/>
       </defs>
       <use xlink:href="#DejaVuSans-30"/>
      </g>
     </g>
    </g>
    <g id="xtick_2">
     <g id="line2d_2">
      <g>
       <use xlink:href="#m139190cff6" x="138.893758" y="307.584" style="stroke: #000000; stroke-width: 0.8"/>
      </g>
     </g>
     <g id="text_2">
      <!-- 100 -->
      <g transform="translate(129.350008 322.182437) scale(0.1 -0.1)">
       <defs>
        <path id="DejaVuSans-31" d="M 794 531 
L 1825 531 
L 1825 4091 
L 703 3866 
L 703 4441 
L 1819 4666 
L 2450 4666 
L 2450 531 
L 3481 531 
L 3481 0 
L 794 0 
L 794 531 
z
" transform="scale(0.015625)"/>
       </defs>
       <use xlink:href="#DejaVuSans-31"/>
       <use xlink:href="#DejaVuSans-30" x="63.623047"/>
       <use xlink:href="#DejaVuSans-30" x="127.246094"/>
      </g>
     </g>
    </g>
    <g id="xtick_3">
     <g id="line2d_3">
      <g>
       <use xlink:href="#m139190cff6" x="203.95479" y="307.584" style="stroke: #000000; stroke-width: 0.8"/>
      </g>
     </g>
     <g id="text_3">
      <!-- 200 -->
      <g transform="translate(194.41104 322.182437) scale(0.1 -0.1)">
       <defs>
        <path id="DejaVuSans-32" d="M 1228 531 
L 3431 531 
L 3431 0 
L 469 0 
L 469 531 
Q 828 903 1448 1529 
Q 2069 2156 2228 2338 
Q 2531 2678 2651 2914 
Q 2772 3150 2772 3378 
Q 2772 3750 2511 3984 
Q 2250 4219 1831 4219 
Q 1534 4219 1204 4116 
Q 875 4013 500 3803 
L 500 4441 
Q 881 4594 1212 4672 
Q 1544 4750 1819 4750 
Q 2544 4750 2975 4387 
Q 3406 4025 3406 3419 
Q 3406 3131 3298 2873 
Q 3191 2616 2906 2266 
Q 2828 2175 2409 1742 
Q 1991 1309 1228 531 
z
" transform="scale(0.015625)"/>
       </defs>
       <use xlink:href="#DejaVuSans-32"/>
       <use xlink:href="#DejaVuSans-30" x="63.623047"/>
       <use xlink:href="#DejaVuSans-30" x="127.246094"/>
      </g>
     </g>
    </g>
    <g id="xtick_4">
     <g id="line2d_4">
      <g>
       <use xlink:href="#m139190cff6" x="269.015821" y="307.584" style="stroke: #000000; stroke-width: 0.8"/>
      </g>
     </g>
     <g id="text_4">
      <!-- 300 -->
      <g transform="translate(259.472071 322.182437) scale(0.1 -0.1)">
       <defs>
        <path id="DejaVuSans-33" d="M 2597 2516 
Q 3050 2419 3304 2112 
Q 3559 1806 3559 1356 
Q 3559 666 3084 287 
Q 2609 -91 1734 -91 
Q 1441 -91 1130 -33 
Q 819 25 488 141 
L 488 750 
Q 750 597 1062 519 
Q 1375 441 1716 441 
Q 2309 441 2620 675 
Q 2931 909 2931 1356 
Q 2931 1769 2642 2001 
Q 2353 2234 1838 2234 
L 1294 2234 
L 1294 2753 
L 1863 2753 
Q 2328 2753 2575 2939 
Q 2822 3125 2822 3475 
Q 2822 3834 2567 4026 
Q 2313 4219 1838 4219 
Q 1578 4219 1281 4162 
Q 984 4106 628 3988 
L 628 4550 
Q 988 4650 1302 4700 
Q 1616 4750 1894 4750 
Q 2613 4750 3031 4423 
Q 3450 4097 3450 3541 
Q 3450 3153 3228 2886 
Q 3006 2619 2597 2516 
z
" transform="scale(0.015625)"/>
       </defs>
       <use xlink:href="#DejaVuSans-33"/>
       <use xlink:href="#DejaVuSans-30" x="63.623047"/>
       <use xlink:href="#DejaVuSans-30" x="127.246094"/>
      </g>
     </g>
    </g>
    <g id="xtick_5">
     <g id="line2d_5">
      <g>
       <use xlink:href="#m139190cff6" x="334.076852" y="307.584" style="stroke: #000000; stroke-width: 0.8"/>
      </g>
     </g>
     <g id="text_5">
      <!-- 400 -->
      <g transform="translate(324.533102 322.182437) scale(0.1 -0.1)">
       <defs>
        <path id="DejaVuSans-34" d="M 2419 4116 
L 825 1625 
L 2419 1625 
L 2419 4116 
z
M 2253 4666 
L 3047 4666 
L 3047 1625 
L 3713 1625 
L 3713 1100 
L 3047 1100 
L 3047 0 
L 2419 0 
L 2419 1100 
L 313 1100 
L 313 1709 
L 2253 4666 
z
" transform="scale(0.015625)"/>
       </defs>
       <use xlink:href="#DejaVuSans-34"/>
       <use xlink:href="#DejaVuSans-30" x="63.623047"/>
       <use xlink:href="#DejaVuSans-30" x="127.246094"/>
      </g>
     </g>
    </g>
    <g id="xtick_6">
     <g id="line2d_6">
      <g>
       <use xlink:href="#m139190cff6" x="399.137883" y="307.584" style="stroke: #000000; stroke-width: 0.8"/>
      </g>
     </g>
     <g id="text_6">
      <!-- 500 -->
      <g transform="translate(389.594133 322.182437) scale(0.1 -0.1)">
       <defs>
        <path id="DejaVuSans-35" d="M 691 4666 
L 3169 4666 
L 3169 4134 
L 1269 4134 
L 1269 2991 
Q 1406 3038 1543 3061 
Q 1681 3084 1819 3084 
Q 2600 3084 3056 2656 
Q 3513 2228 3513 1497 
Q 3513 744 3044 326 
Q 2575 -91 1722 -91 
Q 1428 -91 1123 -41 
Q 819 9 494 109 
L 494 744 
Q 775 591 1075 516 
Q 1375 441 1709 441 
Q 2250 441 2565 725 
Q 2881 1009 2881 1497 
Q 2881 1984 2565 2268 
Q 2250 2553 1709 2553 
Q 1456 2553 1204 2497 
Q 953 2441 691 2322 
L 691 4666 
z
" transform="scale(0.015625)"/>
       </defs>
       <use xlink:href="#DejaVuSans-35"/>
       <use xlink:href="#DejaVuSans-30" x="63.623047"/>
       <use xlink:href="#DejaVuSans-30" x="127.246094"/>
      </g>
     </g>
    </g>
   </g>
   <g id="matplotlib.axis_2">
    <g id="ytick_1">
     <g id="line2d_7">
      <defs>
       <path id="m54f58356fb" d="M 0 0 
L -3.5 0 
" style="stroke: #000000; stroke-width: 0.8"/>
      </defs>
      <g>
       <use xlink:href="#m54f58356fb" x="57.6" y="295.513418" style="stroke: #000000; stroke-width: 0.8"/>
      </g>
     </g>
     <g id="text_7">
      <!-- 0.0 -->
      <g transform="translate(34.696875 299.312637) scale(0.1 -0.1)">
       <defs>
        <path id="DejaVuSans-2e" d="M 684 794 
L 1344 794 
L 1344 0 
L 684 0 
L 684 794 
z
" transform="scale(0.015625)"/>
       </defs>
       <use xlink:href="#DejaVuSans-30"/>
       <use xlink:href="#DejaVuSans-2e" x="63.623047"/>
       <use xlink:href="#DejaVuSans-30" x="95.410156"/>
      </g>
     </g>
    </g>
    <g id="ytick_2">
     <g id="line2d_8">
      <g>
       <use xlink:href="#m54f58356fb" x="57.6" y="241.889778" style="stroke: #000000; stroke-width: 0.8"/>
      </g>
     </g>
     <g id="text_8">
      <!-- 0.2 -->
      <g transform="translate(34.696875 245.688997) scale(0.1 -0.1)">
       <use xlink:href="#DejaVuSans-30"/>
       <use xlink:href="#DejaVuSans-2e" x="63.623047"/>
       <use xlink:href="#DejaVuSans-32" x="95.410156"/>
      </g>
     </g>
    </g>
    <g id="ytick_3">
     <g id="line2d_9">
      <g>
       <use xlink:href="#m54f58356fb" x="57.6" y="188.266138" style="stroke: #000000; stroke-width: 0.8"/>
      </g>
     </g>
     <g id="text_9">
      <!-- 0.4 -->
      <g transform="translate(34.696875 192.065357) scale(0.1 -0.1)">
       <use xlink:href="#DejaVuSans-30"/>
       <use xlink:href="#DejaVuSans-2e" x="63.623047"/>
       <use xlink:href="#DejaVuSans-34" x="95.410156"/>
      </g>
     </g>
    </g>
    <g id="ytick_4">
     <g id="line2d_10">
      <g>
       <use xlink:href="#m54f58356fb" x="57.6" y="134.642498" style="stroke: #000000; stroke-width: 0.8"/>
      </g>
     </g>
     <g id="text_10">
      <!-- 0.6 -->
      <g transform="translate(34.696875 138.441717) scale(0.1 -0.1)">
       <defs>
        <path id="DejaVuSans-36" d="M 2113 2584 
Q 1688 2584 1439 2293 
Q 1191 2003 1191 1497 
Q 1191 994 1439 701 
Q 1688 409 2113 409 
Q 2538 409 2786 701 
Q 3034 994 3034 1497 
Q 3034 2003 2786 2293 
Q 2538 2584 2113 2584 
z
M 3366 4563 
L 3366 3988 
Q 3128 4100 2886 4159 
Q 2644 4219 2406 4219 
Q 1781 4219 1451 3797 
Q 1122 3375 1075 2522 
Q 1259 2794 1537 2939 
Q 1816 3084 2150 3084 
Q 2853 3084 3261 2657 
Q 3669 2231 3669 1497 
Q 3669 778 3244 343 
Q 2819 -91 2113 -91 
Q 1303 -91 875 529 
Q 447 1150 447 2328 
Q 447 3434 972 4092 
Q 1497 4750 2381 4750 
Q 2619 4750 2861 4703 
Q 3103 4656 3366 4563 
z
" transform="scale(0.015625)"/>
       </defs>
       <use xlink:href="#DejaVuSans-30"/>
       <use xlink:href="#DejaVuSans-2e" x="63.623047"/>
       <use xlink:href="#DejaVuSans-36" x="95.410156"/>
      </g>
     </g>
    </g>
    <g id="ytick_5">
     <g id="line2d_11">
      <g>
       <use xlink:href="#m54f58356fb" x="57.6" y="81.018858" style="stroke: #000000; stroke-width: 0.8"/>
      </g>
     </g>
     <g id="text_11">
      <!-- 0.8 -->
      <g transform="translate(34.696875 84.818077) scale(0.1 -0.1)">
       <defs>
        <path id="DejaVuSans-38" d="M 2034 2216 
Q 1584 2216 1326 1975 
Q 1069 1734 1069 1313 
Q 1069 891 1326 650 
Q 1584 409 2034 409 
Q 2484 409 2743 651 
Q 3003 894 3003 1313 
Q 3003 1734 2745 1975 
Q 2488 2216 2034 2216 
z
M 1403 2484 
Q 997 2584 770 2862 
Q 544 3141 544 3541 
Q 544 4100 942 4425 
Q 1341 4750 2034 4750 
Q 2731 4750 3128 4425 
Q 3525 4100 3525 3541 
Q 3525 3141 3298 2862 
Q 3072 2584 2669 2484 
Q 3125 2378 3379 2068 
Q 3634 1759 3634 1313 
Q 3634 634 3220 271 
Q 2806 -91 2034 -91 
Q 1263 -91 848 271 
Q 434 634 434 1313 
Q 434 1759 690 2068 
Q 947 2378 1403 2484 
z
M 1172 3481 
Q 1172 3119 1398 2916 
Q 1625 2713 2034 2713 
Q 2441 2713 2670 2916 
Q 2900 3119 2900 3481 
Q 2900 3844 2670 4047 
Q 2441 4250 2034 4250 
Q 1625 4250 1398 4047 
Q 1172 3844 1172 3481 
z
" transform="scale(0.015625)"/>
       </defs>
       <use xlink:href="#DejaVuSans-30"/>
       <use xlink:href="#DejaVuSans-2e" x="63.623047"/>
       <use xlink:href="#DejaVuSans-38" x="95.410156"/>
      </g>
     </g>
    </g>
   </g>
   <g id="line2d_12">
    <path d="M 73.832727 295.482177 
L 75.133948 295.481656 
L 75.784558 285.433565 
L 77.085779 222.182756 
L 77.736389 239.377229 
L 78.386999 199.217674 
L 79.03761 186.779947 
L 79.68822 161.798903 
L 80.33883 152.993517 
L 80.989441 140.069257 
L 81.640051 149.72093 
L 82.290661 163.812268 
L 82.941272 138.566556 
L 83.591882 141.112224 
L 84.242492 128.798084 
L 84.893103 126.164199 
L 85.543713 124.530473 
L 86.194323 138.227806 
L 86.844934 124.322926 
L 87.495544 122.364877 
L 88.146154 117.644787 
L 88.796764 116.974483 
L 89.447375 117.452835 
L 90.097985 120.179557 
L 90.748595 115.488287 
L 91.399206 115.967032 
L 92.049816 110.130342 
L 92.700426 119.548026 
L 93.351037 114.183399 
L 94.001647 111.879879 
L 94.652257 115.860762 
L 95.302868 116.247591 
L 95.953478 106.923179 
L 96.604088 108.441406 
L 97.254698 103.047611 
L 98.555919 115.094886 
L 99.206529 112.836886 
L 99.85714 127.30646 
L 101.15836 109.467267 
L 101.808971 112.729868 
L 102.459581 99.250897 
L 103.110191 104.767705 
L 103.760802 112.400834 
L 104.411412 114.726041 
L 105.712633 107.165495 
L 106.363243 100.433726 
L 107.013853 96.963978 
L 107.664463 95.699458 
L 108.315074 93.062687 
L 108.965684 95.970868 
L 109.616294 94.410542 
L 110.266905 103.85893 
L 110.917515 100.472728 
L 111.568125 98.092148 
L 112.218736 96.274159 
L 112.869346 96.101655 
L 113.519956 96.590731 
L 114.170567 91.892927 
L 114.821177 91.036773 
L 115.471787 99.984379 
L 116.122398 101.919679 
L 116.773008 95.923782 
L 118.074228 97.443649 
L 118.724839 94.150815 
L 119.375449 89.179552 
L 120.026059 89.224541 
L 120.67667 105.724403 
L 121.32728 108.272128 
L 121.97789 104.121079 
L 122.628501 90.870445 
L 123.279111 91.636143 
L 123.929721 88.407611 
L 124.580332 83.944347 
L 125.230942 86.860688 
L 125.881552 87.531385 
L 126.532163 110.051439 
L 127.182773 101.539536 
L 128.483993 90.53522 
L 129.134604 87.26923 
L 129.785214 85.225613 
L 130.435824 86.039906 
L 131.086435 91.395313 
L 131.737045 88.525264 
L 132.387655 82.402948 
L 133.038266 86.436067 
L 133.688876 81.953698 
L 134.339486 79.373566 
L 134.990097 83.528286 
L 135.640707 84.422099 
L 136.291317 84.802725 
L 136.941927 81.872241 
L 137.592538 80.838691 
L 138.243148 86.387263 
L 138.893758 101.036259 
L 139.544369 91.782573 
L 140.194979 86.222671 
L 140.845589 88.190923 
L 141.4962 86.521436 
L 142.14681 87.129459 
L 142.79742 82.483534 
L 143.448031 82.098612 
L 144.098641 85.627698 
L 144.749251 78.38606 
L 145.399862 77.413187 
L 146.050472 76.763158 
L 146.701082 79.763572 
L 147.351692 75.595072 
L 148.002303 76.016599 
L 148.652913 80.935136 
L 149.303523 80.636879 
L 149.954134 77.859504 
L 150.604744 79.459233 
L 151.255354 77.434159 
L 151.905965 74.81219 
L 152.556575 88.607643 
L 153.207185 80.533574 
L 153.857796 79.999578 
L 154.508406 84.124647 
L 155.159016 78.642667 
L 155.809627 78.574094 
L 156.460237 77.774481 
L 157.110847 74.651917 
L 157.761457 76.309057 
L 158.412068 78.826613 
L 159.713288 73.613185 
L 160.363899 75.231678 
L 161.014509 73.198252 
L 161.665119 74.712626 
L 162.31573 71.419994 
L 162.96634 74.041982 
L 163.61695 71.115504 
L 164.267561 72.289069 
L 164.918171 72.044036 
L 165.568781 80.045475 
L 166.219392 77.809741 
L 166.870002 74.989226 
L 167.520612 77.705306 
L 168.171222 73.645769 
L 168.821833 72.001056 
L 169.472443 72.68582 
L 170.123053 74.723608 
L 170.773664 72.506916 
L 171.424274 74.828116 
L 172.074884 72.360348 
L 173.376105 68.639205 
L 174.026715 78.329905 
L 174.677326 77.24787 
L 175.327936 72.004818 
L 175.978546 69.332484 
L 176.629156 70.669968 
L 177.279767 73.756201 
L 177.930377 74.214251 
L 178.580987 72.132537 
L 179.231598 70.796203 
L 179.882208 77.172891 
L 180.532818 70.961001 
L 181.183429 69.940717 
L 181.834039 77.968896 
L 182.484649 71.773285 
L 183.13526 74.717239 
L 183.78587 69.390806 
L 184.43648 69.176304 
L 185.087091 83.114295 
L 185.737701 77.601171 
L 186.388311 75.233165 
L 187.038921 85.344915 
L 187.689532 74.653558 
L 188.340142 72.610439 
L 188.990752 72.597178 
L 189.641363 70.330119 
L 190.291973 70.142697 
L 190.942583 68.138094 
L 191.593194 67.146562 
L 192.243804 70.632003 
L 192.894414 70.654753 
L 193.545025 69.600115 
L 194.195635 72.219297 
L 194.846245 68.393241 
L 195.496856 70.829794 
L 196.147466 66.679794 
L 196.798076 65.066502 
L 197.448686 64.931975 
L 198.099297 64.465358 
L 198.749907 71.022277 
L 199.400517 67.948757 
L 200.051128 66.106424 
L 200.701738 68.737401 
L 201.352348 68.522047 
L 202.002959 75.759016 
L 202.653569 72.058538 
L 203.304179 70.225581 
L 203.95479 66.620555 
L 204.6054 66.701672 
L 205.25601 65.879486 
L 205.906621 67.247305 
L 206.557231 65.266923 
L 207.207841 64.075295 
L 207.858451 68.134282 
L 208.509062 66.987316 
L 209.159672 74.816911 
L 209.810282 67.404798 
L 210.460893 63.867827 
L 211.111503 63.492022 
L 211.762113 68.480586 
L 212.412724 69.534872 
L 213.063334 64.614892 
L 213.713944 66.817654 
L 214.364555 63.599981 
L 215.015165 64.92261 
L 215.665775 68.010726 
L 216.316385 66.17781 
L 216.966996 65.362084 
L 217.617606 62.650435 
L 218.268216 65.27814 
L 218.918827 64.171126 
L 219.569437 62.11983 
L 220.870658 63.390593 
L 221.521268 62.60616 
L 222.171878 65.377748 
L 222.822489 64.383693 
L 223.473099 64.494872 
L 224.77432 62.716776 
L 225.42493 64.885329 
L 226.07554 64.873838 
L 226.72615 65.154832 
L 227.376761 66.159597 
L 228.027371 63.1881 
L 228.677981 62.940634 
L 229.328592 75.639337 
L 229.979202 73.686164 
L 230.629812 69.367989 
L 231.280423 108.958259 
L 231.931033 79.311747 
L 232.581643 76.599395 
L 233.232254 69.518741 
L 233.882864 66.99778 
L 234.533474 64.005442 
L 235.184085 63.024589 
L 235.834695 62.862088 
L 236.485305 61.701525 
L 237.135915 62.404135 
L 237.786526 61.916632 
L 238.437136 61.128035 
L 239.087746 61.632742 
L 239.738357 61.687171 
L 240.388967 59.834398 
L 241.039577 60.374285 
L 241.690188 59.066646 
L 242.340798 62.897366 
L 242.991408 62.654676 
L 243.642019 64.132054 
L 244.292629 66.400304 
L 244.943239 67.51579 
L 246.24446 62.385901 
L 246.89507 60.289031 
L 247.54568 62.151305 
L 248.196291 60.364442 
L 248.846901 59.637238 
L 249.497511 66.205231 
L 250.148122 63.679699 
L 251.449342 61.920466 
L 252.099953 60.249582 
L 252.750563 59.738287 
L 253.401173 58.787873 
L 254.051784 58.697202 
L 255.353004 60.780444 
L 256.003615 60.451753 
L 256.654225 60.724343 
L 257.304835 58.926087 
L 257.955445 61.983921 
L 258.606056 60.0049 
L 259.256666 62.905607 
L 259.907276 66.989587 
L 260.557887 62.896132 
L 261.208497 59.970392 
L 261.859107 59.896154 
L 262.509718 59.590963 
L 263.160328 58.613317 
L 263.810938 60.691576 
L 264.461549 60.362322 
L 265.112159 59.380684 
L 265.762769 60.913235 
L 266.413379 61.115533 
L 267.06399 62.642771 
L 267.7146 61.847938 
L 268.36521 61.430393 
L 269.015821 59.887217 
L 269.666431 59.01787 
L 270.317041 62.045164 
L 270.967652 64.22456 
L 271.618262 61.717527 
L 272.268872 58.720419 
L 272.919483 66.406843 
L 273.570093 64.372681 
L 274.220703 64.807202 
L 274.871314 59.750926 
L 275.521924 61.698661 
L 276.172534 58.88177 
L 276.823144 60.761194 
L 278.124365 62.191257 
L 279.425586 59.772239 
L 280.076196 61.805868 
L 280.726806 70.324553 
L 281.377417 64.410133 
L 282.028027 61.62784 
L 283.329248 57.32591 
L 284.630468 57.761717 
L 285.281079 59.165883 
L 285.931689 62.533535 
L 286.582299 60.963733 
L 287.232909 61.508245 
L 287.88352 60.251042 
L 288.53413 63.42234 
L 289.18474 63.386238 
L 289.835351 59.728993 
L 291.136571 57.717109 
L 291.787182 58.941847 
L 293.088402 56.977175 
L 293.739013 56.73005 
L 294.389623 72.027924 
L 295.040233 69.321578 
L 295.690844 62.999644 
L 296.341454 61.121428 
L 296.992064 60.228934 
L 297.642674 62.920399 
L 298.293285 58.574234 
L 298.943895 61.494585 
L 299.594505 61.867778 
L 300.245116 63.166517 
L 300.895726 60.339691 
L 301.546336 60.585234 
L 302.196947 58.687734 
L 302.847557 59.640181 
L 303.498167 57.849692 
L 304.148778 58.184934 
L 304.799388 57.40252 
L 305.449998 58.067916 
L 306.100608 57.27371 
L 306.751219 57.866035 
L 307.401829 60.017647 
L 308.70305 55.982788 
L 309.35366 57.389318 
L 310.00427 57.08414 
L 310.654881 56.244434 
L 311.305491 60.931183 
L 311.956101 58.738849 
L 312.606712 57.678635 
L 313.257322 62.188383 
L 313.907932 63.067904 
L 314.558543 59.753317 
L 315.209153 58.210264 
L 315.859763 59.003068 
L 316.510373 59.022125 
L 317.160984 60.700911 
L 318.462204 57.09235 
L 319.112815 57.287416 
L 319.763425 57.111421 
L 320.414035 60.977834 
L 321.064646 56.976271 
L 321.715256 56.059679 
L 322.365866 55.811901 
L 323.016477 57.790632 
L 323.667087 58.705724 
L 324.317697 56.489443 
L 325.618918 55.76384 
L 326.269528 57.218613 
L 326.920138 57.618338 
L 327.570749 56.882274 
L 328.221359 57.743363 
L 328.871969 57.10862 
L 329.52258 57.603015 
L 330.17319 55.788186 
L 330.8238 56.024726 
L 331.474411 56.78762 
L 332.125021 62.630978 
L 332.775631 57.763959 
L 333.426242 58.717067 
L 334.076852 57.704426 
L 334.727462 63.312848 
L 335.378073 60.946882 
L 336.028683 57.563435 
L 336.679293 57.363009 
L 337.329903 58.241134 
L 337.980514 58.869582 
L 338.631124 60.215009 
L 339.281734 71.210957 
L 339.932345 66.187471 
L 340.582955 68.103269 
L 341.233565 60.499455 
L 341.884176 60.114465 
L 342.534786 58.806229 
L 343.185396 59.55253 
L 343.836007 56.891391 
L 344.486617 58.896569 
L 345.137227 78.226272 
L 345.787837 68.594235 
L 346.438448 62.239153 
L 347.089058 58.527201 
L 347.739668 57.912938 
L 348.390279 59.862221 
L 349.691499 57.026975 
L 350.34211 57.65417 
L 350.99272 56.90078 
L 351.64333 57.868368 
L 352.293941 54.938551 
L 352.944551 57.12132 
L 353.595161 56.454452 
L 354.245772 55.531493 
L 354.896382 56.575751 
L 355.546992 56.260851 
L 356.197602 62.500534 
L 356.848213 57.561641 
L 357.498823 55.997877 
L 358.149433 56.889705 
L 358.800044 59.64609 
L 359.450654 61.164695 
L 360.101264 57.045715 
L 360.751875 55.99834 
L 361.402485 55.341563 
L 362.053095 55.170881 
L 362.703706 55.873202 
L 363.354316 57.254657 
L 364.004926 64.455808 
L 364.655537 61.009109 
L 365.306147 62.399841 
L 365.956757 58.154727 
L 366.607367 58.271146 
L 367.257978 56.808997 
L 367.908588 57.71503 
L 368.559198 55.499234 
L 369.209809 54.060986 
L 369.860419 54.051791 
L 370.511029 55.062043 
L 371.16164 53.568 
L 371.81225 54.478898 
L 372.46286 57.735547 
L 373.113471 58.395798 
L 373.764081 68.336804 
L 374.414691 62.770749 
L 375.065302 61.263013 
L 375.715912 58.138066 
L 376.366522 56.462223 
L 377.017132 55.931827 
L 377.667743 55.716632 
L 378.318353 56.381863 
L 378.968963 62.174054 
L 379.619574 57.865003 
L 380.270184 56.209366 
L 380.920794 55.315954 
L 381.571405 54.789792 
L 382.222015 53.761386 
L 383.523236 54.791113 
L 384.173846 53.897962 
L 384.824456 55.434144 
L 385.475066 55.398239 
L 386.125677 56.603804 
L 386.776287 60.17377 
L 387.426897 58.551774 
L 388.077508 55.143297 
L 388.728118 53.804798 
L 389.378728 54.548192 
L 390.029339 53.626201 
L 391.98117 56.599474 
L 392.63178 54.723879 
L 393.28239 56.016282 
L 393.933001 55.640086 
L 394.583611 57.489232 
L 395.234221 56.011584 
L 395.884831 53.898581 
L 396.535442 54.186656 
L 397.186052 55.746725 
L 397.836662 55.288309 
L 398.487273 59.982463 
L 398.487273 59.982463 
" clip-path="url(#pd62701262a)" style="fill: none; stroke: #1f77b4; stroke-width: 1.5; stroke-linecap: square"/>
   </g>
   <g id="line2d_13">
    <path d="M 73.832727 295.488 
L 75.133948 295.447887 
L 75.784558 284.358425 
L 76.435169 230.305792 
L 77.085779 164.369013 
L 77.736389 197.401027 
L 78.386999 156.211346 
L 79.03761 151.40932 
L 79.68822 132.03117 
L 80.33883 128.017683 
L 81.640051 197.816875 
L 82.290661 123.842942 
L 82.941272 118.559322 
L 83.591882 137.124419 
L 84.242492 123.759877 
L 84.893103 122.220794 
L 85.543713 126.587307 
L 86.194323 108.324345 
L 86.844934 125.283985 
L 87.495544 126.212131 
L 88.146154 112.870022 
L 88.796764 110.409218 
L 89.447375 123.243512 
L 90.097985 106.306397 
L 90.748595 116.477953 
L 91.399206 98.045272 
L 92.049816 124.317265 
L 92.700426 111.61921 
L 93.351037 114.784046 
L 94.001647 97.846615 
L 94.652257 104.283159 
L 95.302868 103.867563 
L 95.953478 96.904354 
L 96.604088 100.794087 
L 97.254698 93.802928 
L 97.905309 94.144008 
L 98.555919 106.076233 
L 99.206529 135.77945 
L 99.85714 110.251768 
L 100.50775 107.951011 
L 101.15836 106.672028 
L 101.808971 99.188299 
L 102.459581 102.331201 
L 103.110191 96.571112 
L 103.760802 124.186951 
L 104.411412 103.685626 
L 105.062022 94.006091 
L 105.712633 111.034834 
L 106.363243 96.709557 
L 107.013853 91.894938 
L 107.664463 91.146299 
L 108.315074 93.543555 
L 108.965684 88.983107 
L 109.616294 90.845088 
L 110.266905 88.729383 
L 110.917515 95.725421 
L 111.568125 94.936235 
L 112.218736 86.893404 
L 112.869346 87.371374 
L 113.519956 86.59884 
L 114.170567 97.544784 
L 114.821177 94.445344 
L 115.471787 88.597495 
L 116.122398 97.14813 
L 116.773008 91.234447 
L 117.423618 90.596849 
L 118.074228 104.506191 
L 118.724839 92.675394 
L 119.375449 94.125366 
L 120.026059 113.492829 
L 120.67667 113.093374 
L 121.32728 91.153051 
L 121.97789 101.24827 
L 122.628501 96.730588 
L 123.279111 85.366183 
L 123.929721 84.243819 
L 124.580332 84.214553 
L 125.230942 84.800832 
L 125.881552 113.409915 
L 126.532163 107.103657 
L 127.182773 93.507334 
L 127.833383 99.298453 
L 128.483993 85.966488 
L 129.134604 86.135816 
L 129.785214 92.668526 
L 130.435824 84.156922 
L 131.086435 92.188286 
L 131.737045 84.647198 
L 132.387655 86.872201 
L 133.038266 87.463765 
L 133.688876 92.27136 
L 134.339486 82.333503 
L 134.990097 80.302618 
L 135.640707 86.045783 
L 136.291317 90.617709 
L 136.941927 84.892927 
L 137.592538 82.95836 
L 138.243148 101.878161 
L 138.893758 103.535068 
L 139.544369 89.713071 
L 140.194979 93.457928 
L 140.845589 88.174144 
L 141.4962 84.626894 
L 142.14681 92.009893 
L 142.79742 85.539957 
L 143.448031 84.700023 
L 144.098641 85.666563 
L 144.749251 81.178937 
L 145.399862 85.178828 
L 146.050472 81.026789 
L 146.701082 79.985773 
L 147.351692 86.829875 
L 148.002303 97.273869 
L 148.652913 86.370295 
L 149.303523 87.738472 
L 149.954134 81.728152 
L 150.604744 81.847914 
L 151.255354 81.563379 
L 151.905965 105.460366 
L 152.556575 83.292409 
L 153.207185 82.307087 
L 153.857796 93.12181 
L 154.508406 90.589834 
L 155.159016 85.922672 
L 155.809627 83.494953 
L 156.460237 81.932102 
L 157.110847 78.562441 
L 157.761457 94.739 
L 158.412068 83.202391 
L 159.062678 80.642384 
L 159.713288 79.117668 
L 160.363899 88.881779 
L 161.665119 78.107532 
L 162.31573 82.507386 
L 162.96634 80.065347 
L 163.61695 83.22731 
L 164.267561 80.080685 
L 164.918171 80.839651 
L 165.568781 86.903847 
L 166.219392 80.937703 
L 166.870002 80.547652 
L 167.520612 84.087276 
L 168.171222 81.492642 
L 168.821833 86.576946 
L 169.472443 97.376963 
L 170.123053 80.648613 
L 170.773664 80.83844 
L 171.424274 80.065467 
L 172.074884 78.9425 
L 172.725495 79.671565 
L 173.376105 88.251089 
L 174.026715 83.173094 
L 174.677326 85.039238 
L 175.327936 81.253537 
L 175.978546 79.960068 
L 176.629156 94.989412 
L 177.279767 81.732015 
L 177.930377 79.247591 
L 178.580987 83.240698 
L 179.231598 85.053736 
L 179.882208 80.240488 
L 180.532818 83.516867 
L 181.183429 82.068581 
L 181.834039 82.388982 
L 182.484649 85.26024 
L 183.13526 83.488445 
L 183.78587 87.906165 
L 184.43648 90.426911 
L 185.087091 84.336501 
L 185.737701 87.777166 
L 186.388311 128.985166 
L 187.038921 83.712304 
L 188.340142 79.397853 
L 188.990752 78.635958 
L 189.641363 79.054084 
L 190.291973 80.023872 
L 190.942583 76.773279 
L 191.593194 77.175874 
L 192.243804 80.320206 
L 192.894414 80.702525 
L 193.545025 93.558349 
L 194.195635 78.76141 
L 194.846245 77.417936 
L 196.147466 81.19513 
L 196.798076 76.612505 
L 197.448686 77.614008 
L 198.099297 86.060178 
L 198.749907 87.739846 
L 199.400517 81.054708 
L 200.051128 76.664144 
L 200.701738 77.055644 
L 201.352348 83.068018 
L 202.002959 81.579519 
L 202.653569 78.561291 
L 203.304179 79.039869 
L 203.95479 86.184491 
L 204.6054 82.463549 
L 205.25601 81.50633 
L 205.906621 85.349678 
L 206.557231 79.931621 
L 207.207841 79.039573 
L 207.858451 78.692484 
L 208.509062 86.189992 
L 209.159672 83.225312 
L 209.810282 79.289385 
L 210.460893 78.980547 
L 211.111503 76.160176 
L 211.762113 80.657574 
L 212.412724 78.607372 
L 213.063334 110.115606 
L 213.713944 76.782907 
L 214.364555 75.990077 
L 215.015165 79.528438 
L 215.665775 79.129746 
L 216.316385 77.181687 
L 216.966996 77.45617 
L 217.617606 78.416774 
L 218.268216 80.383523 
L 218.918827 77.818042 
L 220.220047 76.383927 
L 220.870658 83.341842 
L 221.521268 86.345468 
L 222.171878 79.914949 
L 222.822489 78.677166 
L 223.473099 85.631301 
L 224.123709 77.888874 
L 224.77432 76.750206 
L 225.42493 79.297244 
L 226.07554 77.619985 
L 226.72615 87.611518 
L 227.376761 79.747871 
L 228.027371 77.036587 
L 228.677981 95.291083 
L 229.328592 78.248329 
L 229.979202 81.760785 
L 230.629812 102.909001 
L 231.280423 96.011055 
L 231.931033 91.795755 
L 232.581643 81.934431 
L 234.533474 77.631155 
L 235.184085 77.534913 
L 235.834695 76.009666 
L 236.485305 80.639168 
L 237.135915 82.924991 
L 237.786526 77.264665 
L 238.437136 76.041844 
L 239.087746 78.906798 
L 239.738357 76.710852 
L 240.388967 78.944745 
L 241.039577 76.977972 
L 241.690188 78.888472 
L 242.340798 78.152642 
L 242.991408 80.186 
L 243.642019 78.877537 
L 244.292629 79.117784 
L 244.943239 81.466865 
L 245.59385 92.938766 
L 246.24446 78.226123 
L 246.89507 87.890096 
L 247.54568 81.230241 
L 248.196291 78.868543 
L 248.846901 89.65126 
L 249.497511 78.284454 
L 250.148122 84.216271 
L 250.798732 82.005659 
L 251.449342 77.106784 
L 252.099953 77.237054 
L 253.401173 80.107325 
L 254.051784 77.20623 
L 254.702394 80.135264 
L 255.353004 79.282002 
L 256.003615 79.367924 
L 256.654225 78.529337 
L 257.304835 77.318721 
L 257.955445 79.264886 
L 258.606056 78.103265 
L 259.256666 77.666018 
L 259.907276 81.958487 
L 260.557887 82.743766 
L 261.208497 76.289235 
L 261.859107 78.140161 
L 262.509718 80.375001 
L 263.160328 84.555222 
L 263.810938 79.199488 
L 264.461549 77.499875 
L 265.112159 80.672209 
L 265.762769 81.451898 
L 266.413379 78.097136 
L 267.06399 77.54805 
L 267.7146 77.824459 
L 268.36521 82.587667 
L 269.015821 79.17546 
L 269.666431 76.812772 
L 270.317041 76.463753 
L 270.967652 91.072902 
L 271.618262 77.208839 
L 272.268872 89.342006 
L 272.919483 81.556938 
L 273.570093 80.136815 
L 274.220703 78.008605 
L 274.871314 87.117075 
L 275.521924 78.966787 
L 276.172534 78.242592 
L 276.823144 80.592044 
L 277.473755 80.231954 
L 278.124365 80.353258 
L 278.774975 83.282492 
L 279.425586 83.969531 
L 280.076196 78.442112 
L 280.726806 84.393725 
L 281.377417 82.376916 
L 282.028027 81.248507 
L 282.678637 76.236773 
L 283.329248 75.174598 
L 283.979858 76.706054 
L 284.630468 76.029123 
L 285.281079 80.417954 
L 285.931689 77.98894 
L 287.232909 78.623753 
L 287.88352 88.061861 
L 288.53413 81.547102 
L 289.18474 81.957037 
L 289.835351 84.504926 
L 290.485961 75.898382 
L 291.787182 77.942647 
L 292.437792 78.990179 
L 293.088402 77.551558 
L 293.739013 118.823526 
L 294.389623 80.463304 
L 295.040233 79.482481 
L 295.690844 86.130215 
L 296.341454 78.562641 
L 296.992064 78.046248 
L 297.642674 76.717269 
L 298.293285 77.984729 
L 298.943895 82.401299 
L 299.594505 84.309078 
L 300.245116 82.242771 
L 300.895726 78.016907 
L 301.546336 80.381741 
L 302.196947 81.535324 
L 302.847557 80.38538 
L 303.498167 81.396688 
L 304.148778 77.548697 
L 304.799388 76.015004 
L 305.449998 76.790326 
L 306.100608 80.828372 
L 306.751219 77.483246 
L 307.401829 80.519426 
L 308.052439 79.25686 
L 308.70305 76.186401 
L 309.35366 77.674232 
L 310.00427 80.185029 
L 310.654881 75.46388 
L 311.305491 77.150324 
L 311.956101 78.292057 
L 312.606712 84.724838 
L 313.257322 81.583131 
L 313.907932 82.263954 
L 314.558543 77.865354 
L 315.209153 77.356448 
L 315.859763 79.066581 
L 316.510373 85.357557 
L 317.160984 78.836329 
L 317.811594 77.666254 
L 318.462204 81.298244 
L 319.112815 76.782504 
L 319.763425 86.608613 
L 320.414035 80.719305 
L 321.064646 79.606694 
L 321.715256 75.940404 
L 322.365866 76.861586 
L 323.016477 82.17068 
L 323.667087 75.626436 
L 324.317697 83.645759 
L 324.968308 79.228326 
L 325.618918 82.353188 
L 326.269528 76.036235 
L 326.920138 83.073024 
L 327.570749 77.475556 
L 328.221359 81.287429 
L 328.871969 77.885351 
L 329.52258 80.624158 
L 330.17319 76.231088 
L 330.8238 79.857581 
L 331.474411 89.718733 
L 332.125021 77.581115 
L 332.775631 80.173851 
L 333.426242 78.31175 
L 334.076852 84.630521 
L 334.727462 85.422724 
L 335.378073 77.363924 
L 336.028683 83.208484 
L 336.679293 77.264901 
L 337.329903 77.862214 
L 337.980514 85.551388 
L 338.631124 84.759752 
L 339.281734 82.144934 
L 339.932345 81.227304 
L 340.582955 86.396364 
L 341.233565 78.171132 
L 341.884176 77.921516 
L 342.534786 80.060521 
L 343.185396 76.827766 
L 343.836007 76.647663 
L 344.486617 127.172563 
L 345.137227 86.14465 
L 345.787837 82.207552 
L 346.438448 80.160035 
L 347.089058 76.60481 
L 348.390279 83.333552 
L 349.040889 77.925511 
L 349.691499 78.812042 
L 350.34211 77.846828 
L 350.99272 77.381635 
L 351.64333 76.061704 
L 352.293941 78.430334 
L 352.944551 75.409596 
L 353.595161 75.758967 
L 354.896382 80.258966 
L 355.546992 82.659657 
L 356.197602 83.038885 
L 356.848213 78.817995 
L 357.498823 76.373424 
L 358.149433 78.391879 
L 358.800044 80.879919 
L 359.450654 77.396509 
L 360.101264 76.475946 
L 360.751875 77.057462 
L 361.402485 76.362153 
L 362.053095 79.276596 
L 362.703706 77.306292 
L 363.354316 83.852833 
L 364.004926 80.018694 
L 364.655537 86.226465 
L 365.306147 83.807283 
L 365.956757 77.853932 
L 366.607367 75.358417 
L 367.257978 82.154016 
L 367.908588 77.611802 
L 368.559198 78.112466 
L 369.209809 78.289808 
L 369.860419 76.950237 
L 370.511029 76.930233 
L 371.16164 75.247644 
L 371.81225 76.890388 
L 372.46286 76.343911 
L 373.113471 86.741152 
L 373.764081 80.372512 
L 374.414691 85.903599 
L 375.065302 84.173282 
L 375.715912 83.705684 
L 376.366522 76.081365 
L 377.017132 77.732683 
L 377.667743 80.084109 
L 378.318353 81.295056 
L 378.968963 79.076245 
L 379.619574 77.708828 
L 380.270184 79.484047 
L 380.920794 78.592294 
L 381.571405 76.965187 
L 382.222015 77.38599 
L 382.872625 77.557287 
L 383.523236 75.384925 
L 384.173846 77.805993 
L 384.824456 76.074945 
L 385.475066 76.643788 
L 386.125677 83.218308 
L 386.776287 78.355291 
L 387.426897 80.010704 
L 388.077508 76.674 
L 388.728118 76.523019 
L 389.378728 76.643121 
L 390.029339 78.077104 
L 390.679949 76.167296 
L 391.330559 83.068526 
L 391.98117 75.739486 
L 392.63178 75.273945 
L 393.28239 77.393405 
L 393.933001 88.25039 
L 394.583611 77.332629 
L 395.234221 78.096593 
L 395.884831 80.708502 
L 396.535442 79.764415 
L 397.186052 77.788429 
L 397.836662 76.387419 
L 398.487273 79.266329 
L 398.487273 79.266329 
" clip-path="url(#pd62701262a)" style="fill: none; stroke: #ff7f0e; stroke-width: 1.5; stroke-linecap: square"/>
   </g>
   <g id="patch_3">
    <path d="M 57.6 307.584 
L 57.6 41.472 
" style="fill: none; stroke: #000000; stroke-width: 0.8; stroke-linejoin: miter; stroke-linecap: square"/>
   </g>
   <g id="patch_4">
    <path d="M 414.72 307.584 
L 414.72 41.472 
" style="fill: none; stroke: #000000; stroke-width: 0.8; stroke-linejoin: miter; stroke-linecap: square"/>
   </g>
   <g id="patch_5">
    <path d="M 57.6 307.584 
L 414.72 307.584 
" style="fill: none; stroke: #000000; stroke-width: 0.8; stroke-linejoin: miter; stroke-linecap: square"/>
   </g>
   <g id="patch_6">
    <path d="M 57.6 41.472 
L 414.72 41.472 
" style="fill: none; stroke: #000000; stroke-width: 0.8; stroke-linejoin: miter; stroke-linecap: square"/>
   </g>
   <g id="text_12">
    <!-- Dice score during training -->
    <g transform="translate(158.442187 35.472) scale(0.12 -0.12)">
     <defs>
      <path id="DejaVuSans-44" d="M 1259 4147 
L 1259 519 
L 2022 519 
Q 2988 519 3436 956 
Q 3884 1394 3884 2338 
Q 3884 3275 3436 3711 
Q 2988 4147 2022 4147 
L 1259 4147 
z
M 628 4666 
L 1925 4666 
Q 3281 4666 3915 4102 
Q 4550 3538 4550 2338 
Q 4550 1131 3912 565 
Q 3275 0 1925 0 
L 628 0 
L 628 4666 
z
" transform="scale(0.015625)"/>
      <path id="DejaVuSans-69" d="M 603 3500 
L 1178 3500 
L 1178 0 
L 603 0 
L 603 3500 
z
M 603 4863 
L 1178 4863 
L 1178 4134 
L 603 4134 
L 603 4863 
z
" transform="scale(0.015625)"/>
      <path id="DejaVuSans-63" d="M 3122 3366 
L 3122 2828 
Q 2878 2963 2633 3030 
Q 2388 3097 2138 3097 
Q 1578 3097 1268 2742 
Q 959 2388 959 1747 
Q 959 1106 1268 751 
Q 1578 397 2138 397 
Q 2388 397 2633 464 
Q 2878 531 3122 666 
L 3122 134 
Q 2881 22 2623 -34 
Q 2366 -91 2075 -91 
Q 1284 -91 818 406 
Q 353 903 353 1747 
Q 353 2603 823 3093 
Q 1294 3584 2113 3584 
Q 2378 3584 2631 3529 
Q 2884 3475 3122 3366 
z
" transform="scale(0.015625)"/>
      <path id="DejaVuSans-65" d="M 3597 1894 
L 3597 1613 
L 953 1613 
Q 991 1019 1311 708 
Q 1631 397 2203 397 
Q 2534 397 2845 478 
Q 3156 559 3463 722 
L 3463 178 
Q 3153 47 2828 -22 
Q 2503 -91 2169 -91 
Q 1331 -91 842 396 
Q 353 884 353 1716 
Q 353 2575 817 3079 
Q 1281 3584 2069 3584 
Q 2775 3584 3186 3129 
Q 3597 2675 3597 1894 
z
M 3022 2063 
Q 3016 2534 2758 2815 
Q 2500 3097 2075 3097 
Q 1594 3097 1305 2825 
Q 1016 2553 972 2059 
L 3022 2063 
z
" transform="scale(0.015625)"/>
      <path id="DejaVuSans-20" transform="scale(0.015625)"/>
      <path id="DejaVuSans-73" d="M 2834 3397 
L 2834 2853 
Q 2591 2978 2328 3040 
Q 2066 3103 1784 3103 
Q 1356 3103 1142 2972 
Q 928 2841 928 2578 
Q 928 2378 1081 2264 
Q 1234 2150 1697 2047 
L 1894 2003 
Q 2506 1872 2764 1633 
Q 3022 1394 3022 966 
Q 3022 478 2636 193 
Q 2250 -91 1575 -91 
Q 1294 -91 989 -36 
Q 684 19 347 128 
L 347 722 
Q 666 556 975 473 
Q 1284 391 1588 391 
Q 1994 391 2212 530 
Q 2431 669 2431 922 
Q 2431 1156 2273 1281 
Q 2116 1406 1581 1522 
L 1381 1569 
Q 847 1681 609 1914 
Q 372 2147 372 2553 
Q 372 3047 722 3315 
Q 1072 3584 1716 3584 
Q 2034 3584 2315 3537 
Q 2597 3491 2834 3397 
z
" transform="scale(0.015625)"/>
      <path id="DejaVuSans-6f" d="M 1959 3097 
Q 1497 3097 1228 2736 
Q 959 2375 959 1747 
Q 959 1119 1226 758 
Q 1494 397 1959 397 
Q 2419 397 2687 759 
Q 2956 1122 2956 1747 
Q 2956 2369 2687 2733 
Q 2419 3097 1959 3097 
z
M 1959 3584 
Q 2709 3584 3137 3096 
Q 3566 2609 3566 1747 
Q 3566 888 3137 398 
Q 2709 -91 1959 -91 
Q 1206 -91 779 398 
Q 353 888 353 1747 
Q 353 2609 779 3096 
Q 1206 3584 1959 3584 
z
" transform="scale(0.015625)"/>
      <path id="DejaVuSans-72" d="M 2631 2963 
Q 2534 3019 2420 3045 
Q 2306 3072 2169 3072 
Q 1681 3072 1420 2755 
Q 1159 2438 1159 1844 
L 1159 0 
L 581 0 
L 581 3500 
L 1159 3500 
L 1159 2956 
Q 1341 3275 1631 3429 
Q 1922 3584 2338 3584 
Q 2397 3584 2469 3576 
Q 2541 3569 2628 3553 
L 2631 2963 
z
" transform="scale(0.015625)"/>
      <path id="DejaVuSans-64" d="M 2906 2969 
L 2906 4863 
L 3481 4863 
L 3481 0 
L 2906 0 
L 2906 525 
Q 2725 213 2448 61 
Q 2172 -91 1784 -91 
Q 1150 -91 751 415 
Q 353 922 353 1747 
Q 353 2572 751 3078 
Q 1150 3584 1784 3584 
Q 2172 3584 2448 3432 
Q 2725 3281 2906 2969 
z
M 947 1747 
Q 947 1113 1208 752 
Q 1469 391 1925 391 
Q 2381 391 2643 752 
Q 2906 1113 2906 1747 
Q 2906 2381 2643 2742 
Q 2381 3103 1925 3103 
Q 1469 3103 1208 2742 
Q 947 2381 947 1747 
z
" transform="scale(0.015625)"/>
      <path id="DejaVuSans-75" d="M 544 1381 
L 544 3500 
L 1119 3500 
L 1119 1403 
Q 1119 906 1312 657 
Q 1506 409 1894 409 
Q 2359 409 2629 706 
Q 2900 1003 2900 1516 
L 2900 3500 
L 3475 3500 
L 3475 0 
L 2900 0 
L 2900 538 
Q 2691 219 2414 64 
Q 2138 -91 1772 -91 
Q 1169 -91 856 284 
Q 544 659 544 1381 
z
M 1991 3584 
L 1991 3584 
z
" transform="scale(0.015625)"/>
      <path id="DejaVuSans-6e" d="M 3513 2113 
L 3513 0 
L 2938 0 
L 2938 2094 
Q 2938 2591 2744 2837 
Q 2550 3084 2163 3084 
Q 1697 3084 1428 2787 
Q 1159 2491 1159 1978 
L 1159 0 
L 581 0 
L 581 3500 
L 1159 3500 
L 1159 2956 
Q 1366 3272 1645 3428 
Q 1925 3584 2291 3584 
Q 2894 3584 3203 3211 
Q 3513 2838 3513 2113 
z
" transform="scale(0.015625)"/>
      <path id="DejaVuSans-67" d="M 2906 1791 
Q 2906 2416 2648 2759 
Q 2391 3103 1925 3103 
Q 1463 3103 1205 2759 
Q 947 2416 947 1791 
Q 947 1169 1205 825 
Q 1463 481 1925 481 
Q 2391 481 2648 825 
Q 2906 1169 2906 1791 
z
M 3481 434 
Q 3481 -459 3084 -895 
Q 2688 -1331 1869 -1331 
Q 1566 -1331 1297 -1286 
Q 1028 -1241 775 -1147 
L 775 -588 
Q 1028 -725 1275 -790 
Q 1522 -856 1778 -856 
Q 2344 -856 2625 -561 
Q 2906 -266 2906 331 
L 2906 616 
Q 2728 306 2450 153 
Q 2172 0 1784 0 
Q 1141 0 747 490 
Q 353 981 353 1791 
Q 353 2603 747 3093 
Q 1141 3584 1784 3584 
Q 2172 3584 2450 3431 
Q 2728 3278 2906 2969 
L 2906 3500 
L 3481 3500 
L 3481 434 
z
" transform="scale(0.015625)"/>
      <path id="DejaVuSans-74" d="M 1172 4494 
L 1172 3500 
L 2356 3500 
L 2356 3053 
L 1172 3053 
L 1172 1153 
Q 1172 725 1289 603 
Q 1406 481 1766 481 
L 2356 481 
L 2356 0 
L 1766 0 
Q 1100 0 847 248 
Q 594 497 594 1153 
L 594 3053 
L 172 3053 
L 172 3500 
L 594 3500 
L 594 4494 
L 1172 4494 
z
" transform="scale(0.015625)"/>
      <path id="DejaVuSans-61" d="M 2194 1759 
Q 1497 1759 1228 1600 
Q 959 1441 959 1056 
Q 959 750 1161 570 
Q 1363 391 1709 391 
Q 2188 391 2477 730 
Q 2766 1069 2766 1631 
L 2766 1759 
L 2194 1759 
z
M 3341 1997 
L 3341 0 
L 2766 0 
L 2766 531 
Q 2569 213 2275 61 
Q 1981 -91 1556 -91 
Q 1019 -91 701 211 
Q 384 513 384 1019 
Q 384 1609 779 1909 
Q 1175 2209 1959 2209 
L 2766 2209 
L 2766 2266 
Q 2766 2663 2505 2880 
Q 2244 3097 1772 3097 
Q 1472 3097 1187 3025 
Q 903 2953 641 2809 
L 641 3341 
Q 956 3463 1253 3523 
Q 1550 3584 1831 3584 
Q 2591 3584 2966 3190 
Q 3341 2797 3341 1997 
z
" transform="scale(0.015625)"/>
     </defs>
     <use xlink:href="#DejaVuSans-44"/>
     <use xlink:href="#DejaVuSans-69" x="77.001953"/>
     <use xlink:href="#DejaVuSans-63" x="104.785156"/>
     <use xlink:href="#DejaVuSans-65" x="159.765625"/>
     <use xlink:href="#DejaVuSans-20" x="221.289062"/>
     <use xlink:href="#DejaVuSans-73" x="253.076172"/>
     <use xlink:href="#DejaVuSans-63" x="305.175781"/>
     <use xlink:href="#DejaVuSans-6f" x="360.15625"/>
     <use xlink:href="#DejaVuSans-72" x="421.337891"/>
     <use xlink:href="#DejaVuSans-65" x="460.201172"/>
     <use xlink:href="#DejaVuSans-20" x="521.724609"/>
     <use xlink:href="#DejaVuSans-64" x="553.511719"/>
     <use xlink:href="#DejaVuSans-75" x="616.988281"/>
     <use xlink:href="#DejaVuSans-72" x="680.367188"/>
     <use xlink:href="#DejaVuSans-69" x="721.480469"/>
     <use xlink:href="#DejaVuSans-6e" x="749.263672"/>
     <use xlink:href="#DejaVuSans-67" x="812.642578"/>
     <use xlink:href="#DejaVuSans-20" x="876.119141"/>
     <use xlink:href="#DejaVuSans-74" x="907.90625"/>
     <use xlink:href="#DejaVuSans-72" x="947.115234"/>
     <use xlink:href="#DejaVuSans-61" x="988.228516"/>
     <use xlink:href="#DejaVuSans-69" x="1049.507812"/>
     <use xlink:href="#DejaVuSans-6e" x="1077.291016"/>
     <use xlink:href="#DejaVuSans-69" x="1140.669922"/>
     <use xlink:href="#DejaVuSans-6e" x="1168.453125"/>
     <use xlink:href="#DejaVuSans-67" x="1231.832031"/>
    </g>
   </g>
   <g id="legend_1">
    <g id="patch_7">
     <path d="M 296.380938 302.584 
L 407.72 302.584 
Q 409.72 302.584 409.72 300.584 
L 409.72 272.22775 
Q 409.72 270.22775 407.72 270.22775 
L 296.380938 270.22775 
Q 294.380938 270.22775 294.380938 272.22775 
L 294.380938 300.584 
Q 294.380938 302.584 296.380938 302.584 
z
" style="fill: #ffffff; opacity: 0.8; stroke: #cccccc; stroke-linejoin: miter"/>
    </g>
    <g id="line2d_14">
     <path d="M 298.380938 278.326187 
L 308.380938 278.326187 
L 318.380938 278.326187 
" style="fill: none; stroke: #1f77b4; stroke-width: 1.5; stroke-linecap: square"/>
    </g>
    <g id="text_13">
     <!-- Train Dice score -->
     <g transform="translate(326.380938 281.826187) scale(0.1 -0.1)">
      <defs>
       <path id="DejaVuSans-54" d="M -19 4666 
L 3928 4666 
L 3928 4134 
L 2272 4134 
L 2272 0 
L 1638 0 
L 1638 4134 
L -19 4134 
L -19 4666 
z
" transform="scale(0.015625)"/>
      </defs>
      <use xlink:href="#DejaVuSans-54"/>
      <use xlink:href="#DejaVuSans-72" x="46.333984"/>
      <use xlink:href="#DejaVuSans-61" x="87.447266"/>
      <use xlink:href="#DejaVuSans-69" x="148.726562"/>
      <use xlink:href="#DejaVuSans-6e" x="176.509766"/>
      <use xlink:href="#DejaVuSans-20" x="239.888672"/>
      <use xlink:href="#DejaVuSans-44" x="271.675781"/>
      <use xlink:href="#DejaVuSans-69" x="348.677734"/>
      <use xlink:href="#DejaVuSans-63" x="376.460938"/>
      <use xlink:href="#DejaVuSans-65" x="431.441406"/>
      <use xlink:href="#DejaVuSans-20" x="492.964844"/>
      <use xlink:href="#DejaVuSans-73" x="524.751953"/>
      <use xlink:href="#DejaVuSans-63" x="576.851562"/>
      <use xlink:href="#DejaVuSans-6f" x="631.832031"/>
      <use xlink:href="#DejaVuSans-72" x="693.013672"/>
      <use xlink:href="#DejaVuSans-65" x="731.876953"/>
     </g>
    </g>
    <g id="line2d_15">
     <path d="M 298.380938 293.004312 
L 308.380938 293.004312 
L 318.380938 293.004312 
" style="fill: none; stroke: #ff7f0e; stroke-width: 1.5; stroke-linecap: square"/>
    </g>
    <g id="text_14">
     <!-- Test Dice score -->
     <g transform="translate(326.380938 296.504312) scale(0.1 -0.1)">
      <use xlink:href="#DejaVuSans-54"/>
      <use xlink:href="#DejaVuSans-65" x="44.083984"/>
      <use xlink:href="#DejaVuSans-73" x="105.607422"/>
      <use xlink:href="#DejaVuSans-74" x="157.707031"/>
      <use xlink:href="#DejaVuSans-20" x="196.916016"/>
      <use xlink:href="#DejaVuSans-44" x="228.703125"/>
      <use xlink:href="#DejaVuSans-69" x="305.705078"/>
      <use xlink:href="#DejaVuSans-63" x="333.488281"/>
      <use xlink:href="#DejaVuSans-65" x="388.46875"/>
      <use xlink:href="#DejaVuSans-20" x="449.992188"/>
      <use xlink:href="#DejaVuSans-73" x="481.779297"/>
      <use xlink:href="#DejaVuSans-63" x="533.878906"/>
      <use xlink:href="#DejaVuSans-6f" x="588.859375"/>
      <use xlink:href="#DejaVuSans-72" x="650.041016"/>
      <use xlink:href="#DejaVuSans-65" x="688.904297"/>
     </g>
    </g>
   </g>
  </g>
 </g>
 <defs>
  <clipPath id="pd62701262a">
   <rect x="57.6" y="41.472" width="357.12" height="266.112"/>
  </clipPath>
 </defs>
</svg>
