<?xml version="1.0" encoding="utf-8" standalone="no"?>
<!DOCTYPE svg PUBLIC "-//W3C//DTD SVG 1.1//EN"
  "http://www.w3.org/Graphics/SVG/1.1/DTD/svg11.dtd">
<svg xmlns:xlink="http://www.w3.org/1999/xlink" width="460.8pt" height="345.6pt" viewBox="0 0 460.8 345.6" xmlns="http://www.w3.org/2000/svg" version="1.1">
 <metadata>
  <rdf:RDF xmlns:dc="http://purl.org/dc/elements/1.1/" xmlns:cc="http://creativecommons.org/ns#" xmlns:rdf="http://www.w3.org/1999/02/22-rdf-syntax-ns#">
   <cc:Work>
    <dc:type rdf:resource="http://purl.org/dc/dcmitype/StillImage"/>
    <dc:date>2023-03-26T21:21:05.677560</dc:date>
    <dc:format>image/svg+xml</dc:format>
    <dc:creator>
     <cc:Agent>
      <dc:title>Matplotlib v3.6.2, https://matplotlib.org/</dc:title>
     </cc:Agent>
    </dc:creator>
   </cc:Work>
  </rdf:RDF>
 </metadata>
 <defs>
  <style type="text/css">*{stroke-linejoin: round; stroke-linecap: butt}</style>
 </defs>
 <g id="figure_1">
  <g id="patch_1">
   <path d="M 0 345.6 
L 460.8 345.6 
L 460.8 0 
L 0 0 
z
" style="fill: #ffffff"/>
  </g>
  <g id="axes_1">
   <g id="patch_2">
    <path d="M 57.6 307.584 
L 414.72 307.584 
L 414.72 41.472 
L 57.6 41.472 
z
" style="fill: #ffffff"/>
   </g>
   <g id="matplotlib.axis_1">
    <g id="xtick_1">
     <g id="line2d_1">
      <defs>
       <path id="maf3abab2fa" d="M 0 0 
L 0 3.5 
" style="stroke: #000000; stroke-width: 0.8"/>
      </defs>
      <g>
       <use xlink:href="#maf3abab2fa" x="73.832727" y="307.584" style="stroke: #000000; stroke-width: 0.8"/>
      </g>
     </g>
     <g id="text_1">
      <!-- 0 -->
      <g transform="translate(70.651477 322.182437) scale(0.1 -0.1)">
       <defs>
        <path id="DejaVuSans-30" d="M 2034 4250 
Q 1547 4250 1301 3770 
Q 1056 3291 1056 2328 
Q 1056 1369 1301 889 
Q 1547 409 2034 409 
Q 2525 409 2770 889 
Q 3016 1369 3016 2328 
Q 3016 3291 2770 3770 
Q 2525 4250 2034 4250 
z
M 2034 4750 
Q 2819 4750 3233 4129 
Q 3647 3509 3647 2328 
Q 3647 1150 3233 529 
Q 2819 -91 2034 -91 
Q 1250 -91 836 529 
Q 422 1150 422 2328 
Q 422 3509 836 4129 
Q 1250 4750 2034 4750 
z
" transform="scale(0.015625)"/>
       </defs>
       <use xlink:href="#DejaVuSans-30"/>
      </g>
     </g>
    </g>
    <g id="xtick_2">
     <g id="line2d_2">
      <g>
       <use xlink:href="#maf3abab2fa" x="138.893758" y="307.584" style="stroke: #000000; stroke-width: 0.8"/>
      </g>
     </g>
     <g id="text_2">
      <!-- 100 -->
      <g transform="translate(129.350008 322.182437) scale(0.1 -0.1)">
       <defs>
        <path id="DejaVuSans-31" d="M 794 531 
L 1825 531 
L 1825 4091 
L 703 3866 
L 703 4441 
L 1819 4666 
L 2450 4666 
L 2450 531 
L 3481 531 
L 3481 0 
L 794 0 
L 794 531 
z
" transform="scale(0.015625)"/>
       </defs>
       <use xlink:href="#DejaVuSans-31"/>
       <use xlink:href="#DejaVuSans-30" x="63.623047"/>
       <use xlink:href="#DejaVuSans-30" x="127.246094"/>
      </g>
     </g>
    </g>
    <g id="xtick_3">
     <g id="line2d_3">
      <g>
       <use xlink:href="#maf3abab2fa" x="203.95479" y="307.584" style="stroke: #000000; stroke-width: 0.8"/>
      </g>
     </g>
     <g id="text_3">
      <!-- 200 -->
      <g transform="translate(194.41104 322.182437) scale(0.1 -0.1)">
       <defs>
        <path id="DejaVuSans-32" d="M 1228 531 
L 3431 531 
L 3431 0 
L 469 0 
L 469 531 
Q 828 903 1448 1529 
Q 2069 2156 2228 2338 
Q 2531 2678 2651 2914 
Q 2772 3150 2772 3378 
Q 2772 3750 2511 3984 
Q 2250 4219 1831 4219 
Q 1534 4219 1204 4116 
Q 875 4013 500 3803 
L 500 4441 
Q 881 4594 1212 4672 
Q 1544 4750 1819 4750 
Q 2544 4750 2975 4387 
Q 3406 4025 3406 3419 
Q 3406 3131 3298 2873 
Q 3191 2616 2906 2266 
Q 2828 2175 2409 1742 
Q 1991 1309 1228 531 
z
" transform="scale(0.015625)"/>
       </defs>
       <use xlink:href="#DejaVuSans-32"/>
       <use xlink:href="#DejaVuSans-30" x="63.623047"/>
       <use xlink:href="#DejaVuSans-30" x="127.246094"/>
      </g>
     </g>
    </g>
    <g id="xtick_4">
     <g id="line2d_4">
      <g>
       <use xlink:href="#maf3abab2fa" x="269.015821" y="307.584" style="stroke: #000000; stroke-width: 0.8"/>
      </g>
     </g>
     <g id="text_4">
      <!-- 300 -->
      <g transform="translate(259.472071 322.182437) scale(0.1 -0.1)">
       <defs>
        <path id="DejaVuSans-33" d="M 2597 2516 
Q 3050 2419 3304 2112 
Q 3559 1806 3559 1356 
Q 3559 666 3084 287 
Q 2609 -91 1734 -91 
Q 1441 -91 1130 -33 
Q 819 25 488 141 
L 488 750 
Q 750 597 1062 519 
Q 1375 441 1716 441 
Q 2309 441 2620 675 
Q 2931 909 2931 1356 
Q 2931 1769 2642 2001 
Q 2353 2234 1838 2234 
L 1294 2234 
L 1294 2753 
L 1863 2753 
Q 2328 2753 2575 2939 
Q 2822 3125 2822 3475 
Q 2822 3834 2567 4026 
Q 2313 4219 1838 4219 
Q 1578 4219 1281 4162 
Q 984 4106 628 3988 
L 628 4550 
Q 988 4650 1302 4700 
Q 1616 4750 1894 4750 
Q 2613 4750 3031 4423 
Q 3450 4097 3450 3541 
Q 3450 3153 3228 2886 
Q 3006 2619 2597 2516 
z
" transform="scale(0.015625)"/>
       </defs>
       <use xlink:href="#DejaVuSans-33"/>
       <use xlink:href="#DejaVuSans-30" x="63.623047"/>
       <use xlink:href="#DejaVuSans-30" x="127.246094"/>
      </g>
     </g>
    </g>
    <g id="xtick_5">
     <g id="line2d_5">
      <g>
       <use xlink:href="#maf3abab2fa" x="334.076852" y="307.584" style="stroke: #000000; stroke-width: 0.8"/>
      </g>
     </g>
     <g id="text_5">
      <!-- 400 -->
      <g transform="translate(324.533102 322.182437) scale(0.1 -0.1)">
       <defs>
        <path id="DejaVuSans-34" d="M 2419 4116 
L 825 1625 
L 2419 1625 
L 2419 4116 
z
M 2253 4666 
L 3047 4666 
L 3047 1625 
L 3713 1625 
L 3713 1100 
L 3047 1100 
L 3047 0 
L 2419 0 
L 2419 1100 
L 313 1100 
L 313 1709 
L 2253 4666 
z
" transform="scale(0.015625)"/>
       </defs>
       <use xlink:href="#DejaVuSans-34"/>
       <use xlink:href="#DejaVuSans-30" x="63.623047"/>
       <use xlink:href="#DejaVuSans-30" x="127.246094"/>
      </g>
     </g>
    </g>
    <g id="xtick_6">
     <g id="line2d_6">
      <g>
       <use xlink:href="#maf3abab2fa" x="399.137883" y="307.584" style="stroke: #000000; stroke-width: 0.8"/>
      </g>
     </g>
     <g id="text_6">
      <!-- 500 -->
      <g transform="translate(389.594133 322.182437) scale(0.1 -0.1)">
       <defs>
        <path id="DejaVuSans-35" d="M 691 4666 
L 3169 4666 
L 3169 4134 
L 1269 4134 
L 1269 2991 
Q 1406 3038 1543 3061 
Q 1681 3084 1819 3084 
Q 2600 3084 3056 2656 
Q 3513 2228 3513 1497 
Q 3513 744 3044 326 
Q 2575 -91 1722 -91 
Q 1428 -91 1123 -41 
Q 819 9 494 109 
L 494 744 
Q 775 591 1075 516 
Q 1375 441 1709 441 
Q 2250 441 2565 725 
Q 2881 1009 2881 1497 
Q 2881 1984 2565 2268 
Q 2250 2553 1709 2553 
Q 1456 2553 1204 2497 
Q 953 2441 691 2322 
L 691 4666 
z
" transform="scale(0.015625)"/>
       </defs>
       <use xlink:href="#DejaVuSans-35"/>
       <use xlink:href="#DejaVuSans-30" x="63.623047"/>
       <use xlink:href="#DejaVuSans-30" x="127.246094"/>
      </g>
     </g>
    </g>
   </g>
   <g id="matplotlib.axis_2">
    <g id="ytick_1">
     <g id="line2d_7">
      <defs>
       <path id="m73aed0f4b6" d="M 0 0 
L -3.5 0 
" style="stroke: #000000; stroke-width: 0.8"/>
      </defs>
      <g>
       <use xlink:href="#m73aed0f4b6" x="57.6" y="295.579572" style="stroke: #000000; stroke-width: 0.8"/>
      </g>
     </g>
     <g id="text_7">
      <!-- 0.0 -->
      <g transform="translate(34.696875 299.378791) scale(0.1 -0.1)">
       <defs>
        <path id="DejaVuSans-2e" d="M 684 794 
L 1344 794 
L 1344 0 
L 684 0 
L 684 794 
z
" transform="scale(0.015625)"/>
       </defs>
       <use xlink:href="#DejaVuSans-30"/>
       <use xlink:href="#DejaVuSans-2e" x="63.623047"/>
       <use xlink:href="#DejaVuSans-30" x="95.410156"/>
      </g>
     </g>
    </g>
    <g id="ytick_2">
     <g id="line2d_8">
      <g>
       <use xlink:href="#m73aed0f4b6" x="57.6" y="241.898207" style="stroke: #000000; stroke-width: 0.8"/>
      </g>
     </g>
     <g id="text_8">
      <!-- 0.2 -->
      <g transform="translate(34.696875 245.697426) scale(0.1 -0.1)">
       <use xlink:href="#DejaVuSans-30"/>
       <use xlink:href="#DejaVuSans-2e" x="63.623047"/>
       <use xlink:href="#DejaVuSans-32" x="95.410156"/>
      </g>
     </g>
    </g>
    <g id="ytick_3">
     <g id="line2d_9">
      <g>
       <use xlink:href="#m73aed0f4b6" x="57.6" y="188.216842" style="stroke: #000000; stroke-width: 0.8"/>
      </g>
     </g>
     <g id="text_9">
      <!-- 0.4 -->
      <g transform="translate(34.696875 192.016061) scale(0.1 -0.1)">
       <use xlink:href="#DejaVuSans-30"/>
       <use xlink:href="#DejaVuSans-2e" x="63.623047"/>
       <use xlink:href="#DejaVuSans-34" x="95.410156"/>
      </g>
     </g>
    </g>
    <g id="ytick_4">
     <g id="line2d_10">
      <g>
       <use xlink:href="#m73aed0f4b6" x="57.6" y="134.535477" style="stroke: #000000; stroke-width: 0.8"/>
      </g>
     </g>
     <g id="text_10">
      <!-- 0.6 -->
      <g transform="translate(34.696875 138.334696) scale(0.1 -0.1)">
       <defs>
        <path id="DejaVuSans-36" d="M 2113 2584 
Q 1688 2584 1439 2293 
Q 1191 2003 1191 1497 
Q 1191 994 1439 701 
Q 1688 409 2113 409 
Q 2538 409 2786 701 
Q 3034 994 3034 1497 
Q 3034 2003 2786 2293 
Q 2538 2584 2113 2584 
z
M 3366 4563 
L 3366 3988 
Q 3128 4100 2886 4159 
Q 2644 4219 2406 4219 
Q 1781 4219 1451 3797 
Q 1122 3375 1075 2522 
Q 1259 2794 1537 2939 
Q 1816 3084 2150 3084 
Q 2853 3084 3261 2657 
Q 3669 2231 3669 1497 
Q 3669 778 3244 343 
Q 2819 -91 2113 -91 
Q 1303 -91 875 529 
Q 447 1150 447 2328 
Q 447 3434 972 4092 
Q 1497 4750 2381 4750 
Q 2619 4750 2861 4703 
Q 3103 4656 3366 4563 
z
" transform="scale(0.015625)"/>
       </defs>
       <use xlink:href="#DejaVuSans-30"/>
       <use xlink:href="#DejaVuSans-2e" x="63.623047"/>
       <use xlink:href="#DejaVuSans-36" x="95.410156"/>
      </g>
     </g>
    </g>
    <g id="ytick_5">
     <g id="line2d_11">
      <g>
       <use xlink:href="#m73aed0f4b6" x="57.6" y="80.854112" style="stroke: #000000; stroke-width: 0.8"/>
      </g>
     </g>
     <g id="text_11">
      <!-- 0.8 -->
      <g transform="translate(34.696875 84.653331) scale(0.1 -0.1)">
       <defs>
        <path id="DejaVuSans-38" d="M 2034 2216 
Q 1584 2216 1326 1975 
Q 1069 1734 1069 1313 
Q 1069 891 1326 650 
Q 1584 409 2034 409 
Q 2484 409 2743 651 
Q 3003 894 3003 1313 
Q 3003 1734 2745 1975 
Q 2488 2216 2034 2216 
z
M 1403 2484 
Q 997 2584 770 2862 
Q 544 3141 544 3541 
Q 544 4100 942 4425 
Q 1341 4750 2034 4750 
Q 2731 4750 3128 4425 
Q 3525 4100 3525 3541 
Q 3525 3141 3298 2862 
Q 3072 2584 2669 2484 
Q 3125 2378 3379 2068 
Q 3634 1759 3634 1313 
Q 3634 634 3220 271 
Q 2806 -91 2034 -91 
Q 1263 -91 848 271 
Q 434 634 434 1313 
Q 434 1759 690 2068 
Q 947 2378 1403 2484 
z
M 1172 3481 
Q 1172 3119 1398 2916 
Q 1625 2713 2034 2713 
Q 2441 2713 2670 2916 
Q 2900 3119 2900 3481 
Q 2900 3844 2670 4047 
Q 2441 4250 2034 4250 
Q 1625 4250 1398 4047 
Q 1172 3844 1172 3481 
z
" transform="scale(0.015625)"/>
       </defs>
       <use xlink:href="#DejaVuSans-30"/>
       <use xlink:href="#DejaVuSans-2e" x="63.623047"/>
       <use xlink:href="#DejaVuSans-38" x="95.410156"/>
      </g>
     </g>
    </g>
   </g>
   <g id="line2d_12">
    <path d="M 73.832727 295.484832 
L 78.386999 295.466405 
L 79.03761 288.450988 
L 79.68822 275.53456 
L 80.33883 258.537804 
L 80.989441 230.689545 
L 81.640051 216.850103 
L 82.290661 215.200905 
L 82.941272 195.516225 
L 84.242492 166.623325 
L 85.543713 159.078254 
L 86.194323 161.682998 
L 86.844934 247.89233 
L 87.495544 156.43028 
L 88.146154 242.09653 
L 88.796764 178.780851 
L 89.447375 177.213412 
L 90.097985 161.42071 
L 90.748595 167.574845 
L 91.399206 147.84145 
L 92.049816 143.144301 
L 92.700426 147.677065 
L 93.351037 138.913664 
L 94.001647 138.620539 
L 95.302868 157.296492 
L 95.953478 145.794996 
L 96.604088 137.481611 
L 97.254698 137.987006 
L 97.905309 124.903735 
L 98.555919 120.598484 
L 99.206529 119.035935 
L 99.85714 125.038317 
L 100.50775 125.197168 
L 101.15836 128.366844 
L 101.808971 133.676063 
L 102.459581 122.821392 
L 103.110191 114.829824 
L 103.760802 114.74158 
L 104.411412 114.325864 
L 105.062022 161.980472 
L 105.712633 160.637502 
L 106.363243 135.788329 
L 107.664463 120.709686 
L 108.315074 127.739146 
L 108.965684 112.157042 
L 109.616294 124.765203 
L 110.266905 123.68743 
L 110.917515 110.772584 
L 111.568125 108.683849 
L 112.218736 113.638747 
L 112.869346 114.185568 
L 113.519956 136.989575 
L 114.170567 207.606113 
L 114.821177 142.502932 
L 115.471787 125.997037 
L 116.122398 129.24318 
L 116.773008 125.905577 
L 117.423618 125.774211 
L 118.074228 107.536897 
L 118.724839 116.295149 
L 119.375449 117.779717 
L 120.026059 110.699631 
L 120.67667 106.990237 
L 121.32728 105.570375 
L 121.97789 100.081425 
L 122.628501 112.302329 
L 123.279111 118.529231 
L 123.929721 117.464309 
L 124.580332 111.315216 
L 125.230942 108.284278 
L 125.881552 116.074478 
L 127.182773 103.51983 
L 128.483993 137.434709 
L 129.134604 110.990892 
L 129.785214 103.212837 
L 130.435824 97.714047 
L 131.086435 99.422617 
L 131.737045 97.992882 
L 132.387655 97.633656 
L 133.038266 91.162191 
L 133.688876 97.318385 
L 134.339486 96.855111 
L 134.990097 117.972399 
L 135.640707 100.63266 
L 136.291317 96.062347 
L 136.941927 100.338931 
L 137.592538 98.438153 
L 138.893758 97.663911 
L 139.544369 93.087668 
L 140.194979 92.486226 
L 140.845589 96.542831 
L 141.4962 90.490011 
L 142.14681 99.878393 
L 142.79742 101.507062 
L 143.448031 90.240449 
L 144.098641 91.555246 
L 144.749251 92.17931 
L 145.399862 91.361228 
L 146.050472 99.565621 
L 146.701082 103.446625 
L 147.351692 92.362881 
L 148.002303 93.90271 
L 148.652913 103.532451 
L 149.303523 92.911182 
L 149.954134 99.836445 
L 150.604744 111.95305 
L 151.255354 99.304989 
L 152.556575 86.321729 
L 153.207185 85.553674 
L 153.857796 85.526486 
L 154.508406 88.60288 
L 155.159016 82.99027 
L 155.809627 86.01727 
L 156.460237 86.558623 
L 157.110847 93.079365 
L 157.761457 89.976349 
L 158.412068 81.500639 
L 159.062678 80.251316 
L 159.713288 96.621295 
L 160.363899 88.937916 
L 161.014509 94.761869 
L 161.665119 88.483471 
L 162.31573 99.514098 
L 162.96634 93.995084 
L 163.61695 89.609072 
L 164.267561 91.393567 
L 164.918171 82.207916 
L 165.568781 83.697632 
L 166.219392 84.107323 
L 166.870002 85.003694 
L 167.520612 89.564444 
L 168.171222 95.495694 
L 168.821833 81.480767 
L 169.472443 91.003371 
L 170.123053 87.47405 
L 170.773664 83.291616 
L 171.424274 80.635945 
L 172.074884 81.112001 
L 172.725495 79.386304 
L 173.376105 80.436828 
L 174.026715 76.399953 
L 175.327936 84.199613 
L 175.978546 88.320851 
L 176.629156 83.230795 
L 177.279767 88.932141 
L 177.930377 82.703644 
L 178.580987 74.555672 
L 179.231598 76.93708 
L 179.882208 76.903696 
L 180.532818 78.28612 
L 181.183429 86.847115 
L 181.834039 82.581042 
L 182.484649 85.072706 
L 183.13526 84.210921 
L 183.78587 83.568711 
L 184.43648 77.177639 
L 185.087091 77.656893 
L 185.737701 76.033414 
L 186.388311 75.094577 
L 187.038921 72.103499 
L 187.689532 75.165358 
L 188.340142 72.345476 
L 188.990752 80.535948 
L 189.641363 77.524971 
L 190.291973 73.069808 
L 190.942583 75.606861 
L 191.593194 79.854954 
L 192.243804 73.42159 
L 192.894414 71.776487 
L 193.545025 74.434917 
L 194.195635 70.867298 
L 194.846245 71.260243 
L 195.496856 69.046251 
L 196.147466 73.568102 
L 196.798076 86.985286 
L 197.448686 87.469387 
L 198.099297 98.992094 
L 198.749907 80.867417 
L 199.400517 86.074599 
L 200.051128 80.722806 
L 200.701738 74.330992 
L 201.352348 76.934296 
L 202.002959 71.959243 
L 202.653569 75.82627 
L 203.304179 75.524634 
L 203.95479 72.92245 
L 205.25601 69.432724 
L 205.906621 73.199362 
L 206.557231 69.268033 
L 207.207841 71.504489 
L 207.858451 73.017656 
L 208.509062 75.23251 
L 209.159672 71.928713 
L 209.810282 70.296899 
L 210.460893 70.351659 
L 211.111503 69.633091 
L 211.762113 74.977152 
L 212.412724 69.856864 
L 213.063334 71.347063 
L 213.713944 68.588768 
L 214.364555 71.141641 
L 215.015165 69.938076 
L 215.665775 72.282747 
L 216.316385 67.576243 
L 216.966996 68.598479 
L 217.617606 68.356656 
L 218.268216 68.577809 
L 218.918827 67.003445 
L 219.569437 68.996649 
L 220.220047 69.410047 
L 220.870658 67.319525 
L 221.521268 65.804386 
L 222.171878 65.96513 
L 222.822489 65.586151 
L 223.473099 71.093097 
L 224.123709 68.182809 
L 224.77432 66.6995 
L 225.42493 69.287489 
L 226.07554 69.58186 
L 226.72615 66.01821 
L 227.376761 66.247109 
L 228.027371 71.200979 
L 228.677981 70.713584 
L 229.328592 74.275361 
L 229.979202 71.645023 
L 230.629812 68.277055 
L 231.280423 67.405326 
L 231.931033 65.362609 
L 232.581643 64.300704 
L 233.232254 63.708079 
L 233.882864 64.393421 
L 234.533474 64.655313 
L 235.184085 65.063539 
L 235.834695 71.219989 
L 236.485305 68.630894 
L 237.135915 68.168806 
L 237.786526 72.794578 
L 238.437136 65.626599 
L 239.087746 68.830077 
L 239.738357 66.091652 
L 240.388967 65.772033 
L 241.039577 64.960111 
L 241.690188 67.145301 
L 242.340798 67.649017 
L 242.991408 66.03084 
L 243.642019 66.042518 
L 244.292629 65.77217 
L 244.943239 62.083818 
L 245.59385 64.016527 
L 246.24446 62.523223 
L 246.89507 65.282664 
L 247.54568 63.965474 
L 248.196291 63.457551 
L 248.846901 61.935647 
L 249.497511 63.178835 
L 250.148122 67.18236 
L 250.798732 65.969006 
L 251.449342 67.40846 
L 252.099953 71.523774 
L 252.750563 70.421107 
L 253.401173 67.854899 
L 254.051784 66.808101 
L 254.702394 65.478528 
L 255.353004 63.633566 
L 256.003615 61.302455 
L 256.654225 62.337519 
L 257.304835 64.514014 
L 257.955445 61.877831 
L 259.256666 62.723259 
L 259.907276 60.474349 
L 260.557887 64.149639 
L 261.208497 65.709016 
L 261.859107 64.017605 
L 262.509718 64.174233 
L 263.160328 65.293844 
L 263.810938 63.081442 
L 264.461549 66.152356 
L 265.112159 62.881665 
L 265.762769 63.804997 
L 266.413379 61.485549 
L 267.06399 63.37896 
L 267.7146 68.003614 
L 268.36521 65.542839 
L 269.015821 66.962027 
L 269.666431 63.621609 
L 270.967652 67.589503 
L 271.618262 67.778948 
L 272.268872 62.767512 
L 272.919483 67.359589 
L 273.570093 63.422044 
L 274.220703 60.516118 
L 274.871314 63.302308 
L 276.172534 61.639096 
L 276.823144 63.272535 
L 277.473755 86.915398 
L 278.124365 77.929618 
L 278.774975 71.398162 
L 279.425586 68.619654 
L 280.076196 66.388719 
L 280.726806 63.137567 
L 281.377417 64.685564 
L 282.028027 61.388715 
L 282.678637 61.298848 
L 283.329248 61.430885 
L 283.979858 60.85842 
L 284.630468 61.388754 
L 285.281079 59.610942 
L 285.931689 61.026786 
L 287.232909 57.929544 
L 287.88352 58.931398 
L 288.53413 58.815081 
L 289.18474 58.418452 
L 289.835351 59.248688 
L 290.485961 70.02131 
L 291.136571 65.308896 
L 291.787182 66.24444 
L 292.437792 65.433879 
L 293.088402 64.10763 
L 293.739013 62.172467 
L 294.389623 60.777791 
L 295.040233 60.169714 
L 295.690844 62.740985 
L 296.341454 60.624326 
L 296.992064 61.671609 
L 297.642674 59.977527 
L 298.293285 62.857249 
L 298.943895 65.080287 
L 299.594505 71.394153 
L 300.245116 70.070308 
L 300.895726 63.72048 
L 301.546336 62.884981 
L 302.196947 61.07649 
L 302.847557 58.002944 
L 303.498167 62.079126 
L 304.148778 60.835248 
L 304.799388 68.639535 
L 305.449998 68.0104 
L 306.100608 62.583246 
L 306.751219 63.363428 
L 307.401829 59.39672 
L 308.70305 62.644559 
L 309.35366 61.464541 
L 310.00427 58.864203 
L 310.654881 58.794156 
L 311.305491 60.73116 
L 311.956101 77.262707 
L 312.606712 76.049364 
L 313.257322 67.284233 
L 313.907932 68.104427 
L 314.558543 63.158419 
L 315.209153 63.014889 
L 315.859763 60.147316 
L 316.510373 62.095065 
L 317.160984 57.990132 
L 317.811594 58.504193 
L 318.462204 60.357381 
L 319.112815 63.668758 
L 319.763425 59.922666 
L 320.414035 58.449198 
L 321.064646 58.70776 
L 321.715256 60.741358 
L 322.365866 57.99966 
L 323.016477 58.799769 
L 323.667087 57.893308 
L 324.317697 57.535168 
L 324.968308 59.005269 
L 325.618918 57.852332 
L 326.269528 58.59201 
L 326.920138 61.356445 
L 327.570749 57.276663 
L 328.221359 57.3494 
L 328.871969 56.007582 
L 329.52258 58.557146 
L 330.17319 60.254519 
L 330.8238 58.406944 
L 331.474411 59.939026 
L 332.125021 57.460049 
L 332.775631 57.187895 
L 333.426242 57.744645 
L 334.076852 57.86622 
L 334.727462 56.478905 
L 335.378073 61.66582 
L 336.028683 57.369466 
L 336.679293 62.939745 
L 337.980514 56.572059 
L 338.631124 58.457065 
L 339.281734 58.87055 
L 339.932345 68.059951 
L 340.582955 68.571334 
L 341.233565 70.19091 
L 341.884176 82.673768 
L 342.534786 71.759632 
L 343.185396 70.694274 
L 343.836007 66.262081 
L 344.486617 65.685983 
L 345.137227 61.165238 
L 345.787837 60.781201 
L 346.438448 57.709519 
L 347.089058 57.303784 
L 347.739668 58.490264 
L 348.390279 57.431448 
L 349.040889 55.910621 
L 349.691499 55.910397 
L 350.99272 57.142078 
L 351.64333 57.000034 
L 352.293941 58.553857 
L 352.944551 59.236614 
L 353.595161 57.338348 
L 354.245772 57.538299 
L 354.896382 57.280973 
L 355.546992 57.871219 
L 356.197602 56.391674 
L 356.848213 57.752619 
L 357.498823 58.479371 
L 358.149433 58.623842 
L 358.800044 60.027821 
L 359.450654 57.73692 
L 360.101264 60.750155 
L 360.751875 62.336802 
L 361.402485 66.589393 
L 362.053095 59.079028 
L 362.703706 60.31874 
L 363.354316 64.367986 
L 364.004926 60.580045 
L 364.655537 59.655195 
L 365.306147 57.570691 
L 365.956757 58.359743 
L 366.607367 57.058053 
L 367.257978 55.133426 
L 367.908588 56.802889 
L 368.559198 60.05086 
L 369.209809 60.020871 
L 369.860419 59.533679 
L 370.511029 59.557411 
L 371.16164 58.670487 
L 371.81225 58.080691 
L 372.46286 55.63433 
L 373.113471 58.424385 
L 373.764081 59.631552 
L 374.414691 55.680659 
L 375.065302 55.087824 
L 375.715912 55.011446 
L 376.366522 53.568 
L 377.017132 54.356007 
L 377.667743 55.794279 
L 378.318353 54.17903 
L 378.968963 54.761587 
L 379.619574 55.703818 
L 380.270184 55.096833 
L 380.920794 55.168282 
L 382.222015 58.753131 
L 382.872625 55.968471 
L 383.523236 55.265958 
L 384.173846 55.394907 
L 384.824456 56.719822 
L 385.475066 54.213312 
L 386.125677 57.396446 
L 386.776287 53.86371 
L 387.426897 55.100982 
L 388.077508 56.974727 
L 388.728118 55.758399 
L 389.378728 55.278992 
L 390.679949 57.459615 
L 391.330559 56.175891 
L 391.98117 55.883986 
L 392.63178 54.533097 
L 393.28239 55.96731 
L 393.933001 59.376747 
L 394.583611 58.925198 
L 395.234221 57.362667 
L 395.884831 57.724146 
L 396.535442 56.380751 
L 397.186052 54.62247 
L 397.836662 54.657566 
L 398.487273 56.324111 
L 398.487273 56.324111 
" clip-path="url(#pe0cae50b22)" style="fill: none; stroke: #1f77b4; stroke-width: 1.5; stroke-linecap: square"/>
   </g>
   <g id="line2d_13">
    <path d="M 73.832727 295.487646 
L 78.386999 295.477239 
L 79.03761 286.381913 
L 79.68822 256.33567 
L 80.33883 253.166216 
L 80.989441 229.225418 
L 81.640051 221.895144 
L 82.290661 174.312644 
L 82.941272 188.214177 
L 83.591882 185.949786 
L 84.242492 156.66135 
L 84.893103 160.202389 
L 85.543713 137.153015 
L 86.194323 133.611913 
L 86.844934 202.330999 
L 87.495544 222.02269 
L 88.146154 177.633753 
L 88.796764 158.076863 
L 89.447375 150.766211 
L 90.097985 133.00273 
L 90.748595 146.879258 
L 91.399206 155.876634 
L 92.049816 147.409281 
L 92.700426 142.002506 
L 93.351037 143.718067 
L 94.001647 122.500514 
L 94.652257 120.529805 
L 95.302868 142.578293 
L 95.953478 130.926208 
L 96.604088 131.83691 
L 97.254698 122.006543 
L 97.905309 123.996347 
L 98.555919 123.303373 
L 99.206529 121.652861 
L 99.85714 122.01415 
L 100.50775 126.258426 
L 101.15836 119.54243 
L 101.808971 124.304994 
L 102.459581 118.821387 
L 103.110191 118.264718 
L 103.760802 111.376589 
L 104.411412 170.771445 
L 105.062022 214.171336 
L 105.712633 134.741697 
L 106.363243 123.990587 
L 107.013853 128.072736 
L 107.664463 123.362702 
L 108.315074 115.16928 
L 108.965684 118.190622 
L 109.616294 113.191443 
L 110.266905 111.412945 
L 110.917515 119.933068 
L 111.568125 111.388404 
L 112.218736 109.177088 
L 112.869346 154.442459 
L 113.519956 169.483023 
L 114.170567 127.762345 
L 114.821177 120.956431 
L 115.471787 116.748048 
L 116.122398 116.709228 
L 116.773008 113.560692 
L 117.423618 111.320027 
L 118.074228 113.10826 
L 118.724839 111.591078 
L 119.375449 108.467387 
L 120.026059 113.153919 
L 120.67667 112.585012 
L 121.32728 112.888628 
L 121.97789 119.707652 
L 122.628501 106.148819 
L 123.929721 126.482938 
L 124.580332 123.546595 
L 125.230942 129.497272 
L 125.881552 121.617793 
L 126.532163 119.866467 
L 127.182773 128.199794 
L 127.833383 120.292294 
L 128.483993 107.038812 
L 129.134604 105.884175 
L 129.785214 117.405618 
L 130.435824 109.3968 
L 131.086435 103.462073 
L 131.737045 101.399317 
L 132.387655 106.90917 
L 133.038266 111.163828 
L 133.688876 98.853333 
L 134.339486 116.190979 
L 134.990097 111.369486 
L 135.640707 108.751613 
L 136.291317 103.49587 
L 136.941927 109.486031 
L 137.592538 108.58827 
L 138.243148 102.19988 
L 138.893758 99.337153 
L 139.544369 102.493553 
L 140.194979 102.077893 
L 140.845589 99.294998 
L 141.4962 107.35917 
L 142.14681 107.874219 
L 142.79742 97.567886 
L 143.448031 112.891771 
L 144.098641 102.992043 
L 144.749251 97.166681 
L 145.399862 98.110596 
L 146.050472 102.373077 
L 146.701082 96.951432 
L 147.351692 99.798176 
L 148.002303 105.908164 
L 148.652913 96.257618 
L 149.303523 101.006663 
L 149.954134 97.149851 
L 150.604744 109.093009 
L 151.255354 107.717011 
L 151.905965 99.536892 
L 152.556575 99.378373 
L 153.207185 103.468848 
L 154.508406 95.637084 
L 155.159016 96.659575 
L 155.809627 98.255805 
L 156.460237 95.779029 
L 157.110847 92.659018 
L 157.761457 93.601957 
L 158.412068 92.847014 
L 159.062678 118.686353 
L 159.713288 104.76859 
L 160.363899 103.941702 
L 161.014509 97.368051 
L 161.665119 106.259319 
L 162.31573 112.262166 
L 162.96634 100.402848 
L 163.61695 96.144798 
L 164.267561 94.163985 
L 164.918171 94.250696 
L 166.219392 97.13406 
L 166.870002 103.158258 
L 167.520612 97.953093 
L 168.171222 96.96495 
L 168.821833 109.092105 
L 170.123053 95.604319 
L 171.424274 100.10304 
L 172.074884 98.31495 
L 172.725495 94.676122 
L 173.376105 93.831077 
L 174.026715 91.540505 
L 174.677326 104.142841 
L 175.327936 103.576325 
L 175.978546 93.383092 
L 176.629156 93.078365 
L 177.279767 94.398 
L 177.930377 93.64532 
L 178.580987 94.745331 
L 179.231598 89.656522 
L 179.882208 89.584202 
L 180.532818 100.860191 
L 181.183429 93.876832 
L 181.834039 97.658172 
L 182.484649 92.006287 
L 183.13526 94.256991 
L 183.78587 93.298453 
L 184.43648 91.076882 
L 185.087091 89.50609 
L 185.737701 88.913225 
L 186.388311 86.536895 
L 187.038921 87.595038 
L 187.689532 87.501784 
L 188.340142 89.823936 
L 188.990752 93.692827 
L 189.641363 93.204271 
L 190.291973 91.310537 
L 190.942583 93.475259 
L 191.593194 86.972328 
L 192.243804 88.187959 
L 192.894414 88.58554 
L 193.545025 87.888446 
L 194.195635 94.28554 
L 194.846245 89.405573 
L 195.496856 90.848715 
L 196.147466 93.695075 
L 196.798076 92.980767 
L 197.448686 100.113502 
L 198.099297 96.293406 
L 198.749907 90.933754 
L 199.400517 93.986372 
L 200.051128 89.145664 
L 200.701738 93.980805 
L 201.352348 89.303344 
L 202.002959 101.953306 
L 203.304179 89.366969 
L 203.95479 86.82848 
L 204.6054 89.979663 
L 205.25601 90.56988 
L 205.906621 92.150392 
L 206.557231 89.63518 
L 207.207841 86.439265 
L 207.858451 86.396926 
L 208.509062 85.519099 
L 209.810282 87.455781 
L 210.460893 86.263844 
L 211.111503 99.551138 
L 211.762113 91.933903 
L 212.412724 91.751866 
L 213.063334 90.055071 
L 214.364555 88.391065 
L 215.015165 91.276013 
L 215.665775 89.108556 
L 216.316385 90.988316 
L 216.966996 89.961601 
L 217.617606 90.70425 
L 218.268216 88.667139 
L 218.918827 85.411791 
L 219.569437 85.659836 
L 220.220047 87.608588 
L 220.870658 88.530074 
L 221.521268 88.990937 
L 222.171878 96.530389 
L 222.822489 99.790689 
L 223.473099 87.300565 
L 224.123709 88.690705 
L 224.77432 93.410809 
L 225.42493 90.965862 
L 226.72615 84.262673 
L 227.376761 85.913513 
L 228.027371 94.058844 
L 228.677981 106.701448 
L 229.328592 100.36186 
L 229.979202 92.851325 
L 230.629812 88.637167 
L 231.280423 86.054338 
L 231.931033 85.090977 
L 232.581643 84.44015 
L 233.232254 84.755557 
L 233.882864 85.862207 
L 234.533474 86.554165 
L 235.184085 84.667918 
L 235.834695 84.396459 
L 236.485305 95.558044 
L 237.135915 103.347589 
L 237.786526 88.458842 
L 239.087746 84.708914 
L 239.738357 85.936655 
L 240.388967 84.395083 
L 241.039577 83.31667 
L 241.690188 86.460359 
L 242.340798 85.523971 
L 242.991408 84.845715 
L 243.642019 84.812527 
L 244.943239 83.833519 
L 245.59385 88.024752 
L 246.24446 88.896795 
L 246.89507 85.920152 
L 247.54568 83.760103 
L 248.196291 83.236407 
L 248.846901 83.963249 
L 249.497511 82.272382 
L 250.148122 92.163942 
L 250.798732 84.460092 
L 251.449342 89.874323 
L 252.099953 101.990422 
L 252.750563 101.304719 
L 253.401173 88.616713 
L 254.051784 90.670518 
L 254.702394 90.991611 
L 255.353004 86.1827 
L 256.003615 85.626704 
L 256.654225 85.789998 
L 257.304835 86.401461 
L 257.955445 87.600173 
L 258.606056 86.499483 
L 259.256666 85.643702 
L 260.557887 92.603128 
L 261.208497 92.828559 
L 261.859107 84.672126 
L 262.509718 83.008479 
L 263.160328 85.617409 
L 263.810938 98.825952 
L 264.461549 83.996798 
L 265.112159 85.37601 
L 265.762769 83.050826 
L 266.413379 86.040524 
L 267.06399 88.250552 
L 268.36521 83.724291 
L 269.015821 83.743281 
L 269.666431 88.541017 
L 270.317041 89.216545 
L 270.967652 83.454999 
L 271.618262 87.365038 
L 272.268872 94.858671 
L 272.919483 90.801496 
L 273.570093 85.248008 
L 274.220703 85.990513 
L 274.871314 84.428983 
L 275.521924 85.162617 
L 276.172534 93.635897 
L 276.823144 94.734276 
L 277.473755 102.565961 
L 278.124365 95.935436 
L 278.774975 94.016137 
L 279.425586 87.795488 
L 280.076196 90.355503 
L 280.726806 93.491105 
L 281.377417 87.096355 
L 282.028027 85.331463 
L 282.678637 87.158884 
L 283.979858 84.396011 
L 284.630468 87.515574 
L 285.281079 84.831029 
L 285.931689 83.387879 
L 286.582299 83.596696 
L 287.232909 83.194499 
L 287.88352 81.798696 
L 288.53413 84.321443 
L 289.18474 83.101101 
L 289.835351 92.959865 
L 290.485961 85.034935 
L 291.136571 87.530789 
L 291.787182 94.434356 
L 292.437792 90.087844 
L 293.088402 83.800499 
L 293.739013 83.057282 
L 294.389623 90.737023 
L 295.040233 94.583932 
L 296.341454 87.512311 
L 296.992064 85.729517 
L 297.642674 85.436484 
L 298.293285 83.045819 
L 298.943895 89.682631 
L 299.594505 86.274691 
L 300.245116 86.611879 
L 300.895726 87.448549 
L 301.546336 85.656397 
L 302.196947 83.371952 
L 302.847557 84.208007 
L 303.498167 83.350611 
L 304.148778 90.490217 
L 304.799388 89.829247 
L 305.449998 88.11663 
L 306.100608 85.040558 
L 306.751219 84.333194 
L 307.401829 87.260777 
L 308.052439 93.094243 
L 309.35366 83.848637 
L 310.00427 83.725323 
L 310.654881 82.715374 
L 311.305491 97.128917 
L 311.956101 101.28433 
L 312.606712 92.99483 
L 313.257322 87.857682 
L 313.907932 84.571288 
L 314.558543 85.08373 
L 315.209153 87.068998 
L 315.859763 87.118457 
L 316.510373 80.728674 
L 317.160984 81.192793 
L 317.811594 86.343827 
L 318.462204 92.601264 
L 319.112815 88.201621 
L 319.763425 87.160676 
L 320.414035 83.93882 
L 321.064646 82.882252 
L 321.715256 82.11731 
L 322.365866 87.395971 
L 323.016477 86.29532 
L 323.667087 82.039558 
L 324.317697 80.730482 
L 324.968308 80.699381 
L 326.269528 87.889006 
L 326.920138 84.081189 
L 327.570749 81.628194 
L 328.221359 81.171243 
L 328.871969 83.233815 
L 329.52258 81.408818 
L 330.17319 83.246494 
L 330.8238 85.596923 
L 331.474411 87.241116 
L 332.125021 81.641705 
L 332.775631 80.021662 
L 333.426242 80.643307 
L 334.076852 79.83109 
L 334.727462 83.495363 
L 335.378073 81.459076 
L 336.028683 95.626229 
L 336.679293 87.654911 
L 337.329903 81.275032 
L 337.980514 86.609711 
L 338.631124 86.71238 
L 339.281734 90.037441 
L 339.932345 86.515097 
L 340.582955 102.098579 
L 341.233565 104.9387 
L 341.884176 94.368267 
L 342.534786 96.865121 
L 343.836007 87.551458 
L 344.486617 87.201592 
L 345.137227 81.950056 
L 345.787837 84.191625 
L 346.438448 85.368987 
L 347.089058 88.147651 
L 347.739668 85.77604 
L 348.390279 82.571302 
L 349.040889 83.201298 
L 349.691499 81.992827 
L 350.34211 81.103522 
L 350.99272 80.737033 
L 351.64333 83.95761 
L 352.293941 82.828106 
L 352.944551 80.135817 
L 353.595161 81.508543 
L 354.245772 85.601666 
L 354.896382 84.625315 
L 355.546992 80.137985 
L 356.197602 80.551901 
L 356.848213 82.62596 
L 357.498823 82.125613 
L 358.149433 81.378965 
L 358.800044 79.640702 
L 359.450654 80.574451 
L 360.101264 85.183271 
L 360.751875 84.795208 
L 361.402485 82.861215 
L 362.053095 87.111225 
L 362.703706 96.209615 
L 363.354316 87.647472 
L 364.004926 81.569544 
L 364.655537 80.081791 
L 365.306147 81.414849 
L 365.956757 83.589761 
L 366.607367 81.253314 
L 367.257978 80.072176 
L 367.908588 85.944414 
L 368.559198 90.798072 
L 369.209809 85.73978 
L 370.511029 81.74367 
L 371.16164 82.085969 
L 371.81225 80.3405 
L 372.46286 85.048869 
L 373.113471 86.809122 
L 373.764081 81.300597 
L 374.414691 81.704082 
L 375.065302 80.559108 
L 375.715912 79.985641 
L 376.366522 79.796534 
L 377.017132 83.974248 
L 377.667743 81.236444 
L 378.318353 80.624621 
L 378.968963 88.229994 
L 379.619574 81.292694 
L 380.270184 80.443617 
L 380.920794 80.991262 
L 381.571405 85.297803 
L 382.222015 80.279754 
L 382.872625 83.493395 
L 383.523236 80.312399 
L 384.173846 87.038849 
L 384.824456 80.045811 
L 385.475066 79.888156 
L 386.125677 81.272808 
L 386.776287 82.085425 
L 387.426897 79.518523 
L 388.077508 81.277064 
L 388.728118 81.55721 
L 389.378728 79.710303 
L 390.029339 83.113676 
L 390.679949 82.541353 
L 391.330559 80.89688 
L 391.98117 83.801506 
L 392.63178 86.068929 
L 393.28239 94.435916 
L 393.933001 79.377394 
L 394.583611 82.921616 
L 395.234221 84.292862 
L 395.884831 79.607954 
L 397.186052 83.507066 
L 397.836662 80.794459 
L 398.487273 90.064886 
L 398.487273 90.064886 
" clip-path="url(#pe0cae50b22)" style="fill: none; stroke: #ff7f0e; stroke-width: 1.5; stroke-linecap: square"/>
   </g>
   <g id="patch_3">
    <path d="M 57.6 307.584 
L 57.6 41.472 
" style="fill: none; stroke: #000000; stroke-width: 0.8; stroke-linejoin: miter; stroke-linecap: square"/>
   </g>
   <g id="patch_4">
    <path d="M 414.72 307.584 
L 414.72 41.472 
" style="fill: none; stroke: #000000; stroke-width: 0.8; stroke-linejoin: miter; stroke-linecap: square"/>
   </g>
   <g id="patch_5">
    <path d="M 57.6 307.584 
L 414.72 307.584 
" style="fill: none; stroke: #000000; stroke-width: 0.8; stroke-linejoin: miter; stroke-linecap: square"/>
   </g>
   <g id="patch_6">
    <path d="M 57.6 41.472 
L 414.72 41.472 
" style="fill: none; stroke: #000000; stroke-width: 0.8; stroke-linejoin: miter; stroke-linecap: square"/>
   </g>
   <g id="text_12">
    <!-- Dice score during training -->
    <g transform="translate(158.442187 35.472) scale(0.12 -0.12)">
     <defs>
      <path id="DejaVuSans-44" d="M 1259 4147 
L 1259 519 
L 2022 519 
Q 2988 519 3436 956 
Q 3884 1394 3884 2338 
Q 3884 3275 3436 3711 
Q 2988 4147 2022 4147 
L 1259 4147 
z
M 628 4666 
L 1925 4666 
Q 3281 4666 3915 4102 
Q 4550 3538 4550 2338 
Q 4550 1131 3912 565 
Q 3275 0 1925 0 
L 628 0 
L 628 4666 
z
" transform="scale(0.015625)"/>
      <path id="DejaVuSans-69" d="M 603 3500 
L 1178 3500 
L 1178 0 
L 603 0 
L 603 3500 
z
M 603 4863 
L 1178 4863 
L 1178 4134 
L 603 4134 
L 603 4863 
z
" transform="scale(0.015625)"/>
      <path id="DejaVuSans-63" d="M 3122 3366 
L 3122 2828 
Q 2878 2963 2633 3030 
Q 2388 3097 2138 3097 
Q 1578 3097 1268 2742 
Q 959 2388 959 1747 
Q 959 1106 1268 751 
Q 1578 397 2138 397 
Q 2388 397 2633 464 
Q 2878 531 3122 666 
L 3122 134 
Q 2881 22 2623 -34 
Q 2366 -91 2075 -91 
Q 1284 -91 818 406 
Q 353 903 353 1747 
Q 353 2603 823 3093 
Q 1294 3584 2113 3584 
Q 2378 3584 2631 3529 
Q 2884 3475 3122 3366 
z
" transform="scale(0.015625)"/>
      <path id="DejaVuSans-65" d="M 3597 1894 
L 3597 1613 
L 953 1613 
Q 991 1019 1311 708 
Q 1631 397 2203 397 
Q 2534 397 2845 478 
Q 3156 559 3463 722 
L 3463 178 
Q 3153 47 2828 -22 
Q 2503 -91 2169 -91 
Q 1331 -91 842 396 
Q 353 884 353 1716 
Q 353 2575 817 3079 
Q 1281 3584 2069 3584 
Q 2775 3584 3186 3129 
Q 3597 2675 3597 1894 
z
M 3022 2063 
Q 3016 2534 2758 2815 
Q 2500 3097 2075 3097 
Q 1594 3097 1305 2825 
Q 1016 2553 972 2059 
L 3022 2063 
z
" transform="scale(0.015625)"/>
      <path id="DejaVuSans-20" transform="scale(0.015625)"/>
      <path id="DejaVuSans-73" d="M 2834 3397 
L 2834 2853 
Q 2591 2978 2328 3040 
Q 2066 3103 1784 3103 
Q 1356 3103 1142 2972 
Q 928 2841 928 2578 
Q 928 2378 1081 2264 
Q 1234 2150 1697 2047 
L 1894 2003 
Q 2506 1872 2764 1633 
Q 3022 1394 3022 966 
Q 3022 478 2636 193 
Q 2250 -91 1575 -91 
Q 1294 -91 989 -36 
Q 684 19 347 128 
L 347 722 
Q 666 556 975 473 
Q 1284 391 1588 391 
Q 1994 391 2212 530 
Q 2431 669 2431 922 
Q 2431 1156 2273 1281 
Q 2116 1406 1581 1522 
L 1381 1569 
Q 847 1681 609 1914 
Q 372 2147 372 2553 
Q 372 3047 722 3315 
Q 1072 3584 1716 3584 
Q 2034 3584 2315 3537 
Q 2597 3491 2834 3397 
z
" transform="scale(0.015625)"/>
      <path id="DejaVuSans-6f" d="M 1959 3097 
Q 1497 3097 1228 2736 
Q 959 2375 959 1747 
Q 959 1119 1226 758 
Q 1494 397 1959 397 
Q 2419 397 2687 759 
Q 2956 1122 2956 1747 
Q 2956 2369 2687 2733 
Q 2419 3097 1959 3097 
z
M 1959 3584 
Q 2709 3584 3137 3096 
Q 3566 2609 3566 1747 
Q 3566 888 3137 398 
Q 2709 -91 1959 -91 
Q 1206 -91 779 398 
Q 353 888 353 1747 
Q 353 2609 779 3096 
Q 1206 3584 1959 3584 
z
" transform="scale(0.015625)"/>
      <path id="DejaVuSans-72" d="M 2631 2963 
Q 2534 3019 2420 3045 
Q 2306 3072 2169 3072 
Q 1681 3072 1420 2755 
Q 1159 2438 1159 1844 
L 1159 0 
L 581 0 
L 581 3500 
L 1159 3500 
L 1159 2956 
Q 1341 3275 1631 3429 
Q 1922 3584 2338 3584 
Q 2397 3584 2469 3576 
Q 2541 3569 2628 3553 
L 2631 2963 
z
" transform="scale(0.015625)"/>
      <path id="DejaVuSans-64" d="M 2906 2969 
L 2906 4863 
L 3481 4863 
L 3481 0 
L 2906 0 
L 2906 525 
Q 2725 213 2448 61 
Q 2172 -91 1784 -91 
Q 1150 -91 751 415 
Q 353 922 353 1747 
Q 353 2572 751 3078 
Q 1150 3584 1784 3584 
Q 2172 3584 2448 3432 
Q 2725 3281 2906 2969 
z
M 947 1747 
Q 947 1113 1208 752 
Q 1469 391 1925 391 
Q 2381 391 2643 752 
Q 2906 1113 2906 1747 
Q 2906 2381 2643 2742 
Q 2381 3103 1925 3103 
Q 1469 3103 1208 2742 
Q 947 2381 947 1747 
z
" transform="scale(0.015625)"/>
      <path id="DejaVuSans-75" d="M 544 1381 
L 544 3500 
L 1119 3500 
L 1119 1403 
Q 1119 906 1312 657 
Q 1506 409 1894 409 
Q 2359 409 2629 706 
Q 2900 1003 2900 1516 
L 2900 3500 
L 3475 3500 
L 3475 0 
L 2900 0 
L 2900 538 
Q 2691 219 2414 64 
Q 2138 -91 1772 -91 
Q 1169 -91 856 284 
Q 544 659 544 1381 
z
M 1991 3584 
L 1991 3584 
z
" transform="scale(0.015625)"/>
      <path id="DejaVuSans-6e" d="M 3513 2113 
L 3513 0 
L 2938 0 
L 2938 2094 
Q 2938 2591 2744 2837 
Q 2550 3084 2163 3084 
Q 1697 3084 1428 2787 
Q 1159 2491 1159 1978 
L 1159 0 
L 581 0 
L 581 3500 
L 1159 3500 
L 1159 2956 
Q 1366 3272 1645 3428 
Q 1925 3584 2291 3584 
Q 2894 3584 3203 3211 
Q 3513 2838 3513 2113 
z
" transform="scale(0.015625)"/>
      <path id="DejaVuSans-67" d="M 2906 1791 
Q 2906 2416 2648 2759 
Q 2391 3103 1925 3103 
Q 1463 3103 1205 2759 
Q 947 2416 947 1791 
Q 947 1169 1205 825 
Q 1463 481 1925 481 
Q 2391 481 2648 825 
Q 2906 1169 2906 1791 
z
M 3481 434 
Q 3481 -459 3084 -895 
Q 2688 -1331 1869 -1331 
Q 1566 -1331 1297 -1286 
Q 1028 -1241 775 -1147 
L 775 -588 
Q 1028 -725 1275 -790 
Q 1522 -856 1778 -856 
Q 2344 -856 2625 -561 
Q 2906 -266 2906 331 
L 2906 616 
Q 2728 306 2450 153 
Q 2172 0 1784 0 
Q 1141 0 747 490 
Q 353 981 353 1791 
Q 353 2603 747 3093 
Q 1141 3584 1784 3584 
Q 2172 3584 2450 3431 
Q 2728 3278 2906 2969 
L 2906 3500 
L 3481 3500 
L 3481 434 
z
" transform="scale(0.015625)"/>
      <path id="DejaVuSans-74" d="M 1172 4494 
L 1172 3500 
L 2356 3500 
L 2356 3053 
L 1172 3053 
L 1172 1153 
Q 1172 725 1289 603 
Q 1406 481 1766 481 
L 2356 481 
L 2356 0 
L 1766 0 
Q 1100 0 847 248 
Q 594 497 594 1153 
L 594 3053 
L 172 3053 
L 172 3500 
L 594 3500 
L 594 4494 
L 1172 4494 
z
" transform="scale(0.015625)"/>
      <path id="DejaVuSans-61" d="M 2194 1759 
Q 1497 1759 1228 1600 
Q 959 1441 959 1056 
Q 959 750 1161 570 
Q 1363 391 1709 391 
Q 2188 391 2477 730 
Q 2766 1069 2766 1631 
L 2766 1759 
L 2194 1759 
z
M 3341 1997 
L 3341 0 
L 2766 0 
L 2766 531 
Q 2569 213 2275 61 
Q 1981 -91 1556 -91 
Q 1019 -91 701 211 
Q 384 513 384 1019 
Q 384 1609 779 1909 
Q 1175 2209 1959 2209 
L 2766 2209 
L 2766 2266 
Q 2766 2663 2505 2880 
Q 2244 3097 1772 3097 
Q 1472 3097 1187 3025 
Q 903 2953 641 2809 
L 641 3341 
Q 956 3463 1253 3523 
Q 1550 3584 1831 3584 
Q 2591 3584 2966 3190 
Q 3341 2797 3341 1997 
z
" transform="scale(0.015625)"/>
     </defs>
     <use xlink:href="#DejaVuSans-44"/>
     <use xlink:href="#DejaVuSans-69" x="77.001953"/>
     <use xlink:href="#DejaVuSans-63" x="104.785156"/>
     <use xlink:href="#DejaVuSans-65" x="159.765625"/>
     <use xlink:href="#DejaVuSans-20" x="221.289062"/>
     <use xlink:href="#DejaVuSans-73" x="253.076172"/>
     <use xlink:href="#DejaVuSans-63" x="305.175781"/>
     <use xlink:href="#DejaVuSans-6f" x="360.15625"/>
     <use xlink:href="#DejaVuSans-72" x="421.337891"/>
     <use xlink:href="#DejaVuSans-65" x="460.201172"/>
     <use xlink:href="#DejaVuSans-20" x="521.724609"/>
     <use xlink:href="#DejaVuSans-64" x="553.511719"/>
     <use xlink:href="#DejaVuSans-75" x="616.988281"/>
     <use xlink:href="#DejaVuSans-72" x="680.367188"/>
     <use xlink:href="#DejaVuSans-69" x="721.480469"/>
     <use xlink:href="#DejaVuSans-6e" x="749.263672"/>
     <use xlink:href="#DejaVuSans-67" x="812.642578"/>
     <use xlink:href="#DejaVuSans-20" x="876.119141"/>
     <use xlink:href="#DejaVuSans-74" x="907.90625"/>
     <use xlink:href="#DejaVuSans-72" x="947.115234"/>
     <use xlink:href="#DejaVuSans-61" x="988.228516"/>
     <use xlink:href="#DejaVuSans-69" x="1049.507812"/>
     <use xlink:href="#DejaVuSans-6e" x="1077.291016"/>
     <use xlink:href="#DejaVuSans-69" x="1140.669922"/>
     <use xlink:href="#DejaVuSans-6e" x="1168.453125"/>
     <use xlink:href="#DejaVuSans-67" x="1231.832031"/>
    </g>
   </g>
   <g id="legend_1">
    <g id="patch_7">
     <path d="M 296.380938 302.584 
L 407.72 302.584 
Q 409.72 302.584 409.72 300.584 
L 409.72 272.22775 
Q 409.72 270.22775 407.72 270.22775 
L 296.380938 270.22775 
Q 294.380938 270.22775 294.380938 272.22775 
L 294.380938 300.584 
Q 294.380938 302.584 296.380938 302.584 
z
" style="fill: #ffffff; opacity: 0.8; stroke: #cccccc; stroke-linejoin: miter"/>
    </g>
    <g id="line2d_14">
     <path d="M 298.380938 278.326187 
L 308.380938 278.326187 
L 318.380938 278.326187 
" style="fill: none; stroke: #1f77b4; stroke-width: 1.5; stroke-linecap: square"/>
    </g>
    <g id="text_13">
     <!-- Train Dice score -->
     <g transform="translate(326.380938 281.826187) scale(0.1 -0.1)">
      <defs>
       <path id="DejaVuSans-54" d="M -19 4666 
L 3928 4666 
L 3928 4134 
L 2272 4134 
L 2272 0 
L 1638 0 
L 1638 4134 
L -19 4134 
L -19 4666 
z
" transform="scale(0.015625)"/>
      </defs>
      <use xlink:href="#DejaVuSans-54"/>
      <use xlink:href="#DejaVuSans-72" x="46.333984"/>
      <use xlink:href="#DejaVuSans-61" x="87.447266"/>
      <use xlink:href="#DejaVuSans-69" x="148.726562"/>
      <use xlink:href="#DejaVuSans-6e" x="176.509766"/>
      <use xlink:href="#DejaVuSans-20" x="239.888672"/>
      <use xlink:href="#DejaVuSans-44" x="271.675781"/>
      <use xlink:href="#DejaVuSans-69" x="348.677734"/>
      <use xlink:href="#DejaVuSans-63" x="376.460938"/>
      <use xlink:href="#DejaVuSans-65" x="431.441406"/>
      <use xlink:href="#DejaVuSans-20" x="492.964844"/>
      <use xlink:href="#DejaVuSans-73" x="524.751953"/>
      <use xlink:href="#DejaVuSans-63" x="576.851562"/>
      <use xlink:href="#DejaVuSans-6f" x="631.832031"/>
      <use xlink:href="#DejaVuSans-72" x="693.013672"/>
      <use xlink:href="#DejaVuSans-65" x="731.876953"/>
     </g>
    </g>
    <g id="line2d_15">
     <path d="M 298.380938 293.004312 
L 308.380938 293.004312 
L 318.380938 293.004312 
" style="fill: none; stroke: #ff7f0e; stroke-width: 1.5; stroke-linecap: square"/>
    </g>
    <g id="text_14">
     <!-- Test Dice score -->
     <g transform="translate(326.380938 296.504312) scale(0.1 -0.1)">
      <use xlink:href="#DejaVuSans-54"/>
      <use xlink:href="#DejaVuSans-65" x="44.083984"/>
      <use xlink:href="#DejaVuSans-73" x="105.607422"/>
      <use xlink:href="#DejaVuSans-74" x="157.707031"/>
      <use xlink:href="#DejaVuSans-20" x="196.916016"/>
      <use xlink:href="#DejaVuSans-44" x="228.703125"/>
      <use xlink:href="#DejaVuSans-69" x="305.705078"/>
      <use xlink:href="#DejaVuSans-63" x="333.488281"/>
      <use xlink:href="#DejaVuSans-65" x="388.46875"/>
      <use xlink:href="#DejaVuSans-20" x="449.992188"/>
      <use xlink:href="#DejaVuSans-73" x="481.779297"/>
      <use xlink:href="#DejaVuSans-63" x="533.878906"/>
      <use xlink:href="#DejaVuSans-6f" x="588.859375"/>
      <use xlink:href="#DejaVuSans-72" x="650.041016"/>
      <use xlink:href="#DejaVuSans-65" x="688.904297"/>
     </g>
    </g>
   </g>
  </g>
 </g>
 <defs>
  <clipPath id="pe0cae50b22">
   <rect x="57.6" y="41.472" width="357.12" height="266.112"/>
  </clipPath>
 </defs>
</svg>
