<?xml version="1.0" encoding="utf-8" standalone="no"?>
<!DOCTYPE svg PUBLIC "-//W3C//DTD SVG 1.1//EN"
  "http://www.w3.org/Graphics/SVG/1.1/DTD/svg11.dtd">
<svg xmlns:xlink="http://www.w3.org/1999/xlink" width="460.8pt" height="345.6pt" viewBox="0 0 460.8 345.6" xmlns="http://www.w3.org/2000/svg" version="1.1">
 <metadata>
  <rdf:RDF xmlns:dc="http://purl.org/dc/elements/1.1/" xmlns:cc="http://creativecommons.org/ns#" xmlns:rdf="http://www.w3.org/1999/02/22-rdf-syntax-ns#">
   <cc:Work>
    <dc:type rdf:resource="http://purl.org/dc/dcmitype/StillImage"/>
    <dc:date>2023-03-21T22:00:26.883548</dc:date>
    <dc:format>image/svg+xml</dc:format>
    <dc:creator>
     <cc:Agent>
      <dc:title>Matplotlib v3.6.2, https://matplotlib.org/</dc:title>
     </cc:Agent>
    </dc:creator>
   </cc:Work>
  </rdf:RDF>
 </metadata>
 <defs>
  <style type="text/css">*{stroke-linejoin: round; stroke-linecap: butt}</style>
 </defs>
 <g id="figure_1">
  <g id="patch_1">
   <path d="M 0 345.6 
L 460.8 345.6 
L 460.8 0 
L 0 0 
z
" style="fill: #ffffff"/>
  </g>
  <g id="axes_1">
   <g id="patch_2">
    <path d="M 57.6 307.584 
L 414.72 307.584 
L 414.72 41.472 
L 57.6 41.472 
z
" style="fill: #ffffff"/>
   </g>
   <g id="matplotlib.axis_1">
    <g id="xtick_1">
     <g id="line2d_1">
      <defs>
       <path id="mc5456caf13" d="M 0 0 
L 0 3.5 
" style="stroke: #000000; stroke-width: 0.8"/>
      </defs>
      <g>
       <use xlink:href="#mc5456caf13" x="73.832727" y="307.584" style="stroke: #000000; stroke-width: 0.8"/>
      </g>
     </g>
     <g id="text_1">
      <!-- 0 -->
      <g transform="translate(70.651477 322.182437) scale(0.1 -0.1)">
       <defs>
        <path id="DejaVuSans-30" d="M 2034 4250 
Q 1547 4250 1301 3770 
Q 1056 3291 1056 2328 
Q 1056 1369 1301 889 
Q 1547 409 2034 409 
Q 2525 409 2770 889 
Q 3016 1369 3016 2328 
Q 3016 3291 2770 3770 
Q 2525 4250 2034 4250 
z
M 2034 4750 
Q 2819 4750 3233 4129 
Q 3647 3509 3647 2328 
Q 3647 1150 3233 529 
Q 2819 -91 2034 -91 
Q 1250 -91 836 529 
Q 422 1150 422 2328 
Q 422 3509 836 4129 
Q 1250 4750 2034 4750 
z
" transform="scale(0.015625)"/>
       </defs>
       <use xlink:href="#DejaVuSans-30"/>
      </g>
     </g>
    </g>
    <g id="xtick_2">
     <g id="line2d_2">
      <g>
       <use xlink:href="#mc5456caf13" x="138.893758" y="307.584" style="stroke: #000000; stroke-width: 0.8"/>
      </g>
     </g>
     <g id="text_2">
      <!-- 100 -->
      <g transform="translate(129.350008 322.182437) scale(0.1 -0.1)">
       <defs>
        <path id="DejaVuSans-31" d="M 794 531 
L 1825 531 
L 1825 4091 
L 703 3866 
L 703 4441 
L 1819 4666 
L 2450 4666 
L 2450 531 
L 3481 531 
L 3481 0 
L 794 0 
L 794 531 
z
" transform="scale(0.015625)"/>
       </defs>
       <use xlink:href="#DejaVuSans-31"/>
       <use xlink:href="#DejaVuSans-30" x="63.623047"/>
       <use xlink:href="#DejaVuSans-30" x="127.246094"/>
      </g>
     </g>
    </g>
    <g id="xtick_3">
     <g id="line2d_3">
      <g>
       <use xlink:href="#mc5456caf13" x="203.95479" y="307.584" style="stroke: #000000; stroke-width: 0.8"/>
      </g>
     </g>
     <g id="text_3">
      <!-- 200 -->
      <g transform="translate(194.41104 322.182437) scale(0.1 -0.1)">
       <defs>
        <path id="DejaVuSans-32" d="M 1228 531 
L 3431 531 
L 3431 0 
L 469 0 
L 469 531 
Q 828 903 1448 1529 
Q 2069 2156 2228 2338 
Q 2531 2678 2651 2914 
Q 2772 3150 2772 3378 
Q 2772 3750 2511 3984 
Q 2250 4219 1831 4219 
Q 1534 4219 1204 4116 
Q 875 4013 500 3803 
L 500 4441 
Q 881 4594 1212 4672 
Q 1544 4750 1819 4750 
Q 2544 4750 2975 4387 
Q 3406 4025 3406 3419 
Q 3406 3131 3298 2873 
Q 3191 2616 2906 2266 
Q 2828 2175 2409 1742 
Q 1991 1309 1228 531 
z
" transform="scale(0.015625)"/>
       </defs>
       <use xlink:href="#DejaVuSans-32"/>
       <use xlink:href="#DejaVuSans-30" x="63.623047"/>
       <use xlink:href="#DejaVuSans-30" x="127.246094"/>
      </g>
     </g>
    </g>
    <g id="xtick_4">
     <g id="line2d_4">
      <g>
       <use xlink:href="#mc5456caf13" x="269.015821" y="307.584" style="stroke: #000000; stroke-width: 0.8"/>
      </g>
     </g>
     <g id="text_4">
      <!-- 300 -->
      <g transform="translate(259.472071 322.182437) scale(0.1 -0.1)">
       <defs>
        <path id="DejaVuSans-33" d="M 2597 2516 
Q 3050 2419 3304 2112 
Q 3559 1806 3559 1356 
Q 3559 666 3084 287 
Q 2609 -91 1734 -91 
Q 1441 -91 1130 -33 
Q 819 25 488 141 
L 488 750 
Q 750 597 1062 519 
Q 1375 441 1716 441 
Q 2309 441 2620 675 
Q 2931 909 2931 1356 
Q 2931 1769 2642 2001 
Q 2353 2234 1838 2234 
L 1294 2234 
L 1294 2753 
L 1863 2753 
Q 2328 2753 2575 2939 
Q 2822 3125 2822 3475 
Q 2822 3834 2567 4026 
Q 2313 4219 1838 4219 
Q 1578 4219 1281 4162 
Q 984 4106 628 3988 
L 628 4550 
Q 988 4650 1302 4700 
Q 1616 4750 1894 4750 
Q 2613 4750 3031 4423 
Q 3450 4097 3450 3541 
Q 3450 3153 3228 2886 
Q 3006 2619 2597 2516 
z
" transform="scale(0.015625)"/>
       </defs>
       <use xlink:href="#DejaVuSans-33"/>
       <use xlink:href="#DejaVuSans-30" x="63.623047"/>
       <use xlink:href="#DejaVuSans-30" x="127.246094"/>
      </g>
     </g>
    </g>
    <g id="xtick_5">
     <g id="line2d_5">
      <g>
       <use xlink:href="#mc5456caf13" x="334.076852" y="307.584" style="stroke: #000000; stroke-width: 0.8"/>
      </g>
     </g>
     <g id="text_5">
      <!-- 400 -->
      <g transform="translate(324.533102 322.182437) scale(0.1 -0.1)">
       <defs>
        <path id="DejaVuSans-34" d="M 2419 4116 
L 825 1625 
L 2419 1625 
L 2419 4116 
z
M 2253 4666 
L 3047 4666 
L 3047 1625 
L 3713 1625 
L 3713 1100 
L 3047 1100 
L 3047 0 
L 2419 0 
L 2419 1100 
L 313 1100 
L 313 1709 
L 2253 4666 
z
" transform="scale(0.015625)"/>
       </defs>
       <use xlink:href="#DejaVuSans-34"/>
       <use xlink:href="#DejaVuSans-30" x="63.623047"/>
       <use xlink:href="#DejaVuSans-30" x="127.246094"/>
      </g>
     </g>
    </g>
    <g id="xtick_6">
     <g id="line2d_6">
      <g>
       <use xlink:href="#mc5456caf13" x="399.137883" y="307.584" style="stroke: #000000; stroke-width: 0.8"/>
      </g>
     </g>
     <g id="text_6">
      <!-- 500 -->
      <g transform="translate(389.594133 322.182437) scale(0.1 -0.1)">
       <defs>
        <path id="DejaVuSans-35" d="M 691 4666 
L 3169 4666 
L 3169 4134 
L 1269 4134 
L 1269 2991 
Q 1406 3038 1543 3061 
Q 1681 3084 1819 3084 
Q 2600 3084 3056 2656 
Q 3513 2228 3513 1497 
Q 3513 744 3044 326 
Q 2575 -91 1722 -91 
Q 1428 -91 1123 -41 
Q 819 9 494 109 
L 494 744 
Q 775 591 1075 516 
Q 1375 441 1709 441 
Q 2250 441 2565 725 
Q 2881 1009 2881 1497 
Q 2881 1984 2565 2268 
Q 2250 2553 1709 2553 
Q 1456 2553 1204 2497 
Q 953 2441 691 2322 
L 691 4666 
z
" transform="scale(0.015625)"/>
       </defs>
       <use xlink:href="#DejaVuSans-35"/>
       <use xlink:href="#DejaVuSans-30" x="63.623047"/>
       <use xlink:href="#DejaVuSans-30" x="127.246094"/>
      </g>
     </g>
    </g>
   </g>
   <g id="matplotlib.axis_2">
    <g id="ytick_1">
     <g id="line2d_7">
      <defs>
       <path id="ma3f1cebee2" d="M 0 0 
L -3.5 0 
" style="stroke: #000000; stroke-width: 0.8"/>
      </defs>
      <g>
       <use xlink:href="#ma3f1cebee2" x="57.6" y="142.790519" style="stroke: #000000; stroke-width: 0.8"/>
      </g>
     </g>
     <g id="text_7">
      <!-- $\mathdefault{10^{-2}}$ -->
      <g transform="translate(27.1 146.589738) scale(0.1 -0.1)">
       <defs>
        <path id="DejaVuSans-2212" d="M 678 2272 
L 4684 2272 
L 4684 1741 
L 678 1741 
L 678 2272 
z
" transform="scale(0.015625)"/>
       </defs>
       <use xlink:href="#DejaVuSans-31" transform="translate(0 0.765625)"/>
       <use xlink:href="#DejaVuSans-30" transform="translate(63.623047 0.765625)"/>
       <use xlink:href="#DejaVuSans-2212" transform="translate(128.203125 39.046875) scale(0.7)"/>
       <use xlink:href="#DejaVuSans-32" transform="translate(186.855469 39.046875) scale(0.7)"/>
      </g>
     </g>
    </g>
    <g id="ytick_2">
     <g id="line2d_8">
      <defs>
       <path id="m4589622282" d="M 0 0 
L -2 0 
" style="stroke: #000000; stroke-width: 0.6"/>
      </defs>
      <g>
       <use xlink:href="#m4589622282" x="57.6" y="284.092749" style="stroke: #000000; stroke-width: 0.6"/>
      </g>
     </g>
    </g>
    <g id="ytick_3">
     <g id="line2d_9">
      <g>
       <use xlink:href="#m4589622282" x="57.6" y="248.49453" style="stroke: #000000; stroke-width: 0.6"/>
      </g>
     </g>
    </g>
    <g id="ytick_4">
     <g id="line2d_10">
      <g>
       <use xlink:href="#m4589622282" x="57.6" y="223.237191" style="stroke: #000000; stroke-width: 0.6"/>
      </g>
     </g>
    </g>
    <g id="ytick_5">
     <g id="line2d_11">
      <g>
       <use xlink:href="#m4589622282" x="57.6" y="203.646077" style="stroke: #000000; stroke-width: 0.6"/>
      </g>
     </g>
    </g>
    <g id="ytick_6">
     <g id="line2d_12">
      <g>
       <use xlink:href="#m4589622282" x="57.6" y="187.638972" style="stroke: #000000; stroke-width: 0.6"/>
      </g>
     </g>
    </g>
    <g id="ytick_7">
     <g id="line2d_13">
      <g>
       <use xlink:href="#m4589622282" x="57.6" y="174.105157" style="stroke: #000000; stroke-width: 0.6"/>
      </g>
     </g>
    </g>
    <g id="ytick_8">
     <g id="line2d_14">
      <g>
       <use xlink:href="#m4589622282" x="57.6" y="162.381633" style="stroke: #000000; stroke-width: 0.6"/>
      </g>
     </g>
    </g>
    <g id="ytick_9">
     <g id="line2d_15">
      <g>
       <use xlink:href="#m4589622282" x="57.6" y="152.040752" style="stroke: #000000; stroke-width: 0.6"/>
      </g>
     </g>
    </g>
    <g id="ytick_10">
     <g id="line2d_16">
      <g>
       <use xlink:href="#m4589622282" x="57.6" y="81.934961" style="stroke: #000000; stroke-width: 0.6"/>
      </g>
     </g>
    </g>
    <g id="ytick_11">
     <g id="line2d_17">
      <g>
       <use xlink:href="#m4589622282" x="57.6" y="46.336741" style="stroke: #000000; stroke-width: 0.6"/>
      </g>
     </g>
    </g>
   </g>
   <g id="line2d_18">
    <path d="M 73.832727 53.568 
L 74.483338 83.903636 
L 75.784558 113.916478 
L 76.435169 115.240518 
L 77.085779 112.901413 
L 77.736389 118.505341 
L 78.386999 121.279025 
L 79.03761 118.821723 
L 79.68822 128.772314 
L 80.33883 135.862878 
L 80.989441 139.542372 
L 81.640051 141.935297 
L 82.290661 146.440124 
L 82.941272 147.820208 
L 83.591882 155.593052 
L 84.242492 161.886136 
L 84.893103 162.042088 
L 85.543713 169.809099 
L 86.194323 158.008971 
L 87.495544 168.636479 
L 88.146154 174.110281 
L 88.796764 170.009146 
L 89.447375 170.43309 
L 90.097985 161.90868 
L 90.748595 172.035325 
L 91.399206 171.20818 
L 92.049816 184.170644 
L 93.351037 179.309227 
L 94.001647 173.646424 
L 94.652257 172.096066 
L 95.302868 174.211424 
L 95.953478 181.014032 
L 96.604088 176.247677 
L 97.254698 175.82398 
L 97.905309 188.048608 
L 98.555919 192.174315 
L 99.206529 193.966135 
L 99.85714 191.478036 
L 100.50775 187.082869 
L 101.15836 181.885832 
L 101.808971 191.646048 
L 102.459581 188.980469 
L 103.110191 184.431047 
L 103.760802 177.765345 
L 104.411412 189.763229 
L 105.062022 195.932195 
L 105.712633 196.884103 
L 106.363243 204.782326 
L 107.013853 202.703577 
L 107.664463 201.832679 
L 108.315074 194.543587 
L 108.965684 196.044621 
L 109.616294 198.472015 
L 110.266905 207.886985 
L 110.917515 194.16797 
L 111.568125 202.112846 
L 112.218736 203.597058 
L 112.869346 206.228529 
L 113.519956 206.718749 
L 114.170567 209.69647 
L 114.821177 210.98021 
L 116.122398 208.211452 
L 116.773008 208.204563 
L 117.423618 211.246514 
L 118.074228 205.195065 
L 118.724839 208.206777 
L 119.375449 213.269158 
L 120.026059 209.442408 
L 120.67667 210.283828 
L 121.32728 209.020719 
L 121.97789 211.991951 
L 122.628501 218.014715 
L 123.279111 216.540447 
L 123.929721 219.37301 
L 124.580332 216.785368 
L 125.230942 216.760432 
L 125.881552 220.740255 
L 126.532163 205.906445 
L 127.182773 204.852321 
L 127.833383 216.690722 
L 128.483993 217.513496 
L 129.134604 212.30083 
L 129.785214 218.776229 
L 130.435824 213.239317 
L 131.086435 208.865963 
L 131.737045 214.06056 
L 132.387655 213.962977 
L 133.038266 226.673501 
L 133.688876 228.220326 
L 134.339486 224.060061 
L 134.990097 227.032678 
L 135.640707 225.346589 
L 136.291317 230.897421 
L 136.941927 223.768153 
L 137.592538 231.087058 
L 138.243148 216.009772 
L 138.893758 206.98312 
L 139.544369 219.673316 
L 140.194979 219.629139 
L 140.845589 223.80142 
L 141.4962 232.407321 
L 142.14681 228.948128 
L 142.79742 228.161596 
L 143.448031 228.601008 
L 144.098641 224.879232 
L 144.749251 230.479009 
L 145.399862 231.876848 
L 146.050472 237.143534 
L 146.701082 240.451902 
L 147.351692 237.75021 
L 148.002303 233.142102 
L 148.652913 236.847353 
L 149.303523 236.560455 
L 149.954134 238.018834 
L 150.604744 231.788612 
L 151.905965 202.61063 
L 152.556575 200.091129 
L 153.207185 214.606086 
L 153.857796 222.470409 
L 154.508406 226.384466 
L 155.159016 228.696019 
L 155.809627 234.191868 
L 156.460237 236.647524 
L 157.110847 233.316449 
L 157.761457 231.02873 
L 158.412068 229.597442 
L 159.062678 233.674346 
L 159.713288 237.017768 
L 160.363899 230.358062 
L 161.014509 238.998711 
L 161.665119 229.490174 
L 162.31573 236.692575 
L 162.96634 245.398999 
L 163.61695 244.186568 
L 164.267561 243.443026 
L 164.918171 227.286697 
L 165.568781 220.752062 
L 166.219392 236.333534 
L 166.870002 232.488415 
L 167.520612 240.118092 
L 168.171222 245.498325 
L 168.821833 247.426431 
L 169.472443 242.075431 
L 170.123053 234.098106 
L 170.773664 241.621436 
L 171.424274 244.26246 
L 172.074884 242.585866 
L 172.725495 242.833382 
L 173.376105 229.213588 
L 174.026715 203.399059 
L 174.677326 227.7064 
L 175.327936 233.74311 
L 175.978546 233.323312 
L 177.279767 236.796223 
L 177.930377 234.931448 
L 178.580987 236.855206 
L 179.231598 229.753617 
L 179.882208 225.926101 
L 180.532818 237.107007 
L 181.183429 233.110135 
L 181.834039 246.037809 
L 183.13526 251.981991 
L 183.78587 248.200667 
L 184.43648 240.684366 
L 185.087091 236.302433 
L 185.737701 249.536583 
L 186.388311 237.723311 
L 187.038921 239.824635 
L 187.689532 249.572631 
L 188.340142 255.876381 
L 188.990752 256.569206 
L 189.641363 249.885645 
L 190.291973 238.123887 
L 190.942583 240.383202 
L 191.593194 243.558132 
L 192.243804 243.588568 
L 192.894414 247.034775 
L 193.545025 235.037722 
L 194.195635 243.679258 
L 194.846245 243.917887 
L 195.496856 254.130226 
L 196.147466 248.784039 
L 196.798076 258.155277 
L 197.448686 256.576203 
L 198.099297 252.379237 
L 198.749907 257.447154 
L 199.400517 253.71473 
L 200.051128 253.05382 
L 200.701738 254.612062 
L 201.352348 252.893569 
L 202.002959 252.315086 
L 202.653569 245.033346 
L 203.304179 250.751526 
L 203.95479 251.38361 
L 204.6054 248.834171 
L 205.25601 256.326462 
L 205.906621 255.270513 
L 206.557231 260.319935 
L 207.207841 255.472325 
L 207.858451 263.352097 
L 208.509062 258.93685 
L 209.159672 248.369696 
L 209.810282 252.962347 
L 210.460893 259.020904 
L 211.111503 255.011992 
L 211.762113 258.068979 
L 212.412724 259.987657 
L 213.063334 260.110729 
L 213.713944 240.767676 
L 214.364555 255.111774 
L 215.015165 255.889742 
L 215.665775 252.257697 
L 216.316385 255.442941 
L 216.966996 260.185671 
L 217.617606 258.950778 
L 218.268216 261.051573 
L 218.918827 254.893708 
L 220.220047 263.064778 
L 220.870658 264.036807 
L 221.521268 259.844696 
L 222.171878 264.073589 
L 222.822489 266.241983 
L 223.473099 250.167005 
L 224.123709 237.415517 
L 224.77432 245.670087 
L 225.42493 247.696062 
L 226.07554 247.354024 
L 226.72615 256.406599 
L 227.376761 254.649518 
L 228.027371 256.662514 
L 228.677981 257.658778 
L 229.328592 233.748174 
L 229.979202 221.101887 
L 230.629812 227.208699 
L 231.280423 181.931039 
L 231.931033 213.704357 
L 232.581643 221.33272 
L 233.232254 227.522332 
L 233.882864 238.912925 
L 234.533474 243.412923 
L 235.184085 248.967544 
L 235.834695 256.103234 
L 237.135915 251.390593 
L 237.786526 252.830973 
L 238.437136 258.326853 
L 239.087746 260.973289 
L 239.738357 262.741419 
L 240.388967 266.571793 
L 241.039577 267.937803 
L 241.690188 262.689738 
L 242.340798 269.858987 
L 242.991408 263.944466 
L 243.642019 266.86604 
L 244.292629 267.162752 
L 244.943239 269.659101 
L 245.59385 268.830671 
L 246.24446 267.683619 
L 246.89507 264.301261 
L 247.54568 267.287837 
L 248.196291 267.169618 
L 248.846901 268.446955 
L 249.497511 258.584466 
L 250.148122 260.303819 
L 250.798732 262.958261 
L 251.449342 262.336773 
L 252.099953 262.996725 
L 252.750563 266.623276 
L 253.401173 268.951659 
L 254.051784 266.607816 
L 254.702394 269.450966 
L 255.353004 268.518739 
L 256.003615 264.176959 
L 256.654225 252.77763 
L 257.304835 252.396369 
L 257.955445 255.70052 
L 258.606056 261.121437 
L 259.256666 264.531495 
L 259.907276 269.821779 
L 260.557887 269.207038 
L 261.208497 267.30306 
L 261.859107 268.530271 
L 262.509718 266.679834 
L 263.160328 269.932564 
L 263.810938 268.509807 
L 264.461549 263.724161 
L 265.112159 265.717109 
L 265.762769 266.737833 
L 266.413379 266.154343 
L 267.7146 272.149572 
L 268.36521 270.670159 
L 269.015821 273.877078 
L 269.666431 265.922185 
L 270.317041 268.587074 
L 270.967652 266.767669 
L 271.618262 270.760226 
L 272.268872 273.451499 
L 272.919483 269.957448 
L 273.570093 270.795568 
L 274.220703 262.135068 
L 274.871314 251.004154 
L 275.521924 256.657707 
L 276.172534 260.438578 
L 276.823144 267.616205 
L 277.473755 270.547218 
L 278.124365 265.406708 
L 278.774975 263.410892 
L 279.425586 273.172947 
L 280.076196 264.783039 
L 280.726806 262.561802 
L 281.377417 272.332671 
L 282.028027 261.077864 
L 282.678637 266.41255 
L 283.329248 263.828807 
L 283.979858 267.926826 
L 284.630468 261.949234 
L 285.281079 271.081329 
L 285.931689 275.468172 
L 286.582299 277.473853 
L 287.232909 272.487853 
L 287.88352 272.697754 
L 288.53413 272.248203 
L 289.18474 268.462491 
L 289.835351 271.501235 
L 290.485961 273.667569 
L 291.136571 272.519367 
L 291.787182 275.248434 
L 292.437792 275.325144 
L 293.088402 277.092619 
L 293.739013 274.277601 
L 294.389623 277.692778 
L 295.040233 277.909171 
L 295.690844 280.493469 
L 296.341454 275.224509 
L 296.992064 275.960178 
L 297.642674 276.251787 
L 298.293285 271.938588 
L 298.943895 272.806937 
L 299.594505 271.940241 
L 300.245116 261.84752 
L 300.895726 269.714055 
L 301.546336 271.727873 
L 302.196947 270.041035 
L 302.847557 274.985276 
L 303.498167 276.528525 
L 304.148778 275.97511 
L 304.799388 279.726827 
L 305.449998 279.554012 
L 306.100608 277.412278 
L 306.751219 278.589579 
L 307.401829 270.715844 
L 308.052439 278.242683 
L 308.70305 269.814662 
L 309.35366 268.816228 
L 310.00427 275.617471 
L 310.654881 273.66411 
L 311.305491 273.654873 
L 311.956101 275.058632 
L 312.606712 268.484793 
L 313.257322 274.418738 
L 313.907932 271.507134 
L 314.558543 259.416596 
L 315.209153 272.615318 
L 315.859763 273.708081 
L 316.510373 271.485419 
L 317.160984 272.869726 
L 317.811594 277.434212 
L 318.462204 280.310133 
L 319.763425 283.923277 
L 320.414035 281.460502 
L 321.064646 282.276168 
L 321.715256 281.496982 
L 322.365866 280.189244 
L 323.016477 272.180599 
L 323.667087 277.959884 
L 324.317697 275.536153 
L 324.968308 278.660449 
L 325.618918 273.186764 
L 326.269528 283.774318 
L 326.920138 271.563647 
L 327.570749 279.746373 
L 328.221359 286.058301 
L 328.871969 284.283788 
L 329.52258 287.905936 
L 330.17319 286.205629 
L 330.8238 286.167956 
L 331.474411 271.922834 
L 332.125021 275.555938 
L 332.775631 280.104412 
L 333.426242 281.430378 
L 334.076852 284.011685 
L 334.727462 271.142778 
L 335.378073 270.576381 
L 336.028683 280.768512 
L 336.679293 275.01588 
L 337.329903 282.010662 
L 337.980514 268.932548 
L 338.631124 271.723535 
L 339.281734 273.743879 
L 339.932345 278.972925 
L 340.582955 283.114695 
L 341.233565 283.032838 
L 341.884176 278.587956 
L 342.534786 272.815344 
L 343.185396 277.071606 
L 343.836007 271.185134 
L 344.486617 259.693386 
L 345.137227 250.204494 
L 345.787837 263.601786 
L 346.438448 259.589708 
L 347.089058 269.109419 
L 347.739668 274.133285 
L 348.390279 287.385482 
L 349.040889 284.353287 
L 349.691499 274.994722 
L 350.34211 281.95679 
L 350.99272 278.085043 
L 351.64333 275.400419 
L 352.293941 279.03608 
L 352.944551 285.018624 
L 353.595161 281.420229 
L 354.245772 282.607676 
L 354.896382 275.619253 
L 355.546992 253.480095 
L 356.197602 250.778962 
L 356.848213 262.196273 
L 357.498823 267.478058 
L 359.450654 272.504976 
L 360.101264 280.044417 
L 360.751875 277.046009 
L 361.402485 284.045085 
L 362.053095 285.529308 
L 362.703706 283.099424 
L 363.354316 277.430658 
L 364.004926 275.230595 
L 364.655537 286.630994 
L 365.956757 281.465389 
L 367.257978 292.237401 
L 367.908588 289.444712 
L 368.559198 285.364649 
L 369.209809 289.488913 
L 369.860419 290.53889 
L 370.511029 279.661075 
L 371.16164 289.703622 
L 371.81225 287.385828 
L 372.46286 286.276075 
L 373.113471 285.9371 
L 373.764081 269.372575 
L 374.414691 272.452049 
L 375.065302 281.297991 
L 375.715912 277.043565 
L 376.366522 274.968309 
L 377.017132 286.793033 
L 377.667743 280.930898 
L 378.318353 287.303818 
L 378.968963 289.541084 
L 379.619574 286.675803 
L 380.270184 287.949376 
L 381.571405 265.298366 
L 382.222015 273.841938 
L 382.872625 276.07183 
L 383.523236 279.580054 
L 384.173846 285.119411 
L 384.824456 287.319207 
L 385.475066 284.990293 
L 386.125677 288.486151 
L 386.776287 284.824097 
L 387.426897 286.817612 
L 388.077508 286.015691 
L 388.728118 287.713603 
L 389.378728 285.504735 
L 390.029339 288.956681 
L 390.679949 286.723184 
L 391.330559 294.409662 
L 391.98117 295.488 
L 392.63178 281.745313 
L 393.28239 273.639834 
L 393.933001 282.109505 
L 394.583611 284.549742 
L 395.234221 290.78087 
L 395.884831 289.261066 
L 396.535442 286.095689 
L 397.186052 283.624735 
L 397.836662 276.717212 
L 398.487273 276.194907 
L 398.487273 276.194907 
" clip-path="url(#pc561a52555)" style="fill: none; stroke: #1f77b4; stroke-width: 1.5; stroke-linecap: square"/>
   </g>
   <g id="line2d_19">
    <path d="M 73.832727 70.778717 
L 74.483338 91.690754 
L 75.133948 103.794497 
L 75.784558 109.948358 
L 76.435169 114.87522 
L 77.085779 117.599738 
L 77.736389 121.3927 
L 78.386999 111.346502 
L 79.03761 122.963501 
L 79.68822 128.216839 
L 80.33883 136.769051 
L 80.989441 132.52295 
L 82.290661 145.17819 
L 82.941272 147.714076 
L 83.591882 153.800582 
L 84.242492 152.221978 
L 84.893103 163.787214 
L 85.543713 163.709316 
L 86.194323 151.489206 
L 86.844934 166.178358 
L 87.495544 168.040594 
L 88.146154 172.186882 
L 88.796764 174.006625 
L 89.447375 163.361598 
L 90.097985 163.622303 
L 90.748595 169.51942 
L 91.399206 173.618529 
L 92.049816 174.811362 
L 92.700426 179.606524 
L 93.351037 181.839306 
L 94.001647 163.209511 
L 94.652257 168.186828 
L 95.302868 179.260623 
L 95.953478 171.079178 
L 96.604088 173.69219 
L 97.254698 177.33866 
L 97.905309 184.99322 
L 98.555919 185.600614 
L 99.206529 190.031389 
L 99.85714 185.833082 
L 100.50775 183.172246 
L 101.15836 185.218342 
L 101.808971 186.339789 
L 102.459581 186.765493 
L 103.110191 167.475341 
L 103.760802 187.445051 
L 104.411412 189.260304 
L 105.062022 192.318571 
L 105.712633 194.531683 
L 106.363243 194.758168 
L 107.013853 194.519048 
L 107.664463 192.846922 
L 108.315074 192.450032 
L 108.965684 189.448336 
L 109.616294 195.163377 
L 110.266905 196.659781 
L 110.917515 194.827434 
L 111.568125 198.908649 
L 112.218736 184.262085 
L 112.869346 191.073581 
L 113.519956 188.998601 
L 114.170567 200.288886 
L 114.821177 202.812588 
L 115.471787 199.854878 
L 116.122398 204.645846 
L 116.773008 204.50076 
L 117.423618 204.492966 
L 118.074228 201.797359 
L 118.724839 206.017849 
L 119.375449 198.106611 
L 120.026059 197.504248 
L 120.67667 197.394189 
L 121.32728 204.739842 
L 121.97789 204.213035 
L 122.628501 206.872406 
L 123.279111 205.728867 
L 123.929721 201.238209 
L 124.580332 207.927016 
L 125.230942 209.772296 
L 125.881552 201.85147 
L 126.532163 206.447823 
L 127.182773 203.154586 
L 127.833383 204.476204 
L 128.483993 205.468124 
L 129.134604 207.169599 
L 129.785214 208.440809 
L 130.435824 193.551889 
L 131.086435 208.350428 
L 131.737045 199.047239 
L 132.387655 210.745252 
L 133.038266 208.701265 
L 133.688876 212.532545 
L 134.339486 214.620253 
L 134.990097 209.860942 
L 135.640707 217.144349 
L 136.291317 212.319859 
L 136.941927 217.196982 
L 137.592538 214.050358 
L 138.243148 203.840424 
L 138.893758 206.009285 
L 139.544369 204.601069 
L 140.194979 210.56732 
L 140.845589 215.387369 
L 141.4962 214.647613 
L 142.14681 214.266983 
L 142.79742 215.590147 
L 143.448031 211.941847 
L 144.098641 216.276998 
L 144.749251 215.275214 
L 145.399862 217.764308 
L 146.050472 216.527559 
L 146.701082 219.662167 
L 147.351692 219.108012 
L 148.002303 220.373691 
L 148.652913 219.489371 
L 149.303523 219.622914 
L 149.954134 218.929585 
L 150.604744 186.5506 
L 151.255354 198.559731 
L 151.905965 196.741602 
L 152.556575 198.005832 
L 153.207185 208.192942 
L 153.857796 208.206148 
L 154.508406 211.508879 
L 155.159016 218.263266 
L 155.809627 220.961042 
L 156.460237 218.761169 
L 157.110847 216.134623 
L 157.761457 217.176633 
L 158.412068 221.843653 
L 159.062678 221.107303 
L 159.713288 220.875106 
L 160.363899 221.485963 
L 161.014509 212.368864 
L 161.665119 222.70312 
L 162.31573 221.345199 
L 162.96634 216.871193 
L 163.61695 219.916716 
L 164.267561 220.026891 
L 164.918171 202.47857 
L 165.568781 216.292744 
L 166.219392 212.030804 
L 166.870002 213.585963 
L 167.520612 219.508593 
L 168.171222 222.742479 
L 168.821833 222.086325 
L 169.472443 213.348706 
L 170.123053 223.280189 
L 170.773664 222.653003 
L 171.424274 221.706328 
L 172.074884 225.585978 
L 172.725495 220.269359 
L 174.026715 193.804221 
L 174.677326 213.303189 
L 175.327936 213.644737 
L 175.978546 221.503568 
L 176.629156 214.92316 
L 177.930377 222.884046 
L 178.580987 222.662011 
L 179.231598 208.541562 
L 179.882208 213.613483 
L 180.532818 215.705077 
L 181.183429 222.285965 
L 181.834039 224.057187 
L 182.484649 223.814095 
L 183.13526 224.989201 
L 183.78587 224.531476 
L 184.43648 209.135408 
L 185.087091 225.606241 
L 185.737701 220.545752 
L 186.388311 223.788402 
L 187.038921 225.780213 
L 187.689532 226.405284 
L 188.340142 226.482037 
L 188.990752 228.022337 
L 189.641363 209.097322 
L 190.291973 220.686219 
L 190.942583 222.386596 
L 191.593194 223.283604 
L 192.243804 220.333152 
L 192.894414 222.833198 
L 193.545025 216.266934 
L 194.195635 218.785554 
L 194.846245 223.914058 
L 195.496856 225.973265 
L 196.798076 229.454607 
L 197.448686 229.093567 
L 198.099297 229.079843 
L 198.749907 229.18834 
L 199.400517 227.618977 
L 200.051128 225.105237 
L 200.701738 227.834131 
L 201.352348 220.423688 
L 202.002959 218.456711 
L 202.653569 225.546048 
L 203.304179 225.105686 
L 203.95479 226.737628 
L 204.6054 224.361768 
L 205.25601 226.181512 
L 205.906621 230.129449 
L 206.557231 225.602159 
L 207.858451 228.567044 
L 208.509062 218.476476 
L 209.159672 227.785751 
L 209.810282 227.302355 
L 210.460893 229.536949 
L 211.111503 227.084569 
L 211.762113 229.003841 
L 212.412724 231.461893 
L 213.063334 219.263181 
L 213.713944 224.975767 
L 214.364555 226.907975 
L 215.015165 225.787978 
L 216.966996 231.397889 
L 217.617606 231.809295 
L 218.268216 230.856949 
L 218.918827 228.898834 
L 219.569437 230.176409 
L 220.220047 231.991477 
L 220.870658 230.489473 
L 221.521268 231.385843 
L 222.171878 232.569219 
L 222.822489 228.234937 
L 223.473099 213.398254 
L 224.123709 222.914286 
L 224.77432 225.723246 
L 225.42493 222.83754 
L 226.07554 226.531081 
L 226.72615 225.702553 
L 227.376761 228.037012 
L 228.027371 231.713073 
L 228.677981 215.465874 
L 229.328592 221.409093 
L 229.979202 208.802482 
L 230.629812 140.424932 
L 231.280423 197.412204 
L 231.931033 200.260992 
L 232.581643 208.202561 
L 233.232254 213.96702 
L 233.882864 220.890929 
L 234.533474 221.106078 
L 235.184085 224.188103 
L 235.834695 224.535405 
L 236.485305 216.761862 
L 237.135915 225.481431 
L 237.786526 227.115401 
L 238.437136 225.617824 
L 239.087746 229.019835 
L 239.738357 229.417769 
L 240.388967 229.285766 
L 241.039577 229.818564 
L 242.340798 230.268629 
L 242.991408 232.289185 
L 243.642019 231.719315 
L 244.292629 231.617058 
L 244.943239 232.998671 
L 245.59385 231.196637 
L 246.24446 230.353021 
L 246.89507 228.562488 
L 247.54568 232.923345 
L 248.196291 232.618543 
L 248.846901 223.997973 
L 249.497511 225.24823 
L 250.148122 224.874907 
L 250.798732 229.528513 
L 251.449342 232.812535 
L 252.099953 231.393997 
L 252.750563 231.817057 
L 253.401173 232.868092 
L 254.051784 231.300834 
L 254.702394 230.612294 
L 255.353004 226.78919 
L 256.003615 206.771973 
L 256.654225 222.409126 
L 257.304835 223.883905 
L 257.955445 228.856001 
L 258.606056 232.209692 
L 259.256666 232.38678 
L 259.907276 228.283213 
L 260.557887 233.920462 
L 261.208497 234.735455 
L 261.859107 233.436183 
L 262.509718 231.173525 
L 263.160328 229.821461 
L 263.810938 233.938145 
L 264.461549 231.263286 
L 265.112159 231.68165 
L 265.762769 230.322089 
L 266.413379 228.05021 
L 267.06399 233.483674 
L 267.7146 234.014847 
L 269.015821 233.092677 
L 269.666431 231.784464 
L 270.317041 232.306806 
L 270.967652 229.879784 
L 271.618262 232.805756 
L 272.268872 234.06891 
L 272.919483 233.922952 
L 273.570093 233.303468 
L 274.220703 207.89596 
L 274.871314 229.806223 
L 275.521924 226.124326 
L 276.172534 232.161041 
L 276.823144 233.247589 
L 277.473755 231.886705 
L 278.124365 231.952794 
L 278.774975 233.789917 
L 279.425586 234.830561 
L 280.076196 234.284101 
L 280.726806 234.078488 
L 281.377417 231.167219 
L 282.028027 231.679442 
L 282.678637 231.223275 
L 283.329248 227.370775 
L 283.979858 224.618519 
L 284.630468 233.675652 
L 285.281079 234.242394 
L 285.931689 235.508806 
L 287.232909 232.948034 
L 287.88352 230.559626 
L 288.53413 233.82379 
L 289.18474 235.257002 
L 289.835351 233.535402 
L 290.485961 235.409379 
L 291.136571 235.621694 
L 291.787182 234.339708 
L 292.437792 235.274115 
L 293.088402 234.456621 
L 293.739013 236.149762 
L 294.389623 234.328551 
L 295.040233 235.780253 
L 295.690844 235.798896 
L 296.341454 233.79398 
L 296.992064 235.425183 
L 297.642674 234.384658 
L 298.293285 232.780528 
L 298.943895 230.557293 
L 299.594505 228.99947 
L 300.245116 226.279312 
L 300.895726 234.24536 
L 301.546336 229.852611 
L 302.196947 234.030137 
L 302.847557 232.085692 
L 303.498167 231.414103 
L 304.148778 236.393166 
L 304.799388 234.011878 
L 305.449998 236.588591 
L 306.100608 235.992558 
L 306.751219 233.852028 
L 307.401829 233.449383 
L 308.052439 228.379504 
L 308.70305 230.070048 
L 309.35366 235.721692 
L 310.00427 234.94446 
L 310.654881 235.548435 
L 311.305491 232.738074 
L 311.956101 235.561468 
L 312.606712 231.244303 
L 313.257322 231.842514 
L 313.907932 230.825338 
L 314.558543 234.454237 
L 315.209153 234.46503 
L 315.859763 232.107909 
L 316.510373 233.540218 
L 317.160984 236.5003 
L 317.811594 235.375378 
L 319.112815 236.537293 
L 321.064646 237.165141 
L 321.715256 235.398129 
L 322.365866 236.906371 
L 323.016477 230.921177 
L 323.667087 230.865639 
L 324.317697 234.648922 
L 324.968308 231.079816 
L 325.618918 234.644109 
L 326.269528 235.26181 
L 326.920138 236.474121 
L 327.570749 236.222363 
L 328.221359 234.685093 
L 328.871969 235.420269 
L 329.52258 235.929347 
L 330.17319 238.211754 
L 330.8238 231.440008 
L 331.474411 236.974925 
L 332.125021 233.857077 
L 332.775631 232.349395 
L 333.426242 235.362754 
L 334.076852 229.179948 
L 334.727462 225.801894 
L 335.378073 234.752755 
L 336.028683 234.222629 
L 336.679293 237.326788 
L 337.329903 225.982692 
L 337.980514 226.168851 
L 338.631124 232.754219 
L 339.281734 233.423878 
L 339.932345 238.056408 
L 340.582955 237.088402 
L 341.233565 238.944075 
L 341.884176 221.207425 
L 342.534786 227.722289 
L 343.185396 231.482083 
L 343.836007 228.539129 
L 344.486617 216.295985 
L 345.137227 227.449267 
L 345.787837 230.848118 
L 346.438448 230.503364 
L 347.089058 231.152115 
L 347.739668 233.847668 
L 348.390279 236.025587 
L 349.040889 236.723502 
L 349.691499 234.879602 
L 350.34211 236.278684 
L 350.99272 236.679575 
L 351.64333 235.64148 
L 352.293941 236.378406 
L 352.944551 236.015588 
L 353.595161 236.069705 
L 354.245772 235.554971 
L 354.896382 211.499767 
L 355.546992 221.762022 
L 356.197602 223.194758 
L 356.848213 229.54753 
L 357.498823 230.455256 
L 358.149433 232.22565 
L 358.800044 235.46412 
L 359.450654 232.861656 
L 360.101264 237.541794 
L 361.402485 239.089846 
L 362.053095 235.357034 
L 362.703706 238.275466 
L 363.354316 236.474621 
L 364.004926 239.436458 
L 364.655537 234.116493 
L 365.306147 234.171076 
L 365.956757 237.318415 
L 366.607367 239.103413 
L 367.257978 236.449347 
L 368.559198 239.319296 
L 369.209809 238.295517 
L 369.860419 239.415106 
L 370.511029 236.187286 
L 371.16164 240.217915 
L 371.81225 240.879048 
L 372.46286 238.091302 
L 373.113471 220.595845 
L 373.764081 237.968756 
L 374.414691 234.396196 
L 375.065302 234.379636 
L 375.715912 229.422561 
L 376.366522 237.21421 
L 377.017132 231.776032 
L 377.667743 235.092241 
L 378.318353 239.20817 
L 378.968963 240.223422 
L 379.619574 236.434176 
L 380.270184 235.787166 
L 380.920794 208.726087 
L 381.571405 230.126859 
L 382.222015 236.068443 
L 382.872625 235.314565 
L 383.523236 235.771334 
L 384.173846 237.784091 
L 384.824456 238.326386 
L 385.475066 239.795001 
L 386.125677 237.503008 
L 386.776287 237.176853 
L 387.426897 238.09501 
L 388.077508 236.845697 
L 388.728118 238.142588 
L 390.029339 237.322333 
L 390.679949 241.117996 
L 391.330559 239.456105 
L 391.98117 238.809089 
L 392.63178 230.635836 
L 393.28239 237.206061 
L 393.933001 230.512333 
L 394.583611 237.470521 
L 395.234221 239.720061 
L 395.884831 239.104138 
L 396.535442 233.428056 
L 397.186052 237.804976 
L 397.836662 235.766091 
L 398.487273 235.273201 
L 398.487273 235.273201 
" clip-path="url(#pc561a52555)" style="fill: none; stroke: #ff7f0e; stroke-width: 1.5; stroke-linecap: square"/>
   </g>
   <g id="patch_3">
    <path d="M 57.6 307.584 
L 57.6 41.472 
" style="fill: none; stroke: #000000; stroke-width: 0.8; stroke-linejoin: miter; stroke-linecap: square"/>
   </g>
   <g id="patch_4">
    <path d="M 414.72 307.584 
L 414.72 41.472 
" style="fill: none; stroke: #000000; stroke-width: 0.8; stroke-linejoin: miter; stroke-linecap: square"/>
   </g>
   <g id="patch_5">
    <path d="M 57.6 307.584 
L 414.72 307.584 
" style="fill: none; stroke: #000000; stroke-width: 0.8; stroke-linejoin: miter; stroke-linecap: square"/>
   </g>
   <g id="patch_6">
    <path d="M 57.6 41.472 
L 414.72 41.472 
" style="fill: none; stroke: #000000; stroke-width: 0.8; stroke-linejoin: miter; stroke-linecap: square"/>
   </g>
   <g id="text_8">
    <!-- MSE loss during training -->
    <g transform="translate(163.472813 35.472) scale(0.12 -0.12)">
     <defs>
      <path id="DejaVuSans-4d" d="M 628 4666 
L 1569 4666 
L 2759 1491 
L 3956 4666 
L 4897 4666 
L 4897 0 
L 4281 0 
L 4281 4097 
L 3078 897 
L 2444 897 
L 1241 4097 
L 1241 0 
L 628 0 
L 628 4666 
z
" transform="scale(0.015625)"/>
      <path id="DejaVuSans-53" d="M 3425 4513 
L 3425 3897 
Q 3066 4069 2747 4153 
Q 2428 4238 2131 4238 
Q 1616 4238 1336 4038 
Q 1056 3838 1056 3469 
Q 1056 3159 1242 3001 
Q 1428 2844 1947 2747 
L 2328 2669 
Q 3034 2534 3370 2195 
Q 3706 1856 3706 1288 
Q 3706 609 3251 259 
Q 2797 -91 1919 -91 
Q 1588 -91 1214 -16 
Q 841 59 441 206 
L 441 856 
Q 825 641 1194 531 
Q 1563 422 1919 422 
Q 2459 422 2753 634 
Q 3047 847 3047 1241 
Q 3047 1584 2836 1778 
Q 2625 1972 2144 2069 
L 1759 2144 
Q 1053 2284 737 2584 
Q 422 2884 422 3419 
Q 422 4038 858 4394 
Q 1294 4750 2059 4750 
Q 2388 4750 2728 4690 
Q 3069 4631 3425 4513 
z
" transform="scale(0.015625)"/>
      <path id="DejaVuSans-45" d="M 628 4666 
L 3578 4666 
L 3578 4134 
L 1259 4134 
L 1259 2753 
L 3481 2753 
L 3481 2222 
L 1259 2222 
L 1259 531 
L 3634 531 
L 3634 0 
L 628 0 
L 628 4666 
z
" transform="scale(0.015625)"/>
      <path id="DejaVuSans-20" transform="scale(0.015625)"/>
      <path id="DejaVuSans-6c" d="M 603 4863 
L 1178 4863 
L 1178 0 
L 603 0 
L 603 4863 
z
" transform="scale(0.015625)"/>
      <path id="DejaVuSans-6f" d="M 1959 3097 
Q 1497 3097 1228 2736 
Q 959 2375 959 1747 
Q 959 1119 1226 758 
Q 1494 397 1959 397 
Q 2419 397 2687 759 
Q 2956 1122 2956 1747 
Q 2956 2369 2687 2733 
Q 2419 3097 1959 3097 
z
M 1959 3584 
Q 2709 3584 3137 3096 
Q 3566 2609 3566 1747 
Q 3566 888 3137 398 
Q 2709 -91 1959 -91 
Q 1206 -91 779 398 
Q 353 888 353 1747 
Q 353 2609 779 3096 
Q 1206 3584 1959 3584 
z
" transform="scale(0.015625)"/>
      <path id="DejaVuSans-73" d="M 2834 3397 
L 2834 2853 
Q 2591 2978 2328 3040 
Q 2066 3103 1784 3103 
Q 1356 3103 1142 2972 
Q 928 2841 928 2578 
Q 928 2378 1081 2264 
Q 1234 2150 1697 2047 
L 1894 2003 
Q 2506 1872 2764 1633 
Q 3022 1394 3022 966 
Q 3022 478 2636 193 
Q 2250 -91 1575 -91 
Q 1294 -91 989 -36 
Q 684 19 347 128 
L 347 722 
Q 666 556 975 473 
Q 1284 391 1588 391 
Q 1994 391 2212 530 
Q 2431 669 2431 922 
Q 2431 1156 2273 1281 
Q 2116 1406 1581 1522 
L 1381 1569 
Q 847 1681 609 1914 
Q 372 2147 372 2553 
Q 372 3047 722 3315 
Q 1072 3584 1716 3584 
Q 2034 3584 2315 3537 
Q 2597 3491 2834 3397 
z
" transform="scale(0.015625)"/>
      <path id="DejaVuSans-64" d="M 2906 2969 
L 2906 4863 
L 3481 4863 
L 3481 0 
L 2906 0 
L 2906 525 
Q 2725 213 2448 61 
Q 2172 -91 1784 -91 
Q 1150 -91 751 415 
Q 353 922 353 1747 
Q 353 2572 751 3078 
Q 1150 3584 1784 3584 
Q 2172 3584 2448 3432 
Q 2725 3281 2906 2969 
z
M 947 1747 
Q 947 1113 1208 752 
Q 1469 391 1925 391 
Q 2381 391 2643 752 
Q 2906 1113 2906 1747 
Q 2906 2381 2643 2742 
Q 2381 3103 1925 3103 
Q 1469 3103 1208 2742 
Q 947 2381 947 1747 
z
" transform="scale(0.015625)"/>
      <path id="DejaVuSans-75" d="M 544 1381 
L 544 3500 
L 1119 3500 
L 1119 1403 
Q 1119 906 1312 657 
Q 1506 409 1894 409 
Q 2359 409 2629 706 
Q 2900 1003 2900 1516 
L 2900 3500 
L 3475 3500 
L 3475 0 
L 2900 0 
L 2900 538 
Q 2691 219 2414 64 
Q 2138 -91 1772 -91 
Q 1169 -91 856 284 
Q 544 659 544 1381 
z
M 1991 3584 
L 1991 3584 
z
" transform="scale(0.015625)"/>
      <path id="DejaVuSans-72" d="M 2631 2963 
Q 2534 3019 2420 3045 
Q 2306 3072 2169 3072 
Q 1681 3072 1420 2755 
Q 1159 2438 1159 1844 
L 1159 0 
L 581 0 
L 581 3500 
L 1159 3500 
L 1159 2956 
Q 1341 3275 1631 3429 
Q 1922 3584 2338 3584 
Q 2397 3584 2469 3576 
Q 2541 3569 2628 3553 
L 2631 2963 
z
" transform="scale(0.015625)"/>
      <path id="DejaVuSans-69" d="M 603 3500 
L 1178 3500 
L 1178 0 
L 603 0 
L 603 3500 
z
M 603 4863 
L 1178 4863 
L 1178 4134 
L 603 4134 
L 603 4863 
z
" transform="scale(0.015625)"/>
      <path id="DejaVuSans-6e" d="M 3513 2113 
L 3513 0 
L 2938 0 
L 2938 2094 
Q 2938 2591 2744 2837 
Q 2550 3084 2163 3084 
Q 1697 3084 1428 2787 
Q 1159 2491 1159 1978 
L 1159 0 
L 581 0 
L 581 3500 
L 1159 3500 
L 1159 2956 
Q 1366 3272 1645 3428 
Q 1925 3584 2291 3584 
Q 2894 3584 3203 3211 
Q 3513 2838 3513 2113 
z
" transform="scale(0.015625)"/>
      <path id="DejaVuSans-67" d="M 2906 1791 
Q 2906 2416 2648 2759 
Q 2391 3103 1925 3103 
Q 1463 3103 1205 2759 
Q 947 2416 947 1791 
Q 947 1169 1205 825 
Q 1463 481 1925 481 
Q 2391 481 2648 825 
Q 2906 1169 2906 1791 
z
M 3481 434 
Q 3481 -459 3084 -895 
Q 2688 -1331 1869 -1331 
Q 1566 -1331 1297 -1286 
Q 1028 -1241 775 -1147 
L 775 -588 
Q 1028 -725 1275 -790 
Q 1522 -856 1778 -856 
Q 2344 -856 2625 -561 
Q 2906 -266 2906 331 
L 2906 616 
Q 2728 306 2450 153 
Q 2172 0 1784 0 
Q 1141 0 747 490 
Q 353 981 353 1791 
Q 353 2603 747 3093 
Q 1141 3584 1784 3584 
Q 2172 3584 2450 3431 
Q 2728 3278 2906 2969 
L 2906 3500 
L 3481 3500 
L 3481 434 
z
" transform="scale(0.015625)"/>
      <path id="DejaVuSans-74" d="M 1172 4494 
L 1172 3500 
L 2356 3500 
L 2356 3053 
L 1172 3053 
L 1172 1153 
Q 1172 725 1289 603 
Q 1406 481 1766 481 
L 2356 481 
L 2356 0 
L 1766 0 
Q 1100 0 847 248 
Q 594 497 594 1153 
L 594 3053 
L 172 3053 
L 172 3500 
L 594 3500 
L 594 4494 
L 1172 4494 
z
" transform="scale(0.015625)"/>
      <path id="DejaVuSans-61" d="M 2194 1759 
Q 1497 1759 1228 1600 
Q 959 1441 959 1056 
Q 959 750 1161 570 
Q 1363 391 1709 391 
Q 2188 391 2477 730 
Q 2766 1069 2766 1631 
L 2766 1759 
L 2194 1759 
z
M 3341 1997 
L 3341 0 
L 2766 0 
L 2766 531 
Q 2569 213 2275 61 
Q 1981 -91 1556 -91 
Q 1019 -91 701 211 
Q 384 513 384 1019 
Q 384 1609 779 1909 
Q 1175 2209 1959 2209 
L 2766 2209 
L 2766 2266 
Q 2766 2663 2505 2880 
Q 2244 3097 1772 3097 
Q 1472 3097 1187 3025 
Q 903 2953 641 2809 
L 641 3341 
Q 956 3463 1253 3523 
Q 1550 3584 1831 3584 
Q 2591 3584 2966 3190 
Q 3341 2797 3341 1997 
z
" transform="scale(0.015625)"/>
     </defs>
     <use xlink:href="#DejaVuSans-4d"/>
     <use xlink:href="#DejaVuSans-53" x="86.279297"/>
     <use xlink:href="#DejaVuSans-45" x="149.755859"/>
     <use xlink:href="#DejaVuSans-20" x="212.939453"/>
     <use xlink:href="#DejaVuSans-6c" x="244.726562"/>
     <use xlink:href="#DejaVuSans-6f" x="272.509766"/>
     <use xlink:href="#DejaVuSans-73" x="333.691406"/>
     <use xlink:href="#DejaVuSans-73" x="385.791016"/>
     <use xlink:href="#DejaVuSans-20" x="437.890625"/>
     <use xlink:href="#DejaVuSans-64" x="469.677734"/>
     <use xlink:href="#DejaVuSans-75" x="533.154297"/>
     <use xlink:href="#DejaVuSans-72" x="596.533203"/>
     <use xlink:href="#DejaVuSans-69" x="637.646484"/>
     <use xlink:href="#DejaVuSans-6e" x="665.429688"/>
     <use xlink:href="#DejaVuSans-67" x="728.808594"/>
     <use xlink:href="#DejaVuSans-20" x="792.285156"/>
     <use xlink:href="#DejaVuSans-74" x="824.072266"/>
     <use xlink:href="#DejaVuSans-72" x="863.28125"/>
     <use xlink:href="#DejaVuSans-61" x="904.394531"/>
     <use xlink:href="#DejaVuSans-69" x="965.673828"/>
     <use xlink:href="#DejaVuSans-6e" x="993.457031"/>
     <use xlink:href="#DejaVuSans-69" x="1056.835938"/>
     <use xlink:href="#DejaVuSans-6e" x="1084.619141"/>
     <use xlink:href="#DejaVuSans-67" x="1147.998047"/>
    </g>
   </g>
   <g id="legend_1">
    <g id="patch_7">
     <path d="M 304.765312 78.82825 
L 407.72 78.82825 
Q 409.72 78.82825 409.72 76.82825 
L 409.72 48.472 
Q 409.72 46.472 407.72 46.472 
L 304.765312 46.472 
Q 302.765312 46.472 302.765312 48.472 
L 302.765312 76.82825 
Q 302.765312 78.82825 304.765312 78.82825 
z
" style="fill: #ffffff; opacity: 0.8; stroke: #cccccc; stroke-linejoin: miter"/>
    </g>
    <g id="line2d_20">
     <path d="M 306.765312 54.570437 
L 316.765312 54.570437 
L 326.765312 54.570437 
" style="fill: none; stroke: #1f77b4; stroke-width: 1.5; stroke-linecap: square"/>
    </g>
    <g id="text_9">
     <!-- Train MSE loss -->
     <g transform="translate(334.765312 58.070437) scale(0.1 -0.1)">
      <defs>
       <path id="DejaVuSans-54" d="M -19 4666 
L 3928 4666 
L 3928 4134 
L 2272 4134 
L 2272 0 
L 1638 0 
L 1638 4134 
L -19 4134 
L -19 4666 
z
" transform="scale(0.015625)"/>
      </defs>
      <use xlink:href="#DejaVuSans-54"/>
      <use xlink:href="#DejaVuSans-72" x="46.333984"/>
      <use xlink:href="#DejaVuSans-61" x="87.447266"/>
      <use xlink:href="#DejaVuSans-69" x="148.726562"/>
      <use xlink:href="#DejaVuSans-6e" x="176.509766"/>
      <use xlink:href="#DejaVuSans-20" x="239.888672"/>
      <use xlink:href="#DejaVuSans-4d" x="271.675781"/>
      <use xlink:href="#DejaVuSans-53" x="357.955078"/>
      <use xlink:href="#DejaVuSans-45" x="421.431641"/>
      <use xlink:href="#DejaVuSans-20" x="484.615234"/>
      <use xlink:href="#DejaVuSans-6c" x="516.402344"/>
      <use xlink:href="#DejaVuSans-6f" x="544.185547"/>
      <use xlink:href="#DejaVuSans-73" x="605.367188"/>
      <use xlink:href="#DejaVuSans-73" x="657.466797"/>
     </g>
    </g>
    <g id="line2d_21">
     <path d="M 306.765312 69.248562 
L 316.765312 69.248562 
L 326.765312 69.248562 
" style="fill: none; stroke: #ff7f0e; stroke-width: 1.5; stroke-linecap: square"/>
    </g>
    <g id="text_10">
     <!-- Test MSE loss -->
     <g transform="translate(334.765312 72.748562) scale(0.1 -0.1)">
      <defs>
       <path id="DejaVuSans-65" d="M 3597 1894 
L 3597 1613 
L 953 1613 
Q 991 1019 1311 708 
Q 1631 397 2203 397 
Q 2534 397 2845 478 
Q 3156 559 3463 722 
L 3463 178 
Q 3153 47 2828 -22 
Q 2503 -91 2169 -91 
Q 1331 -91 842 396 
Q 353 884 353 1716 
Q 353 2575 817 3079 
Q 1281 3584 2069 3584 
Q 2775 3584 3186 3129 
Q 3597 2675 3597 1894 
z
M 3022 2063 
Q 3016 2534 2758 2815 
Q 2500 3097 2075 3097 
Q 1594 3097 1305 2825 
Q 1016 2553 972 2059 
L 3022 2063 
z
" transform="scale(0.015625)"/>
      </defs>
      <use xlink:href="#DejaVuSans-54"/>
      <use xlink:href="#DejaVuSans-65" x="44.083984"/>
      <use xlink:href="#DejaVuSans-73" x="105.607422"/>
      <use xlink:href="#DejaVuSans-74" x="157.707031"/>
      <use xlink:href="#DejaVuSans-20" x="196.916016"/>
      <use xlink:href="#DejaVuSans-4d" x="228.703125"/>
      <use xlink:href="#DejaVuSans-53" x="314.982422"/>
      <use xlink:href="#DejaVuSans-45" x="378.458984"/>
      <use xlink:href="#DejaVuSans-20" x="441.642578"/>
      <use xlink:href="#DejaVuSans-6c" x="473.429688"/>
      <use xlink:href="#DejaVuSans-6f" x="501.212891"/>
      <use xlink:href="#DejaVuSans-73" x="562.394531"/>
      <use xlink:href="#DejaVuSans-73" x="614.494141"/>
     </g>
    </g>
   </g>
  </g>
 </g>
 <defs>
  <clipPath id="pc561a52555">
   <rect x="57.6" y="41.472" width="357.12" height="266.112"/>
  </clipPath>
 </defs>
</svg>
