<?xml version="1.0" encoding="utf-8" standalone="no"?>
<!DOCTYPE svg PUBLIC "-//W3C//DTD SVG 1.1//EN"
  "http://www.w3.org/Graphics/SVG/1.1/DTD/svg11.dtd">
<svg xmlns:xlink="http://www.w3.org/1999/xlink" width="460.8pt" height="345.6pt" viewBox="0 0 460.8 345.6" xmlns="http://www.w3.org/2000/svg" version="1.1">
 <metadata>
  <rdf:RDF xmlns:dc="http://purl.org/dc/elements/1.1/" xmlns:cc="http://creativecommons.org/ns#" xmlns:rdf="http://www.w3.org/1999/02/22-rdf-syntax-ns#">
   <cc:Work>
    <dc:type rdf:resource="http://purl.org/dc/dcmitype/StillImage"/>
    <dc:date>2023-04-08T23:48:02.011251</dc:date>
    <dc:format>image/svg+xml</dc:format>
    <dc:creator>
     <cc:Agent>
      <dc:title>Matplotlib v3.6.2, https://matplotlib.org/</dc:title>
     </cc:Agent>
    </dc:creator>
   </cc:Work>
  </rdf:RDF>
 </metadata>
 <defs>
  <style type="text/css">*{stroke-linejoin: round; stroke-linecap: butt}</style>
 </defs>
 <g id="figure_1">
  <g id="patch_1">
   <path d="M 0 345.6 
L 460.8 345.6 
L 460.8 0 
L 0 0 
z
" style="fill: #ffffff"/>
  </g>
  <g id="axes_1">
   <g id="patch_2">
    <path d="M 57.6 307.584 
L 414.72 307.584 
L 414.72 41.472 
L 57.6 41.472 
z
" style="fill: #ffffff"/>
   </g>
   <g id="matplotlib.axis_1">
    <g id="xtick_1">
     <g id="line2d_1">
      <defs>
       <path id="mdd03d50133" d="M 0 0 
L 0 3.5 
" style="stroke: #000000; stroke-width: 0.8"/>
      </defs>
      <g>
       <use xlink:href="#mdd03d50133" x="73.832727" y="307.584" style="stroke: #000000; stroke-width: 0.8"/>
      </g>
     </g>
     <g id="text_1">
      <!-- 0 -->
      <g transform="translate(70.651477 322.182437) scale(0.1 -0.1)">
       <defs>
        <path id="DejaVuSans-30" d="M 2034 4250 
Q 1547 4250 1301 3770 
Q 1056 3291 1056 2328 
Q 1056 1369 1301 889 
Q 1547 409 2034 409 
Q 2525 409 2770 889 
Q 3016 1369 3016 2328 
Q 3016 3291 2770 3770 
Q 2525 4250 2034 4250 
z
M 2034 4750 
Q 2819 4750 3233 4129 
Q 3647 3509 3647 2328 
Q 3647 1150 3233 529 
Q 2819 -91 2034 -91 
Q 1250 -91 836 529 
Q 422 1150 422 2328 
Q 422 3509 836 4129 
Q 1250 4750 2034 4750 
z
" transform="scale(0.015625)"/>
       </defs>
       <use xlink:href="#DejaVuSans-30"/>
      </g>
     </g>
    </g>
    <g id="xtick_2">
     <g id="line2d_2">
      <g>
       <use xlink:href="#mdd03d50133" x="138.893758" y="307.584" style="stroke: #000000; stroke-width: 0.8"/>
      </g>
     </g>
     <g id="text_2">
      <!-- 100 -->
      <g transform="translate(129.350008 322.182437) scale(0.1 -0.1)">
       <defs>
        <path id="DejaVuSans-31" d="M 794 531 
L 1825 531 
L 1825 4091 
L 703 3866 
L 703 4441 
L 1819 4666 
L 2450 4666 
L 2450 531 
L 3481 531 
L 3481 0 
L 794 0 
L 794 531 
z
" transform="scale(0.015625)"/>
       </defs>
       <use xlink:href="#DejaVuSans-31"/>
       <use xlink:href="#DejaVuSans-30" x="63.623047"/>
       <use xlink:href="#DejaVuSans-30" x="127.246094"/>
      </g>
     </g>
    </g>
    <g id="xtick_3">
     <g id="line2d_3">
      <g>
       <use xlink:href="#mdd03d50133" x="203.95479" y="307.584" style="stroke: #000000; stroke-width: 0.8"/>
      </g>
     </g>
     <g id="text_3">
      <!-- 200 -->
      <g transform="translate(194.41104 322.182437) scale(0.1 -0.1)">
       <defs>
        <path id="DejaVuSans-32" d="M 1228 531 
L 3431 531 
L 3431 0 
L 469 0 
L 469 531 
Q 828 903 1448 1529 
Q 2069 2156 2228 2338 
Q 2531 2678 2651 2914 
Q 2772 3150 2772 3378 
Q 2772 3750 2511 3984 
Q 2250 4219 1831 4219 
Q 1534 4219 1204 4116 
Q 875 4013 500 3803 
L 500 4441 
Q 881 4594 1212 4672 
Q 1544 4750 1819 4750 
Q 2544 4750 2975 4387 
Q 3406 4025 3406 3419 
Q 3406 3131 3298 2873 
Q 3191 2616 2906 2266 
Q 2828 2175 2409 1742 
Q 1991 1309 1228 531 
z
" transform="scale(0.015625)"/>
       </defs>
       <use xlink:href="#DejaVuSans-32"/>
       <use xlink:href="#DejaVuSans-30" x="63.623047"/>
       <use xlink:href="#DejaVuSans-30" x="127.246094"/>
      </g>
     </g>
    </g>
    <g id="xtick_4">
     <g id="line2d_4">
      <g>
       <use xlink:href="#mdd03d50133" x="269.015821" y="307.584" style="stroke: #000000; stroke-width: 0.8"/>
      </g>
     </g>
     <g id="text_4">
      <!-- 300 -->
      <g transform="translate(259.472071 322.182437) scale(0.1 -0.1)">
       <defs>
        <path id="DejaVuSans-33" d="M 2597 2516 
Q 3050 2419 3304 2112 
Q 3559 1806 3559 1356 
Q 3559 666 3084 287 
Q 2609 -91 1734 -91 
Q 1441 -91 1130 -33 
Q 819 25 488 141 
L 488 750 
Q 750 597 1062 519 
Q 1375 441 1716 441 
Q 2309 441 2620 675 
Q 2931 909 2931 1356 
Q 2931 1769 2642 2001 
Q 2353 2234 1838 2234 
L 1294 2234 
L 1294 2753 
L 1863 2753 
Q 2328 2753 2575 2939 
Q 2822 3125 2822 3475 
Q 2822 3834 2567 4026 
Q 2313 4219 1838 4219 
Q 1578 4219 1281 4162 
Q 984 4106 628 3988 
L 628 4550 
Q 988 4650 1302 4700 
Q 1616 4750 1894 4750 
Q 2613 4750 3031 4423 
Q 3450 4097 3450 3541 
Q 3450 3153 3228 2886 
Q 3006 2619 2597 2516 
z
" transform="scale(0.015625)"/>
       </defs>
       <use xlink:href="#DejaVuSans-33"/>
       <use xlink:href="#DejaVuSans-30" x="63.623047"/>
       <use xlink:href="#DejaVuSans-30" x="127.246094"/>
      </g>
     </g>
    </g>
    <g id="xtick_5">
     <g id="line2d_5">
      <g>
       <use xlink:href="#mdd03d50133" x="334.076852" y="307.584" style="stroke: #000000; stroke-width: 0.8"/>
      </g>
     </g>
     <g id="text_5">
      <!-- 400 -->
      <g transform="translate(324.533102 322.182437) scale(0.1 -0.1)">
       <defs>
        <path id="DejaVuSans-34" d="M 2419 4116 
L 825 1625 
L 2419 1625 
L 2419 4116 
z
M 2253 4666 
L 3047 4666 
L 3047 1625 
L 3713 1625 
L 3713 1100 
L 3047 1100 
L 3047 0 
L 2419 0 
L 2419 1100 
L 313 1100 
L 313 1709 
L 2253 4666 
z
" transform="scale(0.015625)"/>
       </defs>
       <use xlink:href="#DejaVuSans-34"/>
       <use xlink:href="#DejaVuSans-30" x="63.623047"/>
       <use xlink:href="#DejaVuSans-30" x="127.246094"/>
      </g>
     </g>
    </g>
    <g id="xtick_6">
     <g id="line2d_6">
      <g>
       <use xlink:href="#mdd03d50133" x="399.137883" y="307.584" style="stroke: #000000; stroke-width: 0.8"/>
      </g>
     </g>
     <g id="text_6">
      <!-- 500 -->
      <g transform="translate(389.594133 322.182437) scale(0.1 -0.1)">
       <defs>
        <path id="DejaVuSans-35" d="M 691 4666 
L 3169 4666 
L 3169 4134 
L 1269 4134 
L 1269 2991 
Q 1406 3038 1543 3061 
Q 1681 3084 1819 3084 
Q 2600 3084 3056 2656 
Q 3513 2228 3513 1497 
Q 3513 744 3044 326 
Q 2575 -91 1722 -91 
Q 1428 -91 1123 -41 
Q 819 9 494 109 
L 494 744 
Q 775 591 1075 516 
Q 1375 441 1709 441 
Q 2250 441 2565 725 
Q 2881 1009 2881 1497 
Q 2881 1984 2565 2268 
Q 2250 2553 1709 2553 
Q 1456 2553 1204 2497 
Q 953 2441 691 2322 
L 691 4666 
z
" transform="scale(0.015625)"/>
       </defs>
       <use xlink:href="#DejaVuSans-35"/>
       <use xlink:href="#DejaVuSans-30" x="63.623047"/>
       <use xlink:href="#DejaVuSans-30" x="127.246094"/>
      </g>
     </g>
    </g>
   </g>
   <g id="matplotlib.axis_2">
    <g id="ytick_1">
     <g id="line2d_7">
      <defs>
       <path id="mb57fdfb322" d="M 0 0 
L -3.5 0 
" style="stroke: #000000; stroke-width: 0.8"/>
      </defs>
      <g>
       <use xlink:href="#mb57fdfb322" x="57.6" y="295.595704" style="stroke: #000000; stroke-width: 0.8"/>
      </g>
     </g>
     <g id="text_7">
      <!-- 0.0 -->
      <g transform="translate(34.696875 299.394922) scale(0.1 -0.1)">
       <defs>
        <path id="DejaVuSans-2e" d="M 684 794 
L 1344 794 
L 1344 0 
L 684 0 
L 684 794 
z
" transform="scale(0.015625)"/>
       </defs>
       <use xlink:href="#DejaVuSans-30"/>
       <use xlink:href="#DejaVuSans-2e" x="63.623047"/>
       <use xlink:href="#DejaVuSans-30" x="95.410156"/>
      </g>
     </g>
    </g>
    <g id="ytick_2">
     <g id="line2d_8">
      <g>
       <use xlink:href="#mb57fdfb322" x="57.6" y="259.629016" style="stroke: #000000; stroke-width: 0.8"/>
      </g>
     </g>
     <g id="text_8">
      <!-- 0.1 -->
      <g transform="translate(34.696875 263.428235) scale(0.1 -0.1)">
       <use xlink:href="#DejaVuSans-30"/>
       <use xlink:href="#DejaVuSans-2e" x="63.623047"/>
       <use xlink:href="#DejaVuSans-31" x="95.410156"/>
      </g>
     </g>
    </g>
    <g id="ytick_3">
     <g id="line2d_9">
      <g>
       <use xlink:href="#mb57fdfb322" x="57.6" y="223.662329" style="stroke: #000000; stroke-width: 0.8"/>
      </g>
     </g>
     <g id="text_9">
      <!-- 0.2 -->
      <g transform="translate(34.696875 227.461548) scale(0.1 -0.1)">
       <use xlink:href="#DejaVuSans-30"/>
       <use xlink:href="#DejaVuSans-2e" x="63.623047"/>
       <use xlink:href="#DejaVuSans-32" x="95.410156"/>
      </g>
     </g>
    </g>
    <g id="ytick_4">
     <g id="line2d_10">
      <g>
       <use xlink:href="#mb57fdfb322" x="57.6" y="187.695642" style="stroke: #000000; stroke-width: 0.8"/>
      </g>
     </g>
     <g id="text_10">
      <!-- 0.3 -->
      <g transform="translate(34.696875 191.49486) scale(0.1 -0.1)">
       <use xlink:href="#DejaVuSans-30"/>
       <use xlink:href="#DejaVuSans-2e" x="63.623047"/>
       <use xlink:href="#DejaVuSans-33" x="95.410156"/>
      </g>
     </g>
    </g>
    <g id="ytick_5">
     <g id="line2d_11">
      <g>
       <use xlink:href="#mb57fdfb322" x="57.6" y="151.728954" style="stroke: #000000; stroke-width: 0.8"/>
      </g>
     </g>
     <g id="text_11">
      <!-- 0.4 -->
      <g transform="translate(34.696875 155.528173) scale(0.1 -0.1)">
       <use xlink:href="#DejaVuSans-30"/>
       <use xlink:href="#DejaVuSans-2e" x="63.623047"/>
       <use xlink:href="#DejaVuSans-34" x="95.410156"/>
      </g>
     </g>
    </g>
    <g id="ytick_6">
     <g id="line2d_12">
      <g>
       <use xlink:href="#mb57fdfb322" x="57.6" y="115.762267" style="stroke: #000000; stroke-width: 0.8"/>
      </g>
     </g>
     <g id="text_12">
      <!-- 0.5 -->
      <g transform="translate(34.696875 119.561486) scale(0.1 -0.1)">
       <use xlink:href="#DejaVuSans-30"/>
       <use xlink:href="#DejaVuSans-2e" x="63.623047"/>
       <use xlink:href="#DejaVuSans-35" x="95.410156"/>
      </g>
     </g>
    </g>
    <g id="ytick_7">
     <g id="line2d_13">
      <g>
       <use xlink:href="#mb57fdfb322" x="57.6" y="79.79558" style="stroke: #000000; stroke-width: 0.8"/>
      </g>
     </g>
     <g id="text_13">
      <!-- 0.6 -->
      <g transform="translate(34.696875 83.594798) scale(0.1 -0.1)">
       <defs>
        <path id="DejaVuSans-36" d="M 2113 2584 
Q 1688 2584 1439 2293 
Q 1191 2003 1191 1497 
Q 1191 994 1439 701 
Q 1688 409 2113 409 
Q 2538 409 2786 701 
Q 3034 994 3034 1497 
Q 3034 2003 2786 2293 
Q 2538 2584 2113 2584 
z
M 3366 4563 
L 3366 3988 
Q 3128 4100 2886 4159 
Q 2644 4219 2406 4219 
Q 1781 4219 1451 3797 
Q 1122 3375 1075 2522 
Q 1259 2794 1537 2939 
Q 1816 3084 2150 3084 
Q 2853 3084 3261 2657 
Q 3669 2231 3669 1497 
Q 3669 778 3244 343 
Q 2819 -91 2113 -91 
Q 1303 -91 875 529 
Q 447 1150 447 2328 
Q 447 3434 972 4092 
Q 1497 4750 2381 4750 
Q 2619 4750 2861 4703 
Q 3103 4656 3366 4563 
z
" transform="scale(0.015625)"/>
       </defs>
       <use xlink:href="#DejaVuSans-30"/>
       <use xlink:href="#DejaVuSans-2e" x="63.623047"/>
       <use xlink:href="#DejaVuSans-36" x="95.410156"/>
      </g>
     </g>
    </g>
    <g id="ytick_8">
     <g id="line2d_14">
      <g>
       <use xlink:href="#mb57fdfb322" x="57.6" y="43.828892" style="stroke: #000000; stroke-width: 0.8"/>
      </g>
     </g>
     <g id="text_14">
      <!-- 0.7 -->
      <g transform="translate(34.696875 47.628111) scale(0.1 -0.1)">
       <defs>
        <path id="DejaVuSans-37" d="M 525 4666 
L 3525 4666 
L 3525 4397 
L 1831 0 
L 1172 0 
L 2766 4134 
L 525 4134 
L 525 4666 
z
" transform="scale(0.015625)"/>
       </defs>
       <use xlink:href="#DejaVuSans-30"/>
       <use xlink:href="#DejaVuSans-2e" x="63.623047"/>
       <use xlink:href="#DejaVuSans-37" x="95.410156"/>
      </g>
     </g>
    </g>
   </g>
   <g id="line2d_15">
    <path d="M 73.832727 286.128476 
L 74.483338 295.4719 
L 76.435169 295.462278 
L 80.989441 295.459093 
L 82.290661 295.357722 
L 83.591882 295.260673 
L 84.242492 294.918553 
L 84.893103 295.182239 
L 86.194323 295.023761 
L 86.844934 295.051146 
L 87.495544 295.267546 
L 88.146154 294.637984 
L 89.447375 294.360714 
L 90.097985 294.61184 
L 90.748595 294.619839 
L 91.399206 292.811351 
L 92.049816 293.702597 
L 92.700426 294.88625 
L 94.001647 294.671914 
L 95.302868 294.409026 
L 96.604088 294.457499 
L 97.254698 294.030495 
L 97.905309 293.959125 
L 98.555919 293.690326 
L 99.206529 294.725705 
L 99.85714 295.026196 
L 100.50775 293.235957 
L 101.15836 293.252073 
L 101.808971 291.004605 
L 102.459581 289.557544 
L 103.110191 289.351973 
L 103.760802 289.5036 
L 104.411412 292.243953 
L 105.062022 291.819726 
L 105.712633 290.69041 
L 106.363243 287.866801 
L 107.013853 281.06249 
L 107.664463 266.399643 
L 108.315074 255.895012 
L 108.965684 256.522524 
L 109.616294 261.545542 
L 110.266905 265.2275 
L 110.917515 258.385412 
L 111.568125 259.799925 
L 112.218736 280.762808 
L 113.519956 234.616013 
L 114.170567 232.350174 
L 114.821177 241.436886 
L 115.471787 239.028142 
L 116.122398 228.587984 
L 116.773008 244.187177 
L 117.423618 234.044343 
L 118.074228 217.652437 
L 118.724839 255.214165 
L 119.375449 245.666187 
L 120.026059 244.72047 
L 120.67667 230.759139 
L 121.32728 231.124742 
L 121.97789 232.892275 
L 122.628501 228.806199 
L 123.279111 244.548205 
L 123.929721 215.630799 
L 124.580332 199.441686 
L 125.230942 208.492892 
L 125.881552 205.185517 
L 126.532163 209.111823 
L 127.182773 239.510971 
L 127.833383 231.833807 
L 128.483993 200.830238 
L 129.134604 190.914192 
L 129.785214 198.213312 
L 130.435824 229.800525 
L 131.086435 225.237722 
L 131.737045 215.105821 
L 132.387655 186.376899 
L 133.038266 233.706112 
L 133.688876 239.987423 
L 134.339486 211.321602 
L 134.990097 218.244244 
L 135.640707 216.739569 
L 136.291317 200.352916 
L 136.941927 195.624052 
L 137.592538 198.600754 
L 138.243148 205.356573 
L 138.893758 205.710523 
L 139.544369 191.652776 
L 140.194979 187.56864 
L 140.845589 198.716552 
L 141.4962 176.664258 
L 142.14681 179.009696 
L 142.79742 185.52651 
L 143.448031 178.538257 
L 144.098641 197.327415 
L 144.749251 165.533211 
L 145.399862 166.223297 
L 146.050472 166.502497 
L 146.701082 174.658716 
L 147.351692 164.086225 
L 148.002303 160.598348 
L 148.652913 257.797737 
L 149.303523 265.393535 
L 150.604744 181.110785 
L 151.255354 193.515873 
L 151.905965 180.805042 
L 152.556575 229.442073 
L 153.207185 211.500443 
L 153.857796 164.084204 
L 154.508406 219.276364 
L 155.159016 193.948427 
L 155.809627 200.217371 
L 156.460237 188.213768 
L 157.110847 192.054567 
L 157.761457 159.30449 
L 158.412068 176.661201 
L 159.062678 177.316243 
L 159.713288 173.517903 
L 160.363899 167.487488 
L 161.014509 160.240777 
L 161.665119 159.990935 
L 162.31573 150.360691 
L 162.96634 171.599295 
L 163.61695 151.740748 
L 164.267561 167.936552 
L 164.918171 180.872241 
L 165.568781 200.016039 
L 166.219392 196.467186 
L 166.870002 150.951 
L 167.520612 163.930287 
L 168.171222 173.211994 
L 168.821833 189.375722 
L 169.472443 177.924048 
L 170.123053 175.650194 
L 170.773664 187.96474 
L 171.424274 158.781416 
L 172.074884 163.652483 
L 172.725495 163.074232 
L 173.376105 145.036799 
L 174.026715 186.416127 
L 174.677326 157.832337 
L 175.327936 154.233978 
L 175.978546 138.333353 
L 176.629156 156.606164 
L 177.279767 148.057287 
L 177.930377 146.080153 
L 178.580987 134.987082 
L 179.231598 171.355388 
L 179.882208 238.463127 
L 180.532818 242.557245 
L 181.183429 167.034351 
L 181.834039 164.369404 
L 182.484649 153.615696 
L 183.13526 159.800769 
L 183.78587 144.811365 
L 184.43648 155.5325 
L 185.087091 168.163769 
L 185.737701 178.390893 
L 186.388311 177.218382 
L 187.038921 152.799264 
L 187.689532 164.010283 
L 188.340142 142.010561 
L 188.990752 154.865021 
L 189.641363 150.508762 
L 190.291973 173.97692 
L 190.942583 212.642352 
L 191.593194 136.809281 
L 192.243804 145.460135 
L 193.545025 205.469029 
L 194.195635 147.376186 
L 194.846245 138.796514 
L 195.496856 151.63415 
L 196.147466 156.665222 
L 196.798076 154.091257 
L 197.448686 144.027902 
L 198.099297 127.13004 
L 198.749907 164.20741 
L 199.400517 156.27611 
L 200.051128 137.549152 
L 200.701738 140.15317 
L 201.352348 147.866389 
L 202.002959 144.246255 
L 202.653569 144.102411 
L 203.304179 136.854533 
L 203.95479 136.606519 
L 204.6054 126.44666 
L 205.25601 131.425832 
L 205.906621 138.742712 
L 206.557231 143.304979 
L 207.207841 150.79813 
L 207.858451 167.380305 
L 208.509062 147.900135 
L 209.159672 135.480936 
L 209.810282 117.76858 
L 210.460893 123.388148 
L 211.111503 140.675934 
L 211.762113 147.196338 
L 212.412724 203.877091 
L 213.063334 149.233466 
L 213.713944 153.004384 
L 214.364555 170.499005 
L 215.015165 142.671375 
L 215.665775 147.125667 
L 216.316385 158.622914 
L 216.966996 138.526591 
L 217.617606 139.131762 
L 218.268216 146.94776 
L 218.918827 147.461 
L 219.569437 131.656595 
L 220.220047 131.6542 
L 221.521268 171.333509 
L 222.822489 159.465996 
L 223.473099 133.552926 
L 224.123709 144.435995 
L 224.77432 133.292233 
L 225.42493 129.687151 
L 226.72615 144.460542 
L 227.376761 138.114333 
L 228.027371 134.623889 
L 228.677981 120.115056 
L 229.328592 253.534166 
L 229.979202 222.788892 
L 230.629812 160.075287 
L 231.280423 218.622915 
L 231.931033 235.10489 
L 232.581643 145.498077 
L 233.232254 176.142198 
L 233.882864 133.478129 
L 234.533474 124.892789 
L 235.184085 144.268722 
L 235.834695 134.586461 
L 236.485305 120.101275 
L 237.135915 137.913871 
L 237.786526 139.217474 
L 238.437136 143.484956 
L 239.087746 119.542709 
L 239.738357 129.401248 
L 240.388967 117.369889 
L 241.039577 130.702067 
L 241.690188 111.558057 
L 242.340798 135.726383 
L 242.991408 116.115492 
L 243.642019 118.631158 
L 244.292629 123.425015 
L 244.943239 115.225856 
L 245.59385 121.732705 
L 246.24446 106.38947 
L 246.89507 114.655448 
L 247.54568 135.538956 
L 248.196291 112.138697 
L 248.846901 125.445637 
L 249.497511 160.153786 
L 250.148122 147.976417 
L 250.798732 128.165596 
L 251.449342 128.664837 
L 252.099953 125.922653 
L 252.750563 124.963604 
L 253.401173 108.396956 
L 254.051784 124.158672 
L 254.702394 111.963679 
L 255.353004 104.728949 
L 256.003615 127.962828 
L 256.654225 142.801408 
L 257.304835 143.86733 
L 257.955445 149.433356 
L 258.606056 157.542142 
L 259.256666 137.436631 
L 259.907276 128.649711 
L 260.557887 125.178105 
L 261.208497 130.325744 
L 261.859107 123.865985 
L 263.160328 107.939816 
L 263.810938 153.239174 
L 264.461549 148.454793 
L 265.112159 110.049815 
L 265.762769 128.274032 
L 266.413379 124.816973 
L 267.06399 116.90742 
L 267.7146 113.725402 
L 268.36521 114.489841 
L 269.015821 115.65264 
L 269.666431 134.40639 
L 270.317041 111.870605 
L 270.967652 130.24033 
L 271.618262 141.244888 
L 272.268872 102.371086 
L 272.919483 122.398107 
L 273.570093 138.588938 
L 274.220703 139.38648 
L 274.871314 121.279304 
L 275.521924 122.786524 
L 276.172534 91.720485 
L 276.823144 112.993931 
L 277.473755 99.667955 
L 278.124365 135.853173 
L 278.774975 115.892747 
L 279.425586 124.27923 
L 280.076196 113.885484 
L 280.726806 110.239304 
L 281.377417 123.372263 
L 282.028027 121.413713 
L 282.678637 131.568623 
L 283.329248 145.8201 
L 283.979858 140.330191 
L 284.630468 125.227838 
L 285.281079 146.579134 
L 285.931689 123.550117 
L 286.582299 123.94653 
L 287.232909 131.534659 
L 288.53413 114.90137 
L 289.18474 122.210076 
L 289.835351 116.230735 
L 290.485961 121.38238 
L 291.136571 119.696645 
L 291.787182 131.640259 
L 292.437792 120.402902 
L 293.739013 108.693992 
L 294.389623 118.767616 
L 295.040233 112.151355 
L 295.690844 113.980993 
L 296.341454 110.866911 
L 296.992064 95.370843 
L 297.642674 109.329152 
L 298.293285 99.283792 
L 298.943895 122.687365 
L 299.594505 104.302333 
L 300.245116 103.231971 
L 300.895726 107.646427 
L 301.546336 129.546804 
L 302.196947 117.116019 
L 302.847557 111.277638 
L 303.498167 97.034601 
L 304.148778 108.67815 
L 304.799388 101.768619 
L 305.449998 108.725386 
L 306.100608 96.089098 
L 306.751219 104.725059 
L 307.401829 108.348249 
L 308.052439 121.463914 
L 308.70305 98.851018 
L 309.35366 119.151497 
L 310.00427 91.524234 
L 310.654881 103.22251 
L 311.305491 117.660393 
L 312.606712 100.311341 
L 313.257322 105.41514 
L 313.907932 97.451585 
L 314.558543 113.870021 
L 315.209153 123.748907 
L 315.859763 100.846187 
L 316.510373 95.369783 
L 317.160984 96.375658 
L 317.811594 91.406605 
L 318.462204 99.073616 
L 319.112815 93.548754 
L 319.763425 102.069704 
L 320.414035 76.315469 
L 321.064646 100.232008 
L 321.715256 90.054822 
L 322.365866 108.247467 
L 323.016477 106.783494 
L 323.667087 157.745918 
L 324.317697 97.172287 
L 324.968308 90.98646 
L 325.618918 121.472468 
L 326.269528 112.671105 
L 326.920138 111.091365 
L 327.570749 93.710637 
L 328.221359 102.981372 
L 328.871969 108.238215 
L 329.52258 82.129056 
L 330.17319 94.471664 
L 330.8238 91.867803 
L 331.474411 114.147607 
L 332.125021 96.829429 
L 332.775631 143.923812 
L 333.426242 121.302145 
L 334.076852 133.188033 
L 334.727462 126.129426 
L 335.378073 112.392665 
L 336.028683 94.580311 
L 336.679293 99.474304 
L 337.329903 110.217777 
L 337.980514 103.672346 
L 338.631124 110.214999 
L 339.281734 110.822954 
L 339.932345 83.723169 
L 340.582955 108.984484 
L 341.233565 97.48414 
L 341.884176 114.376692 
L 342.534786 109.638423 
L 343.185396 148.930412 
L 343.836007 98.006751 
L 344.486617 101.672951 
L 345.137227 183.814308 
L 345.787837 113.062673 
L 346.438448 98.230409 
L 347.089058 117.787412 
L 347.739668 103.423811 
L 348.390279 114.723161 
L 349.040889 137.348693 
L 349.691499 97.379784 
L 350.34211 102.912284 
L 350.99272 100.363872 
L 351.64333 92.582763 
L 352.293941 88.927664 
L 352.944551 105.108542 
L 353.595161 92.399806 
L 354.245772 77.453808 
L 354.896382 106.068292 
L 356.197602 90.121585 
L 356.848213 104.154167 
L 357.498823 102.524287 
L 358.149433 116.151342 
L 358.800044 109.43779 
L 359.450654 114.871354 
L 360.101264 102.966984 
L 360.751875 124.248549 
L 361.402485 87.245607 
L 362.053095 96.679009 
L 362.703706 90.555955 
L 363.354316 101.900486 
L 364.004926 106.44168 
L 364.655537 98.29622 
L 365.306147 104.105764 
L 365.956757 99.510375 
L 366.607367 90.236492 
L 367.257978 73.751534 
L 367.908588 100.617736 
L 368.559198 72.6381 
L 369.209809 81.826244 
L 369.860419 79.430745 
L 370.511029 97.149134 
L 371.16164 88.030669 
L 371.81225 73.956878 
L 372.46286 99.19455 
L 373.113471 87.861764 
L 373.764081 140.717799 
L 374.414691 103.366628 
L 375.065302 115.925072 
L 375.715912 116.322446 
L 376.366522 91.731547 
L 377.017132 94.033086 
L 377.667743 82.507443 
L 378.318353 99.248053 
L 378.968963 91.711016 
L 379.619574 92.937819 
L 380.270184 96.782569 
L 380.920794 108.322481 
L 381.571405 116.259799 
L 382.222015 85.23889 
L 382.872625 101.670909 
L 383.523236 105.064702 
L 384.173846 94.509484 
L 384.824456 79.67502 
L 385.475066 90.450708 
L 386.125677 80.379491 
L 386.776287 104.156384 
L 387.426897 69.839635 
L 388.077508 82.320156 
L 388.728118 89.138444 
L 389.378728 77.76284 
L 390.029339 89.474108 
L 390.679949 83.611426 
L 391.330559 90.563532 
L 391.98117 87.566718 
L 392.63178 98.589207 
L 393.28239 80.875287 
L 393.933001 86.940128 
L 394.583611 97.262966 
L 395.234221 111.449468 
L 395.884831 78.394634 
L 397.186052 83.762244 
L 397.836662 93.447001 
L 398.487273 96.285751 
L 398.487273 96.285751 
" clip-path="url(#pb9e347c1f8)" style="fill: none; stroke: #1f77b4; stroke-width: 1.5; stroke-linecap: square"/>
   </g>
   <g id="line2d_16">
    <path d="M 73.832727 295.488 
L 79.03761 295.472522 
L 81.640051 295.452885 
L 82.941272 295.20158 
L 84.242492 295.323325 
L 85.543713 295.291137 
L 86.194323 294.847931 
L 86.844934 295.20233 
L 87.495544 295.218784 
L 88.146154 294.758278 
L 88.796764 294.106815 
L 89.447375 294.700643 
L 90.097985 294.000312 
L 90.748595 294.368249 
L 91.399206 292.898708 
L 92.049816 295.109494 
L 92.700426 295.019744 
L 93.351037 294.607067 
L 94.001647 291.165611 
L 94.652257 294.991039 
L 95.302868 294.903584 
L 95.953478 295.288703 
L 96.604088 294.418071 
L 97.254698 293.91171 
L 97.905309 290.311636 
L 98.555919 294.436003 
L 99.206529 294.977855 
L 99.85714 294.702368 
L 100.50775 294.030636 
L 101.15836 291.819239 
L 101.808971 292.189867 
L 102.459581 292.135908 
L 103.110191 286.748885 
L 103.760802 292.862403 
L 104.411412 292.574311 
L 105.062022 292.133711 
L 105.712633 289.677162 
L 106.363243 284.32937 
L 107.013853 277.773632 
L 107.664463 268.179106 
L 108.315074 267.418888 
L 108.965684 266.366678 
L 109.616294 273.540285 
L 110.266905 261.861135 
L 110.917515 240.396735 
L 111.568125 284.671335 
L 112.218736 271.640916 
L 112.869346 239.57198 
L 113.519956 254.966701 
L 114.170567 251.969426 
L 114.821177 251.005239 
L 115.471787 223.165308 
L 116.122398 256.81568 
L 117.423618 223.695305 
L 118.074228 247.975464 
L 118.724839 260.17832 
L 119.375449 259.371936 
L 120.026059 244.636042 
L 120.67667 247.487368 
L 121.32728 227.573802 
L 121.97789 222.916308 
L 122.628501 261.343808 
L 123.929721 214.650851 
L 124.580332 216.019248 
L 125.230942 223.510586 
L 125.881552 226.352082 
L 126.532163 235.883754 
L 127.182773 219.543303 
L 127.833383 216.175873 
L 128.483993 220.685424 
L 129.134604 181.699909 
L 129.785214 252.890738 
L 130.435824 218.149074 
L 131.086435 211.566431 
L 131.737045 187.450153 
L 133.038266 262.612659 
L 133.688876 250.733707 
L 134.339486 218.819016 
L 134.990097 214.394926 
L 136.291317 162.421717 
L 136.941927 192.828054 
L 137.592538 195.162311 
L 138.243148 194.13694 
L 138.893758 194.073945 
L 139.544369 209.144623 
L 140.194979 218.36238 
L 140.845589 180.505179 
L 141.4962 151.22183 
L 142.14681 194.709769 
L 142.79742 198.701533 
L 143.448031 176.553407 
L 144.098641 170.092843 
L 144.749251 183.668136 
L 145.399862 173.007614 
L 146.050472 176.883164 
L 146.701082 174.297956 
L 147.351692 160.494521 
L 148.002303 253.173213 
L 148.652913 285.504205 
L 149.954134 201.347056 
L 150.604744 187.21841 
L 151.255354 192.077034 
L 151.905965 224.574191 
L 152.556575 230.047619 
L 153.207185 165.508891 
L 153.857796 178.03013 
L 154.508406 213.412892 
L 155.159016 200.714641 
L 155.809627 199.074616 
L 156.460237 168.131079 
L 157.110847 155.194407 
L 157.761457 198.999583 
L 158.412068 202.852506 
L 159.062678 191.617997 
L 159.713288 167.865121 
L 160.363899 159.560765 
L 161.014509 170.448614 
L 161.665119 136.579748 
L 162.31573 145.605026 
L 162.96634 152.953759 
L 163.61695 192.053634 
L 164.267561 201.11183 
L 164.918171 120.645512 
L 165.568781 203.128764 
L 166.219392 143.781804 
L 166.870002 115.613488 
L 168.171222 190.346445 
L 168.821833 206.106069 
L 169.472443 204.861433 
L 170.123053 211.693933 
L 170.773664 175.511079 
L 171.424274 166.828303 
L 172.074884 154.291296 
L 172.725495 145.14631 
L 173.376105 174.223106 
L 174.026715 151.007923 
L 174.677326 138.398253 
L 175.327936 153.515054 
L 175.978546 152.554244 
L 176.629156 174.630703 
L 177.279767 125.417581 
L 177.930377 135.106959 
L 178.580987 163.929353 
L 179.231598 135.918488 
L 179.882208 247.551178 
L 180.532818 164.356555 
L 181.183429 129.744536 
L 181.834039 130.843513 
L 182.484649 129.735596 
L 183.13526 130.079405 
L 183.78587 157.850338 
L 184.43648 101.389808 
L 185.087091 179.823736 
L 185.737701 176.215526 
L 186.388311 179.040355 
L 187.038921 148.365412 
L 187.689532 143.134714 
L 188.340142 124.319321 
L 188.990752 155.445037 
L 189.641363 80.558618 
L 190.291973 216.052466 
L 190.942583 140.591739 
L 191.593194 109.934557 
L 192.243804 124.020639 
L 192.894414 190.792737 
L 193.545025 174.216578 
L 194.195635 122.653474 
L 194.846245 144.767847 
L 195.496856 179.230755 
L 196.147466 171.356506 
L 196.798076 139.184003 
L 197.448686 122.432097 
L 198.099297 129.662611 
L 198.749907 165.855551 
L 199.400517 143.631042 
L 200.701738 133.801771 
L 201.352348 123.007177 
L 202.653569 110.547679 
L 203.304179 118.633359 
L 203.95479 136.158956 
L 204.6054 124.126938 
L 205.25601 130.383651 
L 205.906621 140.338987 
L 206.557231 162.264385 
L 207.207841 102.998802 
L 207.858451 139.267953 
L 208.509062 131.889218 
L 209.159672 134.971987 
L 209.810282 140.148212 
L 210.460893 147.019117 
L 211.111503 92.606928 
L 211.762113 179.248141 
L 212.412724 187.63589 
L 213.063334 170.493076 
L 213.713944 191.673799 
L 214.364555 165.195899 
L 215.015165 155.497195 
L 215.665775 149.30888 
L 216.316385 130.83168 
L 216.966996 95.079523 
L 217.617606 124.665178 
L 218.268216 100.247333 
L 218.918827 113.387075 
L 219.569437 86.553478 
L 220.220047 105.106847 
L 220.870658 91.118715 
L 221.521268 158.71798 
L 222.171878 138.450958 
L 222.822489 130.176776 
L 223.473099 152.779137 
L 224.123709 132.331234 
L 224.77432 104.111039 
L 225.42493 125.584699 
L 226.07554 153.094616 
L 226.72615 152.579133 
L 227.376761 145.683574 
L 228.027371 113.124301 
L 228.677981 209.081435 
L 229.328592 265.361833 
L 229.979202 150.186148 
L 230.629812 70.135187 
L 231.280423 281.489406 
L 231.931033 176.209663 
L 232.581643 199.634711 
L 233.232254 145.849406 
L 233.882864 126.323328 
L 234.533474 140.840589 
L 235.184085 130.091067 
L 235.834695 112.424227 
L 236.485305 134.231117 
L 237.135915 150.162416 
L 237.786526 140.163926 
L 238.437136 127.053222 
L 239.087746 122.31286 
L 239.738357 122.913569 
L 240.388967 126.168547 
L 241.039577 135.889525 
L 241.690188 127.038473 
L 242.340798 115.074285 
L 242.991408 106.156046 
L 243.642019 139.539914 
L 244.292629 137.780769 
L 244.943239 114.123625 
L 245.59385 121.154274 
L 246.24446 131.706825 
L 246.89507 163.59518 
L 247.54568 144.126545 
L 248.196291 129.715638 
L 248.846901 179.420469 
L 249.497511 160.623395 
L 250.148122 157.939455 
L 250.798732 146.299418 
L 252.099953 89.039515 
L 252.750563 118.405453 
L 253.401173 121.979898 
L 254.051784 132.160481 
L 254.702394 123.296662 
L 255.353004 134.398546 
L 256.003615 111.62226 
L 256.654225 135.830968 
L 258.606056 124.630631 
L 259.256666 119.629477 
L 259.907276 128.112078 
L 260.557887 114.453938 
L 261.208497 103.46351 
L 261.859107 101.367567 
L 262.509718 122.712943 
L 263.160328 152.023829 
L 263.810938 170.323728 
L 264.461549 120.954667 
L 265.112159 134.62091 
L 265.762769 136.638166 
L 266.413379 122.178809 
L 267.06399 95.464524 
L 269.015821 151.819066 
L 269.666431 120.197858 
L 270.317041 116.693033 
L 270.967652 140.212225 
L 271.618262 100.653162 
L 272.268872 112.104043 
L 272.919483 145.010994 
L 273.570093 106.258454 
L 274.220703 80.050938 
L 274.871314 121.325412 
L 275.521924 102.808199 
L 276.172534 105.035438 
L 276.823144 124.109316 
L 277.473755 148.406037 
L 278.124365 100.854485 
L 278.774975 112.354512 
L 279.425586 115.516675 
L 280.076196 93.431201 
L 280.726806 141.378142 
L 281.377417 145.574166 
L 282.028027 134.516337 
L 282.678637 83.185801 
L 283.329248 127.799794 
L 283.979858 114.75947 
L 284.630468 125.599845 
L 285.281079 133.574477 
L 285.931689 130.376587 
L 286.582299 85.629465 
L 287.232909 139.609972 
L 287.88352 106.089278 
L 288.53413 98.265139 
L 289.18474 107.0765 
L 289.835351 87.782026 
L 291.136571 88.906021 
L 291.787182 120.726836 
L 292.437792 116.615235 
L 293.088402 132.102471 
L 293.739013 141.642224 
L 294.389623 132.842804 
L 295.040233 102.807266 
L 295.690844 123.410658 
L 296.341454 100.945702 
L 296.992064 99.114206 
L 297.642674 97.884757 
L 298.293285 115.564053 
L 298.943895 115.892127 
L 299.594505 122.721379 
L 300.245116 135.202797 
L 300.895726 137.68863 
L 301.546336 112.456663 
L 302.196947 110.957688 
L 302.847557 120.143706 
L 303.498167 106.157493 
L 304.148778 77.515809 
L 304.799388 86.389918 
L 305.449998 79.258029 
L 306.100608 95.716655 
L 306.751219 78.102927 
L 307.401829 115.064445 
L 308.052439 113.334842 
L 308.70305 74.125472 
L 309.35366 104.209288 
L 310.00427 104.851212 
L 310.654881 116.180154 
L 311.305491 72.063594 
L 311.956101 92.220029 
L 312.606712 99.191843 
L 313.257322 87.485927 
L 313.907932 97.72391 
L 314.558543 144.455433 
L 315.209153 95.646414 
L 315.859763 95.207356 
L 316.510373 122.750545 
L 317.160984 101.039171 
L 317.811594 115.013037 
L 318.462204 102.889041 
L 319.112815 110.729868 
L 319.763425 85.888048 
L 320.414035 82.994608 
L 321.064646 107.448757 
L 321.715256 87.616387 
L 322.365866 100.053386 
L 323.016477 145.670229 
L 323.667087 98.201126 
L 324.317697 101.267999 
L 324.968308 140.538048 
L 325.618918 138.350511 
L 326.269528 108.134124 
L 327.570749 136.025698 
L 328.221359 122.206185 
L 328.871969 82.763905 
L 330.17319 125.446811 
L 330.8238 127.795453 
L 331.474411 70.822001 
L 332.125021 150.37584 
L 332.775631 148.621433 
L 333.426242 111.776441 
L 334.076852 115.739982 
L 334.727462 140.524917 
L 335.378073 106.052801 
L 336.028683 122.330428 
L 336.679293 114.605225 
L 337.329903 62.447597 
L 337.980514 132.45121 
L 338.631124 119.706396 
L 339.281734 109.318456 
L 339.932345 71.771675 
L 340.582955 102.526323 
L 341.884176 61.413212 
L 342.534786 82.039896 
L 343.185396 112.954063 
L 343.836007 101.637683 
L 344.486617 173.060844 
L 345.137227 119.842194 
L 345.787837 79.257632 
L 346.438448 131.292003 
L 347.089058 134.884338 
L 347.739668 140.860033 
L 348.390279 173.711171 
L 349.040889 128.42462 
L 349.691499 111.381814 
L 350.34211 128.503361 
L 350.99272 101.863659 
L 351.64333 101.549777 
L 352.293941 94.166315 
L 352.944551 71.671314 
L 353.595161 84.964111 
L 354.245772 106.643681 
L 354.896382 112.959122 
L 355.546992 70.352577 
L 356.197602 115.353223 
L 356.848213 113.084105 
L 357.498823 120.185917 
L 358.149433 108.590342 
L 358.800044 102.39283 
L 359.450654 70.773734 
L 360.101264 99.097077 
L 360.751875 55.089356 
L 361.402485 88.195143 
L 362.053095 75.279266 
L 362.703706 96.020161 
L 363.354316 53.568 
L 364.004926 73.422912 
L 364.655537 101.376828 
L 365.306147 96.014104 
L 365.956757 93.009348 
L 366.607367 81.854984 
L 367.257978 109.456869 
L 367.908588 99.942681 
L 368.559198 94.987158 
L 369.209809 88.568665 
L 369.860419 74.661321 
L 370.511029 66.849917 
L 371.16164 92.626083 
L 371.81225 87.847443 
L 372.46286 68.679345 
L 373.113471 157.175369 
L 373.764081 163.369783 
L 374.414691 149.090589 
L 375.065302 143.578112 
L 375.715912 115.747904 
L 376.366522 109.556158 
L 377.017132 95.852345 
L 377.667743 95.289881 
L 378.318353 87.388138 
L 378.968963 110.842342 
L 379.619574 139.648346 
L 380.270184 120.945309 
L 380.920794 92.663052 
L 381.571405 84.224109 
L 382.222015 78.002844 
L 382.872625 104.952548 
L 383.523236 76.51282 
L 384.173846 95.925791 
L 384.824456 71.804378 
L 385.475066 82.028695 
L 386.125677 114.540033 
L 386.776287 88.639592 
L 387.426897 96.532149 
L 388.077508 112.760458 
L 388.728118 72.415056 
L 389.378728 95.413385 
L 390.029339 81.511647 
L 390.679949 72.49921 
L 391.330559 66.611646 
L 391.98117 83.357529 
L 392.63178 80.216417 
L 393.28239 82.962794 
L 393.933001 118.890687 
L 394.583611 80.046136 
L 395.234221 69.936244 
L 395.884831 85.348062 
L 396.535442 95.676963 
L 397.186052 98.316311 
L 397.836662 64.73185 
L 398.487273 93.267834 
L 398.487273 93.267834 
" clip-path="url(#pb9e347c1f8)" style="fill: none; stroke: #ff7f0e; stroke-width: 1.5; stroke-linecap: square"/>
   </g>
   <g id="patch_3">
    <path d="M 57.6 307.584 
L 57.6 41.472 
" style="fill: none; stroke: #000000; stroke-width: 0.8; stroke-linejoin: miter; stroke-linecap: square"/>
   </g>
   <g id="patch_4">
    <path d="M 414.72 307.584 
L 414.72 41.472 
" style="fill: none; stroke: #000000; stroke-width: 0.8; stroke-linejoin: miter; stroke-linecap: square"/>
   </g>
   <g id="patch_5">
    <path d="M 57.6 307.584 
L 414.72 307.584 
" style="fill: none; stroke: #000000; stroke-width: 0.8; stroke-linejoin: miter; stroke-linecap: square"/>
   </g>
   <g id="patch_6">
    <path d="M 57.6 41.472 
L 414.72 41.472 
" style="fill: none; stroke: #000000; stroke-width: 0.8; stroke-linejoin: miter; stroke-linecap: square"/>
   </g>
   <g id="text_15">
    <!-- Dice score during training -->
    <g transform="translate(158.442187 35.472) scale(0.12 -0.12)">
     <defs>
      <path id="DejaVuSans-44" d="M 1259 4147 
L 1259 519 
L 2022 519 
Q 2988 519 3436 956 
Q 3884 1394 3884 2338 
Q 3884 3275 3436 3711 
Q 2988 4147 2022 4147 
L 1259 4147 
z
M 628 4666 
L 1925 4666 
Q 3281 4666 3915 4102 
Q 4550 3538 4550 2338 
Q 4550 1131 3912 565 
Q 3275 0 1925 0 
L 628 0 
L 628 4666 
z
" transform="scale(0.015625)"/>
      <path id="DejaVuSans-69" d="M 603 3500 
L 1178 3500 
L 1178 0 
L 603 0 
L 603 3500 
z
M 603 4863 
L 1178 4863 
L 1178 4134 
L 603 4134 
L 603 4863 
z
" transform="scale(0.015625)"/>
      <path id="DejaVuSans-63" d="M 3122 3366 
L 3122 2828 
Q 2878 2963 2633 3030 
Q 2388 3097 2138 3097 
Q 1578 3097 1268 2742 
Q 959 2388 959 1747 
Q 959 1106 1268 751 
Q 1578 397 2138 397 
Q 2388 397 2633 464 
Q 2878 531 3122 666 
L 3122 134 
Q 2881 22 2623 -34 
Q 2366 -91 2075 -91 
Q 1284 -91 818 406 
Q 353 903 353 1747 
Q 353 2603 823 3093 
Q 1294 3584 2113 3584 
Q 2378 3584 2631 3529 
Q 2884 3475 3122 3366 
z
" transform="scale(0.015625)"/>
      <path id="DejaVuSans-65" d="M 3597 1894 
L 3597 1613 
L 953 1613 
Q 991 1019 1311 708 
Q 1631 397 2203 397 
Q 2534 397 2845 478 
Q 3156 559 3463 722 
L 3463 178 
Q 3153 47 2828 -22 
Q 2503 -91 2169 -91 
Q 1331 -91 842 396 
Q 353 884 353 1716 
Q 353 2575 817 3079 
Q 1281 3584 2069 3584 
Q 2775 3584 3186 3129 
Q 3597 2675 3597 1894 
z
M 3022 2063 
Q 3016 2534 2758 2815 
Q 2500 3097 2075 3097 
Q 1594 3097 1305 2825 
Q 1016 2553 972 2059 
L 3022 2063 
z
" transform="scale(0.015625)"/>
      <path id="DejaVuSans-20" transform="scale(0.015625)"/>
      <path id="DejaVuSans-73" d="M 2834 3397 
L 2834 2853 
Q 2591 2978 2328 3040 
Q 2066 3103 1784 3103 
Q 1356 3103 1142 2972 
Q 928 2841 928 2578 
Q 928 2378 1081 2264 
Q 1234 2150 1697 2047 
L 1894 2003 
Q 2506 1872 2764 1633 
Q 3022 1394 3022 966 
Q 3022 478 2636 193 
Q 2250 -91 1575 -91 
Q 1294 -91 989 -36 
Q 684 19 347 128 
L 347 722 
Q 666 556 975 473 
Q 1284 391 1588 391 
Q 1994 391 2212 530 
Q 2431 669 2431 922 
Q 2431 1156 2273 1281 
Q 2116 1406 1581 1522 
L 1381 1569 
Q 847 1681 609 1914 
Q 372 2147 372 2553 
Q 372 3047 722 3315 
Q 1072 3584 1716 3584 
Q 2034 3584 2315 3537 
Q 2597 3491 2834 3397 
z
" transform="scale(0.015625)"/>
      <path id="DejaVuSans-6f" d="M 1959 3097 
Q 1497 3097 1228 2736 
Q 959 2375 959 1747 
Q 959 1119 1226 758 
Q 1494 397 1959 397 
Q 2419 397 2687 759 
Q 2956 1122 2956 1747 
Q 2956 2369 2687 2733 
Q 2419 3097 1959 3097 
z
M 1959 3584 
Q 2709 3584 3137 3096 
Q 3566 2609 3566 1747 
Q 3566 888 3137 398 
Q 2709 -91 1959 -91 
Q 1206 -91 779 398 
Q 353 888 353 1747 
Q 353 2609 779 3096 
Q 1206 3584 1959 3584 
z
" transform="scale(0.015625)"/>
      <path id="DejaVuSans-72" d="M 2631 2963 
Q 2534 3019 2420 3045 
Q 2306 3072 2169 3072 
Q 1681 3072 1420 2755 
Q 1159 2438 1159 1844 
L 1159 0 
L 581 0 
L 581 3500 
L 1159 3500 
L 1159 2956 
Q 1341 3275 1631 3429 
Q 1922 3584 2338 3584 
Q 2397 3584 2469 3576 
Q 2541 3569 2628 3553 
L 2631 2963 
z
" transform="scale(0.015625)"/>
      <path id="DejaVuSans-64" d="M 2906 2969 
L 2906 4863 
L 3481 4863 
L 3481 0 
L 2906 0 
L 2906 525 
Q 2725 213 2448 61 
Q 2172 -91 1784 -91 
Q 1150 -91 751 415 
Q 353 922 353 1747 
Q 353 2572 751 3078 
Q 1150 3584 1784 3584 
Q 2172 3584 2448 3432 
Q 2725 3281 2906 2969 
z
M 947 1747 
Q 947 1113 1208 752 
Q 1469 391 1925 391 
Q 2381 391 2643 752 
Q 2906 1113 2906 1747 
Q 2906 2381 2643 2742 
Q 2381 3103 1925 3103 
Q 1469 3103 1208 2742 
Q 947 2381 947 1747 
z
" transform="scale(0.015625)"/>
      <path id="DejaVuSans-75" d="M 544 1381 
L 544 3500 
L 1119 3500 
L 1119 1403 
Q 1119 906 1312 657 
Q 1506 409 1894 409 
Q 2359 409 2629 706 
Q 2900 1003 2900 1516 
L 2900 3500 
L 3475 3500 
L 3475 0 
L 2900 0 
L 2900 538 
Q 2691 219 2414 64 
Q 2138 -91 1772 -91 
Q 1169 -91 856 284 
Q 544 659 544 1381 
z
M 1991 3584 
L 1991 3584 
z
" transform="scale(0.015625)"/>
      <path id="DejaVuSans-6e" d="M 3513 2113 
L 3513 0 
L 2938 0 
L 2938 2094 
Q 2938 2591 2744 2837 
Q 2550 3084 2163 3084 
Q 1697 3084 1428 2787 
Q 1159 2491 1159 1978 
L 1159 0 
L 581 0 
L 581 3500 
L 1159 3500 
L 1159 2956 
Q 1366 3272 1645 3428 
Q 1925 3584 2291 3584 
Q 2894 3584 3203 3211 
Q 3513 2838 3513 2113 
z
" transform="scale(0.015625)"/>
      <path id="DejaVuSans-67" d="M 2906 1791 
Q 2906 2416 2648 2759 
Q 2391 3103 1925 3103 
Q 1463 3103 1205 2759 
Q 947 2416 947 1791 
Q 947 1169 1205 825 
Q 1463 481 1925 481 
Q 2391 481 2648 825 
Q 2906 1169 2906 1791 
z
M 3481 434 
Q 3481 -459 3084 -895 
Q 2688 -1331 1869 -1331 
Q 1566 -1331 1297 -1286 
Q 1028 -1241 775 -1147 
L 775 -588 
Q 1028 -725 1275 -790 
Q 1522 -856 1778 -856 
Q 2344 -856 2625 -561 
Q 2906 -266 2906 331 
L 2906 616 
Q 2728 306 2450 153 
Q 2172 0 1784 0 
Q 1141 0 747 490 
Q 353 981 353 1791 
Q 353 2603 747 3093 
Q 1141 3584 1784 3584 
Q 2172 3584 2450 3431 
Q 2728 3278 2906 2969 
L 2906 3500 
L 3481 3500 
L 3481 434 
z
" transform="scale(0.015625)"/>
      <path id="DejaVuSans-74" d="M 1172 4494 
L 1172 3500 
L 2356 3500 
L 2356 3053 
L 1172 3053 
L 1172 1153 
Q 1172 725 1289 603 
Q 1406 481 1766 481 
L 2356 481 
L 2356 0 
L 1766 0 
Q 1100 0 847 248 
Q 594 497 594 1153 
L 594 3053 
L 172 3053 
L 172 3500 
L 594 3500 
L 594 4494 
L 1172 4494 
z
" transform="scale(0.015625)"/>
      <path id="DejaVuSans-61" d="M 2194 1759 
Q 1497 1759 1228 1600 
Q 959 1441 959 1056 
Q 959 750 1161 570 
Q 1363 391 1709 391 
Q 2188 391 2477 730 
Q 2766 1069 2766 1631 
L 2766 1759 
L 2194 1759 
z
M 3341 1997 
L 3341 0 
L 2766 0 
L 2766 531 
Q 2569 213 2275 61 
Q 1981 -91 1556 -91 
Q 1019 -91 701 211 
Q 384 513 384 1019 
Q 384 1609 779 1909 
Q 1175 2209 1959 2209 
L 2766 2209 
L 2766 2266 
Q 2766 2663 2505 2880 
Q 2244 3097 1772 3097 
Q 1472 3097 1187 3025 
Q 903 2953 641 2809 
L 641 3341 
Q 956 3463 1253 3523 
Q 1550 3584 1831 3584 
Q 2591 3584 2966 3190 
Q 3341 2797 3341 1997 
z
" transform="scale(0.015625)"/>
     </defs>
     <use xlink:href="#DejaVuSans-44"/>
     <use xlink:href="#DejaVuSans-69" x="77.001953"/>
     <use xlink:href="#DejaVuSans-63" x="104.785156"/>
     <use xlink:href="#DejaVuSans-65" x="159.765625"/>
     <use xlink:href="#DejaVuSans-20" x="221.289062"/>
     <use xlink:href="#DejaVuSans-73" x="253.076172"/>
     <use xlink:href="#DejaVuSans-63" x="305.175781"/>
     <use xlink:href="#DejaVuSans-6f" x="360.15625"/>
     <use xlink:href="#DejaVuSans-72" x="421.337891"/>
     <use xlink:href="#DejaVuSans-65" x="460.201172"/>
     <use xlink:href="#DejaVuSans-20" x="521.724609"/>
     <use xlink:href="#DejaVuSans-64" x="553.511719"/>
     <use xlink:href="#DejaVuSans-75" x="616.988281"/>
     <use xlink:href="#DejaVuSans-72" x="680.367188"/>
     <use xlink:href="#DejaVuSans-69" x="721.480469"/>
     <use xlink:href="#DejaVuSans-6e" x="749.263672"/>
     <use xlink:href="#DejaVuSans-67" x="812.642578"/>
     <use xlink:href="#DejaVuSans-20" x="876.119141"/>
     <use xlink:href="#DejaVuSans-74" x="907.90625"/>
     <use xlink:href="#DejaVuSans-72" x="947.115234"/>
     <use xlink:href="#DejaVuSans-61" x="988.228516"/>
     <use xlink:href="#DejaVuSans-69" x="1049.507812"/>
     <use xlink:href="#DejaVuSans-6e" x="1077.291016"/>
     <use xlink:href="#DejaVuSans-69" x="1140.669922"/>
     <use xlink:href="#DejaVuSans-6e" x="1168.453125"/>
     <use xlink:href="#DejaVuSans-67" x="1231.832031"/>
    </g>
   </g>
   <g id="legend_1">
    <g id="patch_7">
     <path d="M 64.6 78.82825 
L 175.939063 78.82825 
Q 177.939063 78.82825 177.939063 76.82825 
L 177.939063 48.472 
Q 177.939063 46.472 175.939063 46.472 
L 64.6 46.472 
Q 62.6 46.472 62.6 48.472 
L 62.6 76.82825 
Q 62.6 78.82825 64.6 78.82825 
z
" style="fill: #ffffff; opacity: 0.8; stroke: #cccccc; stroke-linejoin: miter"/>
    </g>
    <g id="line2d_17">
     <path d="M 66.6 54.570437 
L 76.6 54.570437 
L 86.6 54.570437 
" style="fill: none; stroke: #1f77b4; stroke-width: 1.5; stroke-linecap: square"/>
    </g>
    <g id="text_16">
     <!-- Train Dice score -->
     <g transform="translate(94.6 58.070437) scale(0.1 -0.1)">
      <defs>
       <path id="DejaVuSans-54" d="M -19 4666 
L 3928 4666 
L 3928 4134 
L 2272 4134 
L 2272 0 
L 1638 0 
L 1638 4134 
L -19 4134 
L -19 4666 
z
" transform="scale(0.015625)"/>
      </defs>
      <use xlink:href="#DejaVuSans-54"/>
      <use xlink:href="#DejaVuSans-72" x="46.333984"/>
      <use xlink:href="#DejaVuSans-61" x="87.447266"/>
      <use xlink:href="#DejaVuSans-69" x="148.726562"/>
      <use xlink:href="#DejaVuSans-6e" x="176.509766"/>
      <use xlink:href="#DejaVuSans-20" x="239.888672"/>
      <use xlink:href="#DejaVuSans-44" x="271.675781"/>
      <use xlink:href="#DejaVuSans-69" x="348.677734"/>
      <use xlink:href="#DejaVuSans-63" x="376.460938"/>
      <use xlink:href="#DejaVuSans-65" x="431.441406"/>
      <use xlink:href="#DejaVuSans-20" x="492.964844"/>
      <use xlink:href="#DejaVuSans-73" x="524.751953"/>
      <use xlink:href="#DejaVuSans-63" x="576.851562"/>
      <use xlink:href="#DejaVuSans-6f" x="631.832031"/>
      <use xlink:href="#DejaVuSans-72" x="693.013672"/>
      <use xlink:href="#DejaVuSans-65" x="731.876953"/>
     </g>
    </g>
    <g id="line2d_18">
     <path d="M 66.6 69.248562 
L 76.6 69.248562 
L 86.6 69.248562 
" style="fill: none; stroke: #ff7f0e; stroke-width: 1.5; stroke-linecap: square"/>
    </g>
    <g id="text_17">
     <!-- Test Dice score -->
     <g transform="translate(94.6 72.748562) scale(0.1 -0.1)">
      <use xlink:href="#DejaVuSans-54"/>
      <use xlink:href="#DejaVuSans-65" x="44.083984"/>
      <use xlink:href="#DejaVuSans-73" x="105.607422"/>
      <use xlink:href="#DejaVuSans-74" x="157.707031"/>
      <use xlink:href="#DejaVuSans-20" x="196.916016"/>
      <use xlink:href="#DejaVuSans-44" x="228.703125"/>
      <use xlink:href="#DejaVuSans-69" x="305.705078"/>
      <use xlink:href="#DejaVuSans-63" x="333.488281"/>
      <use xlink:href="#DejaVuSans-65" x="388.46875"/>
      <use xlink:href="#DejaVuSans-20" x="449.992188"/>
      <use xlink:href="#DejaVuSans-73" x="481.779297"/>
      <use xlink:href="#DejaVuSans-63" x="533.878906"/>
      <use xlink:href="#DejaVuSans-6f" x="588.859375"/>
      <use xlink:href="#DejaVuSans-72" x="650.041016"/>
      <use xlink:href="#DejaVuSans-65" x="688.904297"/>
     </g>
    </g>
   </g>
  </g>
 </g>
 <defs>
  <clipPath id="pb9e347c1f8">
   <rect x="57.6" y="41.472" width="357.12" height="266.112"/>
  </clipPath>
 </defs>
</svg>
