<?xml version="1.0" encoding="utf-8" standalone="no"?>
<!DOCTYPE svg PUBLIC "-//W3C//DTD SVG 1.1//EN"
  "http://www.w3.org/Graphics/SVG/1.1/DTD/svg11.dtd">
<svg xmlns:xlink="http://www.w3.org/1999/xlink" width="460.8pt" height="345.6pt" viewBox="0 0 460.8 345.6" xmlns="http://www.w3.org/2000/svg" version="1.1">
 <metadata>
  <rdf:RDF xmlns:dc="http://purl.org/dc/elements/1.1/" xmlns:cc="http://creativecommons.org/ns#" xmlns:rdf="http://www.w3.org/1999/02/22-rdf-syntax-ns#">
   <cc:Work>
    <dc:type rdf:resource="http://purl.org/dc/dcmitype/StillImage"/>
    <dc:date>2023-04-09T09:07:13.353739</dc:date>
    <dc:format>image/svg+xml</dc:format>
    <dc:creator>
     <cc:Agent>
      <dc:title>Matplotlib v3.6.2, https://matplotlib.org/</dc:title>
     </cc:Agent>
    </dc:creator>
   </cc:Work>
  </rdf:RDF>
 </metadata>
 <defs>
  <style type="text/css">*{stroke-linejoin: round; stroke-linecap: butt}</style>
 </defs>
 <g id="figure_1">
  <g id="patch_1">
   <path d="M 0 345.6 
L 460.8 345.6 
L 460.8 0 
L 0 0 
z
" style="fill: #ffffff"/>
  </g>
  <g id="axes_1">
   <g id="patch_2">
    <path d="M 57.6 307.584 
L 414.72 307.584 
L 414.72 41.472 
L 57.6 41.472 
z
" style="fill: #ffffff"/>
   </g>
   <g id="matplotlib.axis_1">
    <g id="xtick_1">
     <g id="line2d_1">
      <defs>
       <path id="me9673f7547" d="M 0 0 
L 0 3.5 
" style="stroke: #000000; stroke-width: 0.8"/>
      </defs>
      <g>
       <use xlink:href="#me9673f7547" x="73.832727" y="307.584" style="stroke: #000000; stroke-width: 0.8"/>
      </g>
     </g>
     <g id="text_1">
      <!-- 0 -->
      <g transform="translate(70.651477 322.182437) scale(0.1 -0.1)">
       <defs>
        <path id="DejaVuSans-30" d="M 2034 4250 
Q 1547 4250 1301 3770 
Q 1056 3291 1056 2328 
Q 1056 1369 1301 889 
Q 1547 409 2034 409 
Q 2525 409 2770 889 
Q 3016 1369 3016 2328 
Q 3016 3291 2770 3770 
Q 2525 4250 2034 4250 
z
M 2034 4750 
Q 2819 4750 3233 4129 
Q 3647 3509 3647 2328 
Q 3647 1150 3233 529 
Q 2819 -91 2034 -91 
Q 1250 -91 836 529 
Q 422 1150 422 2328 
Q 422 3509 836 4129 
Q 1250 4750 2034 4750 
z
" transform="scale(0.015625)"/>
       </defs>
       <use xlink:href="#DejaVuSans-30"/>
      </g>
     </g>
    </g>
    <g id="xtick_2">
     <g id="line2d_2">
      <g>
       <use xlink:href="#me9673f7547" x="138.893758" y="307.584" style="stroke: #000000; stroke-width: 0.8"/>
      </g>
     </g>
     <g id="text_2">
      <!-- 100 -->
      <g transform="translate(129.350008 322.182437) scale(0.1 -0.1)">
       <defs>
        <path id="DejaVuSans-31" d="M 794 531 
L 1825 531 
L 1825 4091 
L 703 3866 
L 703 4441 
L 1819 4666 
L 2450 4666 
L 2450 531 
L 3481 531 
L 3481 0 
L 794 0 
L 794 531 
z
" transform="scale(0.015625)"/>
       </defs>
       <use xlink:href="#DejaVuSans-31"/>
       <use xlink:href="#DejaVuSans-30" x="63.623047"/>
       <use xlink:href="#DejaVuSans-30" x="127.246094"/>
      </g>
     </g>
    </g>
    <g id="xtick_3">
     <g id="line2d_3">
      <g>
       <use xlink:href="#me9673f7547" x="203.95479" y="307.584" style="stroke: #000000; stroke-width: 0.8"/>
      </g>
     </g>
     <g id="text_3">
      <!-- 200 -->
      <g transform="translate(194.41104 322.182437) scale(0.1 -0.1)">
       <defs>
        <path id="DejaVuSans-32" d="M 1228 531 
L 3431 531 
L 3431 0 
L 469 0 
L 469 531 
Q 828 903 1448 1529 
Q 2069 2156 2228 2338 
Q 2531 2678 2651 2914 
Q 2772 3150 2772 3378 
Q 2772 3750 2511 3984 
Q 2250 4219 1831 4219 
Q 1534 4219 1204 4116 
Q 875 4013 500 3803 
L 500 4441 
Q 881 4594 1212 4672 
Q 1544 4750 1819 4750 
Q 2544 4750 2975 4387 
Q 3406 4025 3406 3419 
Q 3406 3131 3298 2873 
Q 3191 2616 2906 2266 
Q 2828 2175 2409 1742 
Q 1991 1309 1228 531 
z
" transform="scale(0.015625)"/>
       </defs>
       <use xlink:href="#DejaVuSans-32"/>
       <use xlink:href="#DejaVuSans-30" x="63.623047"/>
       <use xlink:href="#DejaVuSans-30" x="127.246094"/>
      </g>
     </g>
    </g>
    <g id="xtick_4">
     <g id="line2d_4">
      <g>
       <use xlink:href="#me9673f7547" x="269.015821" y="307.584" style="stroke: #000000; stroke-width: 0.8"/>
      </g>
     </g>
     <g id="text_4">
      <!-- 300 -->
      <g transform="translate(259.472071 322.182437) scale(0.1 -0.1)">
       <defs>
        <path id="DejaVuSans-33" d="M 2597 2516 
Q 3050 2419 3304 2112 
Q 3559 1806 3559 1356 
Q 3559 666 3084 287 
Q 2609 -91 1734 -91 
Q 1441 -91 1130 -33 
Q 819 25 488 141 
L 488 750 
Q 750 597 1062 519 
Q 1375 441 1716 441 
Q 2309 441 2620 675 
Q 2931 909 2931 1356 
Q 2931 1769 2642 2001 
Q 2353 2234 1838 2234 
L 1294 2234 
L 1294 2753 
L 1863 2753 
Q 2328 2753 2575 2939 
Q 2822 3125 2822 3475 
Q 2822 3834 2567 4026 
Q 2313 4219 1838 4219 
Q 1578 4219 1281 4162 
Q 984 4106 628 3988 
L 628 4550 
Q 988 4650 1302 4700 
Q 1616 4750 1894 4750 
Q 2613 4750 3031 4423 
Q 3450 4097 3450 3541 
Q 3450 3153 3228 2886 
Q 3006 2619 2597 2516 
z
" transform="scale(0.015625)"/>
       </defs>
       <use xlink:href="#DejaVuSans-33"/>
       <use xlink:href="#DejaVuSans-30" x="63.623047"/>
       <use xlink:href="#DejaVuSans-30" x="127.246094"/>
      </g>
     </g>
    </g>
    <g id="xtick_5">
     <g id="line2d_5">
      <g>
       <use xlink:href="#me9673f7547" x="334.076852" y="307.584" style="stroke: #000000; stroke-width: 0.8"/>
      </g>
     </g>
     <g id="text_5">
      <!-- 400 -->
      <g transform="translate(324.533102 322.182437) scale(0.1 -0.1)">
       <defs>
        <path id="DejaVuSans-34" d="M 2419 4116 
L 825 1625 
L 2419 1625 
L 2419 4116 
z
M 2253 4666 
L 3047 4666 
L 3047 1625 
L 3713 1625 
L 3713 1100 
L 3047 1100 
L 3047 0 
L 2419 0 
L 2419 1100 
L 313 1100 
L 313 1709 
L 2253 4666 
z
" transform="scale(0.015625)"/>
       </defs>
       <use xlink:href="#DejaVuSans-34"/>
       <use xlink:href="#DejaVuSans-30" x="63.623047"/>
       <use xlink:href="#DejaVuSans-30" x="127.246094"/>
      </g>
     </g>
    </g>
    <g id="xtick_6">
     <g id="line2d_6">
      <g>
       <use xlink:href="#me9673f7547" x="399.137883" y="307.584" style="stroke: #000000; stroke-width: 0.8"/>
      </g>
     </g>
     <g id="text_6">
      <!-- 500 -->
      <g transform="translate(389.594133 322.182437) scale(0.1 -0.1)">
       <defs>
        <path id="DejaVuSans-35" d="M 691 4666 
L 3169 4666 
L 3169 4134 
L 1269 4134 
L 1269 2991 
Q 1406 3038 1543 3061 
Q 1681 3084 1819 3084 
Q 2600 3084 3056 2656 
Q 3513 2228 3513 1497 
Q 3513 744 3044 326 
Q 2575 -91 1722 -91 
Q 1428 -91 1123 -41 
Q 819 9 494 109 
L 494 744 
Q 775 591 1075 516 
Q 1375 441 1709 441 
Q 2250 441 2565 725 
Q 2881 1009 2881 1497 
Q 2881 1984 2565 2268 
Q 2250 2553 1709 2553 
Q 1456 2553 1204 2497 
Q 953 2441 691 2322 
L 691 4666 
z
" transform="scale(0.015625)"/>
       </defs>
       <use xlink:href="#DejaVuSans-35"/>
       <use xlink:href="#DejaVuSans-30" x="63.623047"/>
       <use xlink:href="#DejaVuSans-30" x="127.246094"/>
      </g>
     </g>
    </g>
   </g>
   <g id="matplotlib.axis_2">
    <g id="ytick_1">
     <g id="line2d_7">
      <defs>
       <path id="m2a7632356e" d="M 0 0 
L -3.5 0 
" style="stroke: #000000; stroke-width: 0.8"/>
      </defs>
      <g>
       <use xlink:href="#m2a7632356e" x="57.6" y="194.067862" style="stroke: #000000; stroke-width: 0.8"/>
      </g>
     </g>
     <g id="text_7">
      <!-- $\mathdefault{10^{-2}}$ -->
      <g transform="translate(27.1 197.867081) scale(0.1 -0.1)">
       <defs>
        <path id="DejaVuSans-2212" d="M 678 2272 
L 4684 2272 
L 4684 1741 
L 678 1741 
L 678 2272 
z
" transform="scale(0.015625)"/>
       </defs>
       <use xlink:href="#DejaVuSans-31" transform="translate(0 0.765625)"/>
       <use xlink:href="#DejaVuSans-30" transform="translate(63.623047 0.765625)"/>
       <use xlink:href="#DejaVuSans-2212" transform="translate(128.203125 39.046875) scale(0.7)"/>
       <use xlink:href="#DejaVuSans-32" transform="translate(186.855469 39.046875) scale(0.7)"/>
      </g>
     </g>
    </g>
    <g id="ytick_2">
     <g id="line2d_8">
      <g>
       <use xlink:href="#m2a7632356e" x="57.6" y="61.408192" style="stroke: #000000; stroke-width: 0.8"/>
      </g>
     </g>
     <g id="text_8">
      <!-- $\mathdefault{10^{-1}}$ -->
      <g transform="translate(27.1 65.207411) scale(0.1 -0.1)">
       <use xlink:href="#DejaVuSans-31" transform="translate(0 0.684375)"/>
       <use xlink:href="#DejaVuSans-30" transform="translate(63.623047 0.684375)"/>
       <use xlink:href="#DejaVuSans-2212" transform="translate(128.203125 38.965625) scale(0.7)"/>
       <use xlink:href="#DejaVuSans-31" transform="translate(186.855469 38.965625) scale(0.7)"/>
      </g>
     </g>
    </g>
    <g id="ytick_3">
     <g id="line2d_9">
      <defs>
       <path id="m74dc232c43" d="M 0 0 
L -2 0 
" style="stroke: #000000; stroke-width: 0.6"/>
      </defs>
      <g>
       <use xlink:href="#m74dc232c43" x="57.6" y="286.792993" style="stroke: #000000; stroke-width: 0.6"/>
      </g>
     </g>
    </g>
    <g id="ytick_4">
     <g id="line2d_10">
      <g>
       <use xlink:href="#m74dc232c43" x="57.6" y="263.432784" style="stroke: #000000; stroke-width: 0.6"/>
      </g>
     </g>
    </g>
    <g id="ytick_5">
     <g id="line2d_11">
      <g>
       <use xlink:href="#m74dc232c43" x="57.6" y="246.858453" style="stroke: #000000; stroke-width: 0.6"/>
      </g>
     </g>
    </g>
    <g id="ytick_6">
     <g id="line2d_12">
      <g>
       <use xlink:href="#m74dc232c43" x="57.6" y="234.002402" style="stroke: #000000; stroke-width: 0.6"/>
      </g>
     </g>
    </g>
    <g id="ytick_7">
     <g id="line2d_13">
      <g>
       <use xlink:href="#m74dc232c43" x="57.6" y="223.498244" style="stroke: #000000; stroke-width: 0.6"/>
      </g>
     </g>
    </g>
    <g id="ytick_8">
     <g id="line2d_14">
      <g>
       <use xlink:href="#m74dc232c43" x="57.6" y="214.617105" style="stroke: #000000; stroke-width: 0.6"/>
      </g>
     </g>
    </g>
    <g id="ytick_9">
     <g id="line2d_15">
      <g>
       <use xlink:href="#m74dc232c43" x="57.6" y="206.923913" style="stroke: #000000; stroke-width: 0.6"/>
      </g>
     </g>
    </g>
    <g id="ytick_10">
     <g id="line2d_16">
      <g>
       <use xlink:href="#m74dc232c43" x="57.6" y="200.138036" style="stroke: #000000; stroke-width: 0.6"/>
      </g>
     </g>
    </g>
    <g id="ytick_11">
     <g id="line2d_17">
      <g>
       <use xlink:href="#m74dc232c43" x="57.6" y="154.133322" style="stroke: #000000; stroke-width: 0.6"/>
      </g>
     </g>
    </g>
    <g id="ytick_12">
     <g id="line2d_18">
      <g>
       <use xlink:href="#m74dc232c43" x="57.6" y="130.773114" style="stroke: #000000; stroke-width: 0.6"/>
      </g>
     </g>
    </g>
    <g id="ytick_13">
     <g id="line2d_19">
      <g>
       <use xlink:href="#m74dc232c43" x="57.6" y="114.198782" style="stroke: #000000; stroke-width: 0.6"/>
      </g>
     </g>
    </g>
    <g id="ytick_14">
     <g id="line2d_20">
      <g>
       <use xlink:href="#m74dc232c43" x="57.6" y="101.342732" style="stroke: #000000; stroke-width: 0.6"/>
      </g>
     </g>
    </g>
    <g id="ytick_15">
     <g id="line2d_21">
      <g>
       <use xlink:href="#m74dc232c43" x="57.6" y="90.838574" style="stroke: #000000; stroke-width: 0.6"/>
      </g>
     </g>
    </g>
    <g id="ytick_16">
     <g id="line2d_22">
      <g>
       <use xlink:href="#m74dc232c43" x="57.6" y="81.957435" style="stroke: #000000; stroke-width: 0.6"/>
      </g>
     </g>
    </g>
    <g id="ytick_17">
     <g id="line2d_23">
      <g>
       <use xlink:href="#m74dc232c43" x="57.6" y="74.264242" style="stroke: #000000; stroke-width: 0.6"/>
      </g>
     </g>
    </g>
    <g id="ytick_18">
     <g id="line2d_24">
      <g>
       <use xlink:href="#m74dc232c43" x="57.6" y="67.478366" style="stroke: #000000; stroke-width: 0.6"/>
      </g>
     </g>
    </g>
   </g>
   <g id="line2d_25">
    <path d="M 73.832727 53.568 
L 74.483338 127.095906 
L 75.784558 156.881006 
L 76.435169 161.022358 
L 77.085779 164.346527 
L 77.736389 166.488695 
L 78.386999 167.411177 
L 80.33883 172.972082 
L 80.989441 174.105748 
L 81.640051 175.001381 
L 82.290661 175.469881 
L 82.941272 175.099526 
L 83.591882 176.125103 
L 84.893103 177.553987 
L 85.543713 178.201807 
L 86.194323 176.403919 
L 86.844934 175.438814 
L 87.495544 177.769643 
L 88.146154 179.297194 
L 88.796764 178.091033 
L 89.447375 179.475288 
L 90.097985 179.694924 
L 90.748595 180.562012 
L 91.399206 180.331604 
L 92.049816 181.172873 
L 93.351037 180.522979 
L 94.001647 180.837623 
L 94.652257 179.490349 
L 95.302868 181.209883 
L 95.953478 182.012053 
L 97.254698 182.275462 
L 97.905309 183.292925 
L 98.555919 182.176551 
L 99.206529 183.989118 
L 99.85714 184.607826 
L 100.50775 184.58388 
L 101.15836 186.046363 
L 101.808971 185.978889 
L 102.459581 184.480131 
L 103.110191 184.317007 
L 103.760802 185.685091 
L 104.411412 186.361796 
L 105.062022 187.752686 
L 105.712633 187.942153 
L 106.363243 188.755649 
L 107.664463 189.692153 
L 108.315074 189.833854 
L 108.965684 190.434476 
L 109.616294 190.221829 
L 110.266905 190.840139 
L 110.917515 189.390788 
L 111.568125 189.424552 
L 112.869346 192.042426 
L 113.519956 192.531761 
L 114.170567 193.710539 
L 114.821177 193.170043 
L 116.122398 193.163586 
L 116.773008 193.531227 
L 117.423618 194.562603 
L 118.724839 193.412819 
L 119.375449 194.810759 
L 120.026059 194.43116 
L 120.67667 195.613902 
L 121.32728 195.682484 
L 121.97789 196.355632 
L 122.628501 195.58216 
L 123.279111 196.803656 
L 123.929721 198.354735 
L 124.580332 197.866557 
L 125.881552 198.850782 
L 126.532163 197.228546 
L 127.833383 199.005122 
L 128.483993 200.719795 
L 129.134604 199.755392 
L 129.785214 200.711706 
L 130.435824 197.890952 
L 131.086435 200.18284 
L 131.737045 201.760914 
L 132.387655 200.773892 
L 133.038266 202.019774 
L 133.688876 202.050317 
L 134.339486 201.06028 
L 134.990097 202.364408 
L 135.640707 202.873473 
L 136.291317 203.733361 
L 136.941927 203.102365 
L 137.592538 204.658513 
L 138.243148 204.450509 
L 138.893758 204.996906 
L 139.544369 205.743853 
L 140.194979 205.714832 
L 140.845589 205.958038 
L 141.4962 207.524557 
L 142.14681 207.124705 
L 142.79742 207.48673 
L 143.448031 208.103789 
L 144.098641 208.883991 
L 144.749251 209.451132 
L 145.399862 209.505219 
L 146.050472 210.340075 
L 146.701082 210.910325 
L 147.351692 210.617229 
L 148.002303 210.120503 
L 148.652913 205.577638 
L 149.303523 208.222309 
L 149.954134 209.672428 
L 150.604744 210.34045 
L 151.255354 211.491938 
L 151.905965 210.726867 
L 152.556575 210.783386 
L 153.207185 212.10435 
L 153.857796 212.428581 
L 154.508406 213.750606 
L 155.159016 213.342317 
L 155.809627 213.672308 
L 156.460237 214.949229 
L 158.412068 214.465028 
L 159.062678 215.052749 
L 159.713288 214.694413 
L 160.363899 215.856198 
L 161.014509 217.484875 
L 161.665119 216.640736 
L 162.31573 217.584071 
L 162.96634 219.175898 
L 163.61695 219.330595 
L 164.918171 215.54458 
L 165.568781 215.115977 
L 166.219392 218.918506 
L 166.870002 219.717771 
L 167.520612 219.223101 
L 168.171222 219.821029 
L 168.821833 220.81078 
L 169.472443 220.436239 
L 170.123053 218.373031 
L 170.773664 219.969427 
L 171.424274 222.157158 
L 172.074884 222.086805 
L 172.725495 221.542428 
L 173.376105 222.804379 
L 174.026715 220.493523 
L 174.677326 223.489984 
L 175.327936 224.200577 
L 175.978546 224.74621 
L 176.629156 224.468528 
L 177.279767 225.093188 
L 177.930377 225.162923 
L 178.580987 225.527093 
L 179.231598 220.89534 
L 179.882208 217.739126 
L 180.532818 222.75304 
L 181.183429 223.892874 
L 181.834039 226.379273 
L 182.484649 226.137454 
L 183.13526 228.5483 
L 183.78587 226.795869 
L 184.43648 225.786833 
L 185.087091 226.06145 
L 185.737701 228.50532 
L 186.388311 227.273333 
L 187.038921 227.16967 
L 188.340142 230.783235 
L 188.990752 231.205284 
L 189.641363 229.077317 
L 190.291973 224.736235 
L 190.942583 228.841694 
L 191.593194 229.650259 
L 192.243804 228.5265 
L 192.894414 229.301277 
L 193.545025 230.730808 
L 194.195635 233.101744 
L 194.846245 232.312516 
L 195.496856 234.124666 
L 196.147466 232.076305 
L 196.798076 234.34903 
L 198.099297 233.525906 
L 198.749907 234.941024 
L 199.400517 234.262331 
L 200.051128 235.360689 
L 200.701738 235.703483 
L 201.352348 234.820724 
L 202.002959 236.091556 
L 202.653569 235.519845 
L 203.304179 235.922279 
L 203.95479 236.75221 
L 204.6054 237.034812 
L 205.25601 238.969051 
L 206.557231 239.066608 
L 207.207841 236.916909 
L 207.858451 236.445894 
L 208.509062 237.289587 
L 209.159672 238.940358 
L 209.810282 239.898191 
L 210.460893 241.173751 
L 211.111503 238.937068 
L 211.762113 235.502376 
L 212.412724 237.785355 
L 213.063334 238.301847 
L 213.713944 237.381899 
L 214.364555 238.644087 
L 215.015165 241.12535 
L 215.665775 239.859707 
L 216.316385 241.474828 
L 216.966996 242.051828 
L 217.617606 240.84026 
L 218.268216 242.415951 
L 218.918827 240.915163 
L 219.569437 241.383424 
L 220.220047 242.431535 
L 220.870658 241.064781 
L 221.521268 237.798175 
L 222.171878 240.096288 
L 222.822489 243.413089 
L 223.473099 242.117068 
L 224.123709 244.847731 
L 224.77432 244.731251 
L 225.42493 243.086968 
L 226.07554 244.153264 
L 226.72615 246.474039 
L 227.376761 245.936555 
L 228.027371 245.703088 
L 228.677981 243.947102 
L 229.328592 236.834997 
L 229.979202 239.752856 
L 230.629812 240.878172 
L 231.280423 236.676928 
L 231.931033 239.994049 
L 232.581643 245.036931 
L 233.232254 245.300471 
L 233.882864 248.995623 
L 234.533474 249.121053 
L 235.184085 249.830213 
L 235.834695 250.931468 
L 236.485305 250.939194 
L 237.135915 251.728002 
L 237.786526 248.801858 
L 238.437136 249.046791 
L 239.087746 251.359924 
L 239.738357 252.539623 
L 240.388967 252.799823 
L 241.039577 253.832132 
L 241.690188 253.0882 
L 242.340798 254.465276 
L 242.991408 252.840805 
L 243.642019 253.841506 
L 244.292629 254.10076 
L 244.943239 254.659378 
L 245.59385 253.615715 
L 246.24446 254.132814 
L 246.89507 253.244265 
L 247.54568 254.403637 
L 248.196291 253.059774 
L 248.846901 253.928462 
L 249.497511 249.769446 
L 250.798732 255.492448 
L 251.449342 253.982671 
L 252.099953 254.956939 
L 252.750563 254.929283 
L 253.401173 255.844267 
L 254.051784 255.288437 
L 254.702394 258.088778 
L 255.353004 258.246226 
L 256.654225 251.729122 
L 257.304835 251.719764 
L 257.955445 252.092056 
L 258.606056 253.188342 
L 259.256666 256.352476 
L 259.907276 258.127378 
L 260.557887 259.344621 
L 261.208497 257.623941 
L 261.859107 257.791405 
L 262.509718 259.057399 
L 263.160328 259.391024 
L 263.810938 253.507032 
L 264.461549 257.360938 
L 265.112159 259.148568 
L 265.762769 260.293322 
L 266.413379 260.447136 
L 267.06399 261.667862 
L 267.7146 261.197812 
L 269.015821 262.700436 
L 269.666431 257.763444 
L 270.317041 260.535867 
L 270.967652 260.505194 
L 271.618262 261.727941 
L 272.268872 262.248038 
L 272.919483 261.041087 
L 273.570093 260.403896 
L 274.871314 257.977113 
L 275.521924 263.366192 
L 276.172534 263.26331 
L 276.823144 263.745723 
L 277.473755 264.604977 
L 278.124365 261.19763 
L 278.774975 261.893139 
L 279.425586 264.802733 
L 280.076196 263.525152 
L 280.726806 261.643922 
L 281.377417 262.173289 
L 282.028027 260.258177 
L 282.678637 262.341812 
L 283.329248 259.594122 
L 283.979858 261.012803 
L 284.630468 260.508538 
L 285.281079 260.909636 
L 285.931689 265.551524 
L 286.582299 263.316187 
L 287.232909 264.204322 
L 287.88352 266.004774 
L 288.53413 267.283382 
L 289.18474 265.728547 
L 289.835351 266.365507 
L 290.485961 266.188819 
L 291.787182 264.036243 
L 292.437792 267.445776 
L 293.739013 266.713157 
L 294.389623 268.467166 
L 295.040233 269.248611 
L 296.341454 270.091475 
L 296.992064 271.457798 
L 297.642674 271.716548 
L 298.293285 270.153532 
L 298.943895 272.049452 
L 299.594505 271.53302 
L 300.245116 269.125908 
L 300.895726 271.752791 
L 301.546336 269.352586 
L 302.196947 268.682969 
L 302.847557 272.400507 
L 303.498167 273.628363 
L 304.148778 273.550504 
L 304.799388 272.24401 
L 305.449998 272.393923 
L 306.100608 273.032553 
L 306.751219 274.002213 
L 307.401829 270.288923 
L 308.052439 275.615421 
L 308.70305 272.032623 
L 309.35366 270.458039 
L 310.00427 273.577929 
L 310.654881 272.368515 
L 311.305491 275.054859 
L 311.956101 271.608363 
L 312.606712 272.583569 
L 313.257322 275.846085 
L 313.907932 274.750622 
L 314.558543 272.613226 
L 315.209153 272.146144 
L 315.859763 272.957832 
L 317.160984 277.114803 
L 317.811594 276.813728 
L 318.462204 278.280425 
L 319.112815 278.086828 
L 320.414035 278.086032 
L 321.715256 276.914545 
L 322.365866 277.146924 
L 323.016477 271.704557 
L 323.667087 273.999822 
L 324.317697 275.485908 
L 324.968308 277.319555 
L 325.618918 273.595159 
L 326.269528 278.801256 
L 326.920138 275.039429 
L 327.570749 278.154447 
L 328.221359 278.649796 
L 328.871969 280.851362 
L 329.52258 281.581319 
L 330.17319 281.198024 
L 330.8238 281.403055 
L 331.474411 274.633972 
L 332.125021 271.695621 
L 332.775631 272.471884 
L 333.426242 274.620438 
L 334.076852 275.726274 
L 334.727462 275.201991 
L 336.028683 281.843114 
L 336.679293 278.306287 
L 337.329903 280.002693 
L 337.980514 275.571837 
L 338.631124 279.990902 
L 339.281734 279.875791 
L 339.932345 281.173535 
L 340.582955 281.061644 
L 341.233565 282.458789 
L 341.884176 278.980419 
L 342.534786 274.781354 
L 343.185396 276.368792 
L 343.836007 277.494175 
L 344.486617 277.535481 
L 345.137227 273.357918 
L 345.787837 280.87602 
L 346.438448 278.780673 
L 347.089058 281.438584 
L 347.739668 280.841059 
L 348.390279 282.577705 
L 349.691499 278.894968 
L 350.34211 284.708946 
L 350.99272 282.854399 
L 351.64333 282.914611 
L 352.293941 283.3661 
L 352.944551 285.138072 
L 353.595161 283.336856 
L 354.245772 286.375107 
L 354.896382 283.941855 
L 355.546992 283.922216 
L 356.197602 281.363698 
L 356.848213 283.874903 
L 357.498823 284.233668 
L 358.149433 280.245629 
L 359.450654 283.427545 
L 360.101264 282.798213 
L 360.751875 283.020246 
L 361.402485 284.424487 
L 362.053095 287.316032 
L 362.703706 286.832525 
L 363.354316 284.996666 
L 364.004926 282.462936 
L 364.655537 283.547854 
L 365.306147 287.631329 
L 365.956757 284.588394 
L 366.607367 288.656445 
L 367.908588 290.352328 
L 368.559198 289.114149 
L 369.209809 290.817574 
L 369.860419 290.668453 
L 370.511029 287.995598 
L 371.16164 290.75416 
L 371.81225 288.835119 
L 372.46286 287.921138 
L 373.764081 279.998685 
L 374.414691 283.01966 
L 375.065302 283.214783 
L 375.715912 285.550514 
L 376.366522 287.259017 
L 377.017132 292.00122 
L 377.667743 289.93505 
L 378.318353 291.991859 
L 378.968963 291.691044 
L 379.619574 288.09713 
L 380.270184 289.856375 
L 380.920794 284.137544 
L 381.571405 286.41845 
L 382.222015 288.066245 
L 382.872625 285.921106 
L 383.523236 289.586257 
L 384.173846 290.892547 
L 384.824456 291.741842 
L 385.475066 288.121566 
L 386.125677 290.792887 
L 386.776287 291.339893 
L 387.426897 294.006598 
L 388.077508 292.462726 
L 388.728118 292.780236 
L 389.378728 292.277599 
L 390.029339 295.488 
L 390.679949 294.431937 
L 391.330559 295.083633 
L 391.98117 293.726882 
L 392.63178 289.561021 
L 393.28239 292.924011 
L 393.933001 292.986161 
L 394.583611 290.957977 
L 395.234221 293.255254 
L 395.884831 292.771813 
L 396.535442 293.681944 
L 397.186052 292.771087 
L 397.836662 290.056925 
L 398.487273 288.739858 
L 398.487273 288.739858 
" clip-path="url(#p5663e7eb2c)" style="fill: none; stroke: #1f77b4; stroke-width: 1.5; stroke-linecap: square"/>
   </g>
   <g id="line2d_26">
    <path d="M 73.832727 111.681474 
L 75.133948 153.724167 
L 76.435169 164.202167 
L 78.386999 169.795017 
L 79.03761 170.904733 
L 79.68822 172.343598 
L 80.33883 173.276046 
L 80.989441 173.233566 
L 81.640051 174.586986 
L 82.290661 175.080767 
L 82.941272 175.426821 
L 83.591882 175.444692 
L 84.242492 176.363422 
L 84.893103 176.286895 
L 85.543713 175.758373 
L 86.194323 171.743592 
L 86.844934 176.565161 
L 87.495544 178.099086 
L 89.447375 179.351802 
L 90.097985 179.207133 
L 91.399206 180.263303 
L 92.049816 179.342381 
L 92.700426 179.761383 
L 93.351037 181.033912 
L 94.001647 175.288004 
L 94.652257 181.531298 
L 95.302868 180.38844 
L 95.953478 180.987596 
L 96.604088 181.960857 
L 97.254698 182.51321 
L 97.905309 177.704876 
L 98.555919 183.145494 
L 99.206529 184.236919 
L 99.85714 184.618061 
L 100.50775 184.796772 
L 101.15836 185.281836 
L 101.808971 183.857929 
L 103.760802 186.495968 
L 104.411412 186.929379 
L 105.062022 187.085706 
L 106.363243 188.248454 
L 107.013853 188.508431 
L 107.664463 189.326223 
L 108.315074 189.016326 
L 108.965684 189.86322 
L 109.616294 189.193017 
L 110.266905 190.085213 
L 110.917515 187.163993 
L 111.568125 191.041797 
L 112.218736 191.339916 
L 112.869346 191.408416 
L 113.519956 191.065264 
L 114.170567 192.129799 
L 114.821177 192.534932 
L 115.471787 192.317228 
L 116.773008 194.321816 
L 117.423618 194.398725 
L 118.074228 193.59112 
L 118.724839 193.870023 
L 119.375449 194.002429 
L 120.026059 195.802365 
L 121.32728 196.014519 
L 121.97789 194.239563 
L 122.628501 196.397676 
L 123.279111 197.245458 
L 123.929721 197.446631 
L 124.580332 198.183474 
L 125.230942 197.993359 
L 125.881552 197.615731 
L 126.532163 198.700313 
L 127.182773 197.179198 
L 127.833383 199.534896 
L 128.483993 199.082308 
L 129.134604 199.504231 
L 129.785214 196.947488 
L 130.435824 199.214968 
L 131.086435 200.052171 
L 131.737045 201.171437 
L 132.387655 201.237593 
L 133.038266 199.583695 
L 133.688876 200.141863 
L 134.339486 202.179272 
L 134.990097 202.361336 
L 135.640707 203.319825 
L 136.291317 201.074457 
L 136.941927 203.19294 
L 138.243148 205.257888 
L 138.893758 205.713363 
L 139.544369 204.539884 
L 140.194979 204.748126 
L 140.845589 206.680301 
L 141.4962 206.04628 
L 142.14681 207.207468 
L 142.79742 207.100765 
L 143.448031 207.67706 
L 144.098641 208.042673 
L 144.749251 208.130505 
L 145.399862 209.091291 
L 146.050472 209.144407 
L 146.701082 209.570458 
L 147.351692 210.27742 
L 148.002303 201.199853 
L 148.652913 205.206331 
L 149.954134 209.480768 
L 150.604744 209.10567 
L 151.255354 211.354997 
L 151.905965 209.387446 
L 152.556575 212.036368 
L 153.207185 212.012121 
L 154.508406 213.11268 
L 155.159016 212.799739 
L 155.809627 213.763515 
L 156.460237 213.47472 
L 157.110847 213.360786 
L 157.761457 212.434478 
L 158.412068 213.29507 
L 159.062678 213.908371 
L 159.713288 215.230636 
L 160.363899 216.127424 
L 161.014509 216.192688 
L 162.31573 217.14816 
L 162.96634 216.662372 
L 163.61695 213.828305 
L 164.267561 215.981871 
L 164.918171 212.319609 
L 165.568781 216.77378 
L 166.219392 217.564016 
L 166.870002 216.687302 
L 167.520612 218.033897 
L 168.171222 219.008407 
L 168.821833 219.286024 
L 169.472443 215.397982 
L 170.773664 221.016832 
L 171.424274 220.834827 
L 172.074884 221.562667 
L 172.725495 221.532204 
L 173.376105 222.228305 
L 174.026715 221.920186 
L 174.677326 222.148117 
L 175.327936 223.179799 
L 175.978546 223.820567 
L 176.629156 222.967754 
L 177.930377 224.891189 
L 178.580987 225.261369 
L 179.231598 211.602082 
L 179.882208 218.632871 
L 180.532818 223.292663 
L 181.834039 224.565493 
L 182.484649 225.801295 
L 183.13526 226.463312 
L 183.78587 226.8352 
L 184.43648 222.637972 
L 185.087091 225.938068 
L 185.737701 227.235883 
L 186.388311 226.702347 
L 187.038921 228.398358 
L 188.340142 228.797347 
L 188.990752 229.36724 
L 189.641363 218.142336 
L 190.291973 228.059387 
L 190.942583 226.740075 
L 191.593194 227.099668 
L 192.243804 225.016353 
L 192.894414 230.518361 
L 193.545025 231.456371 
L 194.846245 231.760939 
L 195.496856 229.113022 
L 196.798076 232.528386 
L 197.448686 230.459824 
L 198.099297 233.262337 
L 198.749907 232.962441 
L 199.400517 233.67433 
L 200.051128 233.300238 
L 200.701738 234.440373 
L 201.352348 233.683198 
L 202.653569 234.083192 
L 203.304179 235.357611 
L 203.95479 236.230473 
L 204.6054 236.657098 
L 205.25601 236.808563 
L 205.906621 236.19635 
L 206.557231 235.282236 
L 207.207841 231.846413 
L 207.858451 237.144637 
L 209.159672 238.326154 
L 209.810282 238.310346 
L 210.460893 237.896066 
L 211.111503 233.788224 
L 211.762113 238.296031 
L 212.412724 233.462928 
L 213.063334 235.344011 
L 213.713944 235.806261 
L 214.364555 239.04376 
L 215.015165 236.963966 
L 215.665775 240.254299 
L 216.316385 239.691787 
L 216.966996 237.37243 
L 217.617606 239.67954 
L 218.268216 238.119847 
L 218.918827 237.419843 
L 219.569437 234.738476 
L 220.220047 237.394595 
L 220.870658 230.368726 
L 222.171878 241.601521 
L 222.822489 241.559829 
L 223.473099 242.245211 
L 224.123709 243.479263 
L 224.77432 242.357811 
L 225.42493 243.560895 
L 226.07554 244.234671 
L 226.72615 243.541136 
L 227.376761 243.269044 
L 228.027371 245.591679 
L 228.677981 237.686809 
L 229.328592 239.163439 
L 229.979202 243.431741 
L 230.629812 221.920617 
L 231.280423 237.117793 
L 231.931033 241.996799 
L 232.581643 243.018105 
L 233.232254 245.577 
L 235.184085 247.781794 
L 235.834695 247.511576 
L 236.485305 248.28172 
L 237.135915 246.987639 
L 237.786526 247.928551 
L 238.437136 248.437346 
L 239.087746 248.696247 
L 239.738357 248.225621 
L 240.388967 249.347241 
L 241.039577 249.326022 
L 241.690188 250.010543 
L 242.340798 250.85651 
L 243.642019 250.060457 
L 244.292629 249.948315 
L 245.59385 251.883186 
L 246.24446 250.817907 
L 246.89507 248.249592 
L 247.54568 248.04913 
L 248.196291 252.198954 
L 248.846901 244.142238 
L 249.497511 248.881378 
L 250.148122 249.642555 
L 250.798732 251.140078 
L 251.449342 253.541501 
L 252.099953 250.335544 
L 252.750563 253.431394 
L 253.401173 254.124621 
L 254.051784 254.221223 
L 254.702394 254.124231 
L 255.353004 252.752993 
L 256.003615 252.175827 
L 256.654225 250.259934 
L 257.304835 252.598223 
L 257.955445 249.635319 
L 258.606056 251.417665 
L 259.256666 255.202929 
L 259.907276 255.261014 
L 260.557887 255.966282 
L 261.208497 254.554231 
L 261.859107 255.012835 
L 262.509718 257.04598 
L 263.160328 249.607973 
L 264.461549 256.067708 
L 265.112159 256.090726 
L 265.762769 256.592282 
L 266.413379 257.464718 
L 267.06399 257.411958 
L 267.7146 259.041393 
L 268.36521 257.210531 
L 269.015821 253.776322 
L 269.666431 258.95447 
L 270.317041 258.490036 
L 270.967652 259.286797 
L 271.618262 257.798798 
L 272.268872 260.132527 
L 272.919483 258.823751 
L 273.570093 259.013257 
L 274.220703 249.852043 
L 274.871314 259.982323 
L 275.521924 260.92259 
L 276.172534 260.570525 
L 276.823144 260.636491 
L 277.473755 257.557903 
L 278.124365 259.351508 
L 278.774975 259.967455 
L 279.425586 262.432184 
L 280.076196 261.464739 
L 280.726806 258.645401 
L 281.377417 258.700292 
L 282.028027 262.261346 
L 282.678637 254.724943 
L 283.329248 259.962398 
L 283.979858 262.281188 
L 284.630468 262.902958 
L 285.281079 263.011012 
L 286.582299 260.993589 
L 287.88352 263.640788 
L 288.53413 263.242842 
L 289.18474 264.707514 
L 289.835351 262.035567 
L 290.485961 261.756769 
L 291.136571 262.078457 
L 291.787182 263.921492 
L 292.437792 264.810687 
L 293.088402 264.847146 
L 293.739013 262.866954 
L 295.040233 265.66777 
L 295.690844 265.840211 
L 296.341454 266.500172 
L 296.992064 266.800123 
L 297.642674 266.739533 
L 298.293285 267.853399 
L 298.943895 266.608652 
L 299.594505 265.71295 
L 300.245116 263.86816 
L 300.895726 263.149535 
L 301.546336 267.270613 
L 302.196947 267.688764 
L 302.847557 267.455748 
L 303.498167 268.55921 
L 304.148778 266.21684 
L 304.799388 265.72228 
L 305.449998 266.154003 
L 306.100608 268.668706 
L 306.751219 266.787477 
L 307.401829 269.735113 
L 308.052439 267.870211 
L 308.70305 264.49382 
L 309.35366 268.482637 
L 310.00427 269.034055 
L 310.654881 270.261828 
L 311.305491 265.647716 
L 312.606712 270.738412 
L 313.257322 269.665051 
L 313.907932 271.190419 
L 314.558543 268.973279 
L 315.209153 270.592474 
L 316.510373 270.811642 
L 317.160984 271.255161 
L 317.811594 271.973852 
L 318.462204 271.609997 
L 319.112815 271.483603 
L 319.763425 272.282862 
L 320.414035 271.968098 
L 321.064646 272.475704 
L 321.715256 272.753051 
L 322.365866 269.785811 
L 323.016477 269.710352 
L 323.667087 267.363206 
L 324.317697 272.658296 
L 324.968308 269.063261 
L 325.618918 269.996334 
L 326.269528 271.126905 
L 326.920138 272.749503 
L 327.570749 266.89315 
L 328.221359 274.35268 
L 328.871969 274.553236 
L 329.52258 275.07901 
L 330.8238 270.013416 
L 331.474411 266.634566 
L 332.125021 273.265567 
L 332.775631 269.829216 
L 333.426242 273.889238 
L 334.076852 275.044122 
L 334.727462 271.913457 
L 335.378073 274.792409 
L 336.028683 272.879899 
L 336.679293 275.643657 
L 337.329903 265.835514 
L 337.980514 275.846964 
L 338.631124 274.929963 
L 339.281734 275.963823 
L 339.932345 272.562549 
L 340.582955 276.04794 
L 341.233565 274.06417 
L 341.884176 265.569105 
L 342.534786 267.240608 
L 343.185396 274.540116 
L 343.836007 273.892455 
L 344.486617 271.339748 
L 345.137227 273.801641 
L 345.787837 273.026127 
L 346.438448 275.997732 
L 347.089058 273.280355 
L 347.739668 268.616004 
L 348.390279 267.997281 
L 349.040889 274.738125 
L 349.691499 277.030761 
L 350.34211 275.693419 
L 350.99272 277.807659 
L 351.64333 278.698763 
L 352.293941 278.378217 
L 352.944551 274.69244 
L 353.595161 279.043137 
L 354.245772 278.8203 
L 354.896382 278.196367 
L 355.546992 272.933559 
L 356.197602 279.683653 
L 356.848213 278.156035 
L 357.498823 276.298709 
L 358.149433 280.135076 
L 358.800044 280.536565 
L 359.450654 272.963198 
L 360.101264 275.145116 
L 360.751875 269.989727 
L 361.402485 278.474421 
L 362.053095 276.939575 
L 362.703706 280.633841 
L 363.354316 271.73172 
L 364.004926 273.635689 
L 364.655537 281.242185 
L 365.306147 280.567211 
L 365.956757 281.126088 
L 366.607367 280.051483 
L 367.908588 281.390342 
L 368.559198 281.180613 
L 369.209809 282.478001 
L 369.860419 280.734412 
L 370.511029 279.876357 
L 371.16164 281.983846 
L 371.81225 282.607949 
L 372.46286 273.244148 
L 373.113471 273.236835 
L 373.764081 273.599255 
L 374.414691 273.148984 
L 375.065302 278.122836 
L 376.366522 282.677045 
L 377.017132 282.763701 
L 377.667743 283.554291 
L 378.318353 282.109836 
L 378.968963 279.06113 
L 379.619574 276.578609 
L 380.920794 280.715046 
L 381.571405 280.133152 
L 382.222015 279.010305 
L 382.872625 283.386505 
L 383.523236 282.233182 
L 384.173846 283.978756 
L 384.824456 281.959042 
L 385.475066 282.197432 
L 386.125677 283.731774 
L 386.776287 284.125692 
L 387.426897 283.355853 
L 388.077508 283.421716 
L 388.728118 284.601782 
L 389.378728 286.313618 
L 390.029339 284.906241 
L 390.679949 283.904209 
L 391.330559 281.003667 
L 391.98117 285.786138 
L 392.63178 285.116107 
L 393.28239 285.61754 
L 393.933001 279.40892 
L 394.583611 284.563068 
L 395.234221 282.465727 
L 395.884831 286.719398 
L 396.535442 287.423614 
L 397.186052 287.093984 
L 397.836662 280.693681 
L 398.487273 283.633652 
L 398.487273 283.633652 
" clip-path="url(#p5663e7eb2c)" style="fill: none; stroke: #ff7f0e; stroke-width: 1.5; stroke-linecap: square"/>
   </g>
   <g id="patch_3">
    <path d="M 57.6 307.584 
L 57.6 41.472 
" style="fill: none; stroke: #000000; stroke-width: 0.8; stroke-linejoin: miter; stroke-linecap: square"/>
   </g>
   <g id="patch_4">
    <path d="M 414.72 307.584 
L 414.72 41.472 
" style="fill: none; stroke: #000000; stroke-width: 0.8; stroke-linejoin: miter; stroke-linecap: square"/>
   </g>
   <g id="patch_5">
    <path d="M 57.6 307.584 
L 414.72 307.584 
" style="fill: none; stroke: #000000; stroke-width: 0.8; stroke-linejoin: miter; stroke-linecap: square"/>
   </g>
   <g id="patch_6">
    <path d="M 57.6 41.472 
L 414.72 41.472 
" style="fill: none; stroke: #000000; stroke-width: 0.8; stroke-linejoin: miter; stroke-linecap: square"/>
   </g>
   <g id="text_9">
    <!-- MSE loss during training -->
    <g transform="translate(163.472813 35.472) scale(0.12 -0.12)">
     <defs>
      <path id="DejaVuSans-4d" d="M 628 4666 
L 1569 4666 
L 2759 1491 
L 3956 4666 
L 4897 4666 
L 4897 0 
L 4281 0 
L 4281 4097 
L 3078 897 
L 2444 897 
L 1241 4097 
L 1241 0 
L 628 0 
L 628 4666 
z
" transform="scale(0.015625)"/>
      <path id="DejaVuSans-53" d="M 3425 4513 
L 3425 3897 
Q 3066 4069 2747 4153 
Q 2428 4238 2131 4238 
Q 1616 4238 1336 4038 
Q 1056 3838 1056 3469 
Q 1056 3159 1242 3001 
Q 1428 2844 1947 2747 
L 2328 2669 
Q 3034 2534 3370 2195 
Q 3706 1856 3706 1288 
Q 3706 609 3251 259 
Q 2797 -91 1919 -91 
Q 1588 -91 1214 -16 
Q 841 59 441 206 
L 441 856 
Q 825 641 1194 531 
Q 1563 422 1919 422 
Q 2459 422 2753 634 
Q 3047 847 3047 1241 
Q 3047 1584 2836 1778 
Q 2625 1972 2144 2069 
L 1759 2144 
Q 1053 2284 737 2584 
Q 422 2884 422 3419 
Q 422 4038 858 4394 
Q 1294 4750 2059 4750 
Q 2388 4750 2728 4690 
Q 3069 4631 3425 4513 
z
" transform="scale(0.015625)"/>
      <path id="DejaVuSans-45" d="M 628 4666 
L 3578 4666 
L 3578 4134 
L 1259 4134 
L 1259 2753 
L 3481 2753 
L 3481 2222 
L 1259 2222 
L 1259 531 
L 3634 531 
L 3634 0 
L 628 0 
L 628 4666 
z
" transform="scale(0.015625)"/>
      <path id="DejaVuSans-20" transform="scale(0.015625)"/>
      <path id="DejaVuSans-6c" d="M 603 4863 
L 1178 4863 
L 1178 0 
L 603 0 
L 603 4863 
z
" transform="scale(0.015625)"/>
      <path id="DejaVuSans-6f" d="M 1959 3097 
Q 1497 3097 1228 2736 
Q 959 2375 959 1747 
Q 959 1119 1226 758 
Q 1494 397 1959 397 
Q 2419 397 2687 759 
Q 2956 1122 2956 1747 
Q 2956 2369 2687 2733 
Q 2419 3097 1959 3097 
z
M 1959 3584 
Q 2709 3584 3137 3096 
Q 3566 2609 3566 1747 
Q 3566 888 3137 398 
Q 2709 -91 1959 -91 
Q 1206 -91 779 398 
Q 353 888 353 1747 
Q 353 2609 779 3096 
Q 1206 3584 1959 3584 
z
" transform="scale(0.015625)"/>
      <path id="DejaVuSans-73" d="M 2834 3397 
L 2834 2853 
Q 2591 2978 2328 3040 
Q 2066 3103 1784 3103 
Q 1356 3103 1142 2972 
Q 928 2841 928 2578 
Q 928 2378 1081 2264 
Q 1234 2150 1697 2047 
L 1894 2003 
Q 2506 1872 2764 1633 
Q 3022 1394 3022 966 
Q 3022 478 2636 193 
Q 2250 -91 1575 -91 
Q 1294 -91 989 -36 
Q 684 19 347 128 
L 347 722 
Q 666 556 975 473 
Q 1284 391 1588 391 
Q 1994 391 2212 530 
Q 2431 669 2431 922 
Q 2431 1156 2273 1281 
Q 2116 1406 1581 1522 
L 1381 1569 
Q 847 1681 609 1914 
Q 372 2147 372 2553 
Q 372 3047 722 3315 
Q 1072 3584 1716 3584 
Q 2034 3584 2315 3537 
Q 2597 3491 2834 3397 
z
" transform="scale(0.015625)"/>
      <path id="DejaVuSans-64" d="M 2906 2969 
L 2906 4863 
L 3481 4863 
L 3481 0 
L 2906 0 
L 2906 525 
Q 2725 213 2448 61 
Q 2172 -91 1784 -91 
Q 1150 -91 751 415 
Q 353 922 353 1747 
Q 353 2572 751 3078 
Q 1150 3584 1784 3584 
Q 2172 3584 2448 3432 
Q 2725 3281 2906 2969 
z
M 947 1747 
Q 947 1113 1208 752 
Q 1469 391 1925 391 
Q 2381 391 2643 752 
Q 2906 1113 2906 1747 
Q 2906 2381 2643 2742 
Q 2381 3103 1925 3103 
Q 1469 3103 1208 2742 
Q 947 2381 947 1747 
z
" transform="scale(0.015625)"/>
      <path id="DejaVuSans-75" d="M 544 1381 
L 544 3500 
L 1119 3500 
L 1119 1403 
Q 1119 906 1312 657 
Q 1506 409 1894 409 
Q 2359 409 2629 706 
Q 2900 1003 2900 1516 
L 2900 3500 
L 3475 3500 
L 3475 0 
L 2900 0 
L 2900 538 
Q 2691 219 2414 64 
Q 2138 -91 1772 -91 
Q 1169 -91 856 284 
Q 544 659 544 1381 
z
M 1991 3584 
L 1991 3584 
z
" transform="scale(0.015625)"/>
      <path id="DejaVuSans-72" d="M 2631 2963 
Q 2534 3019 2420 3045 
Q 2306 3072 2169 3072 
Q 1681 3072 1420 2755 
Q 1159 2438 1159 1844 
L 1159 0 
L 581 0 
L 581 3500 
L 1159 3500 
L 1159 2956 
Q 1341 3275 1631 3429 
Q 1922 3584 2338 3584 
Q 2397 3584 2469 3576 
Q 2541 3569 2628 3553 
L 2631 2963 
z
" transform="scale(0.015625)"/>
      <path id="DejaVuSans-69" d="M 603 3500 
L 1178 3500 
L 1178 0 
L 603 0 
L 603 3500 
z
M 603 4863 
L 1178 4863 
L 1178 4134 
L 603 4134 
L 603 4863 
z
" transform="scale(0.015625)"/>
      <path id="DejaVuSans-6e" d="M 3513 2113 
L 3513 0 
L 2938 0 
L 2938 2094 
Q 2938 2591 2744 2837 
Q 2550 3084 2163 3084 
Q 1697 3084 1428 2787 
Q 1159 2491 1159 1978 
L 1159 0 
L 581 0 
L 581 3500 
L 1159 3500 
L 1159 2956 
Q 1366 3272 1645 3428 
Q 1925 3584 2291 3584 
Q 2894 3584 3203 3211 
Q 3513 2838 3513 2113 
z
" transform="scale(0.015625)"/>
      <path id="DejaVuSans-67" d="M 2906 1791 
Q 2906 2416 2648 2759 
Q 2391 3103 1925 3103 
Q 1463 3103 1205 2759 
Q 947 2416 947 1791 
Q 947 1169 1205 825 
Q 1463 481 1925 481 
Q 2391 481 2648 825 
Q 2906 1169 2906 1791 
z
M 3481 434 
Q 3481 -459 3084 -895 
Q 2688 -1331 1869 -1331 
Q 1566 -1331 1297 -1286 
Q 1028 -1241 775 -1147 
L 775 -588 
Q 1028 -725 1275 -790 
Q 1522 -856 1778 -856 
Q 2344 -856 2625 -561 
Q 2906 -266 2906 331 
L 2906 616 
Q 2728 306 2450 153 
Q 2172 0 1784 0 
Q 1141 0 747 490 
Q 353 981 353 1791 
Q 353 2603 747 3093 
Q 1141 3584 1784 3584 
Q 2172 3584 2450 3431 
Q 2728 3278 2906 2969 
L 2906 3500 
L 3481 3500 
L 3481 434 
z
" transform="scale(0.015625)"/>
      <path id="DejaVuSans-74" d="M 1172 4494 
L 1172 3500 
L 2356 3500 
L 2356 3053 
L 1172 3053 
L 1172 1153 
Q 1172 725 1289 603 
Q 1406 481 1766 481 
L 2356 481 
L 2356 0 
L 1766 0 
Q 1100 0 847 248 
Q 594 497 594 1153 
L 594 3053 
L 172 3053 
L 172 3500 
L 594 3500 
L 594 4494 
L 1172 4494 
z
" transform="scale(0.015625)"/>
      <path id="DejaVuSans-61" d="M 2194 1759 
Q 1497 1759 1228 1600 
Q 959 1441 959 1056 
Q 959 750 1161 570 
Q 1363 391 1709 391 
Q 2188 391 2477 730 
Q 2766 1069 2766 1631 
L 2766 1759 
L 2194 1759 
z
M 3341 1997 
L 3341 0 
L 2766 0 
L 2766 531 
Q 2569 213 2275 61 
Q 1981 -91 1556 -91 
Q 1019 -91 701 211 
Q 384 513 384 1019 
Q 384 1609 779 1909 
Q 1175 2209 1959 2209 
L 2766 2209 
L 2766 2266 
Q 2766 2663 2505 2880 
Q 2244 3097 1772 3097 
Q 1472 3097 1187 3025 
Q 903 2953 641 2809 
L 641 3341 
Q 956 3463 1253 3523 
Q 1550 3584 1831 3584 
Q 2591 3584 2966 3190 
Q 3341 2797 3341 1997 
z
" transform="scale(0.015625)"/>
     </defs>
     <use xlink:href="#DejaVuSans-4d"/>
     <use xlink:href="#DejaVuSans-53" x="86.279297"/>
     <use xlink:href="#DejaVuSans-45" x="149.755859"/>
     <use xlink:href="#DejaVuSans-20" x="212.939453"/>
     <use xlink:href="#DejaVuSans-6c" x="244.726562"/>
     <use xlink:href="#DejaVuSans-6f" x="272.509766"/>
     <use xlink:href="#DejaVuSans-73" x="333.691406"/>
     <use xlink:href="#DejaVuSans-73" x="385.791016"/>
     <use xlink:href="#DejaVuSans-20" x="437.890625"/>
     <use xlink:href="#DejaVuSans-64" x="469.677734"/>
     <use xlink:href="#DejaVuSans-75" x="533.154297"/>
     <use xlink:href="#DejaVuSans-72" x="596.533203"/>
     <use xlink:href="#DejaVuSans-69" x="637.646484"/>
     <use xlink:href="#DejaVuSans-6e" x="665.429688"/>
     <use xlink:href="#DejaVuSans-67" x="728.808594"/>
     <use xlink:href="#DejaVuSans-20" x="792.285156"/>
     <use xlink:href="#DejaVuSans-74" x="824.072266"/>
     <use xlink:href="#DejaVuSans-72" x="863.28125"/>
     <use xlink:href="#DejaVuSans-61" x="904.394531"/>
     <use xlink:href="#DejaVuSans-69" x="965.673828"/>
     <use xlink:href="#DejaVuSans-6e" x="993.457031"/>
     <use xlink:href="#DejaVuSans-69" x="1056.835938"/>
     <use xlink:href="#DejaVuSans-6e" x="1084.619141"/>
     <use xlink:href="#DejaVuSans-67" x="1147.998047"/>
    </g>
   </g>
   <g id="legend_1">
    <g id="patch_7">
     <path d="M 304.765312 78.82825 
L 407.72 78.82825 
Q 409.72 78.82825 409.72 76.82825 
L 409.72 48.472 
Q 409.72 46.472 407.72 46.472 
L 304.765312 46.472 
Q 302.765312 46.472 302.765312 48.472 
L 302.765312 76.82825 
Q 302.765312 78.82825 304.765312 78.82825 
z
" style="fill: #ffffff; opacity: 0.8; stroke: #cccccc; stroke-linejoin: miter"/>
    </g>
    <g id="line2d_27">
     <path d="M 306.765312 54.570437 
L 316.765312 54.570437 
L 326.765312 54.570437 
" style="fill: none; stroke: #1f77b4; stroke-width: 1.5; stroke-linecap: square"/>
    </g>
    <g id="text_10">
     <!-- Train MSE loss -->
     <g transform="translate(334.765312 58.070437) scale(0.1 -0.1)">
      <defs>
       <path id="DejaVuSans-54" d="M -19 4666 
L 3928 4666 
L 3928 4134 
L 2272 4134 
L 2272 0 
L 1638 0 
L 1638 4134 
L -19 4134 
L -19 4666 
z
" transform="scale(0.015625)"/>
      </defs>
      <use xlink:href="#DejaVuSans-54"/>
      <use xlink:href="#DejaVuSans-72" x="46.333984"/>
      <use xlink:href="#DejaVuSans-61" x="87.447266"/>
      <use xlink:href="#DejaVuSans-69" x="148.726562"/>
      <use xlink:href="#DejaVuSans-6e" x="176.509766"/>
      <use xlink:href="#DejaVuSans-20" x="239.888672"/>
      <use xlink:href="#DejaVuSans-4d" x="271.675781"/>
      <use xlink:href="#DejaVuSans-53" x="357.955078"/>
      <use xlink:href="#DejaVuSans-45" x="421.431641"/>
      <use xlink:href="#DejaVuSans-20" x="484.615234"/>
      <use xlink:href="#DejaVuSans-6c" x="516.402344"/>
      <use xlink:href="#DejaVuSans-6f" x="544.185547"/>
      <use xlink:href="#DejaVuSans-73" x="605.367188"/>
      <use xlink:href="#DejaVuSans-73" x="657.466797"/>
     </g>
    </g>
    <g id="line2d_28">
     <path d="M 306.765312 69.248562 
L 316.765312 69.248562 
L 326.765312 69.248562 
" style="fill: none; stroke: #ff7f0e; stroke-width: 1.5; stroke-linecap: square"/>
    </g>
    <g id="text_11">
     <!-- Test MSE loss -->
     <g transform="translate(334.765312 72.748562) scale(0.1 -0.1)">
      <defs>
       <path id="DejaVuSans-65" d="M 3597 1894 
L 3597 1613 
L 953 1613 
Q 991 1019 1311 708 
Q 1631 397 2203 397 
Q 2534 397 2845 478 
Q 3156 559 3463 722 
L 3463 178 
Q 3153 47 2828 -22 
Q 2503 -91 2169 -91 
Q 1331 -91 842 396 
Q 353 884 353 1716 
Q 353 2575 817 3079 
Q 1281 3584 2069 3584 
Q 2775 3584 3186 3129 
Q 3597 2675 3597 1894 
z
M 3022 2063 
Q 3016 2534 2758 2815 
Q 2500 3097 2075 3097 
Q 1594 3097 1305 2825 
Q 1016 2553 972 2059 
L 3022 2063 
z
" transform="scale(0.015625)"/>
      </defs>
      <use xlink:href="#DejaVuSans-54"/>
      <use xlink:href="#DejaVuSans-65" x="44.083984"/>
      <use xlink:href="#DejaVuSans-73" x="105.607422"/>
      <use xlink:href="#DejaVuSans-74" x="157.707031"/>
      <use xlink:href="#DejaVuSans-20" x="196.916016"/>
      <use xlink:href="#DejaVuSans-4d" x="228.703125"/>
      <use xlink:href="#DejaVuSans-53" x="314.982422"/>
      <use xlink:href="#DejaVuSans-45" x="378.458984"/>
      <use xlink:href="#DejaVuSans-20" x="441.642578"/>
      <use xlink:href="#DejaVuSans-6c" x="473.429688"/>
      <use xlink:href="#DejaVuSans-6f" x="501.212891"/>
      <use xlink:href="#DejaVuSans-73" x="562.394531"/>
      <use xlink:href="#DejaVuSans-73" x="614.494141"/>
     </g>
    </g>
   </g>
  </g>
 </g>
 <defs>
  <clipPath id="p5663e7eb2c">
   <rect x="57.6" y="41.472" width="357.12" height="266.112"/>
  </clipPath>
 </defs>
</svg>
